<svg xmlns="http://www.w3.org/2000/svg">
<defs>
<font id="Aquawax-LightItalic" horiz-adv-x="1214" >
  <font-face 
    font-family="Aquawax"
    font-weight="300"
    font-style="italic"
    font-stretch="normal"
    units-per-em="2000"
    panose-1="2 0 5 3 2 0 0 2 0 4"
    ascent="1610"
    descent="-390"
    x-height="1050"
    cap-height="1433"
    bbox="-210 -455 3671 1886"
    underline-thickness="120"
    underline-position="-320"
    unicode-range="U+000D-FB06"
  />
<missing-glyph horiz-adv-x="4097" 
d="M2952 600q9 -8 16 -23q6 -14 6 -30q0 -14 -6 -29q-7 -14 -16 -23q-10 -10 -24 -16t-29 -6q-16 0 -29 6q-14 6 -24 16q-5 5 -9 11t-7 12q-6 15 -6 29q0 16 6 30q6 13 16 23q9 10 24 17q13 6 29 6q15 0 29 -6q15 -7 24 -17zM1109 577q-4 -6 -7 -10q-6 -4 -10 -6t-12 -2h-44
v61h44q6 0 12 -3q5 -1 10 -6q3 -3 7 -9q2 -8 2 -13q0 -4 -2 -12zM1479 600q10 -10 16 -23q6 -14 6 -30q0 -14 -6 -29q-3 -6 -7 -12t-9 -11q-10 -10 -24 -16t-29 -6q-16 0 -29 6q-14 6 -24 16q-9 9 -16 23q-6 15 -6 29q0 16 6 30q7 15 16 23q9 10 24 17q13 6 29 6q15 0 29 -6
q15 -7 24 -17zM1855 616q0 -6 2 -12l37 -84h-78l36 84q1 2 1 2.5t1 2.5q0 2 0.5 3.5t0.5 3.5zM784 610q3 -3 7 -11q3 -8 3 -14q0 -8 -3 -14q-4 -8 -7 -11q-6 -6 -11 -7q-4 -2 -7 -3t-7 -1h-44v71h44q6 0 14 -3q5 -1 11 -7zM3671 1084v-766h-3147v766h1193q0 80 30 151
q16 35 36.5 65t46.5 56q54 52 121 80q70 30 146 30q85 0 152 -32q70 -31 121 -84q26 -26 45.5 -56.5t34.5 -65.5q29 -70 29 -144h1192zM1774 1216q-26 -64 -26 -133q0 -71 27 -134q26 -62 74 -113q46 -47 111 -76q61 -29 137 -29q74 0 136 28q32 14 60 33t52 42t43 51t33 60
q27 64 27 138q0 67 -20 120q-19 53 -56 99q-35 42 -82 74q-24 14 -49.5 25.5t-51.5 19.5q-39 13 -92 13q-73 0 -139 -29q-64 -29 -111 -76q-45 -47 -73 -113zM817 561q5 12 5 24t-5 25q-4 9 -14 19q-8 9 -20 14q-10 5 -24 5h-71v-200h27v74h44q11 0 24 5q11 4 20 13
q10 10 14 21zM966 648h-124v-200h124v27h-96v60h78v28h-78v57h96v28zM1161 448l-63 86q10 3 16 8q9 6 13 13q5 5 9 16q2 5 2 9v9q0 14 -4 23q-2 5 -5.5 9.5t-7.5 9.5q-8 7 -18 12q-9 5 -23 5h-72v-200h28v83h30l52 -71q3 -5 10 -9q4 -3 15 -3h18zM1296 482q5 13 5 25

<glyph glyph-name=".notdef" horiz-adv-x="4097" 
d="M2952 600q9 -8 16 -23q6 -14 6 -30q0 -14 -6 -29q-7 -14 -16 -23q-10 -10 -24 -16t-29 -6q-16 0 -29 6q-14 6 -24 16q-5 5 -9 11t-7 12q-6 15 -6 29q0 16 6 30q6 13 16 23q9 10 24 17q13 6 29 6q15 0 29 -6q15 -7 24 -17zM1109 577q-4 -6 -7 -10q-6 -4 -10 -6t-12 -2h-44
v61h44q6 0 12 -3q5 -1 10 -6q3 -3 7 -9q2 -8 2 -13q0 -4 -2 -12zM1479 600q10 -10 16 -23q6 -14 6 -30q0 -14 -6 -29q-3 -6 -7 -12t-9 -11q-10 -10 -24 -16t-29 -6q-16 0 -29 6q-14 6 -24 16q-9 9 -16 23q-6 15 -6 29q0 16 6 30q7 15 16 23q9 10 24 17q13 6 29 6q15 0 29 -6
q15 -7 24 -17zM1855 616q0 -6 2 -12l37 -84h-78l36 84q1 2 1 2.5t1 2.5q0 2 0.5 3.5t0.5 3.5zM784 610q3 -3 7 -11q3 -8 3 -14q0 -8 -3 -14q-4 -8 -7 -11q-6 -6 -11 -7q-4 -2 -7 -3t-7 -1h-44v71h44q6 0 14 -3q5 -1 11 -7zM3671 1084v-766h-3147v766h1193q0 80 30 151
q16 35 36.5 65t46.5 56q54 52 121 80q70 30 146 30q85 0 152 -32q70 -31 121 -84q26 -26 45.5 -56.5t34.5 -65.5q29 -70 29 -144h1192zM1774 1216q-26 -64 -26 -133q0 -71 27 -134q26 -62 74 -113q46 -47 111 -76q61 -29 137 -29q74 0 136 28q32 14 60 33t52 42t43 51t33 60
q27 64 27 138q0 67 -20 120q-19 53 -56 99q-35 42 -82 74q-24 14 -49.5 25.5t-51.5 19.5q-39 13 -92 13q-73 0 -139 -29q-64 -29 -111 -76q-45 -47 -73 -113zM817 561q5 12 5 24t-5 25q-4 9 -14 19q-8 9 -20 14q-10 5 -24 5h-71v-200h27v74h44q11 0 24 5q11 4 20 13
q10 10 14 21zM966 648h-124v-200h124v27h-96v60h78v28h-78v57h96v28zM1161 448l-63 86q10 3 16 8q9 6 13 13q5 5 9 16q2 5 2 9v9q0 14 -4 23q-2 5 -5.5 9.5t-7.5 9.5q-8 7 -18 12q-9 5 -23 5h-72v-200h28v83h30l52 -71q3 -5 10 -9q4 -3 15 -3h18zM1296 482q5 13 5 25
q0 27 -21 44q-6 4 -9 5q-2 2 -4.5 2.5t-4.5 2.5q-2 1 -5 1.5t-5 2.5q-2 0 -5 1t-5 2q-5 2 -9 3.5t-8 3.5q-9 3 -11 5q-5 5 -6 8q-2 3 -2 10t2 10q4 6 7 8q3 1 11 5q3 1 5.5 1.5t6.5 0.5q2 0 5 -1t5 -2q3 -1 6 -2.5t5 -3.5q6 -3 12 -3q9 0 14 5l7 5l-4.5 4.5l-5.5 5.5
q-3 2 -6 4.5t-7 4.5q-5 4 -15 7q-8 3 -16 3q-12 0 -22 -3q-6 -2 -10.5 -4.5t-9.5 -5.5q-8 -8 -13 -17q-5 -10 -5 -22q0 -15 5 -22q4 -9 12 -15q9 -7 18 -11q5 -2 10 -4.5t10 -4.5q3 -2 6.5 -2.5t7.5 -2.5q10 -4 13 -6q6 -4 10 -10q3 -5 3 -13q0 -9 -4 -14q-2 -6 -9 -11
q-3 -2 -6.5 -3.5t-6.5 -3.5q-5 -1 -8 -1.5t-7 -0.5q-6 0 -14 2q-9 3 -12 8l-3 1q-6 7 -15 7q-6 0 -11 -4l-7 -3q1 -1 1 -2t2 -2q0 -2 1 -3t2 -3t5 -6q3 -5 6 -6q17 -16 45 -16q15 0 27 4q13 5 21 13q10 8 16 19zM1525 520q3 15 3 27q0 14 -3 28q-2 7 -4.5 13t-6.5 12
q-3 5 -7 10l-8 10q-10 8 -22 16q-5 4 -11 6.5t-13 4.5q-14 3 -27 3q-15 0 -27 -3q-7 -2 -13 -4.5t-12 -6.5q-5 -4 -10 -7.5t-10 -8.5q-9 -8 -16 -20q-4 -6 -6.5 -12t-4.5 -13t-3 -13.5t-1 -14.5q0 -21 9 -39q4 -10 9.5 -17.5t12.5 -15.5q13 -13 32 -21q17 -8 40 -8
q8 0 14 0.5t13 2.5t13 4.5t11 6.5q11 5 22 15q4 5 8 10.5t7 10.5q4 6 6.5 12t4.5 12zM1735 648h-28v-156q0 5 -1 8t-3 6l-97 134q-3 4 -8 6q-8 2 -12 2h-20v-200h28v168v-4l2 -4q0 -2 2 -4l114 -156h23v200zM1956 448l-87 200h-27l-88 -200h16q6 0 12 3l4 4t4 5l14 32h102
l14 -32q3 -7 8 -9q3 -3 12 -3h16zM2090 475h-87v173h-27v-200h114v27zM2365 648h-28v-122q0 -12 -4 -21q-2 -5 -4.5 -9t-7.5 -7q-3 -5 -7 -7.5t-9 -4.5q-9 -4 -21 -4t-20 4q-5 2 -9.5 4.5t-7.5 7.5q-7 5 -12 16q-2 5 -3 10t-1 11v122h-27v-122v-11.5t2 -10.5t4 -9.5t4 -9.5
q3 -5 6 -9t8 -7q5 -6 15 -13q11 -5 20 -8q10 -3 21 -3t22 3q5 2 9.5 4t9.5 4q9 6 16 13q4 3 7 7t6 9q2 5 4 9.5t4 9.5q3 10 3 22v122zM2519 482q5 10 5 25q0 29 -21 44q-2 2 -4 3l-4 2l-10 5q-6 2 -10 4q-2 0 -4.5 1t-5.5 2q-5 2 -8.5 3.5t-7.5 3.5t-6.5 2.5t-4.5 2.5
q-6 4 -7 8q-2 6 -2 10q0 5 3 10q4 6 7 8q2 1 4.5 2t5.5 3q8 2 13 2q2 0 4.5 -1t5.5 -2l5 -2.5t6 -3.5q6 -3 12 -3q8 0 13 5l8 5l-10 10q-3 2 -6 4.5t-7 4.5q-3 2 -7 3.5t-8 3.5q-9 3 -16 3q-13 0 -23 -3q-5 -2 -9.5 -4.5t-9.5 -5.5q-4 -4 -7.5 -8t-5.5 -9q-6 -9 -6 -22
q0 -12 5 -22t13 -15q8 -7 17 -11l21 -9q4 -2 7 -2.5t7 -2.5q3 -2 6.5 -3t6.5 -3q6 -5 9 -10q4 -4 4 -13t-4 -14q-2 -5 -10 -11q-5 -4 -13 -7q-10 -2 -14 -2q-7 0 -15 2q-9 3 -12 8l-2 1q-6 7 -16 7q-6 0 -10 -4l-8 -3q1 -1 1.5 -2t1.5 -2l3 -6q4 -4 5 -6q3 -5 7 -6
q17 -16 45 -16q14 0 26 4q12 5 22 13q8 7 15 19zM2683 648h-124v-200h124v27h-97v60h78v28h-78v57h97v28zM2998 520q3 15 3 27q0 14 -3 28q-2 7 -4.5 13t-6.5 12q-7 12 -16 20q-5 5 -10 8.5t-10 7.5q-6 4 -12 6.5t-13 4.5q-12 3 -27 3q-14 0 -27 -3q-7 -2 -13 -4.5t-12 -6.5
q-5 -4 -10.5 -7.5t-10.5 -8.5t-8.5 -10t-7.5 -10q-5 -10 -10 -25q-3 -14 -3 -28q0 -10 1.5 -20t6.5 -19q4 -10 9 -17.5t12 -15.5q15 -14 33 -21q16 -8 40 -8q7 0 14 0.5t13 2.5q7 2 13 4.5t12 6.5q12 7 20 15q5 5 9 10.5t7 10.5q4 6 6.5 12t4.5 12zM3208 648h-28v-156
q-2 9 -5 14l-97 134q-3 5 -8 6q-6 2 -12 2h-20v-200h28v168l2 -4q0 -3 1 -4q0 -2 2 -4l114 -156h23v200zM3371 475h-87v173h-27v-200h114v27zM3530 648h-19q-10 0 -14 -3q-7 -3 -10 -10l-48 -64q1 0 -2 -3q0 -1 -1 -2v-1v3q0 3 -2 3l-47 64q-6 8 -10 10q-8 3 -15 3h-19
l72 -97q1 -1 1.5 -2t1.5 -2q2 -4 3 -5q0 -1 0.5 -2t0.5 -2v-6v-84h28v84q0 2 0.5 3t0.5 3q1 1 1 2t1 2t1 2t2 3q0 1 3 4zM1983 789q-53 21 -97 58h423q-43 -37 -97 -58q-51 -22 -115 -22q-63 0 -114 22zM1922 881l411 415q79 -103 79 -213q0 -57 -18 -108q-17 -49 -53 -94
h-419zM1861 871q-19 22 -33.5 46t-24.5 51q-11 26 -15.5 55t-4.5 60q0 57 18 108q8 26 21.5 48.5t30.5 44.5h419zM2212 1378q55 -23 95 -60h-422q22 20 46.5 34.5t50.5 25.5q27 11 55.5 16t59.5 5q62 0 115 -21zM530 116q-6 8 -10 22q-2 6 -3 12t-1 13q0 6 1 12t3 12
q3 14 10 23q7 12 14 19t19 14q5 3 10.5 5.5t11.5 4.5q12 3 25 3q10 0 19 -2t18 -5q8 -5 15.5 -9.5t13.5 -11.5l-4 -4q0 -1 -1 -1q-1 -1 -2 -1q-2 -2 -4 -2h-5q-6 0 -9 2q-5 3 -9.5 5.5t-9.5 4.5q-11 3 -22 3q-15 0 -28 -5q-15 -7 -23 -16q-9 -8 -16 -23q-6 -14 -6 -28
q0 -10 3 -19t7 -18q3 -5 6 -8t6 -7q4 -3 7.5 -6t7.5 -5q5 -2 9 -3.5t9 -3.5q9 -3 19 -3q12 0 24 3q6 2 11.5 4.5t10.5 5.5v38h-14q-2 0 -3.5 0.5t-3.5 0.5q-2 2 -6 4q-1 2 -2 3t-1 3q-2 4 -2 7v2h51v-71q-5 -7 -14 -11q-8 -4 -15 -5q-5 -2 -9 -2.5t-9 -1.5h-19q-13 0 -25 3
q-11 3 -22 9q-12 7 -19 15q-7 7 -14 19zM742 233v-59h72v-20h-72v-62h90v-20h-111v182h111v-21h-90zM912 72v161h-58v21h137v-21h-58v-161h-21zM1126 233v-63h76v-20h-76v-78h-21v182h111v-21h-90zM1271 254v-112q0 -12 4 -20q2 -5 5 -9l6 -8l8 -6t9 -5q9 -4 20 -4
q12 0 20 4q5 2 9 5l8 6q6 6 11 17q5 10 5 20v112h20v-112q0 -16 -6 -28q-3 -7 -6.5 -12.5t-8.5 -10.5q-9 -9 -23 -16q-15 -5 -29 -5q-13 0 -28 5q-15 7 -23 16q-9 8 -16 23q-3 6 -4 13t-1 15v112h20zM1455 254v-162h81v-20h-102v182h21zM1579 254v-162h81v-20h-101v182h20z
M1826 72l-79 182h11q4 0 10 -3l3.5 -3.5t2.5 -4.5l60 -136q0 -2 0.5 -3t0.5 -3q1 -3 1 -6v6q2 4 2 6q8 17 15 34t15 34t15 34t15 34q2 4 6 8q6 3 10 3h11q-10 -23 -20 -45.5t-20 -45.5t-19.5 -45.5t-19.5 -45.5h-20zM1961 233v-59h73v-20h-73v-62h90v-20h-111v182h111v-21
h-90zM2187 157q-8 -5 -16 -6l59 -79h-12q-9 0 -12 2q-6 3 -9 8l-51 68h-31v-78h-21v182h65q12 0 20 -4q9 -4 17 -11q7 -8 11 -17q4 -8 4 -20q0 -9 -3 -18q-4 -9 -8 -15q-3 -4 -6 -6.5t-7 -5.5zM2159 170q6 0 12 3q3 1 5.5 2.5t4.5 3.5q4 4 7 10l2 6t1 7q0 3 -1 6l-2 6
q-3 6 -7 10t-10 7q-8 2 -12 2h-44v-63h44zM2326 98q6 4 9 11q4 5 4 14t-3 15t-9 9q-4 4 -12 7q-4 1 -14 5q-5 2 -9.5 4t-9.5 4q-11 3 -16 9q-6 4 -11 13q-3 7 -3 20q0 11 5 19q3 9 12 15q4 3 8 5.5t9 4.5q9 3 19 3q5 0 15 -2q5 -2 13 -6q3 -2 5.5 -4t4.5 -4q3 -2 5 -4l4 -4
l-5 -4q-4 -4 -10 -4q-4 0 -10 2q-2 2 -3 2.5t-2 1.5q-2 1 -2.5 1.5t-2.5 1.5q-2 0 -3 0.5t-3 0.5q-2 1 -6 1q-5 0 -13 -2q-4 -1 -10 -5q-6 -6 -7 -9q-3 -5 -3 -10q0 -8 2 -11q1 -4 6 -7q6 -4 11 -6q4 -2 8 -3t9 -3q3 -2 9 -4t9 -4q6 -2 9 -4q2 -1 3.5 -2t3.5 -2q8 -8 14 -17
q2 -5 3 -10.5t1 -12.5q0 -10 -5 -22q-4 -8 -13 -17q-8 -7 -20 -10q-9 -4 -23 -4q-26 0 -40 14q-3 2 -5.5 5t-4.5 5q-4 6 -4 8l4 2q2 2 4 2q1 1 4 1q8 0 13 -5q6 -7 14 -9q7 -3 15 -3q4 0 7 0.5t7 1.5q7 1 13 6zM2421 254v-182h-21v182h21zM2491 97q-13 12 -20 29
q-8 19 -8 37q0 6 1 12t3 12q3 13 9 23q4 5 7 9.5t8 9.5q5 4 9.5 7.5t9.5 6.5q11 7 22 10q12 3 25 3t25 -3q6 -2 11.5 -4.5t10.5 -5.5t9.5 -6.5t9.5 -7.5q5 -5 8 -9.5t6 -9.5t5.5 -11t4.5 -12q3 -12 3 -24q0 -20 -7 -37q-8 -17 -20 -29q-14 -14 -30 -20q-15 -7 -36 -7
q-20 0 -37 7q-17 6 -29 20zM2490 191q-6 -14 -6 -28q0 -10 3 -19t7 -18q2 -5 5 -8t6 -7q4 -3 7.5 -6t7.5 -5q5 -2 9 -3.5t9 -3.5q7 -3 19 -3q10 0 19 3q5 2 9 3.5t9 3.5q7 4 14 11t11 15q5 7 8 18q2 5 2 9.5v9.5q0 14 -6 28q-5 14 -15 23q-8 9 -23 16q-13 5 -28 5
q-8 0 -14.5 -1.5t-14.5 -3.5q-14 -7 -23 -16t-15 -23zM2704 72h-20v182h14q12 0 16 -7l94 -132q2 -2 2 -3t1 -3t1 -5v150h21v-182h-19l-107 150l-1 2q-1 1 -1 3t-1 3v-158zM2986 233v-63h76v-20h-76v-78h-20v182h111v-21h-91zM3204 169q-2 -4 -5 -6.5t-7 -5.5q-8 -5 -16 -6
l59 -79h-12q-9 0 -13 2q-5 3 -8 8l-50 68h-33v-78h-20v182h64q12 0 21 -4t16 -11t12 -17q2 -5 3 -10t1 -10q0 -9 -3 -18q-4 -10 -9 -15zM3176 173q3 1 5.5 2.5t4.5 3.5q5 5 6 10q3 6 3 13q0 6 -3 12q-1 5 -6 10q-4 4 -10 7q-8 2 -13 2h-44v-63h44q7 0 13 3zM3413 97
q-14 -14 -30 -20q-15 -7 -37 -7q-9 0 -18.5 1.5t-17.5 5.5q-17 6 -29 20q-7 6 -11.5 13.5t-8.5 15.5q-8 19 -8 37q0 6 1 12t3 12q3 14 10 23q4 9 14 19q7 7 19 14q5 3 10.5 5.5t11.5 4.5q12 3 24 3q14 0 26 -3q6 -2 11 -4.5t10 -5.5q6 -3 10.5 -6.5t9.5 -7.5q5 -5 8 -9.5
t6 -9.5q6 -10 9 -23q4 -11 4 -24q0 -21 -8 -37q-6 -16 -19 -29zM3346 90q11 0 20 3q5 2 9 3.5t8 3.5q5 2 8 5t7 6q7 7 11 15q5 7 8 18q2 5 2 9.5v9.5q0 13 -5 28q-7 15 -16 23q-9 9 -23 16q-15 5 -29 5q-13 0 -28 -5q-13 -6 -22 -16q-9 -8 -16 -23q-6 -14 -6 -28
q0 -5 0.5 -9.5t1.5 -9.5q2 -5 4 -9t4 -9t5 -8l7 -7q6 -7 14 -11q4 -2 8 -3.5t9 -3.5q9 -3 19 -3zM3645 251q4 3 9 3h17v-182h-20v151q0 -1 -1 -1q0 -2 -1 -3v-3q0 -1 -1 -2q-5 -11 -9 -20.5t-8 -19.5q-5 -10 -9 -18.5t-7 -17.5q-4 -9 -8 -17.5t-7 -16.5q-4 -8 -7.5 -16
t-7.5 -16h-21q-8 17 -15.5 35t-15.5 35l-16 36l-16 36q-1 1 -1 4q-1 2 -1 4v-150h-20v182h16q4 0 9 -3q6 -3 6 -8l63 -141q0 -3 1 -4t1 -4q0 3 2 11q2 2 2.5 4.5t2.5 5.5l57 128q1 5 6 8zM524 0h210v-23q0 -10 -1 -14q-3 -8 -6 -12l-141 -189l4 2l4 2q1 0 1.5 0.5t2.5 0.5
h135v-50h-217v16q0 5 2 13t4 13q2 3 3 5.5t3 5.5q5 5 8 11l125 169h-137v50zM769 0h182v-50h-130v-65h105v-50h-105v-68h130v-50h-182v283zM1179 -50h-83v-233h-52v233h-83v50h218v-50zM1307 0l123 -283h-32q-11 0 -20 6q-7 5 -14 15l-16 39h-129l-17 -39q-2 -5 -5 -8
q-2 -3 -8 -7t-10 -4q-3 -2 -10 -2h-33l124 283h47zM1325 -172l-37 86q-2 3 -2.5 6t-1.5 5q0 6 -1 8q0 -5 -1 -8q0 -2 -1 -5l-2 -6l-37 -86h83zM1442 0h181v-50h-130v-71h109v-50h-109v-112h-51v283zM1910 -69q5 -8 8.5 -16.5t5.5 -18.5q3 -8 4 -18t1 -20t-1 -19.5t-4 -18.5
q-4 -17 -14 -35q-9 -15 -23 -29q-6 -6 -13.5 -11.5t-15.5 -10.5t-16.5 -8.5t-17.5 -6.5q-10 -2 -19 -3.5t-20 -1.5q-29 0 -56 11q-27 12 -46 31q-10 11 -18 22t-13 24q-11 25 -11 56q0 10 1 20t3 18q5 17 15 35q5 8 10.5 15t12.5 15q14 12 29 22q17 9 34 15q17 4 39 4t39 -4
q17 -6 34 -15q8 -5 15.5 -10.5t13.5 -11.5q7 -8 12.5 -15t10.5 -15zM1871 -178q3 9 5 18t2 18q0 17 -7 36q-4 9 -9 16t-11 14q-15 14 -30 19q-18 8 -36 8t-36 -8q-16 -6 -29 -19q-12 -12 -21 -30q-7 -19 -7 -36q0 -9 2 -18t5 -18q5 -8 9.5 -15.5t11.5 -13.5q12 -13 29 -20
q15 -7 36 -7t36 7t30 20q12 12 20 29zM2166 0h52v-283h-48l-135 189q-3 2 -4 7q-2 2 -3 3.5t-2 3.5t-2 3.5t-2 3.5l-3 6v-216h-52v283h46q10 0 16 -3q8 -3 11 -9q15 -20 30 -41t29 -42l30 -42t29 -41q4 -6 6 -12q2 -8 2 -9v199zM2242 0h218v-50h-83v-233h-52v233h-83v50z
M2639 -145q8 -8 13 -23q5 -13 5 -28q0 -18 -8 -36q-9 -17 -22 -29q-15 -12 -33 -18q-9 -3 -18.5 -5t-18.5 -2q-11 0 -20.5 2t-19.5 5q-9 5 -16.5 9.5t-15.5 11.5q-5 5 -8 9t-6 9t-4.5 8.5t-3.5 7.5q2 1 3.5 2t3.5 2t3.5 2t3.5 2q6 2 8 3q2 0 4.5 0.5t4.5 0.5q6 0 12 -3
q8 -2 13 -4q9 -7 17 -10q8 -5 21 -5q3 0 7 0.5t9 1.5q4 2 8 3.5t7 3.5q9 6 12 13q6 7 6 17q0 7 -5 14q-4 5 -12 10q-6 4 -16 7q-5 2 -9 4t-9 4q-13 4 -29 11q-8 3 -14 7t-12 9q-12 10 -17 22q-7 13 -7 32q0 10 2 18t5 16q5 7 9.5 12.5t10.5 10.5q13 10 29 16q13 4 32 4
q13 0 24 -4q6 -2 11.5 -4.5t10.5 -5.5t9.5 -7t9.5 -8q10 -8 15 -16l-10 -8q-7 -5 -14 -8q-5 -2 -8 -2h-7h-3h-4q-6 2 -10 4q-6 2 -8 4q-2 0 -4 1t-4 1q-6 2 -8 2q-4 0 -7 -0.5t-7 -1.5q-5 -1 -11 -5q-6 -3 -9 -8q-2 -3 -2 -11t2 -11t4.5 -5t4.5 -4q6 -4 16 -7q5 -2 11 -4
t13 -4l9 -3q18 -6 29 -14q14 -9 22 -18zM2726 -233q5 -5 6 -10q3 -5 3 -12q0 -8 -3 -12q-1 -5 -6 -10q-4 -4 -10 -6q-6 -3 -13 -3t-11 3q-7 2 -11 6t-7 10q-2 6 -2 12t2 12q3 6 7 10t11 6q4 3 11 3t13 -3q6 -2 10 -6zM2833 -76q-13 -13 -20 -30q-8 -18 -8 -36q0 -17 8 -36
q4 -8 8.5 -15.5t11.5 -13.5t14 -11t16 -9q15 -7 35 -7q8 0 15 1t13 3q14 5 25 13q6 2 9 4q3 1 10 1q10 0 16 -3q8 -4 12 -8l11 -11q-12 -14 -23 -22q-7 -5 -13.5 -8.5t-13.5 -7.5q-13 -7 -30 -10q-12 -4 -31 -4q-28 0 -56 11q-27 12 -46 31q-19 20 -31 46q-11 28 -11 56
q0 20 5 38q2 10 5.5 18.5t8.5 16.5q10 15 23 30q7 6 14 11.5t16 10.5q16 9 34 15q17 4 38 4q8 0 16 -0.5t15 -2.5q8 -2 15 -4.5t15 -5.5q7 -4 13.5 -8t13.5 -9q13 -10 23 -21l-11 -12q-4 -4 -12 -8q-8 -3 -16 -3q-10 0 -19 6q-13 8 -25 12q-13 5 -28 5q-17 0 -35 -8
q-9 -3 -16 -8t-14 -11zM3298 -69q5 -8 8.5 -16.5t5.5 -18.5q3 -8 4 -18t1 -20t-1 -19.5t-4 -18.5q-4 -17 -14 -35q-9 -15 -23 -29q-7 -6 -14 -11.5t-16 -10.5q-8 -5 -16 -8.5t-18 -6.5q-20 -5 -38 -5q-29 0 -57 11q-13 6 -24.5 13.5t-20.5 17.5q-10 11 -18 22t-13 24
q-12 27 -12 56q0 20 5 38q5 17 15 35q5 8 10.5 15t12.5 15q6 6 13.5 11.5t15.5 10.5q17 9 34 15q17 4 39 4t38 -4q18 -6 34 -15q9 -5 16 -10.5t14 -11.5q7 -8 12.5 -15t10.5 -15zM3259 -178q3 9 5 18t2 18q0 17 -7 36q-9 17 -20 30q-15 14 -30 19q-18 8 -36 8t-36 -8
q-15 -5 -30 -19q-6 -7 -11 -14t-9 -16q-7 -15 -7 -36q0 -19 7 -36t20 -29q15 -13 30 -20t36 -7t36 7t30 20q6 6 10.5 13.5t9.5 15.5zM3609 -2q6 2 10 2h52v-283h-52v207q-3 -5 -4 -14q-2 -4 -2.5 -7.5t-2.5 -6.5q-9 -23 -18 -45t-19 -44q-9 -23 -18 -45t-19 -45h-47l-74 179
q-2 3 -3 6t-2 8q-1 3 -2 6.5t-2 5.5v-205h-52v283h51q4 0 12 -2q6 -2 9 -4q5 -3 8 -8q2 -2 6 -8q8 -22 16.5 -43.5t17.5 -42.5q8 -22 17 -43t17 -43q2 -2 2 -5q0 -2 0.5 -3t0.5 -3q1 -2 1 -6v-3q0 2 1 3q0 4 1 6q0 4 1 6q0 2 0.5 3t0.5 2l10 20l59 152q1 4 6 9q2 3 8 7
q4 2 10 4z" />
    <glyph glyph-name=".null" horiz-adv-x="0" 
 />
    <glyph glyph-name="nonmarkingreturn" unicode="&#xd;" horiz-adv-x="0" 
 />
    <glyph glyph-name="NULL" horiz-adv-x="0" 
 />
    <glyph glyph-name="NULL" horiz-adv-x="0" 
 />
    <glyph glyph-name="space" unicode=" " horiz-adv-x="617" 
 />
    <glyph glyph-name="exclam" unicode="!" horiz-adv-x="615" 
d="M322 374l225 1060h115l-225 -1060h-115zM412 80q-5 -20 -16 -37t-27 -30t-35 -20.5t-38 -7.5q-40 0 -62 28t-13 67q4 20 15 37.5t27 30t35 20t39 7.5q39 0 61 -27.5t14 -67.5z" />
    <glyph glyph-name="quotedbl" unicode="&#x22;" horiz-adv-x="689" 
d="M436 1433h114l-90 -422q-5 -23 -26 -39.5t-43 -16.5t-36 16.5t-9 39.5zM723 1433h114l-90 -422q-5 -23 -26 -39.5t-43 -16.5t-36 16.5t-9 39.5z" />
    <glyph glyph-name="numbersign" unicode="#" horiz-adv-x="1117" 
d="M1115 1369q6 15 21 27t33.5 20.5t39 12.5t38.5 4h13l-192 -467h217l-5 -11q-7 -16 -21 -34.5t-31.5 -34t-36.5 -25.5t-34 -10h-133l-125 -309h237l-4 -10q-8 -17 -20.5 -35t-27.5 -33.5t-31.5 -25.5t-31.5 -10h-174l-147 -366q-6 -15 -20.5 -26.5t-33 -19.5t-38.5 -12
t-38 -4h-14l174 428h-306l-148 -366q-6 -15 -20.5 -26.5t-33 -19.5t-38.5 -12t-38 -4h-13l173 428h-180l6 12q7 16 19 34t27 33.5t31 25.5t32 10h116l127 308h-203l6 11q7 16 21 34.5t31.5 34t36.5 25.5t34 10h118l165 403q6 15 20.5 27t33 20.5t39 12.5t37.5 4h13
l-190 -467h305zM475 543h305l127 308h-306z" />
    <glyph glyph-name="dollar" unicode="$" horiz-adv-x="1065" 
d="M819 1581h89l-29 -135q51 -6 91.5 -24t73.5 -42.5t58.5 -53t45.5 -56.5l-35 -22q-14 -9 -30.5 -14.5t-38.5 -5.5q-37 0 -61 17q-16 13 -29.5 25t-28.5 21.5t-32 16.5t-41 10l-110 -514q59 -23 116.5 -48t99.5 -63q59 -54 70.5 -132t-8.5 -171q-17 -81 -58.5 -147.5
t-100.5 -117t-131.5 -84t-151.5 -47.5l-36 -171h-97l34 162h-2q-95 0 -171 28t-127 83q-29 32 -46.5 63.5t-26.5 57.5l17 9q36 19 67 19q24 0 44 -6.5t34 -23.5q33 -38 63.5 -58.5t59 -30t56.5 -11.5t57 -3h2l127 595l-7 4q-75 32 -135 61t-98 68t-51 95.5t5 143.5
q16 76 61.5 139t107 110.5t133.5 77.5t141 39zM895 390q15 69 6 114t-35 75.5t-65.5 50.5t-86.5 39l-117 -547q49 10 97 32t88.5 55t70.5 78.5t42 102.5zM472 1079q-11 -50 -5.5 -84.5t28.5 -60.5t64.5 -47.5t101.5 -45.5l101 475q-50 -8 -98.5 -30t-88 -54t-67 -71
t-36.5 -82z" />
    <glyph glyph-name="percent" unicode="%" horiz-adv-x="1572" 
d="M341 78q-36 -35 -73 -56.5t-86 -21.5h-59l1302 1355q35 36 72.5 57t86.5 21h59zM305 1087q14 67 51 132t92.5 116t126.5 82.5t153 31.5t140 -31.5t91.5 -82.5t43 -116t-4.5 -132q-15 -72 -52.5 -139t-93 -118t-126.5 -82t-153 -31t-140 30.5t-91.5 82t-42.5 118.5t6 139z
M421 1087q-10 -47 -6.5 -92.5t24 -81.5t59.5 -58.5t99 -22.5t108.5 23t84.5 60t59 82t33 90q9 42 5 86t-24.5 79.5t-59.5 58t-99 22.5t-108.5 -22.5t-84 -58t-58.5 -79.5t-32 -86zM775 357q14 67 51.5 132t93 116t126.5 82.5t153 31.5t140 -31.5t91.5 -82.5t42.5 -116
t-5 -132q-15 -72 -52 -139t-92.5 -118t-126.5 -82t-153 -31t-140 30.5t-92 82t-43 118.5t6 139zM891 357q-10 -47 -6 -92.5t24.5 -81.5t59.5 -58.5t99 -22.5t108.5 23t84.5 60t59 82t32 90q9 42 5 86t-24 79.5t-59 58t-99 22.5t-108.5 -22.5t-84.5 -58t-59 -79.5t-32 -86z
" />
    <glyph glyph-name="ampersand" unicode="&#x26;" horiz-adv-x="1360" 
d="M958 513l96 -127l180 183q33 39 76.5 58t94.5 19h60l-334 -349l235 -297h-73q-36 0 -61.5 5.5t-45 16t-34.5 26t-31 35.5l-92 115q-128 -106 -251.5 -159.5t-238.5 -54.5h-4q-88 0 -163 33t-126.5 90.5t-74 135.5t-5.5 167l1 8q11 52 36.5 104t66 101.5t95.5 94.5t126 81
q5 2 8.5 3t6.5 2q4 1 6 1q10 0 18.5 -2.5t14.5 -4.5q7 -4 12 -7q-23 28 -40.5 61t-28 68.5t-12.5 73.5t6 77q18 83 66.5 152.5t113.5 120t140.5 78.5t147.5 28q109 0 191.5 -48t139.5 -136l-7 -3q-20 -8 -46 -17.5t-49 -9.5q-37 0 -59 9t-34 20q-20 16 -36 27.5t-34.5 18.5
t-42.5 10.5t-59 3.5q-50 0 -100.5 -22t-93 -57.5t-73 -81.5t-40.5 -94q-11 -48 6 -97.5t52 -94.5zM826 453l-213 268q-57 -19 -110.5 -49.5t-96.5 -70t-73 -87t-42 -101.5q-12 -57 4 -111.5t53.5 -97t93.5 -69t124 -26.5q90 0 184 43t204 136z" />
    <glyph glyph-name="quotesingle" unicode="'" horiz-adv-x="460" 
d="M424 1433h153q-27 -103 -54.5 -210.5t-53.5 -209.5q-7 -24 -28.5 -41t-42.5 -17q-22 0 -35.5 17t-8.5 40z" />
    <glyph glyph-name="parenleft" unicode="(" horiz-adv-x="565" 
d="M366 624q-23 -108 -28.5 -208t1.5 -190.5t25 -171.5t42 -153q9 -24 14 -58t-1 -63q-3 -12 -8.5 -25.5t-12 -25.5t-13.5 -21.5t-12 -12.5l-8 -5q-41 78 -76.5 177t-55 216.5t-18 253t33.5 286.5t88.5 289t126.5 258t146.5 218.5t149.5 171.5q14 -14 20 -34t1 -41
q-8 -35 -24.5 -72.5t-33.5 -60.5q-52 -71 -104.5 -148t-100 -165.5t-87 -191t-65.5 -223.5z" />
    <glyph glyph-name="parenright" unicode=")" horiz-adv-x="564" 
d="M451 624q26 121 30 223.5t-6 191t-29.5 165.5t-41.5 148q-8 23 -9 60.5t7 72.5q5 21 19 41t34 34q42 -73 77 -171.5t53.5 -218.5t16.5 -258t-34 -289t-88.5 -286.5t-125.5 -253t-146.5 -216.5t-151.5 -177l-6 5q-4 3 -7 12.5t-4.5 21.5t-1.5 25.5t3 25.5q3 14 10 30.5
t15.5 32.5t18.5 31t19 27q55 72 107.5 153t98.5 171.5t82.5 190.5t59.5 208z" />
    <glyph glyph-name="asterisk" unicode="*" horiz-adv-x="800" 
d="M352 976l-35 99l163 85q13 7 23.5 11t21.5 6.5t23.5 3.5t30.5 3q-28 2 -48 7.5t-40 19.5l-126 86l79 99l130 -88q20 -14 31.5 -26.5t22.5 -37.5q-11 33 -9 60t8 54l32 148h114l-32 -148q-6 -27 -14.5 -53.5t-33.5 -60.5q21 23 43 39.5t49 30.5l158 82l35 -99l-151 -80
l-24 -12t-22 -9t-27 -6.5t-37 -5.5q21 -1 34 -3t22 -5.5t16 -8.5t16 -11l126 -85l-78 -98l-133 88q-10 7 -17 13t-13 13.5t-11.5 16.5t-11.5 22q11 -37 8.5 -62t-7.5 -50l-32 -152h-114l35 167q5 20 13 41t31 56q-13 -15 -22.5 -24.5t-18.5 -16t-18.5 -12t-22.5 -11.5z" />
    <glyph glyph-name="plus" unicode="+" horiz-adv-x="1160" 
d="M1209 724l-24 -114h-419l-89 -420h-114l89 420h-421l24 114h421l90 420h114l-90 -420h419z" />
    <glyph glyph-name="comma" unicode="," horiz-adv-x="424" 
d="M291 192q25 0 42.5 -10t27 -26.5t11.5 -37t-2 -41.5q-3 -12 -8 -27q-9 -24 -20.5 -52.5t-32.5 -60t-55 -65.5t-87 -69l-7 15q-5 9 -3 22q3 15 12.5 30t20.5 30.5t21.5 31.5t16.5 33q4 9 5 19l-8 2q-35 8 -51.5 36t-8.5 65q5 22 18 41.5t30 33.5t37.5 22t40.5 8z" />
    <glyph glyph-name="hyphen" unicode="-" horiz-adv-x="694" 
d="M246 724h506l-24 -115h-506z" />
    <glyph glyph-name="period" unicode="." horiz-adv-x="402" 
d="M136 85q4 21 15.5 39t28 31.5t36.5 21.5t41 8q43 0 65.5 -29t14.5 -71q-5 -21 -16.5 -39.5t-28 -32t-37 -21.5t-41.5 -8q-42 0 -64.5 29.5t-13.5 71.5z" />
    <glyph glyph-name="slash" unicode="/" horiz-adv-x="852" 
d="M934 1393q24 38 65 58.5t92 20.5h28l-971 -1481q-11 -16 -25.5 -30.5t-31.5 -26t-35 -18t-36 -6.5h-48z" />
    <glyph glyph-name="zero" unicode="0" horiz-adv-x="4097" 
d="M2952 600q9 -8 16 -23q6 -14 6 -30q0 -14 -6 -29q-7 -14 -16 -23q-10 -10 -24 -16t-29 -6q-16 0 -29 6q-14 6 -24 16q-5 5 -9 11t-7 12q-6 15 -6 29q0 16 6 30q6 13 16 23q9 10 24 17q13 6 29 6q15 0 29 -6q15 -7 24 -17zM1109 577q-4 -6 -7 -10q-6 -4 -10 -6t-12 -2h-44
v61h44q6 0 12 -3q5 -1 10 -6q3 -3 7 -9q2 -8 2 -13q0 -4 -2 -12zM1479 600q10 -10 16 -23q6 -14 6 -30q0 -14 -6 -29q-3 -6 -7 -12t-9 -11q-10 -10 -24 -16t-29 -6q-16 0 -29 6q-14 6 -24 16q-9 9 -16 23q-6 15 -6 29q0 16 6 30q7 15 16 23q9 10 24 17q13 6 29 6q15 0 29 -6
q15 -7 24 -17zM1855 616q0 -6 2 -12l37 -84h-78l36 84q1 2 1 2.5t1 2.5q0 2 0.5 3.5t0.5 3.5zM784 610q3 -3 7 -11q3 -8 3 -14q0 -8 -3 -14q-4 -8 -7 -11q-6 -6 -11 -7q-4 -2 -7 -3t-7 -1h-44v71h44q6 0 14 -3q5 -1 11 -7zM3671 1084v-766h-3147v766h1193q0 80 30 151
q16 35 36.5 65t46.5 56q54 52 121 80q70 30 146 30q85 0 152 -32q70 -31 121 -84q26 -26 45.5 -56.5t34.5 -65.5q29 -70 29 -144h1192zM1774 1216q-26 -64 -26 -133q0 -71 27 -134q26 -62 74 -113q46 -47 111 -76q61 -29 137 -29q74 0 136 28q32 14 60 33t52 42t43 51t33 60
q27 64 27 138q0 67 -20 120q-19 53 -56 99q-35 42 -82 74q-24 14 -49.5 25.5t-51.5 19.5q-39 13 -92 13q-73 0 -139 -29q-64 -29 -111 -76q-45 -47 -73 -113zM817 561q5 12 5 24t-5 25q-4 9 -14 19q-8 9 -20 14q-10 5 -24 5h-71v-200h27v74h44q11 0 24 5q11 4 20 13
q10 10 14 21zM966 648h-124v-200h124v27h-96v60h78v28h-78v57h96v28zM1161 448l-63 86q10 3 16 8q9 6 13 13q5 5 9 16q2 5 2 9v9q0 14 -4 23q-2 5 -5.5 9.5t-7.5 9.5q-8 7 -18 12q-9 5 -23 5h-72v-200h28v83h30l52 -71q3 -5 10 -9q4 -3 15 -3h18zM1296 482q5 13 5 25
q0 27 -21 44q-6 4 -9 5q-2 2 -4.5 2.5t-4.5 2.5q-2 1 -5 1.5t-5 2.5q-2 0 -5 1t-5 2q-5 2 -9 3.5t-8 3.5q-9 3 -11 5q-5 5 -6 8q-2 3 -2 10t2 10q4 6 7 8q3 1 11 5q3 1 5.5 1.5t6.5 0.5q2 0 5 -1t5 -2q3 -1 6 -2.5t5 -3.5q6 -3 12 -3q9 0 14 5l7 5l-4.5 4.5l-5.5 5.5
q-3 2 -6 4.5t-7 4.5q-5 4 -15 7q-8 3 -16 3q-12 0 -22 -3q-6 -2 -10.5 -4.5t-9.5 -5.5q-8 -8 -13 -17q-5 -10 -5 -22q0 -15 5 -22q4 -9 12 -15q9 -7 18 -11q5 -2 10 -4.5t10 -4.5q3 -2 6.5 -2.5t7.5 -2.5q10 -4 13 -6q6 -4 10 -10q3 -5 3 -13q0 -9 -4 -14q-2 -6 -9 -11
q-3 -2 -6.5 -3.5t-6.5 -3.5q-5 -1 -8 -1.5t-7 -0.5q-6 0 -14 2q-9 3 -12 8l-3 1q-6 7 -15 7q-6 0 -11 -4l-7 -3q1 -1 1 -2t2 -2q0 -2 1 -3t2 -3t5 -6q3 -5 6 -6q17 -16 45 -16q15 0 27 4q13 5 21 13q10 8 16 19zM1525 520q3 15 3 27q0 14 -3 28q-2 7 -4.5 13t-6.5 12
q-3 5 -7 10l-8 10q-10 8 -22 16q-5 4 -11 6.5t-13 4.5q-14 3 -27 3q-15 0 -27 -3q-7 -2 -13 -4.5t-12 -6.5q-5 -4 -10 -7.5t-10 -8.5q-9 -8 -16 -20q-4 -6 -6.5 -12t-4.5 -13t-3 -13.5t-1 -14.5q0 -21 9 -39q4 -10 9.5 -17.5t12.5 -15.5q13 -13 32 -21q17 -8 40 -8
q8 0 14 0.5t13 2.5t13 4.5t11 6.5q11 5 22 15q4 5 8 10.5t7 10.5q4 6 6.5 12t4.5 12zM1735 648h-28v-156q0 5 -1 8t-3 6l-97 134q-3 4 -8 6q-8 2 -12 2h-20v-200h28v168v-4l2 -4q0 -2 2 -4l114 -156h23v200zM1956 448l-87 200h-27l-88 -200h16q6 0 12 3l4 4t4 5l14 32h102
l14 -32q3 -7 8 -9q3 -3 12 -3h16zM2090 475h-87v173h-27v-200h114v27zM2365 648h-28v-122q0 -12 -4 -21q-2 -5 -4.5 -9t-7.5 -7q-3 -5 -7 -7.5t-9 -4.5q-9 -4 -21 -4t-20 4q-5 2 -9.5 4.5t-7.5 7.5q-7 5 -12 16q-2 5 -3 10t-1 11v122h-27v-122v-11.5t2 -10.5t4 -9.5t4 -9.5
q3 -5 6 -9t8 -7q5 -6 15 -13q11 -5 20 -8q10 -3 21 -3t22 3q5 2 9.5 4t9.5 4q9 6 16 13q4 3 7 7t6 9q2 5 4 9.5t4 9.5q3 10 3 22v122zM2519 482q5 10 5 25q0 29 -21 44q-2 2 -4 3l-4 2l-10 5q-6 2 -10 4q-2 0 -4.5 1t-5.5 2q-5 2 -8.5 3.5t-7.5 3.5t-6.5 2.5t-4.5 2.5
q-6 4 -7 8q-2 6 -2 10q0 5 3 10q4 6 7 8q2 1 4.5 2t5.5 3q8 2 13 2q2 0 4.5 -1t5.5 -2l5 -2.5t6 -3.5q6 -3 12 -3q8 0 13 5l8 5l-10 10q-3 2 -6 4.5t-7 4.5q-3 2 -7 3.5t-8 3.5q-9 3 -16 3q-13 0 -23 -3q-5 -2 -9.5 -4.5t-9.5 -5.5q-4 -4 -7.5 -8t-5.5 -9q-6 -9 -6 -22
q0 -12 5 -22t13 -15q8 -7 17 -11l21 -9q4 -2 7 -2.5t7 -2.5q3 -2 6.5 -3t6.5 -3q6 -5 9 -10q4 -4 4 -13t-4 -14q-2 -5 -10 -11q-5 -4 -13 -7q-10 -2 -14 -2q-7 0 -15 2q-9 3 -12 8l-2 1q-6 7 -16 7q-6 0 -10 -4l-8 -3q1 -1 1.5 -2t1.5 -2l3 -6q4 -4 5 -6q3 -5 7 -6
q17 -16 45 -16q14 0 26 4q12 5 22 13q8 7 15 19zM2683 648h-124v-200h124v27h-97v60h78v28h-78v57h97v28zM2998 520q3 15 3 27q0 14 -3 28q-2 7 -4.5 13t-6.5 12q-7 12 -16 20q-5 5 -10 8.5t-10 7.5q-6 4 -12 6.5t-13 4.5q-12 3 -27 3q-14 0 -27 -3q-7 -2 -13 -4.5t-12 -6.5
q-5 -4 -10.5 -7.5t-10.5 -8.5t-8.5 -10t-7.5 -10q-5 -10 -10 -25q-3 -14 -3 -28q0 -10 1.5 -20t6.5 -19q4 -10 9 -17.5t12 -15.5q15 -14 33 -21q16 -8 40 -8q7 0 14 0.5t13 2.5q7 2 13 4.5t12 6.5q12 7 20 15q5 5 9 10.5t7 10.5q4 6 6.5 12t4.5 12zM3208 648h-28v-156
q-2 9 -5 14l-97 134q-3 5 -8 6q-6 2 -12 2h-20v-200h28v168l2 -4q0 -3 1 -4q0 -2 2 -4l114 -156h23v200zM3371 475h-87v173h-27v-200h114v27zM3530 648h-19q-10 0 -14 -3q-7 -3 -10 -10l-48 -64q1 0 -2 -3q0 -1 -1 -2v-1v3q0 3 -2 3l-47 64q-6 8 -10 10q-8 3 -15 3h-19
l72 -97q1 -1 1.5 -2t1.5 -2q2 -4 3 -5q0 -1 0.5 -2t0.5 -2v-6v-84h28v84q0 2 0.5 3t0.5 3q1 1 1 2t1 2t1 2t2 3q0 1 3 4zM1983 789q-53 21 -97 58h423q-43 -37 -97 -58q-51 -22 -115 -22q-63 0 -114 22zM1922 881l411 415q79 -103 79 -213q0 -57 -18 -108q-17 -49 -53 -94
h-419zM1861 871q-19 22 -33.5 46t-24.5 51q-11 26 -15.5 55t-4.5 60q0 57 18 108q8 26 21.5 48.5t30.5 44.5h419zM2212 1378q55 -23 95 -60h-422q22 20 46.5 34.5t50.5 25.5q27 11 55.5 16t59.5 5q62 0 115 -21zM530 116q-6 8 -10 22q-2 6 -3 12t-1 13q0 6 1 12t3 12
q3 14 10 23q7 12 14 19t19 14q5 3 10.5 5.5t11.5 4.5q12 3 25 3q10 0 19 -2t18 -5q8 -5 15.5 -9.5t13.5 -11.5l-4 -4q0 -1 -1 -1q-1 -1 -2 -1q-2 -2 -4 -2h-5q-6 0 -9 2q-5 3 -9.5 5.5t-9.5 4.5q-11 3 -22 3q-15 0 -28 -5q-15 -7 -23 -16q-9 -8 -16 -23q-6 -14 -6 -28
q0 -10 3 -19t7 -18q3 -5 6 -8t6 -7q4 -3 7.5 -6t7.5 -5q5 -2 9 -3.5t9 -3.5q9 -3 19 -3q12 0 24 3q6 2 11.5 4.5t10.5 5.5v38h-14q-2 0 -3.5 0.5t-3.5 0.5q-2 2 -6 4q-1 2 -2 3t-1 3q-2 4 -2 7v2h51v-71q-5 -7 -14 -11q-8 -4 -15 -5q-5 -2 -9 -2.5t-9 -1.5h-19q-13 0 -25 3
q-11 3 -22 9q-12 7 -19 15q-7 7 -14 19zM742 233v-59h72v-20h-72v-62h90v-20h-111v182h111v-21h-90zM912 72v161h-58v21h137v-21h-58v-161h-21zM1126 233v-63h76v-20h-76v-78h-21v182h111v-21h-90zM1271 254v-112q0 -12 4 -20q2 -5 5 -9l6 -8l8 -6t9 -5q9 -4 20 -4
q12 0 20 4q5 2 9 5l8 6q6 6 11 17q5 10 5 20v112h20v-112q0 -16 -6 -28q-3 -7 -6.5 -12.5t-8.5 -10.5q-9 -9 -23 -16q-15 -5 -29 -5q-13 0 -28 5q-15 7 -23 16q-9 8 -16 23q-3 6 -4 13t-1 15v112h20zM1455 254v-162h81v-20h-102v182h21zM1579 254v-162h81v-20h-101v182h20z
M1826 72l-79 182h11q4 0 10 -3l3.5 -3.5t2.5 -4.5l60 -136q0 -2 0.5 -3t0.5 -3q1 -3 1 -6v6q2 4 2 6q8 17 15 34t15 34t15 34t15 34q2 4 6 8q6 3 10 3h11q-10 -23 -20 -45.5t-20 -45.5t-19.5 -45.5t-19.5 -45.5h-20zM1961 233v-59h73v-20h-73v-62h90v-20h-111v182h111v-21
h-90zM2187 157q-8 -5 -16 -6l59 -79h-12q-9 0 -12 2q-6 3 -9 8l-51 68h-31v-78h-21v182h65q12 0 20 -4q9 -4 17 -11q7 -8 11 -17q4 -8 4 -20q0 -9 -3 -18q-4 -9 -8 -15q-3 -4 -6 -6.5t-7 -5.5zM2159 170q6 0 12 3q3 1 5.5 2.5t4.5 3.5q4 4 7 10l2 6t1 7q0 3 -1 6l-2 6
q-3 6 -7 10t-10 7q-8 2 -12 2h-44v-63h44zM2326 98q6 4 9 11q4 5 4 14t-3 15t-9 9q-4 4 -12 7q-4 1 -14 5q-5 2 -9.5 4t-9.5 4q-11 3 -16 9q-6 4 -11 13q-3 7 -3 20q0 11 5 19q3 9 12 15q4 3 8 5.5t9 4.5q9 3 19 3q5 0 15 -2q5 -2 13 -6q3 -2 5.5 -4t4.5 -4q3 -2 5 -4l4 -4
l-5 -4q-4 -4 -10 -4q-4 0 -10 2q-2 2 -3 2.5t-2 1.5q-2 1 -2.5 1.5t-2.5 1.5q-2 0 -3 0.5t-3 0.5q-2 1 -6 1q-5 0 -13 -2q-4 -1 -10 -5q-6 -6 -7 -9q-3 -5 -3 -10q0 -8 2 -11q1 -4 6 -7q6 -4 11 -6q4 -2 8 -3t9 -3q3 -2 9 -4t9 -4q6 -2 9 -4q2 -1 3.5 -2t3.5 -2q8 -8 14 -17
q2 -5 3 -10.5t1 -12.5q0 -10 -5 -22q-4 -8 -13 -17q-8 -7 -20 -10q-9 -4 -23 -4q-26 0 -40 14q-3 2 -5.5 5t-4.5 5q-4 6 -4 8l4 2q2 2 4 2q1 1 4 1q8 0 13 -5q6 -7 14 -9q7 -3 15 -3q4 0 7 0.5t7 1.5q7 1 13 6zM2421 254v-182h-21v182h21zM2491 97q-13 12 -20 29
q-8 19 -8 37q0 6 1 12t3 12q3 13 9 23q4 5 7 9.5t8 9.5q5 4 9.5 7.5t9.5 6.5q11 7 22 10q12 3 25 3t25 -3q6 -2 11.5 -4.5t10.5 -5.5t9.5 -6.5t9.5 -7.5q5 -5 8 -9.5t6 -9.5t5.5 -11t4.5 -12q3 -12 3 -24q0 -20 -7 -37q-8 -17 -20 -29q-14 -14 -30 -20q-15 -7 -36 -7
q-20 0 -37 7q-17 6 -29 20zM2490 191q-6 -14 -6 -28q0 -10 3 -19t7 -18q2 -5 5 -8t6 -7q4 -3 7.5 -6t7.5 -5q5 -2 9 -3.5t9 -3.5q7 -3 19 -3q10 0 19 3q5 2 9 3.5t9 3.5q7 4 14 11t11 15q5 7 8 18q2 5 2 9.5v9.5q0 14 -6 28q-5 14 -15 23q-8 9 -23 16q-13 5 -28 5
q-8 0 -14.5 -1.5t-14.5 -3.5q-14 -7 -23 -16t-15 -23zM2704 72h-20v182h14q12 0 16 -7l94 -132q2 -2 2 -3t1 -3t1 -5v150h21v-182h-19l-107 150l-1 2q-1 1 -1 3t-1 3v-158zM2986 233v-63h76v-20h-76v-78h-20v182h111v-21h-91zM3204 169q-2 -4 -5 -6.5t-7 -5.5q-8 -5 -16 -6
l59 -79h-12q-9 0 -13 2q-5 3 -8 8l-50 68h-33v-78h-20v182h64q12 0 21 -4t16 -11t12 -17q2 -5 3 -10t1 -10q0 -9 -3 -18q-4 -10 -9 -15zM3176 173q3 1 5.5 2.5t4.5 3.5q5 5 6 10q3 6 3 13q0 6 -3 12q-1 5 -6 10q-4 4 -10 7q-8 2 -13 2h-44v-63h44q7 0 13 3zM3413 97
q-14 -14 -30 -20q-15 -7 -37 -7q-9 0 -18.5 1.5t-17.5 5.5q-17 6 -29 20q-7 6 -11.5 13.5t-8.5 15.5q-8 19 -8 37q0 6 1 12t3 12q3 14 10 23q4 9 14 19q7 7 19 14q5 3 10.5 5.5t11.5 4.5q12 3 24 3q14 0 26 -3q6 -2 11 -4.5t10 -5.5q6 -3 10.5 -6.5t9.5 -7.5q5 -5 8 -9.5
t6 -9.5q6 -10 9 -23q4 -11 4 -24q0 -21 -8 -37q-6 -16 -19 -29zM3346 90q11 0 20 3q5 2 9 3.5t8 3.5q5 2 8 5t7 6q7 7 11 15q5 7 8 18q2 5 2 9.5v9.5q0 13 -5 28q-7 15 -16 23q-9 9 -23 16q-15 5 -29 5q-13 0 -28 -5q-13 -6 -22 -16q-9 -8 -16 -23q-6 -14 -6 -28
q0 -5 0.5 -9.5t1.5 -9.5q2 -5 4 -9t4 -9t5 -8l7 -7q6 -7 14 -11q4 -2 8 -3.5t9 -3.5q9 -3 19 -3zM3645 251q4 3 9 3h17v-182h-20v151q0 -1 -1 -1q0 -2 -1 -3v-3q0 -1 -1 -2q-5 -11 -9 -20.5t-8 -19.5q-5 -10 -9 -18.5t-7 -17.5q-4 -9 -8 -17.5t-7 -16.5q-4 -8 -7.5 -16
t-7.5 -16h-21q-8 17 -15.5 35t-15.5 35l-16 36l-16 36q-1 1 -1 4q-1 2 -1 4v-150h-20v182h16q4 0 9 -3q6 -3 6 -8l63 -141q0 -3 1 -4t1 -4q0 3 2 11q2 2 2.5 4.5t2.5 5.5l57 128q1 5 6 8zM524 0h210v-23q0 -10 -1 -14q-3 -8 -6 -12l-141 -189l4 2l4 2q1 0 1.5 0.5t2.5 0.5
h135v-50h-217v16q0 5 2 13t4 13q2 3 3 5.5t3 5.5q5 5 8 11l125 169h-137v50zM769 0h182v-50h-130v-65h105v-50h-105v-68h130v-50h-182v283zM1179 -50h-83v-233h-52v233h-83v50h218v-50zM1307 0l123 -283h-32q-11 0 -20 6q-7 5 -14 15l-16 39h-129l-17 -39q-2 -5 -5 -8
q-2 -3 -8 -7t-10 -4q-3 -2 -10 -2h-33l124 283h47zM1325 -172l-37 86q-2 3 -2.5 6t-1.5 5q0 6 -1 8q0 -5 -1 -8q0 -2 -1 -5l-2 -6l-37 -86h83zM1442 0h181v-50h-130v-71h109v-50h-109v-112h-51v283zM1910 -69q5 -8 8.5 -16.5t5.5 -18.5q3 -8 4 -18t1 -20t-1 -19.5t-4 -18.5
q-4 -17 -14 -35q-9 -15 -23 -29q-6 -6 -13.5 -11.5t-15.5 -10.5t-16.5 -8.5t-17.5 -6.5q-10 -2 -19 -3.5t-20 -1.5q-29 0 -56 11q-27 12 -46 31q-10 11 -18 22t-13 24q-11 25 -11 56q0 10 1 20t3 18q5 17 15 35q5 8 10.5 15t12.5 15q14 12 29 22q17 9 34 15q17 4 39 4t39 -4
q17 -6 34 -15q8 -5 15.5 -10.5t13.5 -11.5q7 -8 12.5 -15t10.5 -15zM1871 -178q3 9 5 18t2 18q0 17 -7 36q-4 9 -9 16t-11 14q-15 14 -30 19q-18 8 -36 8t-36 -8q-16 -6 -29 -19q-12 -12 -21 -30q-7 -19 -7 -36q0 -9 2 -18t5 -18q5 -8 9.5 -15.5t11.5 -13.5q12 -13 29 -20
q15 -7 36 -7t36 7t30 20q12 12 20 29zM2166 0h52v-283h-48l-135 189q-3 2 -4 7q-2 2 -3 3.5t-2 3.5t-2 3.5t-2 3.5l-3 6v-216h-52v283h46q10 0 16 -3q8 -3 11 -9q15 -20 30 -41t29 -42l30 -42t29 -41q4 -6 6 -12q2 -8 2 -9v199zM2242 0h218v-50h-83v-233h-52v233h-83v50z
M2639 -145q8 -8 13 -23q5 -13 5 -28q0 -18 -8 -36q-9 -17 -22 -29q-15 -12 -33 -18q-9 -3 -18.5 -5t-18.5 -2q-11 0 -20.5 2t-19.5 5q-9 5 -16.5 9.5t-15.5 11.5q-5 5 -8 9t-6 9t-4.5 8.5t-3.5 7.5q2 1 3.5 2t3.5 2t3.5 2t3.5 2q6 2 8 3q2 0 4.5 0.5t4.5 0.5q6 0 12 -3
q8 -2 13 -4q9 -7 17 -10q8 -5 21 -5q3 0 7 0.5t9 1.5q4 2 8 3.5t7 3.5q9 6 12 13q6 7 6 17q0 7 -5 14q-4 5 -12 10q-6 4 -16 7q-5 2 -9 4t-9 4q-13 4 -29 11q-8 3 -14 7t-12 9q-12 10 -17 22q-7 13 -7 32q0 10 2 18t5 16q5 7 9.5 12.5t10.5 10.5q13 10 29 16q13 4 32 4
q13 0 24 -4q6 -2 11.5 -4.5t10.5 -5.5t9.5 -7t9.5 -8q10 -8 15 -16l-10 -8q-7 -5 -14 -8q-5 -2 -8 -2h-7h-3h-4q-6 2 -10 4q-6 2 -8 4q-2 0 -4 1t-4 1q-6 2 -8 2q-4 0 -7 -0.5t-7 -1.5q-5 -1 -11 -5q-6 -3 -9 -8q-2 -3 -2 -11t2 -11t4.5 -5t4.5 -4q6 -4 16 -7q5 -2 11 -4
t13 -4l9 -3q18 -6 29 -14q14 -9 22 -18zM2726 -233q5 -5 6 -10q3 -5 3 -12q0 -8 -3 -12q-1 -5 -6 -10q-4 -4 -10 -6q-6 -3 -13 -3t-11 3q-7 2 -11 6t-7 10q-2 6 -2 12t2 12q3 6 7 10t11 6q4 3 11 3t13 -3q6 -2 10 -6zM2833 -76q-13 -13 -20 -30q-8 -18 -8 -36q0 -17 8 -36
q4 -8 8.5 -15.5t11.5 -13.5t14 -11t16 -9q15 -7 35 -7q8 0 15 1t13 3q14 5 25 13q6 2 9 4q3 1 10 1q10 0 16 -3q8 -4 12 -8l11 -11q-12 -14 -23 -22q-7 -5 -13.5 -8.5t-13.5 -7.5q-13 -7 -30 -10q-12 -4 -31 -4q-28 0 -56 11q-27 12 -46 31q-19 20 -31 46q-11 28 -11 56
q0 20 5 38q2 10 5.5 18.5t8.5 16.5q10 15 23 30q7 6 14 11.5t16 10.5q16 9 34 15q17 4 38 4q8 0 16 -0.5t15 -2.5q8 -2 15 -4.5t15 -5.5q7 -4 13.5 -8t13.5 -9q13 -10 23 -21l-11 -12q-4 -4 -12 -8q-8 -3 -16 -3q-10 0 -19 6q-13 8 -25 12q-13 5 -28 5q-17 0 -35 -8
q-9 -3 -16 -8t-14 -11zM3298 -69q5 -8 8.5 -16.5t5.5 -18.5q3 -8 4 -18t1 -20t-1 -19.5t-4 -18.5q-4 -17 -14 -35q-9 -15 -23 -29q-7 -6 -14 -11.5t-16 -10.5q-8 -5 -16 -8.5t-18 -6.5q-20 -5 -38 -5q-29 0 -57 11q-13 6 -24.5 13.5t-20.5 17.5q-10 11 -18 22t-13 24
q-12 27 -12 56q0 20 5 38q5 17 15 35q5 8 10.5 15t12.5 15q6 6 13.5 11.5t15.5 10.5q17 9 34 15q17 4 39 4t38 -4q18 -6 34 -15q9 -5 16 -10.5t14 -11.5q7 -8 12.5 -15t10.5 -15zM3259 -178q3 9 5 18t2 18q0 17 -7 36q-9 17 -20 30q-15 14 -30 19q-18 8 -36 8t-36 -8
q-15 -5 -30 -19q-6 -7 -11 -14t-9 -16q-7 -15 -7 -36q0 -19 7 -36t20 -29q15 -13 30 -20t36 -7t36 7t30 20q6 6 10.5 13.5t9.5 15.5zM3609 -2q6 2 10 2h52v-283h-52v207q-3 -5 -4 -14q-2 -4 -2.5 -7.5t-2.5 -6.5q-9 -23 -18 -45t-19 -44q-9 -23 -18 -45t-19 -45h-47l-74 179
q-2 3 -3 6t-2 8q-1 3 -2 6.5t-2 5.5v-205h-52v283h51q4 0 12 -2q6 -2 9 -4q5 -3 8 -8q2 -2 6 -8q8 -22 16.5 -43.5t17.5 -42.5q8 -22 17 -43t17 -43q2 -2 2 -5q0 -2 0.5 -3t0.5 -3q1 -2 1 -6v-3q0 2 1 3q0 4 1 6q0 4 1 6q0 2 0.5 3t0.5 2l10 20l59 152q1 4 6 9q2 3 8 7
q4 2 10 4z" />
    <glyph glyph-name="one" unicode="1" horiz-adv-x="4097" 
d="M2952 600q9 -8 16 -23q6 -14 6 -30q0 -14 -6 -29q-7 -14 -16 -23q-10 -10 -24 -16t-29 -6q-16 0 -29 6q-14 6 -24 16q-5 5 -9 11t-7 12q-6 15 -6 29q0 16 6 30q6 13 16 23q9 10 24 17q13 6 29 6q15 0 29 -6q15 -7 24 -17zM1109 577q-4 -6 -7 -10q-6 -4 -10 -6t-12 -2h-44
v61h44q6 0 12 -3q5 -1 10 -6q3 -3 7 -9q2 -8 2 -13q0 -4 -2 -12zM1479 600q10 -10 16 -23q6 -14 6 -30q0 -14 -6 -29q-3 -6 -7 -12t-9 -11q-10 -10 -24 -16t-29 -6q-16 0 -29 6q-14 6 -24 16q-9 9 -16 23q-6 15 -6 29q0 16 6 30q7 15 16 23q9 10 24 17q13 6 29 6q15 0 29 -6
q15 -7 24 -17zM1855 616q0 -6 2 -12l37 -84h-78l36 84q1 2 1 2.5t1 2.5q0 2 0.5 3.5t0.5 3.5zM784 610q3 -3 7 -11q3 -8 3 -14q0 -8 -3 -14q-4 -8 -7 -11q-6 -6 -11 -7q-4 -2 -7 -3t-7 -1h-44v71h44q6 0 14 -3q5 -1 11 -7zM3671 1084v-766h-3147v766h1193q0 80 30 151
q16 35 36.5 65t46.5 56q54 52 121 80q70 30 146 30q85 0 152 -32q70 -31 121 -84q26 -26 45.5 -56.5t34.5 -65.5q29 -70 29 -144h1192zM1774 1216q-26 -64 -26 -133q0 -71 27 -134q26 -62 74 -113q46 -47 111 -76q61 -29 137 -29q74 0 136 28q32 14 60 33t52 42t43 51t33 60
q27 64 27 138q0 67 -20 120q-19 53 -56 99q-35 42 -82 74q-24 14 -49.5 25.5t-51.5 19.5q-39 13 -92 13q-73 0 -139 -29q-64 -29 -111 -76q-45 -47 -73 -113zM817 561q5 12 5 24t-5 25q-4 9 -14 19q-8 9 -20 14q-10 5 -24 5h-71v-200h27v74h44q11 0 24 5q11 4 20 13
q10 10 14 21zM966 648h-124v-200h124v27h-96v60h78v28h-78v57h96v28zM1161 448l-63 86q10 3 16 8q9 6 13 13q5 5 9 16q2 5 2 9v9q0 14 -4 23q-2 5 -5.5 9.5t-7.5 9.5q-8 7 -18 12q-9 5 -23 5h-72v-200h28v83h30l52 -71q3 -5 10 -9q4 -3 15 -3h18zM1296 482q5 13 5 25
q0 27 -21 44q-6 4 -9 5q-2 2 -4.5 2.5t-4.5 2.5q-2 1 -5 1.5t-5 2.5q-2 0 -5 1t-5 2q-5 2 -9 3.5t-8 3.5q-9 3 -11 5q-5 5 -6 8q-2 3 -2 10t2 10q4 6 7 8q3 1 11 5q3 1 5.5 1.5t6.5 0.5q2 0 5 -1t5 -2q3 -1 6 -2.5t5 -3.5q6 -3 12 -3q9 0 14 5l7 5l-4.5 4.5l-5.5 5.5
q-3 2 -6 4.5t-7 4.5q-5 4 -15 7q-8 3 -16 3q-12 0 -22 -3q-6 -2 -10.5 -4.5t-9.5 -5.5q-8 -8 -13 -17q-5 -10 -5 -22q0 -15 5 -22q4 -9 12 -15q9 -7 18 -11q5 -2 10 -4.5t10 -4.5q3 -2 6.5 -2.5t7.5 -2.5q10 -4 13 -6q6 -4 10 -10q3 -5 3 -13q0 -9 -4 -14q-2 -6 -9 -11
q-3 -2 -6.5 -3.5t-6.5 -3.5q-5 -1 -8 -1.5t-7 -0.5q-6 0 -14 2q-9 3 -12 8l-3 1q-6 7 -15 7q-6 0 -11 -4l-7 -3q1 -1 1 -2t2 -2q0 -2 1 -3t2 -3t5 -6q3 -5 6 -6q17 -16 45 -16q15 0 27 4q13 5 21 13q10 8 16 19zM1525 520q3 15 3 27q0 14 -3 28q-2 7 -4.5 13t-6.5 12
q-3 5 -7 10l-8 10q-10 8 -22 16q-5 4 -11 6.5t-13 4.5q-14 3 -27 3q-15 0 -27 -3q-7 -2 -13 -4.5t-12 -6.5q-5 -4 -10 -7.5t-10 -8.5q-9 -8 -16 -20q-4 -6 -6.5 -12t-4.5 -13t-3 -13.5t-1 -14.5q0 -21 9 -39q4 -10 9.5 -17.5t12.5 -15.5q13 -13 32 -21q17 -8 40 -8
q8 0 14 0.5t13 2.5t13 4.5t11 6.5q11 5 22 15q4 5 8 10.5t7 10.5q4 6 6.5 12t4.5 12zM1735 648h-28v-156q0 5 -1 8t-3 6l-97 134q-3 4 -8 6q-8 2 -12 2h-20v-200h28v168v-4l2 -4q0 -2 2 -4l114 -156h23v200zM1956 448l-87 200h-27l-88 -200h16q6 0 12 3l4 4t4 5l14 32h102
l14 -32q3 -7 8 -9q3 -3 12 -3h16zM2090 475h-87v173h-27v-200h114v27zM2365 648h-28v-122q0 -12 -4 -21q-2 -5 -4.5 -9t-7.5 -7q-3 -5 -7 -7.5t-9 -4.5q-9 -4 -21 -4t-20 4q-5 2 -9.5 4.5t-7.5 7.5q-7 5 -12 16q-2 5 -3 10t-1 11v122h-27v-122v-11.5t2 -10.5t4 -9.5t4 -9.5
q3 -5 6 -9t8 -7q5 -6 15 -13q11 -5 20 -8q10 -3 21 -3t22 3q5 2 9.5 4t9.5 4q9 6 16 13q4 3 7 7t6 9q2 5 4 9.5t4 9.5q3 10 3 22v122zM2519 482q5 10 5 25q0 29 -21 44q-2 2 -4 3l-4 2l-10 5q-6 2 -10 4q-2 0 -4.5 1t-5.5 2q-5 2 -8.5 3.5t-7.5 3.5t-6.5 2.5t-4.5 2.5
q-6 4 -7 8q-2 6 -2 10q0 5 3 10q4 6 7 8q2 1 4.5 2t5.5 3q8 2 13 2q2 0 4.5 -1t5.5 -2l5 -2.5t6 -3.5q6 -3 12 -3q8 0 13 5l8 5l-10 10q-3 2 -6 4.5t-7 4.5q-3 2 -7 3.5t-8 3.5q-9 3 -16 3q-13 0 -23 -3q-5 -2 -9.5 -4.5t-9.5 -5.5q-4 -4 -7.5 -8t-5.5 -9q-6 -9 -6 -22
q0 -12 5 -22t13 -15q8 -7 17 -11l21 -9q4 -2 7 -2.5t7 -2.5q3 -2 6.5 -3t6.5 -3q6 -5 9 -10q4 -4 4 -13t-4 -14q-2 -5 -10 -11q-5 -4 -13 -7q-10 -2 -14 -2q-7 0 -15 2q-9 3 -12 8l-2 1q-6 7 -16 7q-6 0 -10 -4l-8 -3q1 -1 1.5 -2t1.5 -2l3 -6q4 -4 5 -6q3 -5 7 -6
q17 -16 45 -16q14 0 26 4q12 5 22 13q8 7 15 19zM2683 648h-124v-200h124v27h-97v60h78v28h-78v57h97v28zM2998 520q3 15 3 27q0 14 -3 28q-2 7 -4.5 13t-6.5 12q-7 12 -16 20q-5 5 -10 8.5t-10 7.5q-6 4 -12 6.5t-13 4.5q-12 3 -27 3q-14 0 -27 -3q-7 -2 -13 -4.5t-12 -6.5
q-5 -4 -10.5 -7.5t-10.5 -8.5t-8.5 -10t-7.5 -10q-5 -10 -10 -25q-3 -14 -3 -28q0 -10 1.5 -20t6.5 -19q4 -10 9 -17.5t12 -15.5q15 -14 33 -21q16 -8 40 -8q7 0 14 0.5t13 2.5q7 2 13 4.5t12 6.5q12 7 20 15q5 5 9 10.5t7 10.5q4 6 6.5 12t4.5 12zM3208 648h-28v-156
q-2 9 -5 14l-97 134q-3 5 -8 6q-6 2 -12 2h-20v-200h28v168l2 -4q0 -3 1 -4q0 -2 2 -4l114 -156h23v200zM3371 475h-87v173h-27v-200h114v27zM3530 648h-19q-10 0 -14 -3q-7 -3 -10 -10l-48 -64q1 0 -2 -3q0 -1 -1 -2v-1v3q0 3 -2 3l-47 64q-6 8 -10 10q-8 3 -15 3h-19
l72 -97q1 -1 1.5 -2t1.5 -2q2 -4 3 -5q0 -1 0.5 -2t0.5 -2v-6v-84h28v84q0 2 0.5 3t0.5 3q1 1 1 2t1 2t1 2t2 3q0 1 3 4zM1983 789q-53 21 -97 58h423q-43 -37 -97 -58q-51 -22 -115 -22q-63 0 -114 22zM1922 881l411 415q79 -103 79 -213q0 -57 -18 -108q-17 -49 -53 -94
h-419zM1861 871q-19 22 -33.5 46t-24.5 51q-11 26 -15.5 55t-4.5 60q0 57 18 108q8 26 21.5 48.5t30.5 44.5h419zM2212 1378q55 -23 95 -60h-422q22 20 46.5 34.5t50.5 25.5q27 11 55.5 16t59.5 5q62 0 115 -21zM530 116q-6 8 -10 22q-2 6 -3 12t-1 13q0 6 1 12t3 12
q3 14 10 23q7 12 14 19t19 14q5 3 10.5 5.5t11.5 4.5q12 3 25 3q10 0 19 -2t18 -5q8 -5 15.5 -9.5t13.5 -11.5l-4 -4q0 -1 -1 -1q-1 -1 -2 -1q-2 -2 -4 -2h-5q-6 0 -9 2q-5 3 -9.5 5.5t-9.5 4.5q-11 3 -22 3q-15 0 -28 -5q-15 -7 -23 -16q-9 -8 -16 -23q-6 -14 -6 -28
q0 -10 3 -19t7 -18q3 -5 6 -8t6 -7q4 -3 7.5 -6t7.5 -5q5 -2 9 -3.5t9 -3.5q9 -3 19 -3q12 0 24 3q6 2 11.5 4.5t10.5 5.5v38h-14q-2 0 -3.5 0.5t-3.5 0.5q-2 2 -6 4q-1 2 -2 3t-1 3q-2 4 -2 7v2h51v-71q-5 -7 -14 -11q-8 -4 -15 -5q-5 -2 -9 -2.5t-9 -1.5h-19q-13 0 -25 3
q-11 3 -22 9q-12 7 -19 15q-7 7 -14 19zM742 233v-59h72v-20h-72v-62h90v-20h-111v182h111v-21h-90zM912 72v161h-58v21h137v-21h-58v-161h-21zM1126 233v-63h76v-20h-76v-78h-21v182h111v-21h-90zM1271 254v-112q0 -12 4 -20q2 -5 5 -9l6 -8l8 -6t9 -5q9 -4 20 -4
q12 0 20 4q5 2 9 5l8 6q6 6 11 17q5 10 5 20v112h20v-112q0 -16 -6 -28q-3 -7 -6.5 -12.5t-8.5 -10.5q-9 -9 -23 -16q-15 -5 -29 -5q-13 0 -28 5q-15 7 -23 16q-9 8 -16 23q-3 6 -4 13t-1 15v112h20zM1455 254v-162h81v-20h-102v182h21zM1579 254v-162h81v-20h-101v182h20z
M1826 72l-79 182h11q4 0 10 -3l3.5 -3.5t2.5 -4.5l60 -136q0 -2 0.5 -3t0.5 -3q1 -3 1 -6v6q2 4 2 6q8 17 15 34t15 34t15 34t15 34q2 4 6 8q6 3 10 3h11q-10 -23 -20 -45.5t-20 -45.5t-19.5 -45.5t-19.5 -45.5h-20zM1961 233v-59h73v-20h-73v-62h90v-20h-111v182h111v-21
h-90zM2187 157q-8 -5 -16 -6l59 -79h-12q-9 0 -12 2q-6 3 -9 8l-51 68h-31v-78h-21v182h65q12 0 20 -4q9 -4 17 -11q7 -8 11 -17q4 -8 4 -20q0 -9 -3 -18q-4 -9 -8 -15q-3 -4 -6 -6.5t-7 -5.5zM2159 170q6 0 12 3q3 1 5.5 2.5t4.5 3.5q4 4 7 10l2 6t1 7q0 3 -1 6l-2 6
q-3 6 -7 10t-10 7q-8 2 -12 2h-44v-63h44zM2326 98q6 4 9 11q4 5 4 14t-3 15t-9 9q-4 4 -12 7q-4 1 -14 5q-5 2 -9.5 4t-9.5 4q-11 3 -16 9q-6 4 -11 13q-3 7 -3 20q0 11 5 19q3 9 12 15q4 3 8 5.5t9 4.5q9 3 19 3q5 0 15 -2q5 -2 13 -6q3 -2 5.5 -4t4.5 -4q3 -2 5 -4l4 -4
l-5 -4q-4 -4 -10 -4q-4 0 -10 2q-2 2 -3 2.5t-2 1.5q-2 1 -2.5 1.5t-2.5 1.5q-2 0 -3 0.5t-3 0.5q-2 1 -6 1q-5 0 -13 -2q-4 -1 -10 -5q-6 -6 -7 -9q-3 -5 -3 -10q0 -8 2 -11q1 -4 6 -7q6 -4 11 -6q4 -2 8 -3t9 -3q3 -2 9 -4t9 -4q6 -2 9 -4q2 -1 3.5 -2t3.5 -2q8 -8 14 -17
q2 -5 3 -10.5t1 -12.5q0 -10 -5 -22q-4 -8 -13 -17q-8 -7 -20 -10q-9 -4 -23 -4q-26 0 -40 14q-3 2 -5.5 5t-4.5 5q-4 6 -4 8l4 2q2 2 4 2q1 1 4 1q8 0 13 -5q6 -7 14 -9q7 -3 15 -3q4 0 7 0.5t7 1.5q7 1 13 6zM2421 254v-182h-21v182h21zM2491 97q-13 12 -20 29
q-8 19 -8 37q0 6 1 12t3 12q3 13 9 23q4 5 7 9.5t8 9.5q5 4 9.5 7.5t9.5 6.5q11 7 22 10q12 3 25 3t25 -3q6 -2 11.5 -4.5t10.5 -5.5t9.5 -6.5t9.5 -7.5q5 -5 8 -9.5t6 -9.5t5.5 -11t4.5 -12q3 -12 3 -24q0 -20 -7 -37q-8 -17 -20 -29q-14 -14 -30 -20q-15 -7 -36 -7
q-20 0 -37 7q-17 6 -29 20zM2490 191q-6 -14 -6 -28q0 -10 3 -19t7 -18q2 -5 5 -8t6 -7q4 -3 7.5 -6t7.5 -5q5 -2 9 -3.5t9 -3.5q7 -3 19 -3q10 0 19 3q5 2 9 3.5t9 3.5q7 4 14 11t11 15q5 7 8 18q2 5 2 9.5v9.5q0 14 -6 28q-5 14 -15 23q-8 9 -23 16q-13 5 -28 5
q-8 0 -14.5 -1.5t-14.5 -3.5q-14 -7 -23 -16t-15 -23zM2704 72h-20v182h14q12 0 16 -7l94 -132q2 -2 2 -3t1 -3t1 -5v150h21v-182h-19l-107 150l-1 2q-1 1 -1 3t-1 3v-158zM2986 233v-63h76v-20h-76v-78h-20v182h111v-21h-91zM3204 169q-2 -4 -5 -6.5t-7 -5.5q-8 -5 -16 -6
l59 -79h-12q-9 0 -13 2q-5 3 -8 8l-50 68h-33v-78h-20v182h64q12 0 21 -4t16 -11t12 -17q2 -5 3 -10t1 -10q0 -9 -3 -18q-4 -10 -9 -15zM3176 173q3 1 5.5 2.5t4.5 3.5q5 5 6 10q3 6 3 13q0 6 -3 12q-1 5 -6 10q-4 4 -10 7q-8 2 -13 2h-44v-63h44q7 0 13 3zM3413 97
q-14 -14 -30 -20q-15 -7 -37 -7q-9 0 -18.5 1.5t-17.5 5.5q-17 6 -29 20q-7 6 -11.5 13.5t-8.5 15.5q-8 19 -8 37q0 6 1 12t3 12q3 14 10 23q4 9 14 19q7 7 19 14q5 3 10.5 5.5t11.5 4.5q12 3 24 3q14 0 26 -3q6 -2 11 -4.5t10 -5.5q6 -3 10.5 -6.5t9.5 -7.5q5 -5 8 -9.5
t6 -9.5q6 -10 9 -23q4 -11 4 -24q0 -21 -8 -37q-6 -16 -19 -29zM3346 90q11 0 20 3q5 2 9 3.5t8 3.5q5 2 8 5t7 6q7 7 11 15q5 7 8 18q2 5 2 9.5v9.5q0 13 -5 28q-7 15 -16 23q-9 9 -23 16q-15 5 -29 5q-13 0 -28 -5q-13 -6 -22 -16q-9 -8 -16 -23q-6 -14 -6 -28
q0 -5 0.5 -9.5t1.5 -9.5q2 -5 4 -9t4 -9t5 -8l7 -7q6 -7 14 -11q4 -2 8 -3.5t9 -3.5q9 -3 19 -3zM3645 251q4 3 9 3h17v-182h-20v151q0 -1 -1 -1q0 -2 -1 -3v-3q0 -1 -1 -2q-5 -11 -9 -20.5t-8 -19.5q-5 -10 -9 -18.5t-7 -17.5q-4 -9 -8 -17.5t-7 -16.5q-4 -8 -7.5 -16
t-7.5 -16h-21q-8 17 -15.5 35t-15.5 35l-16 36l-16 36q-1 1 -1 4q-1 2 -1 4v-150h-20v182h16q4 0 9 -3q6 -3 6 -8l63 -141q0 -3 1 -4t1 -4q0 3 2 11q2 2 2.5 4.5t2.5 5.5l57 128q1 5 6 8zM524 0h210v-23q0 -10 -1 -14q-3 -8 -6 -12l-141 -189l4 2l4 2q1 0 1.5 0.5t2.5 0.5
h135v-50h-217v16q0 5 2 13t4 13q2 3 3 5.5t3 5.5q5 5 8 11l125 169h-137v50zM769 0h182v-50h-130v-65h105v-50h-105v-68h130v-50h-182v283zM1179 -50h-83v-233h-52v233h-83v50h218v-50zM1307 0l123 -283h-32q-11 0 -20 6q-7 5 -14 15l-16 39h-129l-17 -39q-2 -5 -5 -8
q-2 -3 -8 -7t-10 -4q-3 -2 -10 -2h-33l124 283h47zM1325 -172l-37 86q-2 3 -2.5 6t-1.5 5q0 6 -1 8q0 -5 -1 -8q0 -2 -1 -5l-2 -6l-37 -86h83zM1442 0h181v-50h-130v-71h109v-50h-109v-112h-51v283zM1910 -69q5 -8 8.5 -16.5t5.5 -18.5q3 -8 4 -18t1 -20t-1 -19.5t-4 -18.5
q-4 -17 -14 -35q-9 -15 -23 -29q-6 -6 -13.5 -11.5t-15.5 -10.5t-16.5 -8.5t-17.5 -6.5q-10 -2 -19 -3.5t-20 -1.5q-29 0 -56 11q-27 12 -46 31q-10 11 -18 22t-13 24q-11 25 -11 56q0 10 1 20t3 18q5 17 15 35q5 8 10.5 15t12.5 15q14 12 29 22q17 9 34 15q17 4 39 4t39 -4
q17 -6 34 -15q8 -5 15.5 -10.5t13.5 -11.5q7 -8 12.5 -15t10.5 -15zM1871 -178q3 9 5 18t2 18q0 17 -7 36q-4 9 -9 16t-11 14q-15 14 -30 19q-18 8 -36 8t-36 -8q-16 -6 -29 -19q-12 -12 -21 -30q-7 -19 -7 -36q0 -9 2 -18t5 -18q5 -8 9.5 -15.5t11.5 -13.5q12 -13 29 -20
q15 -7 36 -7t36 7t30 20q12 12 20 29zM2166 0h52v-283h-48l-135 189q-3 2 -4 7q-2 2 -3 3.5t-2 3.5t-2 3.5t-2 3.5l-3 6v-216h-52v283h46q10 0 16 -3q8 -3 11 -9q15 -20 30 -41t29 -42l30 -42t29 -41q4 -6 6 -12q2 -8 2 -9v199zM2242 0h218v-50h-83v-233h-52v233h-83v50z
M2639 -145q8 -8 13 -23q5 -13 5 -28q0 -18 -8 -36q-9 -17 -22 -29q-15 -12 -33 -18q-9 -3 -18.5 -5t-18.5 -2q-11 0 -20.5 2t-19.5 5q-9 5 -16.5 9.5t-15.5 11.5q-5 5 -8 9t-6 9t-4.5 8.5t-3.5 7.5q2 1 3.5 2t3.5 2t3.5 2t3.5 2q6 2 8 3q2 0 4.5 0.5t4.5 0.5q6 0 12 -3
q8 -2 13 -4q9 -7 17 -10q8 -5 21 -5q3 0 7 0.5t9 1.5q4 2 8 3.5t7 3.5q9 6 12 13q6 7 6 17q0 7 -5 14q-4 5 -12 10q-6 4 -16 7q-5 2 -9 4t-9 4q-13 4 -29 11q-8 3 -14 7t-12 9q-12 10 -17 22q-7 13 -7 32q0 10 2 18t5 16q5 7 9.5 12.5t10.5 10.5q13 10 29 16q13 4 32 4
q13 0 24 -4q6 -2 11.5 -4.5t10.5 -5.5t9.5 -7t9.5 -8q10 -8 15 -16l-10 -8q-7 -5 -14 -8q-5 -2 -8 -2h-7h-3h-4q-6 2 -10 4q-6 2 -8 4q-2 0 -4 1t-4 1q-6 2 -8 2q-4 0 -7 -0.5t-7 -1.5q-5 -1 -11 -5q-6 -3 -9 -8q-2 -3 -2 -11t2 -11t4.5 -5t4.5 -4q6 -4 16 -7q5 -2 11 -4
t13 -4l9 -3q18 -6 29 -14q14 -9 22 -18zM2726 -233q5 -5 6 -10q3 -5 3 -12q0 -8 -3 -12q-1 -5 -6 -10q-4 -4 -10 -6q-6 -3 -13 -3t-11 3q-7 2 -11 6t-7 10q-2 6 -2 12t2 12q3 6 7 10t11 6q4 3 11 3t13 -3q6 -2 10 -6zM2833 -76q-13 -13 -20 -30q-8 -18 -8 -36q0 -17 8 -36
q4 -8 8.5 -15.5t11.5 -13.5t14 -11t16 -9q15 -7 35 -7q8 0 15 1t13 3q14 5 25 13q6 2 9 4q3 1 10 1q10 0 16 -3q8 -4 12 -8l11 -11q-12 -14 -23 -22q-7 -5 -13.5 -8.5t-13.5 -7.5q-13 -7 -30 -10q-12 -4 -31 -4q-28 0 -56 11q-27 12 -46 31q-19 20 -31 46q-11 28 -11 56
q0 20 5 38q2 10 5.5 18.5t8.5 16.5q10 15 23 30q7 6 14 11.5t16 10.5q16 9 34 15q17 4 38 4q8 0 16 -0.5t15 -2.5q8 -2 15 -4.5t15 -5.5q7 -4 13.5 -8t13.5 -9q13 -10 23 -21l-11 -12q-4 -4 -12 -8q-8 -3 -16 -3q-10 0 -19 6q-13 8 -25 12q-13 5 -28 5q-17 0 -35 -8
q-9 -3 -16 -8t-14 -11zM3298 -69q5 -8 8.5 -16.5t5.5 -18.5q3 -8 4 -18t1 -20t-1 -19.5t-4 -18.5q-4 -17 -14 -35q-9 -15 -23 -29q-7 -6 -14 -11.5t-16 -10.5q-8 -5 -16 -8.5t-18 -6.5q-20 -5 -38 -5q-29 0 -57 11q-13 6 -24.5 13.5t-20.5 17.5q-10 11 -18 22t-13 24
q-12 27 -12 56q0 20 5 38q5 17 15 35q5 8 10.5 15t12.5 15q6 6 13.5 11.5t15.5 10.5q17 9 34 15q17 4 39 4t38 -4q18 -6 34 -15q9 -5 16 -10.5t14 -11.5q7 -8 12.5 -15t10.5 -15zM3259 -178q3 9 5 18t2 18q0 17 -7 36q-9 17 -20 30q-15 14 -30 19q-18 8 -36 8t-36 -8
q-15 -5 -30 -19q-6 -7 -11 -14t-9 -16q-7 -15 -7 -36q0 -19 7 -36t20 -29q15 -13 30 -20t36 -7t36 7t30 20q6 6 10.5 13.5t9.5 15.5zM3609 -2q6 2 10 2h52v-283h-52v207q-3 -5 -4 -14q-2 -4 -2.5 -7.5t-2.5 -6.5q-9 -23 -18 -45t-19 -44q-9 -23 -18 -45t-19 -45h-47l-74 179
q-2 3 -3 6t-2 8q-1 3 -2 6.5t-2 5.5v-205h-52v283h51q4 0 12 -2q6 -2 9 -4q5 -3 8 -8q2 -2 6 -8q8 -22 16.5 -43.5t17.5 -42.5q8 -22 17 -43t17 -43q2 -2 2 -5q0 -2 0.5 -3t0.5 -3q1 -2 1 -6v-3q0 2 1 3q0 4 1 6q0 4 1 6q0 2 0.5 3t0.5 2l10 20l59 152q1 4 6 9q2 3 8 7
q4 2 10 4z" />
    <glyph glyph-name="two" unicode="2" horiz-adv-x="4097" 
d="M2952 600q9 -8 16 -23q6 -14 6 -30q0 -14 -6 -29q-7 -14 -16 -23q-10 -10 -24 -16t-29 -6q-16 0 -29 6q-14 6 -24 16q-5 5 -9 11t-7 12q-6 15 -6 29q0 16 6 30q6 13 16 23q9 10 24 17q13 6 29 6q15 0 29 -6q15 -7 24 -17zM1109 577q-4 -6 -7 -10q-6 -4 -10 -6t-12 -2h-44
v61h44q6 0 12 -3q5 -1 10 -6q3 -3 7 -9q2 -8 2 -13q0 -4 -2 -12zM1479 600q10 -10 16 -23q6 -14 6 -30q0 -14 -6 -29q-3 -6 -7 -12t-9 -11q-10 -10 -24 -16t-29 -6q-16 0 -29 6q-14 6 -24 16q-9 9 -16 23q-6 15 -6 29q0 16 6 30q7 15 16 23q9 10 24 17q13 6 29 6q15 0 29 -6
q15 -7 24 -17zM1855 616q0 -6 2 -12l37 -84h-78l36 84q1 2 1 2.5t1 2.5q0 2 0.5 3.5t0.5 3.5zM784 610q3 -3 7 -11q3 -8 3 -14q0 -8 -3 -14q-4 -8 -7 -11q-6 -6 -11 -7q-4 -2 -7 -3t-7 -1h-44v71h44q6 0 14 -3q5 -1 11 -7zM3671 1084v-766h-3147v766h1193q0 80 30 151
q16 35 36.5 65t46.5 56q54 52 121 80q70 30 146 30q85 0 152 -32q70 -31 121 -84q26 -26 45.5 -56.5t34.5 -65.5q29 -70 29 -144h1192zM1774 1216q-26 -64 -26 -133q0 -71 27 -134q26 -62 74 -113q46 -47 111 -76q61 -29 137 -29q74 0 136 28q32 14 60 33t52 42t43 51t33 60
q27 64 27 138q0 67 -20 120q-19 53 -56 99q-35 42 -82 74q-24 14 -49.5 25.5t-51.5 19.5q-39 13 -92 13q-73 0 -139 -29q-64 -29 -111 -76q-45 -47 -73 -113zM817 561q5 12 5 24t-5 25q-4 9 -14 19q-8 9 -20 14q-10 5 -24 5h-71v-200h27v74h44q11 0 24 5q11 4 20 13
q10 10 14 21zM966 648h-124v-200h124v27h-96v60h78v28h-78v57h96v28zM1161 448l-63 86q10 3 16 8q9 6 13 13q5 5 9 16q2 5 2 9v9q0 14 -4 23q-2 5 -5.5 9.5t-7.5 9.5q-8 7 -18 12q-9 5 -23 5h-72v-200h28v83h30l52 -71q3 -5 10 -9q4 -3 15 -3h18zM1296 482q5 13 5 25
q0 27 -21 44q-6 4 -9 5q-2 2 -4.5 2.5t-4.5 2.5q-2 1 -5 1.5t-5 2.5q-2 0 -5 1t-5 2q-5 2 -9 3.5t-8 3.5q-9 3 -11 5q-5 5 -6 8q-2 3 -2 10t2 10q4 6 7 8q3 1 11 5q3 1 5.5 1.5t6.5 0.5q2 0 5 -1t5 -2q3 -1 6 -2.5t5 -3.5q6 -3 12 -3q9 0 14 5l7 5l-4.5 4.5l-5.5 5.5
q-3 2 -6 4.5t-7 4.5q-5 4 -15 7q-8 3 -16 3q-12 0 -22 -3q-6 -2 -10.5 -4.5t-9.5 -5.5q-8 -8 -13 -17q-5 -10 -5 -22q0 -15 5 -22q4 -9 12 -15q9 -7 18 -11q5 -2 10 -4.5t10 -4.5q3 -2 6.5 -2.5t7.5 -2.5q10 -4 13 -6q6 -4 10 -10q3 -5 3 -13q0 -9 -4 -14q-2 -6 -9 -11
q-3 -2 -6.5 -3.5t-6.5 -3.5q-5 -1 -8 -1.5t-7 -0.5q-6 0 -14 2q-9 3 -12 8l-3 1q-6 7 -15 7q-6 0 -11 -4l-7 -3q1 -1 1 -2t2 -2q0 -2 1 -3t2 -3t5 -6q3 -5 6 -6q17 -16 45 -16q15 0 27 4q13 5 21 13q10 8 16 19zM1525 520q3 15 3 27q0 14 -3 28q-2 7 -4.5 13t-6.5 12
q-3 5 -7 10l-8 10q-10 8 -22 16q-5 4 -11 6.5t-13 4.5q-14 3 -27 3q-15 0 -27 -3q-7 -2 -13 -4.5t-12 -6.5q-5 -4 -10 -7.5t-10 -8.5q-9 -8 -16 -20q-4 -6 -6.5 -12t-4.5 -13t-3 -13.5t-1 -14.5q0 -21 9 -39q4 -10 9.5 -17.5t12.5 -15.5q13 -13 32 -21q17 -8 40 -8
q8 0 14 0.5t13 2.5t13 4.5t11 6.5q11 5 22 15q4 5 8 10.5t7 10.5q4 6 6.5 12t4.5 12zM1735 648h-28v-156q0 5 -1 8t-3 6l-97 134q-3 4 -8 6q-8 2 -12 2h-20v-200h28v168v-4l2 -4q0 -2 2 -4l114 -156h23v200zM1956 448l-87 200h-27l-88 -200h16q6 0 12 3l4 4t4 5l14 32h102
l14 -32q3 -7 8 -9q3 -3 12 -3h16zM2090 475h-87v173h-27v-200h114v27zM2365 648h-28v-122q0 -12 -4 -21q-2 -5 -4.5 -9t-7.5 -7q-3 -5 -7 -7.5t-9 -4.5q-9 -4 -21 -4t-20 4q-5 2 -9.5 4.5t-7.5 7.5q-7 5 -12 16q-2 5 -3 10t-1 11v122h-27v-122v-11.5t2 -10.5t4 -9.5t4 -9.5
q3 -5 6 -9t8 -7q5 -6 15 -13q11 -5 20 -8q10 -3 21 -3t22 3q5 2 9.5 4t9.5 4q9 6 16 13q4 3 7 7t6 9q2 5 4 9.5t4 9.5q3 10 3 22v122zM2519 482q5 10 5 25q0 29 -21 44q-2 2 -4 3l-4 2l-10 5q-6 2 -10 4q-2 0 -4.5 1t-5.5 2q-5 2 -8.5 3.5t-7.5 3.5t-6.5 2.5t-4.5 2.5
q-6 4 -7 8q-2 6 -2 10q0 5 3 10q4 6 7 8q2 1 4.5 2t5.5 3q8 2 13 2q2 0 4.5 -1t5.5 -2l5 -2.5t6 -3.5q6 -3 12 -3q8 0 13 5l8 5l-10 10q-3 2 -6 4.5t-7 4.5q-3 2 -7 3.5t-8 3.5q-9 3 -16 3q-13 0 -23 -3q-5 -2 -9.5 -4.5t-9.5 -5.5q-4 -4 -7.5 -8t-5.5 -9q-6 -9 -6 -22
q0 -12 5 -22t13 -15q8 -7 17 -11l21 -9q4 -2 7 -2.5t7 -2.5q3 -2 6.5 -3t6.5 -3q6 -5 9 -10q4 -4 4 -13t-4 -14q-2 -5 -10 -11q-5 -4 -13 -7q-10 -2 -14 -2q-7 0 -15 2q-9 3 -12 8l-2 1q-6 7 -16 7q-6 0 -10 -4l-8 -3q1 -1 1.5 -2t1.5 -2l3 -6q4 -4 5 -6q3 -5 7 -6
q17 -16 45 -16q14 0 26 4q12 5 22 13q8 7 15 19zM2683 648h-124v-200h124v27h-97v60h78v28h-78v57h97v28zM2998 520q3 15 3 27q0 14 -3 28q-2 7 -4.5 13t-6.5 12q-7 12 -16 20q-5 5 -10 8.5t-10 7.5q-6 4 -12 6.5t-13 4.5q-12 3 -27 3q-14 0 -27 -3q-7 -2 -13 -4.5t-12 -6.5
q-5 -4 -10.5 -7.5t-10.5 -8.5t-8.5 -10t-7.5 -10q-5 -10 -10 -25q-3 -14 -3 -28q0 -10 1.5 -20t6.5 -19q4 -10 9 -17.5t12 -15.5q15 -14 33 -21q16 -8 40 -8q7 0 14 0.5t13 2.5q7 2 13 4.5t12 6.5q12 7 20 15q5 5 9 10.5t7 10.5q4 6 6.5 12t4.5 12zM3208 648h-28v-156
q-2 9 -5 14l-97 134q-3 5 -8 6q-6 2 -12 2h-20v-200h28v168l2 -4q0 -3 1 -4q0 -2 2 -4l114 -156h23v200zM3371 475h-87v173h-27v-200h114v27zM3530 648h-19q-10 0 -14 -3q-7 -3 -10 -10l-48 -64q1 0 -2 -3q0 -1 -1 -2v-1v3q0 3 -2 3l-47 64q-6 8 -10 10q-8 3 -15 3h-19
l72 -97q1 -1 1.5 -2t1.5 -2q2 -4 3 -5q0 -1 0.5 -2t0.5 -2v-6v-84h28v84q0 2 0.5 3t0.5 3q1 1 1 2t1 2t1 2t2 3q0 1 3 4zM1983 789q-53 21 -97 58h423q-43 -37 -97 -58q-51 -22 -115 -22q-63 0 -114 22zM1922 881l411 415q79 -103 79 -213q0 -57 -18 -108q-17 -49 -53 -94
h-419zM1861 871q-19 22 -33.5 46t-24.5 51q-11 26 -15.5 55t-4.5 60q0 57 18 108q8 26 21.5 48.5t30.5 44.5h419zM2212 1378q55 -23 95 -60h-422q22 20 46.5 34.5t50.5 25.5q27 11 55.5 16t59.5 5q62 0 115 -21zM530 116q-6 8 -10 22q-2 6 -3 12t-1 13q0 6 1 12t3 12
q3 14 10 23q7 12 14 19t19 14q5 3 10.5 5.5t11.5 4.5q12 3 25 3q10 0 19 -2t18 -5q8 -5 15.5 -9.5t13.5 -11.5l-4 -4q0 -1 -1 -1q-1 -1 -2 -1q-2 -2 -4 -2h-5q-6 0 -9 2q-5 3 -9.5 5.5t-9.5 4.5q-11 3 -22 3q-15 0 -28 -5q-15 -7 -23 -16q-9 -8 -16 -23q-6 -14 -6 -28
q0 -10 3 -19t7 -18q3 -5 6 -8t6 -7q4 -3 7.5 -6t7.5 -5q5 -2 9 -3.5t9 -3.5q9 -3 19 -3q12 0 24 3q6 2 11.5 4.5t10.5 5.5v38h-14q-2 0 -3.5 0.5t-3.5 0.5q-2 2 -6 4q-1 2 -2 3t-1 3q-2 4 -2 7v2h51v-71q-5 -7 -14 -11q-8 -4 -15 -5q-5 -2 -9 -2.5t-9 -1.5h-19q-13 0 -25 3
q-11 3 -22 9q-12 7 -19 15q-7 7 -14 19zM742 233v-59h72v-20h-72v-62h90v-20h-111v182h111v-21h-90zM912 72v161h-58v21h137v-21h-58v-161h-21zM1126 233v-63h76v-20h-76v-78h-21v182h111v-21h-90zM1271 254v-112q0 -12 4 -20q2 -5 5 -9l6 -8l8 -6t9 -5q9 -4 20 -4
q12 0 20 4q5 2 9 5l8 6q6 6 11 17q5 10 5 20v112h20v-112q0 -16 -6 -28q-3 -7 -6.5 -12.5t-8.5 -10.5q-9 -9 -23 -16q-15 -5 -29 -5q-13 0 -28 5q-15 7 -23 16q-9 8 -16 23q-3 6 -4 13t-1 15v112h20zM1455 254v-162h81v-20h-102v182h21zM1579 254v-162h81v-20h-101v182h20z
M1826 72l-79 182h11q4 0 10 -3l3.5 -3.5t2.5 -4.5l60 -136q0 -2 0.5 -3t0.5 -3q1 -3 1 -6v6q2 4 2 6q8 17 15 34t15 34t15 34t15 34q2 4 6 8q6 3 10 3h11q-10 -23 -20 -45.5t-20 -45.5t-19.5 -45.5t-19.5 -45.5h-20zM1961 233v-59h73v-20h-73v-62h90v-20h-111v182h111v-21
h-90zM2187 157q-8 -5 -16 -6l59 -79h-12q-9 0 -12 2q-6 3 -9 8l-51 68h-31v-78h-21v182h65q12 0 20 -4q9 -4 17 -11q7 -8 11 -17q4 -8 4 -20q0 -9 -3 -18q-4 -9 -8 -15q-3 -4 -6 -6.5t-7 -5.5zM2159 170q6 0 12 3q3 1 5.5 2.5t4.5 3.5q4 4 7 10l2 6t1 7q0 3 -1 6l-2 6
q-3 6 -7 10t-10 7q-8 2 -12 2h-44v-63h44zM2326 98q6 4 9 11q4 5 4 14t-3 15t-9 9q-4 4 -12 7q-4 1 -14 5q-5 2 -9.5 4t-9.5 4q-11 3 -16 9q-6 4 -11 13q-3 7 -3 20q0 11 5 19q3 9 12 15q4 3 8 5.5t9 4.5q9 3 19 3q5 0 15 -2q5 -2 13 -6q3 -2 5.5 -4t4.5 -4q3 -2 5 -4l4 -4
l-5 -4q-4 -4 -10 -4q-4 0 -10 2q-2 2 -3 2.5t-2 1.5q-2 1 -2.5 1.5t-2.5 1.5q-2 0 -3 0.5t-3 0.5q-2 1 -6 1q-5 0 -13 -2q-4 -1 -10 -5q-6 -6 -7 -9q-3 -5 -3 -10q0 -8 2 -11q1 -4 6 -7q6 -4 11 -6q4 -2 8 -3t9 -3q3 -2 9 -4t9 -4q6 -2 9 -4q2 -1 3.5 -2t3.5 -2q8 -8 14 -17
q2 -5 3 -10.5t1 -12.5q0 -10 -5 -22q-4 -8 -13 -17q-8 -7 -20 -10q-9 -4 -23 -4q-26 0 -40 14q-3 2 -5.5 5t-4.5 5q-4 6 -4 8l4 2q2 2 4 2q1 1 4 1q8 0 13 -5q6 -7 14 -9q7 -3 15 -3q4 0 7 0.5t7 1.5q7 1 13 6zM2421 254v-182h-21v182h21zM2491 97q-13 12 -20 29
q-8 19 -8 37q0 6 1 12t3 12q3 13 9 23q4 5 7 9.5t8 9.5q5 4 9.5 7.5t9.5 6.5q11 7 22 10q12 3 25 3t25 -3q6 -2 11.5 -4.5t10.5 -5.5t9.5 -6.5t9.5 -7.5q5 -5 8 -9.5t6 -9.5t5.5 -11t4.5 -12q3 -12 3 -24q0 -20 -7 -37q-8 -17 -20 -29q-14 -14 -30 -20q-15 -7 -36 -7
q-20 0 -37 7q-17 6 -29 20zM2490 191q-6 -14 -6 -28q0 -10 3 -19t7 -18q2 -5 5 -8t6 -7q4 -3 7.5 -6t7.5 -5q5 -2 9 -3.5t9 -3.5q7 -3 19 -3q10 0 19 3q5 2 9 3.5t9 3.5q7 4 14 11t11 15q5 7 8 18q2 5 2 9.5v9.5q0 14 -6 28q-5 14 -15 23q-8 9 -23 16q-13 5 -28 5
q-8 0 -14.5 -1.5t-14.5 -3.5q-14 -7 -23 -16t-15 -23zM2704 72h-20v182h14q12 0 16 -7l94 -132q2 -2 2 -3t1 -3t1 -5v150h21v-182h-19l-107 150l-1 2q-1 1 -1 3t-1 3v-158zM2986 233v-63h76v-20h-76v-78h-20v182h111v-21h-91zM3204 169q-2 -4 -5 -6.5t-7 -5.5q-8 -5 -16 -6
l59 -79h-12q-9 0 -13 2q-5 3 -8 8l-50 68h-33v-78h-20v182h64q12 0 21 -4t16 -11t12 -17q2 -5 3 -10t1 -10q0 -9 -3 -18q-4 -10 -9 -15zM3176 173q3 1 5.5 2.5t4.5 3.5q5 5 6 10q3 6 3 13q0 6 -3 12q-1 5 -6 10q-4 4 -10 7q-8 2 -13 2h-44v-63h44q7 0 13 3zM3413 97
q-14 -14 -30 -20q-15 -7 -37 -7q-9 0 -18.5 1.5t-17.5 5.5q-17 6 -29 20q-7 6 -11.5 13.5t-8.5 15.5q-8 19 -8 37q0 6 1 12t3 12q3 14 10 23q4 9 14 19q7 7 19 14q5 3 10.5 5.5t11.5 4.5q12 3 24 3q14 0 26 -3q6 -2 11 -4.5t10 -5.5q6 -3 10.5 -6.5t9.5 -7.5q5 -5 8 -9.5
t6 -9.5q6 -10 9 -23q4 -11 4 -24q0 -21 -8 -37q-6 -16 -19 -29zM3346 90q11 0 20 3q5 2 9 3.5t8 3.5q5 2 8 5t7 6q7 7 11 15q5 7 8 18q2 5 2 9.5v9.5q0 13 -5 28q-7 15 -16 23q-9 9 -23 16q-15 5 -29 5q-13 0 -28 -5q-13 -6 -22 -16q-9 -8 -16 -23q-6 -14 -6 -28
q0 -5 0.5 -9.5t1.5 -9.5q2 -5 4 -9t4 -9t5 -8l7 -7q6 -7 14 -11q4 -2 8 -3.5t9 -3.5q9 -3 19 -3zM3645 251q4 3 9 3h17v-182h-20v151q0 -1 -1 -1q0 -2 -1 -3v-3q0 -1 -1 -2q-5 -11 -9 -20.5t-8 -19.5q-5 -10 -9 -18.5t-7 -17.5q-4 -9 -8 -17.5t-7 -16.5q-4 -8 -7.5 -16
t-7.5 -16h-21q-8 17 -15.5 35t-15.5 35l-16 36l-16 36q-1 1 -1 4q-1 2 -1 4v-150h-20v182h16q4 0 9 -3q6 -3 6 -8l63 -141q0 -3 1 -4t1 -4q0 3 2 11q2 2 2.5 4.5t2.5 5.5l57 128q1 5 6 8zM524 0h210v-23q0 -10 -1 -14q-3 -8 -6 -12l-141 -189l4 2l4 2q1 0 1.5 0.5t2.5 0.5
h135v-50h-217v16q0 5 2 13t4 13q2 3 3 5.5t3 5.5q5 5 8 11l125 169h-137v50zM769 0h182v-50h-130v-65h105v-50h-105v-68h130v-50h-182v283zM1179 -50h-83v-233h-52v233h-83v50h218v-50zM1307 0l123 -283h-32q-11 0 -20 6q-7 5 -14 15l-16 39h-129l-17 -39q-2 -5 -5 -8
q-2 -3 -8 -7t-10 -4q-3 -2 -10 -2h-33l124 283h47zM1325 -172l-37 86q-2 3 -2.5 6t-1.5 5q0 6 -1 8q0 -5 -1 -8q0 -2 -1 -5l-2 -6l-37 -86h83zM1442 0h181v-50h-130v-71h109v-50h-109v-112h-51v283zM1910 -69q5 -8 8.5 -16.5t5.5 -18.5q3 -8 4 -18t1 -20t-1 -19.5t-4 -18.5
q-4 -17 -14 -35q-9 -15 -23 -29q-6 -6 -13.5 -11.5t-15.5 -10.5t-16.5 -8.5t-17.5 -6.5q-10 -2 -19 -3.5t-20 -1.5q-29 0 -56 11q-27 12 -46 31q-10 11 -18 22t-13 24q-11 25 -11 56q0 10 1 20t3 18q5 17 15 35q5 8 10.5 15t12.5 15q14 12 29 22q17 9 34 15q17 4 39 4t39 -4
q17 -6 34 -15q8 -5 15.5 -10.5t13.5 -11.5q7 -8 12.5 -15t10.5 -15zM1871 -178q3 9 5 18t2 18q0 17 -7 36q-4 9 -9 16t-11 14q-15 14 -30 19q-18 8 -36 8t-36 -8q-16 -6 -29 -19q-12 -12 -21 -30q-7 -19 -7 -36q0 -9 2 -18t5 -18q5 -8 9.5 -15.5t11.5 -13.5q12 -13 29 -20
q15 -7 36 -7t36 7t30 20q12 12 20 29zM2166 0h52v-283h-48l-135 189q-3 2 -4 7q-2 2 -3 3.5t-2 3.5t-2 3.5t-2 3.5l-3 6v-216h-52v283h46q10 0 16 -3q8 -3 11 -9q15 -20 30 -41t29 -42l30 -42t29 -41q4 -6 6 -12q2 -8 2 -9v199zM2242 0h218v-50h-83v-233h-52v233h-83v50z
M2639 -145q8 -8 13 -23q5 -13 5 -28q0 -18 -8 -36q-9 -17 -22 -29q-15 -12 -33 -18q-9 -3 -18.5 -5t-18.5 -2q-11 0 -20.5 2t-19.5 5q-9 5 -16.5 9.5t-15.5 11.5q-5 5 -8 9t-6 9t-4.5 8.5t-3.5 7.5q2 1 3.5 2t3.5 2t3.5 2t3.5 2q6 2 8 3q2 0 4.5 0.5t4.5 0.5q6 0 12 -3
q8 -2 13 -4q9 -7 17 -10q8 -5 21 -5q3 0 7 0.5t9 1.5q4 2 8 3.5t7 3.5q9 6 12 13q6 7 6 17q0 7 -5 14q-4 5 -12 10q-6 4 -16 7q-5 2 -9 4t-9 4q-13 4 -29 11q-8 3 -14 7t-12 9q-12 10 -17 22q-7 13 -7 32q0 10 2 18t5 16q5 7 9.5 12.5t10.5 10.5q13 10 29 16q13 4 32 4
q13 0 24 -4q6 -2 11.5 -4.5t10.5 -5.5t9.5 -7t9.5 -8q10 -8 15 -16l-10 -8q-7 -5 -14 -8q-5 -2 -8 -2h-7h-3h-4q-6 2 -10 4q-6 2 -8 4q-2 0 -4 1t-4 1q-6 2 -8 2q-4 0 -7 -0.5t-7 -1.5q-5 -1 -11 -5q-6 -3 -9 -8q-2 -3 -2 -11t2 -11t4.5 -5t4.5 -4q6 -4 16 -7q5 -2 11 -4
t13 -4l9 -3q18 -6 29 -14q14 -9 22 -18zM2726 -233q5 -5 6 -10q3 -5 3 -12q0 -8 -3 -12q-1 -5 -6 -10q-4 -4 -10 -6q-6 -3 -13 -3t-11 3q-7 2 -11 6t-7 10q-2 6 -2 12t2 12q3 6 7 10t11 6q4 3 11 3t13 -3q6 -2 10 -6zM2833 -76q-13 -13 -20 -30q-8 -18 -8 -36q0 -17 8 -36
q4 -8 8.5 -15.5t11.5 -13.5t14 -11t16 -9q15 -7 35 -7q8 0 15 1t13 3q14 5 25 13q6 2 9 4q3 1 10 1q10 0 16 -3q8 -4 12 -8l11 -11q-12 -14 -23 -22q-7 -5 -13.5 -8.5t-13.5 -7.5q-13 -7 -30 -10q-12 -4 -31 -4q-28 0 -56 11q-27 12 -46 31q-19 20 -31 46q-11 28 -11 56
q0 20 5 38q2 10 5.5 18.5t8.5 16.5q10 15 23 30q7 6 14 11.5t16 10.5q16 9 34 15q17 4 38 4q8 0 16 -0.5t15 -2.5q8 -2 15 -4.5t15 -5.5q7 -4 13.5 -8t13.5 -9q13 -10 23 -21l-11 -12q-4 -4 -12 -8q-8 -3 -16 -3q-10 0 -19 6q-13 8 -25 12q-13 5 -28 5q-17 0 -35 -8
q-9 -3 -16 -8t-14 -11zM3298 -69q5 -8 8.5 -16.5t5.5 -18.5q3 -8 4 -18t1 -20t-1 -19.5t-4 -18.5q-4 -17 -14 -35q-9 -15 -23 -29q-7 -6 -14 -11.5t-16 -10.5q-8 -5 -16 -8.5t-18 -6.5q-20 -5 -38 -5q-29 0 -57 11q-13 6 -24.5 13.5t-20.5 17.5q-10 11 -18 22t-13 24
q-12 27 -12 56q0 20 5 38q5 17 15 35q5 8 10.5 15t12.5 15q6 6 13.5 11.5t15.5 10.5q17 9 34 15q17 4 39 4t38 -4q18 -6 34 -15q9 -5 16 -10.5t14 -11.5q7 -8 12.5 -15t10.5 -15zM3259 -178q3 9 5 18t2 18q0 17 -7 36q-9 17 -20 30q-15 14 -30 19q-18 8 -36 8t-36 -8
q-15 -5 -30 -19q-6 -7 -11 -14t-9 -16q-7 -15 -7 -36q0 -19 7 -36t20 -29q15 -13 30 -20t36 -7t36 7t30 20q6 6 10.5 13.5t9.5 15.5zM3609 -2q6 2 10 2h52v-283h-52v207q-3 -5 -4 -14q-2 -4 -2.5 -7.5t-2.5 -6.5q-9 -23 -18 -45t-19 -44q-9 -23 -18 -45t-19 -45h-47l-74 179
q-2 3 -3 6t-2 8q-1 3 -2 6.5t-2 5.5v-205h-52v283h51q4 0 12 -2q6 -2 9 -4q5 -3 8 -8q2 -2 6 -8q8 -22 16.5 -43.5t17.5 -42.5q8 -22 17 -43t17 -43q2 -2 2 -5q0 -2 0.5 -3t0.5 -3q1 -2 1 -6v-3q0 2 1 3q0 4 1 6q0 4 1 6q0 2 0.5 3t0.5 2l10 20l59 152q1 4 6 9q2 3 8 7
q4 2 10 4z" />
    <glyph glyph-name="three" unicode="3" horiz-adv-x="4097" 
d="M2952 600q9 -8 16 -23q6 -14 6 -30q0 -14 -6 -29q-7 -14 -16 -23q-10 -10 -24 -16t-29 -6q-16 0 -29 6q-14 6 -24 16q-5 5 -9 11t-7 12q-6 15 -6 29q0 16 6 30q6 13 16 23q9 10 24 17q13 6 29 6q15 0 29 -6q15 -7 24 -17zM1109 577q-4 -6 -7 -10q-6 -4 -10 -6t-12 -2h-44
v61h44q6 0 12 -3q5 -1 10 -6q3 -3 7 -9q2 -8 2 -13q0 -4 -2 -12zM1479 600q10 -10 16 -23q6 -14 6 -30q0 -14 -6 -29q-3 -6 -7 -12t-9 -11q-10 -10 -24 -16t-29 -6q-16 0 -29 6q-14 6 -24 16q-9 9 -16 23q-6 15 -6 29q0 16 6 30q7 15 16 23q9 10 24 17q13 6 29 6q15 0 29 -6
q15 -7 24 -17zM1855 616q0 -6 2 -12l37 -84h-78l36 84q1 2 1 2.5t1 2.5q0 2 0.5 3.5t0.5 3.5zM784 610q3 -3 7 -11q3 -8 3 -14q0 -8 -3 -14q-4 -8 -7 -11q-6 -6 -11 -7q-4 -2 -7 -3t-7 -1h-44v71h44q6 0 14 -3q5 -1 11 -7zM3671 1084v-766h-3147v766h1193q0 80 30 151
q16 35 36.5 65t46.5 56q54 52 121 80q70 30 146 30q85 0 152 -32q70 -31 121 -84q26 -26 45.5 -56.5t34.5 -65.5q29 -70 29 -144h1192zM1774 1216q-26 -64 -26 -133q0 -71 27 -134q26 -62 74 -113q46 -47 111 -76q61 -29 137 -29q74 0 136 28q32 14 60 33t52 42t43 51t33 60
q27 64 27 138q0 67 -20 120q-19 53 -56 99q-35 42 -82 74q-24 14 -49.5 25.5t-51.5 19.5q-39 13 -92 13q-73 0 -139 -29q-64 -29 -111 -76q-45 -47 -73 -113zM817 561q5 12 5 24t-5 25q-4 9 -14 19q-8 9 -20 14q-10 5 -24 5h-71v-200h27v74h44q11 0 24 5q11 4 20 13
q10 10 14 21zM966 648h-124v-200h124v27h-96v60h78v28h-78v57h96v28zM1161 448l-63 86q10 3 16 8q9 6 13 13q5 5 9 16q2 5 2 9v9q0 14 -4 23q-2 5 -5.5 9.5t-7.5 9.5q-8 7 -18 12q-9 5 -23 5h-72v-200h28v83h30l52 -71q3 -5 10 -9q4 -3 15 -3h18zM1296 482q5 13 5 25
q0 27 -21 44q-6 4 -9 5q-2 2 -4.5 2.5t-4.5 2.5q-2 1 -5 1.5t-5 2.5q-2 0 -5 1t-5 2q-5 2 -9 3.5t-8 3.5q-9 3 -11 5q-5 5 -6 8q-2 3 -2 10t2 10q4 6 7 8q3 1 11 5q3 1 5.5 1.5t6.5 0.5q2 0 5 -1t5 -2q3 -1 6 -2.5t5 -3.5q6 -3 12 -3q9 0 14 5l7 5l-4.5 4.5l-5.5 5.5
q-3 2 -6 4.5t-7 4.5q-5 4 -15 7q-8 3 -16 3q-12 0 -22 -3q-6 -2 -10.5 -4.5t-9.5 -5.5q-8 -8 -13 -17q-5 -10 -5 -22q0 -15 5 -22q4 -9 12 -15q9 -7 18 -11q5 -2 10 -4.5t10 -4.5q3 -2 6.5 -2.5t7.5 -2.5q10 -4 13 -6q6 -4 10 -10q3 -5 3 -13q0 -9 -4 -14q-2 -6 -9 -11
q-3 -2 -6.5 -3.5t-6.5 -3.5q-5 -1 -8 -1.5t-7 -0.5q-6 0 -14 2q-9 3 -12 8l-3 1q-6 7 -15 7q-6 0 -11 -4l-7 -3q1 -1 1 -2t2 -2q0 -2 1 -3t2 -3t5 -6q3 -5 6 -6q17 -16 45 -16q15 0 27 4q13 5 21 13q10 8 16 19zM1525 520q3 15 3 27q0 14 -3 28q-2 7 -4.5 13t-6.5 12
q-3 5 -7 10l-8 10q-10 8 -22 16q-5 4 -11 6.5t-13 4.5q-14 3 -27 3q-15 0 -27 -3q-7 -2 -13 -4.5t-12 -6.5q-5 -4 -10 -7.5t-10 -8.5q-9 -8 -16 -20q-4 -6 -6.5 -12t-4.5 -13t-3 -13.5t-1 -14.5q0 -21 9 -39q4 -10 9.5 -17.5t12.5 -15.5q13 -13 32 -21q17 -8 40 -8
q8 0 14 0.5t13 2.5t13 4.5t11 6.5q11 5 22 15q4 5 8 10.5t7 10.5q4 6 6.5 12t4.5 12zM1735 648h-28v-156q0 5 -1 8t-3 6l-97 134q-3 4 -8 6q-8 2 -12 2h-20v-200h28v168v-4l2 -4q0 -2 2 -4l114 -156h23v200zM1956 448l-87 200h-27l-88 -200h16q6 0 12 3l4 4t4 5l14 32h102
l14 -32q3 -7 8 -9q3 -3 12 -3h16zM2090 475h-87v173h-27v-200h114v27zM2365 648h-28v-122q0 -12 -4 -21q-2 -5 -4.5 -9t-7.5 -7q-3 -5 -7 -7.5t-9 -4.5q-9 -4 -21 -4t-20 4q-5 2 -9.5 4.5t-7.5 7.5q-7 5 -12 16q-2 5 -3 10t-1 11v122h-27v-122v-11.5t2 -10.5t4 -9.5t4 -9.5
q3 -5 6 -9t8 -7q5 -6 15 -13q11 -5 20 -8q10 -3 21 -3t22 3q5 2 9.5 4t9.5 4q9 6 16 13q4 3 7 7t6 9q2 5 4 9.5t4 9.5q3 10 3 22v122zM2519 482q5 10 5 25q0 29 -21 44q-2 2 -4 3l-4 2l-10 5q-6 2 -10 4q-2 0 -4.5 1t-5.5 2q-5 2 -8.5 3.5t-7.5 3.5t-6.5 2.5t-4.5 2.5
q-6 4 -7 8q-2 6 -2 10q0 5 3 10q4 6 7 8q2 1 4.5 2t5.5 3q8 2 13 2q2 0 4.5 -1t5.5 -2l5 -2.5t6 -3.5q6 -3 12 -3q8 0 13 5l8 5l-10 10q-3 2 -6 4.5t-7 4.5q-3 2 -7 3.5t-8 3.5q-9 3 -16 3q-13 0 -23 -3q-5 -2 -9.5 -4.5t-9.5 -5.5q-4 -4 -7.5 -8t-5.5 -9q-6 -9 -6 -22
q0 -12 5 -22t13 -15q8 -7 17 -11l21 -9q4 -2 7 -2.5t7 -2.5q3 -2 6.5 -3t6.5 -3q6 -5 9 -10q4 -4 4 -13t-4 -14q-2 -5 -10 -11q-5 -4 -13 -7q-10 -2 -14 -2q-7 0 -15 2q-9 3 -12 8l-2 1q-6 7 -16 7q-6 0 -10 -4l-8 -3q1 -1 1.5 -2t1.5 -2l3 -6q4 -4 5 -6q3 -5 7 -6
q17 -16 45 -16q14 0 26 4q12 5 22 13q8 7 15 19zM2683 648h-124v-200h124v27h-97v60h78v28h-78v57h97v28zM2998 520q3 15 3 27q0 14 -3 28q-2 7 -4.5 13t-6.5 12q-7 12 -16 20q-5 5 -10 8.5t-10 7.5q-6 4 -12 6.5t-13 4.5q-12 3 -27 3q-14 0 -27 -3q-7 -2 -13 -4.5t-12 -6.5
q-5 -4 -10.5 -7.5t-10.5 -8.5t-8.5 -10t-7.5 -10q-5 -10 -10 -25q-3 -14 -3 -28q0 -10 1.5 -20t6.5 -19q4 -10 9 -17.5t12 -15.5q15 -14 33 -21q16 -8 40 -8q7 0 14 0.5t13 2.5q7 2 13 4.5t12 6.5q12 7 20 15q5 5 9 10.5t7 10.5q4 6 6.5 12t4.5 12zM3208 648h-28v-156
q-2 9 -5 14l-97 134q-3 5 -8 6q-6 2 -12 2h-20v-200h28v168l2 -4q0 -3 1 -4q0 -2 2 -4l114 -156h23v200zM3371 475h-87v173h-27v-200h114v27zM3530 648h-19q-10 0 -14 -3q-7 -3 -10 -10l-48 -64q1 0 -2 -3q0 -1 -1 -2v-1v3q0 3 -2 3l-47 64q-6 8 -10 10q-8 3 -15 3h-19
l72 -97q1 -1 1.5 -2t1.5 -2q2 -4 3 -5q0 -1 0.5 -2t0.5 -2v-6v-84h28v84q0 2 0.5 3t0.5 3q1 1 1 2t1 2t1 2t2 3q0 1 3 4zM1983 789q-53 21 -97 58h423q-43 -37 -97 -58q-51 -22 -115 -22q-63 0 -114 22zM1922 881l411 415q79 -103 79 -213q0 -57 -18 -108q-17 -49 -53 -94
h-419zM1861 871q-19 22 -33.5 46t-24.5 51q-11 26 -15.5 55t-4.5 60q0 57 18 108q8 26 21.5 48.5t30.5 44.5h419zM2212 1378q55 -23 95 -60h-422q22 20 46.5 34.5t50.5 25.5q27 11 55.5 16t59.5 5q62 0 115 -21zM530 116q-6 8 -10 22q-2 6 -3 12t-1 13q0 6 1 12t3 12
q3 14 10 23q7 12 14 19t19 14q5 3 10.5 5.5t11.5 4.5q12 3 25 3q10 0 19 -2t18 -5q8 -5 15.5 -9.5t13.5 -11.5l-4 -4q0 -1 -1 -1q-1 -1 -2 -1q-2 -2 -4 -2h-5q-6 0 -9 2q-5 3 -9.5 5.5t-9.5 4.5q-11 3 -22 3q-15 0 -28 -5q-15 -7 -23 -16q-9 -8 -16 -23q-6 -14 -6 -28
q0 -10 3 -19t7 -18q3 -5 6 -8t6 -7q4 -3 7.5 -6t7.5 -5q5 -2 9 -3.5t9 -3.5q9 -3 19 -3q12 0 24 3q6 2 11.5 4.5t10.5 5.5v38h-14q-2 0 -3.5 0.5t-3.5 0.5q-2 2 -6 4q-1 2 -2 3t-1 3q-2 4 -2 7v2h51v-71q-5 -7 -14 -11q-8 -4 -15 -5q-5 -2 -9 -2.5t-9 -1.5h-19q-13 0 -25 3
q-11 3 -22 9q-12 7 -19 15q-7 7 -14 19zM742 233v-59h72v-20h-72v-62h90v-20h-111v182h111v-21h-90zM912 72v161h-58v21h137v-21h-58v-161h-21zM1126 233v-63h76v-20h-76v-78h-21v182h111v-21h-90zM1271 254v-112q0 -12 4 -20q2 -5 5 -9l6 -8l8 -6t9 -5q9 -4 20 -4
q12 0 20 4q5 2 9 5l8 6q6 6 11 17q5 10 5 20v112h20v-112q0 -16 -6 -28q-3 -7 -6.5 -12.5t-8.5 -10.5q-9 -9 -23 -16q-15 -5 -29 -5q-13 0 -28 5q-15 7 -23 16q-9 8 -16 23q-3 6 -4 13t-1 15v112h20zM1455 254v-162h81v-20h-102v182h21zM1579 254v-162h81v-20h-101v182h20z
M1826 72l-79 182h11q4 0 10 -3l3.5 -3.5t2.5 -4.5l60 -136q0 -2 0.5 -3t0.5 -3q1 -3 1 -6v6q2 4 2 6q8 17 15 34t15 34t15 34t15 34q2 4 6 8q6 3 10 3h11q-10 -23 -20 -45.5t-20 -45.5t-19.5 -45.5t-19.5 -45.5h-20zM1961 233v-59h73v-20h-73v-62h90v-20h-111v182h111v-21
h-90zM2187 157q-8 -5 -16 -6l59 -79h-12q-9 0 -12 2q-6 3 -9 8l-51 68h-31v-78h-21v182h65q12 0 20 -4q9 -4 17 -11q7 -8 11 -17q4 -8 4 -20q0 -9 -3 -18q-4 -9 -8 -15q-3 -4 -6 -6.5t-7 -5.5zM2159 170q6 0 12 3q3 1 5.5 2.5t4.5 3.5q4 4 7 10l2 6t1 7q0 3 -1 6l-2 6
q-3 6 -7 10t-10 7q-8 2 -12 2h-44v-63h44zM2326 98q6 4 9 11q4 5 4 14t-3 15t-9 9q-4 4 -12 7q-4 1 -14 5q-5 2 -9.5 4t-9.5 4q-11 3 -16 9q-6 4 -11 13q-3 7 -3 20q0 11 5 19q3 9 12 15q4 3 8 5.5t9 4.5q9 3 19 3q5 0 15 -2q5 -2 13 -6q3 -2 5.5 -4t4.5 -4q3 -2 5 -4l4 -4
l-5 -4q-4 -4 -10 -4q-4 0 -10 2q-2 2 -3 2.5t-2 1.5q-2 1 -2.5 1.5t-2.5 1.5q-2 0 -3 0.5t-3 0.5q-2 1 -6 1q-5 0 -13 -2q-4 -1 -10 -5q-6 -6 -7 -9q-3 -5 -3 -10q0 -8 2 -11q1 -4 6 -7q6 -4 11 -6q4 -2 8 -3t9 -3q3 -2 9 -4t9 -4q6 -2 9 -4q2 -1 3.5 -2t3.5 -2q8 -8 14 -17
q2 -5 3 -10.5t1 -12.5q0 -10 -5 -22q-4 -8 -13 -17q-8 -7 -20 -10q-9 -4 -23 -4q-26 0 -40 14q-3 2 -5.5 5t-4.5 5q-4 6 -4 8l4 2q2 2 4 2q1 1 4 1q8 0 13 -5q6 -7 14 -9q7 -3 15 -3q4 0 7 0.5t7 1.5q7 1 13 6zM2421 254v-182h-21v182h21zM2491 97q-13 12 -20 29
q-8 19 -8 37q0 6 1 12t3 12q3 13 9 23q4 5 7 9.5t8 9.5q5 4 9.5 7.5t9.5 6.5q11 7 22 10q12 3 25 3t25 -3q6 -2 11.5 -4.5t10.5 -5.5t9.5 -6.5t9.5 -7.5q5 -5 8 -9.5t6 -9.5t5.5 -11t4.5 -12q3 -12 3 -24q0 -20 -7 -37q-8 -17 -20 -29q-14 -14 -30 -20q-15 -7 -36 -7
q-20 0 -37 7q-17 6 -29 20zM2490 191q-6 -14 -6 -28q0 -10 3 -19t7 -18q2 -5 5 -8t6 -7q4 -3 7.5 -6t7.5 -5q5 -2 9 -3.5t9 -3.5q7 -3 19 -3q10 0 19 3q5 2 9 3.5t9 3.5q7 4 14 11t11 15q5 7 8 18q2 5 2 9.5v9.5q0 14 -6 28q-5 14 -15 23q-8 9 -23 16q-13 5 -28 5
q-8 0 -14.5 -1.5t-14.5 -3.5q-14 -7 -23 -16t-15 -23zM2704 72h-20v182h14q12 0 16 -7l94 -132q2 -2 2 -3t1 -3t1 -5v150h21v-182h-19l-107 150l-1 2q-1 1 -1 3t-1 3v-158zM2986 233v-63h76v-20h-76v-78h-20v182h111v-21h-91zM3204 169q-2 -4 -5 -6.5t-7 -5.5q-8 -5 -16 -6
l59 -79h-12q-9 0 -13 2q-5 3 -8 8l-50 68h-33v-78h-20v182h64q12 0 21 -4t16 -11t12 -17q2 -5 3 -10t1 -10q0 -9 -3 -18q-4 -10 -9 -15zM3176 173q3 1 5.5 2.5t4.5 3.5q5 5 6 10q3 6 3 13q0 6 -3 12q-1 5 -6 10q-4 4 -10 7q-8 2 -13 2h-44v-63h44q7 0 13 3zM3413 97
q-14 -14 -30 -20q-15 -7 -37 -7q-9 0 -18.5 1.5t-17.5 5.5q-17 6 -29 20q-7 6 -11.5 13.5t-8.5 15.5q-8 19 -8 37q0 6 1 12t3 12q3 14 10 23q4 9 14 19q7 7 19 14q5 3 10.5 5.5t11.5 4.5q12 3 24 3q14 0 26 -3q6 -2 11 -4.5t10 -5.5q6 -3 10.5 -6.5t9.5 -7.5q5 -5 8 -9.5
t6 -9.5q6 -10 9 -23q4 -11 4 -24q0 -21 -8 -37q-6 -16 -19 -29zM3346 90q11 0 20 3q5 2 9 3.5t8 3.5q5 2 8 5t7 6q7 7 11 15q5 7 8 18q2 5 2 9.5v9.5q0 13 -5 28q-7 15 -16 23q-9 9 -23 16q-15 5 -29 5q-13 0 -28 -5q-13 -6 -22 -16q-9 -8 -16 -23q-6 -14 -6 -28
q0 -5 0.5 -9.5t1.5 -9.5q2 -5 4 -9t4 -9t5 -8l7 -7q6 -7 14 -11q4 -2 8 -3.5t9 -3.5q9 -3 19 -3zM3645 251q4 3 9 3h17v-182h-20v151q0 -1 -1 -1q0 -2 -1 -3v-3q0 -1 -1 -2q-5 -11 -9 -20.5t-8 -19.5q-5 -10 -9 -18.5t-7 -17.5q-4 -9 -8 -17.5t-7 -16.5q-4 -8 -7.5 -16
t-7.5 -16h-21q-8 17 -15.5 35t-15.5 35l-16 36l-16 36q-1 1 -1 4q-1 2 -1 4v-150h-20v182h16q4 0 9 -3q6 -3 6 -8l63 -141q0 -3 1 -4t1 -4q0 3 2 11q2 2 2.5 4.5t2.5 5.5l57 128q1 5 6 8zM524 0h210v-23q0 -10 -1 -14q-3 -8 -6 -12l-141 -189l4 2l4 2q1 0 1.5 0.5t2.5 0.5
h135v-50h-217v16q0 5 2 13t4 13q2 3 3 5.5t3 5.5q5 5 8 11l125 169h-137v50zM769 0h182v-50h-130v-65h105v-50h-105v-68h130v-50h-182v283zM1179 -50h-83v-233h-52v233h-83v50h218v-50zM1307 0l123 -283h-32q-11 0 -20 6q-7 5 -14 15l-16 39h-129l-17 -39q-2 -5 -5 -8
q-2 -3 -8 -7t-10 -4q-3 -2 -10 -2h-33l124 283h47zM1325 -172l-37 86q-2 3 -2.5 6t-1.5 5q0 6 -1 8q0 -5 -1 -8q0 -2 -1 -5l-2 -6l-37 -86h83zM1442 0h181v-50h-130v-71h109v-50h-109v-112h-51v283zM1910 -69q5 -8 8.5 -16.5t5.5 -18.5q3 -8 4 -18t1 -20t-1 -19.5t-4 -18.5
q-4 -17 -14 -35q-9 -15 -23 -29q-6 -6 -13.5 -11.5t-15.5 -10.5t-16.5 -8.5t-17.5 -6.5q-10 -2 -19 -3.5t-20 -1.5q-29 0 -56 11q-27 12 -46 31q-10 11 -18 22t-13 24q-11 25 -11 56q0 10 1 20t3 18q5 17 15 35q5 8 10.5 15t12.5 15q14 12 29 22q17 9 34 15q17 4 39 4t39 -4
q17 -6 34 -15q8 -5 15.5 -10.5t13.5 -11.5q7 -8 12.5 -15t10.5 -15zM1871 -178q3 9 5 18t2 18q0 17 -7 36q-4 9 -9 16t-11 14q-15 14 -30 19q-18 8 -36 8t-36 -8q-16 -6 -29 -19q-12 -12 -21 -30q-7 -19 -7 -36q0 -9 2 -18t5 -18q5 -8 9.5 -15.5t11.5 -13.5q12 -13 29 -20
q15 -7 36 -7t36 7t30 20q12 12 20 29zM2166 0h52v-283h-48l-135 189q-3 2 -4 7q-2 2 -3 3.5t-2 3.5t-2 3.5t-2 3.5l-3 6v-216h-52v283h46q10 0 16 -3q8 -3 11 -9q15 -20 30 -41t29 -42l30 -42t29 -41q4 -6 6 -12q2 -8 2 -9v199zM2242 0h218v-50h-83v-233h-52v233h-83v50z
M2639 -145q8 -8 13 -23q5 -13 5 -28q0 -18 -8 -36q-9 -17 -22 -29q-15 -12 -33 -18q-9 -3 -18.5 -5t-18.5 -2q-11 0 -20.5 2t-19.5 5q-9 5 -16.5 9.5t-15.5 11.5q-5 5 -8 9t-6 9t-4.5 8.5t-3.5 7.5q2 1 3.5 2t3.5 2t3.5 2t3.5 2q6 2 8 3q2 0 4.5 0.5t4.5 0.5q6 0 12 -3
q8 -2 13 -4q9 -7 17 -10q8 -5 21 -5q3 0 7 0.5t9 1.5q4 2 8 3.5t7 3.5q9 6 12 13q6 7 6 17q0 7 -5 14q-4 5 -12 10q-6 4 -16 7q-5 2 -9 4t-9 4q-13 4 -29 11q-8 3 -14 7t-12 9q-12 10 -17 22q-7 13 -7 32q0 10 2 18t5 16q5 7 9.5 12.5t10.5 10.5q13 10 29 16q13 4 32 4
q13 0 24 -4q6 -2 11.5 -4.5t10.5 -5.5t9.5 -7t9.5 -8q10 -8 15 -16l-10 -8q-7 -5 -14 -8q-5 -2 -8 -2h-7h-3h-4q-6 2 -10 4q-6 2 -8 4q-2 0 -4 1t-4 1q-6 2 -8 2q-4 0 -7 -0.5t-7 -1.5q-5 -1 -11 -5q-6 -3 -9 -8q-2 -3 -2 -11t2 -11t4.5 -5t4.5 -4q6 -4 16 -7q5 -2 11 -4
t13 -4l9 -3q18 -6 29 -14q14 -9 22 -18zM2726 -233q5 -5 6 -10q3 -5 3 -12q0 -8 -3 -12q-1 -5 -6 -10q-4 -4 -10 -6q-6 -3 -13 -3t-11 3q-7 2 -11 6t-7 10q-2 6 -2 12t2 12q3 6 7 10t11 6q4 3 11 3t13 -3q6 -2 10 -6zM2833 -76q-13 -13 -20 -30q-8 -18 -8 -36q0 -17 8 -36
q4 -8 8.5 -15.5t11.5 -13.5t14 -11t16 -9q15 -7 35 -7q8 0 15 1t13 3q14 5 25 13q6 2 9 4q3 1 10 1q10 0 16 -3q8 -4 12 -8l11 -11q-12 -14 -23 -22q-7 -5 -13.5 -8.5t-13.5 -7.5q-13 -7 -30 -10q-12 -4 -31 -4q-28 0 -56 11q-27 12 -46 31q-19 20 -31 46q-11 28 -11 56
q0 20 5 38q2 10 5.5 18.5t8.5 16.5q10 15 23 30q7 6 14 11.5t16 10.5q16 9 34 15q17 4 38 4q8 0 16 -0.5t15 -2.5q8 -2 15 -4.5t15 -5.5q7 -4 13.5 -8t13.5 -9q13 -10 23 -21l-11 -12q-4 -4 -12 -8q-8 -3 -16 -3q-10 0 -19 6q-13 8 -25 12q-13 5 -28 5q-17 0 -35 -8
q-9 -3 -16 -8t-14 -11zM3298 -69q5 -8 8.5 -16.5t5.5 -18.5q3 -8 4 -18t1 -20t-1 -19.5t-4 -18.5q-4 -17 -14 -35q-9 -15 -23 -29q-7 -6 -14 -11.5t-16 -10.5q-8 -5 -16 -8.5t-18 -6.5q-20 -5 -38 -5q-29 0 -57 11q-13 6 -24.5 13.5t-20.5 17.5q-10 11 -18 22t-13 24
q-12 27 -12 56q0 20 5 38q5 17 15 35q5 8 10.5 15t12.5 15q6 6 13.5 11.5t15.5 10.5q17 9 34 15q17 4 39 4t38 -4q18 -6 34 -15q9 -5 16 -10.5t14 -11.5q7 -8 12.5 -15t10.5 -15zM3259 -178q3 9 5 18t2 18q0 17 -7 36q-9 17 -20 30q-15 14 -30 19q-18 8 -36 8t-36 -8
q-15 -5 -30 -19q-6 -7 -11 -14t-9 -16q-7 -15 -7 -36q0 -19 7 -36t20 -29q15 -13 30 -20t36 -7t36 7t30 20q6 6 10.5 13.5t9.5 15.5zM3609 -2q6 2 10 2h52v-283h-52v207q-3 -5 -4 -14q-2 -4 -2.5 -7.5t-2.5 -6.5q-9 -23 -18 -45t-19 -44q-9 -23 -18 -45t-19 -45h-47l-74 179
q-2 3 -3 6t-2 8q-1 3 -2 6.5t-2 5.5v-205h-52v283h51q4 0 12 -2q6 -2 9 -4q5 -3 8 -8q2 -2 6 -8q8 -22 16.5 -43.5t17.5 -42.5q8 -22 17 -43t17 -43q2 -2 2 -5q0 -2 0.5 -3t0.5 -3q1 -2 1 -6v-3q0 2 1 3q0 4 1 6q0 4 1 6q0 2 0.5 3t0.5 2l10 20l59 152q1 4 6 9q2 3 8 7
q4 2 10 4z" />
    <glyph glyph-name="four" unicode="4" horiz-adv-x="4097" 
d="M2952 600q9 -8 16 -23q6 -14 6 -30q0 -14 -6 -29q-7 -14 -16 -23q-10 -10 -24 -16t-29 -6q-16 0 -29 6q-14 6 -24 16q-5 5 -9 11t-7 12q-6 15 -6 29q0 16 6 30q6 13 16 23q9 10 24 17q13 6 29 6q15 0 29 -6q15 -7 24 -17zM1109 577q-4 -6 -7 -10q-6 -4 -10 -6t-12 -2h-44
v61h44q6 0 12 -3q5 -1 10 -6q3 -3 7 -9q2 -8 2 -13q0 -4 -2 -12zM1479 600q10 -10 16 -23q6 -14 6 -30q0 -14 -6 -29q-3 -6 -7 -12t-9 -11q-10 -10 -24 -16t-29 -6q-16 0 -29 6q-14 6 -24 16q-9 9 -16 23q-6 15 -6 29q0 16 6 30q7 15 16 23q9 10 24 17q13 6 29 6q15 0 29 -6
q15 -7 24 -17zM1855 616q0 -6 2 -12l37 -84h-78l36 84q1 2 1 2.5t1 2.5q0 2 0.5 3.5t0.5 3.5zM784 610q3 -3 7 -11q3 -8 3 -14q0 -8 -3 -14q-4 -8 -7 -11q-6 -6 -11 -7q-4 -2 -7 -3t-7 -1h-44v71h44q6 0 14 -3q5 -1 11 -7zM3671 1084v-766h-3147v766h1193q0 80 30 151
q16 35 36.5 65t46.5 56q54 52 121 80q70 30 146 30q85 0 152 -32q70 -31 121 -84q26 -26 45.5 -56.5t34.5 -65.5q29 -70 29 -144h1192zM1774 1216q-26 -64 -26 -133q0 -71 27 -134q26 -62 74 -113q46 -47 111 -76q61 -29 137 -29q74 0 136 28q32 14 60 33t52 42t43 51t33 60
q27 64 27 138q0 67 -20 120q-19 53 -56 99q-35 42 -82 74q-24 14 -49.5 25.5t-51.5 19.5q-39 13 -92 13q-73 0 -139 -29q-64 -29 -111 -76q-45 -47 -73 -113zM817 561q5 12 5 24t-5 25q-4 9 -14 19q-8 9 -20 14q-10 5 -24 5h-71v-200h27v74h44q11 0 24 5q11 4 20 13
q10 10 14 21zM966 648h-124v-200h124v27h-96v60h78v28h-78v57h96v28zM1161 448l-63 86q10 3 16 8q9 6 13 13q5 5 9 16q2 5 2 9v9q0 14 -4 23q-2 5 -5.5 9.5t-7.5 9.5q-8 7 -18 12q-9 5 -23 5h-72v-200h28v83h30l52 -71q3 -5 10 -9q4 -3 15 -3h18zM1296 482q5 13 5 25
q0 27 -21 44q-6 4 -9 5q-2 2 -4.5 2.5t-4.5 2.5q-2 1 -5 1.5t-5 2.5q-2 0 -5 1t-5 2q-5 2 -9 3.5t-8 3.5q-9 3 -11 5q-5 5 -6 8q-2 3 -2 10t2 10q4 6 7 8q3 1 11 5q3 1 5.5 1.5t6.5 0.5q2 0 5 -1t5 -2q3 -1 6 -2.5t5 -3.5q6 -3 12 -3q9 0 14 5l7 5l-4.5 4.5l-5.5 5.5
q-3 2 -6 4.5t-7 4.5q-5 4 -15 7q-8 3 -16 3q-12 0 -22 -3q-6 -2 -10.5 -4.5t-9.5 -5.5q-8 -8 -13 -17q-5 -10 -5 -22q0 -15 5 -22q4 -9 12 -15q9 -7 18 -11q5 -2 10 -4.5t10 -4.5q3 -2 6.5 -2.5t7.5 -2.5q10 -4 13 -6q6 -4 10 -10q3 -5 3 -13q0 -9 -4 -14q-2 -6 -9 -11
q-3 -2 -6.5 -3.5t-6.5 -3.5q-5 -1 -8 -1.5t-7 -0.5q-6 0 -14 2q-9 3 -12 8l-3 1q-6 7 -15 7q-6 0 -11 -4l-7 -3q1 -1 1 -2t2 -2q0 -2 1 -3t2 -3t5 -6q3 -5 6 -6q17 -16 45 -16q15 0 27 4q13 5 21 13q10 8 16 19zM1525 520q3 15 3 27q0 14 -3 28q-2 7 -4.5 13t-6.5 12
q-3 5 -7 10l-8 10q-10 8 -22 16q-5 4 -11 6.5t-13 4.5q-14 3 -27 3q-15 0 -27 -3q-7 -2 -13 -4.5t-12 -6.5q-5 -4 -10 -7.5t-10 -8.5q-9 -8 -16 -20q-4 -6 -6.5 -12t-4.5 -13t-3 -13.5t-1 -14.5q0 -21 9 -39q4 -10 9.5 -17.5t12.5 -15.5q13 -13 32 -21q17 -8 40 -8
q8 0 14 0.5t13 2.5t13 4.5t11 6.5q11 5 22 15q4 5 8 10.5t7 10.5q4 6 6.5 12t4.5 12zM1735 648h-28v-156q0 5 -1 8t-3 6l-97 134q-3 4 -8 6q-8 2 -12 2h-20v-200h28v168v-4l2 -4q0 -2 2 -4l114 -156h23v200zM1956 448l-87 200h-27l-88 -200h16q6 0 12 3l4 4t4 5l14 32h102
l14 -32q3 -7 8 -9q3 -3 12 -3h16zM2090 475h-87v173h-27v-200h114v27zM2365 648h-28v-122q0 -12 -4 -21q-2 -5 -4.5 -9t-7.5 -7q-3 -5 -7 -7.5t-9 -4.5q-9 -4 -21 -4t-20 4q-5 2 -9.5 4.5t-7.5 7.5q-7 5 -12 16q-2 5 -3 10t-1 11v122h-27v-122v-11.5t2 -10.5t4 -9.5t4 -9.5
q3 -5 6 -9t8 -7q5 -6 15 -13q11 -5 20 -8q10 -3 21 -3t22 3q5 2 9.5 4t9.5 4q9 6 16 13q4 3 7 7t6 9q2 5 4 9.5t4 9.5q3 10 3 22v122zM2519 482q5 10 5 25q0 29 -21 44q-2 2 -4 3l-4 2l-10 5q-6 2 -10 4q-2 0 -4.5 1t-5.5 2q-5 2 -8.5 3.5t-7.5 3.5t-6.5 2.5t-4.5 2.5
q-6 4 -7 8q-2 6 -2 10q0 5 3 10q4 6 7 8q2 1 4.5 2t5.5 3q8 2 13 2q2 0 4.5 -1t5.5 -2l5 -2.5t6 -3.5q6 -3 12 -3q8 0 13 5l8 5l-10 10q-3 2 -6 4.5t-7 4.5q-3 2 -7 3.5t-8 3.5q-9 3 -16 3q-13 0 -23 -3q-5 -2 -9.5 -4.5t-9.5 -5.5q-4 -4 -7.5 -8t-5.5 -9q-6 -9 -6 -22
q0 -12 5 -22t13 -15q8 -7 17 -11l21 -9q4 -2 7 -2.5t7 -2.5q3 -2 6.5 -3t6.5 -3q6 -5 9 -10q4 -4 4 -13t-4 -14q-2 -5 -10 -11q-5 -4 -13 -7q-10 -2 -14 -2q-7 0 -15 2q-9 3 -12 8l-2 1q-6 7 -16 7q-6 0 -10 -4l-8 -3q1 -1 1.5 -2t1.5 -2l3 -6q4 -4 5 -6q3 -5 7 -6
q17 -16 45 -16q14 0 26 4q12 5 22 13q8 7 15 19zM2683 648h-124v-200h124v27h-97v60h78v28h-78v57h97v28zM2998 520q3 15 3 27q0 14 -3 28q-2 7 -4.5 13t-6.5 12q-7 12 -16 20q-5 5 -10 8.5t-10 7.5q-6 4 -12 6.5t-13 4.5q-12 3 -27 3q-14 0 -27 -3q-7 -2 -13 -4.5t-12 -6.5
q-5 -4 -10.5 -7.5t-10.5 -8.5t-8.5 -10t-7.5 -10q-5 -10 -10 -25q-3 -14 -3 -28q0 -10 1.5 -20t6.5 -19q4 -10 9 -17.5t12 -15.5q15 -14 33 -21q16 -8 40 -8q7 0 14 0.5t13 2.5q7 2 13 4.5t12 6.5q12 7 20 15q5 5 9 10.5t7 10.5q4 6 6.5 12t4.5 12zM3208 648h-28v-156
q-2 9 -5 14l-97 134q-3 5 -8 6q-6 2 -12 2h-20v-200h28v168l2 -4q0 -3 1 -4q0 -2 2 -4l114 -156h23v200zM3371 475h-87v173h-27v-200h114v27zM3530 648h-19q-10 0 -14 -3q-7 -3 -10 -10l-48 -64q1 0 -2 -3q0 -1 -1 -2v-1v3q0 3 -2 3l-47 64q-6 8 -10 10q-8 3 -15 3h-19
l72 -97q1 -1 1.5 -2t1.5 -2q2 -4 3 -5q0 -1 0.5 -2t0.5 -2v-6v-84h28v84q0 2 0.5 3t0.5 3q1 1 1 2t1 2t1 2t2 3q0 1 3 4zM1983 789q-53 21 -97 58h423q-43 -37 -97 -58q-51 -22 -115 -22q-63 0 -114 22zM1922 881l411 415q79 -103 79 -213q0 -57 -18 -108q-17 -49 -53 -94
h-419zM1861 871q-19 22 -33.5 46t-24.5 51q-11 26 -15.5 55t-4.5 60q0 57 18 108q8 26 21.5 48.5t30.5 44.5h419zM2212 1378q55 -23 95 -60h-422q22 20 46.5 34.5t50.5 25.5q27 11 55.5 16t59.5 5q62 0 115 -21zM530 116q-6 8 -10 22q-2 6 -3 12t-1 13q0 6 1 12t3 12
q3 14 10 23q7 12 14 19t19 14q5 3 10.5 5.5t11.5 4.5q12 3 25 3q10 0 19 -2t18 -5q8 -5 15.5 -9.5t13.5 -11.5l-4 -4q0 -1 -1 -1q-1 -1 -2 -1q-2 -2 -4 -2h-5q-6 0 -9 2q-5 3 -9.5 5.5t-9.5 4.5q-11 3 -22 3q-15 0 -28 -5q-15 -7 -23 -16q-9 -8 -16 -23q-6 -14 -6 -28
q0 -10 3 -19t7 -18q3 -5 6 -8t6 -7q4 -3 7.5 -6t7.5 -5q5 -2 9 -3.5t9 -3.5q9 -3 19 -3q12 0 24 3q6 2 11.5 4.5t10.5 5.5v38h-14q-2 0 -3.5 0.5t-3.5 0.5q-2 2 -6 4q-1 2 -2 3t-1 3q-2 4 -2 7v2h51v-71q-5 -7 -14 -11q-8 -4 -15 -5q-5 -2 -9 -2.5t-9 -1.5h-19q-13 0 -25 3
q-11 3 -22 9q-12 7 -19 15q-7 7 -14 19zM742 233v-59h72v-20h-72v-62h90v-20h-111v182h111v-21h-90zM912 72v161h-58v21h137v-21h-58v-161h-21zM1126 233v-63h76v-20h-76v-78h-21v182h111v-21h-90zM1271 254v-112q0 -12 4 -20q2 -5 5 -9l6 -8l8 -6t9 -5q9 -4 20 -4
q12 0 20 4q5 2 9 5l8 6q6 6 11 17q5 10 5 20v112h20v-112q0 -16 -6 -28q-3 -7 -6.5 -12.5t-8.5 -10.5q-9 -9 -23 -16q-15 -5 -29 -5q-13 0 -28 5q-15 7 -23 16q-9 8 -16 23q-3 6 -4 13t-1 15v112h20zM1455 254v-162h81v-20h-102v182h21zM1579 254v-162h81v-20h-101v182h20z
M1826 72l-79 182h11q4 0 10 -3l3.5 -3.5t2.5 -4.5l60 -136q0 -2 0.5 -3t0.5 -3q1 -3 1 -6v6q2 4 2 6q8 17 15 34t15 34t15 34t15 34q2 4 6 8q6 3 10 3h11q-10 -23 -20 -45.5t-20 -45.5t-19.5 -45.5t-19.5 -45.5h-20zM1961 233v-59h73v-20h-73v-62h90v-20h-111v182h111v-21
h-90zM2187 157q-8 -5 -16 -6l59 -79h-12q-9 0 -12 2q-6 3 -9 8l-51 68h-31v-78h-21v182h65q12 0 20 -4q9 -4 17 -11q7 -8 11 -17q4 -8 4 -20q0 -9 -3 -18q-4 -9 -8 -15q-3 -4 -6 -6.5t-7 -5.5zM2159 170q6 0 12 3q3 1 5.5 2.5t4.5 3.5q4 4 7 10l2 6t1 7q0 3 -1 6l-2 6
q-3 6 -7 10t-10 7q-8 2 -12 2h-44v-63h44zM2326 98q6 4 9 11q4 5 4 14t-3 15t-9 9q-4 4 -12 7q-4 1 -14 5q-5 2 -9.5 4t-9.5 4q-11 3 -16 9q-6 4 -11 13q-3 7 -3 20q0 11 5 19q3 9 12 15q4 3 8 5.5t9 4.5q9 3 19 3q5 0 15 -2q5 -2 13 -6q3 -2 5.5 -4t4.5 -4q3 -2 5 -4l4 -4
l-5 -4q-4 -4 -10 -4q-4 0 -10 2q-2 2 -3 2.5t-2 1.5q-2 1 -2.5 1.5t-2.5 1.5q-2 0 -3 0.5t-3 0.5q-2 1 -6 1q-5 0 -13 -2q-4 -1 -10 -5q-6 -6 -7 -9q-3 -5 -3 -10q0 -8 2 -11q1 -4 6 -7q6 -4 11 -6q4 -2 8 -3t9 -3q3 -2 9 -4t9 -4q6 -2 9 -4q2 -1 3.5 -2t3.5 -2q8 -8 14 -17
q2 -5 3 -10.5t1 -12.5q0 -10 -5 -22q-4 -8 -13 -17q-8 -7 -20 -10q-9 -4 -23 -4q-26 0 -40 14q-3 2 -5.5 5t-4.5 5q-4 6 -4 8l4 2q2 2 4 2q1 1 4 1q8 0 13 -5q6 -7 14 -9q7 -3 15 -3q4 0 7 0.5t7 1.5q7 1 13 6zM2421 254v-182h-21v182h21zM2491 97q-13 12 -20 29
q-8 19 -8 37q0 6 1 12t3 12q3 13 9 23q4 5 7 9.5t8 9.5q5 4 9.5 7.5t9.5 6.5q11 7 22 10q12 3 25 3t25 -3q6 -2 11.5 -4.5t10.5 -5.5t9.5 -6.5t9.5 -7.5q5 -5 8 -9.5t6 -9.5t5.5 -11t4.5 -12q3 -12 3 -24q0 -20 -7 -37q-8 -17 -20 -29q-14 -14 -30 -20q-15 -7 -36 -7
q-20 0 -37 7q-17 6 -29 20zM2490 191q-6 -14 -6 -28q0 -10 3 -19t7 -18q2 -5 5 -8t6 -7q4 -3 7.5 -6t7.5 -5q5 -2 9 -3.5t9 -3.5q7 -3 19 -3q10 0 19 3q5 2 9 3.5t9 3.5q7 4 14 11t11 15q5 7 8 18q2 5 2 9.5v9.5q0 14 -6 28q-5 14 -15 23q-8 9 -23 16q-13 5 -28 5
q-8 0 -14.5 -1.5t-14.5 -3.5q-14 -7 -23 -16t-15 -23zM2704 72h-20v182h14q12 0 16 -7l94 -132q2 -2 2 -3t1 -3t1 -5v150h21v-182h-19l-107 150l-1 2q-1 1 -1 3t-1 3v-158zM2986 233v-63h76v-20h-76v-78h-20v182h111v-21h-91zM3204 169q-2 -4 -5 -6.5t-7 -5.5q-8 -5 -16 -6
l59 -79h-12q-9 0 -13 2q-5 3 -8 8l-50 68h-33v-78h-20v182h64q12 0 21 -4t16 -11t12 -17q2 -5 3 -10t1 -10q0 -9 -3 -18q-4 -10 -9 -15zM3176 173q3 1 5.5 2.5t4.5 3.5q5 5 6 10q3 6 3 13q0 6 -3 12q-1 5 -6 10q-4 4 -10 7q-8 2 -13 2h-44v-63h44q7 0 13 3zM3413 97
q-14 -14 -30 -20q-15 -7 -37 -7q-9 0 -18.5 1.5t-17.5 5.5q-17 6 -29 20q-7 6 -11.5 13.5t-8.5 15.5q-8 19 -8 37q0 6 1 12t3 12q3 14 10 23q4 9 14 19q7 7 19 14q5 3 10.5 5.5t11.5 4.5q12 3 24 3q14 0 26 -3q6 -2 11 -4.5t10 -5.5q6 -3 10.5 -6.5t9.5 -7.5q5 -5 8 -9.5
t6 -9.5q6 -10 9 -23q4 -11 4 -24q0 -21 -8 -37q-6 -16 -19 -29zM3346 90q11 0 20 3q5 2 9 3.5t8 3.5q5 2 8 5t7 6q7 7 11 15q5 7 8 18q2 5 2 9.5v9.5q0 13 -5 28q-7 15 -16 23q-9 9 -23 16q-15 5 -29 5q-13 0 -28 -5q-13 -6 -22 -16q-9 -8 -16 -23q-6 -14 -6 -28
q0 -5 0.5 -9.5t1.5 -9.5q2 -5 4 -9t4 -9t5 -8l7 -7q6 -7 14 -11q4 -2 8 -3.5t9 -3.5q9 -3 19 -3zM3645 251q4 3 9 3h17v-182h-20v151q0 -1 -1 -1q0 -2 -1 -3v-3q0 -1 -1 -2q-5 -11 -9 -20.5t-8 -19.5q-5 -10 -9 -18.5t-7 -17.5q-4 -9 -8 -17.5t-7 -16.5q-4 -8 -7.5 -16
t-7.5 -16h-21q-8 17 -15.5 35t-15.5 35l-16 36l-16 36q-1 1 -1 4q-1 2 -1 4v-150h-20v182h16q4 0 9 -3q6 -3 6 -8l63 -141q0 -3 1 -4t1 -4q0 3 2 11q2 2 2.5 4.5t2.5 5.5l57 128q1 5 6 8zM524 0h210v-23q0 -10 -1 -14q-3 -8 -6 -12l-141 -189l4 2l4 2q1 0 1.5 0.5t2.5 0.5
h135v-50h-217v16q0 5 2 13t4 13q2 3 3 5.5t3 5.5q5 5 8 11l125 169h-137v50zM769 0h182v-50h-130v-65h105v-50h-105v-68h130v-50h-182v283zM1179 -50h-83v-233h-52v233h-83v50h218v-50zM1307 0l123 -283h-32q-11 0 -20 6q-7 5 -14 15l-16 39h-129l-17 -39q-2 -5 -5 -8
q-2 -3 -8 -7t-10 -4q-3 -2 -10 -2h-33l124 283h47zM1325 -172l-37 86q-2 3 -2.5 6t-1.5 5q0 6 -1 8q0 -5 -1 -8q0 -2 -1 -5l-2 -6l-37 -86h83zM1442 0h181v-50h-130v-71h109v-50h-109v-112h-51v283zM1910 -69q5 -8 8.5 -16.5t5.5 -18.5q3 -8 4 -18t1 -20t-1 -19.5t-4 -18.5
q-4 -17 -14 -35q-9 -15 -23 -29q-6 -6 -13.5 -11.5t-15.5 -10.5t-16.5 -8.5t-17.5 -6.5q-10 -2 -19 -3.5t-20 -1.5q-29 0 -56 11q-27 12 -46 31q-10 11 -18 22t-13 24q-11 25 -11 56q0 10 1 20t3 18q5 17 15 35q5 8 10.5 15t12.5 15q14 12 29 22q17 9 34 15q17 4 39 4t39 -4
q17 -6 34 -15q8 -5 15.5 -10.5t13.5 -11.5q7 -8 12.5 -15t10.5 -15zM1871 -178q3 9 5 18t2 18q0 17 -7 36q-4 9 -9 16t-11 14q-15 14 -30 19q-18 8 -36 8t-36 -8q-16 -6 -29 -19q-12 -12 -21 -30q-7 -19 -7 -36q0 -9 2 -18t5 -18q5 -8 9.5 -15.5t11.5 -13.5q12 -13 29 -20
q15 -7 36 -7t36 7t30 20q12 12 20 29zM2166 0h52v-283h-48l-135 189q-3 2 -4 7q-2 2 -3 3.5t-2 3.5t-2 3.5t-2 3.5l-3 6v-216h-52v283h46q10 0 16 -3q8 -3 11 -9q15 -20 30 -41t29 -42l30 -42t29 -41q4 -6 6 -12q2 -8 2 -9v199zM2242 0h218v-50h-83v-233h-52v233h-83v50z
M2639 -145q8 -8 13 -23q5 -13 5 -28q0 -18 -8 -36q-9 -17 -22 -29q-15 -12 -33 -18q-9 -3 -18.5 -5t-18.5 -2q-11 0 -20.5 2t-19.5 5q-9 5 -16.5 9.5t-15.5 11.5q-5 5 -8 9t-6 9t-4.5 8.5t-3.5 7.5q2 1 3.5 2t3.5 2t3.5 2t3.5 2q6 2 8 3q2 0 4.5 0.5t4.5 0.5q6 0 12 -3
q8 -2 13 -4q9 -7 17 -10q8 -5 21 -5q3 0 7 0.5t9 1.5q4 2 8 3.5t7 3.5q9 6 12 13q6 7 6 17q0 7 -5 14q-4 5 -12 10q-6 4 -16 7q-5 2 -9 4t-9 4q-13 4 -29 11q-8 3 -14 7t-12 9q-12 10 -17 22q-7 13 -7 32q0 10 2 18t5 16q5 7 9.5 12.5t10.5 10.5q13 10 29 16q13 4 32 4
q13 0 24 -4q6 -2 11.5 -4.5t10.5 -5.5t9.5 -7t9.5 -8q10 -8 15 -16l-10 -8q-7 -5 -14 -8q-5 -2 -8 -2h-7h-3h-4q-6 2 -10 4q-6 2 -8 4q-2 0 -4 1t-4 1q-6 2 -8 2q-4 0 -7 -0.5t-7 -1.5q-5 -1 -11 -5q-6 -3 -9 -8q-2 -3 -2 -11t2 -11t4.5 -5t4.5 -4q6 -4 16 -7q5 -2 11 -4
t13 -4l9 -3q18 -6 29 -14q14 -9 22 -18zM2726 -233q5 -5 6 -10q3 -5 3 -12q0 -8 -3 -12q-1 -5 -6 -10q-4 -4 -10 -6q-6 -3 -13 -3t-11 3q-7 2 -11 6t-7 10q-2 6 -2 12t2 12q3 6 7 10t11 6q4 3 11 3t13 -3q6 -2 10 -6zM2833 -76q-13 -13 -20 -30q-8 -18 -8 -36q0 -17 8 -36
q4 -8 8.5 -15.5t11.5 -13.5t14 -11t16 -9q15 -7 35 -7q8 0 15 1t13 3q14 5 25 13q6 2 9 4q3 1 10 1q10 0 16 -3q8 -4 12 -8l11 -11q-12 -14 -23 -22q-7 -5 -13.5 -8.5t-13.5 -7.5q-13 -7 -30 -10q-12 -4 -31 -4q-28 0 -56 11q-27 12 -46 31q-19 20 -31 46q-11 28 -11 56
q0 20 5 38q2 10 5.5 18.5t8.5 16.5q10 15 23 30q7 6 14 11.5t16 10.5q16 9 34 15q17 4 38 4q8 0 16 -0.5t15 -2.5q8 -2 15 -4.5t15 -5.5q7 -4 13.5 -8t13.5 -9q13 -10 23 -21l-11 -12q-4 -4 -12 -8q-8 -3 -16 -3q-10 0 -19 6q-13 8 -25 12q-13 5 -28 5q-17 0 -35 -8
q-9 -3 -16 -8t-14 -11zM3298 -69q5 -8 8.5 -16.5t5.5 -18.5q3 -8 4 -18t1 -20t-1 -19.5t-4 -18.5q-4 -17 -14 -35q-9 -15 -23 -29q-7 -6 -14 -11.5t-16 -10.5q-8 -5 -16 -8.5t-18 -6.5q-20 -5 -38 -5q-29 0 -57 11q-13 6 -24.5 13.5t-20.5 17.5q-10 11 -18 22t-13 24
q-12 27 -12 56q0 20 5 38q5 17 15 35q5 8 10.5 15t12.5 15q6 6 13.5 11.5t15.5 10.5q17 9 34 15q17 4 39 4t38 -4q18 -6 34 -15q9 -5 16 -10.5t14 -11.5q7 -8 12.5 -15t10.5 -15zM3259 -178q3 9 5 18t2 18q0 17 -7 36q-9 17 -20 30q-15 14 -30 19q-18 8 -36 8t-36 -8
q-15 -5 -30 -19q-6 -7 -11 -14t-9 -16q-7 -15 -7 -36q0 -19 7 -36t20 -29q15 -13 30 -20t36 -7t36 7t30 20q6 6 10.5 13.5t9.5 15.5zM3609 -2q6 2 10 2h52v-283h-52v207q-3 -5 -4 -14q-2 -4 -2.5 -7.5t-2.5 -6.5q-9 -23 -18 -45t-19 -44q-9 -23 -18 -45t-19 -45h-47l-74 179
q-2 3 -3 6t-2 8q-1 3 -2 6.5t-2 5.5v-205h-52v283h51q4 0 12 -2q6 -2 9 -4q5 -3 8 -8q2 -2 6 -8q8 -22 16.5 -43.5t17.5 -42.5q8 -22 17 -43t17 -43q2 -2 2 -5q0 -2 0.5 -3t0.5 -3q1 -2 1 -6v-3q0 2 1 3q0 4 1 6q0 4 1 6q0 2 0.5 3t0.5 2l10 20l59 152q1 4 6 9q2 3 8 7
q4 2 10 4z" />
    <glyph glyph-name="five" unicode="5" horiz-adv-x="4097" 
d="M2952 600q9 -8 16 -23q6 -14 6 -30q0 -14 -6 -29q-7 -14 -16 -23q-10 -10 -24 -16t-29 -6q-16 0 -29 6q-14 6 -24 16q-5 5 -9 11t-7 12q-6 15 -6 29q0 16 6 30q6 13 16 23q9 10 24 17q13 6 29 6q15 0 29 -6q15 -7 24 -17zM1109 577q-4 -6 -7 -10q-6 -4 -10 -6t-12 -2h-44
v61h44q6 0 12 -3q5 -1 10 -6q3 -3 7 -9q2 -8 2 -13q0 -4 -2 -12zM1479 600q10 -10 16 -23q6 -14 6 -30q0 -14 -6 -29q-3 -6 -7 -12t-9 -11q-10 -10 -24 -16t-29 -6q-16 0 -29 6q-14 6 -24 16q-9 9 -16 23q-6 15 -6 29q0 16 6 30q7 15 16 23q9 10 24 17q13 6 29 6q15 0 29 -6
q15 -7 24 -17zM1855 616q0 -6 2 -12l37 -84h-78l36 84q1 2 1 2.5t1 2.5q0 2 0.5 3.5t0.5 3.5zM784 610q3 -3 7 -11q3 -8 3 -14q0 -8 -3 -14q-4 -8 -7 -11q-6 -6 -11 -7q-4 -2 -7 -3t-7 -1h-44v71h44q6 0 14 -3q5 -1 11 -7zM3671 1084v-766h-3147v766h1193q0 80 30 151
q16 35 36.5 65t46.5 56q54 52 121 80q70 30 146 30q85 0 152 -32q70 -31 121 -84q26 -26 45.5 -56.5t34.5 -65.5q29 -70 29 -144h1192zM1774 1216q-26 -64 -26 -133q0 -71 27 -134q26 -62 74 -113q46 -47 111 -76q61 -29 137 -29q74 0 136 28q32 14 60 33t52 42t43 51t33 60
q27 64 27 138q0 67 -20 120q-19 53 -56 99q-35 42 -82 74q-24 14 -49.5 25.5t-51.5 19.5q-39 13 -92 13q-73 0 -139 -29q-64 -29 -111 -76q-45 -47 -73 -113zM817 561q5 12 5 24t-5 25q-4 9 -14 19q-8 9 -20 14q-10 5 -24 5h-71v-200h27v74h44q11 0 24 5q11 4 20 13
q10 10 14 21zM966 648h-124v-200h124v27h-96v60h78v28h-78v57h96v28zM1161 448l-63 86q10 3 16 8q9 6 13 13q5 5 9 16q2 5 2 9v9q0 14 -4 23q-2 5 -5.5 9.5t-7.5 9.5q-8 7 -18 12q-9 5 -23 5h-72v-200h28v83h30l52 -71q3 -5 10 -9q4 -3 15 -3h18zM1296 482q5 13 5 25
q0 27 -21 44q-6 4 -9 5q-2 2 -4.5 2.5t-4.5 2.5q-2 1 -5 1.5t-5 2.5q-2 0 -5 1t-5 2q-5 2 -9 3.5t-8 3.5q-9 3 -11 5q-5 5 -6 8q-2 3 -2 10t2 10q4 6 7 8q3 1 11 5q3 1 5.5 1.5t6.5 0.5q2 0 5 -1t5 -2q3 -1 6 -2.5t5 -3.5q6 -3 12 -3q9 0 14 5l7 5l-4.5 4.5l-5.5 5.5
q-3 2 -6 4.5t-7 4.5q-5 4 -15 7q-8 3 -16 3q-12 0 -22 -3q-6 -2 -10.5 -4.5t-9.5 -5.5q-8 -8 -13 -17q-5 -10 -5 -22q0 -15 5 -22q4 -9 12 -15q9 -7 18 -11q5 -2 10 -4.5t10 -4.5q3 -2 6.5 -2.5t7.5 -2.5q10 -4 13 -6q6 -4 10 -10q3 -5 3 -13q0 -9 -4 -14q-2 -6 -9 -11
q-3 -2 -6.5 -3.5t-6.5 -3.5q-5 -1 -8 -1.5t-7 -0.5q-6 0 -14 2q-9 3 -12 8l-3 1q-6 7 -15 7q-6 0 -11 -4l-7 -3q1 -1 1 -2t2 -2q0 -2 1 -3t2 -3t5 -6q3 -5 6 -6q17 -16 45 -16q15 0 27 4q13 5 21 13q10 8 16 19zM1525 520q3 15 3 27q0 14 -3 28q-2 7 -4.5 13t-6.5 12
q-3 5 -7 10l-8 10q-10 8 -22 16q-5 4 -11 6.5t-13 4.5q-14 3 -27 3q-15 0 -27 -3q-7 -2 -13 -4.5t-12 -6.5q-5 -4 -10 -7.5t-10 -8.5q-9 -8 -16 -20q-4 -6 -6.5 -12t-4.5 -13t-3 -13.5t-1 -14.5q0 -21 9 -39q4 -10 9.5 -17.5t12.5 -15.5q13 -13 32 -21q17 -8 40 -8
q8 0 14 0.5t13 2.5t13 4.5t11 6.5q11 5 22 15q4 5 8 10.5t7 10.5q4 6 6.5 12t4.5 12zM1735 648h-28v-156q0 5 -1 8t-3 6l-97 134q-3 4 -8 6q-8 2 -12 2h-20v-200h28v168v-4l2 -4q0 -2 2 -4l114 -156h23v200zM1956 448l-87 200h-27l-88 -200h16q6 0 12 3l4 4t4 5l14 32h102
l14 -32q3 -7 8 -9q3 -3 12 -3h16zM2090 475h-87v173h-27v-200h114v27zM2365 648h-28v-122q0 -12 -4 -21q-2 -5 -4.5 -9t-7.5 -7q-3 -5 -7 -7.5t-9 -4.5q-9 -4 -21 -4t-20 4q-5 2 -9.5 4.5t-7.5 7.5q-7 5 -12 16q-2 5 -3 10t-1 11v122h-27v-122v-11.5t2 -10.5t4 -9.5t4 -9.5
q3 -5 6 -9t8 -7q5 -6 15 -13q11 -5 20 -8q10 -3 21 -3t22 3q5 2 9.5 4t9.5 4q9 6 16 13q4 3 7 7t6 9q2 5 4 9.5t4 9.5q3 10 3 22v122zM2519 482q5 10 5 25q0 29 -21 44q-2 2 -4 3l-4 2l-10 5q-6 2 -10 4q-2 0 -4.5 1t-5.5 2q-5 2 -8.5 3.5t-7.5 3.5t-6.5 2.5t-4.5 2.5
q-6 4 -7 8q-2 6 -2 10q0 5 3 10q4 6 7 8q2 1 4.5 2t5.5 3q8 2 13 2q2 0 4.5 -1t5.5 -2l5 -2.5t6 -3.5q6 -3 12 -3q8 0 13 5l8 5l-10 10q-3 2 -6 4.5t-7 4.5q-3 2 -7 3.5t-8 3.5q-9 3 -16 3q-13 0 -23 -3q-5 -2 -9.5 -4.5t-9.5 -5.5q-4 -4 -7.5 -8t-5.5 -9q-6 -9 -6 -22
q0 -12 5 -22t13 -15q8 -7 17 -11l21 -9q4 -2 7 -2.5t7 -2.5q3 -2 6.5 -3t6.5 -3q6 -5 9 -10q4 -4 4 -13t-4 -14q-2 -5 -10 -11q-5 -4 -13 -7q-10 -2 -14 -2q-7 0 -15 2q-9 3 -12 8l-2 1q-6 7 -16 7q-6 0 -10 -4l-8 -3q1 -1 1.5 -2t1.5 -2l3 -6q4 -4 5 -6q3 -5 7 -6
q17 -16 45 -16q14 0 26 4q12 5 22 13q8 7 15 19zM2683 648h-124v-200h124v27h-97v60h78v28h-78v57h97v28zM2998 520q3 15 3 27q0 14 -3 28q-2 7 -4.5 13t-6.5 12q-7 12 -16 20q-5 5 -10 8.5t-10 7.5q-6 4 -12 6.5t-13 4.5q-12 3 -27 3q-14 0 -27 -3q-7 -2 -13 -4.5t-12 -6.5
q-5 -4 -10.5 -7.5t-10.5 -8.5t-8.5 -10t-7.5 -10q-5 -10 -10 -25q-3 -14 -3 -28q0 -10 1.5 -20t6.5 -19q4 -10 9 -17.5t12 -15.5q15 -14 33 -21q16 -8 40 -8q7 0 14 0.5t13 2.5q7 2 13 4.5t12 6.5q12 7 20 15q5 5 9 10.5t7 10.5q4 6 6.5 12t4.5 12zM3208 648h-28v-156
q-2 9 -5 14l-97 134q-3 5 -8 6q-6 2 -12 2h-20v-200h28v168l2 -4q0 -3 1 -4q0 -2 2 -4l114 -156h23v200zM3371 475h-87v173h-27v-200h114v27zM3530 648h-19q-10 0 -14 -3q-7 -3 -10 -10l-48 -64q1 0 -2 -3q0 -1 -1 -2v-1v3q0 3 -2 3l-47 64q-6 8 -10 10q-8 3 -15 3h-19
l72 -97q1 -1 1.5 -2t1.5 -2q2 -4 3 -5q0 -1 0.5 -2t0.5 -2v-6v-84h28v84q0 2 0.5 3t0.5 3q1 1 1 2t1 2t1 2t2 3q0 1 3 4zM1983 789q-53 21 -97 58h423q-43 -37 -97 -58q-51 -22 -115 -22q-63 0 -114 22zM1922 881l411 415q79 -103 79 -213q0 -57 -18 -108q-17 -49 -53 -94
h-419zM1861 871q-19 22 -33.5 46t-24.5 51q-11 26 -15.5 55t-4.5 60q0 57 18 108q8 26 21.5 48.5t30.5 44.5h419zM2212 1378q55 -23 95 -60h-422q22 20 46.5 34.5t50.5 25.5q27 11 55.5 16t59.5 5q62 0 115 -21zM530 116q-6 8 -10 22q-2 6 -3 12t-1 13q0 6 1 12t3 12
q3 14 10 23q7 12 14 19t19 14q5 3 10.5 5.5t11.5 4.5q12 3 25 3q10 0 19 -2t18 -5q8 -5 15.5 -9.5t13.5 -11.5l-4 -4q0 -1 -1 -1q-1 -1 -2 -1q-2 -2 -4 -2h-5q-6 0 -9 2q-5 3 -9.5 5.5t-9.5 4.5q-11 3 -22 3q-15 0 -28 -5q-15 -7 -23 -16q-9 -8 -16 -23q-6 -14 -6 -28
q0 -10 3 -19t7 -18q3 -5 6 -8t6 -7q4 -3 7.5 -6t7.5 -5q5 -2 9 -3.5t9 -3.5q9 -3 19 -3q12 0 24 3q6 2 11.5 4.5t10.5 5.5v38h-14q-2 0 -3.5 0.5t-3.5 0.5q-2 2 -6 4q-1 2 -2 3t-1 3q-2 4 -2 7v2h51v-71q-5 -7 -14 -11q-8 -4 -15 -5q-5 -2 -9 -2.5t-9 -1.5h-19q-13 0 -25 3
q-11 3 -22 9q-12 7 -19 15q-7 7 -14 19zM742 233v-59h72v-20h-72v-62h90v-20h-111v182h111v-21h-90zM912 72v161h-58v21h137v-21h-58v-161h-21zM1126 233v-63h76v-20h-76v-78h-21v182h111v-21h-90zM1271 254v-112q0 -12 4 -20q2 -5 5 -9l6 -8l8 -6t9 -5q9 -4 20 -4
q12 0 20 4q5 2 9 5l8 6q6 6 11 17q5 10 5 20v112h20v-112q0 -16 -6 -28q-3 -7 -6.5 -12.5t-8.5 -10.5q-9 -9 -23 -16q-15 -5 -29 -5q-13 0 -28 5q-15 7 -23 16q-9 8 -16 23q-3 6 -4 13t-1 15v112h20zM1455 254v-162h81v-20h-102v182h21zM1579 254v-162h81v-20h-101v182h20z
M1826 72l-79 182h11q4 0 10 -3l3.5 -3.5t2.5 -4.5l60 -136q0 -2 0.5 -3t0.5 -3q1 -3 1 -6v6q2 4 2 6q8 17 15 34t15 34t15 34t15 34q2 4 6 8q6 3 10 3h11q-10 -23 -20 -45.5t-20 -45.5t-19.5 -45.5t-19.5 -45.5h-20zM1961 233v-59h73v-20h-73v-62h90v-20h-111v182h111v-21
h-90zM2187 157q-8 -5 -16 -6l59 -79h-12q-9 0 -12 2q-6 3 -9 8l-51 68h-31v-78h-21v182h65q12 0 20 -4q9 -4 17 -11q7 -8 11 -17q4 -8 4 -20q0 -9 -3 -18q-4 -9 -8 -15q-3 -4 -6 -6.5t-7 -5.5zM2159 170q6 0 12 3q3 1 5.5 2.5t4.5 3.5q4 4 7 10l2 6t1 7q0 3 -1 6l-2 6
q-3 6 -7 10t-10 7q-8 2 -12 2h-44v-63h44zM2326 98q6 4 9 11q4 5 4 14t-3 15t-9 9q-4 4 -12 7q-4 1 -14 5q-5 2 -9.5 4t-9.5 4q-11 3 -16 9q-6 4 -11 13q-3 7 -3 20q0 11 5 19q3 9 12 15q4 3 8 5.5t9 4.5q9 3 19 3q5 0 15 -2q5 -2 13 -6q3 -2 5.5 -4t4.5 -4q3 -2 5 -4l4 -4
l-5 -4q-4 -4 -10 -4q-4 0 -10 2q-2 2 -3 2.5t-2 1.5q-2 1 -2.5 1.5t-2.5 1.5q-2 0 -3 0.5t-3 0.5q-2 1 -6 1q-5 0 -13 -2q-4 -1 -10 -5q-6 -6 -7 -9q-3 -5 -3 -10q0 -8 2 -11q1 -4 6 -7q6 -4 11 -6q4 -2 8 -3t9 -3q3 -2 9 -4t9 -4q6 -2 9 -4q2 -1 3.5 -2t3.5 -2q8 -8 14 -17
q2 -5 3 -10.5t1 -12.5q0 -10 -5 -22q-4 -8 -13 -17q-8 -7 -20 -10q-9 -4 -23 -4q-26 0 -40 14q-3 2 -5.5 5t-4.5 5q-4 6 -4 8l4 2q2 2 4 2q1 1 4 1q8 0 13 -5q6 -7 14 -9q7 -3 15 -3q4 0 7 0.5t7 1.5q7 1 13 6zM2421 254v-182h-21v182h21zM2491 97q-13 12 -20 29
q-8 19 -8 37q0 6 1 12t3 12q3 13 9 23q4 5 7 9.5t8 9.5q5 4 9.5 7.5t9.5 6.5q11 7 22 10q12 3 25 3t25 -3q6 -2 11.5 -4.5t10.5 -5.5t9.5 -6.5t9.5 -7.5q5 -5 8 -9.5t6 -9.5t5.5 -11t4.5 -12q3 -12 3 -24q0 -20 -7 -37q-8 -17 -20 -29q-14 -14 -30 -20q-15 -7 -36 -7
q-20 0 -37 7q-17 6 -29 20zM2490 191q-6 -14 -6 -28q0 -10 3 -19t7 -18q2 -5 5 -8t6 -7q4 -3 7.5 -6t7.5 -5q5 -2 9 -3.5t9 -3.5q7 -3 19 -3q10 0 19 3q5 2 9 3.5t9 3.5q7 4 14 11t11 15q5 7 8 18q2 5 2 9.5v9.5q0 14 -6 28q-5 14 -15 23q-8 9 -23 16q-13 5 -28 5
q-8 0 -14.5 -1.5t-14.5 -3.5q-14 -7 -23 -16t-15 -23zM2704 72h-20v182h14q12 0 16 -7l94 -132q2 -2 2 -3t1 -3t1 -5v150h21v-182h-19l-107 150l-1 2q-1 1 -1 3t-1 3v-158zM2986 233v-63h76v-20h-76v-78h-20v182h111v-21h-91zM3204 169q-2 -4 -5 -6.5t-7 -5.5q-8 -5 -16 -6
l59 -79h-12q-9 0 -13 2q-5 3 -8 8l-50 68h-33v-78h-20v182h64q12 0 21 -4t16 -11t12 -17q2 -5 3 -10t1 -10q0 -9 -3 -18q-4 -10 -9 -15zM3176 173q3 1 5.5 2.5t4.5 3.5q5 5 6 10q3 6 3 13q0 6 -3 12q-1 5 -6 10q-4 4 -10 7q-8 2 -13 2h-44v-63h44q7 0 13 3zM3413 97
q-14 -14 -30 -20q-15 -7 -37 -7q-9 0 -18.5 1.5t-17.5 5.5q-17 6 -29 20q-7 6 -11.5 13.5t-8.5 15.5q-8 19 -8 37q0 6 1 12t3 12q3 14 10 23q4 9 14 19q7 7 19 14q5 3 10.5 5.5t11.5 4.5q12 3 24 3q14 0 26 -3q6 -2 11 -4.5t10 -5.5q6 -3 10.5 -6.5t9.5 -7.5q5 -5 8 -9.5
t6 -9.5q6 -10 9 -23q4 -11 4 -24q0 -21 -8 -37q-6 -16 -19 -29zM3346 90q11 0 20 3q5 2 9 3.5t8 3.5q5 2 8 5t7 6q7 7 11 15q5 7 8 18q2 5 2 9.5v9.5q0 13 -5 28q-7 15 -16 23q-9 9 -23 16q-15 5 -29 5q-13 0 -28 -5q-13 -6 -22 -16q-9 -8 -16 -23q-6 -14 -6 -28
q0 -5 0.5 -9.5t1.5 -9.5q2 -5 4 -9t4 -9t5 -8l7 -7q6 -7 14 -11q4 -2 8 -3.5t9 -3.5q9 -3 19 -3zM3645 251q4 3 9 3h17v-182h-20v151q0 -1 -1 -1q0 -2 -1 -3v-3q0 -1 -1 -2q-5 -11 -9 -20.5t-8 -19.5q-5 -10 -9 -18.5t-7 -17.5q-4 -9 -8 -17.5t-7 -16.5q-4 -8 -7.5 -16
t-7.5 -16h-21q-8 17 -15.5 35t-15.5 35l-16 36l-16 36q-1 1 -1 4q-1 2 -1 4v-150h-20v182h16q4 0 9 -3q6 -3 6 -8l63 -141q0 -3 1 -4t1 -4q0 3 2 11q2 2 2.5 4.5t2.5 5.5l57 128q1 5 6 8zM524 0h210v-23q0 -10 -1 -14q-3 -8 -6 -12l-141 -189l4 2l4 2q1 0 1.5 0.5t2.5 0.5
h135v-50h-217v16q0 5 2 13t4 13q2 3 3 5.5t3 5.5q5 5 8 11l125 169h-137v50zM769 0h182v-50h-130v-65h105v-50h-105v-68h130v-50h-182v283zM1179 -50h-83v-233h-52v233h-83v50h218v-50zM1307 0l123 -283h-32q-11 0 -20 6q-7 5 -14 15l-16 39h-129l-17 -39q-2 -5 -5 -8
q-2 -3 -8 -7t-10 -4q-3 -2 -10 -2h-33l124 283h47zM1325 -172l-37 86q-2 3 -2.5 6t-1.5 5q0 6 -1 8q0 -5 -1 -8q0 -2 -1 -5l-2 -6l-37 -86h83zM1442 0h181v-50h-130v-71h109v-50h-109v-112h-51v283zM1910 -69q5 -8 8.5 -16.5t5.5 -18.5q3 -8 4 -18t1 -20t-1 -19.5t-4 -18.5
q-4 -17 -14 -35q-9 -15 -23 -29q-6 -6 -13.5 -11.5t-15.5 -10.5t-16.5 -8.5t-17.5 -6.5q-10 -2 -19 -3.5t-20 -1.5q-29 0 -56 11q-27 12 -46 31q-10 11 -18 22t-13 24q-11 25 -11 56q0 10 1 20t3 18q5 17 15 35q5 8 10.5 15t12.5 15q14 12 29 22q17 9 34 15q17 4 39 4t39 -4
q17 -6 34 -15q8 -5 15.5 -10.5t13.5 -11.5q7 -8 12.5 -15t10.5 -15zM1871 -178q3 9 5 18t2 18q0 17 -7 36q-4 9 -9 16t-11 14q-15 14 -30 19q-18 8 -36 8t-36 -8q-16 -6 -29 -19q-12 -12 -21 -30q-7 -19 -7 -36q0 -9 2 -18t5 -18q5 -8 9.5 -15.5t11.5 -13.5q12 -13 29 -20
q15 -7 36 -7t36 7t30 20q12 12 20 29zM2166 0h52v-283h-48l-135 189q-3 2 -4 7q-2 2 -3 3.5t-2 3.5t-2 3.5t-2 3.5l-3 6v-216h-52v283h46q10 0 16 -3q8 -3 11 -9q15 -20 30 -41t29 -42l30 -42t29 -41q4 -6 6 -12q2 -8 2 -9v199zM2242 0h218v-50h-83v-233h-52v233h-83v50z
M2639 -145q8 -8 13 -23q5 -13 5 -28q0 -18 -8 -36q-9 -17 -22 -29q-15 -12 -33 -18q-9 -3 -18.5 -5t-18.5 -2q-11 0 -20.5 2t-19.5 5q-9 5 -16.5 9.5t-15.5 11.5q-5 5 -8 9t-6 9t-4.5 8.5t-3.5 7.5q2 1 3.5 2t3.5 2t3.5 2t3.5 2q6 2 8 3q2 0 4.5 0.5t4.5 0.5q6 0 12 -3
q8 -2 13 -4q9 -7 17 -10q8 -5 21 -5q3 0 7 0.5t9 1.5q4 2 8 3.5t7 3.5q9 6 12 13q6 7 6 17q0 7 -5 14q-4 5 -12 10q-6 4 -16 7q-5 2 -9 4t-9 4q-13 4 -29 11q-8 3 -14 7t-12 9q-12 10 -17 22q-7 13 -7 32q0 10 2 18t5 16q5 7 9.5 12.5t10.5 10.5q13 10 29 16q13 4 32 4
q13 0 24 -4q6 -2 11.5 -4.5t10.5 -5.5t9.5 -7t9.5 -8q10 -8 15 -16l-10 -8q-7 -5 -14 -8q-5 -2 -8 -2h-7h-3h-4q-6 2 -10 4q-6 2 -8 4q-2 0 -4 1t-4 1q-6 2 -8 2q-4 0 -7 -0.5t-7 -1.5q-5 -1 -11 -5q-6 -3 -9 -8q-2 -3 -2 -11t2 -11t4.5 -5t4.5 -4q6 -4 16 -7q5 -2 11 -4
t13 -4l9 -3q18 -6 29 -14q14 -9 22 -18zM2726 -233q5 -5 6 -10q3 -5 3 -12q0 -8 -3 -12q-1 -5 -6 -10q-4 -4 -10 -6q-6 -3 -13 -3t-11 3q-7 2 -11 6t-7 10q-2 6 -2 12t2 12q3 6 7 10t11 6q4 3 11 3t13 -3q6 -2 10 -6zM2833 -76q-13 -13 -20 -30q-8 -18 -8 -36q0 -17 8 -36
q4 -8 8.5 -15.5t11.5 -13.5t14 -11t16 -9q15 -7 35 -7q8 0 15 1t13 3q14 5 25 13q6 2 9 4q3 1 10 1q10 0 16 -3q8 -4 12 -8l11 -11q-12 -14 -23 -22q-7 -5 -13.5 -8.5t-13.5 -7.5q-13 -7 -30 -10q-12 -4 -31 -4q-28 0 -56 11q-27 12 -46 31q-19 20 -31 46q-11 28 -11 56
q0 20 5 38q2 10 5.5 18.5t8.5 16.5q10 15 23 30q7 6 14 11.5t16 10.5q16 9 34 15q17 4 38 4q8 0 16 -0.5t15 -2.5q8 -2 15 -4.5t15 -5.5q7 -4 13.5 -8t13.5 -9q13 -10 23 -21l-11 -12q-4 -4 -12 -8q-8 -3 -16 -3q-10 0 -19 6q-13 8 -25 12q-13 5 -28 5q-17 0 -35 -8
q-9 -3 -16 -8t-14 -11zM3298 -69q5 -8 8.5 -16.5t5.5 -18.5q3 -8 4 -18t1 -20t-1 -19.5t-4 -18.5q-4 -17 -14 -35q-9 -15 -23 -29q-7 -6 -14 -11.5t-16 -10.5q-8 -5 -16 -8.5t-18 -6.5q-20 -5 -38 -5q-29 0 -57 11q-13 6 -24.5 13.5t-20.5 17.5q-10 11 -18 22t-13 24
q-12 27 -12 56q0 20 5 38q5 17 15 35q5 8 10.5 15t12.5 15q6 6 13.5 11.5t15.5 10.5q17 9 34 15q17 4 39 4t38 -4q18 -6 34 -15q9 -5 16 -10.5t14 -11.5q7 -8 12.5 -15t10.5 -15zM3259 -178q3 9 5 18t2 18q0 17 -7 36q-9 17 -20 30q-15 14 -30 19q-18 8 -36 8t-36 -8
q-15 -5 -30 -19q-6 -7 -11 -14t-9 -16q-7 -15 -7 -36q0 -19 7 -36t20 -29q15 -13 30 -20t36 -7t36 7t30 20q6 6 10.5 13.5t9.5 15.5zM3609 -2q6 2 10 2h52v-283h-52v207q-3 -5 -4 -14q-2 -4 -2.5 -7.5t-2.5 -6.5q-9 -23 -18 -45t-19 -44q-9 -23 -18 -45t-19 -45h-47l-74 179
q-2 3 -3 6t-2 8q-1 3 -2 6.5t-2 5.5v-205h-52v283h51q4 0 12 -2q6 -2 9 -4q5 -3 8 -8q2 -2 6 -8q8 -22 16.5 -43.5t17.5 -42.5q8 -22 17 -43t17 -43q2 -2 2 -5q0 -2 0.5 -3t0.5 -3q1 -2 1 -6v-3q0 2 1 3q0 4 1 6q0 4 1 6q0 2 0.5 3t0.5 2l10 20l59 152q1 4 6 9q2 3 8 7
q4 2 10 4z" />
    <glyph glyph-name="six" unicode="6" horiz-adv-x="4097" 
d="M2952 600q9 -8 16 -23q6 -14 6 -30q0 -14 -6 -29q-7 -14 -16 -23q-10 -10 -24 -16t-29 -6q-16 0 -29 6q-14 6 -24 16q-5 5 -9 11t-7 12q-6 15 -6 29q0 16 6 30q6 13 16 23q9 10 24 17q13 6 29 6q15 0 29 -6q15 -7 24 -17zM1109 577q-4 -6 -7 -10q-6 -4 -10 -6t-12 -2h-44
v61h44q6 0 12 -3q5 -1 10 -6q3 -3 7 -9q2 -8 2 -13q0 -4 -2 -12zM1479 600q10 -10 16 -23q6 -14 6 -30q0 -14 -6 -29q-3 -6 -7 -12t-9 -11q-10 -10 -24 -16t-29 -6q-16 0 -29 6q-14 6 -24 16q-9 9 -16 23q-6 15 -6 29q0 16 6 30q7 15 16 23q9 10 24 17q13 6 29 6q15 0 29 -6
q15 -7 24 -17zM1855 616q0 -6 2 -12l37 -84h-78l36 84q1 2 1 2.5t1 2.5q0 2 0.5 3.5t0.5 3.5zM784 610q3 -3 7 -11q3 -8 3 -14q0 -8 -3 -14q-4 -8 -7 -11q-6 -6 -11 -7q-4 -2 -7 -3t-7 -1h-44v71h44q6 0 14 -3q5 -1 11 -7zM3671 1084v-766h-3147v766h1193q0 80 30 151
q16 35 36.5 65t46.5 56q54 52 121 80q70 30 146 30q85 0 152 -32q70 -31 121 -84q26 -26 45.5 -56.5t34.5 -65.5q29 -70 29 -144h1192zM1774 1216q-26 -64 -26 -133q0 -71 27 -134q26 -62 74 -113q46 -47 111 -76q61 -29 137 -29q74 0 136 28q32 14 60 33t52 42t43 51t33 60
q27 64 27 138q0 67 -20 120q-19 53 -56 99q-35 42 -82 74q-24 14 -49.5 25.5t-51.5 19.5q-39 13 -92 13q-73 0 -139 -29q-64 -29 -111 -76q-45 -47 -73 -113zM817 561q5 12 5 24t-5 25q-4 9 -14 19q-8 9 -20 14q-10 5 -24 5h-71v-200h27v74h44q11 0 24 5q11 4 20 13
q10 10 14 21zM966 648h-124v-200h124v27h-96v60h78v28h-78v57h96v28zM1161 448l-63 86q10 3 16 8q9 6 13 13q5 5 9 16q2 5 2 9v9q0 14 -4 23q-2 5 -5.5 9.5t-7.5 9.5q-8 7 -18 12q-9 5 -23 5h-72v-200h28v83h30l52 -71q3 -5 10 -9q4 -3 15 -3h18zM1296 482q5 13 5 25
q0 27 -21 44q-6 4 -9 5q-2 2 -4.5 2.5t-4.5 2.5q-2 1 -5 1.5t-5 2.5q-2 0 -5 1t-5 2q-5 2 -9 3.5t-8 3.5q-9 3 -11 5q-5 5 -6 8q-2 3 -2 10t2 10q4 6 7 8q3 1 11 5q3 1 5.5 1.5t6.5 0.5q2 0 5 -1t5 -2q3 -1 6 -2.5t5 -3.5q6 -3 12 -3q9 0 14 5l7 5l-4.5 4.5l-5.5 5.5
q-3 2 -6 4.5t-7 4.5q-5 4 -15 7q-8 3 -16 3q-12 0 -22 -3q-6 -2 -10.5 -4.5t-9.5 -5.5q-8 -8 -13 -17q-5 -10 -5 -22q0 -15 5 -22q4 -9 12 -15q9 -7 18 -11q5 -2 10 -4.5t10 -4.5q3 -2 6.5 -2.5t7.5 -2.5q10 -4 13 -6q6 -4 10 -10q3 -5 3 -13q0 -9 -4 -14q-2 -6 -9 -11
q-3 -2 -6.5 -3.5t-6.5 -3.5q-5 -1 -8 -1.5t-7 -0.5q-6 0 -14 2q-9 3 -12 8l-3 1q-6 7 -15 7q-6 0 -11 -4l-7 -3q1 -1 1 -2t2 -2q0 -2 1 -3t2 -3t5 -6q3 -5 6 -6q17 -16 45 -16q15 0 27 4q13 5 21 13q10 8 16 19zM1525 520q3 15 3 27q0 14 -3 28q-2 7 -4.5 13t-6.5 12
q-3 5 -7 10l-8 10q-10 8 -22 16q-5 4 -11 6.5t-13 4.5q-14 3 -27 3q-15 0 -27 -3q-7 -2 -13 -4.5t-12 -6.5q-5 -4 -10 -7.5t-10 -8.5q-9 -8 -16 -20q-4 -6 -6.5 -12t-4.5 -13t-3 -13.5t-1 -14.5q0 -21 9 -39q4 -10 9.5 -17.5t12.5 -15.5q13 -13 32 -21q17 -8 40 -8
q8 0 14 0.5t13 2.5t13 4.5t11 6.5q11 5 22 15q4 5 8 10.5t7 10.5q4 6 6.5 12t4.5 12zM1735 648h-28v-156q0 5 -1 8t-3 6l-97 134q-3 4 -8 6q-8 2 -12 2h-20v-200h28v168v-4l2 -4q0 -2 2 -4l114 -156h23v200zM1956 448l-87 200h-27l-88 -200h16q6 0 12 3l4 4t4 5l14 32h102
l14 -32q3 -7 8 -9q3 -3 12 -3h16zM2090 475h-87v173h-27v-200h114v27zM2365 648h-28v-122q0 -12 -4 -21q-2 -5 -4.5 -9t-7.5 -7q-3 -5 -7 -7.5t-9 -4.5q-9 -4 -21 -4t-20 4q-5 2 -9.5 4.5t-7.5 7.5q-7 5 -12 16q-2 5 -3 10t-1 11v122h-27v-122v-11.5t2 -10.5t4 -9.5t4 -9.5
q3 -5 6 -9t8 -7q5 -6 15 -13q11 -5 20 -8q10 -3 21 -3t22 3q5 2 9.5 4t9.5 4q9 6 16 13q4 3 7 7t6 9q2 5 4 9.5t4 9.5q3 10 3 22v122zM2519 482q5 10 5 25q0 29 -21 44q-2 2 -4 3l-4 2l-10 5q-6 2 -10 4q-2 0 -4.5 1t-5.5 2q-5 2 -8.5 3.5t-7.5 3.5t-6.5 2.5t-4.5 2.5
q-6 4 -7 8q-2 6 -2 10q0 5 3 10q4 6 7 8q2 1 4.5 2t5.5 3q8 2 13 2q2 0 4.5 -1t5.5 -2l5 -2.5t6 -3.5q6 -3 12 -3q8 0 13 5l8 5l-10 10q-3 2 -6 4.5t-7 4.5q-3 2 -7 3.5t-8 3.5q-9 3 -16 3q-13 0 -23 -3q-5 -2 -9.5 -4.5t-9.5 -5.5q-4 -4 -7.5 -8t-5.5 -9q-6 -9 -6 -22
q0 -12 5 -22t13 -15q8 -7 17 -11l21 -9q4 -2 7 -2.5t7 -2.5q3 -2 6.5 -3t6.5 -3q6 -5 9 -10q4 -4 4 -13t-4 -14q-2 -5 -10 -11q-5 -4 -13 -7q-10 -2 -14 -2q-7 0 -15 2q-9 3 -12 8l-2 1q-6 7 -16 7q-6 0 -10 -4l-8 -3q1 -1 1.5 -2t1.5 -2l3 -6q4 -4 5 -6q3 -5 7 -6
q17 -16 45 -16q14 0 26 4q12 5 22 13q8 7 15 19zM2683 648h-124v-200h124v27h-97v60h78v28h-78v57h97v28zM2998 520q3 15 3 27q0 14 -3 28q-2 7 -4.5 13t-6.5 12q-7 12 -16 20q-5 5 -10 8.5t-10 7.5q-6 4 -12 6.5t-13 4.5q-12 3 -27 3q-14 0 -27 -3q-7 -2 -13 -4.5t-12 -6.5
q-5 -4 -10.5 -7.5t-10.5 -8.5t-8.5 -10t-7.5 -10q-5 -10 -10 -25q-3 -14 -3 -28q0 -10 1.5 -20t6.5 -19q4 -10 9 -17.5t12 -15.5q15 -14 33 -21q16 -8 40 -8q7 0 14 0.5t13 2.5q7 2 13 4.5t12 6.5q12 7 20 15q5 5 9 10.5t7 10.5q4 6 6.5 12t4.5 12zM3208 648h-28v-156
q-2 9 -5 14l-97 134q-3 5 -8 6q-6 2 -12 2h-20v-200h28v168l2 -4q0 -3 1 -4q0 -2 2 -4l114 -156h23v200zM3371 475h-87v173h-27v-200h114v27zM3530 648h-19q-10 0 -14 -3q-7 -3 -10 -10l-48 -64q1 0 -2 -3q0 -1 -1 -2v-1v3q0 3 -2 3l-47 64q-6 8 -10 10q-8 3 -15 3h-19
l72 -97q1 -1 1.5 -2t1.5 -2q2 -4 3 -5q0 -1 0.5 -2t0.5 -2v-6v-84h28v84q0 2 0.5 3t0.5 3q1 1 1 2t1 2t1 2t2 3q0 1 3 4zM1983 789q-53 21 -97 58h423q-43 -37 -97 -58q-51 -22 -115 -22q-63 0 -114 22zM1922 881l411 415q79 -103 79 -213q0 -57 -18 -108q-17 -49 -53 -94
h-419zM1861 871q-19 22 -33.5 46t-24.5 51q-11 26 -15.5 55t-4.5 60q0 57 18 108q8 26 21.5 48.5t30.5 44.5h419zM2212 1378q55 -23 95 -60h-422q22 20 46.5 34.5t50.5 25.5q27 11 55.5 16t59.5 5q62 0 115 -21zM530 116q-6 8 -10 22q-2 6 -3 12t-1 13q0 6 1 12t3 12
q3 14 10 23q7 12 14 19t19 14q5 3 10.5 5.5t11.5 4.5q12 3 25 3q10 0 19 -2t18 -5q8 -5 15.5 -9.5t13.5 -11.5l-4 -4q0 -1 -1 -1q-1 -1 -2 -1q-2 -2 -4 -2h-5q-6 0 -9 2q-5 3 -9.5 5.5t-9.5 4.5q-11 3 -22 3q-15 0 -28 -5q-15 -7 -23 -16q-9 -8 -16 -23q-6 -14 -6 -28
q0 -10 3 -19t7 -18q3 -5 6 -8t6 -7q4 -3 7.5 -6t7.5 -5q5 -2 9 -3.5t9 -3.5q9 -3 19 -3q12 0 24 3q6 2 11.5 4.5t10.5 5.5v38h-14q-2 0 -3.5 0.5t-3.5 0.5q-2 2 -6 4q-1 2 -2 3t-1 3q-2 4 -2 7v2h51v-71q-5 -7 -14 -11q-8 -4 -15 -5q-5 -2 -9 -2.5t-9 -1.5h-19q-13 0 -25 3
q-11 3 -22 9q-12 7 -19 15q-7 7 -14 19zM742 233v-59h72v-20h-72v-62h90v-20h-111v182h111v-21h-90zM912 72v161h-58v21h137v-21h-58v-161h-21zM1126 233v-63h76v-20h-76v-78h-21v182h111v-21h-90zM1271 254v-112q0 -12 4 -20q2 -5 5 -9l6 -8l8 -6t9 -5q9 -4 20 -4
q12 0 20 4q5 2 9 5l8 6q6 6 11 17q5 10 5 20v112h20v-112q0 -16 -6 -28q-3 -7 -6.5 -12.5t-8.5 -10.5q-9 -9 -23 -16q-15 -5 -29 -5q-13 0 -28 5q-15 7 -23 16q-9 8 -16 23q-3 6 -4 13t-1 15v112h20zM1455 254v-162h81v-20h-102v182h21zM1579 254v-162h81v-20h-101v182h20z
M1826 72l-79 182h11q4 0 10 -3l3.5 -3.5t2.5 -4.5l60 -136q0 -2 0.5 -3t0.5 -3q1 -3 1 -6v6q2 4 2 6q8 17 15 34t15 34t15 34t15 34q2 4 6 8q6 3 10 3h11q-10 -23 -20 -45.5t-20 -45.5t-19.5 -45.5t-19.5 -45.5h-20zM1961 233v-59h73v-20h-73v-62h90v-20h-111v182h111v-21
h-90zM2187 157q-8 -5 -16 -6l59 -79h-12q-9 0 -12 2q-6 3 -9 8l-51 68h-31v-78h-21v182h65q12 0 20 -4q9 -4 17 -11q7 -8 11 -17q4 -8 4 -20q0 -9 -3 -18q-4 -9 -8 -15q-3 -4 -6 -6.5t-7 -5.5zM2159 170q6 0 12 3q3 1 5.5 2.5t4.5 3.5q4 4 7 10l2 6t1 7q0 3 -1 6l-2 6
q-3 6 -7 10t-10 7q-8 2 -12 2h-44v-63h44zM2326 98q6 4 9 11q4 5 4 14t-3 15t-9 9q-4 4 -12 7q-4 1 -14 5q-5 2 -9.5 4t-9.5 4q-11 3 -16 9q-6 4 -11 13q-3 7 -3 20q0 11 5 19q3 9 12 15q4 3 8 5.5t9 4.5q9 3 19 3q5 0 15 -2q5 -2 13 -6q3 -2 5.5 -4t4.5 -4q3 -2 5 -4l4 -4
l-5 -4q-4 -4 -10 -4q-4 0 -10 2q-2 2 -3 2.5t-2 1.5q-2 1 -2.5 1.5t-2.5 1.5q-2 0 -3 0.5t-3 0.5q-2 1 -6 1q-5 0 -13 -2q-4 -1 -10 -5q-6 -6 -7 -9q-3 -5 -3 -10q0 -8 2 -11q1 -4 6 -7q6 -4 11 -6q4 -2 8 -3t9 -3q3 -2 9 -4t9 -4q6 -2 9 -4q2 -1 3.5 -2t3.5 -2q8 -8 14 -17
q2 -5 3 -10.5t1 -12.5q0 -10 -5 -22q-4 -8 -13 -17q-8 -7 -20 -10q-9 -4 -23 -4q-26 0 -40 14q-3 2 -5.5 5t-4.5 5q-4 6 -4 8l4 2q2 2 4 2q1 1 4 1q8 0 13 -5q6 -7 14 -9q7 -3 15 -3q4 0 7 0.5t7 1.5q7 1 13 6zM2421 254v-182h-21v182h21zM2491 97q-13 12 -20 29
q-8 19 -8 37q0 6 1 12t3 12q3 13 9 23q4 5 7 9.5t8 9.5q5 4 9.5 7.5t9.5 6.5q11 7 22 10q12 3 25 3t25 -3q6 -2 11.5 -4.5t10.5 -5.5t9.5 -6.5t9.5 -7.5q5 -5 8 -9.5t6 -9.5t5.5 -11t4.5 -12q3 -12 3 -24q0 -20 -7 -37q-8 -17 -20 -29q-14 -14 -30 -20q-15 -7 -36 -7
q-20 0 -37 7q-17 6 -29 20zM2490 191q-6 -14 -6 -28q0 -10 3 -19t7 -18q2 -5 5 -8t6 -7q4 -3 7.5 -6t7.5 -5q5 -2 9 -3.5t9 -3.5q7 -3 19 -3q10 0 19 3q5 2 9 3.5t9 3.5q7 4 14 11t11 15q5 7 8 18q2 5 2 9.5v9.5q0 14 -6 28q-5 14 -15 23q-8 9 -23 16q-13 5 -28 5
q-8 0 -14.5 -1.5t-14.5 -3.5q-14 -7 -23 -16t-15 -23zM2704 72h-20v182h14q12 0 16 -7l94 -132q2 -2 2 -3t1 -3t1 -5v150h21v-182h-19l-107 150l-1 2q-1 1 -1 3t-1 3v-158zM2986 233v-63h76v-20h-76v-78h-20v182h111v-21h-91zM3204 169q-2 -4 -5 -6.5t-7 -5.5q-8 -5 -16 -6
l59 -79h-12q-9 0 -13 2q-5 3 -8 8l-50 68h-33v-78h-20v182h64q12 0 21 -4t16 -11t12 -17q2 -5 3 -10t1 -10q0 -9 -3 -18q-4 -10 -9 -15zM3176 173q3 1 5.5 2.5t4.5 3.5q5 5 6 10q3 6 3 13q0 6 -3 12q-1 5 -6 10q-4 4 -10 7q-8 2 -13 2h-44v-63h44q7 0 13 3zM3413 97
q-14 -14 -30 -20q-15 -7 -37 -7q-9 0 -18.5 1.5t-17.5 5.5q-17 6 -29 20q-7 6 -11.5 13.5t-8.5 15.5q-8 19 -8 37q0 6 1 12t3 12q3 14 10 23q4 9 14 19q7 7 19 14q5 3 10.5 5.5t11.5 4.5q12 3 24 3q14 0 26 -3q6 -2 11 -4.5t10 -5.5q6 -3 10.5 -6.5t9.5 -7.5q5 -5 8 -9.5
t6 -9.5q6 -10 9 -23q4 -11 4 -24q0 -21 -8 -37q-6 -16 -19 -29zM3346 90q11 0 20 3q5 2 9 3.5t8 3.5q5 2 8 5t7 6q7 7 11 15q5 7 8 18q2 5 2 9.5v9.5q0 13 -5 28q-7 15 -16 23q-9 9 -23 16q-15 5 -29 5q-13 0 -28 -5q-13 -6 -22 -16q-9 -8 -16 -23q-6 -14 -6 -28
q0 -5 0.5 -9.5t1.5 -9.5q2 -5 4 -9t4 -9t5 -8l7 -7q6 -7 14 -11q4 -2 8 -3.5t9 -3.5q9 -3 19 -3zM3645 251q4 3 9 3h17v-182h-20v151q0 -1 -1 -1q0 -2 -1 -3v-3q0 -1 -1 -2q-5 -11 -9 -20.5t-8 -19.5q-5 -10 -9 -18.5t-7 -17.5q-4 -9 -8 -17.5t-7 -16.5q-4 -8 -7.5 -16
t-7.5 -16h-21q-8 17 -15.5 35t-15.5 35l-16 36l-16 36q-1 1 -1 4q-1 2 -1 4v-150h-20v182h16q4 0 9 -3q6 -3 6 -8l63 -141q0 -3 1 -4t1 -4q0 3 2 11q2 2 2.5 4.5t2.5 5.5l57 128q1 5 6 8zM524 0h210v-23q0 -10 -1 -14q-3 -8 -6 -12l-141 -189l4 2l4 2q1 0 1.5 0.5t2.5 0.5
h135v-50h-217v16q0 5 2 13t4 13q2 3 3 5.5t3 5.5q5 5 8 11l125 169h-137v50zM769 0h182v-50h-130v-65h105v-50h-105v-68h130v-50h-182v283zM1179 -50h-83v-233h-52v233h-83v50h218v-50zM1307 0l123 -283h-32q-11 0 -20 6q-7 5 -14 15l-16 39h-129l-17 -39q-2 -5 -5 -8
q-2 -3 -8 -7t-10 -4q-3 -2 -10 -2h-33l124 283h47zM1325 -172l-37 86q-2 3 -2.5 6t-1.5 5q0 6 -1 8q0 -5 -1 -8q0 -2 -1 -5l-2 -6l-37 -86h83zM1442 0h181v-50h-130v-71h109v-50h-109v-112h-51v283zM1910 -69q5 -8 8.5 -16.5t5.5 -18.5q3 -8 4 -18t1 -20t-1 -19.5t-4 -18.5
q-4 -17 -14 -35q-9 -15 -23 -29q-6 -6 -13.5 -11.5t-15.5 -10.5t-16.5 -8.5t-17.5 -6.5q-10 -2 -19 -3.5t-20 -1.5q-29 0 -56 11q-27 12 -46 31q-10 11 -18 22t-13 24q-11 25 -11 56q0 10 1 20t3 18q5 17 15 35q5 8 10.5 15t12.5 15q14 12 29 22q17 9 34 15q17 4 39 4t39 -4
q17 -6 34 -15q8 -5 15.5 -10.5t13.5 -11.5q7 -8 12.5 -15t10.5 -15zM1871 -178q3 9 5 18t2 18q0 17 -7 36q-4 9 -9 16t-11 14q-15 14 -30 19q-18 8 -36 8t-36 -8q-16 -6 -29 -19q-12 -12 -21 -30q-7 -19 -7 -36q0 -9 2 -18t5 -18q5 -8 9.5 -15.5t11.5 -13.5q12 -13 29 -20
q15 -7 36 -7t36 7t30 20q12 12 20 29zM2166 0h52v-283h-48l-135 189q-3 2 -4 7q-2 2 -3 3.5t-2 3.5t-2 3.5t-2 3.5l-3 6v-216h-52v283h46q10 0 16 -3q8 -3 11 -9q15 -20 30 -41t29 -42l30 -42t29 -41q4 -6 6 -12q2 -8 2 -9v199zM2242 0h218v-50h-83v-233h-52v233h-83v50z
M2639 -145q8 -8 13 -23q5 -13 5 -28q0 -18 -8 -36q-9 -17 -22 -29q-15 -12 -33 -18q-9 -3 -18.5 -5t-18.5 -2q-11 0 -20.5 2t-19.5 5q-9 5 -16.5 9.5t-15.5 11.5q-5 5 -8 9t-6 9t-4.5 8.5t-3.5 7.5q2 1 3.5 2t3.5 2t3.5 2t3.5 2q6 2 8 3q2 0 4.5 0.5t4.5 0.5q6 0 12 -3
q8 -2 13 -4q9 -7 17 -10q8 -5 21 -5q3 0 7 0.5t9 1.5q4 2 8 3.5t7 3.5q9 6 12 13q6 7 6 17q0 7 -5 14q-4 5 -12 10q-6 4 -16 7q-5 2 -9 4t-9 4q-13 4 -29 11q-8 3 -14 7t-12 9q-12 10 -17 22q-7 13 -7 32q0 10 2 18t5 16q5 7 9.5 12.5t10.5 10.5q13 10 29 16q13 4 32 4
q13 0 24 -4q6 -2 11.5 -4.5t10.5 -5.5t9.5 -7t9.5 -8q10 -8 15 -16l-10 -8q-7 -5 -14 -8q-5 -2 -8 -2h-7h-3h-4q-6 2 -10 4q-6 2 -8 4q-2 0 -4 1t-4 1q-6 2 -8 2q-4 0 -7 -0.5t-7 -1.5q-5 -1 -11 -5q-6 -3 -9 -8q-2 -3 -2 -11t2 -11t4.5 -5t4.5 -4q6 -4 16 -7q5 -2 11 -4
t13 -4l9 -3q18 -6 29 -14q14 -9 22 -18zM2726 -233q5 -5 6 -10q3 -5 3 -12q0 -8 -3 -12q-1 -5 -6 -10q-4 -4 -10 -6q-6 -3 -13 -3t-11 3q-7 2 -11 6t-7 10q-2 6 -2 12t2 12q3 6 7 10t11 6q4 3 11 3t13 -3q6 -2 10 -6zM2833 -76q-13 -13 -20 -30q-8 -18 -8 -36q0 -17 8 -36
q4 -8 8.5 -15.5t11.5 -13.5t14 -11t16 -9q15 -7 35 -7q8 0 15 1t13 3q14 5 25 13q6 2 9 4q3 1 10 1q10 0 16 -3q8 -4 12 -8l11 -11q-12 -14 -23 -22q-7 -5 -13.5 -8.5t-13.5 -7.5q-13 -7 -30 -10q-12 -4 -31 -4q-28 0 -56 11q-27 12 -46 31q-19 20 -31 46q-11 28 -11 56
q0 20 5 38q2 10 5.5 18.5t8.5 16.5q10 15 23 30q7 6 14 11.5t16 10.5q16 9 34 15q17 4 38 4q8 0 16 -0.5t15 -2.5q8 -2 15 -4.5t15 -5.5q7 -4 13.5 -8t13.5 -9q13 -10 23 -21l-11 -12q-4 -4 -12 -8q-8 -3 -16 -3q-10 0 -19 6q-13 8 -25 12q-13 5 -28 5q-17 0 -35 -8
q-9 -3 -16 -8t-14 -11zM3298 -69q5 -8 8.5 -16.5t5.5 -18.5q3 -8 4 -18t1 -20t-1 -19.5t-4 -18.5q-4 -17 -14 -35q-9 -15 -23 -29q-7 -6 -14 -11.5t-16 -10.5q-8 -5 -16 -8.5t-18 -6.5q-20 -5 -38 -5q-29 0 -57 11q-13 6 -24.5 13.5t-20.5 17.5q-10 11 -18 22t-13 24
q-12 27 -12 56q0 20 5 38q5 17 15 35q5 8 10.5 15t12.5 15q6 6 13.5 11.5t15.5 10.5q17 9 34 15q17 4 39 4t38 -4q18 -6 34 -15q9 -5 16 -10.5t14 -11.5q7 -8 12.5 -15t10.5 -15zM3259 -178q3 9 5 18t2 18q0 17 -7 36q-9 17 -20 30q-15 14 -30 19q-18 8 -36 8t-36 -8
q-15 -5 -30 -19q-6 -7 -11 -14t-9 -16q-7 -15 -7 -36q0 -19 7 -36t20 -29q15 -13 30 -20t36 -7t36 7t30 20q6 6 10.5 13.5t9.5 15.5zM3609 -2q6 2 10 2h52v-283h-52v207q-3 -5 -4 -14q-2 -4 -2.5 -7.5t-2.5 -6.5q-9 -23 -18 -45t-19 -44q-9 -23 -18 -45t-19 -45h-47l-74 179
q-2 3 -3 6t-2 8q-1 3 -2 6.5t-2 5.5v-205h-52v283h51q4 0 12 -2q6 -2 9 -4q5 -3 8 -8q2 -2 6 -8q8 -22 16.5 -43.5t17.5 -42.5q8 -22 17 -43t17 -43q2 -2 2 -5q0 -2 0.5 -3t0.5 -3q1 -2 1 -6v-3q0 2 1 3q0 4 1 6q0 4 1 6q0 2 0.5 3t0.5 2l10 20l59 152q1 4 6 9q2 3 8 7
q4 2 10 4z" />
    <glyph glyph-name="seven" unicode="7" horiz-adv-x="4097" 
d="M2952 600q9 -8 16 -23q6 -14 6 -30q0 -14 -6 -29q-7 -14 -16 -23q-10 -10 -24 -16t-29 -6q-16 0 -29 6q-14 6 -24 16q-5 5 -9 11t-7 12q-6 15 -6 29q0 16 6 30q6 13 16 23q9 10 24 17q13 6 29 6q15 0 29 -6q15 -7 24 -17zM1109 577q-4 -6 -7 -10q-6 -4 -10 -6t-12 -2h-44
v61h44q6 0 12 -3q5 -1 10 -6q3 -3 7 -9q2 -8 2 -13q0 -4 -2 -12zM1479 600q10 -10 16 -23q6 -14 6 -30q0 -14 -6 -29q-3 -6 -7 -12t-9 -11q-10 -10 -24 -16t-29 -6q-16 0 -29 6q-14 6 -24 16q-9 9 -16 23q-6 15 -6 29q0 16 6 30q7 15 16 23q9 10 24 17q13 6 29 6q15 0 29 -6
q15 -7 24 -17zM1855 616q0 -6 2 -12l37 -84h-78l36 84q1 2 1 2.5t1 2.5q0 2 0.5 3.5t0.5 3.5zM784 610q3 -3 7 -11q3 -8 3 -14q0 -8 -3 -14q-4 -8 -7 -11q-6 -6 -11 -7q-4 -2 -7 -3t-7 -1h-44v71h44q6 0 14 -3q5 -1 11 -7zM3671 1084v-766h-3147v766h1193q0 80 30 151
q16 35 36.5 65t46.5 56q54 52 121 80q70 30 146 30q85 0 152 -32q70 -31 121 -84q26 -26 45.5 -56.5t34.5 -65.5q29 -70 29 -144h1192zM1774 1216q-26 -64 -26 -133q0 -71 27 -134q26 -62 74 -113q46 -47 111 -76q61 -29 137 -29q74 0 136 28q32 14 60 33t52 42t43 51t33 60
q27 64 27 138q0 67 -20 120q-19 53 -56 99q-35 42 -82 74q-24 14 -49.5 25.5t-51.5 19.5q-39 13 -92 13q-73 0 -139 -29q-64 -29 -111 -76q-45 -47 -73 -113zM817 561q5 12 5 24t-5 25q-4 9 -14 19q-8 9 -20 14q-10 5 -24 5h-71v-200h27v74h44q11 0 24 5q11 4 20 13
q10 10 14 21zM966 648h-124v-200h124v27h-96v60h78v28h-78v57h96v28zM1161 448l-63 86q10 3 16 8q9 6 13 13q5 5 9 16q2 5 2 9v9q0 14 -4 23q-2 5 -5.5 9.5t-7.5 9.5q-8 7 -18 12q-9 5 -23 5h-72v-200h28v83h30l52 -71q3 -5 10 -9q4 -3 15 -3h18zM1296 482q5 13 5 25
q0 27 -21 44q-6 4 -9 5q-2 2 -4.5 2.5t-4.5 2.5q-2 1 -5 1.5t-5 2.5q-2 0 -5 1t-5 2q-5 2 -9 3.5t-8 3.5q-9 3 -11 5q-5 5 -6 8q-2 3 -2 10t2 10q4 6 7 8q3 1 11 5q3 1 5.5 1.5t6.5 0.5q2 0 5 -1t5 -2q3 -1 6 -2.5t5 -3.5q6 -3 12 -3q9 0 14 5l7 5l-4.5 4.5l-5.5 5.5
q-3 2 -6 4.5t-7 4.5q-5 4 -15 7q-8 3 -16 3q-12 0 -22 -3q-6 -2 -10.5 -4.5t-9.5 -5.5q-8 -8 -13 -17q-5 -10 -5 -22q0 -15 5 -22q4 -9 12 -15q9 -7 18 -11q5 -2 10 -4.5t10 -4.5q3 -2 6.5 -2.5t7.5 -2.5q10 -4 13 -6q6 -4 10 -10q3 -5 3 -13q0 -9 -4 -14q-2 -6 -9 -11
q-3 -2 -6.5 -3.5t-6.5 -3.5q-5 -1 -8 -1.5t-7 -0.5q-6 0 -14 2q-9 3 -12 8l-3 1q-6 7 -15 7q-6 0 -11 -4l-7 -3q1 -1 1 -2t2 -2q0 -2 1 -3t2 -3t5 -6q3 -5 6 -6q17 -16 45 -16q15 0 27 4q13 5 21 13q10 8 16 19zM1525 520q3 15 3 27q0 14 -3 28q-2 7 -4.5 13t-6.5 12
q-3 5 -7 10l-8 10q-10 8 -22 16q-5 4 -11 6.5t-13 4.5q-14 3 -27 3q-15 0 -27 -3q-7 -2 -13 -4.5t-12 -6.5q-5 -4 -10 -7.5t-10 -8.5q-9 -8 -16 -20q-4 -6 -6.5 -12t-4.5 -13t-3 -13.5t-1 -14.5q0 -21 9 -39q4 -10 9.5 -17.5t12.5 -15.5q13 -13 32 -21q17 -8 40 -8
q8 0 14 0.5t13 2.5t13 4.5t11 6.5q11 5 22 15q4 5 8 10.5t7 10.5q4 6 6.5 12t4.5 12zM1735 648h-28v-156q0 5 -1 8t-3 6l-97 134q-3 4 -8 6q-8 2 -12 2h-20v-200h28v168v-4l2 -4q0 -2 2 -4l114 -156h23v200zM1956 448l-87 200h-27l-88 -200h16q6 0 12 3l4 4t4 5l14 32h102
l14 -32q3 -7 8 -9q3 -3 12 -3h16zM2090 475h-87v173h-27v-200h114v27zM2365 648h-28v-122q0 -12 -4 -21q-2 -5 -4.5 -9t-7.5 -7q-3 -5 -7 -7.5t-9 -4.5q-9 -4 -21 -4t-20 4q-5 2 -9.5 4.5t-7.5 7.5q-7 5 -12 16q-2 5 -3 10t-1 11v122h-27v-122v-11.5t2 -10.5t4 -9.5t4 -9.5
q3 -5 6 -9t8 -7q5 -6 15 -13q11 -5 20 -8q10 -3 21 -3t22 3q5 2 9.5 4t9.5 4q9 6 16 13q4 3 7 7t6 9q2 5 4 9.5t4 9.5q3 10 3 22v122zM2519 482q5 10 5 25q0 29 -21 44q-2 2 -4 3l-4 2l-10 5q-6 2 -10 4q-2 0 -4.5 1t-5.5 2q-5 2 -8.5 3.5t-7.5 3.5t-6.5 2.5t-4.5 2.5
q-6 4 -7 8q-2 6 -2 10q0 5 3 10q4 6 7 8q2 1 4.5 2t5.5 3q8 2 13 2q2 0 4.5 -1t5.5 -2l5 -2.5t6 -3.5q6 -3 12 -3q8 0 13 5l8 5l-10 10q-3 2 -6 4.5t-7 4.5q-3 2 -7 3.5t-8 3.5q-9 3 -16 3q-13 0 -23 -3q-5 -2 -9.5 -4.5t-9.5 -5.5q-4 -4 -7.5 -8t-5.5 -9q-6 -9 -6 -22
q0 -12 5 -22t13 -15q8 -7 17 -11l21 -9q4 -2 7 -2.5t7 -2.5q3 -2 6.5 -3t6.5 -3q6 -5 9 -10q4 -4 4 -13t-4 -14q-2 -5 -10 -11q-5 -4 -13 -7q-10 -2 -14 -2q-7 0 -15 2q-9 3 -12 8l-2 1q-6 7 -16 7q-6 0 -10 -4l-8 -3q1 -1 1.5 -2t1.5 -2l3 -6q4 -4 5 -6q3 -5 7 -6
q17 -16 45 -16q14 0 26 4q12 5 22 13q8 7 15 19zM2683 648h-124v-200h124v27h-97v60h78v28h-78v57h97v28zM2998 520q3 15 3 27q0 14 -3 28q-2 7 -4.5 13t-6.5 12q-7 12 -16 20q-5 5 -10 8.5t-10 7.5q-6 4 -12 6.5t-13 4.5q-12 3 -27 3q-14 0 -27 -3q-7 -2 -13 -4.5t-12 -6.5
q-5 -4 -10.5 -7.5t-10.5 -8.5t-8.5 -10t-7.5 -10q-5 -10 -10 -25q-3 -14 -3 -28q0 -10 1.5 -20t6.5 -19q4 -10 9 -17.5t12 -15.5q15 -14 33 -21q16 -8 40 -8q7 0 14 0.5t13 2.5q7 2 13 4.5t12 6.5q12 7 20 15q5 5 9 10.5t7 10.5q4 6 6.5 12t4.5 12zM3208 648h-28v-156
q-2 9 -5 14l-97 134q-3 5 -8 6q-6 2 -12 2h-20v-200h28v168l2 -4q0 -3 1 -4q0 -2 2 -4l114 -156h23v200zM3371 475h-87v173h-27v-200h114v27zM3530 648h-19q-10 0 -14 -3q-7 -3 -10 -10l-48 -64q1 0 -2 -3q0 -1 -1 -2v-1v3q0 3 -2 3l-47 64q-6 8 -10 10q-8 3 -15 3h-19
l72 -97q1 -1 1.5 -2t1.5 -2q2 -4 3 -5q0 -1 0.5 -2t0.5 -2v-6v-84h28v84q0 2 0.5 3t0.5 3q1 1 1 2t1 2t1 2t2 3q0 1 3 4zM1983 789q-53 21 -97 58h423q-43 -37 -97 -58q-51 -22 -115 -22q-63 0 -114 22zM1922 881l411 415q79 -103 79 -213q0 -57 -18 -108q-17 -49 -53 -94
h-419zM1861 871q-19 22 -33.5 46t-24.5 51q-11 26 -15.5 55t-4.5 60q0 57 18 108q8 26 21.5 48.5t30.5 44.5h419zM2212 1378q55 -23 95 -60h-422q22 20 46.5 34.5t50.5 25.5q27 11 55.5 16t59.5 5q62 0 115 -21zM530 116q-6 8 -10 22q-2 6 -3 12t-1 13q0 6 1 12t3 12
q3 14 10 23q7 12 14 19t19 14q5 3 10.5 5.5t11.5 4.5q12 3 25 3q10 0 19 -2t18 -5q8 -5 15.5 -9.5t13.5 -11.5l-4 -4q0 -1 -1 -1q-1 -1 -2 -1q-2 -2 -4 -2h-5q-6 0 -9 2q-5 3 -9.5 5.5t-9.5 4.5q-11 3 -22 3q-15 0 -28 -5q-15 -7 -23 -16q-9 -8 -16 -23q-6 -14 -6 -28
q0 -10 3 -19t7 -18q3 -5 6 -8t6 -7q4 -3 7.5 -6t7.5 -5q5 -2 9 -3.5t9 -3.5q9 -3 19 -3q12 0 24 3q6 2 11.5 4.5t10.5 5.5v38h-14q-2 0 -3.5 0.5t-3.5 0.5q-2 2 -6 4q-1 2 -2 3t-1 3q-2 4 -2 7v2h51v-71q-5 -7 -14 -11q-8 -4 -15 -5q-5 -2 -9 -2.5t-9 -1.5h-19q-13 0 -25 3
q-11 3 -22 9q-12 7 -19 15q-7 7 -14 19zM742 233v-59h72v-20h-72v-62h90v-20h-111v182h111v-21h-90zM912 72v161h-58v21h137v-21h-58v-161h-21zM1126 233v-63h76v-20h-76v-78h-21v182h111v-21h-90zM1271 254v-112q0 -12 4 -20q2 -5 5 -9l6 -8l8 -6t9 -5q9 -4 20 -4
q12 0 20 4q5 2 9 5l8 6q6 6 11 17q5 10 5 20v112h20v-112q0 -16 -6 -28q-3 -7 -6.5 -12.5t-8.5 -10.5q-9 -9 -23 -16q-15 -5 -29 -5q-13 0 -28 5q-15 7 -23 16q-9 8 -16 23q-3 6 -4 13t-1 15v112h20zM1455 254v-162h81v-20h-102v182h21zM1579 254v-162h81v-20h-101v182h20z
M1826 72l-79 182h11q4 0 10 -3l3.5 -3.5t2.5 -4.5l60 -136q0 -2 0.5 -3t0.5 -3q1 -3 1 -6v6q2 4 2 6q8 17 15 34t15 34t15 34t15 34q2 4 6 8q6 3 10 3h11q-10 -23 -20 -45.5t-20 -45.5t-19.5 -45.5t-19.5 -45.5h-20zM1961 233v-59h73v-20h-73v-62h90v-20h-111v182h111v-21
h-90zM2187 157q-8 -5 -16 -6l59 -79h-12q-9 0 -12 2q-6 3 -9 8l-51 68h-31v-78h-21v182h65q12 0 20 -4q9 -4 17 -11q7 -8 11 -17q4 -8 4 -20q0 -9 -3 -18q-4 -9 -8 -15q-3 -4 -6 -6.5t-7 -5.5zM2159 170q6 0 12 3q3 1 5.5 2.5t4.5 3.5q4 4 7 10l2 6t1 7q0 3 -1 6l-2 6
q-3 6 -7 10t-10 7q-8 2 -12 2h-44v-63h44zM2326 98q6 4 9 11q4 5 4 14t-3 15t-9 9q-4 4 -12 7q-4 1 -14 5q-5 2 -9.5 4t-9.5 4q-11 3 -16 9q-6 4 -11 13q-3 7 -3 20q0 11 5 19q3 9 12 15q4 3 8 5.5t9 4.5q9 3 19 3q5 0 15 -2q5 -2 13 -6q3 -2 5.5 -4t4.5 -4q3 -2 5 -4l4 -4
l-5 -4q-4 -4 -10 -4q-4 0 -10 2q-2 2 -3 2.5t-2 1.5q-2 1 -2.5 1.5t-2.5 1.5q-2 0 -3 0.5t-3 0.5q-2 1 -6 1q-5 0 -13 -2q-4 -1 -10 -5q-6 -6 -7 -9q-3 -5 -3 -10q0 -8 2 -11q1 -4 6 -7q6 -4 11 -6q4 -2 8 -3t9 -3q3 -2 9 -4t9 -4q6 -2 9 -4q2 -1 3.5 -2t3.5 -2q8 -8 14 -17
q2 -5 3 -10.5t1 -12.5q0 -10 -5 -22q-4 -8 -13 -17q-8 -7 -20 -10q-9 -4 -23 -4q-26 0 -40 14q-3 2 -5.5 5t-4.5 5q-4 6 -4 8l4 2q2 2 4 2q1 1 4 1q8 0 13 -5q6 -7 14 -9q7 -3 15 -3q4 0 7 0.5t7 1.5q7 1 13 6zM2421 254v-182h-21v182h21zM2491 97q-13 12 -20 29
q-8 19 -8 37q0 6 1 12t3 12q3 13 9 23q4 5 7 9.5t8 9.5q5 4 9.5 7.5t9.5 6.5q11 7 22 10q12 3 25 3t25 -3q6 -2 11.5 -4.5t10.5 -5.5t9.5 -6.5t9.5 -7.5q5 -5 8 -9.5t6 -9.5t5.5 -11t4.5 -12q3 -12 3 -24q0 -20 -7 -37q-8 -17 -20 -29q-14 -14 -30 -20q-15 -7 -36 -7
q-20 0 -37 7q-17 6 -29 20zM2490 191q-6 -14 -6 -28q0 -10 3 -19t7 -18q2 -5 5 -8t6 -7q4 -3 7.5 -6t7.5 -5q5 -2 9 -3.5t9 -3.5q7 -3 19 -3q10 0 19 3q5 2 9 3.5t9 3.5q7 4 14 11t11 15q5 7 8 18q2 5 2 9.5v9.5q0 14 -6 28q-5 14 -15 23q-8 9 -23 16q-13 5 -28 5
q-8 0 -14.5 -1.5t-14.5 -3.5q-14 -7 -23 -16t-15 -23zM2704 72h-20v182h14q12 0 16 -7l94 -132q2 -2 2 -3t1 -3t1 -5v150h21v-182h-19l-107 150l-1 2q-1 1 -1 3t-1 3v-158zM2986 233v-63h76v-20h-76v-78h-20v182h111v-21h-91zM3204 169q-2 -4 -5 -6.5t-7 -5.5q-8 -5 -16 -6
l59 -79h-12q-9 0 -13 2q-5 3 -8 8l-50 68h-33v-78h-20v182h64q12 0 21 -4t16 -11t12 -17q2 -5 3 -10t1 -10q0 -9 -3 -18q-4 -10 -9 -15zM3176 173q3 1 5.5 2.5t4.5 3.5q5 5 6 10q3 6 3 13q0 6 -3 12q-1 5 -6 10q-4 4 -10 7q-8 2 -13 2h-44v-63h44q7 0 13 3zM3413 97
q-14 -14 -30 -20q-15 -7 -37 -7q-9 0 -18.5 1.5t-17.5 5.5q-17 6 -29 20q-7 6 -11.5 13.5t-8.5 15.5q-8 19 -8 37q0 6 1 12t3 12q3 14 10 23q4 9 14 19q7 7 19 14q5 3 10.5 5.5t11.5 4.5q12 3 24 3q14 0 26 -3q6 -2 11 -4.5t10 -5.5q6 -3 10.5 -6.5t9.5 -7.5q5 -5 8 -9.5
t6 -9.5q6 -10 9 -23q4 -11 4 -24q0 -21 -8 -37q-6 -16 -19 -29zM3346 90q11 0 20 3q5 2 9 3.5t8 3.5q5 2 8 5t7 6q7 7 11 15q5 7 8 18q2 5 2 9.5v9.5q0 13 -5 28q-7 15 -16 23q-9 9 -23 16q-15 5 -29 5q-13 0 -28 -5q-13 -6 -22 -16q-9 -8 -16 -23q-6 -14 -6 -28
q0 -5 0.5 -9.5t1.5 -9.5q2 -5 4 -9t4 -9t5 -8l7 -7q6 -7 14 -11q4 -2 8 -3.5t9 -3.5q9 -3 19 -3zM3645 251q4 3 9 3h17v-182h-20v151q0 -1 -1 -1q0 -2 -1 -3v-3q0 -1 -1 -2q-5 -11 -9 -20.5t-8 -19.5q-5 -10 -9 -18.5t-7 -17.5q-4 -9 -8 -17.5t-7 -16.5q-4 -8 -7.5 -16
t-7.5 -16h-21q-8 17 -15.5 35t-15.5 35l-16 36l-16 36q-1 1 -1 4q-1 2 -1 4v-150h-20v182h16q4 0 9 -3q6 -3 6 -8l63 -141q0 -3 1 -4t1 -4q0 3 2 11q2 2 2.5 4.5t2.5 5.5l57 128q1 5 6 8zM524 0h210v-23q0 -10 -1 -14q-3 -8 -6 -12l-141 -189l4 2l4 2q1 0 1.5 0.5t2.5 0.5
h135v-50h-217v16q0 5 2 13t4 13q2 3 3 5.5t3 5.5q5 5 8 11l125 169h-137v50zM769 0h182v-50h-130v-65h105v-50h-105v-68h130v-50h-182v283zM1179 -50h-83v-233h-52v233h-83v50h218v-50zM1307 0l123 -283h-32q-11 0 -20 6q-7 5 -14 15l-16 39h-129l-17 -39q-2 -5 -5 -8
q-2 -3 -8 -7t-10 -4q-3 -2 -10 -2h-33l124 283h47zM1325 -172l-37 86q-2 3 -2.5 6t-1.5 5q0 6 -1 8q0 -5 -1 -8q0 -2 -1 -5l-2 -6l-37 -86h83zM1442 0h181v-50h-130v-71h109v-50h-109v-112h-51v283zM1910 -69q5 -8 8.5 -16.5t5.5 -18.5q3 -8 4 -18t1 -20t-1 -19.5t-4 -18.5
q-4 -17 -14 -35q-9 -15 -23 -29q-6 -6 -13.5 -11.5t-15.5 -10.5t-16.5 -8.5t-17.5 -6.5q-10 -2 -19 -3.5t-20 -1.5q-29 0 -56 11q-27 12 -46 31q-10 11 -18 22t-13 24q-11 25 -11 56q0 10 1 20t3 18q5 17 15 35q5 8 10.5 15t12.5 15q14 12 29 22q17 9 34 15q17 4 39 4t39 -4
q17 -6 34 -15q8 -5 15.5 -10.5t13.5 -11.5q7 -8 12.5 -15t10.5 -15zM1871 -178q3 9 5 18t2 18q0 17 -7 36q-4 9 -9 16t-11 14q-15 14 -30 19q-18 8 -36 8t-36 -8q-16 -6 -29 -19q-12 -12 -21 -30q-7 -19 -7 -36q0 -9 2 -18t5 -18q5 -8 9.5 -15.5t11.5 -13.5q12 -13 29 -20
q15 -7 36 -7t36 7t30 20q12 12 20 29zM2166 0h52v-283h-48l-135 189q-3 2 -4 7q-2 2 -3 3.5t-2 3.5t-2 3.5t-2 3.5l-3 6v-216h-52v283h46q10 0 16 -3q8 -3 11 -9q15 -20 30 -41t29 -42l30 -42t29 -41q4 -6 6 -12q2 -8 2 -9v199zM2242 0h218v-50h-83v-233h-52v233h-83v50z
M2639 -145q8 -8 13 -23q5 -13 5 -28q0 -18 -8 -36q-9 -17 -22 -29q-15 -12 -33 -18q-9 -3 -18.5 -5t-18.5 -2q-11 0 -20.5 2t-19.5 5q-9 5 -16.5 9.5t-15.5 11.5q-5 5 -8 9t-6 9t-4.5 8.5t-3.5 7.5q2 1 3.5 2t3.5 2t3.5 2t3.5 2q6 2 8 3q2 0 4.5 0.5t4.5 0.5q6 0 12 -3
q8 -2 13 -4q9 -7 17 -10q8 -5 21 -5q3 0 7 0.5t9 1.5q4 2 8 3.5t7 3.5q9 6 12 13q6 7 6 17q0 7 -5 14q-4 5 -12 10q-6 4 -16 7q-5 2 -9 4t-9 4q-13 4 -29 11q-8 3 -14 7t-12 9q-12 10 -17 22q-7 13 -7 32q0 10 2 18t5 16q5 7 9.5 12.5t10.5 10.5q13 10 29 16q13 4 32 4
q13 0 24 -4q6 -2 11.5 -4.5t10.5 -5.5t9.5 -7t9.5 -8q10 -8 15 -16l-10 -8q-7 -5 -14 -8q-5 -2 -8 -2h-7h-3h-4q-6 2 -10 4q-6 2 -8 4q-2 0 -4 1t-4 1q-6 2 -8 2q-4 0 -7 -0.5t-7 -1.5q-5 -1 -11 -5q-6 -3 -9 -8q-2 -3 -2 -11t2 -11t4.5 -5t4.5 -4q6 -4 16 -7q5 -2 11 -4
t13 -4l9 -3q18 -6 29 -14q14 -9 22 -18zM2726 -233q5 -5 6 -10q3 -5 3 -12q0 -8 -3 -12q-1 -5 -6 -10q-4 -4 -10 -6q-6 -3 -13 -3t-11 3q-7 2 -11 6t-7 10q-2 6 -2 12t2 12q3 6 7 10t11 6q4 3 11 3t13 -3q6 -2 10 -6zM2833 -76q-13 -13 -20 -30q-8 -18 -8 -36q0 -17 8 -36
q4 -8 8.5 -15.5t11.5 -13.5t14 -11t16 -9q15 -7 35 -7q8 0 15 1t13 3q14 5 25 13q6 2 9 4q3 1 10 1q10 0 16 -3q8 -4 12 -8l11 -11q-12 -14 -23 -22q-7 -5 -13.5 -8.5t-13.5 -7.5q-13 -7 -30 -10q-12 -4 -31 -4q-28 0 -56 11q-27 12 -46 31q-19 20 -31 46q-11 28 -11 56
q0 20 5 38q2 10 5.5 18.5t8.5 16.5q10 15 23 30q7 6 14 11.5t16 10.5q16 9 34 15q17 4 38 4q8 0 16 -0.5t15 -2.5q8 -2 15 -4.5t15 -5.5q7 -4 13.5 -8t13.5 -9q13 -10 23 -21l-11 -12q-4 -4 -12 -8q-8 -3 -16 -3q-10 0 -19 6q-13 8 -25 12q-13 5 -28 5q-17 0 -35 -8
q-9 -3 -16 -8t-14 -11zM3298 -69q5 -8 8.5 -16.5t5.5 -18.5q3 -8 4 -18t1 -20t-1 -19.5t-4 -18.5q-4 -17 -14 -35q-9 -15 -23 -29q-7 -6 -14 -11.5t-16 -10.5q-8 -5 -16 -8.5t-18 -6.5q-20 -5 -38 -5q-29 0 -57 11q-13 6 -24.5 13.5t-20.5 17.5q-10 11 -18 22t-13 24
q-12 27 -12 56q0 20 5 38q5 17 15 35q5 8 10.5 15t12.5 15q6 6 13.5 11.5t15.5 10.5q17 9 34 15q17 4 39 4t38 -4q18 -6 34 -15q9 -5 16 -10.5t14 -11.5q7 -8 12.5 -15t10.5 -15zM3259 -178q3 9 5 18t2 18q0 17 -7 36q-9 17 -20 30q-15 14 -30 19q-18 8 -36 8t-36 -8
q-15 -5 -30 -19q-6 -7 -11 -14t-9 -16q-7 -15 -7 -36q0 -19 7 -36t20 -29q15 -13 30 -20t36 -7t36 7t30 20q6 6 10.5 13.5t9.5 15.5zM3609 -2q6 2 10 2h52v-283h-52v207q-3 -5 -4 -14q-2 -4 -2.5 -7.5t-2.5 -6.5q-9 -23 -18 -45t-19 -44q-9 -23 -18 -45t-19 -45h-47l-74 179
q-2 3 -3 6t-2 8q-1 3 -2 6.5t-2 5.5v-205h-52v283h51q4 0 12 -2q6 -2 9 -4q5 -3 8 -8q2 -2 6 -8q8 -22 16.5 -43.5t17.5 -42.5q8 -22 17 -43t17 -43q2 -2 2 -5q0 -2 0.5 -3t0.5 -3q1 -2 1 -6v-3q0 2 1 3q0 4 1 6q0 4 1 6q0 2 0.5 3t0.5 2l10 20l59 152q1 4 6 9q2 3 8 7
q4 2 10 4z" />
    <glyph glyph-name="eight" unicode="8" horiz-adv-x="4097" 
d="M2952 600q9 -8 16 -23q6 -14 6 -30q0 -14 -6 -29q-7 -14 -16 -23q-10 -10 -24 -16t-29 -6q-16 0 -29 6q-14 6 -24 16q-5 5 -9 11t-7 12q-6 15 -6 29q0 16 6 30q6 13 16 23q9 10 24 17q13 6 29 6q15 0 29 -6q15 -7 24 -17zM1109 577q-4 -6 -7 -10q-6 -4 -10 -6t-12 -2h-44
v61h44q6 0 12 -3q5 -1 10 -6q3 -3 7 -9q2 -8 2 -13q0 -4 -2 -12zM1479 600q10 -10 16 -23q6 -14 6 -30q0 -14 -6 -29q-3 -6 -7 -12t-9 -11q-10 -10 -24 -16t-29 -6q-16 0 -29 6q-14 6 -24 16q-9 9 -16 23q-6 15 -6 29q0 16 6 30q7 15 16 23q9 10 24 17q13 6 29 6q15 0 29 -6
q15 -7 24 -17zM1855 616q0 -6 2 -12l37 -84h-78l36 84q1 2 1 2.5t1 2.5q0 2 0.5 3.5t0.5 3.5zM784 610q3 -3 7 -11q3 -8 3 -14q0 -8 -3 -14q-4 -8 -7 -11q-6 -6 -11 -7q-4 -2 -7 -3t-7 -1h-44v71h44q6 0 14 -3q5 -1 11 -7zM3671 1084v-766h-3147v766h1193q0 80 30 151
q16 35 36.5 65t46.5 56q54 52 121 80q70 30 146 30q85 0 152 -32q70 -31 121 -84q26 -26 45.5 -56.5t34.5 -65.5q29 -70 29 -144h1192zM1774 1216q-26 -64 -26 -133q0 -71 27 -134q26 -62 74 -113q46 -47 111 -76q61 -29 137 -29q74 0 136 28q32 14 60 33t52 42t43 51t33 60
q27 64 27 138q0 67 -20 120q-19 53 -56 99q-35 42 -82 74q-24 14 -49.5 25.5t-51.5 19.5q-39 13 -92 13q-73 0 -139 -29q-64 -29 -111 -76q-45 -47 -73 -113zM817 561q5 12 5 24t-5 25q-4 9 -14 19q-8 9 -20 14q-10 5 -24 5h-71v-200h27v74h44q11 0 24 5q11 4 20 13
q10 10 14 21zM966 648h-124v-200h124v27h-96v60h78v28h-78v57h96v28zM1161 448l-63 86q10 3 16 8q9 6 13 13q5 5 9 16q2 5 2 9v9q0 14 -4 23q-2 5 -5.5 9.5t-7.5 9.5q-8 7 -18 12q-9 5 -23 5h-72v-200h28v83h30l52 -71q3 -5 10 -9q4 -3 15 -3h18zM1296 482q5 13 5 25
q0 27 -21 44q-6 4 -9 5q-2 2 -4.5 2.5t-4.5 2.5q-2 1 -5 1.5t-5 2.5q-2 0 -5 1t-5 2q-5 2 -9 3.5t-8 3.5q-9 3 -11 5q-5 5 -6 8q-2 3 -2 10t2 10q4 6 7 8q3 1 11 5q3 1 5.5 1.5t6.5 0.5q2 0 5 -1t5 -2q3 -1 6 -2.5t5 -3.5q6 -3 12 -3q9 0 14 5l7 5l-4.5 4.5l-5.5 5.5
q-3 2 -6 4.5t-7 4.5q-5 4 -15 7q-8 3 -16 3q-12 0 -22 -3q-6 -2 -10.5 -4.5t-9.5 -5.5q-8 -8 -13 -17q-5 -10 -5 -22q0 -15 5 -22q4 -9 12 -15q9 -7 18 -11q5 -2 10 -4.5t10 -4.5q3 -2 6.5 -2.5t7.5 -2.5q10 -4 13 -6q6 -4 10 -10q3 -5 3 -13q0 -9 -4 -14q-2 -6 -9 -11
q-3 -2 -6.5 -3.5t-6.5 -3.5q-5 -1 -8 -1.5t-7 -0.5q-6 0 -14 2q-9 3 -12 8l-3 1q-6 7 -15 7q-6 0 -11 -4l-7 -3q1 -1 1 -2t2 -2q0 -2 1 -3t2 -3t5 -6q3 -5 6 -6q17 -16 45 -16q15 0 27 4q13 5 21 13q10 8 16 19zM1525 520q3 15 3 27q0 14 -3 28q-2 7 -4.5 13t-6.5 12
q-3 5 -7 10l-8 10q-10 8 -22 16q-5 4 -11 6.5t-13 4.5q-14 3 -27 3q-15 0 -27 -3q-7 -2 -13 -4.5t-12 -6.5q-5 -4 -10 -7.5t-10 -8.5q-9 -8 -16 -20q-4 -6 -6.5 -12t-4.5 -13t-3 -13.5t-1 -14.5q0 -21 9 -39q4 -10 9.5 -17.5t12.5 -15.5q13 -13 32 -21q17 -8 40 -8
q8 0 14 0.5t13 2.5t13 4.5t11 6.5q11 5 22 15q4 5 8 10.5t7 10.5q4 6 6.5 12t4.5 12zM1735 648h-28v-156q0 5 -1 8t-3 6l-97 134q-3 4 -8 6q-8 2 -12 2h-20v-200h28v168v-4l2 -4q0 -2 2 -4l114 -156h23v200zM1956 448l-87 200h-27l-88 -200h16q6 0 12 3l4 4t4 5l14 32h102
l14 -32q3 -7 8 -9q3 -3 12 -3h16zM2090 475h-87v173h-27v-200h114v27zM2365 648h-28v-122q0 -12 -4 -21q-2 -5 -4.5 -9t-7.5 -7q-3 -5 -7 -7.5t-9 -4.5q-9 -4 -21 -4t-20 4q-5 2 -9.5 4.5t-7.5 7.5q-7 5 -12 16q-2 5 -3 10t-1 11v122h-27v-122v-11.5t2 -10.5t4 -9.5t4 -9.5
q3 -5 6 -9t8 -7q5 -6 15 -13q11 -5 20 -8q10 -3 21 -3t22 3q5 2 9.5 4t9.5 4q9 6 16 13q4 3 7 7t6 9q2 5 4 9.5t4 9.5q3 10 3 22v122zM2519 482q5 10 5 25q0 29 -21 44q-2 2 -4 3l-4 2l-10 5q-6 2 -10 4q-2 0 -4.5 1t-5.5 2q-5 2 -8.5 3.5t-7.5 3.5t-6.5 2.5t-4.5 2.5
q-6 4 -7 8q-2 6 -2 10q0 5 3 10q4 6 7 8q2 1 4.5 2t5.5 3q8 2 13 2q2 0 4.5 -1t5.5 -2l5 -2.5t6 -3.5q6 -3 12 -3q8 0 13 5l8 5l-10 10q-3 2 -6 4.5t-7 4.5q-3 2 -7 3.5t-8 3.5q-9 3 -16 3q-13 0 -23 -3q-5 -2 -9.5 -4.5t-9.5 -5.5q-4 -4 -7.5 -8t-5.5 -9q-6 -9 -6 -22
q0 -12 5 -22t13 -15q8 -7 17 -11l21 -9q4 -2 7 -2.5t7 -2.5q3 -2 6.5 -3t6.5 -3q6 -5 9 -10q4 -4 4 -13t-4 -14q-2 -5 -10 -11q-5 -4 -13 -7q-10 -2 -14 -2q-7 0 -15 2q-9 3 -12 8l-2 1q-6 7 -16 7q-6 0 -10 -4l-8 -3q1 -1 1.5 -2t1.5 -2l3 -6q4 -4 5 -6q3 -5 7 -6
q17 -16 45 -16q14 0 26 4q12 5 22 13q8 7 15 19zM2683 648h-124v-200h124v27h-97v60h78v28h-78v57h97v28zM2998 520q3 15 3 27q0 14 -3 28q-2 7 -4.5 13t-6.5 12q-7 12 -16 20q-5 5 -10 8.5t-10 7.5q-6 4 -12 6.5t-13 4.5q-12 3 -27 3q-14 0 -27 -3q-7 -2 -13 -4.5t-12 -6.5
q-5 -4 -10.5 -7.5t-10.5 -8.5t-8.5 -10t-7.5 -10q-5 -10 -10 -25q-3 -14 -3 -28q0 -10 1.5 -20t6.5 -19q4 -10 9 -17.5t12 -15.5q15 -14 33 -21q16 -8 40 -8q7 0 14 0.5t13 2.5q7 2 13 4.5t12 6.5q12 7 20 15q5 5 9 10.5t7 10.5q4 6 6.5 12t4.5 12zM3208 648h-28v-156
q-2 9 -5 14l-97 134q-3 5 -8 6q-6 2 -12 2h-20v-200h28v168l2 -4q0 -3 1 -4q0 -2 2 -4l114 -156h23v200zM3371 475h-87v173h-27v-200h114v27zM3530 648h-19q-10 0 -14 -3q-7 -3 -10 -10l-48 -64q1 0 -2 -3q0 -1 -1 -2v-1v3q0 3 -2 3l-47 64q-6 8 -10 10q-8 3 -15 3h-19
l72 -97q1 -1 1.5 -2t1.5 -2q2 -4 3 -5q0 -1 0.5 -2t0.5 -2v-6v-84h28v84q0 2 0.5 3t0.5 3q1 1 1 2t1 2t1 2t2 3q0 1 3 4zM1983 789q-53 21 -97 58h423q-43 -37 -97 -58q-51 -22 -115 -22q-63 0 -114 22zM1922 881l411 415q79 -103 79 -213q0 -57 -18 -108q-17 -49 -53 -94
h-419zM1861 871q-19 22 -33.5 46t-24.5 51q-11 26 -15.5 55t-4.5 60q0 57 18 108q8 26 21.5 48.5t30.5 44.5h419zM2212 1378q55 -23 95 -60h-422q22 20 46.5 34.5t50.5 25.5q27 11 55.5 16t59.5 5q62 0 115 -21zM530 116q-6 8 -10 22q-2 6 -3 12t-1 13q0 6 1 12t3 12
q3 14 10 23q7 12 14 19t19 14q5 3 10.5 5.5t11.5 4.5q12 3 25 3q10 0 19 -2t18 -5q8 -5 15.5 -9.5t13.5 -11.5l-4 -4q0 -1 -1 -1q-1 -1 -2 -1q-2 -2 -4 -2h-5q-6 0 -9 2q-5 3 -9.5 5.5t-9.5 4.5q-11 3 -22 3q-15 0 -28 -5q-15 -7 -23 -16q-9 -8 -16 -23q-6 -14 -6 -28
q0 -10 3 -19t7 -18q3 -5 6 -8t6 -7q4 -3 7.5 -6t7.5 -5q5 -2 9 -3.5t9 -3.5q9 -3 19 -3q12 0 24 3q6 2 11.5 4.5t10.5 5.5v38h-14q-2 0 -3.5 0.5t-3.5 0.5q-2 2 -6 4q-1 2 -2 3t-1 3q-2 4 -2 7v2h51v-71q-5 -7 -14 -11q-8 -4 -15 -5q-5 -2 -9 -2.5t-9 -1.5h-19q-13 0 -25 3
q-11 3 -22 9q-12 7 -19 15q-7 7 -14 19zM742 233v-59h72v-20h-72v-62h90v-20h-111v182h111v-21h-90zM912 72v161h-58v21h137v-21h-58v-161h-21zM1126 233v-63h76v-20h-76v-78h-21v182h111v-21h-90zM1271 254v-112q0 -12 4 -20q2 -5 5 -9l6 -8l8 -6t9 -5q9 -4 20 -4
q12 0 20 4q5 2 9 5l8 6q6 6 11 17q5 10 5 20v112h20v-112q0 -16 -6 -28q-3 -7 -6.5 -12.5t-8.5 -10.5q-9 -9 -23 -16q-15 -5 -29 -5q-13 0 -28 5q-15 7 -23 16q-9 8 -16 23q-3 6 -4 13t-1 15v112h20zM1455 254v-162h81v-20h-102v182h21zM1579 254v-162h81v-20h-101v182h20z
M1826 72l-79 182h11q4 0 10 -3l3.5 -3.5t2.5 -4.5l60 -136q0 -2 0.5 -3t0.5 -3q1 -3 1 -6v6q2 4 2 6q8 17 15 34t15 34t15 34t15 34q2 4 6 8q6 3 10 3h11q-10 -23 -20 -45.5t-20 -45.5t-19.5 -45.5t-19.5 -45.5h-20zM1961 233v-59h73v-20h-73v-62h90v-20h-111v182h111v-21
h-90zM2187 157q-8 -5 -16 -6l59 -79h-12q-9 0 -12 2q-6 3 -9 8l-51 68h-31v-78h-21v182h65q12 0 20 -4q9 -4 17 -11q7 -8 11 -17q4 -8 4 -20q0 -9 -3 -18q-4 -9 -8 -15q-3 -4 -6 -6.5t-7 -5.5zM2159 170q6 0 12 3q3 1 5.5 2.5t4.5 3.5q4 4 7 10l2 6t1 7q0 3 -1 6l-2 6
q-3 6 -7 10t-10 7q-8 2 -12 2h-44v-63h44zM2326 98q6 4 9 11q4 5 4 14t-3 15t-9 9q-4 4 -12 7q-4 1 -14 5q-5 2 -9.5 4t-9.5 4q-11 3 -16 9q-6 4 -11 13q-3 7 -3 20q0 11 5 19q3 9 12 15q4 3 8 5.5t9 4.5q9 3 19 3q5 0 15 -2q5 -2 13 -6q3 -2 5.5 -4t4.5 -4q3 -2 5 -4l4 -4
l-5 -4q-4 -4 -10 -4q-4 0 -10 2q-2 2 -3 2.5t-2 1.5q-2 1 -2.5 1.5t-2.5 1.5q-2 0 -3 0.5t-3 0.5q-2 1 -6 1q-5 0 -13 -2q-4 -1 -10 -5q-6 -6 -7 -9q-3 -5 -3 -10q0 -8 2 -11q1 -4 6 -7q6 -4 11 -6q4 -2 8 -3t9 -3q3 -2 9 -4t9 -4q6 -2 9 -4q2 -1 3.5 -2t3.5 -2q8 -8 14 -17
q2 -5 3 -10.5t1 -12.5q0 -10 -5 -22q-4 -8 -13 -17q-8 -7 -20 -10q-9 -4 -23 -4q-26 0 -40 14q-3 2 -5.5 5t-4.5 5q-4 6 -4 8l4 2q2 2 4 2q1 1 4 1q8 0 13 -5q6 -7 14 -9q7 -3 15 -3q4 0 7 0.5t7 1.5q7 1 13 6zM2421 254v-182h-21v182h21zM2491 97q-13 12 -20 29
q-8 19 -8 37q0 6 1 12t3 12q3 13 9 23q4 5 7 9.5t8 9.5q5 4 9.5 7.5t9.5 6.5q11 7 22 10q12 3 25 3t25 -3q6 -2 11.5 -4.5t10.5 -5.5t9.5 -6.5t9.5 -7.5q5 -5 8 -9.5t6 -9.5t5.5 -11t4.5 -12q3 -12 3 -24q0 -20 -7 -37q-8 -17 -20 -29q-14 -14 -30 -20q-15 -7 -36 -7
q-20 0 -37 7q-17 6 -29 20zM2490 191q-6 -14 -6 -28q0 -10 3 -19t7 -18q2 -5 5 -8t6 -7q4 -3 7.5 -6t7.5 -5q5 -2 9 -3.5t9 -3.5q7 -3 19 -3q10 0 19 3q5 2 9 3.5t9 3.5q7 4 14 11t11 15q5 7 8 18q2 5 2 9.5v9.5q0 14 -6 28q-5 14 -15 23q-8 9 -23 16q-13 5 -28 5
q-8 0 -14.5 -1.5t-14.5 -3.5q-14 -7 -23 -16t-15 -23zM2704 72h-20v182h14q12 0 16 -7l94 -132q2 -2 2 -3t1 -3t1 -5v150h21v-182h-19l-107 150l-1 2q-1 1 -1 3t-1 3v-158zM2986 233v-63h76v-20h-76v-78h-20v182h111v-21h-91zM3204 169q-2 -4 -5 -6.5t-7 -5.5q-8 -5 -16 -6
l59 -79h-12q-9 0 -13 2q-5 3 -8 8l-50 68h-33v-78h-20v182h64q12 0 21 -4t16 -11t12 -17q2 -5 3 -10t1 -10q0 -9 -3 -18q-4 -10 -9 -15zM3176 173q3 1 5.5 2.5t4.5 3.5q5 5 6 10q3 6 3 13q0 6 -3 12q-1 5 -6 10q-4 4 -10 7q-8 2 -13 2h-44v-63h44q7 0 13 3zM3413 97
q-14 -14 -30 -20q-15 -7 -37 -7q-9 0 -18.5 1.5t-17.5 5.5q-17 6 -29 20q-7 6 -11.5 13.5t-8.5 15.5q-8 19 -8 37q0 6 1 12t3 12q3 14 10 23q4 9 14 19q7 7 19 14q5 3 10.5 5.5t11.5 4.5q12 3 24 3q14 0 26 -3q6 -2 11 -4.5t10 -5.5q6 -3 10.5 -6.5t9.5 -7.5q5 -5 8 -9.5
t6 -9.5q6 -10 9 -23q4 -11 4 -24q0 -21 -8 -37q-6 -16 -19 -29zM3346 90q11 0 20 3q5 2 9 3.5t8 3.5q5 2 8 5t7 6q7 7 11 15q5 7 8 18q2 5 2 9.5v9.5q0 13 -5 28q-7 15 -16 23q-9 9 -23 16q-15 5 -29 5q-13 0 -28 -5q-13 -6 -22 -16q-9 -8 -16 -23q-6 -14 -6 -28
q0 -5 0.5 -9.5t1.5 -9.5q2 -5 4 -9t4 -9t5 -8l7 -7q6 -7 14 -11q4 -2 8 -3.5t9 -3.5q9 -3 19 -3zM3645 251q4 3 9 3h17v-182h-20v151q0 -1 -1 -1q0 -2 -1 -3v-3q0 -1 -1 -2q-5 -11 -9 -20.5t-8 -19.5q-5 -10 -9 -18.5t-7 -17.5q-4 -9 -8 -17.5t-7 -16.5q-4 -8 -7.5 -16
t-7.5 -16h-21q-8 17 -15.5 35t-15.5 35l-16 36l-16 36q-1 1 -1 4q-1 2 -1 4v-150h-20v182h16q4 0 9 -3q6 -3 6 -8l63 -141q0 -3 1 -4t1 -4q0 3 2 11q2 2 2.5 4.5t2.5 5.5l57 128q1 5 6 8zM524 0h210v-23q0 -10 -1 -14q-3 -8 -6 -12l-141 -189l4 2l4 2q1 0 1.5 0.5t2.5 0.5
h135v-50h-217v16q0 5 2 13t4 13q2 3 3 5.5t3 5.5q5 5 8 11l125 169h-137v50zM769 0h182v-50h-130v-65h105v-50h-105v-68h130v-50h-182v283zM1179 -50h-83v-233h-52v233h-83v50h218v-50zM1307 0l123 -283h-32q-11 0 -20 6q-7 5 -14 15l-16 39h-129l-17 -39q-2 -5 -5 -8
q-2 -3 -8 -7t-10 -4q-3 -2 -10 -2h-33l124 283h47zM1325 -172l-37 86q-2 3 -2.5 6t-1.5 5q0 6 -1 8q0 -5 -1 -8q0 -2 -1 -5l-2 -6l-37 -86h83zM1442 0h181v-50h-130v-71h109v-50h-109v-112h-51v283zM1910 -69q5 -8 8.5 -16.5t5.5 -18.5q3 -8 4 -18t1 -20t-1 -19.5t-4 -18.5
q-4 -17 -14 -35q-9 -15 -23 -29q-6 -6 -13.5 -11.5t-15.5 -10.5t-16.5 -8.5t-17.5 -6.5q-10 -2 -19 -3.5t-20 -1.5q-29 0 -56 11q-27 12 -46 31q-10 11 -18 22t-13 24q-11 25 -11 56q0 10 1 20t3 18q5 17 15 35q5 8 10.5 15t12.5 15q14 12 29 22q17 9 34 15q17 4 39 4t39 -4
q17 -6 34 -15q8 -5 15.5 -10.5t13.5 -11.5q7 -8 12.5 -15t10.5 -15zM1871 -178q3 9 5 18t2 18q0 17 -7 36q-4 9 -9 16t-11 14q-15 14 -30 19q-18 8 -36 8t-36 -8q-16 -6 -29 -19q-12 -12 -21 -30q-7 -19 -7 -36q0 -9 2 -18t5 -18q5 -8 9.5 -15.5t11.5 -13.5q12 -13 29 -20
q15 -7 36 -7t36 7t30 20q12 12 20 29zM2166 0h52v-283h-48l-135 189q-3 2 -4 7q-2 2 -3 3.5t-2 3.5t-2 3.5t-2 3.5l-3 6v-216h-52v283h46q10 0 16 -3q8 -3 11 -9q15 -20 30 -41t29 -42l30 -42t29 -41q4 -6 6 -12q2 -8 2 -9v199zM2242 0h218v-50h-83v-233h-52v233h-83v50z
M2639 -145q8 -8 13 -23q5 -13 5 -28q0 -18 -8 -36q-9 -17 -22 -29q-15 -12 -33 -18q-9 -3 -18.5 -5t-18.5 -2q-11 0 -20.5 2t-19.5 5q-9 5 -16.5 9.5t-15.5 11.5q-5 5 -8 9t-6 9t-4.5 8.5t-3.5 7.5q2 1 3.5 2t3.5 2t3.5 2t3.5 2q6 2 8 3q2 0 4.5 0.5t4.5 0.5q6 0 12 -3
q8 -2 13 -4q9 -7 17 -10q8 -5 21 -5q3 0 7 0.5t9 1.5q4 2 8 3.5t7 3.5q9 6 12 13q6 7 6 17q0 7 -5 14q-4 5 -12 10q-6 4 -16 7q-5 2 -9 4t-9 4q-13 4 -29 11q-8 3 -14 7t-12 9q-12 10 -17 22q-7 13 -7 32q0 10 2 18t5 16q5 7 9.5 12.5t10.5 10.5q13 10 29 16q13 4 32 4
q13 0 24 -4q6 -2 11.5 -4.5t10.5 -5.5t9.5 -7t9.5 -8q10 -8 15 -16l-10 -8q-7 -5 -14 -8q-5 -2 -8 -2h-7h-3h-4q-6 2 -10 4q-6 2 -8 4q-2 0 -4 1t-4 1q-6 2 -8 2q-4 0 -7 -0.5t-7 -1.5q-5 -1 -11 -5q-6 -3 -9 -8q-2 -3 -2 -11t2 -11t4.5 -5t4.5 -4q6 -4 16 -7q5 -2 11 -4
t13 -4l9 -3q18 -6 29 -14q14 -9 22 -18zM2726 -233q5 -5 6 -10q3 -5 3 -12q0 -8 -3 -12q-1 -5 -6 -10q-4 -4 -10 -6q-6 -3 -13 -3t-11 3q-7 2 -11 6t-7 10q-2 6 -2 12t2 12q3 6 7 10t11 6q4 3 11 3t13 -3q6 -2 10 -6zM2833 -76q-13 -13 -20 -30q-8 -18 -8 -36q0 -17 8 -36
q4 -8 8.5 -15.5t11.5 -13.5t14 -11t16 -9q15 -7 35 -7q8 0 15 1t13 3q14 5 25 13q6 2 9 4q3 1 10 1q10 0 16 -3q8 -4 12 -8l11 -11q-12 -14 -23 -22q-7 -5 -13.5 -8.5t-13.5 -7.5q-13 -7 -30 -10q-12 -4 -31 -4q-28 0 -56 11q-27 12 -46 31q-19 20 -31 46q-11 28 -11 56
q0 20 5 38q2 10 5.5 18.5t8.5 16.5q10 15 23 30q7 6 14 11.5t16 10.5q16 9 34 15q17 4 38 4q8 0 16 -0.5t15 -2.5q8 -2 15 -4.5t15 -5.5q7 -4 13.5 -8t13.5 -9q13 -10 23 -21l-11 -12q-4 -4 -12 -8q-8 -3 -16 -3q-10 0 -19 6q-13 8 -25 12q-13 5 -28 5q-17 0 -35 -8
q-9 -3 -16 -8t-14 -11zM3298 -69q5 -8 8.5 -16.5t5.5 -18.5q3 -8 4 -18t1 -20t-1 -19.5t-4 -18.5q-4 -17 -14 -35q-9 -15 -23 -29q-7 -6 -14 -11.5t-16 -10.5q-8 -5 -16 -8.5t-18 -6.5q-20 -5 -38 -5q-29 0 -57 11q-13 6 -24.5 13.5t-20.5 17.5q-10 11 -18 22t-13 24
q-12 27 -12 56q0 20 5 38q5 17 15 35q5 8 10.5 15t12.5 15q6 6 13.5 11.5t15.5 10.5q17 9 34 15q17 4 39 4t38 -4q18 -6 34 -15q9 -5 16 -10.5t14 -11.5q7 -8 12.5 -15t10.5 -15zM3259 -178q3 9 5 18t2 18q0 17 -7 36q-9 17 -20 30q-15 14 -30 19q-18 8 -36 8t-36 -8
q-15 -5 -30 -19q-6 -7 -11 -14t-9 -16q-7 -15 -7 -36q0 -19 7 -36t20 -29q15 -13 30 -20t36 -7t36 7t30 20q6 6 10.5 13.5t9.5 15.5zM3609 -2q6 2 10 2h52v-283h-52v207q-3 -5 -4 -14q-2 -4 -2.5 -7.5t-2.5 -6.5q-9 -23 -18 -45t-19 -44q-9 -23 -18 -45t-19 -45h-47l-74 179
q-2 3 -3 6t-2 8q-1 3 -2 6.5t-2 5.5v-205h-52v283h51q4 0 12 -2q6 -2 9 -4q5 -3 8 -8q2 -2 6 -8q8 -22 16.5 -43.5t17.5 -42.5q8 -22 17 -43t17 -43q2 -2 2 -5q0 -2 0.5 -3t0.5 -3q1 -2 1 -6v-3q0 2 1 3q0 4 1 6q0 4 1 6q0 2 0.5 3t0.5 2l10 20l59 152q1 4 6 9q2 3 8 7
q4 2 10 4z" />
    <glyph glyph-name="nine" unicode="9" horiz-adv-x="4097" 
d="M2952 600q9 -8 16 -23q6 -14 6 -30q0 -14 -6 -29q-7 -14 -16 -23q-10 -10 -24 -16t-29 -6q-16 0 -29 6q-14 6 -24 16q-5 5 -9 11t-7 12q-6 15 -6 29q0 16 6 30q6 13 16 23q9 10 24 17q13 6 29 6q15 0 29 -6q15 -7 24 -17zM1109 577q-4 -6 -7 -10q-6 -4 -10 -6t-12 -2h-44
v61h44q6 0 12 -3q5 -1 10 -6q3 -3 7 -9q2 -8 2 -13q0 -4 -2 -12zM1479 600q10 -10 16 -23q6 -14 6 -30q0 -14 -6 -29q-3 -6 -7 -12t-9 -11q-10 -10 -24 -16t-29 -6q-16 0 -29 6q-14 6 -24 16q-9 9 -16 23q-6 15 -6 29q0 16 6 30q7 15 16 23q9 10 24 17q13 6 29 6q15 0 29 -6
q15 -7 24 -17zM1855 616q0 -6 2 -12l37 -84h-78l36 84q1 2 1 2.5t1 2.5q0 2 0.5 3.5t0.5 3.5zM784 610q3 -3 7 -11q3 -8 3 -14q0 -8 -3 -14q-4 -8 -7 -11q-6 -6 -11 -7q-4 -2 -7 -3t-7 -1h-44v71h44q6 0 14 -3q5 -1 11 -7zM3671 1084v-766h-3147v766h1193q0 80 30 151
q16 35 36.5 65t46.5 56q54 52 121 80q70 30 146 30q85 0 152 -32q70 -31 121 -84q26 -26 45.5 -56.5t34.5 -65.5q29 -70 29 -144h1192zM1774 1216q-26 -64 -26 -133q0 -71 27 -134q26 -62 74 -113q46 -47 111 -76q61 -29 137 -29q74 0 136 28q32 14 60 33t52 42t43 51t33 60
q27 64 27 138q0 67 -20 120q-19 53 -56 99q-35 42 -82 74q-24 14 -49.5 25.5t-51.5 19.5q-39 13 -92 13q-73 0 -139 -29q-64 -29 -111 -76q-45 -47 -73 -113zM817 561q5 12 5 24t-5 25q-4 9 -14 19q-8 9 -20 14q-10 5 -24 5h-71v-200h27v74h44q11 0 24 5q11 4 20 13
q10 10 14 21zM966 648h-124v-200h124v27h-96v60h78v28h-78v57h96v28zM1161 448l-63 86q10 3 16 8q9 6 13 13q5 5 9 16q2 5 2 9v9q0 14 -4 23q-2 5 -5.5 9.5t-7.5 9.5q-8 7 -18 12q-9 5 -23 5h-72v-200h28v83h30l52 -71q3 -5 10 -9q4 -3 15 -3h18zM1296 482q5 13 5 25
q0 27 -21 44q-6 4 -9 5q-2 2 -4.5 2.5t-4.5 2.5q-2 1 -5 1.5t-5 2.5q-2 0 -5 1t-5 2q-5 2 -9 3.5t-8 3.5q-9 3 -11 5q-5 5 -6 8q-2 3 -2 10t2 10q4 6 7 8q3 1 11 5q3 1 5.5 1.5t6.5 0.5q2 0 5 -1t5 -2q3 -1 6 -2.5t5 -3.5q6 -3 12 -3q9 0 14 5l7 5l-4.5 4.5l-5.5 5.5
q-3 2 -6 4.5t-7 4.5q-5 4 -15 7q-8 3 -16 3q-12 0 -22 -3q-6 -2 -10.5 -4.5t-9.5 -5.5q-8 -8 -13 -17q-5 -10 -5 -22q0 -15 5 -22q4 -9 12 -15q9 -7 18 -11q5 -2 10 -4.5t10 -4.5q3 -2 6.5 -2.5t7.5 -2.5q10 -4 13 -6q6 -4 10 -10q3 -5 3 -13q0 -9 -4 -14q-2 -6 -9 -11
q-3 -2 -6.5 -3.5t-6.5 -3.5q-5 -1 -8 -1.5t-7 -0.5q-6 0 -14 2q-9 3 -12 8l-3 1q-6 7 -15 7q-6 0 -11 -4l-7 -3q1 -1 1 -2t2 -2q0 -2 1 -3t2 -3t5 -6q3 -5 6 -6q17 -16 45 -16q15 0 27 4q13 5 21 13q10 8 16 19zM1525 520q3 15 3 27q0 14 -3 28q-2 7 -4.5 13t-6.5 12
q-3 5 -7 10l-8 10q-10 8 -22 16q-5 4 -11 6.5t-13 4.5q-14 3 -27 3q-15 0 -27 -3q-7 -2 -13 -4.5t-12 -6.5q-5 -4 -10 -7.5t-10 -8.5q-9 -8 -16 -20q-4 -6 -6.5 -12t-4.5 -13t-3 -13.5t-1 -14.5q0 -21 9 -39q4 -10 9.5 -17.5t12.5 -15.5q13 -13 32 -21q17 -8 40 -8
q8 0 14 0.5t13 2.5t13 4.5t11 6.5q11 5 22 15q4 5 8 10.5t7 10.5q4 6 6.5 12t4.5 12zM1735 648h-28v-156q0 5 -1 8t-3 6l-97 134q-3 4 -8 6q-8 2 -12 2h-20v-200h28v168v-4l2 -4q0 -2 2 -4l114 -156h23v200zM1956 448l-87 200h-27l-88 -200h16q6 0 12 3l4 4t4 5l14 32h102
l14 -32q3 -7 8 -9q3 -3 12 -3h16zM2090 475h-87v173h-27v-200h114v27zM2365 648h-28v-122q0 -12 -4 -21q-2 -5 -4.5 -9t-7.5 -7q-3 -5 -7 -7.5t-9 -4.5q-9 -4 -21 -4t-20 4q-5 2 -9.5 4.5t-7.5 7.5q-7 5 -12 16q-2 5 -3 10t-1 11v122h-27v-122v-11.5t2 -10.5t4 -9.5t4 -9.5
q3 -5 6 -9t8 -7q5 -6 15 -13q11 -5 20 -8q10 -3 21 -3t22 3q5 2 9.5 4t9.5 4q9 6 16 13q4 3 7 7t6 9q2 5 4 9.5t4 9.5q3 10 3 22v122zM2519 482q5 10 5 25q0 29 -21 44q-2 2 -4 3l-4 2l-10 5q-6 2 -10 4q-2 0 -4.5 1t-5.5 2q-5 2 -8.5 3.5t-7.5 3.5t-6.5 2.5t-4.5 2.5
q-6 4 -7 8q-2 6 -2 10q0 5 3 10q4 6 7 8q2 1 4.5 2t5.5 3q8 2 13 2q2 0 4.5 -1t5.5 -2l5 -2.5t6 -3.5q6 -3 12 -3q8 0 13 5l8 5l-10 10q-3 2 -6 4.5t-7 4.5q-3 2 -7 3.5t-8 3.5q-9 3 -16 3q-13 0 -23 -3q-5 -2 -9.5 -4.5t-9.5 -5.5q-4 -4 -7.5 -8t-5.5 -9q-6 -9 -6 -22
q0 -12 5 -22t13 -15q8 -7 17 -11l21 -9q4 -2 7 -2.5t7 -2.5q3 -2 6.5 -3t6.5 -3q6 -5 9 -10q4 -4 4 -13t-4 -14q-2 -5 -10 -11q-5 -4 -13 -7q-10 -2 -14 -2q-7 0 -15 2q-9 3 -12 8l-2 1q-6 7 -16 7q-6 0 -10 -4l-8 -3q1 -1 1.5 -2t1.5 -2l3 -6q4 -4 5 -6q3 -5 7 -6
q17 -16 45 -16q14 0 26 4q12 5 22 13q8 7 15 19zM2683 648h-124v-200h124v27h-97v60h78v28h-78v57h97v28zM2998 520q3 15 3 27q0 14 -3 28q-2 7 -4.5 13t-6.5 12q-7 12 -16 20q-5 5 -10 8.5t-10 7.5q-6 4 -12 6.5t-13 4.5q-12 3 -27 3q-14 0 -27 -3q-7 -2 -13 -4.5t-12 -6.5
q-5 -4 -10.5 -7.5t-10.5 -8.5t-8.5 -10t-7.5 -10q-5 -10 -10 -25q-3 -14 -3 -28q0 -10 1.5 -20t6.5 -19q4 -10 9 -17.5t12 -15.5q15 -14 33 -21q16 -8 40 -8q7 0 14 0.5t13 2.5q7 2 13 4.5t12 6.5q12 7 20 15q5 5 9 10.5t7 10.5q4 6 6.5 12t4.5 12zM3208 648h-28v-156
q-2 9 -5 14l-97 134q-3 5 -8 6q-6 2 -12 2h-20v-200h28v168l2 -4q0 -3 1 -4q0 -2 2 -4l114 -156h23v200zM3371 475h-87v173h-27v-200h114v27zM3530 648h-19q-10 0 -14 -3q-7 -3 -10 -10l-48 -64q1 0 -2 -3q0 -1 -1 -2v-1v3q0 3 -2 3l-47 64q-6 8 -10 10q-8 3 -15 3h-19
l72 -97q1 -1 1.5 -2t1.5 -2q2 -4 3 -5q0 -1 0.5 -2t0.5 -2v-6v-84h28v84q0 2 0.5 3t0.5 3q1 1 1 2t1 2t1 2t2 3q0 1 3 4zM1983 789q-53 21 -97 58h423q-43 -37 -97 -58q-51 -22 -115 -22q-63 0 -114 22zM1922 881l411 415q79 -103 79 -213q0 -57 -18 -108q-17 -49 -53 -94
h-419zM1861 871q-19 22 -33.5 46t-24.5 51q-11 26 -15.5 55t-4.5 60q0 57 18 108q8 26 21.5 48.5t30.5 44.5h419zM2212 1378q55 -23 95 -60h-422q22 20 46.5 34.5t50.5 25.5q27 11 55.5 16t59.5 5q62 0 115 -21zM530 116q-6 8 -10 22q-2 6 -3 12t-1 13q0 6 1 12t3 12
q3 14 10 23q7 12 14 19t19 14q5 3 10.5 5.5t11.5 4.5q12 3 25 3q10 0 19 -2t18 -5q8 -5 15.5 -9.5t13.5 -11.5l-4 -4q0 -1 -1 -1q-1 -1 -2 -1q-2 -2 -4 -2h-5q-6 0 -9 2q-5 3 -9.5 5.5t-9.5 4.5q-11 3 -22 3q-15 0 -28 -5q-15 -7 -23 -16q-9 -8 -16 -23q-6 -14 -6 -28
q0 -10 3 -19t7 -18q3 -5 6 -8t6 -7q4 -3 7.5 -6t7.5 -5q5 -2 9 -3.5t9 -3.5q9 -3 19 -3q12 0 24 3q6 2 11.5 4.5t10.5 5.5v38h-14q-2 0 -3.5 0.5t-3.5 0.5q-2 2 -6 4q-1 2 -2 3t-1 3q-2 4 -2 7v2h51v-71q-5 -7 -14 -11q-8 -4 -15 -5q-5 -2 -9 -2.5t-9 -1.5h-19q-13 0 -25 3
q-11 3 -22 9q-12 7 -19 15q-7 7 -14 19zM742 233v-59h72v-20h-72v-62h90v-20h-111v182h111v-21h-90zM912 72v161h-58v21h137v-21h-58v-161h-21zM1126 233v-63h76v-20h-76v-78h-21v182h111v-21h-90zM1271 254v-112q0 -12 4 -20q2 -5 5 -9l6 -8l8 -6t9 -5q9 -4 20 -4
q12 0 20 4q5 2 9 5l8 6q6 6 11 17q5 10 5 20v112h20v-112q0 -16 -6 -28q-3 -7 -6.5 -12.5t-8.5 -10.5q-9 -9 -23 -16q-15 -5 -29 -5q-13 0 -28 5q-15 7 -23 16q-9 8 -16 23q-3 6 -4 13t-1 15v112h20zM1455 254v-162h81v-20h-102v182h21zM1579 254v-162h81v-20h-101v182h20z
M1826 72l-79 182h11q4 0 10 -3l3.5 -3.5t2.5 -4.5l60 -136q0 -2 0.5 -3t0.5 -3q1 -3 1 -6v6q2 4 2 6q8 17 15 34t15 34t15 34t15 34q2 4 6 8q6 3 10 3h11q-10 -23 -20 -45.5t-20 -45.5t-19.5 -45.5t-19.5 -45.5h-20zM1961 233v-59h73v-20h-73v-62h90v-20h-111v182h111v-21
h-90zM2187 157q-8 -5 -16 -6l59 -79h-12q-9 0 -12 2q-6 3 -9 8l-51 68h-31v-78h-21v182h65q12 0 20 -4q9 -4 17 -11q7 -8 11 -17q4 -8 4 -20q0 -9 -3 -18q-4 -9 -8 -15q-3 -4 -6 -6.5t-7 -5.5zM2159 170q6 0 12 3q3 1 5.5 2.5t4.5 3.5q4 4 7 10l2 6t1 7q0 3 -1 6l-2 6
q-3 6 -7 10t-10 7q-8 2 -12 2h-44v-63h44zM2326 98q6 4 9 11q4 5 4 14t-3 15t-9 9q-4 4 -12 7q-4 1 -14 5q-5 2 -9.5 4t-9.5 4q-11 3 -16 9q-6 4 -11 13q-3 7 -3 20q0 11 5 19q3 9 12 15q4 3 8 5.5t9 4.5q9 3 19 3q5 0 15 -2q5 -2 13 -6q3 -2 5.5 -4t4.5 -4q3 -2 5 -4l4 -4
l-5 -4q-4 -4 -10 -4q-4 0 -10 2q-2 2 -3 2.5t-2 1.5q-2 1 -2.5 1.5t-2.5 1.5q-2 0 -3 0.5t-3 0.5q-2 1 -6 1q-5 0 -13 -2q-4 -1 -10 -5q-6 -6 -7 -9q-3 -5 -3 -10q0 -8 2 -11q1 -4 6 -7q6 -4 11 -6q4 -2 8 -3t9 -3q3 -2 9 -4t9 -4q6 -2 9 -4q2 -1 3.5 -2t3.5 -2q8 -8 14 -17
q2 -5 3 -10.5t1 -12.5q0 -10 -5 -22q-4 -8 -13 -17q-8 -7 -20 -10q-9 -4 -23 -4q-26 0 -40 14q-3 2 -5.5 5t-4.5 5q-4 6 -4 8l4 2q2 2 4 2q1 1 4 1q8 0 13 -5q6 -7 14 -9q7 -3 15 -3q4 0 7 0.5t7 1.5q7 1 13 6zM2421 254v-182h-21v182h21zM2491 97q-13 12 -20 29
q-8 19 -8 37q0 6 1 12t3 12q3 13 9 23q4 5 7 9.5t8 9.5q5 4 9.5 7.5t9.5 6.5q11 7 22 10q12 3 25 3t25 -3q6 -2 11.5 -4.5t10.5 -5.5t9.5 -6.5t9.5 -7.5q5 -5 8 -9.5t6 -9.5t5.5 -11t4.5 -12q3 -12 3 -24q0 -20 -7 -37q-8 -17 -20 -29q-14 -14 -30 -20q-15 -7 -36 -7
q-20 0 -37 7q-17 6 -29 20zM2490 191q-6 -14 -6 -28q0 -10 3 -19t7 -18q2 -5 5 -8t6 -7q4 -3 7.5 -6t7.5 -5q5 -2 9 -3.5t9 -3.5q7 -3 19 -3q10 0 19 3q5 2 9 3.5t9 3.5q7 4 14 11t11 15q5 7 8 18q2 5 2 9.5v9.5q0 14 -6 28q-5 14 -15 23q-8 9 -23 16q-13 5 -28 5
q-8 0 -14.5 -1.5t-14.5 -3.5q-14 -7 -23 -16t-15 -23zM2704 72h-20v182h14q12 0 16 -7l94 -132q2 -2 2 -3t1 -3t1 -5v150h21v-182h-19l-107 150l-1 2q-1 1 -1 3t-1 3v-158zM2986 233v-63h76v-20h-76v-78h-20v182h111v-21h-91zM3204 169q-2 -4 -5 -6.5t-7 -5.5q-8 -5 -16 -6
l59 -79h-12q-9 0 -13 2q-5 3 -8 8l-50 68h-33v-78h-20v182h64q12 0 21 -4t16 -11t12 -17q2 -5 3 -10t1 -10q0 -9 -3 -18q-4 -10 -9 -15zM3176 173q3 1 5.5 2.5t4.5 3.5q5 5 6 10q3 6 3 13q0 6 -3 12q-1 5 -6 10q-4 4 -10 7q-8 2 -13 2h-44v-63h44q7 0 13 3zM3413 97
q-14 -14 -30 -20q-15 -7 -37 -7q-9 0 -18.5 1.5t-17.5 5.5q-17 6 -29 20q-7 6 -11.5 13.5t-8.5 15.5q-8 19 -8 37q0 6 1 12t3 12q3 14 10 23q4 9 14 19q7 7 19 14q5 3 10.5 5.5t11.5 4.5q12 3 24 3q14 0 26 -3q6 -2 11 -4.5t10 -5.5q6 -3 10.5 -6.5t9.5 -7.5q5 -5 8 -9.5
t6 -9.5q6 -10 9 -23q4 -11 4 -24q0 -21 -8 -37q-6 -16 -19 -29zM3346 90q11 0 20 3q5 2 9 3.5t8 3.5q5 2 8 5t7 6q7 7 11 15q5 7 8 18q2 5 2 9.5v9.5q0 13 -5 28q-7 15 -16 23q-9 9 -23 16q-15 5 -29 5q-13 0 -28 -5q-13 -6 -22 -16q-9 -8 -16 -23q-6 -14 -6 -28
q0 -5 0.5 -9.5t1.5 -9.5q2 -5 4 -9t4 -9t5 -8l7 -7q6 -7 14 -11q4 -2 8 -3.5t9 -3.5q9 -3 19 -3zM3645 251q4 3 9 3h17v-182h-20v151q0 -1 -1 -1q0 -2 -1 -3v-3q0 -1 -1 -2q-5 -11 -9 -20.5t-8 -19.5q-5 -10 -9 -18.5t-7 -17.5q-4 -9 -8 -17.5t-7 -16.5q-4 -8 -7.5 -16
t-7.5 -16h-21q-8 17 -15.5 35t-15.5 35l-16 36l-16 36q-1 1 -1 4q-1 2 -1 4v-150h-20v182h16q4 0 9 -3q6 -3 6 -8l63 -141q0 -3 1 -4t1 -4q0 3 2 11q2 2 2.5 4.5t2.5 5.5l57 128q1 5 6 8zM524 0h210v-23q0 -10 -1 -14q-3 -8 -6 -12l-141 -189l4 2l4 2q1 0 1.5 0.5t2.5 0.5
h135v-50h-217v16q0 5 2 13t4 13q2 3 3 5.5t3 5.5q5 5 8 11l125 169h-137v50zM769 0h182v-50h-130v-65h105v-50h-105v-68h130v-50h-182v283zM1179 -50h-83v-233h-52v233h-83v50h218v-50zM1307 0l123 -283h-32q-11 0 -20 6q-7 5 -14 15l-16 39h-129l-17 -39q-2 -5 -5 -8
q-2 -3 -8 -7t-10 -4q-3 -2 -10 -2h-33l124 283h47zM1325 -172l-37 86q-2 3 -2.5 6t-1.5 5q0 6 -1 8q0 -5 -1 -8q0 -2 -1 -5l-2 -6l-37 -86h83zM1442 0h181v-50h-130v-71h109v-50h-109v-112h-51v283zM1910 -69q5 -8 8.5 -16.5t5.5 -18.5q3 -8 4 -18t1 -20t-1 -19.5t-4 -18.5
q-4 -17 -14 -35q-9 -15 -23 -29q-6 -6 -13.5 -11.5t-15.5 -10.5t-16.5 -8.5t-17.5 -6.5q-10 -2 -19 -3.5t-20 -1.5q-29 0 -56 11q-27 12 -46 31q-10 11 -18 22t-13 24q-11 25 -11 56q0 10 1 20t3 18q5 17 15 35q5 8 10.5 15t12.5 15q14 12 29 22q17 9 34 15q17 4 39 4t39 -4
q17 -6 34 -15q8 -5 15.5 -10.5t13.5 -11.5q7 -8 12.5 -15t10.5 -15zM1871 -178q3 9 5 18t2 18q0 17 -7 36q-4 9 -9 16t-11 14q-15 14 -30 19q-18 8 -36 8t-36 -8q-16 -6 -29 -19q-12 -12 -21 -30q-7 -19 -7 -36q0 -9 2 -18t5 -18q5 -8 9.5 -15.5t11.5 -13.5q12 -13 29 -20
q15 -7 36 -7t36 7t30 20q12 12 20 29zM2166 0h52v-283h-48l-135 189q-3 2 -4 7q-2 2 -3 3.5t-2 3.5t-2 3.5t-2 3.5l-3 6v-216h-52v283h46q10 0 16 -3q8 -3 11 -9q15 -20 30 -41t29 -42l30 -42t29 -41q4 -6 6 -12q2 -8 2 -9v199zM2242 0h218v-50h-83v-233h-52v233h-83v50z
M2639 -145q8 -8 13 -23q5 -13 5 -28q0 -18 -8 -36q-9 -17 -22 -29q-15 -12 -33 -18q-9 -3 -18.5 -5t-18.5 -2q-11 0 -20.5 2t-19.5 5q-9 5 -16.5 9.5t-15.5 11.5q-5 5 -8 9t-6 9t-4.5 8.5t-3.5 7.5q2 1 3.5 2t3.5 2t3.5 2t3.5 2q6 2 8 3q2 0 4.5 0.5t4.5 0.5q6 0 12 -3
q8 -2 13 -4q9 -7 17 -10q8 -5 21 -5q3 0 7 0.5t9 1.5q4 2 8 3.5t7 3.5q9 6 12 13q6 7 6 17q0 7 -5 14q-4 5 -12 10q-6 4 -16 7q-5 2 -9 4t-9 4q-13 4 -29 11q-8 3 -14 7t-12 9q-12 10 -17 22q-7 13 -7 32q0 10 2 18t5 16q5 7 9.5 12.5t10.5 10.5q13 10 29 16q13 4 32 4
q13 0 24 -4q6 -2 11.5 -4.5t10.5 -5.5t9.5 -7t9.5 -8q10 -8 15 -16l-10 -8q-7 -5 -14 -8q-5 -2 -8 -2h-7h-3h-4q-6 2 -10 4q-6 2 -8 4q-2 0 -4 1t-4 1q-6 2 -8 2q-4 0 -7 -0.5t-7 -1.5q-5 -1 -11 -5q-6 -3 -9 -8q-2 -3 -2 -11t2 -11t4.5 -5t4.5 -4q6 -4 16 -7q5 -2 11 -4
t13 -4l9 -3q18 -6 29 -14q14 -9 22 -18zM2726 -233q5 -5 6 -10q3 -5 3 -12q0 -8 -3 -12q-1 -5 -6 -10q-4 -4 -10 -6q-6 -3 -13 -3t-11 3q-7 2 -11 6t-7 10q-2 6 -2 12t2 12q3 6 7 10t11 6q4 3 11 3t13 -3q6 -2 10 -6zM2833 -76q-13 -13 -20 -30q-8 -18 -8 -36q0 -17 8 -36
q4 -8 8.5 -15.5t11.5 -13.5t14 -11t16 -9q15 -7 35 -7q8 0 15 1t13 3q14 5 25 13q6 2 9 4q3 1 10 1q10 0 16 -3q8 -4 12 -8l11 -11q-12 -14 -23 -22q-7 -5 -13.5 -8.5t-13.5 -7.5q-13 -7 -30 -10q-12 -4 -31 -4q-28 0 -56 11q-27 12 -46 31q-19 20 -31 46q-11 28 -11 56
q0 20 5 38q2 10 5.5 18.5t8.5 16.5q10 15 23 30q7 6 14 11.5t16 10.5q16 9 34 15q17 4 38 4q8 0 16 -0.5t15 -2.5q8 -2 15 -4.5t15 -5.5q7 -4 13.5 -8t13.5 -9q13 -10 23 -21l-11 -12q-4 -4 -12 -8q-8 -3 -16 -3q-10 0 -19 6q-13 8 -25 12q-13 5 -28 5q-17 0 -35 -8
q-9 -3 -16 -8t-14 -11zM3298 -69q5 -8 8.5 -16.5t5.5 -18.5q3 -8 4 -18t1 -20t-1 -19.5t-4 -18.5q-4 -17 -14 -35q-9 -15 -23 -29q-7 -6 -14 -11.5t-16 -10.5q-8 -5 -16 -8.5t-18 -6.5q-20 -5 -38 -5q-29 0 -57 11q-13 6 -24.5 13.5t-20.5 17.5q-10 11 -18 22t-13 24
q-12 27 -12 56q0 20 5 38q5 17 15 35q5 8 10.5 15t12.5 15q6 6 13.5 11.5t15.5 10.5q17 9 34 15q17 4 39 4t38 -4q18 -6 34 -15q9 -5 16 -10.5t14 -11.5q7 -8 12.5 -15t10.5 -15zM3259 -178q3 9 5 18t2 18q0 17 -7 36q-9 17 -20 30q-15 14 -30 19q-18 8 -36 8t-36 -8
q-15 -5 -30 -19q-6 -7 -11 -14t-9 -16q-7 -15 -7 -36q0 -19 7 -36t20 -29q15 -13 30 -20t36 -7t36 7t30 20q6 6 10.5 13.5t9.5 15.5zM3609 -2q6 2 10 2h52v-283h-52v207q-3 -5 -4 -14q-2 -4 -2.5 -7.5t-2.5 -6.5q-9 -23 -18 -45t-19 -44q-9 -23 -18 -45t-19 -45h-47l-74 179
q-2 3 -3 6t-2 8q-1 3 -2 6.5t-2 5.5v-205h-52v283h51q4 0 12 -2q6 -2 9 -4q5 -3 8 -8q2 -2 6 -8q8 -22 16.5 -43.5t17.5 -42.5q8 -22 17 -43t17 -43q2 -2 2 -5q0 -2 0.5 -3t0.5 -3q1 -2 1 -6v-3q0 2 1 3q0 4 1 6q0 4 1 6q0 2 0.5 3t0.5 2l10 20l59 152q1 4 6 9q2 3 8 7
q4 2 10 4z" />
    <glyph glyph-name="colon" unicode=":" horiz-adv-x="436" 
d="M292 837q4 21 16 39.5t28.5 32t36.5 21.5t41 8q43 0 65.5 -29.5t13.5 -71.5q-4 -21 -15.5 -39.5t-28 -32t-37 -21.5t-41.5 -8q-42 0 -64.5 29.5t-14.5 71.5zM147 155q4 21 16 39t28.5 31.5t36.5 21.5t41 8q43 0 65.5 -29t13.5 -71q-4 -21 -15.5 -39.5t-28 -32t-37 -21.5
t-41.5 -8q-42 0 -64.5 29.5t-14.5 71.5z" />
    <glyph glyph-name="semicolon" unicode=";" horiz-adv-x="504" 
d="M304 192q25 0 43 -10t28 -26.5t12.5 -37t-1.5 -41.5q-3 -12 -8 -27q-9 -24 -21 -52.5t-33.5 -60t-56 -65.5t-87.5 -69l-7 15q-5 9 -3 22q3 15 13.5 30.5t22.5 32t23.5 33.5t17.5 34q4 9 5 19l-8 2q-35 8 -51.5 36t-8.5 65q10 45 45 72.5t75 27.5zM317 786q4 21 15.5 39.5
t28 32t36.5 21.5t41 8q43 0 65.5 -29.5t14.5 -71.5q-5 -21 -16.5 -39.5t-28 -32t-37 -21.5t-41.5 -8q-42 0 -64.5 29.5t-13.5 71.5z" />
    <glyph glyph-name="less" unicode="&#x3c;" horiz-adv-x="1160" 
d="M262 677q5 23 9.5 36.5t15.5 24t31.5 20t58.5 24.5l798 364l-4 -21q-5 -23 -17 -46.5t-28.5 -45t-37.5 -39t-43 -27.5l-633 -287q-8 -3 -15.5 -5.5t-14.5 -4.5q-8 -2 -16 -3q8 -1 16 -3q13 -3 25 -8l511 -289q18 -10 31.5 -27t21 -37.5t9.5 -43.5t-3 -46l-5 -21l-644 363
q-30 17 -46 29.5t-22 25t-4.5 27t6.5 36.5v4z" />
    <glyph glyph-name="equal" unicode="=" horiz-adv-x="1160" 
d="M1100 446h-854l25 115h854zM1170 773h-854l24 115h854z" />
    <glyph glyph-name="greater" unicode="&#x3e;" horiz-adv-x="1160" 
d="M1178 673q-5 -22 -10 -36.5t-16 -27t-32.5 -25t-59.5 -29.5l-798 -363l5 21q5 23 16.5 46t28 43.5t37 37.5t43.5 27l633 289q5 2 13 4t15 4q8 2 17 3q-7 1 -14 3l-13.5 4.5t-12.5 5.5l-511 287q-18 10 -31 27.5t-20.5 39t-9.5 45t3 46.5l4 21l644 -364q31 -15 47.5 -24.5
t23 -20t5 -24t-6.5 -36.5v-4z" />
    <glyph glyph-name="question" unicode="?" horiz-adv-x="820" 
d="M262 1187q29 36 70 80.5t98.5 84t132.5 66.5t173 27t167.5 -28t109.5 -79t51 -122t-7 -156q-10 -47 -29 -83.5t-42.5 -65.5t-49 -53.5t-47.5 -46.5q-26 -22 -48 -39t-37 -29q-18 -14 -32 -25l-13 -11q-41 -32 -81 -65.5t-73 -66.5t-56.5 -66t-30.5 -64l-14 -67h-115
l14 66q12 55 42 101.5t69.5 87t83.5 76t83 69.5l13 10q36 28 76.5 62t76.5 69t62 70t33 67q9 45 7.5 93.5t-24.5 88.5t-74 66t-140 26q-66 0 -113.5 -14t-82.5 -34.5t-61 -43t-48 -38.5q-6 -5 -12.5 -10t-15 -9.5t-19.5 -7.5t-27 -3q-30 0 -63 13zM486 86
q-5 -21 -16.5 -39.5t-28.5 -32t-37 -21.5t-41 -8q-42 0 -65 29.5t-14 71.5q4 21 16 39.5t28.5 32t36.5 21.5t41 8q42 0 65.5 -29.5t14.5 -71.5z" />
    <glyph glyph-name="at" unicode="@" horiz-adv-x="4097" 
d="M2952 600q9 -8 16 -23q6 -14 6 -30q0 -14 -6 -29q-7 -14 -16 -23q-10 -10 -24 -16t-29 -6q-16 0 -29 6q-14 6 -24 16q-5 5 -9 11t-7 12q-6 15 -6 29q0 16 6 30q6 13 16 23q9 10 24 17q13 6 29 6q15 0 29 -6q15 -7 24 -17zM1109 577q-4 -6 -7 -10q-6 -4 -10 -6t-12 -2h-44
v61h44q6 0 12 -3q5 -1 10 -6q3 -3 7 -9q2 -8 2 -13q0 -4 -2 -12zM1479 600q10 -10 16 -23q6 -14 6 -30q0 -14 -6 -29q-3 -6 -7 -12t-9 -11q-10 -10 -24 -16t-29 -6q-16 0 -29 6q-14 6 -24 16q-9 9 -16 23q-6 15 -6 29q0 16 6 30q7 15 16 23q9 10 24 17q13 6 29 6q15 0 29 -6
q15 -7 24 -17zM1855 616q0 -6 2 -12l37 -84h-78l36 84q1 2 1 2.5t1 2.5q0 2 0.5 3.5t0.5 3.5zM784 610q3 -3 7 -11q3 -8 3 -14q0 -8 -3 -14q-4 -8 -7 -11q-6 -6 -11 -7q-4 -2 -7 -3t-7 -1h-44v71h44q6 0 14 -3q5 -1 11 -7zM3671 1084v-766h-3147v766h1193q0 80 30 151
q16 35 36.5 65t46.5 56q54 52 121 80q70 30 146 30q85 0 152 -32q70 -31 121 -84q26 -26 45.5 -56.5t34.5 -65.5q29 -70 29 -144h1192zM1774 1216q-26 -64 -26 -133q0 -71 27 -134q26 -62 74 -113q46 -47 111 -76q61 -29 137 -29q74 0 136 28q32 14 60 33t52 42t43 51t33 60
q27 64 27 138q0 67 -20 120q-19 53 -56 99q-35 42 -82 74q-24 14 -49.5 25.5t-51.5 19.5q-39 13 -92 13q-73 0 -139 -29q-64 -29 -111 -76q-45 -47 -73 -113zM817 561q5 12 5 24t-5 25q-4 9 -14 19q-8 9 -20 14q-10 5 -24 5h-71v-200h27v74h44q11 0 24 5q11 4 20 13
q10 10 14 21zM966 648h-124v-200h124v27h-96v60h78v28h-78v57h96v28zM1161 448l-63 86q10 3 16 8q9 6 13 13q5 5 9 16q2 5 2 9v9q0 14 -4 23q-2 5 -5.5 9.5t-7.5 9.5q-8 7 -18 12q-9 5 -23 5h-72v-200h28v83h30l52 -71q3 -5 10 -9q4 -3 15 -3h18zM1296 482q5 13 5 25
q0 27 -21 44q-6 4 -9 5q-2 2 -4.5 2.5t-4.5 2.5q-2 1 -5 1.5t-5 2.5q-2 0 -5 1t-5 2q-5 2 -9 3.5t-8 3.5q-9 3 -11 5q-5 5 -6 8q-2 3 -2 10t2 10q4 6 7 8q3 1 11 5q3 1 5.5 1.5t6.5 0.5q2 0 5 -1t5 -2q3 -1 6 -2.5t5 -3.5q6 -3 12 -3q9 0 14 5l7 5l-4.5 4.5l-5.5 5.5
q-3 2 -6 4.5t-7 4.5q-5 4 -15 7q-8 3 -16 3q-12 0 -22 -3q-6 -2 -10.5 -4.5t-9.5 -5.5q-8 -8 -13 -17q-5 -10 -5 -22q0 -15 5 -22q4 -9 12 -15q9 -7 18 -11q5 -2 10 -4.5t10 -4.5q3 -2 6.5 -2.5t7.5 -2.5q10 -4 13 -6q6 -4 10 -10q3 -5 3 -13q0 -9 -4 -14q-2 -6 -9 -11
q-3 -2 -6.5 -3.5t-6.5 -3.5q-5 -1 -8 -1.5t-7 -0.5q-6 0 -14 2q-9 3 -12 8l-3 1q-6 7 -15 7q-6 0 -11 -4l-7 -3q1 -1 1 -2t2 -2q0 -2 1 -3t2 -3t5 -6q3 -5 6 -6q17 -16 45 -16q15 0 27 4q13 5 21 13q10 8 16 19zM1525 520q3 15 3 27q0 14 -3 28q-2 7 -4.5 13t-6.5 12
q-3 5 -7 10l-8 10q-10 8 -22 16q-5 4 -11 6.5t-13 4.5q-14 3 -27 3q-15 0 -27 -3q-7 -2 -13 -4.5t-12 -6.5q-5 -4 -10 -7.5t-10 -8.5q-9 -8 -16 -20q-4 -6 -6.5 -12t-4.5 -13t-3 -13.5t-1 -14.5q0 -21 9 -39q4 -10 9.5 -17.5t12.5 -15.5q13 -13 32 -21q17 -8 40 -8
q8 0 14 0.5t13 2.5t13 4.5t11 6.5q11 5 22 15q4 5 8 10.5t7 10.5q4 6 6.5 12t4.5 12zM1735 648h-28v-156q0 5 -1 8t-3 6l-97 134q-3 4 -8 6q-8 2 -12 2h-20v-200h28v168v-4l2 -4q0 -2 2 -4l114 -156h23v200zM1956 448l-87 200h-27l-88 -200h16q6 0 12 3l4 4t4 5l14 32h102
l14 -32q3 -7 8 -9q3 -3 12 -3h16zM2090 475h-87v173h-27v-200h114v27zM2365 648h-28v-122q0 -12 -4 -21q-2 -5 -4.5 -9t-7.5 -7q-3 -5 -7 -7.5t-9 -4.5q-9 -4 -21 -4t-20 4q-5 2 -9.5 4.5t-7.5 7.5q-7 5 -12 16q-2 5 -3 10t-1 11v122h-27v-122v-11.5t2 -10.5t4 -9.5t4 -9.5
q3 -5 6 -9t8 -7q5 -6 15 -13q11 -5 20 -8q10 -3 21 -3t22 3q5 2 9.5 4t9.5 4q9 6 16 13q4 3 7 7t6 9q2 5 4 9.5t4 9.5q3 10 3 22v122zM2519 482q5 10 5 25q0 29 -21 44q-2 2 -4 3l-4 2l-10 5q-6 2 -10 4q-2 0 -4.5 1t-5.5 2q-5 2 -8.5 3.5t-7.5 3.5t-6.5 2.5t-4.5 2.5
q-6 4 -7 8q-2 6 -2 10q0 5 3 10q4 6 7 8q2 1 4.5 2t5.5 3q8 2 13 2q2 0 4.5 -1t5.5 -2l5 -2.5t6 -3.5q6 -3 12 -3q8 0 13 5l8 5l-10 10q-3 2 -6 4.5t-7 4.5q-3 2 -7 3.5t-8 3.5q-9 3 -16 3q-13 0 -23 -3q-5 -2 -9.5 -4.5t-9.5 -5.5q-4 -4 -7.5 -8t-5.5 -9q-6 -9 -6 -22
q0 -12 5 -22t13 -15q8 -7 17 -11l21 -9q4 -2 7 -2.5t7 -2.5q3 -2 6.5 -3t6.5 -3q6 -5 9 -10q4 -4 4 -13t-4 -14q-2 -5 -10 -11q-5 -4 -13 -7q-10 -2 -14 -2q-7 0 -15 2q-9 3 -12 8l-2 1q-6 7 -16 7q-6 0 -10 -4l-8 -3q1 -1 1.5 -2t1.5 -2l3 -6q4 -4 5 -6q3 -5 7 -6
q17 -16 45 -16q14 0 26 4q12 5 22 13q8 7 15 19zM2683 648h-124v-200h124v27h-97v60h78v28h-78v57h97v28zM2998 520q3 15 3 27q0 14 -3 28q-2 7 -4.5 13t-6.5 12q-7 12 -16 20q-5 5 -10 8.5t-10 7.5q-6 4 -12 6.5t-13 4.5q-12 3 -27 3q-14 0 -27 -3q-7 -2 -13 -4.5t-12 -6.5
q-5 -4 -10.5 -7.5t-10.5 -8.5t-8.5 -10t-7.5 -10q-5 -10 -10 -25q-3 -14 -3 -28q0 -10 1.5 -20t6.5 -19q4 -10 9 -17.5t12 -15.5q15 -14 33 -21q16 -8 40 -8q7 0 14 0.5t13 2.5q7 2 13 4.5t12 6.5q12 7 20 15q5 5 9 10.5t7 10.5q4 6 6.5 12t4.5 12zM3208 648h-28v-156
q-2 9 -5 14l-97 134q-3 5 -8 6q-6 2 -12 2h-20v-200h28v168l2 -4q0 -3 1 -4q0 -2 2 -4l114 -156h23v200zM3371 475h-87v173h-27v-200h114v27zM3530 648h-19q-10 0 -14 -3q-7 -3 -10 -10l-48 -64q1 0 -2 -3q0 -1 -1 -2v-1v3q0 3 -2 3l-47 64q-6 8 -10 10q-8 3 -15 3h-19
l72 -97q1 -1 1.5 -2t1.5 -2q2 -4 3 -5q0 -1 0.5 -2t0.5 -2v-6v-84h28v84q0 2 0.5 3t0.5 3q1 1 1 2t1 2t1 2t2 3q0 1 3 4zM1983 789q-53 21 -97 58h423q-43 -37 -97 -58q-51 -22 -115 -22q-63 0 -114 22zM1922 881l411 415q79 -103 79 -213q0 -57 -18 -108q-17 -49 -53 -94
h-419zM1861 871q-19 22 -33.5 46t-24.5 51q-11 26 -15.5 55t-4.5 60q0 57 18 108q8 26 21.5 48.5t30.5 44.5h419zM2212 1378q55 -23 95 -60h-422q22 20 46.5 34.5t50.5 25.5q27 11 55.5 16t59.5 5q62 0 115 -21zM530 116q-6 8 -10 22q-2 6 -3 12t-1 13q0 6 1 12t3 12
q3 14 10 23q7 12 14 19t19 14q5 3 10.5 5.5t11.5 4.5q12 3 25 3q10 0 19 -2t18 -5q8 -5 15.5 -9.5t13.5 -11.5l-4 -4q0 -1 -1 -1q-1 -1 -2 -1q-2 -2 -4 -2h-5q-6 0 -9 2q-5 3 -9.5 5.5t-9.5 4.5q-11 3 -22 3q-15 0 -28 -5q-15 -7 -23 -16q-9 -8 -16 -23q-6 -14 -6 -28
q0 -10 3 -19t7 -18q3 -5 6 -8t6 -7q4 -3 7.5 -6t7.5 -5q5 -2 9 -3.5t9 -3.5q9 -3 19 -3q12 0 24 3q6 2 11.5 4.5t10.5 5.5v38h-14q-2 0 -3.5 0.5t-3.5 0.5q-2 2 -6 4q-1 2 -2 3t-1 3q-2 4 -2 7v2h51v-71q-5 -7 -14 -11q-8 -4 -15 -5q-5 -2 -9 -2.5t-9 -1.5h-19q-13 0 -25 3
q-11 3 -22 9q-12 7 -19 15q-7 7 -14 19zM742 233v-59h72v-20h-72v-62h90v-20h-111v182h111v-21h-90zM912 72v161h-58v21h137v-21h-58v-161h-21zM1126 233v-63h76v-20h-76v-78h-21v182h111v-21h-90zM1271 254v-112q0 -12 4 -20q2 -5 5 -9l6 -8l8 -6t9 -5q9 -4 20 -4
q12 0 20 4q5 2 9 5l8 6q6 6 11 17q5 10 5 20v112h20v-112q0 -16 -6 -28q-3 -7 -6.5 -12.5t-8.5 -10.5q-9 -9 -23 -16q-15 -5 -29 -5q-13 0 -28 5q-15 7 -23 16q-9 8 -16 23q-3 6 -4 13t-1 15v112h20zM1455 254v-162h81v-20h-102v182h21zM1579 254v-162h81v-20h-101v182h20z
M1826 72l-79 182h11q4 0 10 -3l3.5 -3.5t2.5 -4.5l60 -136q0 -2 0.5 -3t0.5 -3q1 -3 1 -6v6q2 4 2 6q8 17 15 34t15 34t15 34t15 34q2 4 6 8q6 3 10 3h11q-10 -23 -20 -45.5t-20 -45.5t-19.5 -45.5t-19.5 -45.5h-20zM1961 233v-59h73v-20h-73v-62h90v-20h-111v182h111v-21
h-90zM2187 157q-8 -5 -16 -6l59 -79h-12q-9 0 -12 2q-6 3 -9 8l-51 68h-31v-78h-21v182h65q12 0 20 -4q9 -4 17 -11q7 -8 11 -17q4 -8 4 -20q0 -9 -3 -18q-4 -9 -8 -15q-3 -4 -6 -6.5t-7 -5.5zM2159 170q6 0 12 3q3 1 5.5 2.5t4.5 3.5q4 4 7 10l2 6t1 7q0 3 -1 6l-2 6
q-3 6 -7 10t-10 7q-8 2 -12 2h-44v-63h44zM2326 98q6 4 9 11q4 5 4 14t-3 15t-9 9q-4 4 -12 7q-4 1 -14 5q-5 2 -9.5 4t-9.5 4q-11 3 -16 9q-6 4 -11 13q-3 7 -3 20q0 11 5 19q3 9 12 15q4 3 8 5.5t9 4.5q9 3 19 3q5 0 15 -2q5 -2 13 -6q3 -2 5.5 -4t4.5 -4q3 -2 5 -4l4 -4
l-5 -4q-4 -4 -10 -4q-4 0 -10 2q-2 2 -3 2.5t-2 1.5q-2 1 -2.5 1.5t-2.5 1.5q-2 0 -3 0.5t-3 0.5q-2 1 -6 1q-5 0 -13 -2q-4 -1 -10 -5q-6 -6 -7 -9q-3 -5 -3 -10q0 -8 2 -11q1 -4 6 -7q6 -4 11 -6q4 -2 8 -3t9 -3q3 -2 9 -4t9 -4q6 -2 9 -4q2 -1 3.5 -2t3.5 -2q8 -8 14 -17
q2 -5 3 -10.5t1 -12.5q0 -10 -5 -22q-4 -8 -13 -17q-8 -7 -20 -10q-9 -4 -23 -4q-26 0 -40 14q-3 2 -5.5 5t-4.5 5q-4 6 -4 8l4 2q2 2 4 2q1 1 4 1q8 0 13 -5q6 -7 14 -9q7 -3 15 -3q4 0 7 0.5t7 1.5q7 1 13 6zM2421 254v-182h-21v182h21zM2491 97q-13 12 -20 29
q-8 19 -8 37q0 6 1 12t3 12q3 13 9 23q4 5 7 9.5t8 9.5q5 4 9.5 7.5t9.5 6.5q11 7 22 10q12 3 25 3t25 -3q6 -2 11.5 -4.5t10.5 -5.5t9.5 -6.5t9.5 -7.5q5 -5 8 -9.5t6 -9.5t5.5 -11t4.5 -12q3 -12 3 -24q0 -20 -7 -37q-8 -17 -20 -29q-14 -14 -30 -20q-15 -7 -36 -7
q-20 0 -37 7q-17 6 -29 20zM2490 191q-6 -14 -6 -28q0 -10 3 -19t7 -18q2 -5 5 -8t6 -7q4 -3 7.5 -6t7.5 -5q5 -2 9 -3.5t9 -3.5q7 -3 19 -3q10 0 19 3q5 2 9 3.5t9 3.5q7 4 14 11t11 15q5 7 8 18q2 5 2 9.5v9.5q0 14 -6 28q-5 14 -15 23q-8 9 -23 16q-13 5 -28 5
q-8 0 -14.5 -1.5t-14.5 -3.5q-14 -7 -23 -16t-15 -23zM2704 72h-20v182h14q12 0 16 -7l94 -132q2 -2 2 -3t1 -3t1 -5v150h21v-182h-19l-107 150l-1 2q-1 1 -1 3t-1 3v-158zM2986 233v-63h76v-20h-76v-78h-20v182h111v-21h-91zM3204 169q-2 -4 -5 -6.5t-7 -5.5q-8 -5 -16 -6
l59 -79h-12q-9 0 -13 2q-5 3 -8 8l-50 68h-33v-78h-20v182h64q12 0 21 -4t16 -11t12 -17q2 -5 3 -10t1 -10q0 -9 -3 -18q-4 -10 -9 -15zM3176 173q3 1 5.5 2.5t4.5 3.5q5 5 6 10q3 6 3 13q0 6 -3 12q-1 5 -6 10q-4 4 -10 7q-8 2 -13 2h-44v-63h44q7 0 13 3zM3413 97
q-14 -14 -30 -20q-15 -7 -37 -7q-9 0 -18.5 1.5t-17.5 5.5q-17 6 -29 20q-7 6 -11.5 13.5t-8.5 15.5q-8 19 -8 37q0 6 1 12t3 12q3 14 10 23q4 9 14 19q7 7 19 14q5 3 10.5 5.5t11.5 4.5q12 3 24 3q14 0 26 -3q6 -2 11 -4.5t10 -5.5q6 -3 10.5 -6.5t9.5 -7.5q5 -5 8 -9.5
t6 -9.5q6 -10 9 -23q4 -11 4 -24q0 -21 -8 -37q-6 -16 -19 -29zM3346 90q11 0 20 3q5 2 9 3.5t8 3.5q5 2 8 5t7 6q7 7 11 15q5 7 8 18q2 5 2 9.5v9.5q0 13 -5 28q-7 15 -16 23q-9 9 -23 16q-15 5 -29 5q-13 0 -28 -5q-13 -6 -22 -16q-9 -8 -16 -23q-6 -14 -6 -28
q0 -5 0.5 -9.5t1.5 -9.5q2 -5 4 -9t4 -9t5 -8l7 -7q6 -7 14 -11q4 -2 8 -3.5t9 -3.5q9 -3 19 -3zM3645 251q4 3 9 3h17v-182h-20v151q0 -1 -1 -1q0 -2 -1 -3v-3q0 -1 -1 -2q-5 -11 -9 -20.5t-8 -19.5q-5 -10 -9 -18.5t-7 -17.5q-4 -9 -8 -17.5t-7 -16.5q-4 -8 -7.5 -16
t-7.5 -16h-21q-8 17 -15.5 35t-15.5 35l-16 36l-16 36q-1 1 -1 4q-1 2 -1 4v-150h-20v182h16q4 0 9 -3q6 -3 6 -8l63 -141q0 -3 1 -4t1 -4q0 3 2 11q2 2 2.5 4.5t2.5 5.5l57 128q1 5 6 8zM524 0h210v-23q0 -10 -1 -14q-3 -8 -6 -12l-141 -189l4 2l4 2q1 0 1.5 0.5t2.5 0.5
h135v-50h-217v16q0 5 2 13t4 13q2 3 3 5.5t3 5.5q5 5 8 11l125 169h-137v50zM769 0h182v-50h-130v-65h105v-50h-105v-68h130v-50h-182v283zM1179 -50h-83v-233h-52v233h-83v50h218v-50zM1307 0l123 -283h-32q-11 0 -20 6q-7 5 -14 15l-16 39h-129l-17 -39q-2 -5 -5 -8
q-2 -3 -8 -7t-10 -4q-3 -2 -10 -2h-33l124 283h47zM1325 -172l-37 86q-2 3 -2.5 6t-1.5 5q0 6 -1 8q0 -5 -1 -8q0 -2 -1 -5l-2 -6l-37 -86h83zM1442 0h181v-50h-130v-71h109v-50h-109v-112h-51v283zM1910 -69q5 -8 8.5 -16.5t5.5 -18.5q3 -8 4 -18t1 -20t-1 -19.5t-4 -18.5
q-4 -17 -14 -35q-9 -15 -23 -29q-6 -6 -13.5 -11.5t-15.5 -10.5t-16.5 -8.5t-17.5 -6.5q-10 -2 -19 -3.5t-20 -1.5q-29 0 -56 11q-27 12 -46 31q-10 11 -18 22t-13 24q-11 25 -11 56q0 10 1 20t3 18q5 17 15 35q5 8 10.5 15t12.5 15q14 12 29 22q17 9 34 15q17 4 39 4t39 -4
q17 -6 34 -15q8 -5 15.5 -10.5t13.5 -11.5q7 -8 12.5 -15t10.5 -15zM1871 -178q3 9 5 18t2 18q0 17 -7 36q-4 9 -9 16t-11 14q-15 14 -30 19q-18 8 -36 8t-36 -8q-16 -6 -29 -19q-12 -12 -21 -30q-7 -19 -7 -36q0 -9 2 -18t5 -18q5 -8 9.5 -15.5t11.5 -13.5q12 -13 29 -20
q15 -7 36 -7t36 7t30 20q12 12 20 29zM2166 0h52v-283h-48l-135 189q-3 2 -4 7q-2 2 -3 3.5t-2 3.5t-2 3.5t-2 3.5l-3 6v-216h-52v283h46q10 0 16 -3q8 -3 11 -9q15 -20 30 -41t29 -42l30 -42t29 -41q4 -6 6 -12q2 -8 2 -9v199zM2242 0h218v-50h-83v-233h-52v233h-83v50z
M2639 -145q8 -8 13 -23q5 -13 5 -28q0 -18 -8 -36q-9 -17 -22 -29q-15 -12 -33 -18q-9 -3 -18.5 -5t-18.5 -2q-11 0 -20.5 2t-19.5 5q-9 5 -16.5 9.5t-15.5 11.5q-5 5 -8 9t-6 9t-4.5 8.5t-3.5 7.5q2 1 3.5 2t3.5 2t3.5 2t3.5 2q6 2 8 3q2 0 4.5 0.5t4.5 0.5q6 0 12 -3
q8 -2 13 -4q9 -7 17 -10q8 -5 21 -5q3 0 7 0.5t9 1.5q4 2 8 3.5t7 3.5q9 6 12 13q6 7 6 17q0 7 -5 14q-4 5 -12 10q-6 4 -16 7q-5 2 -9 4t-9 4q-13 4 -29 11q-8 3 -14 7t-12 9q-12 10 -17 22q-7 13 -7 32q0 10 2 18t5 16q5 7 9.5 12.5t10.5 10.5q13 10 29 16q13 4 32 4
q13 0 24 -4q6 -2 11.5 -4.5t10.5 -5.5t9.5 -7t9.5 -8q10 -8 15 -16l-10 -8q-7 -5 -14 -8q-5 -2 -8 -2h-7h-3h-4q-6 2 -10 4q-6 2 -8 4q-2 0 -4 1t-4 1q-6 2 -8 2q-4 0 -7 -0.5t-7 -1.5q-5 -1 -11 -5q-6 -3 -9 -8q-2 -3 -2 -11t2 -11t4.5 -5t4.5 -4q6 -4 16 -7q5 -2 11 -4
t13 -4l9 -3q18 -6 29 -14q14 -9 22 -18zM2726 -233q5 -5 6 -10q3 -5 3 -12q0 -8 -3 -12q-1 -5 -6 -10q-4 -4 -10 -6q-6 -3 -13 -3t-11 3q-7 2 -11 6t-7 10q-2 6 -2 12t2 12q3 6 7 10t11 6q4 3 11 3t13 -3q6 -2 10 -6zM2833 -76q-13 -13 -20 -30q-8 -18 -8 -36q0 -17 8 -36
q4 -8 8.5 -15.5t11.5 -13.5t14 -11t16 -9q15 -7 35 -7q8 0 15 1t13 3q14 5 25 13q6 2 9 4q3 1 10 1q10 0 16 -3q8 -4 12 -8l11 -11q-12 -14 -23 -22q-7 -5 -13.5 -8.5t-13.5 -7.5q-13 -7 -30 -10q-12 -4 -31 -4q-28 0 -56 11q-27 12 -46 31q-19 20 -31 46q-11 28 -11 56
q0 20 5 38q2 10 5.5 18.5t8.5 16.5q10 15 23 30q7 6 14 11.5t16 10.5q16 9 34 15q17 4 38 4q8 0 16 -0.5t15 -2.5q8 -2 15 -4.5t15 -5.5q7 -4 13.5 -8t13.5 -9q13 -10 23 -21l-11 -12q-4 -4 -12 -8q-8 -3 -16 -3q-10 0 -19 6q-13 8 -25 12q-13 5 -28 5q-17 0 -35 -8
q-9 -3 -16 -8t-14 -11zM3298 -69q5 -8 8.5 -16.5t5.5 -18.5q3 -8 4 -18t1 -20t-1 -19.5t-4 -18.5q-4 -17 -14 -35q-9 -15 -23 -29q-7 -6 -14 -11.5t-16 -10.5q-8 -5 -16 -8.5t-18 -6.5q-20 -5 -38 -5q-29 0 -57 11q-13 6 -24.5 13.5t-20.5 17.5q-10 11 -18 22t-13 24
q-12 27 -12 56q0 20 5 38q5 17 15 35q5 8 10.5 15t12.5 15q6 6 13.5 11.5t15.5 10.5q17 9 34 15q17 4 39 4t38 -4q18 -6 34 -15q9 -5 16 -10.5t14 -11.5q7 -8 12.5 -15t10.5 -15zM3259 -178q3 9 5 18t2 18q0 17 -7 36q-9 17 -20 30q-15 14 -30 19q-18 8 -36 8t-36 -8
q-15 -5 -30 -19q-6 -7 -11 -14t-9 -16q-7 -15 -7 -36q0 -19 7 -36t20 -29q15 -13 30 -20t36 -7t36 7t30 20q6 6 10.5 13.5t9.5 15.5zM3609 -2q6 2 10 2h52v-283h-52v207q-3 -5 -4 -14q-2 -4 -2.5 -7.5t-2.5 -6.5q-9 -23 -18 -45t-19 -44q-9 -23 -18 -45t-19 -45h-47l-74 179
q-2 3 -3 6t-2 8q-1 3 -2 6.5t-2 5.5v-205h-52v283h51q4 0 12 -2q6 -2 9 -4q5 -3 8 -8q2 -2 6 -8q8 -22 16.5 -43.5t17.5 -42.5q8 -22 17 -43t17 -43q2 -2 2 -5q0 -2 0.5 -3t0.5 -3q1 -2 1 -6v-3q0 2 1 3q0 4 1 6q0 4 1 6q0 2 0.5 3t0.5 2l10 20l59 152q1 4 6 9q2 3 8 7
q4 2 10 4z" />
    <glyph glyph-name="A" unicode="A" horiz-adv-x="1288" 
d="M879 1433h122q41 -182 81 -361t80 -356.5t80 -356t81 -359.5h-56q-37 0 -62.5 19.5t-33.5 52.5l-60 267h-791l-172 -267q-22 -33 -56 -52.5t-71 -19.5h-72zM402 464h680l-164 736q-3 11 -4 25.5t0 27.5q0 15 2 30q-5 -15 -11 -30q-5 -13 -11.5 -27.5t-13.5 -25.5z" />
    <glyph glyph-name="B" unicode="B" horiz-adv-x="1285" 
d="M341 0h-168l304 1433h544q79 0 144.5 -30t109 -82t60.5 -122t0 -149q-9 -42 -28 -84t-44.5 -79.5t-55.5 -68t-62 -49.5q-14 -8 -22 -12t-12 -5t-6 -0.5t-3 0.5q20 0 40 -9t34 -20q37 -30 58 -68.5t30 -82t7 -88.5t-11 -88q-17 -77 -61 -148.5t-108 -126t-144 -87.5
t-168 -33zM805 126q56 0 109.5 21.5t98 58.5t76.5 85.5t45 104.5q15 64 7.5 114t-35.5 84.5t-75 52.5t-110 18h-482l-115 -539h481zM576 1308l-111 -518h419q54 0 107 20.5t97.5 55.5t76.5 82.5t43 100.5q12 54 0 101t-41.5 82t-73.5 55.5t-98 20.5h-419z" />
    <glyph glyph-name="C" unicode="C" horiz-adv-x="1415" 
d="M366 717q-18 -84 -13 -161.5t30.5 -145.5t69.5 -123t103 -95t132 -61.5t157 -21.5q97 0 190.5 29t178.5 79q15 9 33 14t35 5q29 0 48 -10t33 -27l8 -10q-121 -96 -262.5 -150.5t-290.5 -54.5q-101 0 -189 26t-159 74t-123.5 115t-83 148t-37 175t15.5 195
q21 101 67.5 195t111.5 175t146 148t172.5 115t190.5 74t200 26q151 0 268 -54.5t197 -151.5l-12 -9q-22 -18 -46 -28t-51 -10q-35 0 -60 20q-63 51 -144 79.5t-179 28.5q-84 0 -166 -21.5t-158 -61.5t-143.5 -95t-121.5 -123t-92 -145.5t-56 -161.5z" />
    <glyph glyph-name="D" unicode="D" horiz-adv-x="1508" 
d="M174 0l304 1433h527q148 0 266.5 -56.5t195.5 -154t105.5 -228t-2.5 -278.5q-21 -99 -66 -190.5t-108.5 -171t-143 -145t-169 -112t-186.5 -72t-196 -25.5h-527zM727 125q82 0 162 21t154 59.5t139.5 92.5t118 120t89.5 141t55 157q26 122 2.5 230t-87 188.5t-161 127
t-220.5 46.5h-402l-252 -1183h402z" />
    <glyph glyph-name="E" unicode="E" horiz-adv-x="1133" 
d="M1028 0h-854l304 1433h854l-26 -125h-729l-111 -522h590l-27 -125h-590l-114 -536h729z" />
    <glyph glyph-name="F" unicode="F" horiz-adv-x="1103" 
d="M1074 756l-26 -125h-615l-134 -631h-125l304 1433h854l-26 -125h-729l-118 -552h615z" />
    <glyph glyph-name="G" unicode="G" horiz-adv-x="1481" 
d="M1489 688l-118 -552q-58 -45 -123.5 -74.5t-136 -47t-144 -24t-147.5 -6.5q-152 0 -273 57.5t-199.5 157t-107.5 233t3 285.5q21 101 67.5 195t111.5 175t146 148t173 115t191 74t200 26q150 0 267.5 -54.5t197.5 -151.5l-12 -9q-23 -19 -46.5 -28.5t-50.5 -9.5
q-35 0 -60 20q-63 51 -144 79.5t-179 28.5q-84 0 -166 -21.5t-158 -61.5t-143.5 -95t-121.5 -123t-92 -145.5t-56 -161.5t-12 -161.5t32.5 -145.5t71.5 -123t105.5 -95t134.5 -61.5t158 -21.5q104 0 207 27.5t201 82.5l73 344h-127q-28 0 -48 10t-32 26.5t-15.5 38.5t1.5 46
l1 4h370z" />
    <glyph glyph-name="H" unicode="H" horiz-adv-x="1444" 
d="M1267 1h-124l140 659h-844l-140 -659h-125l304 1433h125l-138 -649h844l138 649h124z" />
    <glyph glyph-name="I" unicode="I" horiz-adv-x="544" 
d="M335 0h-125l304 1433h125z" />
    <glyph glyph-name="J" unicode="J" horiz-adv-x="682" 
d="M653 1433h125l-264 -1243q-24 -111 -71 -191.5t-110.5 -133t-139 -77.5t-155.5 -25q-79 0 -140 31t-108 79l31 27q23 19 40.5 23.5t40.5 4.5q19 0 34.5 -6.5t33 -14t40 -13.5t55.5 -6q50 0 100 14t93.5 47.5t77 89.5t51.5 141z" />
    <glyph glyph-name="K" unicode="K" horiz-adv-x="1265" 
d="M1251 1356q38 35 77.5 56t89.5 21h91l-725 -660q-14 -12 -24.5 -19t-18.5 -11q-10 -4 -17 -5q5 -2 10 -6t11 -10.5t14 -18.5l478 -703h-79q-50 0 -81 20.5t-54 55.5l-422 632q-7 11 -14.5 16.5t-13.5 8.5q-8 4 -15 5q5 1 12 5q6 3 15 9.5t21 17.5zM318 0h-125l304 1433
h125z" />
    <glyph glyph-name="L" unicode="L" horiz-adv-x="996" 
d="M174 0l304 1433h125l-278 -1308h656l-26 -125h-781z" />
    <glyph glyph-name="M" unicode="M" horiz-adv-x="1820" 
d="M1646 0h-125l262 1235l-2.5 -6t-6.5 -14.5t-8.5 -17.5t-8.5 -15l-775 -1182h-147l-270 1182q-5 13 -6 28.5t1 24.5l-262 -1235h-125l304 1433h89q36 0 63 -21t32 -51l264 -1195q2 -11 2.5 -21.5t-1.5 -21.5q3 11 8 21.5t11 21.5l791 1195q21 32 55.5 52t69.5 20h89z" />
    <glyph glyph-name="N" unicode="N" horiz-adv-x="1487" 
d="M1310 0h-124l-602 1248q-3 6 -5 14t-3 16q-2 9 -2 18l-273 -1296h-125l304 1433h87q40 0 61.5 -10t32.5 -32l551 -1144q5 -11 7.5 -22.5t4.5 -21.5q2 -11 2 -23l264 1253h124z" />
    <glyph glyph-name="O" unicode="O" horiz-adv-x="1650" 
d="M244 717q21 101 66.5 195t109.5 175t144 148t171.5 115t192.5 74t205 26q132 0 241 -44t187.5 -122t121.5 -184t43 -230q0 -118 -35 -229.5t-97 -210t-147 -180.5t-186 -141t-213 -92t-227 -33q-132 0 -241.5 44t-187.5 121.5t-121.5 183.5t-43.5 231q0 71 17 153z
M369 717q-14 -68 -14 -127q0 -103 37.5 -191t104 -152.5t156.5 -101t195 -36.5q88 0 178 29t173.5 79.5t156 120.5t126.5 151.5t85 172t31 182.5q0 103 -36 191t-100.5 152.5t-155.5 101t-200 36.5q-84 0 -166.5 -23.5t-159 -65.5t-144.5 -99t-121.5 -125t-91.5 -143
t-54 -152z" />
    <glyph glyph-name="P" unicode="P" horiz-adv-x="1205" 
d="M325 0h-125l304 1433h500q90 0 162 -34t118.5 -93t63.5 -138t-2 -169t-70 -169.5t-122 -138t-157.5 -92.5t-176.5 -34h-375zM846 689q64 0 125.5 24t112.5 66t87 98.5t50 121.5q13 64 1 120.5t-44.5 98.5t-84 66t-115.5 24h-375l-132 -619h375z" />
    <glyph glyph-name="Q" unicode="Q" horiz-adv-x="1650" 
d="M1198 206q72 40 135 95t113 120.5t86 140t53 155.5q27 126 2.5 236.5t-89.5 193t-165.5 130.5t-226.5 48q-84 0 -166 -21.5t-158 -61.5t-143.5 -95t-121.5 -123t-92 -145.5t-56 -161.5t-13 -161.5t30.5 -145.5t69.5 -123t103 -95t132 -61.5t157 -21.5q65 0 128.5 13
t124.5 37l53 -103q-79 -35 -163 -53.5t-170 -18.5q-152 0 -273 57.5t-199.5 157t-107.5 233t3 285.5q21 101 67.5 195t111.5 175t146 148t173 115t191 74t200 26q152 0 273 -57.5t199.5 -157t107.5 -233t-3 -285.5q-17 -79 -49 -153.5t-76.5 -142.5t-100.5 -128.5
t-120 -110.5q64 -120 128.5 -241.5t128.5 -246.5h-59q-103 0 -134 76z" />
    <glyph glyph-name="R" unicode="R" horiz-adv-x="1259" 
d="M318 0h-125l304 1433h502q84 0 150.5 -31.5t109.5 -86t59 -127.5t-2 -156q-16 -74 -55.5 -143t-95.5 -124t-125 -90.5t-144 -43.5l340 -631h-49q-103 0 -136 76l-299 555h-300zM596 1308l-118 -552h377q57 0 112 21.5t101 59t78.5 88t44.5 107.5t1 107t-40.5 87.5
t-75.5 59.5t-103 22h-377z" />
    <glyph glyph-name="S" unicode="S" horiz-adv-x="998" 
d="M983 1245q-20 16 -34.5 30t-32 24t-42 16t-64.5 6q-58 0 -114.5 -20.5t-103 -54.5t-79 -77.5t-41.5 -89.5q-11 -52 -4 -88t35.5 -64.5t79.5 -53t128 -53.5q40 -16 75.5 -30t66 -28.5t56.5 -31t49 -37.5q59 -54 70.5 -132t-8.5 -171q-20 -94 -73 -169t-127 -127.5
t-164.5 -80.5t-185.5 -28q-188 0 -291 111q-29 32 -46.5 63.5t-26.5 57.5l17 9q36 19 67 19q24 0 44 -6.5t34 -23.5q33 -38 62.5 -58.5t56.5 -30t54 -11.5t56 -3q60 -2 124.5 19t120.5 59.5t97 92.5t53 119q15 78 1.5 124.5t-48 76.5t-86.5 50.5t-114 46.5q-78 34 -141.5 63
t-104.5 68.5t-56.5 97.5t4.5 150q18 84 69 152t120 116.5t148 75t153 26.5q63 0 111.5 -16.5t85 -42t64 -57.5t50.5 -63l-35 -22q-14 -9 -30.5 -14.5t-38.5 -5.5q-37 0 -61 17z" />
    <glyph glyph-name="T" unicode="T" horiz-adv-x="1125" 
d="M306 1308l26 126h1069l-26 -126h-472l-278 -1308h-125l278 1308h-472z" />
    <glyph glyph-name="U" unicode="U" horiz-adv-x="1437" 
d="M397 551q-20 -92 -2.5 -172.5t65 -140.5t120.5 -95t165 -35q91 0 179.5 35t161 95t124.5 140.5t72 172.5l187 882h126l-187 -882q-25 -118 -91.5 -221.5t-160 -180.5t-206.5 -121.5t-231 -44.5q-117 0 -211 44.5t-155 121.5t-83.5 180.5t2.5 221.5l187 882h125z" />
    <glyph glyph-name="V" unicode="V" horiz-adv-x="1251" 
d="M641 233q2 -11 3 -25.5t0 -27.5l-2 -30q5 15 11 30q5 13 11.5 27t14.5 26l743 1128q21 33 55 52.5t71 19.5h56q-117 -182 -233 -360t-231.5 -356t-231.5 -356.5t-234 -360.5h-106l-322 1433h46q37 0 63 -20t34 -52z" />
    <glyph glyph-name="W" unicode="W" horiz-adv-x="1905" 
d="M671 233q2 -11 3 -25.5t0 -27.5l-2 -30q5 15 11 30q5 13 11.5 27t14.5 26l733 1128q21 33 55 52.5t71 19.5h66l-422 -650l123 -550q2 -11 3 -25.5t0 -27.5l-2 -30q5 15 11 30q5 13 11.5 27t14.5 26l733 1128q21 33 55 52.5t71 19.5h66l-930 -1433h-106l-134 549
q-6 26 -5 47t4 38q3 14 6.5 23t5.5 15l-435 -672h-106l-352 1433h56q37 0 63 -20t34 -52z" />
    <glyph glyph-name="X" unicode="X" horiz-adv-x="1241" 
d="M861 720q-3 -17 4.5 -32.5t13.5 -27.5l352 -660h-60q-51 0 -79 19t-44 57l-278 527q-6 10 -8 19t-3 16q-1 8 0 14q-2 -6 -6 -14q-4 -7 -10 -16t-15 -19l-502 -527q-66 -76 -168 -76h-60l637 670q3 4 9 10t13 13.5t12.5 16t7.5 18.5q3 15 -4 29t-14 27l-341 649h48
q103 0 136 -77l267 -512q5 -11 7.5 -20t3.5 -15q1 -8 -1 -13q5 7 11 16q12 17 32 40l481 504q65 77 167 77h61l-613 -644l-16 -16t-17.5 -18.5t-15.5 -18.5t-8 -16z" />
    <glyph glyph-name="Y" unicode="Y" horiz-adv-x="1249" 
d="M688 0h-125l127 599q6 28 6 49.5t-5.5 41t-14.5 38.5t-21 42l-348 663h60q103 0 136 -77l266 -525q5 -13 7 -22t3 -16q0 -8 -1 -14q1 6 5 14q6 14 26 38l516 525q65 77 167 77h61l-631 -662q-37 -39 -66.5 -79.5t-40.5 -92.5z" />
    <glyph glyph-name="Z" unicode="Z" horiz-adv-x="1226" 
d="M1162 126l-26 -126h-1052l9 44q13 64 62 111l1059 1153h-832l26 126h1015l-9 -44q-7 -30 -19 -54.5t-32 -45.5l-1082 -1177q4 3 11 6q6 2 15 4.5t21 2.5h834z" />
    <glyph glyph-name="bracketleft" unicode="[" horiz-adv-x="529" 
d="M467 1533h292q-12 -36 -21.5 -62t-18.5 -53h-161l-338 -1592h161q-5 -33 -6 -61.5t-3 -53.5h-292z" />
    <glyph glyph-name="backslash" unicode="\" horiz-adv-x="855" 
d="M768 -90h-49q-35 0 -60 24.5t-32 56.5l-334 1481h25q45 0 81.5 -18.5t46.5 -60.5z" />
    <glyph glyph-name="bracketright" unicode="]" horiz-adv-x="483" 
d="M326 -289h-292q9 25 19.5 53.5t21.5 61.5h161l338 1592h-161q3 27 4 53t4 62h292z" />
    <glyph glyph-name="asciicircum" unicode="^" horiz-adv-x="1035" 
d="M803 1449h20q23 0 38.5 -6.5t26 -18.5t17 -29t12.5 -38l131 -470h-34q-46 0 -78 25.5t-43 66.5l-95 348l-3 33l-17 -33l-244 -348q-29 -41 -71.5 -66.5t-88.5 -25.5h-34l329 468q29 42 58.5 68t75.5 26z" />
    <glyph glyph-name="underscore" unicode="_" horiz-adv-x="788" 
d="M716 -345h-789l24 114h789z" />
    <glyph glyph-name="grave" unicode="`" horiz-adv-x="614" 
d="M393 1449h75q33 0 60 -13t35 -29q1 -1 9.5 -22t22 -55t30 -78t31.5 -91l-49 1q-32 1 -51.5 12t-29.5 26z" />
    <glyph glyph-name="a" unicode="a" 
d="M955 0q-5 7 -8 18q-2 10 -3 24.5t4 35.5l9 42q-63 -48 -115.5 -75t-97.5 -41t-83.5 -17.5t-72.5 -3.5q-111 0 -197 42.5t-140 116t-72.5 172t5.5 210.5t84 210.5t145.5 172t189.5 116t215 42.5q34 0 71 -3.5t76 -17.5t80.5 -41t83.5 -73l15 72q2 10 6 18.5t8 15.5
q4 8 10 14h115l-223 -1050h-105zM791 937q-87 0 -166 -34.5t-143 -92t-108.5 -132t-61.5 -154.5q-18 -83 -5 -157.5t52.5 -131.5t104 -90.5t151.5 -33.5q92 0 190 40t182 109l112 527q-54 69 -135 109.5t-173 40.5z" />
    <glyph glyph-name="b" unicode="b" horiz-adv-x="1216" 
d="M152 0l304 1432h128l-109 -513q61 51 114 80t99 44t85 18.5t73 3.5q111 0 197 -42.5t140 -116t72.5 -172t-5.5 -210.5t-84 -210.5t-145.5 -172t-189.5 -116t-215 -42.5q-34 0 -71.5 3.5t-77 17.5t-80.5 42t-82 76l-13 -63q-5 -26 -13 -38l-14 -21h-113zM643 111
q87 0 166 34.5t143 91.5t108.5 131.5t61.5 155.5q18 83 5 158t-52.5 132t-104 90.5t-151.5 33.5q-45 0 -93.5 -10.5t-96.5 -30t-94 -47.5t-88 -62l-112 -528q27 -35 61 -62.5t74 -46.5t84 -29.5t89 -10.5z" />
    <glyph glyph-name="c" unicode="c" horiz-adv-x="1001" 
d="M815 938q-87 0 -169 -32t-150 -88t-116.5 -131t-66.5 -162t-2 -162t60 -131t112.5 -88t155.5 -32q53 0 109.5 15.5t107.5 39.5q17 8 35 13.5t34 5.5q26 0 44.5 -13t32.5 -30l9 -11q-35 -29 -80.5 -55.5t-97.5 -47t-108 -33t-113 -12.5q-112 0 -201.5 42.5t-147.5 116
t-80 172t2 210.5t87.5 210.5t153 172t197 116t219.5 42.5q56 0 106 -11.5t92.5 -31.5t77 -47t60.5 -58l-14 -11q-23 -20 -47.5 -31.5t-53.5 -11.5q-17 0 -29.5 5t-25.5 13q-41 27 -90 40.5t-103 15.5z" />
    <glyph glyph-name="d" unicode="d" 
d="M954 0q-5 7 -8 18q-2 10 -3 24.5t4 35.5l9 42q-63 -48 -115.5 -75t-97.5 -41t-83.5 -17.5t-72.5 -3.5q-111 0 -197 42.5t-140 116t-72.5 172t5.5 210.5t84 210.5t145.5 172t189.5 116t215 42.5q34 0 71 -3.5t76 -17.5t80.5 -41t83.5 -73l107 503h128l-304 -1433h-105z
M790 937q-87 0 -166 -34.5t-143 -92t-108.5 -132t-61.5 -154.5q-18 -83 -5 -157.5t52.5 -131.5t104 -90.5t151.5 -33.5q92 0 190 40t182 109l112 527q-54 69 -135 109.5t-173 40.5z" />
    <glyph glyph-name="e" unicode="e" horiz-adv-x="1204" 
d="M840 1066q94 0 172 -30.5t134.5 -84.5t89.5 -128.5t38 -162.5q0 -9 -0.5 -18t-2.5 -17q-5 -26 -19 -48.5t-34 -40t-44 -27.5t-49 -10h-817q-13 -83 5.5 -154t62.5 -122.5t110.5 -81t150.5 -29.5q26 0 58 6t65 16.5t65.5 24.5t60.5 30q16 9 34 13t34 4q33 0 49.5 -13.5
t37.5 -34.5q-45 -37 -97 -68.5t-107.5 -55t-113 -37t-113.5 -13.5q-112 0 -201.5 42.5t-147.5 116t-80 172t2 210.5q16 75 50.5 144t82.5 129t108.5 109.5t128 84.5t140.5 54.5t147 19.5zM814 938q-80 0 -155.5 -27t-140 -74.5t-114 -112.5t-76.5 -141q8 13 24 29t39 16h752
q-2 74 -28.5 131.5t-71 97.5t-103.5 60.5t-126 20.5z" />
    <glyph glyph-name="f" unicode="f" horiz-adv-x="638" 
d="M330 14q-23 -81 -64 -146.5t-91 -115t-104.5 -83.5t-103.5 -52l-5 25q-2 10 -2.5 25.5t1.5 24.5q3 14 9 24t14.5 19t19.5 17.5t23 19.5q53 45 86.5 85.5t53 75t28.5 61.5t13 45l190 893h-189l15 74q11 46 132 46h67l27 128q12 57 40 104.5t68 82t90.5 54t107.5 19.5
q23 0 49.5 -5t53 -14t50 -21.5t41.5 -26.5l-27 -30q-22 -22 -40.5 -29t-48.5 -7q-26 0 -66 12l-10 2t-12 1.5t-15 0.5q-30 0 -55.5 -13t-45.5 -34t-33.5 -46.5t-18.5 -49.5l-27 -130h293l-25 -118h-293z" />
    <glyph glyph-name="g" unicode="g" 
d="M1097 161q-11 -49 -22.5 -98t-25.5 -98q-25 -95 -68 -171.5t-103.5 -130.5t-138 -83t-171.5 -30q-36 0 -81 6.5t-90.5 19.5t-87.5 32.5t-73 45.5q6 8 12.5 15.5t12.5 15.5q23 26 44 32.5t44 5.5q29 -2 53 -9.5t50 -16t58.5 -15.5t77.5 -6q121 2 205.5 70.5t123.5 207.5
q16 51 29 102.5t24 103.5q-57 -57 -111.5 -92t-103.5 -53.5t-92 -24.5t-76 -6q-111 0 -197.5 42.5t-140.5 116t-72.5 172t5.5 210.5t84 210.5t145.5 172t190 116t215.5 42.5q27 0 73 -8t94.5 -25.5t89.5 -44.5t57 -64l16 78q4 15 10 26.5t14 21.5h115zM614 112q45 0 97 12.5
t104 37.5t99.5 61.5t85.5 84.5l103 487q-27 34 -62 61t-75.5 45t-85.5 27.5t-90 9.5q-87 0 -166 -32t-142.5 -88t-108.5 -131t-63 -162t-5.5 -162t52 -131t105 -88t152.5 -32z" />
    <glyph glyph-name="h" unicode="h" horiz-adv-x="1162" 
d="M555 1435q5 -5 9 -13q3 -7 4 -18t-2 -27l-104 -488q14 24 47 54.5t83 58t115.5 46.5t144.5 19q99 0 164 -33.5t99.5 -94.5t39 -146.5t-17.5 -189.5l-128 -603h-128l128 603q17 81 16 143t-22.5 104.5t-65 65t-112.5 24.5h-11q-80 0 -148.5 -25t-120 -62t-83.5 -78
t-39 -74l-149 -701h-128l305 1435h104z" />
    <glyph glyph-name="i" unicode="i" horiz-adv-x="462" 
d="M517 1050l-223 -1050h-128l223 1050h128zM414 1346q4 21 16 40t29 33t37.5 22t41.5 8q43 0 67 -30t15 -73q-5 -21 -17 -40t-29 -33t-37.5 -22t-41.5 -8t-38.5 8t-28.5 22t-15 33t1 40z" />
    <glyph glyph-name="j" unicode="j" horiz-adv-x="462" 
d="M296 14q-23 -81 -64 -146.5t-91 -115t-104 -83.5t-103 -52l-6 25q-2 10 -2.5 25.5t1.5 24.5q6 28 24 43.5t43 36.5q52 45 85.5 85.5t53 75t28.5 61.5t13 45l215 1011h128zM413 1346q4 21 16 40t28.5 33t37 22t42.5 8q43 0 67 -30t15 -73q-5 -21 -17 -40t-29 -33
t-37.5 -22t-41.5 -8q-22 0 -39 8t-28 22t-15 33t1 40z" />
    <glyph glyph-name="k" unicode="k" horiz-adv-x="986" 
d="M280 0h-128l304 1433h128zM956 971q38 36 79 57.5t93 21.5h91q-114 -102 -216 -194q-44 -39 -89 -79.5t-86.5 -77.5t-77 -69t-59.5 -53q-14 -12 -26.5 -19t-22.5 -11q-11 -4 -21 -5q7 -4 14 -9q6 -5 12.5 -11t11.5 -15q33 -56 78 -119.5t92.5 -130t92 -132.5t76.5 -125
h-78q-26 0 -43.5 5.5t-30.5 16t-24 24.5t-23 32l-302 434q-6 8 -13.5 13.5t-15.5 9.5q-9 4 -17 7q8 2 17 6q17 7 36 23z" />
    <glyph glyph-name="l" unicode="l" horiz-adv-x="462" 
d="M598 1433l-304 -1433h-128l304 1433h128z" />
    <glyph glyph-name="m" unicode="m" horiz-adv-x="1682" 
d="M1434 1067q105 0 166 -36.5t87.5 -99.5t24.5 -148t-23 -182l-127 -601h-129l127 600q13 60 16 120.5t-13 108.5t-54 78t-108 30q-63 0 -117 -16.5t-96.5 -44t-71 -63.5t-40.5 -76l-156 -737h-129l130 616q4 17 8 47.5t3.5 66.5t-8 72.5t-25.5 66.5t-49.5 49t-80.5 19
q-83 0 -143.5 -22.5t-101.5 -54.5t-63 -66t-27 -57q-3 -12 -20 -93q-8 -35 -19 -88t-27.5 -130.5t-38.5 -182.5t-51 -243h-128l223 1050h111q14 -16 6 -48l-19 -92q12 19 41.5 46t73 51.5t98.5 41.5t117 17q64 0 109 -19t74 -49t43.5 -67.5t17.5 -75.5q42 59 87 99.5
t93 65.5t99.5 36t105.5 11h4z" />
    <glyph glyph-name="n" unicode="n" horiz-adv-x="1162" 
d="M484 1050q3 -10 4 -23.5t-6 -44.5l-19 -91q46 45 97 78t103 54.5t103 32.5t98 11q86 0 148 -32.5t97 -93t42.5 -146.5t-14.5 -192l-128 -603h-128l128 603q34 161 -10 248.5t-174 87.5q-73 0 -140 -19t-121 -52t-91.5 -76.5t-50.5 -91.5l-148 -700h-128l223 1050h115z
" />
    <glyph glyph-name="o" unicode="o" horiz-adv-x="1226" 
d="M183 525q24 112 87.5 210.5t152.5 172t197 116t219 42.5q97 0 177.5 -32.5t138.5 -90.5t90 -136.5t32 -169.5q0 -87 -26.5 -169t-73 -154.5t-110 -133t-137.5 -104t-156 -68t-165 -24.5q-97 0 -177.5 32.5t-138.5 90t-90 136t-32 170.5q0 55 12 112zM311 525
q-5 -23 -7.5 -45t-2.5 -44q0 -70 27 -129.5t73 -102.5t107 -67.5t128 -24.5q64 0 127 20.5t119.5 56t105 83.5t83.5 104t55 116.5t20 121.5q0 70 -24 129.5t-68 102.5t-105.5 67.5t-136.5 24.5q-86 0 -169.5 -34t-151.5 -91t-116 -132t-64 -156z" />
    <glyph glyph-name="p" unicode="p" horiz-adv-x="1203" 
d="M494 1050q3 -10 4.5 -21.5t-2.5 -26.5l-16 -78q32 37 83 64t104.5 44.5t101.5 25.5t75 8q111 0 197 -42.5t140 -116t73 -172t-5 -210.5t-84 -210.5t-145.5 -172t-190 -116t-215.5 -42.5q-33 0 -71.5 6t-77.5 24.5t-77 53.5t-70 92l-113 -527h-128l302 1417h115zM641 112
q87 0 166 32t142.5 88t108.5 131t63 162t5.5 162t-52 131t-105 88t-152.5 32q-91 0 -186 -37t-179 -106l-103 -487q17 -48 48 -84.5t70 -61.5t84 -37.5t90 -12.5z" />
    <glyph glyph-name="q" unicode="q" horiz-adv-x="1218" 
d="M1287 1050l-302 -1417h-128l113 527q-57 -57 -111.5 -92t-103.5 -53.5t-91.5 -24.5t-75.5 -6q-111 0 -197.5 42.5t-140.5 116t-72.5 172t5.5 210.5t84 210.5t145.5 172t190 116t215.5 42.5q27 0 73 -8t94.5 -25.5t89.5 -44.5t57 -64l16 78q4 15 10 26.5t14 21.5h115z
M615 112q45 0 97 12.5t104 37.5t99.5 61.5t85.5 84.5l103 487q-27 34 -62 61t-75.5 45t-85.5 27.5t-90 9.5q-87 0 -166 -32t-142.5 -88t-108.5 -131t-63 -162t-5.5 -162t52 -131t105 -88t152.5 -32z" />
    <glyph glyph-name="r" unicode="r" horiz-adv-x="774" 
d="M486 1050q3 -10 4.5 -21.5t-2.5 -26.5l-25 -118q28 39 74 72.5t101 58t116 38t119 13.5q62 0 113 -17l-21 -55q-9 -22 -20.5 -34t-25.5 -17.5t-29.5 -6.5t-31.5 -1h-15q-73 0 -143.5 -24t-129 -62t-99 -85.5t-53.5 -94.5l-142 -669h-128l223 1050h115z" />
    <glyph glyph-name="s" unicode="s" horiz-adv-x="745" 
d="M43 148q35 16 55.5 25.5t43.5 9.5q16 0 34 -4t41 -22q26 -21 59 -32.5t71 -10.5q22 0 51 7t60 19.5t61 31.5t53.5 43.5t38.5 55t15 65.5q0 24 -8.5 45t-28 40t-53 37.5t-82.5 37.5l-20 7q-42 15 -83.5 32t-74 42.5t-53 62.5t-20.5 90q0 78 33 138t85 101.5t115.5 63.5
t124.5 24h9q52 -2 92 -19t70 -40t50.5 -47.5t32.5 -41.5l-23 -16q-20 -14 -40 -25t-41 -10q-13 0 -24 5t-22 12t-22.5 15.5t-23.5 15.5q-23 13 -46 18t-38 4q-43 -1 -77.5 -15.5t-59.5 -34.5t-39.5 -41.5t-17.5 -36.5q-4 -16 -4 -33q0 -30 14.5 -52.5t38 -39.5t53.5 -30
t61 -24l10 -3q47 -17 91 -39t78 -52t54.5 -69.5t20.5 -92.5q0 -74 -36.5 -142.5t-97 -121.5t-140 -84.5t-165.5 -31.5q-93 0 -166.5 42.5t-109.5 120.5z" />
    <glyph glyph-name="t" unicode="t" horiz-adv-x="715" 
d="M397 244q-5 -24 -2 -49.5t15 -46.5t32.5 -34t51.5 -13l32 4q46 12 73 12q31 0 51.5 -18t34.5 -44l2 -4q-24 -14 -53.5 -26t-60 -21t-59 -14.5t-50.5 -5.5q-58 0 -100 19t-67 53.5t-32.5 82.5t4.5 105l147 688h-190l15 74q11 46 133 46h67l50 237q10 45 28 75t30 45h96
l-76 -358h315l-25 -119h-315z" />
    <glyph glyph-name="u" unicode="u" horiz-adv-x="1122" 
d="M871 0q-4 10 -5 23.5t6 44.5l15 71q-47 -45 -97 -75t-101 -48t-101.5 -25.5t-97.5 -7.5q-86 0 -148 32.5t-97 93t-42.5 146t15.5 192.5l128 603h128l-128 -603q-35 -161 9 -248.5t174 -87.5q73 0 140 19t121 52t91 76.5t51 91.5l149 700h128l-223 -1050h-115z" />
    <glyph glyph-name="v" unicode="v" horiz-adv-x="1005" 
d="M188 1050h48q38 0 66 -20t35 -53l175 -786q3 -13 3.5 -25t0.5 -22q0 -11 -1 -21q6 23 13 37t18 31l522 786q23 34 58 54t72 20h57q-90 -139 -174.5 -269t-167.5 -258t-167 -257t-173 -267h-150z" />
    <glyph glyph-name="w" unicode="w" horiz-adv-x="1679" 
d="M197 1050h56q38 0 66 -20t35 -53l165 -786q5 -23 4 -42t-1 -24q6 21 13 35t18 31l514 786q23 34 58 54t72 20h67q-51 -78 -99 -152.5t-96 -147.5l115 -560q5 -23 4 -42t-1 -24q6 21 13 35t18 31l514 786q23 34 58 54t72 20h67q-90 -139 -174.5 -269t-167.5 -258
t-167 -257t-173 -267h-150l-122 545q-2 11 -1.5 22t2.5 22q3 19 10 33q4 7 7 13q-47 -72 -98.5 -151.5t-104.5 -161l-106 -163t-102 -159.5h-150z" />
    <glyph glyph-name="x" unicode="x" horiz-adv-x="1050" 
d="M733 538q-4 -17 3 -33t15 -27l305 -478h-81q-25 0 -43.5 5.5t-33 15.5t-26 24t-22.5 31l-215 345q-5 10 -7.5 19t-3.5 16q-1 8 0 14q-2 -6 -6 -14q-4 -7 -9.5 -16t-15.5 -19l-361 -345q-37 -35 -77 -55.5t-91 -20.5h-81l514 488l23 23t20 35q3 14 -3 28t-14 26l-260 450
h50q51 0 90 -20.5t59 -56.5l174 -311q6 -11 8 -20t3 -15q1 -8 0 -13q1 5 5 12q3 6 8.5 15t16.5 21l313 311q37 36 84 56.5t98 20.5h61l-455 -451q-15 -14 -28.5 -30.5t-16.5 -30.5z" />
    <glyph glyph-name="y" unicode="y" horiz-adv-x="1106" 
d="M251 1058h56q37 0 66 -19.5t34 -53.5l151 -720q5 -20 4.5 -38t-2.5 -32q-3 -16 -6 -30l543 819q22 34 57.5 54t72.5 20h57l-885 -1362q-20 -36 -56 -56.5t-74 -20.5h-58l269 412z" />
    <glyph glyph-name="z" unicode="z" horiz-adv-x="932" 
d="M868 126l-27 -128h-772l10 46q13 64 62 111l712 767h-546l28 128h731l-10 -44q-12 -59 -51 -100l-733 -793q4 3 11 6q6 2 15 4.5t21 2.5h549z" />
    <glyph glyph-name="braceleft" unicode="{" horiz-adv-x="600" 
d="M227 665q21 6 44.5 18t45 32t39 48t25.5 67q7 34 10 62t4.5 52t1.5 45.5t1 41.5q1 30 4 62.5t12 75.5q2 8 4 17l4 18q11 45 32.5 90.5t53 87t73.5 76t93 58.5q15 7 33 14q15 6 35.5 11.5t44.5 10.5q-1 -17 -1 -32.5t-2 -21.5q-5 -21 -21.5 -38.5t-37 -32t-40 -25
t-29.5 -18.5l-29 -24q-32 -32 -54.5 -68.5t-33.5 -86.5t-17.5 -88t-5.5 -84q0 -18 -0.5 -42t-3 -51t-6 -54t-8.5 -51l-2 -7q-15 -66 -41 -107t-52.5 -64.5t-48.5 -32t-29 -9.5q5 -1 24 -8.5t36 -30t26 -63.5t-6 -110l-2 -9q-14 -69 -31 -114.5t-33 -80.5l-6 -13
q-8 -19 -14 -37t-11.5 -37t-10 -40t-9.5 -46q-11 -50 -2 -91t33 -75q12 -17 29 -30t32 -27.5t23.5 -32.5t2.5 -43q-2 -14 -7.5 -26t-9.5 -24q-24 4 -43.5 10.5t-33.5 13.5q-17 8 -29 16q-33 19 -58.5 52t-40.5 74t-18.5 88t6.5 96q13 58 23 97.5t26 75.5q17 40 35.5 85.5
t33.5 115.5q8 38 2.5 66.5t-18.5 48t-31.5 32t-36.5 18.5z" />
    <glyph glyph-name="bar" unicode="|" horiz-adv-x="502" 
d="M545 1577h114l-397 -1865h-114z" />
    <glyph glyph-name="braceright" unicode="}" horiz-adv-x="600" 
d="M639 566q-21 -6 -44.5 -18.5t-45.5 -32t-39 -48t-25 -66.5q-8 -35 -11.5 -63.5t-4.5 -52.5t-1 -44.5v-40.5q1 -36 -5.5 -75.5t-19.5 -97.5q-10 -49 -33.5 -96t-56.5 -88t-72 -74t-81 -52q-17 -8 -36 -16q-17 -7 -39 -13.5t-47 -10.5q1 12 1 24t2 26q6 25 22 43t37 32.5
t44 27.5t42 30q38 34 64 75t37 91q10 50 16.5 86t6.5 74v13q-1 35 1.5 80.5t16.5 114.5l2 9q15 69 41 110t53 63.5t49 30t27 8.5q-6 1 -24 9.5t-35 32t-26 64.5t4 107l2 7q5 24 13 51t17 54t18.5 51t17.5 42q10 23 17 43.5t13 40.5t10.5 41.5t10.5 46.5q10 49 2 86t-24 69
l-19 24q-7 8 -22 18.5t-29.5 25t-24 32t-4.5 38.5q2 6 8 21.5t11 32.5q45 -9 72 -22q15 -7 27 -14q41 -24 67.5 -58.5t40.5 -76t16 -87t-6 -90.5q-2 -9 -3 -18t-3 -17q-9 -43 -20 -75.5t-22 -62.5q-8 -20 -17 -41.5t-18 -45.5t-18 -52t-16 -62q-8 -39 -3 -67t18 -48
t31.5 -32t37.5 -18z" />
    <glyph glyph-name="asciitilde" unicode="~" horiz-adv-x="1109" 
d="M210 511q17 26 47.5 65t72.5 75t93.5 62t109.5 26q72 0 122 -18.5t91.5 -40.5t80.5 -40.5t87 -18.5q31 0 55 9.5t42.5 23.5t32.5 29t27 26q9 9 20 16q9 6 21 11t24 5q10 0 33 -3.5t56 -13.5q-41 -64 -93 -115q-22 -22 -49 -42.5t-58 -37t-66 -27t-73 -10.5q-67 5 -116 24
t-91.5 40t-83 37.5t-90.5 16.5q-23 0 -41.5 -8t-34 -21t-30 -28.5t-30.5 -30.5q-13 -12 -30.5 -21.5t-29.5 -9.5t-37.5 3.5t-61.5 16.5z" />
    <glyph glyph-name="exclamdown" unicode="&#xa1;" horiz-adv-x="615" 
d="M494 641l-209 -980h-115l209 980h115zM403 935q4 19 15 36.5t27 30.5t34.5 20.5t38.5 7.5q40 0 62 -28t14 -67q-4 -20 -15.5 -37.5t-27 -30t-34.5 -20t-39 -7.5q-39 0 -61 27.5t-14 67.5z" />
    <glyph glyph-name="cent" unicode="&#xa2;" horiz-adv-x="981" 
d="M797 1229h89l-35 -163q53 -2 101.5 -14t90.5 -32t76 -46t59 -56l-14 -11q-23 -20 -47.5 -31.5t-53.5 -11.5q-17 0 -29.5 5t-25.5 13q-38 25 -86.5 38.5t-97.5 16.5l-176 -825q50 2 105.5 17t102.5 38q17 8 35 13.5t34 5.5q26 0 44.5 -13t32.5 -30l9 -11
q-34 -28 -78.5 -54t-95.5 -46.5t-106 -33t-110 -14.5l-35 -163h-89l37 170q-93 16 -167 63.5t-121.5 118.5t-64.5 161t4 191q21 100 76.5 190.5t133 161.5t172 118.5t194.5 63.5zM313 525q-16 -75 -4.5 -142t45 -120.5t87 -90t120.5 -51.5l172 807q-74 -15 -143 -51.5
t-125 -89.5t-96 -120t-56 -142z" />
    <glyph glyph-name="sterling" unicode="&#xa3;" horiz-adv-x="1119" 
d="M911 720l-19 -89h-384l-52 -245q-13 -59 -32 -103t-41.5 -75.5t-47.5 -51t-50 -28.5h816q-5 -38 -8 -68.5t-5 -59.5h-989l15 73q4 17 8.5 28.5t12.5 19.5q13 13 40 32.5t56 49.5t55.5 72.5t39.5 102.5l54 253h-156l19 89h156l63 299q19 89 69.5 168t122 137.5t157 92.5
t175.5 34q57 0 106.5 -14t91 -40t72.5 -62.5t51 -80.5l-8 -3q-27 -14 -49 -21.5t-38 -7.5q-29 0 -49.5 14t-34.5 26l-20 16q-28 23 -66.5 33.5t-83.5 10.5q-63 0 -123.5 -23.5t-110.5 -65t-85.5 -96.5t-48.5 -118l-63 -299h384z" />
    <glyph glyph-name="currency" unicode="&#xa4;" horiz-adv-x="1120" 
d="M460 668q-12 -58 -0.5 -105t39.5 -80t69.5 -51t89.5 -18q56 0 107.5 20.5t92.5 55.5t69 81t39 97q12 56 1 102.5t-39 79.5t-70 51.5t-92 18.5t-99 -17.5t-91 -50t-72.5 -79.5t-43.5 -105zM476 1047l62 -79q69 43 131 62t124 19q63 0 117 -19t106 -63l97 80l50 -64
l-98 -80q30 -60 37 -117t-7 -118q-14 -64 -44.5 -121.5t-86.5 -117.5l63 -83l-75 -63l-66 83q-69 -42 -131 -61t-124 -19t-115 18.5t-104 61.5l-99 -82l-50 63l98 81q-31 60 -37 118t8 122q14 61 44.5 118.5t85.5 117.5l-62 80z" />
    <glyph glyph-name="yen" unicode="&#xa5;" horiz-adv-x="1250" 
d="M688 0h-125l68 324h-283l19 89h283l19 87h-283l19 89h283l2 10q6 28 6 49.5t-5.5 41t-14.5 38.5t-21 42l-348 663h60q103 0 136 -77l278 -525q8 -19 9 -31t1 -17q2 5 8.5 17.5t21.5 30.5l504 525q65 77 167 77h61l-631 -662q-37 -39 -66.5 -79.5t-40.5 -92.5l-2 -10h280
l-19 -89h-280l-19 -87h280l-19 -89h-280z" />
    <glyph glyph-name="brokenbar" unicode="&#xa6;" horiz-adv-x="536" 
d="M432 510l-170 -798h-114l170 798h114zM659 1578l-170 -798h-114l170 798h114z" />
    <glyph glyph-name="section" unicode="&#xa7;" horiz-adv-x="919" 
d="M677 374q60 -4 93 -30t46.5 -62t13 -76t-7.5 -73q-13 -62 -50.5 -111t-89.5 -83t-112.5 -52t-118.5 -18h-9q-53 1 -94.5 19.5t-74.5 44t-57.5 54.5t-43.5 53l17 11q17 11 34 18.5t34 7.5q14 0 27.5 -2t20.5 -7q16 -14 35 -28.5t40.5 -27t45 -20.5t49.5 -8q44 0 83.5 13
t70.5 34t51.5 47.5t26.5 53.5q9 46 -3 77t-43.5 56t-81 46.5t-115.5 47.5q-57 23 -100.5 52t-70.5 65t-36 80.5t3 99.5q10 46 32 90.5t58.5 85t89.5 76t124 63.5q-40 3 -65.5 15t-40.5 30.5t-20.5 41.5t-6 47t3.5 48t8 45q13 63 53.5 112.5t95 84t117.5 52.5t122 18
q39 0 76.5 -14t70.5 -36t60 -49t45 -53l-26 -19q-18 -12 -36 -17t-38 -5q-12 0 -25 6t-18 11q-33 26 -67 43.5t-66 17.5q-46 0 -88 -12.5t-76 -33.5t-56.5 -48.5t-28.5 -57.5q-10 -47 -7 -76.5t27 -51.5t72.5 -41.5t128.5 -47.5q121 -42 173 -116.5t29 -186.5
q-10 -45 -34.5 -93.5t-63.5 -91t-90.5 -75t-115.5 -44.5zM669 871q-41 0 -88 -13.5t-88.5 -40.5t-73 -66.5t-42.5 -90.5q-10 -45 3 -80.5t41.5 -60t68 -38t83.5 -13.5q48 0 96 13.5t87.5 40.5t68.5 66.5t40 91.5q9 43 -4.5 78.5t-42 60.5t-68 38.5t-81.5 13.5z" />
    <glyph glyph-name="dieresis" unicode="&#xa8;" horiz-adv-x="564" 
d="M289 1284q4 18 13.5 33.5t23.5 27t30.5 18t34.5 6.5q35 0 54.5 -25t12.5 -60q-4 -18 -13.5 -33t-23.5 -26.5t-30.5 -18t-34.5 -6.5t-32 6.5t-23 18t-12.5 26.5t0.5 33zM558 1284q4 18 13.5 33.5t23.5 27t30.5 18t34.5 6.5q35 0 54.5 -25t12.5 -60q-4 -18 -13.5 -33
t-23.5 -26.5t-30.5 -18t-34.5 -6.5t-32 6.5t-23 18t-12.5 26.5t0.5 33z" />
    <glyph glyph-name="copyright" unicode="&#xa9;" horiz-adv-x="1596" 
d="M221 717q21 101 67.5 194.5t111 175t145.5 148t172.5 114.5t190.5 74t200 26t189 -26t159.5 -74t124 -114.5t83 -148t36.5 -175t-15 -194.5q-22 -101 -68 -194.5t-111 -175t-146 -148t-172.5 -114.5t-190.5 -74t-200 -26t-189 26t-159 74t-123.5 114.5t-83 148t-37 175
t15.5 194.5zM313 717q-28 -130 -3 -246.5t92.5 -204t173.5 -138.5t241 -51q91 0 178.5 23.5t167.5 65.5t150.5 101t126.5 130t95 152t58 168q28 130 4 246.5t-91 204t-173 138.5t-244 51q-91 0 -179 -23.5t-168 -65.5t-150 -101t-126 -130t-95.5 -152t-57.5 -168zM1037 1080
q-76 0 -148 -28t-131.5 -77t-102 -115.5t-58.5 -142.5t-2 -142t53 -115t99 -77t136 -28q46 0 95.5 14t94.5 35q15 6 31 11t30 5q23 0 39 -11t29 -26l7 -10q-31 -26 -70.5 -49.5t-85 -41.5t-95 -28.5t-99.5 -10.5q-98 0 -176.5 37.5t-129.5 102t-70 150.5t2 184t77 184.5
t134 151t172.5 102t192.5 37.5q49 0 93 -10t81.5 -28t67.5 -41.5t52 -50.5l-11 -9q-21 -17 -42.5 -27.5t-46.5 -10.5q-15 0 -26 4t-22 12q-36 23 -79 35t-91 14z" />
    <glyph glyph-name="ordfeminine" unicode="&#xaa;" horiz-adv-x="726" 
d="M408 1469q18 16 36 31q15 13 31.5 26t29.5 21q26 16 49.5 27.5t48 19t51 10.5t57.5 3q87 0 136 -32t69 -85.5t17 -123t-19 -144.5l-79 -372h-100q-3 5 -6 16.5t1 30.5l8 36q-75 -54 -138.5 -74.5t-120.5 -20.5h-11q-47 1 -88 16t-69 43.5t-40 70.5t0 98q10 45 35 87.5
t70.5 76t113.5 54t164 22.5h6q25 0 51 -2.5t47 -5.5t36 -6l20 -4q9 68 0.5 108.5t-28 62t-47.5 28t-56 6.5t-49.5 -4.5t-39 -11.5t-32.5 -14.5t-30 -13.5q-12 -5 -24.5 -10t-33.5 -5q-15 0 -30 7.5t-36 27.5zM501 957q53 0 118.5 21t141.5 60l29 137q-4 1 -17.5 4t-33.5 6
t-45 5t-51 2q-108 0 -174.5 -26t-81.5 -94q-7 -34 -2.5 -56t19.5 -35t39.5 -18.5t57.5 -5.5z" />
    <glyph glyph-name="guillemotleft" unicode="&#xab;" horiz-adv-x="862" 
d="M744 853q27 42 72 63t91 21h17l-235 -364q-7 -11 -16.5 -19.5t-17.5 -13.5q-11 -7 -21 -11q9 -6 16 -13q6 -6 12 -14.5t9 -19.5l82 -350h-17q-46 0 -84 24.5t-47 66.5l-64 278q-4 16 -11 23q-4 4 -7 5q5 2 10 6q5 3 10 8t10 13zM471 853q27 42 72 63t91 21h17l-235 -364
q-7 -11 -16.5 -19.5t-17.5 -13.5q-11 -7 -21 -11q9 -6 16 -13q6 -6 12 -14.5t9 -19.5l82 -350h-17q-46 0 -84 24.5t-47 66.5l-64 278q-4 16 -11 23q-4 4 -7 5q5 2 10 6q5 3 10 8t10 13z" />
    <glyph glyph-name="logicalnot" unicode="&#xac;" horiz-adv-x="1160" 
d="M959 316l53 251h-742l24 115h857l-77 -366h-115z" />
    <glyph glyph-name="uni00AD" unicode="&#xad;" horiz-adv-x="694" 
d="M713 541h-506l25 114h506z" />
    <glyph glyph-name="registered" unicode="&#xae;" horiz-adv-x="1596" 
d="M221 717q21 101 67.5 194.5t111 175t145.5 148t172.5 114.5t190.5 74t200 26t189 -26t159.5 -74t124 -114.5t83 -148t36.5 -175t-15 -194.5q-22 -101 -68 -194.5t-111 -175t-146 -148t-172.5 -114.5t-190.5 -74t-200 -26t-189 26t-159 74t-123.5 114.5t-83 148t-37 175
t15.5 194.5zM313 717q-28 -130 -1.5 -246.5t95.5 -204t174.5 -138.5t235.5 -51q90 0 185.5 26t178.5 73l-244 463h-170l-81 -382h-112l195 918h330q55 0 99.5 -21t73.5 -57t39.5 -85t-1.5 -105q-9 -45 -31.5 -85.5t-54.5 -74t-71.5 -58t-82.5 -37.5l215 -408q56 43 106 97
t90 114.5t68.5 126.5t43.5 135q28 130 1.5 246.5t-95.5 204t-174.5 138.5t-235.5 51q-87 0 -173 -23.5t-166 -65.5t-151.5 -101t-128.5 -130t-98 -152t-59 -168zM857 1063l-66 -311h228q29 0 58 12.5t53.5 34t42.5 49.5t24 59q7 34 -0.5 62.5t-24.5 49.5t-42 32.5t-52 11.5
h-221z" />
    <glyph glyph-name="macron" unicode="&#xaf;" horiz-adv-x="614" 
d="M866 1331l-24 -114h-554l24 114h554z" />
    <glyph glyph-name="degree" unicode="&#xb0;" horiz-adv-x="794" 
d="M315 1128q14 66 52 124.5t90.5 102t116.5 69t130 25.5t119.5 -25.5t88 -69t47 -102t-1.5 -124.5t-51.5 -124.5t-90.5 -102t-117 -69t-130 -25.5t-119 25.5t-87.5 69t-47.5 102t1 124.5zM428 1128q-9 -42 -0.5 -80t30.5 -66t56.5 -44.5t76.5 -16.5q43 0 84 16.5t75.5 44.5
t59 66t33.5 80q9 43 0.5 80.5t-31 66t-56.5 45t-77 16.5q-42 0 -83.5 -16.5t-75.5 -45t-58.5 -66t-33.5 -80.5z" />
    <glyph glyph-name="plusminus" unicode="&#xb1;" horiz-adv-x="1160" 
d="M612 420l80 378h-421l24 114h421l88 412h114l-88 -412h419l-24 -114h-419l-80 -378h-114zM1112 267h-954l24 114h954z" />
    <glyph glyph-name="twosuperior" unicode="&#xb2;" horiz-adv-x="647" 
d="M757 882h-479l5 22q2 13 8.5 32t26.5 35q94 75 178 145q36 30 72.5 62t69.5 62.5t59.5 58.5t43.5 51q23 29 29 60q9 40 0.5 65.5t-27 40.5t-44 20.5t-51.5 5.5q-37 0 -64 -12.5t-54 -33.5q-25 -20 -40.5 -30t-35.5 -10q-7 0 -21.5 6.5t-21.5 10.5l-7 5q10 14 27 36.5
t38 39.5q25 22 56 39q26 14 62.5 26t81.5 13q118 -5 165 -63.5t26 -158.5q-8 -35 -28.5 -74.5t-49.5 -68.5q-59 -59 -117.5 -111.5t-106.5 -94.5q-55 -48 -107 -90h325z" />
    <glyph glyph-name="threesuperior" unicode="&#xb3;" horiz-adv-x="618" 
d="M496 877q-99 0 -153 58q-14 17 -22.5 33.5t-13.5 30.5l6 3q5 3 14 7t18.5 7.5t18 6.5t12.5 3q25 0 40 -18l9 -10q9 -9 17.5 -15.5t18.5 -10t23 -5t31 -1.5q55 0 98 36.5t57 102.5q6 29 1 53t-19 41.5t-36 27t-49 9.5h-30l19 89h30q18 0 39.5 10t41 26.5t34 37.5t19.5 42
q6 30 -0.5 50t-20.5 33t-31 18.5t-32 5.5h-12q-18 0 -32 -6.5t-26.5 -14t-25 -13.5t-27.5 -6q-17 0 -29 11.5t-31 29.5q45 40 95 64.5t103 24.5q42 0 75 -15t54.5 -41.5t29.5 -62.5t-1 -77q-5 -21 -17.5 -45t-30.5 -46.5t-40 -41t-45 -29.5q55 -25 76 -73t10 -101
q-12 -54 -38 -97t-62 -72t-79 -44.5t-87 -15.5z" />
    <glyph glyph-name="acute" unicode="&#xb4;" horiz-adv-x="552" 
d="M475 1200q-17 -15 -41.5 -26t-57.5 -12l-44 -1q36 47 71 91t63 78t45.5 55t19.5 22q14 16 43.5 29t62.5 13h75z" />
    </font>
</defs>
</svg>
