<svg xmlns="http://www.w3.org/2000/svg">
<defs>
<font id="Aquawax-MediumItalic" horiz-adv-x="614" >
  <font-face 
    font-family="Aquawax"
    font-weight="500"
    font-style="italic"
    font-stretch="normal"
    units-per-em="2000"
    panose-1="2 0 5 3 2 0 0 2 0 4"
    ascent="1610"
    descent="-390"
    x-height="1050"
    cap-height="1433"
    bbox="-185 -463 3671 1886"
    underline-thickness="120"
    underline-position="-320"
    unicode-range="U+000D-FB04"
  />
<missing-glyph horiz-adv-x="4097" 
d="M2952 600q9 -8 16 -23q6 -14 6 -30q0 -14 -6 -29q-7 -14 -16 -23q-10 -10 -24 -16t-29 -6q-16 0 -29 6q-14 6 -24 16q-5 5 -9 11t-7 12q-6 15 -6 29q0 16 6 30q6 13 16 23q9 10 24 17q13 6 29 6q15 0 29 -6q15 -7 24 -17zM1109 577q-4 -6 -7 -10q-6 -4 -10 -6t-12 -2h-44
v61h44q6 0 12 -3q5 -1 10 -6q3 -3 7 -9q2 -8 2 -13q0 -4 -2 -12zM1479 600q10 -10 16 -23q6 -14 6 -30q0 -14 -6 -29q-3 -6 -7 -12t-9 -11q-10 -10 -24 -16t-29 -6q-16 0 -29 6q-14 6 -24 16q-9 9 -16 23q-6 15 -6 29q0 16 6 30q7 15 16 23q9 10 24 17q13 6 29 6q15 0 29 -6
q15 -7 24 -17zM1855 616q0 -6 2 -12l37 -84h-78l36 84q1 2 1 2.5t1 2.5q0 2 0.5 3.5t0.5 3.5zM784 610q3 -3 7 -11q3 -8 3 -14q0 -8 -3 -14q-4 -8 -7 -11q-6 -6 -11 -7q-4 -2 -7 -3t-7 -1h-44v71h44q6 0 14 -3q5 -1 11 -7zM3671 1084v-766h-3147v766h1193q0 80 30 151
q16 35 36.5 65t46.5 56q54 52 121 80q70 30 146 30q85 0 152 -32q70 -31 121 -84q26 -26 45.5 -56.5t34.5 -65.5q29 -70 29 -144h1192zM1774 1216q-26 -64 -26 -133q0 -71 27 -134q26 -62 74 -113q46 -47 111 -76q61 -29 137 -29q74 0 136 28q32 14 60 33t52 42t43 51t33 60
q27 64 27 138q0 67 -20 120q-19 53 -56 99q-35 42 -82 74q-24 14 -49.5 25.5t-51.5 19.5q-39 13 -92 13q-73 0 -139 -29q-64 -29 -111 -76q-45 -47 -73 -113zM817 561q5 12 5 24t-5 25q-4 9 -14 19q-8 9 -20 14q-10 5 -24 5h-71v-200h27v74h44q11 0 24 5q11 4 20 13
q10 10 14 21zM966 648h-124v-200h124v27h-96v60h78v28h-78v57h96v28zM1161 448l-63 86q10 3 16 8q9 6 13 13q5 5 9 16q2 5 2 9v9q0 14 -4 23q-2 5 -5.5 9.5t-7.5 9.5q-8 7 -18 12q-9 5 -23 5h-72v-200h28v83h30l52 -71q3 -5 10 -9q4 -3 15 -3h18zM1296 482q5 13 5 25

<glyph glyph-name=".notdef" horiz-adv-x="4097" 
d="M2952 600q9 -8 16 -23q6 -14 6 -30q0 -14 -6 -29q-7 -14 -16 -23q-10 -10 -24 -16t-29 -6q-16 0 -29 6q-14 6 -24 16q-5 5 -9 11t-7 12q-6 15 -6 29q0 16 6 30q6 13 16 23q9 10 24 17q13 6 29 6q15 0 29 -6q15 -7 24 -17zM1109 577q-4 -6 -7 -10q-6 -4 -10 -6t-12 -2h-44
v61h44q6 0 12 -3q5 -1 10 -6q3 -3 7 -9q2 -8 2 -13q0 -4 -2 -12zM1479 600q10 -10 16 -23q6 -14 6 -30q0 -14 -6 -29q-3 -6 -7 -12t-9 -11q-10 -10 -24 -16t-29 -6q-16 0 -29 6q-14 6 -24 16q-9 9 -16 23q-6 15 -6 29q0 16 6 30q7 15 16 23q9 10 24 17q13 6 29 6q15 0 29 -6
q15 -7 24 -17zM1855 616q0 -6 2 -12l37 -84h-78l36 84q1 2 1 2.5t1 2.5q0 2 0.5 3.5t0.5 3.5zM784 610q3 -3 7 -11q3 -8 3 -14q0 -8 -3 -14q-4 -8 -7 -11q-6 -6 -11 -7q-4 -2 -7 -3t-7 -1h-44v71h44q6 0 14 -3q5 -1 11 -7zM3671 1084v-766h-3147v766h1193q0 80 30 151
q16 35 36.5 65t46.5 56q54 52 121 80q70 30 146 30q85 0 152 -32q70 -31 121 -84q26 -26 45.5 -56.5t34.5 -65.5q29 -70 29 -144h1192zM1774 1216q-26 -64 -26 -133q0 -71 27 -134q26 -62 74 -113q46 -47 111 -76q61 -29 137 -29q74 0 136 28q32 14 60 33t52 42t43 51t33 60
q27 64 27 138q0 67 -20 120q-19 53 -56 99q-35 42 -82 74q-24 14 -49.5 25.5t-51.5 19.5q-39 13 -92 13q-73 0 -139 -29q-64 -29 -111 -76q-45 -47 -73 -113zM817 561q5 12 5 24t-5 25q-4 9 -14 19q-8 9 -20 14q-10 5 -24 5h-71v-200h27v74h44q11 0 24 5q11 4 20 13
q10 10 14 21zM966 648h-124v-200h124v27h-96v60h78v28h-78v57h96v28zM1161 448l-63 86q10 3 16 8q9 6 13 13q5 5 9 16q2 5 2 9v9q0 14 -4 23q-2 5 -5.5 9.5t-7.5 9.5q-8 7 -18 12q-9 5 -23 5h-72v-200h28v83h30l52 -71q3 -5 10 -9q4 -3 15 -3h18zM1296 482q5 13 5 25
q0 27 -21 44q-6 4 -9 5q-2 2 -4.5 2.5t-4.5 2.5q-2 1 -5 1.5t-5 2.5q-2 0 -5 1t-5 2q-5 2 -9 3.5t-8 3.5q-9 3 -11 5q-5 5 -6 8q-2 3 -2 10t2 10q4 6 7 8q3 1 11 5q3 1 5.5 1.5t6.5 0.5q2 0 5 -1t5 -2q3 -1 6 -2.5t5 -3.5q6 -3 12 -3q9 0 14 5l7 5l-4.5 4.5l-5.5 5.5
q-3 2 -6 4.5t-7 4.5q-5 4 -15 7q-8 3 -16 3q-12 0 -22 -3q-6 -2 -10.5 -4.5t-9.5 -5.5q-8 -8 -13 -17q-5 -10 -5 -22q0 -15 5 -22q4 -9 12 -15q9 -7 18 -11q5 -2 10 -4.5t10 -4.5q3 -2 6.5 -2.5t7.5 -2.5q10 -4 13 -6q6 -4 10 -10q3 -5 3 -13q0 -9 -4 -14q-2 -6 -9 -11
q-3 -2 -6.5 -3.5t-6.5 -3.5q-5 -1 -8 -1.5t-7 -0.5q-6 0 -14 2q-9 3 -12 8l-3 1q-6 7 -15 7q-6 0 -11 -4l-7 -3q1 -1 1 -2t2 -2q0 -2 1 -3t2 -3t5 -6q3 -5 6 -6q17 -16 45 -16q15 0 27 4q13 5 21 13q10 8 16 19zM1525 520q3 15 3 27q0 14 -3 28q-2 7 -4.5 13t-6.5 12
q-3 5 -7 10l-8 10q-10 8 -22 16q-5 4 -11 6.5t-13 4.5q-14 3 -27 3q-15 0 -27 -3q-7 -2 -13 -4.5t-12 -6.5q-5 -4 -10 -7.5t-10 -8.5q-9 -8 -16 -20q-4 -6 -6.5 -12t-4.5 -13t-3 -13.5t-1 -14.5q0 -21 9 -39q4 -10 9.5 -17.5t12.5 -15.5q13 -13 32 -21q17 -8 40 -8
q8 0 14 0.5t13 2.5t13 4.5t11 6.5q11 5 22 15q4 5 8 10.5t7 10.5q4 6 6.5 12t4.5 12zM1735 648h-28v-156q0 5 -1 8t-3 6l-97 134q-3 4 -8 6q-8 2 -12 2h-20v-200h28v168v-4l2 -4q0 -2 2 -4l114 -156h23v200zM1956 448l-87 200h-27l-88 -200h16q6 0 12 3l4 4t4 5l14 32h102
l14 -32q3 -7 8 -9q3 -3 12 -3h16zM2090 475h-87v173h-27v-200h114v27zM2365 648h-28v-122q0 -12 -4 -21q-2 -5 -4.5 -9t-7.5 -7q-3 -5 -7 -7.5t-9 -4.5q-9 -4 -21 -4t-20 4q-5 2 -9.5 4.5t-7.5 7.5q-7 5 -12 16q-2 5 -3 10t-1 11v122h-27v-122v-11.5t2 -10.5t4 -9.5t4 -9.5
q3 -5 6 -9t8 -7q5 -6 15 -13q11 -5 20 -8q10 -3 21 -3t22 3q5 2 9.5 4t9.5 4q9 6 16 13q4 3 7 7t6 9q2 5 4 9.5t4 9.5q3 10 3 22v122zM2519 482q5 10 5 25q0 29 -21 44q-2 2 -4 3l-4 2l-10 5q-6 2 -10 4q-2 0 -4.5 1t-5.5 2q-5 2 -8.5 3.5t-7.5 3.5t-6.5 2.5t-4.5 2.5
q-6 4 -7 8q-2 6 -2 10q0 5 3 10q4 6 7 8q2 1 4.5 2t5.5 3q8 2 13 2q2 0 4.5 -1t5.5 -2l5 -2.5t6 -3.5q6 -3 12 -3q8 0 13 5l8 5l-10 10q-3 2 -6 4.5t-7 4.5q-3 2 -7 3.5t-8 3.5q-9 3 -16 3q-13 0 -23 -3q-5 -2 -9.5 -4.5t-9.5 -5.5q-4 -4 -7.5 -8t-5.5 -9q-6 -9 -6 -22
q0 -12 5 -22t13 -15q8 -7 17 -11l21 -9q4 -2 7 -2.5t7 -2.5q3 -2 6.5 -3t6.5 -3q6 -5 9 -10q4 -4 4 -13t-4 -14q-2 -5 -10 -11q-5 -4 -13 -7q-10 -2 -14 -2q-7 0 -15 2q-9 3 -12 8l-2 1q-6 7 -16 7q-6 0 -10 -4l-8 -3q1 -1 1.5 -2t1.5 -2l3 -6q4 -4 5 -6q3 -5 7 -6
q17 -16 45 -16q14 0 26 4q12 5 22 13q8 7 15 19zM2683 648h-124v-200h124v27h-97v60h78v28h-78v57h97v28zM2998 520q3 15 3 27q0 14 -3 28q-2 7 -4.5 13t-6.5 12q-7 12 -16 20q-5 5 -10 8.5t-10 7.5q-6 4 -12 6.5t-13 4.5q-12 3 -27 3q-14 0 -27 -3q-7 -2 -13 -4.5t-12 -6.5
q-5 -4 -10.5 -7.5t-10.5 -8.5t-8.5 -10t-7.5 -10q-5 -10 -10 -25q-3 -14 -3 -28q0 -10 1.5 -20t6.5 -19q4 -10 9 -17.5t12 -15.5q15 -14 33 -21q16 -8 40 -8q7 0 14 0.5t13 2.5q7 2 13 4.5t12 6.5q12 7 20 15q5 5 9 10.5t7 10.5q4 6 6.5 12t4.5 12zM3208 648h-28v-156
q-2 9 -5 14l-97 134q-3 5 -8 6q-6 2 -12 2h-20v-200h28v168l2 -4q0 -3 1 -4q0 -2 2 -4l114 -156h23v200zM3371 475h-87v173h-27v-200h114v27zM3530 648h-19q-10 0 -14 -3q-7 -3 -10 -10l-48 -64q1 0 -2 -3q0 -1 -1 -2v-1v3q0 3 -2 3l-47 64q-6 8 -10 10q-8 3 -15 3h-19
l72 -97q1 -1 1.5 -2t1.5 -2q2 -4 3 -5q0 -1 0.5 -2t0.5 -2v-6v-84h28v84q0 2 0.5 3t0.5 3q1 1 1 2t1 2t1 2t2 3q0 1 3 4zM1983 789q-53 21 -97 58h423q-43 -37 -97 -58q-51 -22 -115 -22q-63 0 -114 22zM1922 881l411 415q79 -103 79 -213q0 -57 -18 -108q-17 -49 -53 -94
h-419zM1861 871q-19 22 -33.5 46t-24.5 51q-11 26 -15.5 55t-4.5 60q0 57 18 108q8 26 21.5 48.5t30.5 44.5h419zM2212 1378q55 -23 95 -60h-422q22 20 46.5 34.5t50.5 25.5q27 11 55.5 16t59.5 5q62 0 115 -21zM530 116q-6 8 -10 22q-2 6 -3 12t-1 13q0 6 1 12t3 12
q3 14 10 23q7 12 14 19t19 14q5 3 10.5 5.5t11.5 4.5q12 3 25 3q10 0 19 -2t18 -5q8 -5 15.5 -9.5t13.5 -11.5l-4 -4q0 -1 -1 -1q-1 -1 -2 -1q-2 -2 -4 -2h-5q-6 0 -9 2q-5 3 -9.5 5.5t-9.5 4.5q-11 3 -22 3q-15 0 -28 -5q-15 -7 -23 -16q-9 -8 -16 -23q-6 -14 -6 -28
q0 -10 3 -19t7 -18q3 -5 6 -8t6 -7q4 -3 7.5 -6t7.5 -5q5 -2 9 -3.5t9 -3.5q9 -3 19 -3q12 0 24 3q6 2 11.5 4.5t10.5 5.5v38h-14q-2 0 -3.5 0.5t-3.5 0.5q-2 2 -6 4q-1 2 -2 3t-1 3q-2 4 -2 7v2h51v-71q-5 -7 -14 -11q-8 -4 -15 -5q-5 -2 -9 -2.5t-9 -1.5h-19q-13 0 -25 3
q-11 3 -22 9q-12 7 -19 15q-7 7 -14 19zM742 233v-59h72v-20h-72v-62h90v-20h-111v182h111v-21h-90zM912 72v161h-58v21h137v-21h-58v-161h-21zM1126 233v-63h76v-20h-76v-78h-21v182h111v-21h-90zM1271 254v-112q0 -12 4 -20q2 -5 5 -9l6 -8l8 -6t9 -5q9 -4 20 -4
q12 0 20 4q5 2 9 5l8 6q6 6 11 17q5 10 5 20v112h20v-112q0 -16 -6 -28q-3 -7 -6.5 -12.5t-8.5 -10.5q-9 -9 -23 -16q-15 -5 -29 -5q-13 0 -28 5q-15 7 -23 16q-9 8 -16 23q-3 6 -4 13t-1 15v112h20zM1455 254v-162h81v-20h-102v182h21zM1579 254v-162h81v-20h-101v182h20z
M1826 72l-79 182h11q4 0 10 -3l3.5 -3.5t2.5 -4.5l60 -136q0 -2 0.5 -3t0.5 -3q1 -3 1 -6v6q2 4 2 6q8 17 15 34t15 34t15 34t15 34q2 4 6 8q6 3 10 3h11q-10 -23 -20 -45.5t-20 -45.5t-19.5 -45.5t-19.5 -45.5h-20zM1961 233v-59h73v-20h-73v-62h90v-20h-111v182h111v-21
h-90zM2187 157q-8 -5 -16 -6l59 -79h-12q-9 0 -12 2q-6 3 -9 8l-51 68h-31v-78h-21v182h65q12 0 20 -4q9 -4 17 -11q7 -8 11 -17q4 -8 4 -20q0 -9 -3 -18q-4 -9 -8 -15q-3 -4 -6 -6.5t-7 -5.5zM2159 170q6 0 12 3q3 1 5.5 2.5t4.5 3.5q4 4 7 10l2 6t1 7q0 3 -1 6l-2 6
q-3 6 -7 10t-10 7q-8 2 -12 2h-44v-63h44zM2326 98q6 4 9 11q4 5 4 14t-3 15t-9 9q-4 4 -12 7q-4 1 -14 5q-5 2 -9.5 4t-9.5 4q-11 3 -16 9q-6 4 -11 13q-3 7 -3 20q0 11 5 19q3 9 12 15q4 3 8 5.5t9 4.5q9 3 19 3q5 0 15 -2q5 -2 13 -6q3 -2 5.5 -4t4.5 -4q3 -2 5 -4l4 -4
l-5 -4q-4 -4 -10 -4q-4 0 -10 2q-2 2 -3 2.5t-2 1.5q-2 1 -2.5 1.5t-2.5 1.5q-2 0 -3 0.5t-3 0.5q-2 1 -6 1q-5 0 -13 -2q-4 -1 -10 -5q-6 -6 -7 -9q-3 -5 -3 -10q0 -8 2 -11q1 -4 6 -7q6 -4 11 -6q4 -2 8 -3t9 -3q3 -2 9 -4t9 -4q6 -2 9 -4q2 -1 3.5 -2t3.5 -2q8 -8 14 -17
q2 -5 3 -10.5t1 -12.5q0 -10 -5 -22q-4 -8 -13 -17q-8 -7 -20 -10q-9 -4 -23 -4q-26 0 -40 14q-3 2 -5.5 5t-4.5 5q-4 6 -4 8l4 2q2 2 4 2q1 1 4 1q8 0 13 -5q6 -7 14 -9q7 -3 15 -3q4 0 7 0.5t7 1.5q7 1 13 6zM2421 254v-182h-21v182h21zM2491 97q-13 12 -20 29
q-8 19 -8 37q0 6 1 12t3 12q3 13 9 23q4 5 7 9.5t8 9.5q5 4 9.5 7.5t9.5 6.5q11 7 22 10q12 3 25 3t25 -3q6 -2 11.5 -4.5t10.5 -5.5t9.5 -6.5t9.5 -7.5q5 -5 8 -9.5t6 -9.5t5.5 -11t4.5 -12q3 -12 3 -24q0 -20 -7 -37q-8 -17 -20 -29q-14 -14 -30 -20q-15 -7 -36 -7
q-20 0 -37 7q-17 6 -29 20zM2490 191q-6 -14 -6 -28q0 -10 3 -19t7 -18q2 -5 5 -8t6 -7q4 -3 7.5 -6t7.5 -5q5 -2 9 -3.5t9 -3.5q7 -3 19 -3q10 0 19 3q5 2 9 3.5t9 3.5q7 4 14 11t11 15q5 7 8 18q2 5 2 9.5v9.5q0 14 -6 28q-5 14 -15 23q-8 9 -23 16q-13 5 -28 5
q-8 0 -14.5 -1.5t-14.5 -3.5q-14 -7 -23 -16t-15 -23zM2704 72h-20v182h14q12 0 16 -7l94 -132q2 -2 2 -3t1 -3t1 -5v150h21v-182h-19l-107 150l-1 2q-1 1 -1 3t-1 3v-158zM2986 233v-63h76v-20h-76v-78h-20v182h111v-21h-91zM3204 169q-2 -4 -5 -6.5t-7 -5.5q-8 -5 -16 -6
l59 -79h-12q-9 0 -13 2q-5 3 -8 8l-50 68h-33v-78h-20v182h64q12 0 21 -4t16 -11t12 -17q2 -5 3 -10t1 -10q0 -9 -3 -18q-4 -10 -9 -15zM3176 173q3 1 5.5 2.5t4.5 3.5q5 5 6 10q3 6 3 13q0 6 -3 12q-1 5 -6 10q-4 4 -10 7q-8 2 -13 2h-44v-63h44q7 0 13 3zM3413 97
q-14 -14 -30 -20q-15 -7 -37 -7q-9 0 -18.5 1.5t-17.5 5.5q-17 6 -29 20q-7 6 -11.5 13.5t-8.5 15.5q-8 19 -8 37q0 6 1 12t3 12q3 14 10 23q4 9 14 19q7 7 19 14q5 3 10.5 5.5t11.5 4.5q12 3 24 3q14 0 26 -3q6 -2 11 -4.5t10 -5.5q6 -3 10.5 -6.5t9.5 -7.5q5 -5 8 -9.5
t6 -9.5q6 -10 9 -23q4 -11 4 -24q0 -21 -8 -37q-6 -16 -19 -29zM3346 90q11 0 20 3q5 2 9 3.5t8 3.5q5 2 8 5t7 6q7 7 11 15q5 7 8 18q2 5 2 9.5v9.5q0 13 -5 28q-7 15 -16 23q-9 9 -23 16q-15 5 -29 5q-13 0 -28 -5q-13 -6 -22 -16q-9 -8 -16 -23q-6 -14 -6 -28
q0 -5 0.5 -9.5t1.5 -9.5q2 -5 4 -9t4 -9t5 -8l7 -7q6 -7 14 -11q4 -2 8 -3.5t9 -3.5q9 -3 19 -3zM3645 251q4 3 9 3h17v-182h-20v151q0 -1 -1 -1q0 -2 -1 -3v-3q0 -1 -1 -2q-5 -11 -9 -20.5t-8 -19.5q-5 -10 -9 -18.5t-7 -17.5q-4 -9 -8 -17.5t-7 -16.5q-4 -8 -7.5 -16
t-7.5 -16h-21q-8 17 -15.5 35t-15.5 35l-16 36l-16 36q-1 1 -1 4q-1 2 -1 4v-150h-20v182h16q4 0 9 -3q6 -3 6 -8l63 -141q0 -3 1 -4t1 -4q0 3 2 11q2 2 2.5 4.5t2.5 5.5l57 128q1 5 6 8zM524 0h210v-23q0 -10 -1 -14q-3 -8 -6 -12l-141 -189l4 2l4 2q1 0 1.5 0.5t2.5 0.5
h135v-50h-217v16q0 5 2 13t4 13q2 3 3 5.5t3 5.5q5 5 8 11l125 169h-137v50zM769 0h182v-50h-130v-65h105v-50h-105v-68h130v-50h-182v283zM1179 -50h-83v-233h-52v233h-83v50h218v-50zM1307 0l123 -283h-32q-11 0 -20 6q-7 5 -14 15l-16 39h-129l-17 -39q-2 -5 -5 -8
q-2 -3 -8 -7t-10 -4q-3 -2 -10 -2h-33l124 283h47zM1325 -172l-37 86q-2 3 -2.5 6t-1.5 5q0 6 -1 8q0 -5 -1 -8q0 -2 -1 -5l-2 -6l-37 -86h83zM1442 0h181v-50h-130v-71h109v-50h-109v-112h-51v283zM1910 -69q5 -8 8.5 -16.5t5.5 -18.5q3 -8 4 -18t1 -20t-1 -19.5t-4 -18.5
q-4 -17 -14 -35q-9 -15 -23 -29q-6 -6 -13.5 -11.5t-15.5 -10.5t-16.5 -8.5t-17.5 -6.5q-10 -2 -19 -3.5t-20 -1.5q-29 0 -56 11q-27 12 -46 31q-10 11 -18 22t-13 24q-11 25 -11 56q0 10 1 20t3 18q5 17 15 35q5 8 10.5 15t12.5 15q14 12 29 22q17 9 34 15q17 4 39 4t39 -4
q17 -6 34 -15q8 -5 15.5 -10.5t13.5 -11.5q7 -8 12.5 -15t10.5 -15zM1871 -178q3 9 5 18t2 18q0 17 -7 36q-4 9 -9 16t-11 14q-15 14 -30 19q-18 8 -36 8t-36 -8q-16 -6 -29 -19q-12 -12 -21 -30q-7 -19 -7 -36q0 -9 2 -18t5 -18q5 -8 9.5 -15.5t11.5 -13.5q12 -13 29 -20
q15 -7 36 -7t36 7t30 20q12 12 20 29zM2166 0h52v-283h-48l-135 189q-3 2 -4 7q-2 2 -3 3.5t-2 3.5t-2 3.5t-2 3.5l-3 6v-216h-52v283h46q10 0 16 -3q8 -3 11 -9q15 -20 30 -41t29 -42l30 -42t29 -41q4 -6 6 -12q2 -8 2 -9v199zM2242 0h218v-50h-83v-233h-52v233h-83v50z
M2639 -145q8 -8 13 -23q5 -13 5 -28q0 -18 -8 -36q-9 -17 -22 -29q-15 -12 -33 -18q-9 -3 -18.5 -5t-18.5 -2q-11 0 -20.5 2t-19.5 5q-9 5 -16.5 9.5t-15.5 11.5q-5 5 -8 9t-6 9t-4.5 8.5t-3.5 7.5q2 1 3.5 2t3.5 2t3.5 2t3.5 2q6 2 8 3q2 0 4.5 0.5t4.5 0.5q6 0 12 -3
q8 -2 13 -4q9 -7 17 -10q8 -5 21 -5q3 0 7 0.5t9 1.5q4 2 8 3.5t7 3.5q9 6 12 13q6 7 6 17q0 7 -5 14q-4 5 -12 10q-6 4 -16 7q-5 2 -9 4t-9 4q-13 4 -29 11q-8 3 -14 7t-12 9q-12 10 -17 22q-7 13 -7 32q0 10 2 18t5 16q5 7 9.5 12.5t10.5 10.5q13 10 29 16q13 4 32 4
q13 0 24 -4q6 -2 11.5 -4.5t10.5 -5.5t9.5 -7t9.5 -8q10 -8 15 -16l-10 -8q-7 -5 -14 -8q-5 -2 -8 -2h-7h-3h-4q-6 2 -10 4q-6 2 -8 4q-2 0 -4 1t-4 1q-6 2 -8 2q-4 0 -7 -0.5t-7 -1.5q-5 -1 -11 -5q-6 -3 -9 -8q-2 -3 -2 -11t2 -11t4.5 -5t4.5 -4q6 -4 16 -7q5 -2 11 -4
t13 -4l9 -3q18 -6 29 -14q14 -9 22 -18zM2726 -233q5 -5 6 -10q3 -5 3 -12q0 -8 -3 -12q-1 -5 -6 -10q-4 -4 -10 -6q-6 -3 -13 -3t-11 3q-7 2 -11 6t-7 10q-2 6 -2 12t2 12q3 6 7 10t11 6q4 3 11 3t13 -3q6 -2 10 -6zM2833 -76q-13 -13 -20 -30q-8 -18 -8 -36q0 -17 8 -36
q4 -8 8.5 -15.5t11.5 -13.5t14 -11t16 -9q15 -7 35 -7q8 0 15 1t13 3q14 5 25 13q6 2 9 4q3 1 10 1q10 0 16 -3q8 -4 12 -8l11 -11q-12 -14 -23 -22q-7 -5 -13.5 -8.5t-13.5 -7.5q-13 -7 -30 -10q-12 -4 -31 -4q-28 0 -56 11q-27 12 -46 31q-19 20 -31 46q-11 28 -11 56
q0 20 5 38q2 10 5.5 18.5t8.5 16.5q10 15 23 30q7 6 14 11.5t16 10.5q16 9 34 15q17 4 38 4q8 0 16 -0.5t15 -2.5q8 -2 15 -4.5t15 -5.5q7 -4 13.5 -8t13.5 -9q13 -10 23 -21l-11 -12q-4 -4 -12 -8q-8 -3 -16 -3q-10 0 -19 6q-13 8 -25 12q-13 5 -28 5q-17 0 -35 -8
q-9 -3 -16 -8t-14 -11zM3298 -69q5 -8 8.5 -16.5t5.5 -18.5q3 -8 4 -18t1 -20t-1 -19.5t-4 -18.5q-4 -17 -14 -35q-9 -15 -23 -29q-7 -6 -14 -11.5t-16 -10.5q-8 -5 -16 -8.5t-18 -6.5q-20 -5 -38 -5q-29 0 -57 11q-13 6 -24.5 13.5t-20.5 17.5q-10 11 -18 22t-13 24
q-12 27 -12 56q0 20 5 38q5 17 15 35q5 8 10.5 15t12.5 15q6 6 13.5 11.5t15.5 10.5q17 9 34 15q17 4 39 4t38 -4q18 -6 34 -15q9 -5 16 -10.5t14 -11.5q7 -8 12.5 -15t10.5 -15zM3259 -178q3 9 5 18t2 18q0 17 -7 36q-9 17 -20 30q-15 14 -30 19q-18 8 -36 8t-36 -8
q-15 -5 -30 -19q-6 -7 -11 -14t-9 -16q-7 -15 -7 -36q0 -19 7 -36t20 -29q15 -13 30 -20t36 -7t36 7t30 20q6 6 10.5 13.5t9.5 15.5zM3609 -2q6 2 10 2h52v-283h-52v207q-3 -5 -4 -14q-2 -4 -2.5 -7.5t-2.5 -6.5q-9 -23 -18 -45t-19 -44q-9 -23 -18 -45t-19 -45h-47l-74 179
q-2 3 -3 6t-2 8q-1 3 -2 6.5t-2 5.5v-205h-52v283h51q4 0 12 -2q6 -2 9 -4q5 -3 8 -8q2 -2 6 -8q8 -22 16.5 -43.5t17.5 -42.5q8 -22 17 -43t17 -43q2 -2 2 -5q0 -2 0.5 -3t0.5 -3q1 -2 1 -6v-3q0 2 1 3q0 4 1 6q0 4 1 6q0 2 0.5 3t0.5 2l10 20l59 152q1 4 6 9q2 3 8 7
q4 2 10 4z" />
    <glyph glyph-name=".null" horiz-adv-x="0" 
 />
    <glyph glyph-name="nonmarkingreturn" unicode="&#xd;" horiz-adv-x="0" 
 />
    <glyph glyph-name="NULL" horiz-adv-x="0" 
 />
    <glyph glyph-name="NULL" horiz-adv-x="0" 
 />
    <glyph glyph-name="space" unicode=" " horiz-adv-x="617" 
 />
    <glyph glyph-name="exclam" unicode="!" horiz-adv-x="686" 
d="M339 454l208 980h198l-208 -980h-198zM502 120q-6 -28 -22 -52.5t-38 -43t-49 -29t-55 -10.5t-50.5 10.5t-36.5 29t-19.5 43t0.5 52.5t22 52.5t38 43t49 29t55 10.5t50.5 -10.5t36.5 -29t19.5 -43t-0.5 -52.5z" />
    <glyph glyph-name="quotedbl" unicode="&#x22;" horiz-adv-x="794" 
d="M767 1433h177l-82 -386q-4 -19 -14.5 -36t-25.5 -29.5t-32.5 -19.5t-36.5 -7q-38 0 -57 27t-11 65zM436 1433h177l-82 -386q-4 -19 -14.5 -36t-25.5 -29.5t-32.5 -19.5t-36.5 -7q-38 0 -57 27t-11 65z" />
    <glyph glyph-name="numbersign" unicode="#" horiz-adv-x="1160" 
d="M1098 1341q9 22 25 39t37 29t44.5 18t46.5 6h61l-181 -442h202l-24 -58q-9 -22 -24 -42t-33 -35.5t-39.5 -25t-43.5 -9.5h-108l-100 -247h222l-25 -58q-9 -22 -23.5 -42t-33 -35.5t-40 -25t-43.5 -9.5h-128l-127 -312q-9 -22 -25 -39t-36.5 -29t-44 -18t-46.5 -6h-61
l164 404h-224l-127 -312q-9 -22 -25 -39t-36.5 -29t-44 -18t-46.5 -6h-61l164 404h-189l25 59q9 22 23.5 42t32.5 35.5t39 25t44 9.5h95l101 246h-210l25 59q9 22 23.5 42t32.5 35.5t39 25t44 9.5h115l144 349q9 22 25 39t37 29t44.5 18t46.5 6h61l-181 -441h223zM561 575
h223l101 246h-224z" />
    <glyph glyph-name="dollar" unicode="$" horiz-adv-x="1065" 
d="M950 1189q-33 28 -69.5 44.5t-71.5 16.5q-47 0 -91 -13t-80.5 -36t-61.5 -54.5t-33 -68.5q-9 -43 -1.5 -73t33.5 -53.5t71 -44.5t111 -45q32 -14 64.5 -26.5t63.5 -27t60 -31.5t55 -40q127 -115 85 -310q-19 -88 -67.5 -163t-117 -131.5t-152 -93t-170.5 -48.5l-36 -168
h-104l35 163q-175 8 -271 114q-21 23 -36 46.5t-25.5 45.5t-16.5 40t-9 30l54 25q43 23 83 23q32 0 57.5 -12t42.5 -35l14 -13q32 -32 74 -49.5t102 -17.5q49 0 104.5 16t104.5 46.5t86 76t50 105.5q12 58 -6 96t-53.5 65t-82.5 46t-93 39q-45 19 -89.5 39t-83 43.5
t-69.5 53t-50 68t-24 88t9 113.5q16 79 59 142.5t102.5 110t130.5 75.5t145 38l30 137h104l-29 -134q53 -6 100.5 -27.5t87 -51t70 -63.5t48.5 -65l-59 -38q-49 -36 -105 -36q-46 0 -79 23z" />
    <glyph glyph-name="percent" unicode="%" horiz-adv-x="1572" 
d="M453 90q-42 -43 -89.5 -66.5t-105.5 -23.5h-136l1291 1343q42 43 89.5 66.5t105.5 23.5h136zM303 1082q16 76 56 143t96.5 116.5t126 78.5t145.5 29t134 -29t93.5 -78.5t46.5 -116.5t-5 -143t-56 -143t-96 -116.5t-126 -78t-146 -28.5t-133.5 28.5t-93 78t-47 116.5
t4.5 143zM476 1082q-8 -40 -3.5 -75t21 -61.5t45.5 -41.5t69 -15t75.5 15t63.5 41.5t47.5 61.5t27.5 75q9 40 4.5 75t-21 61.5t-45.5 41.5t-69 15t-75.5 -15t-63.5 -41.5t-47.5 -61.5t-28.5 -75zM877 352q16 76 56 143t96 116.5t126 78.5t146 29t133.5 -29t93 -78.5
t47 -116.5t-4.5 -143t-56 -143t-96 -116.5t-126 -78t-146 -28.5t-133.5 28.5t-93 78t-47 116.5t4.5 143zM1050 352q-8 -40 -3.5 -75t21 -61.5t45.5 -41.5t69 -15t75.5 15t63.5 41.5t47.5 61.5t27.5 75q9 40 4.5 75t-21.5 61.5t-46 41.5t-69 15t-75.5 -15t-63 -41.5
t-47 -61.5t-28.5 -75z" />
    <glyph glyph-name="ampersand" unicode="&#x26;" horiz-adv-x="1406" 
d="M973 552l75 -96l138 144q38 45 87.5 67.5t107.5 22.5h136l-357 -374l252 -316h-153q-40 0 -68 6t-49 17.5t-37.5 28t-33.5 38.5l-65 81q-111 -92 -226.5 -139t-232.5 -47q-100 0 -178.5 34.5t-129 94.5t-69.5 141t1 174q11 52 35 102.5t58.5 97.5t78.5 88t94 73
q12 8 27 8q16 0 32.5 -9.5t35.5 -22.5q-45 57 -58.5 130t3.5 155q19 88 66 161t111 125.5t139.5 82t151.5 29.5q63 0 121 -15.5t108 -45.5t89 -74.5t65 -102.5l-71 -22q-29 -9 -52.5 -13t-43.5 -4q-25 0 -43 5t-31 12.5t-22 15t-16 13.5q-53 41 -144 41q-38 0 -76.5 -15
t-70.5 -42.5t-56 -66t-34 -85.5q-8 -38 -2.5 -78t33.5 -75zM792 440l-187 235q-43 -14 -83 -38t-72.5 -55.5t-56 -70t-32.5 -82.5q-14 -64 -0.5 -111.5t46 -79t80 -47.5t101.5 -16q156 0 311 129z" />
    <glyph glyph-name="quotesingle" unicode="'" horiz-adv-x="460" 
d="M424 1433h217l-102 -386q-11 -38 -41 -65t-68 -27q-19 0 -33.5 7t-23.5 19.5t-12 29.5t1 36z" />
    <glyph glyph-name="parenleft" unicode="(" horiz-adv-x="600" 
d="M440 629q-22 -102 -30 -195t-4.5 -177t17.5 -158t35 -139q9 -26 9.5 -66t-7.5 -79q-7 -32 -19.5 -58t-32.5 -39l-43 -28q-41 75 -76.5 173t-55 216.5t-18 256t34.5 292.5q33 154 90 292.5t127 257.5t147 217t150 173l31 -28q14 -14 16 -39.5t-5 -57.5q-8 -39 -26 -79
t-38 -66q-98 -131 -178 -297t-124 -372z" />
    <glyph glyph-name="parenright" unicode=")" horiz-adv-x="600" 
d="M414 629q22 102 30 195t4.5 177t-17 158t-35.5 139q-8 26 -9 66t7 79q7 32 20 58t33 39l43 28q40 -75 75.5 -173t55 -217t18 -257.5t-34.5 -292.5q-33 -155 -90 -292.5t-127 -256t-147 -216.5t-149 -173l-31 28q-15 13 -17 39t5 58q8 39 26 79t38 66q99 131 178.5 297
t123.5 372z" />
    <glyph glyph-name="asterisk" unicode="*" horiz-adv-x="800" 
d="M359 955l-48 137l123 64q26 14 55.5 19.5t58.5 8.5q-27 2 -54 8.5t-47 20.5l-97 65l108 136l97 -64q21 -14 35.5 -35.5t25.5 -44.5q-7 25 -9 53t3 55l28 128h158l-28 -128q-5 -27 -19.5 -55t-33.5 -54q22 23 46.5 44.5t50.5 35.5l125 64l49 -137l-124 -64
q-27 -14 -56 -20t-58 -8q27 -2 54 -9t47 -20l97 -65l-108 -136l-97 64q-20 14 -35.5 35t-26.5 45q7 -26 9.5 -54t-2.5 -54l-27 -128h-158l27 128q6 27 20 54.5t31 52.5q-21 -23 -45 -44t-50 -34z" />
    <glyph glyph-name="plus" unicode="+" horiz-adv-x="1160" 
d="M525 190l81 383h-383l40 188h383l82 383h188l-82 -383h383l-40 -188h-383l-81 -383h-188z" />
    <glyph glyph-name="comma" unicode="," horiz-adv-x="424" 
d="M108 120q6 28 22 52.5t38 43t49 29t55 10.5t50.5 -10.5t36.5 -29t19.5 -43t-0.5 -52.5q-23 -107 -81 -194t-165 -164l-12 16q-10 13 -5 36q6 28 19.5 46t29 34.5t29.5 37t21 53.5h-12q-51 5 -78 43t-16 92z" />
    <glyph glyph-name="hyphen" unicode="-" horiz-adv-x="694" 
d="M720 573h-506l40 188h506z" />
    <glyph glyph-name="period" unicode="." horiz-adv-x="436" 
d="M108 120q6 28 22 52.5t38 43t49 29t55 10.5t50.5 -10.5t36.5 -29t19.5 -43t-0.5 -52.5t-22 -52.5t-38 -43t-49 -29t-55 -10.5t-50.5 10.5t-36.5 29t-19.5 43t0.5 52.5z" />
    <glyph glyph-name="slash" unicode="/" horiz-adv-x="852" 
d="M925 1380q27 42 71 67t90 25h84l-953 -1470q-27 -42 -71.5 -67t-90.5 -25h-83z" />
    <glyph glyph-name="zero" unicode="0" horiz-adv-x="4097" 
d="M2952 600q9 -8 16 -23q6 -14 6 -30q0 -14 -6 -29q-7 -14 -16 -23q-10 -10 -24 -16t-29 -6q-16 0 -29 6q-14 6 -24 16q-5 5 -9 11t-7 12q-6 15 -6 29q0 16 6 30q6 13 16 23q9 10 24 17q13 6 29 6q15 0 29 -6q15 -7 24 -17zM1109 577q-4 -6 -7 -10q-6 -4 -10 -6t-12 -2h-44
v61h44q6 0 12 -3q5 -1 10 -6q3 -3 7 -9q2 -8 2 -13q0 -4 -2 -12zM1479 600q10 -10 16 -23q6 -14 6 -30q0 -14 -6 -29q-3 -6 -7 -12t-9 -11q-10 -10 -24 -16t-29 -6q-16 0 -29 6q-14 6 -24 16q-9 9 -16 23q-6 15 -6 29q0 16 6 30q7 15 16 23q9 10 24 17q13 6 29 6q15 0 29 -6
q15 -7 24 -17zM1855 616q0 -6 2 -12l37 -84h-78l36 84q1 2 1 2.5t1 2.5q0 2 0.5 3.5t0.5 3.5zM784 610q3 -3 7 -11q3 -8 3 -14q0 -8 -3 -14q-4 -8 -7 -11q-6 -6 -11 -7q-4 -2 -7 -3t-7 -1h-44v71h44q6 0 14 -3q5 -1 11 -7zM3671 1084v-766h-3147v766h1193q0 80 30 151
q16 35 36.5 65t46.5 56q54 52 121 80q70 30 146 30q85 0 152 -32q70 -31 121 -84q26 -26 45.5 -56.5t34.5 -65.5q29 -70 29 -144h1192zM1774 1216q-26 -64 -26 -133q0 -71 27 -134q26 -62 74 -113q46 -47 111 -76q61 -29 137 -29q74 0 136 28q32 14 60 33t52 42t43 51t33 60
q27 64 27 138q0 67 -20 120q-19 53 -56 99q-35 42 -82 74q-24 14 -49.5 25.5t-51.5 19.5q-39 13 -92 13q-73 0 -139 -29q-64 -29 -111 -76q-45 -47 -73 -113zM817 561q5 12 5 24t-5 25q-4 9 -14 19q-8 9 -20 14q-10 5 -24 5h-71v-200h27v74h44q11 0 24 5q11 4 20 13
q10 10 14 21zM966 648h-124v-200h124v27h-96v60h78v28h-78v57h96v28zM1161 448l-63 86q10 3 16 8q9 6 13 13q5 5 9 16q2 5 2 9v9q0 14 -4 23q-2 5 -5.5 9.5t-7.5 9.5q-8 7 -18 12q-9 5 -23 5h-72v-200h28v83h30l52 -71q3 -5 10 -9q4 -3 15 -3h18zM1296 482q5 13 5 25
q0 27 -21 44q-6 4 -9 5q-2 2 -4.5 2.5t-4.5 2.5q-2 1 -5 1.5t-5 2.5q-2 0 -5 1t-5 2q-5 2 -9 3.5t-8 3.5q-9 3 -11 5q-5 5 -6 8q-2 3 -2 10t2 10q4 6 7 8q3 1 11 5q3 1 5.5 1.5t6.5 0.5q2 0 5 -1t5 -2q3 -1 6 -2.5t5 -3.5q6 -3 12 -3q9 0 14 5l7 5l-4.5 4.5l-5.5 5.5
q-3 2 -6 4.5t-7 4.5q-5 4 -15 7q-8 3 -16 3q-12 0 -22 -3q-6 -2 -10.5 -4.5t-9.5 -5.5q-8 -8 -13 -17q-5 -10 -5 -22q0 -15 5 -22q4 -9 12 -15q9 -7 18 -11q5 -2 10 -4.5t10 -4.5q3 -2 6.5 -2.5t7.5 -2.5q10 -4 13 -6q6 -4 10 -10q3 -5 3 -13q0 -9 -4 -14q-2 -6 -9 -11
q-3 -2 -6.5 -3.5t-6.5 -3.5q-5 -1 -8 -1.5t-7 -0.5q-6 0 -14 2q-9 3 -12 8l-3 1q-6 7 -15 7q-6 0 -11 -4l-7 -3q1 -1 1 -2t2 -2q0 -2 1 -3t2 -3t5 -6q3 -5 6 -6q17 -16 45 -16q15 0 27 4q13 5 21 13q10 8 16 19zM1525 520q3 15 3 27q0 14 -3 28q-2 7 -4.5 13t-6.5 12
q-3 5 -7 10l-8 10q-10 8 -22 16q-5 4 -11 6.5t-13 4.5q-14 3 -27 3q-15 0 -27 -3q-7 -2 -13 -4.5t-12 -6.5q-5 -4 -10 -7.5t-10 -8.5q-9 -8 -16 -20q-4 -6 -6.5 -12t-4.5 -13t-3 -13.5t-1 -14.5q0 -21 9 -39q4 -10 9.5 -17.5t12.5 -15.5q13 -13 32 -21q17 -8 40 -8
q8 0 14 0.5t13 2.5t13 4.5t11 6.5q11 5 22 15q4 5 8 10.5t7 10.5q4 6 6.5 12t4.5 12zM1735 648h-28v-156q0 5 -1 8t-3 6l-97 134q-3 4 -8 6q-8 2 -12 2h-20v-200h28v168v-4l2 -4q0 -2 2 -4l114 -156h23v200zM1956 448l-87 200h-27l-88 -200h16q6 0 12 3l4 4t4 5l14 32h102
l14 -32q3 -7 8 -9q3 -3 12 -3h16zM2090 475h-87v173h-27v-200h114v27zM2365 648h-28v-122q0 -12 -4 -21q-2 -5 -4.5 -9t-7.5 -7q-3 -5 -7 -7.5t-9 -4.5q-9 -4 -21 -4t-20 4q-5 2 -9.5 4.5t-7.5 7.5q-7 5 -12 16q-2 5 -3 10t-1 11v122h-27v-122v-11.5t2 -10.5t4 -9.5t4 -9.5
q3 -5 6 -9t8 -7q5 -6 15 -13q11 -5 20 -8q10 -3 21 -3t22 3q5 2 9.5 4t9.5 4q9 6 16 13q4 3 7 7t6 9q2 5 4 9.5t4 9.5q3 10 3 22v122zM2519 482q5 10 5 25q0 29 -21 44q-2 2 -4 3l-4 2l-10 5q-6 2 -10 4q-2 0 -4.5 1t-5.5 2q-5 2 -8.5 3.5t-7.5 3.5t-6.5 2.5t-4.5 2.5
q-6 4 -7 8q-2 6 -2 10q0 5 3 10q4 6 7 8q2 1 4.5 2t5.5 3q8 2 13 2q2 0 4.5 -1t5.5 -2l5 -2.5t6 -3.5q6 -3 12 -3q8 0 13 5l8 5l-10 10q-3 2 -6 4.5t-7 4.5q-3 2 -7 3.5t-8 3.5q-9 3 -16 3q-13 0 -23 -3q-5 -2 -9.5 -4.5t-9.5 -5.5q-4 -4 -7.5 -8t-5.5 -9q-6 -9 -6 -22
q0 -12 5 -22t13 -15q8 -7 17 -11l21 -9q4 -2 7 -2.5t7 -2.5q3 -2 6.5 -3t6.5 -3q6 -5 9 -10q4 -4 4 -13t-4 -14q-2 -5 -10 -11q-5 -4 -13 -7q-10 -2 -14 -2q-7 0 -15 2q-9 3 -12 8l-2 1q-6 7 -16 7q-6 0 -10 -4l-8 -3q1 -1 1.5 -2t1.5 -2l3 -6q4 -4 5 -6q3 -5 7 -6
q17 -16 45 -16q14 0 26 4q12 5 22 13q8 7 15 19zM2683 648h-124v-200h124v27h-97v60h78v28h-78v57h97v28zM2998 520q3 15 3 27q0 14 -3 28q-2 7 -4.5 13t-6.5 12q-7 12 -16 20q-5 5 -10 8.5t-10 7.5q-6 4 -12 6.5t-13 4.5q-12 3 -27 3q-14 0 -27 -3q-7 -2 -13 -4.5t-12 -6.5
q-5 -4 -10.5 -7.5t-10.5 -8.5t-8.5 -10t-7.5 -10q-5 -10 -10 -25q-3 -14 -3 -28q0 -10 1.5 -20t6.5 -19q4 -10 9 -17.5t12 -15.5q15 -14 33 -21q16 -8 40 -8q7 0 14 0.5t13 2.5q7 2 13 4.5t12 6.5q12 7 20 15q5 5 9 10.5t7 10.5q4 6 6.5 12t4.5 12zM3208 648h-28v-156
q-2 9 -5 14l-97 134q-3 5 -8 6q-6 2 -12 2h-20v-200h28v168l2 -4q0 -3 1 -4q0 -2 2 -4l114 -156h23v200zM3371 475h-87v173h-27v-200h114v27zM3530 648h-19q-10 0 -14 -3q-7 -3 -10 -10l-48 -64q1 0 -2 -3q0 -1 -1 -2v-1v3q0 3 -2 3l-47 64q-6 8 -10 10q-8 3 -15 3h-19
l72 -97q1 -1 1.5 -2t1.5 -2q2 -4 3 -5q0 -1 0.5 -2t0.5 -2v-6v-84h28v84q0 2 0.5 3t0.5 3q1 1 1 2t1 2t1 2t2 3q0 1 3 4zM1983 789q-53 21 -97 58h423q-43 -37 -97 -58q-51 -22 -115 -22q-63 0 -114 22zM1922 881l411 415q79 -103 79 -213q0 -57 -18 -108q-17 -49 -53 -94
h-419zM1861 871q-19 22 -33.5 46t-24.5 51q-11 26 -15.5 55t-4.5 60q0 57 18 108q8 26 21.5 48.5t30.5 44.5h419zM2212 1378q55 -23 95 -60h-422q22 20 46.5 34.5t50.5 25.5q27 11 55.5 16t59.5 5q62 0 115 -21zM530 116q-6 8 -10 22q-2 6 -3 12t-1 13q0 6 1 12t3 12
q3 14 10 23q7 12 14 19t19 14q5 3 10.5 5.5t11.5 4.5q12 3 25 3q10 0 19 -2t18 -5q8 -5 15.5 -9.5t13.5 -11.5l-4 -4q0 -1 -1 -1q-1 -1 -2 -1q-2 -2 -4 -2h-5q-6 0 -9 2q-5 3 -9.5 5.5t-9.5 4.5q-11 3 -22 3q-15 0 -28 -5q-15 -7 -23 -16q-9 -8 -16 -23q-6 -14 -6 -28
q0 -10 3 -19t7 -18q3 -5 6 -8t6 -7q4 -3 7.5 -6t7.5 -5q5 -2 9 -3.5t9 -3.5q9 -3 19 -3q12 0 24 3q6 2 11.5 4.5t10.5 5.5v38h-14q-2 0 -3.5 0.5t-3.5 0.5q-2 2 -6 4q-1 2 -2 3t-1 3q-2 4 -2 7v2h51v-71q-5 -7 -14 -11q-8 -4 -15 -5q-5 -2 -9 -2.5t-9 -1.5h-19q-13 0 -25 3
q-11 3 -22 9q-12 7 -19 15q-7 7 -14 19zM742 233v-59h72v-20h-72v-62h90v-20h-111v182h111v-21h-90zM912 72v161h-58v21h137v-21h-58v-161h-21zM1126 233v-63h76v-20h-76v-78h-21v182h111v-21h-90zM1271 254v-112q0 -12 4 -20q2 -5 5 -9l6 -8l8 -6t9 -5q9 -4 20 -4
q12 0 20 4q5 2 9 5l8 6q6 6 11 17q5 10 5 20v112h20v-112q0 -16 -6 -28q-3 -7 -6.5 -12.5t-8.5 -10.5q-9 -9 -23 -16q-15 -5 -29 -5q-13 0 -28 5q-15 7 -23 16q-9 8 -16 23q-3 6 -4 13t-1 15v112h20zM1455 254v-162h81v-20h-102v182h21zM1579 254v-162h81v-20h-101v182h20z
M1826 72l-79 182h11q4 0 10 -3l3.5 -3.5t2.5 -4.5l60 -136q0 -2 0.5 -3t0.5 -3q1 -3 1 -6v6q2 4 2 6q8 17 15 34t15 34t15 34t15 34q2 4 6 8q6 3 10 3h11q-10 -23 -20 -45.5t-20 -45.5t-19.5 -45.5t-19.5 -45.5h-20zM1961 233v-59h73v-20h-73v-62h90v-20h-111v182h111v-21
h-90zM2187 157q-8 -5 -16 -6l59 -79h-12q-9 0 -12 2q-6 3 -9 8l-51 68h-31v-78h-21v182h65q12 0 20 -4q9 -4 17 -11q7 -8 11 -17q4 -8 4 -20q0 -9 -3 -18q-4 -9 -8 -15q-3 -4 -6 -6.5t-7 -5.5zM2159 170q6 0 12 3q3 1 5.5 2.5t4.5 3.5q4 4 7 10l2 6t1 7q0 3 -1 6l-2 6
q-3 6 -7 10t-10 7q-8 2 -12 2h-44v-63h44zM2326 98q6 4 9 11q4 5 4 14t-3 15t-9 9q-4 4 -12 7q-4 1 -14 5q-5 2 -9.5 4t-9.5 4q-11 3 -16 9q-6 4 -11 13q-3 7 -3 20q0 11 5 19q3 9 12 15q4 3 8 5.5t9 4.5q9 3 19 3q5 0 15 -2q5 -2 13 -6q3 -2 5.5 -4t4.5 -4q3 -2 5 -4l4 -4
l-5 -4q-4 -4 -10 -4q-4 0 -10 2q-2 2 -3 2.5t-2 1.5q-2 1 -2.5 1.5t-2.5 1.5q-2 0 -3 0.5t-3 0.5q-2 1 -6 1q-5 0 -13 -2q-4 -1 -10 -5q-6 -6 -7 -9q-3 -5 -3 -10q0 -8 2 -11q1 -4 6 -7q6 -4 11 -6q4 -2 8 -3t9 -3q3 -2 9 -4t9 -4q6 -2 9 -4q2 -1 3.5 -2t3.5 -2q8 -8 14 -17
q2 -5 3 -10.5t1 -12.5q0 -10 -5 -22q-4 -8 -13 -17q-8 -7 -20 -10q-9 -4 -23 -4q-26 0 -40 14q-3 2 -5.5 5t-4.5 5q-4 6 -4 8l4 2q2 2 4 2q1 1 4 1q8 0 13 -5q6 -7 14 -9q7 -3 15 -3q4 0 7 0.5t7 1.5q7 1 13 6zM2421 254v-182h-21v182h21zM2491 97q-13 12 -20 29
q-8 19 -8 37q0 6 1 12t3 12q3 13 9 23q4 5 7 9.5t8 9.5q5 4 9.5 7.5t9.5 6.5q11 7 22 10q12 3 25 3t25 -3q6 -2 11.5 -4.5t10.5 -5.5t9.5 -6.5t9.5 -7.5q5 -5 8 -9.5t6 -9.5t5.5 -11t4.5 -12q3 -12 3 -24q0 -20 -7 -37q-8 -17 -20 -29q-14 -14 -30 -20q-15 -7 -36 -7
q-20 0 -37 7q-17 6 -29 20zM2490 191q-6 -14 -6 -28q0 -10 3 -19t7 -18q2 -5 5 -8t6 -7q4 -3 7.5 -6t7.5 -5q5 -2 9 -3.5t9 -3.5q7 -3 19 -3q10 0 19 3q5 2 9 3.5t9 3.5q7 4 14 11t11 15q5 7 8 18q2 5 2 9.5v9.5q0 14 -6 28q-5 14 -15 23q-8 9 -23 16q-13 5 -28 5
q-8 0 -14.5 -1.5t-14.5 -3.5q-14 -7 -23 -16t-15 -23zM2704 72h-20v182h14q12 0 16 -7l94 -132q2 -2 2 -3t1 -3t1 -5v150h21v-182h-19l-107 150l-1 2q-1 1 -1 3t-1 3v-158zM2986 233v-63h76v-20h-76v-78h-20v182h111v-21h-91zM3204 169q-2 -4 -5 -6.5t-7 -5.5q-8 -5 -16 -6
l59 -79h-12q-9 0 -13 2q-5 3 -8 8l-50 68h-33v-78h-20v182h64q12 0 21 -4t16 -11t12 -17q2 -5 3 -10t1 -10q0 -9 -3 -18q-4 -10 -9 -15zM3176 173q3 1 5.5 2.5t4.5 3.5q5 5 6 10q3 6 3 13q0 6 -3 12q-1 5 -6 10q-4 4 -10 7q-8 2 -13 2h-44v-63h44q7 0 13 3zM3413 97
q-14 -14 -30 -20q-15 -7 -37 -7q-9 0 -18.5 1.5t-17.5 5.5q-17 6 -29 20q-7 6 -11.5 13.5t-8.5 15.5q-8 19 -8 37q0 6 1 12t3 12q3 14 10 23q4 9 14 19q7 7 19 14q5 3 10.5 5.5t11.5 4.5q12 3 24 3q14 0 26 -3q6 -2 11 -4.5t10 -5.5q6 -3 10.5 -6.5t9.5 -7.5q5 -5 8 -9.5
t6 -9.5q6 -10 9 -23q4 -11 4 -24q0 -21 -8 -37q-6 -16 -19 -29zM3346 90q11 0 20 3q5 2 9 3.5t8 3.5q5 2 8 5t7 6q7 7 11 15q5 7 8 18q2 5 2 9.5v9.5q0 13 -5 28q-7 15 -16 23q-9 9 -23 16q-15 5 -29 5q-13 0 -28 -5q-13 -6 -22 -16q-9 -8 -16 -23q-6 -14 -6 -28
q0 -5 0.5 -9.5t1.5 -9.5q2 -5 4 -9t4 -9t5 -8l7 -7q6 -7 14 -11q4 -2 8 -3.5t9 -3.5q9 -3 19 -3zM3645 251q4 3 9 3h17v-182h-20v151q0 -1 -1 -1q0 -2 -1 -3v-3q0 -1 -1 -2q-5 -11 -9 -20.5t-8 -19.5q-5 -10 -9 -18.5t-7 -17.5q-4 -9 -8 -17.5t-7 -16.5q-4 -8 -7.5 -16
t-7.5 -16h-21q-8 17 -15.5 35t-15.5 35l-16 36l-16 36q-1 1 -1 4q-1 2 -1 4v-150h-20v182h16q4 0 9 -3q6 -3 6 -8l63 -141q0 -3 1 -4t1 -4q0 3 2 11q2 2 2.5 4.5t2.5 5.5l57 128q1 5 6 8zM524 0h210v-23q0 -10 -1 -14q-3 -8 -6 -12l-141 -189l4 2l4 2q1 0 1.5 0.5t2.5 0.5
h135v-50h-217v16q0 5 2 13t4 13q2 3 3 5.5t3 5.5q5 5 8 11l125 169h-137v50zM769 0h182v-50h-130v-65h105v-50h-105v-68h130v-50h-182v283zM1179 -50h-83v-233h-52v233h-83v50h218v-50zM1307 0l123 -283h-32q-11 0 -20 6q-7 5 -14 15l-16 39h-129l-17 -39q-2 -5 -5 -8
q-2 -3 -8 -7t-10 -4q-3 -2 -10 -2h-33l124 283h47zM1325 -172l-37 86q-2 3 -2.5 6t-1.5 5q0 6 -1 8q0 -5 -1 -8q0 -2 -1 -5l-2 -6l-37 -86h83zM1442 0h181v-50h-130v-71h109v-50h-109v-112h-51v283zM1910 -69q5 -8 8.5 -16.5t5.5 -18.5q3 -8 4 -18t1 -20t-1 -19.5t-4 -18.5
q-4 -17 -14 -35q-9 -15 -23 -29q-6 -6 -13.5 -11.5t-15.5 -10.5t-16.5 -8.5t-17.5 -6.5q-10 -2 -19 -3.5t-20 -1.5q-29 0 -56 11q-27 12 -46 31q-10 11 -18 22t-13 24q-11 25 -11 56q0 10 1 20t3 18q5 17 15 35q5 8 10.5 15t12.5 15q14 12 29 22q17 9 34 15q17 4 39 4t39 -4
q17 -6 34 -15q8 -5 15.5 -10.5t13.5 -11.5q7 -8 12.5 -15t10.5 -15zM1871 -178q3 9 5 18t2 18q0 17 -7 36q-4 9 -9 16t-11 14q-15 14 -30 19q-18 8 -36 8t-36 -8q-16 -6 -29 -19q-12 -12 -21 -30q-7 -19 -7 -36q0 -9 2 -18t5 -18q5 -8 9.5 -15.5t11.5 -13.5q12 -13 29 -20
q15 -7 36 -7t36 7t30 20q12 12 20 29zM2166 0h52v-283h-48l-135 189q-3 2 -4 7q-2 2 -3 3.5t-2 3.5t-2 3.5t-2 3.5l-3 6v-216h-52v283h46q10 0 16 -3q8 -3 11 -9q15 -20 30 -41t29 -42l30 -42t29 -41q4 -6 6 -12q2 -8 2 -9v199zM2242 0h218v-50h-83v-233h-52v233h-83v50z
M2639 -145q8 -8 13 -23q5 -13 5 -28q0 -18 -8 -36q-9 -17 -22 -29q-15 -12 -33 -18q-9 -3 -18.5 -5t-18.5 -2q-11 0 -20.5 2t-19.5 5q-9 5 -16.5 9.5t-15.5 11.5q-5 5 -8 9t-6 9t-4.5 8.5t-3.5 7.5q2 1 3.5 2t3.5 2t3.5 2t3.5 2q6 2 8 3q2 0 4.5 0.5t4.5 0.5q6 0 12 -3
q8 -2 13 -4q9 -7 17 -10q8 -5 21 -5q3 0 7 0.5t9 1.5q4 2 8 3.5t7 3.5q9 6 12 13q6 7 6 17q0 7 -5 14q-4 5 -12 10q-6 4 -16 7q-5 2 -9 4t-9 4q-13 4 -29 11q-8 3 -14 7t-12 9q-12 10 -17 22q-7 13 -7 32q0 10 2 18t5 16q5 7 9.5 12.5t10.5 10.5q13 10 29 16q13 4 32 4
q13 0 24 -4q6 -2 11.5 -4.5t10.5 -5.5t9.5 -7t9.5 -8q10 -8 15 -16l-10 -8q-7 -5 -14 -8q-5 -2 -8 -2h-7h-3h-4q-6 2 -10 4q-6 2 -8 4q-2 0 -4 1t-4 1q-6 2 -8 2q-4 0 -7 -0.5t-7 -1.5q-5 -1 -11 -5q-6 -3 -9 -8q-2 -3 -2 -11t2 -11t4.5 -5t4.5 -4q6 -4 16 -7q5 -2 11 -4
t13 -4l9 -3q18 -6 29 -14q14 -9 22 -18zM2726 -233q5 -5 6 -10q3 -5 3 -12q0 -8 -3 -12q-1 -5 -6 -10q-4 -4 -10 -6q-6 -3 -13 -3t-11 3q-7 2 -11 6t-7 10q-2 6 -2 12t2 12q3 6 7 10t11 6q4 3 11 3t13 -3q6 -2 10 -6zM2833 -76q-13 -13 -20 -30q-8 -18 -8 -36q0 -17 8 -36
q4 -8 8.5 -15.5t11.5 -13.5t14 -11t16 -9q15 -7 35 -7q8 0 15 1t13 3q14 5 25 13q6 2 9 4q3 1 10 1q10 0 16 -3q8 -4 12 -8l11 -11q-12 -14 -23 -22q-7 -5 -13.5 -8.5t-13.5 -7.5q-13 -7 -30 -10q-12 -4 -31 -4q-28 0 -56 11q-27 12 -46 31q-19 20 -31 46q-11 28 -11 56
q0 20 5 38q2 10 5.5 18.5t8.5 16.5q10 15 23 30q7 6 14 11.5t16 10.5q16 9 34 15q17 4 38 4q8 0 16 -0.5t15 -2.5q8 -2 15 -4.5t15 -5.5q7 -4 13.5 -8t13.5 -9q13 -10 23 -21l-11 -12q-4 -4 -12 -8q-8 -3 -16 -3q-10 0 -19 6q-13 8 -25 12q-13 5 -28 5q-17 0 -35 -8
q-9 -3 -16 -8t-14 -11zM3298 -69q5 -8 8.5 -16.5t5.5 -18.5q3 -8 4 -18t1 -20t-1 -19.5t-4 -18.5q-4 -17 -14 -35q-9 -15 -23 -29q-7 -6 -14 -11.5t-16 -10.5q-8 -5 -16 -8.5t-18 -6.5q-20 -5 -38 -5q-29 0 -57 11q-13 6 -24.5 13.5t-20.5 17.5q-10 11 -18 22t-13 24
q-12 27 -12 56q0 20 5 38q5 17 15 35q5 8 10.5 15t12.5 15q6 6 13.5 11.5t15.5 10.5q17 9 34 15q17 4 39 4t38 -4q18 -6 34 -15q9 -5 16 -10.5t14 -11.5q7 -8 12.5 -15t10.5 -15zM3259 -178q3 9 5 18t2 18q0 17 -7 36q-9 17 -20 30q-15 14 -30 19q-18 8 -36 8t-36 -8
q-15 -5 -30 -19q-6 -7 -11 -14t-9 -16q-7 -15 -7 -36q0 -19 7 -36t20 -29q15 -13 30 -20t36 -7t36 7t30 20q6 6 10.5 13.5t9.5 15.5zM3609 -2q6 2 10 2h52v-283h-52v207q-3 -5 -4 -14q-2 -4 -2.5 -7.5t-2.5 -6.5q-9 -23 -18 -45t-19 -44q-9 -23 -18 -45t-19 -45h-47l-74 179
q-2 3 -3 6t-2 8q-1 3 -2 6.5t-2 5.5v-205h-52v283h51q4 0 12 -2q6 -2 9 -4q5 -3 8 -8q2 -2 6 -8q8 -22 16.5 -43.5t17.5 -42.5q8 -22 17 -43t17 -43q2 -2 2 -5q0 -2 0.5 -3t0.5 -3q1 -2 1 -6v-3q0 2 1 3q0 4 1 6q0 4 1 6q0 2 0.5 3t0.5 2l10 20l59 152q1 4 6 9q2 3 8 7
q4 2 10 4z" />
    <glyph glyph-name="one" unicode="1" horiz-adv-x="4097" 
d="M2952 600q9 -8 16 -23q6 -14 6 -30q0 -14 -6 -29q-7 -14 -16 -23q-10 -10 -24 -16t-29 -6q-16 0 -29 6q-14 6 -24 16q-5 5 -9 11t-7 12q-6 15 -6 29q0 16 6 30q6 13 16 23q9 10 24 17q13 6 29 6q15 0 29 -6q15 -7 24 -17zM1109 577q-4 -6 -7 -10q-6 -4 -10 -6t-12 -2h-44
v61h44q6 0 12 -3q5 -1 10 -6q3 -3 7 -9q2 -8 2 -13q0 -4 -2 -12zM1479 600q10 -10 16 -23q6 -14 6 -30q0 -14 -6 -29q-3 -6 -7 -12t-9 -11q-10 -10 -24 -16t-29 -6q-16 0 -29 6q-14 6 -24 16q-9 9 -16 23q-6 15 -6 29q0 16 6 30q7 15 16 23q9 10 24 17q13 6 29 6q15 0 29 -6
q15 -7 24 -17zM1855 616q0 -6 2 -12l37 -84h-78l36 84q1 2 1 2.5t1 2.5q0 2 0.5 3.5t0.5 3.5zM784 610q3 -3 7 -11q3 -8 3 -14q0 -8 -3 -14q-4 -8 -7 -11q-6 -6 -11 -7q-4 -2 -7 -3t-7 -1h-44v71h44q6 0 14 -3q5 -1 11 -7zM3671 1084v-766h-3147v766h1193q0 80 30 151
q16 35 36.5 65t46.5 56q54 52 121 80q70 30 146 30q85 0 152 -32q70 -31 121 -84q26 -26 45.5 -56.5t34.5 -65.5q29 -70 29 -144h1192zM1774 1216q-26 -64 -26 -133q0 -71 27 -134q26 -62 74 -113q46 -47 111 -76q61 -29 137 -29q74 0 136 28q32 14 60 33t52 42t43 51t33 60
q27 64 27 138q0 67 -20 120q-19 53 -56 99q-35 42 -82 74q-24 14 -49.5 25.5t-51.5 19.5q-39 13 -92 13q-73 0 -139 -29q-64 -29 -111 -76q-45 -47 -73 -113zM817 561q5 12 5 24t-5 25q-4 9 -14 19q-8 9 -20 14q-10 5 -24 5h-71v-200h27v74h44q11 0 24 5q11 4 20 13
q10 10 14 21zM966 648h-124v-200h124v27h-96v60h78v28h-78v57h96v28zM1161 448l-63 86q10 3 16 8q9 6 13 13q5 5 9 16q2 5 2 9v9q0 14 -4 23q-2 5 -5.5 9.5t-7.5 9.5q-8 7 -18 12q-9 5 -23 5h-72v-200h28v83h30l52 -71q3 -5 10 -9q4 -3 15 -3h18zM1296 482q5 13 5 25
q0 27 -21 44q-6 4 -9 5q-2 2 -4.5 2.5t-4.5 2.5q-2 1 -5 1.5t-5 2.5q-2 0 -5 1t-5 2q-5 2 -9 3.5t-8 3.5q-9 3 -11 5q-5 5 -6 8q-2 3 -2 10t2 10q4 6 7 8q3 1 11 5q3 1 5.5 1.5t6.5 0.5q2 0 5 -1t5 -2q3 -1 6 -2.5t5 -3.5q6 -3 12 -3q9 0 14 5l7 5l-4.5 4.5l-5.5 5.5
q-3 2 -6 4.5t-7 4.5q-5 4 -15 7q-8 3 -16 3q-12 0 -22 -3q-6 -2 -10.5 -4.5t-9.5 -5.5q-8 -8 -13 -17q-5 -10 -5 -22q0 -15 5 -22q4 -9 12 -15q9 -7 18 -11q5 -2 10 -4.5t10 -4.5q3 -2 6.5 -2.5t7.5 -2.5q10 -4 13 -6q6 -4 10 -10q3 -5 3 -13q0 -9 -4 -14q-2 -6 -9 -11
q-3 -2 -6.5 -3.5t-6.5 -3.5q-5 -1 -8 -1.5t-7 -0.5q-6 0 -14 2q-9 3 -12 8l-3 1q-6 7 -15 7q-6 0 -11 -4l-7 -3q1 -1 1 -2t2 -2q0 -2 1 -3t2 -3t5 -6q3 -5 6 -6q17 -16 45 -16q15 0 27 4q13 5 21 13q10 8 16 19zM1525 520q3 15 3 27q0 14 -3 28q-2 7 -4.5 13t-6.5 12
q-3 5 -7 10l-8 10q-10 8 -22 16q-5 4 -11 6.5t-13 4.5q-14 3 -27 3q-15 0 -27 -3q-7 -2 -13 -4.5t-12 -6.5q-5 -4 -10 -7.5t-10 -8.5q-9 -8 -16 -20q-4 -6 -6.5 -12t-4.5 -13t-3 -13.5t-1 -14.5q0 -21 9 -39q4 -10 9.5 -17.5t12.5 -15.5q13 -13 32 -21q17 -8 40 -8
q8 0 14 0.5t13 2.5t13 4.5t11 6.5q11 5 22 15q4 5 8 10.5t7 10.5q4 6 6.5 12t4.5 12zM1735 648h-28v-156q0 5 -1 8t-3 6l-97 134q-3 4 -8 6q-8 2 -12 2h-20v-200h28v168v-4l2 -4q0 -2 2 -4l114 -156h23v200zM1956 448l-87 200h-27l-88 -200h16q6 0 12 3l4 4t4 5l14 32h102
l14 -32q3 -7 8 -9q3 -3 12 -3h16zM2090 475h-87v173h-27v-200h114v27zM2365 648h-28v-122q0 -12 -4 -21q-2 -5 -4.5 -9t-7.5 -7q-3 -5 -7 -7.5t-9 -4.5q-9 -4 -21 -4t-20 4q-5 2 -9.5 4.5t-7.5 7.5q-7 5 -12 16q-2 5 -3 10t-1 11v122h-27v-122v-11.5t2 -10.5t4 -9.5t4 -9.5
q3 -5 6 -9t8 -7q5 -6 15 -13q11 -5 20 -8q10 -3 21 -3t22 3q5 2 9.5 4t9.5 4q9 6 16 13q4 3 7 7t6 9q2 5 4 9.5t4 9.5q3 10 3 22v122zM2519 482q5 10 5 25q0 29 -21 44q-2 2 -4 3l-4 2l-10 5q-6 2 -10 4q-2 0 -4.5 1t-5.5 2q-5 2 -8.5 3.5t-7.5 3.5t-6.5 2.5t-4.5 2.5
q-6 4 -7 8q-2 6 -2 10q0 5 3 10q4 6 7 8q2 1 4.5 2t5.5 3q8 2 13 2q2 0 4.5 -1t5.5 -2l5 -2.5t6 -3.5q6 -3 12 -3q8 0 13 5l8 5l-10 10q-3 2 -6 4.5t-7 4.5q-3 2 -7 3.5t-8 3.5q-9 3 -16 3q-13 0 -23 -3q-5 -2 -9.5 -4.5t-9.5 -5.5q-4 -4 -7.5 -8t-5.5 -9q-6 -9 -6 -22
q0 -12 5 -22t13 -15q8 -7 17 -11l21 -9q4 -2 7 -2.5t7 -2.5q3 -2 6.5 -3t6.5 -3q6 -5 9 -10q4 -4 4 -13t-4 -14q-2 -5 -10 -11q-5 -4 -13 -7q-10 -2 -14 -2q-7 0 -15 2q-9 3 -12 8l-2 1q-6 7 -16 7q-6 0 -10 -4l-8 -3q1 -1 1.5 -2t1.5 -2l3 -6q4 -4 5 -6q3 -5 7 -6
q17 -16 45 -16q14 0 26 4q12 5 22 13q8 7 15 19zM2683 648h-124v-200h124v27h-97v60h78v28h-78v57h97v28zM2998 520q3 15 3 27q0 14 -3 28q-2 7 -4.5 13t-6.5 12q-7 12 -16 20q-5 5 -10 8.5t-10 7.5q-6 4 -12 6.5t-13 4.5q-12 3 -27 3q-14 0 -27 -3q-7 -2 -13 -4.5t-12 -6.5
q-5 -4 -10.5 -7.5t-10.5 -8.5t-8.5 -10t-7.5 -10q-5 -10 -10 -25q-3 -14 -3 -28q0 -10 1.5 -20t6.5 -19q4 -10 9 -17.5t12 -15.5q15 -14 33 -21q16 -8 40 -8q7 0 14 0.5t13 2.5q7 2 13 4.5t12 6.5q12 7 20 15q5 5 9 10.5t7 10.5q4 6 6.5 12t4.5 12zM3208 648h-28v-156
q-2 9 -5 14l-97 134q-3 5 -8 6q-6 2 -12 2h-20v-200h28v168l2 -4q0 -3 1 -4q0 -2 2 -4l114 -156h23v200zM3371 475h-87v173h-27v-200h114v27zM3530 648h-19q-10 0 -14 -3q-7 -3 -10 -10l-48 -64q1 0 -2 -3q0 -1 -1 -2v-1v3q0 3 -2 3l-47 64q-6 8 -10 10q-8 3 -15 3h-19
l72 -97q1 -1 1.5 -2t1.5 -2q2 -4 3 -5q0 -1 0.5 -2t0.5 -2v-6v-84h28v84q0 2 0.5 3t0.5 3q1 1 1 2t1 2t1 2t2 3q0 1 3 4zM1983 789q-53 21 -97 58h423q-43 -37 -97 -58q-51 -22 -115 -22q-63 0 -114 22zM1922 881l411 415q79 -103 79 -213q0 -57 -18 -108q-17 -49 -53 -94
h-419zM1861 871q-19 22 -33.5 46t-24.5 51q-11 26 -15.5 55t-4.5 60q0 57 18 108q8 26 21.5 48.5t30.5 44.5h419zM2212 1378q55 -23 95 -60h-422q22 20 46.5 34.5t50.5 25.5q27 11 55.5 16t59.5 5q62 0 115 -21zM530 116q-6 8 -10 22q-2 6 -3 12t-1 13q0 6 1 12t3 12
q3 14 10 23q7 12 14 19t19 14q5 3 10.5 5.5t11.5 4.5q12 3 25 3q10 0 19 -2t18 -5q8 -5 15.5 -9.5t13.5 -11.5l-4 -4q0 -1 -1 -1q-1 -1 -2 -1q-2 -2 -4 -2h-5q-6 0 -9 2q-5 3 -9.5 5.5t-9.5 4.5q-11 3 -22 3q-15 0 -28 -5q-15 -7 -23 -16q-9 -8 -16 -23q-6 -14 -6 -28
q0 -10 3 -19t7 -18q3 -5 6 -8t6 -7q4 -3 7.5 -6t7.5 -5q5 -2 9 -3.5t9 -3.5q9 -3 19 -3q12 0 24 3q6 2 11.5 4.5t10.5 5.5v38h-14q-2 0 -3.5 0.5t-3.5 0.5q-2 2 -6 4q-1 2 -2 3t-1 3q-2 4 -2 7v2h51v-71q-5 -7 -14 -11q-8 -4 -15 -5q-5 -2 -9 -2.5t-9 -1.5h-19q-13 0 -25 3
q-11 3 -22 9q-12 7 -19 15q-7 7 -14 19zM742 233v-59h72v-20h-72v-62h90v-20h-111v182h111v-21h-90zM912 72v161h-58v21h137v-21h-58v-161h-21zM1126 233v-63h76v-20h-76v-78h-21v182h111v-21h-90zM1271 254v-112q0 -12 4 -20q2 -5 5 -9l6 -8l8 -6t9 -5q9 -4 20 -4
q12 0 20 4q5 2 9 5l8 6q6 6 11 17q5 10 5 20v112h20v-112q0 -16 -6 -28q-3 -7 -6.5 -12.5t-8.5 -10.5q-9 -9 -23 -16q-15 -5 -29 -5q-13 0 -28 5q-15 7 -23 16q-9 8 -16 23q-3 6 -4 13t-1 15v112h20zM1455 254v-162h81v-20h-102v182h21zM1579 254v-162h81v-20h-101v182h20z
M1826 72l-79 182h11q4 0 10 -3l3.5 -3.5t2.5 -4.5l60 -136q0 -2 0.5 -3t0.5 -3q1 -3 1 -6v6q2 4 2 6q8 17 15 34t15 34t15 34t15 34q2 4 6 8q6 3 10 3h11q-10 -23 -20 -45.5t-20 -45.5t-19.5 -45.5t-19.5 -45.5h-20zM1961 233v-59h73v-20h-73v-62h90v-20h-111v182h111v-21
h-90zM2187 157q-8 -5 -16 -6l59 -79h-12q-9 0 -12 2q-6 3 -9 8l-51 68h-31v-78h-21v182h65q12 0 20 -4q9 -4 17 -11q7 -8 11 -17q4 -8 4 -20q0 -9 -3 -18q-4 -9 -8 -15q-3 -4 -6 -6.5t-7 -5.5zM2159 170q6 0 12 3q3 1 5.5 2.5t4.5 3.5q4 4 7 10l2 6t1 7q0 3 -1 6l-2 6
q-3 6 -7 10t-10 7q-8 2 -12 2h-44v-63h44zM2326 98q6 4 9 11q4 5 4 14t-3 15t-9 9q-4 4 -12 7q-4 1 -14 5q-5 2 -9.5 4t-9.5 4q-11 3 -16 9q-6 4 -11 13q-3 7 -3 20q0 11 5 19q3 9 12 15q4 3 8 5.5t9 4.5q9 3 19 3q5 0 15 -2q5 -2 13 -6q3 -2 5.5 -4t4.5 -4q3 -2 5 -4l4 -4
l-5 -4q-4 -4 -10 -4q-4 0 -10 2q-2 2 -3 2.5t-2 1.5q-2 1 -2.5 1.5t-2.5 1.5q-2 0 -3 0.5t-3 0.5q-2 1 -6 1q-5 0 -13 -2q-4 -1 -10 -5q-6 -6 -7 -9q-3 -5 -3 -10q0 -8 2 -11q1 -4 6 -7q6 -4 11 -6q4 -2 8 -3t9 -3q3 -2 9 -4t9 -4q6 -2 9 -4q2 -1 3.5 -2t3.5 -2q8 -8 14 -17
q2 -5 3 -10.5t1 -12.5q0 -10 -5 -22q-4 -8 -13 -17q-8 -7 -20 -10q-9 -4 -23 -4q-26 0 -40 14q-3 2 -5.5 5t-4.5 5q-4 6 -4 8l4 2q2 2 4 2q1 1 4 1q8 0 13 -5q6 -7 14 -9q7 -3 15 -3q4 0 7 0.5t7 1.5q7 1 13 6zM2421 254v-182h-21v182h21zM2491 97q-13 12 -20 29
q-8 19 -8 37q0 6 1 12t3 12q3 13 9 23q4 5 7 9.5t8 9.5q5 4 9.5 7.5t9.5 6.5q11 7 22 10q12 3 25 3t25 -3q6 -2 11.5 -4.5t10.5 -5.5t9.5 -6.5t9.5 -7.5q5 -5 8 -9.5t6 -9.5t5.5 -11t4.5 -12q3 -12 3 -24q0 -20 -7 -37q-8 -17 -20 -29q-14 -14 -30 -20q-15 -7 -36 -7
q-20 0 -37 7q-17 6 -29 20zM2490 191q-6 -14 -6 -28q0 -10 3 -19t7 -18q2 -5 5 -8t6 -7q4 -3 7.5 -6t7.5 -5q5 -2 9 -3.5t9 -3.5q7 -3 19 -3q10 0 19 3q5 2 9 3.5t9 3.5q7 4 14 11t11 15q5 7 8 18q2 5 2 9.5v9.5q0 14 -6 28q-5 14 -15 23q-8 9 -23 16q-13 5 -28 5
q-8 0 -14.5 -1.5t-14.5 -3.5q-14 -7 -23 -16t-15 -23zM2704 72h-20v182h14q12 0 16 -7l94 -132q2 -2 2 -3t1 -3t1 -5v150h21v-182h-19l-107 150l-1 2q-1 1 -1 3t-1 3v-158zM2986 233v-63h76v-20h-76v-78h-20v182h111v-21h-91zM3204 169q-2 -4 -5 -6.5t-7 -5.5q-8 -5 -16 -6
l59 -79h-12q-9 0 -13 2q-5 3 -8 8l-50 68h-33v-78h-20v182h64q12 0 21 -4t16 -11t12 -17q2 -5 3 -10t1 -10q0 -9 -3 -18q-4 -10 -9 -15zM3176 173q3 1 5.5 2.5t4.5 3.5q5 5 6 10q3 6 3 13q0 6 -3 12q-1 5 -6 10q-4 4 -10 7q-8 2 -13 2h-44v-63h44q7 0 13 3zM3413 97
q-14 -14 -30 -20q-15 -7 -37 -7q-9 0 -18.5 1.5t-17.5 5.5q-17 6 -29 20q-7 6 -11.5 13.5t-8.5 15.5q-8 19 -8 37q0 6 1 12t3 12q3 14 10 23q4 9 14 19q7 7 19 14q5 3 10.5 5.5t11.5 4.5q12 3 24 3q14 0 26 -3q6 -2 11 -4.5t10 -5.5q6 -3 10.5 -6.5t9.5 -7.5q5 -5 8 -9.5
t6 -9.5q6 -10 9 -23q4 -11 4 -24q0 -21 -8 -37q-6 -16 -19 -29zM3346 90q11 0 20 3q5 2 9 3.5t8 3.5q5 2 8 5t7 6q7 7 11 15q5 7 8 18q2 5 2 9.5v9.5q0 13 -5 28q-7 15 -16 23q-9 9 -23 16q-15 5 -29 5q-13 0 -28 -5q-13 -6 -22 -16q-9 -8 -16 -23q-6 -14 -6 -28
q0 -5 0.5 -9.5t1.5 -9.5q2 -5 4 -9t4 -9t5 -8l7 -7q6 -7 14 -11q4 -2 8 -3.5t9 -3.5q9 -3 19 -3zM3645 251q4 3 9 3h17v-182h-20v151q0 -1 -1 -1q0 -2 -1 -3v-3q0 -1 -1 -2q-5 -11 -9 -20.5t-8 -19.5q-5 -10 -9 -18.5t-7 -17.5q-4 -9 -8 -17.5t-7 -16.5q-4 -8 -7.5 -16
t-7.5 -16h-21q-8 17 -15.5 35t-15.5 35l-16 36l-16 36q-1 1 -1 4q-1 2 -1 4v-150h-20v182h16q4 0 9 -3q6 -3 6 -8l63 -141q0 -3 1 -4t1 -4q0 3 2 11q2 2 2.5 4.5t2.5 5.5l57 128q1 5 6 8zM524 0h210v-23q0 -10 -1 -14q-3 -8 -6 -12l-141 -189l4 2l4 2q1 0 1.5 0.5t2.5 0.5
h135v-50h-217v16q0 5 2 13t4 13q2 3 3 5.5t3 5.5q5 5 8 11l125 169h-137v50zM769 0h182v-50h-130v-65h105v-50h-105v-68h130v-50h-182v283zM1179 -50h-83v-233h-52v233h-83v50h218v-50zM1307 0l123 -283h-32q-11 0 -20 6q-7 5 -14 15l-16 39h-129l-17 -39q-2 -5 -5 -8
q-2 -3 -8 -7t-10 -4q-3 -2 -10 -2h-33l124 283h47zM1325 -172l-37 86q-2 3 -2.5 6t-1.5 5q0 6 -1 8q0 -5 -1 -8q0 -2 -1 -5l-2 -6l-37 -86h83zM1442 0h181v-50h-130v-71h109v-50h-109v-112h-51v283zM1910 -69q5 -8 8.5 -16.5t5.5 -18.5q3 -8 4 -18t1 -20t-1 -19.5t-4 -18.5
q-4 -17 -14 -35q-9 -15 -23 -29q-6 -6 -13.5 -11.5t-15.5 -10.5t-16.5 -8.5t-17.5 -6.5q-10 -2 -19 -3.5t-20 -1.5q-29 0 -56 11q-27 12 -46 31q-10 11 -18 22t-13 24q-11 25 -11 56q0 10 1 20t3 18q5 17 15 35q5 8 10.5 15t12.5 15q14 12 29 22q17 9 34 15q17 4 39 4t39 -4
q17 -6 34 -15q8 -5 15.5 -10.5t13.5 -11.5q7 -8 12.5 -15t10.5 -15zM1871 -178q3 9 5 18t2 18q0 17 -7 36q-4 9 -9 16t-11 14q-15 14 -30 19q-18 8 -36 8t-36 -8q-16 -6 -29 -19q-12 -12 -21 -30q-7 -19 -7 -36q0 -9 2 -18t5 -18q5 -8 9.5 -15.5t11.5 -13.5q12 -13 29 -20
q15 -7 36 -7t36 7t30 20q12 12 20 29zM2166 0h52v-283h-48l-135 189q-3 2 -4 7q-2 2 -3 3.5t-2 3.5t-2 3.5t-2 3.5l-3 6v-216h-52v283h46q10 0 16 -3q8 -3 11 -9q15 -20 30 -41t29 -42l30 -42t29 -41q4 -6 6 -12q2 -8 2 -9v199zM2242 0h218v-50h-83v-233h-52v233h-83v50z
M2639 -145q8 -8 13 -23q5 -13 5 -28q0 -18 -8 -36q-9 -17 -22 -29q-15 -12 -33 -18q-9 -3 -18.5 -5t-18.5 -2q-11 0 -20.5 2t-19.5 5q-9 5 -16.5 9.5t-15.5 11.5q-5 5 -8 9t-6 9t-4.5 8.5t-3.5 7.5q2 1 3.5 2t3.5 2t3.5 2t3.5 2q6 2 8 3q2 0 4.5 0.5t4.5 0.5q6 0 12 -3
q8 -2 13 -4q9 -7 17 -10q8 -5 21 -5q3 0 7 0.5t9 1.5q4 2 8 3.5t7 3.5q9 6 12 13q6 7 6 17q0 7 -5 14q-4 5 -12 10q-6 4 -16 7q-5 2 -9 4t-9 4q-13 4 -29 11q-8 3 -14 7t-12 9q-12 10 -17 22q-7 13 -7 32q0 10 2 18t5 16q5 7 9.5 12.5t10.5 10.5q13 10 29 16q13 4 32 4
q13 0 24 -4q6 -2 11.5 -4.5t10.5 -5.5t9.5 -7t9.5 -8q10 -8 15 -16l-10 -8q-7 -5 -14 -8q-5 -2 -8 -2h-7h-3h-4q-6 2 -10 4q-6 2 -8 4q-2 0 -4 1t-4 1q-6 2 -8 2q-4 0 -7 -0.5t-7 -1.5q-5 -1 -11 -5q-6 -3 -9 -8q-2 -3 -2 -11t2 -11t4.5 -5t4.5 -4q6 -4 16 -7q5 -2 11 -4
t13 -4l9 -3q18 -6 29 -14q14 -9 22 -18zM2726 -233q5 -5 6 -10q3 -5 3 -12q0 -8 -3 -12q-1 -5 -6 -10q-4 -4 -10 -6q-6 -3 -13 -3t-11 3q-7 2 -11 6t-7 10q-2 6 -2 12t2 12q3 6 7 10t11 6q4 3 11 3t13 -3q6 -2 10 -6zM2833 -76q-13 -13 -20 -30q-8 -18 -8 -36q0 -17 8 -36
q4 -8 8.5 -15.5t11.5 -13.5t14 -11t16 -9q15 -7 35 -7q8 0 15 1t13 3q14 5 25 13q6 2 9 4q3 1 10 1q10 0 16 -3q8 -4 12 -8l11 -11q-12 -14 -23 -22q-7 -5 -13.5 -8.5t-13.5 -7.5q-13 -7 -30 -10q-12 -4 -31 -4q-28 0 -56 11q-27 12 -46 31q-19 20 -31 46q-11 28 -11 56
q0 20 5 38q2 10 5.5 18.5t8.5 16.5q10 15 23 30q7 6 14 11.5t16 10.5q16 9 34 15q17 4 38 4q8 0 16 -0.5t15 -2.5q8 -2 15 -4.5t15 -5.5q7 -4 13.5 -8t13.5 -9q13 -10 23 -21l-11 -12q-4 -4 -12 -8q-8 -3 -16 -3q-10 0 -19 6q-13 8 -25 12q-13 5 -28 5q-17 0 -35 -8
q-9 -3 -16 -8t-14 -11zM3298 -69q5 -8 8.5 -16.5t5.5 -18.5q3 -8 4 -18t1 -20t-1 -19.5t-4 -18.5q-4 -17 -14 -35q-9 -15 -23 -29q-7 -6 -14 -11.5t-16 -10.5q-8 -5 -16 -8.5t-18 -6.5q-20 -5 -38 -5q-29 0 -57 11q-13 6 -24.5 13.5t-20.5 17.5q-10 11 -18 22t-13 24
q-12 27 -12 56q0 20 5 38q5 17 15 35q5 8 10.5 15t12.5 15q6 6 13.5 11.5t15.5 10.5q17 9 34 15q17 4 39 4t38 -4q18 -6 34 -15q9 -5 16 -10.5t14 -11.5q7 -8 12.5 -15t10.5 -15zM3259 -178q3 9 5 18t2 18q0 17 -7 36q-9 17 -20 30q-15 14 -30 19q-18 8 -36 8t-36 -8
q-15 -5 -30 -19q-6 -7 -11 -14t-9 -16q-7 -15 -7 -36q0 -19 7 -36t20 -29q15 -13 30 -20t36 -7t36 7t30 20q6 6 10.5 13.5t9.5 15.5zM3609 -2q6 2 10 2h52v-283h-52v207q-3 -5 -4 -14q-2 -4 -2.5 -7.5t-2.5 -6.5q-9 -23 -18 -45t-19 -44q-9 -23 -18 -45t-19 -45h-47l-74 179
q-2 3 -3 6t-2 8q-1 3 -2 6.5t-2 5.5v-205h-52v283h51q4 0 12 -2q6 -2 9 -4q5 -3 8 -8q2 -2 6 -8q8 -22 16.5 -43.5t17.5 -42.5q8 -22 17 -43t17 -43q2 -2 2 -5q0 -2 0.5 -3t0.5 -3q1 -2 1 -6v-3q0 2 1 3q0 4 1 6q0 4 1 6q0 2 0.5 3t0.5 2l10 20l59 152q1 4 6 9q2 3 8 7
q4 2 10 4z" />
    <glyph glyph-name="two" unicode="2" horiz-adv-x="4097" 
d="M2952 600q9 -8 16 -23q6 -14 6 -30q0 -14 -6 -29q-7 -14 -16 -23q-10 -10 -24 -16t-29 -6q-16 0 -29 6q-14 6 -24 16q-5 5 -9 11t-7 12q-6 15 -6 29q0 16 6 30q6 13 16 23q9 10 24 17q13 6 29 6q15 0 29 -6q15 -7 24 -17zM1109 577q-4 -6 -7 -10q-6 -4 -10 -6t-12 -2h-44
v61h44q6 0 12 -3q5 -1 10 -6q3 -3 7 -9q2 -8 2 -13q0 -4 -2 -12zM1479 600q10 -10 16 -23q6 -14 6 -30q0 -14 -6 -29q-3 -6 -7 -12t-9 -11q-10 -10 -24 -16t-29 -6q-16 0 -29 6q-14 6 -24 16q-9 9 -16 23q-6 15 -6 29q0 16 6 30q7 15 16 23q9 10 24 17q13 6 29 6q15 0 29 -6
q15 -7 24 -17zM1855 616q0 -6 2 -12l37 -84h-78l36 84q1 2 1 2.5t1 2.5q0 2 0.5 3.5t0.5 3.5zM784 610q3 -3 7 -11q3 -8 3 -14q0 -8 -3 -14q-4 -8 -7 -11q-6 -6 -11 -7q-4 -2 -7 -3t-7 -1h-44v71h44q6 0 14 -3q5 -1 11 -7zM3671 1084v-766h-3147v766h1193q0 80 30 151
q16 35 36.5 65t46.5 56q54 52 121 80q70 30 146 30q85 0 152 -32q70 -31 121 -84q26 -26 45.5 -56.5t34.5 -65.5q29 -70 29 -144h1192zM1774 1216q-26 -64 -26 -133q0 -71 27 -134q26 -62 74 -113q46 -47 111 -76q61 -29 137 -29q74 0 136 28q32 14 60 33t52 42t43 51t33 60
q27 64 27 138q0 67 -20 120q-19 53 -56 99q-35 42 -82 74q-24 14 -49.5 25.5t-51.5 19.5q-39 13 -92 13q-73 0 -139 -29q-64 -29 -111 -76q-45 -47 -73 -113zM817 561q5 12 5 24t-5 25q-4 9 -14 19q-8 9 -20 14q-10 5 -24 5h-71v-200h27v74h44q11 0 24 5q11 4 20 13
q10 10 14 21zM966 648h-124v-200h124v27h-96v60h78v28h-78v57h96v28zM1161 448l-63 86q10 3 16 8q9 6 13 13q5 5 9 16q2 5 2 9v9q0 14 -4 23q-2 5 -5.5 9.5t-7.5 9.5q-8 7 -18 12q-9 5 -23 5h-72v-200h28v83h30l52 -71q3 -5 10 -9q4 -3 15 -3h18zM1296 482q5 13 5 25
q0 27 -21 44q-6 4 -9 5q-2 2 -4.5 2.5t-4.5 2.5q-2 1 -5 1.5t-5 2.5q-2 0 -5 1t-5 2q-5 2 -9 3.5t-8 3.5q-9 3 -11 5q-5 5 -6 8q-2 3 -2 10t2 10q4 6 7 8q3 1 11 5q3 1 5.5 1.5t6.5 0.5q2 0 5 -1t5 -2q3 -1 6 -2.5t5 -3.5q6 -3 12 -3q9 0 14 5l7 5l-4.5 4.5l-5.5 5.5
q-3 2 -6 4.5t-7 4.5q-5 4 -15 7q-8 3 -16 3q-12 0 -22 -3q-6 -2 -10.5 -4.5t-9.5 -5.5q-8 -8 -13 -17q-5 -10 -5 -22q0 -15 5 -22q4 -9 12 -15q9 -7 18 -11q5 -2 10 -4.5t10 -4.5q3 -2 6.5 -2.5t7.5 -2.5q10 -4 13 -6q6 -4 10 -10q3 -5 3 -13q0 -9 -4 -14q-2 -6 -9 -11
q-3 -2 -6.5 -3.5t-6.5 -3.5q-5 -1 -8 -1.5t-7 -0.5q-6 0 -14 2q-9 3 -12 8l-3 1q-6 7 -15 7q-6 0 -11 -4l-7 -3q1 -1 1 -2t2 -2q0 -2 1 -3t2 -3t5 -6q3 -5 6 -6q17 -16 45 -16q15 0 27 4q13 5 21 13q10 8 16 19zM1525 520q3 15 3 27q0 14 -3 28q-2 7 -4.5 13t-6.5 12
q-3 5 -7 10l-8 10q-10 8 -22 16q-5 4 -11 6.5t-13 4.5q-14 3 -27 3q-15 0 -27 -3q-7 -2 -13 -4.5t-12 -6.5q-5 -4 -10 -7.5t-10 -8.5q-9 -8 -16 -20q-4 -6 -6.5 -12t-4.5 -13t-3 -13.5t-1 -14.5q0 -21 9 -39q4 -10 9.5 -17.5t12.5 -15.5q13 -13 32 -21q17 -8 40 -8
q8 0 14 0.5t13 2.5t13 4.5t11 6.5q11 5 22 15q4 5 8 10.5t7 10.5q4 6 6.5 12t4.5 12zM1735 648h-28v-156q0 5 -1 8t-3 6l-97 134q-3 4 -8 6q-8 2 -12 2h-20v-200h28v168v-4l2 -4q0 -2 2 -4l114 -156h23v200zM1956 448l-87 200h-27l-88 -200h16q6 0 12 3l4 4t4 5l14 32h102
l14 -32q3 -7 8 -9q3 -3 12 -3h16zM2090 475h-87v173h-27v-200h114v27zM2365 648h-28v-122q0 -12 -4 -21q-2 -5 -4.5 -9t-7.5 -7q-3 -5 -7 -7.5t-9 -4.5q-9 -4 -21 -4t-20 4q-5 2 -9.5 4.5t-7.5 7.5q-7 5 -12 16q-2 5 -3 10t-1 11v122h-27v-122v-11.5t2 -10.5t4 -9.5t4 -9.5
q3 -5 6 -9t8 -7q5 -6 15 -13q11 -5 20 -8q10 -3 21 -3t22 3q5 2 9.5 4t9.5 4q9 6 16 13q4 3 7 7t6 9q2 5 4 9.5t4 9.5q3 10 3 22v122zM2519 482q5 10 5 25q0 29 -21 44q-2 2 -4 3l-4 2l-10 5q-6 2 -10 4q-2 0 -4.5 1t-5.5 2q-5 2 -8.5 3.5t-7.5 3.5t-6.5 2.5t-4.5 2.5
q-6 4 -7 8q-2 6 -2 10q0 5 3 10q4 6 7 8q2 1 4.5 2t5.5 3q8 2 13 2q2 0 4.5 -1t5.5 -2l5 -2.5t6 -3.5q6 -3 12 -3q8 0 13 5l8 5l-10 10q-3 2 -6 4.5t-7 4.5q-3 2 -7 3.5t-8 3.5q-9 3 -16 3q-13 0 -23 -3q-5 -2 -9.5 -4.5t-9.5 -5.5q-4 -4 -7.5 -8t-5.5 -9q-6 -9 -6 -22
q0 -12 5 -22t13 -15q8 -7 17 -11l21 -9q4 -2 7 -2.5t7 -2.5q3 -2 6.5 -3t6.5 -3q6 -5 9 -10q4 -4 4 -13t-4 -14q-2 -5 -10 -11q-5 -4 -13 -7q-10 -2 -14 -2q-7 0 -15 2q-9 3 -12 8l-2 1q-6 7 -16 7q-6 0 -10 -4l-8 -3q1 -1 1.5 -2t1.5 -2l3 -6q4 -4 5 -6q3 -5 7 -6
q17 -16 45 -16q14 0 26 4q12 5 22 13q8 7 15 19zM2683 648h-124v-200h124v27h-97v60h78v28h-78v57h97v28zM2998 520q3 15 3 27q0 14 -3 28q-2 7 -4.5 13t-6.5 12q-7 12 -16 20q-5 5 -10 8.5t-10 7.5q-6 4 -12 6.5t-13 4.5q-12 3 -27 3q-14 0 -27 -3q-7 -2 -13 -4.5t-12 -6.5
q-5 -4 -10.5 -7.5t-10.5 -8.5t-8.5 -10t-7.5 -10q-5 -10 -10 -25q-3 -14 -3 -28q0 -10 1.5 -20t6.5 -19q4 -10 9 -17.5t12 -15.5q15 -14 33 -21q16 -8 40 -8q7 0 14 0.5t13 2.5q7 2 13 4.5t12 6.5q12 7 20 15q5 5 9 10.5t7 10.5q4 6 6.5 12t4.5 12zM3208 648h-28v-156
q-2 9 -5 14l-97 134q-3 5 -8 6q-6 2 -12 2h-20v-200h28v168l2 -4q0 -3 1 -4q0 -2 2 -4l114 -156h23v200zM3371 475h-87v173h-27v-200h114v27zM3530 648h-19q-10 0 -14 -3q-7 -3 -10 -10l-48 -64q1 0 -2 -3q0 -1 -1 -2v-1v3q0 3 -2 3l-47 64q-6 8 -10 10q-8 3 -15 3h-19
l72 -97q1 -1 1.5 -2t1.5 -2q2 -4 3 -5q0 -1 0.5 -2t0.5 -2v-6v-84h28v84q0 2 0.5 3t0.5 3q1 1 1 2t1 2t1 2t2 3q0 1 3 4zM1983 789q-53 21 -97 58h423q-43 -37 -97 -58q-51 -22 -115 -22q-63 0 -114 22zM1922 881l411 415q79 -103 79 -213q0 -57 -18 -108q-17 -49 -53 -94
h-419zM1861 871q-19 22 -33.5 46t-24.5 51q-11 26 -15.5 55t-4.5 60q0 57 18 108q8 26 21.5 48.5t30.5 44.5h419zM2212 1378q55 -23 95 -60h-422q22 20 46.5 34.5t50.5 25.5q27 11 55.5 16t59.5 5q62 0 115 -21zM530 116q-6 8 -10 22q-2 6 -3 12t-1 13q0 6 1 12t3 12
q3 14 10 23q7 12 14 19t19 14q5 3 10.5 5.5t11.5 4.5q12 3 25 3q10 0 19 -2t18 -5q8 -5 15.5 -9.5t13.5 -11.5l-4 -4q0 -1 -1 -1q-1 -1 -2 -1q-2 -2 -4 -2h-5q-6 0 -9 2q-5 3 -9.5 5.5t-9.5 4.5q-11 3 -22 3q-15 0 -28 -5q-15 -7 -23 -16q-9 -8 -16 -23q-6 -14 -6 -28
q0 -10 3 -19t7 -18q3 -5 6 -8t6 -7q4 -3 7.5 -6t7.5 -5q5 -2 9 -3.5t9 -3.5q9 -3 19 -3q12 0 24 3q6 2 11.5 4.5t10.5 5.5v38h-14q-2 0 -3.5 0.5t-3.5 0.5q-2 2 -6 4q-1 2 -2 3t-1 3q-2 4 -2 7v2h51v-71q-5 -7 -14 -11q-8 -4 -15 -5q-5 -2 -9 -2.5t-9 -1.5h-19q-13 0 -25 3
q-11 3 -22 9q-12 7 -19 15q-7 7 -14 19zM742 233v-59h72v-20h-72v-62h90v-20h-111v182h111v-21h-90zM912 72v161h-58v21h137v-21h-58v-161h-21zM1126 233v-63h76v-20h-76v-78h-21v182h111v-21h-90zM1271 254v-112q0 -12 4 -20q2 -5 5 -9l6 -8l8 -6t9 -5q9 -4 20 -4
q12 0 20 4q5 2 9 5l8 6q6 6 11 17q5 10 5 20v112h20v-112q0 -16 -6 -28q-3 -7 -6.5 -12.5t-8.5 -10.5q-9 -9 -23 -16q-15 -5 -29 -5q-13 0 -28 5q-15 7 -23 16q-9 8 -16 23q-3 6 -4 13t-1 15v112h20zM1455 254v-162h81v-20h-102v182h21zM1579 254v-162h81v-20h-101v182h20z
M1826 72l-79 182h11q4 0 10 -3l3.5 -3.5t2.5 -4.5l60 -136q0 -2 0.5 -3t0.5 -3q1 -3 1 -6v6q2 4 2 6q8 17 15 34t15 34t15 34t15 34q2 4 6 8q6 3 10 3h11q-10 -23 -20 -45.5t-20 -45.5t-19.5 -45.5t-19.5 -45.5h-20zM1961 233v-59h73v-20h-73v-62h90v-20h-111v182h111v-21
h-90zM2187 157q-8 -5 -16 -6l59 -79h-12q-9 0 -12 2q-6 3 -9 8l-51 68h-31v-78h-21v182h65q12 0 20 -4q9 -4 17 -11q7 -8 11 -17q4 -8 4 -20q0 -9 -3 -18q-4 -9 -8 -15q-3 -4 -6 -6.5t-7 -5.5zM2159 170q6 0 12 3q3 1 5.5 2.5t4.5 3.5q4 4 7 10l2 6t1 7q0 3 -1 6l-2 6
q-3 6 -7 10t-10 7q-8 2 -12 2h-44v-63h44zM2326 98q6 4 9 11q4 5 4 14t-3 15t-9 9q-4 4 -12 7q-4 1 -14 5q-5 2 -9.5 4t-9.5 4q-11 3 -16 9q-6 4 -11 13q-3 7 -3 20q0 11 5 19q3 9 12 15q4 3 8 5.5t9 4.5q9 3 19 3q5 0 15 -2q5 -2 13 -6q3 -2 5.5 -4t4.5 -4q3 -2 5 -4l4 -4
l-5 -4q-4 -4 -10 -4q-4 0 -10 2q-2 2 -3 2.5t-2 1.5q-2 1 -2.5 1.5t-2.5 1.5q-2 0 -3 0.5t-3 0.5q-2 1 -6 1q-5 0 -13 -2q-4 -1 -10 -5q-6 -6 -7 -9q-3 -5 -3 -10q0 -8 2 -11q1 -4 6 -7q6 -4 11 -6q4 -2 8 -3t9 -3q3 -2 9 -4t9 -4q6 -2 9 -4q2 -1 3.5 -2t3.5 -2q8 -8 14 -17
q2 -5 3 -10.5t1 -12.5q0 -10 -5 -22q-4 -8 -13 -17q-8 -7 -20 -10q-9 -4 -23 -4q-26 0 -40 14q-3 2 -5.5 5t-4.5 5q-4 6 -4 8l4 2q2 2 4 2q1 1 4 1q8 0 13 -5q6 -7 14 -9q7 -3 15 -3q4 0 7 0.5t7 1.5q7 1 13 6zM2421 254v-182h-21v182h21zM2491 97q-13 12 -20 29
q-8 19 -8 37q0 6 1 12t3 12q3 13 9 23q4 5 7 9.5t8 9.5q5 4 9.5 7.5t9.5 6.5q11 7 22 10q12 3 25 3t25 -3q6 -2 11.5 -4.5t10.5 -5.5t9.5 -6.5t9.5 -7.5q5 -5 8 -9.5t6 -9.5t5.5 -11t4.5 -12q3 -12 3 -24q0 -20 -7 -37q-8 -17 -20 -29q-14 -14 -30 -20q-15 -7 -36 -7
q-20 0 -37 7q-17 6 -29 20zM2490 191q-6 -14 -6 -28q0 -10 3 -19t7 -18q2 -5 5 -8t6 -7q4 -3 7.5 -6t7.5 -5q5 -2 9 -3.5t9 -3.5q7 -3 19 -3q10 0 19 3q5 2 9 3.5t9 3.5q7 4 14 11t11 15q5 7 8 18q2 5 2 9.5v9.5q0 14 -6 28q-5 14 -15 23q-8 9 -23 16q-13 5 -28 5
q-8 0 -14.5 -1.5t-14.5 -3.5q-14 -7 -23 -16t-15 -23zM2704 72h-20v182h14q12 0 16 -7l94 -132q2 -2 2 -3t1 -3t1 -5v150h21v-182h-19l-107 150l-1 2q-1 1 -1 3t-1 3v-158zM2986 233v-63h76v-20h-76v-78h-20v182h111v-21h-91zM3204 169q-2 -4 -5 -6.5t-7 -5.5q-8 -5 -16 -6
l59 -79h-12q-9 0 -13 2q-5 3 -8 8l-50 68h-33v-78h-20v182h64q12 0 21 -4t16 -11t12 -17q2 -5 3 -10t1 -10q0 -9 -3 -18q-4 -10 -9 -15zM3176 173q3 1 5.5 2.5t4.5 3.5q5 5 6 10q3 6 3 13q0 6 -3 12q-1 5 -6 10q-4 4 -10 7q-8 2 -13 2h-44v-63h44q7 0 13 3zM3413 97
q-14 -14 -30 -20q-15 -7 -37 -7q-9 0 -18.5 1.5t-17.5 5.5q-17 6 -29 20q-7 6 -11.5 13.5t-8.5 15.5q-8 19 -8 37q0 6 1 12t3 12q3 14 10 23q4 9 14 19q7 7 19 14q5 3 10.5 5.5t11.5 4.5q12 3 24 3q14 0 26 -3q6 -2 11 -4.5t10 -5.5q6 -3 10.5 -6.5t9.5 -7.5q5 -5 8 -9.5
t6 -9.5q6 -10 9 -23q4 -11 4 -24q0 -21 -8 -37q-6 -16 -19 -29zM3346 90q11 0 20 3q5 2 9 3.5t8 3.5q5 2 8 5t7 6q7 7 11 15q5 7 8 18q2 5 2 9.5v9.5q0 13 -5 28q-7 15 -16 23q-9 9 -23 16q-15 5 -29 5q-13 0 -28 -5q-13 -6 -22 -16q-9 -8 -16 -23q-6 -14 -6 -28
q0 -5 0.5 -9.5t1.5 -9.5q2 -5 4 -9t4 -9t5 -8l7 -7q6 -7 14 -11q4 -2 8 -3.5t9 -3.5q9 -3 19 -3zM3645 251q4 3 9 3h17v-182h-20v151q0 -1 -1 -1q0 -2 -1 -3v-3q0 -1 -1 -2q-5 -11 -9 -20.5t-8 -19.5q-5 -10 -9 -18.5t-7 -17.5q-4 -9 -8 -17.5t-7 -16.5q-4 -8 -7.5 -16
t-7.5 -16h-21q-8 17 -15.5 35t-15.5 35l-16 36l-16 36q-1 1 -1 4q-1 2 -1 4v-150h-20v182h16q4 0 9 -3q6 -3 6 -8l63 -141q0 -3 1 -4t1 -4q0 3 2 11q2 2 2.5 4.5t2.5 5.5l57 128q1 5 6 8zM524 0h210v-23q0 -10 -1 -14q-3 -8 -6 -12l-141 -189l4 2l4 2q1 0 1.5 0.5t2.5 0.5
h135v-50h-217v16q0 5 2 13t4 13q2 3 3 5.5t3 5.5q5 5 8 11l125 169h-137v50zM769 0h182v-50h-130v-65h105v-50h-105v-68h130v-50h-182v283zM1179 -50h-83v-233h-52v233h-83v50h218v-50zM1307 0l123 -283h-32q-11 0 -20 6q-7 5 -14 15l-16 39h-129l-17 -39q-2 -5 -5 -8
q-2 -3 -8 -7t-10 -4q-3 -2 -10 -2h-33l124 283h47zM1325 -172l-37 86q-2 3 -2.5 6t-1.5 5q0 6 -1 8q0 -5 -1 -8q0 -2 -1 -5l-2 -6l-37 -86h83zM1442 0h181v-50h-130v-71h109v-50h-109v-112h-51v283zM1910 -69q5 -8 8.5 -16.5t5.5 -18.5q3 -8 4 -18t1 -20t-1 -19.5t-4 -18.5
q-4 -17 -14 -35q-9 -15 -23 -29q-6 -6 -13.5 -11.5t-15.5 -10.5t-16.5 -8.5t-17.5 -6.5q-10 -2 -19 -3.5t-20 -1.5q-29 0 -56 11q-27 12 -46 31q-10 11 -18 22t-13 24q-11 25 -11 56q0 10 1 20t3 18q5 17 15 35q5 8 10.5 15t12.5 15q14 12 29 22q17 9 34 15q17 4 39 4t39 -4
q17 -6 34 -15q8 -5 15.5 -10.5t13.5 -11.5q7 -8 12.5 -15t10.5 -15zM1871 -178q3 9 5 18t2 18q0 17 -7 36q-4 9 -9 16t-11 14q-15 14 -30 19q-18 8 -36 8t-36 -8q-16 -6 -29 -19q-12 -12 -21 -30q-7 -19 -7 -36q0 -9 2 -18t5 -18q5 -8 9.5 -15.5t11.5 -13.5q12 -13 29 -20
q15 -7 36 -7t36 7t30 20q12 12 20 29zM2166 0h52v-283h-48l-135 189q-3 2 -4 7q-2 2 -3 3.5t-2 3.5t-2 3.5t-2 3.5l-3 6v-216h-52v283h46q10 0 16 -3q8 -3 11 -9q15 -20 30 -41t29 -42l30 -42t29 -41q4 -6 6 -12q2 -8 2 -9v199zM2242 0h218v-50h-83v-233h-52v233h-83v50z
M2639 -145q8 -8 13 -23q5 -13 5 -28q0 -18 -8 -36q-9 -17 -22 -29q-15 -12 -33 -18q-9 -3 -18.5 -5t-18.5 -2q-11 0 -20.5 2t-19.5 5q-9 5 -16.5 9.5t-15.5 11.5q-5 5 -8 9t-6 9t-4.5 8.5t-3.5 7.5q2 1 3.5 2t3.5 2t3.5 2t3.5 2q6 2 8 3q2 0 4.5 0.5t4.5 0.5q6 0 12 -3
q8 -2 13 -4q9 -7 17 -10q8 -5 21 -5q3 0 7 0.5t9 1.5q4 2 8 3.5t7 3.5q9 6 12 13q6 7 6 17q0 7 -5 14q-4 5 -12 10q-6 4 -16 7q-5 2 -9 4t-9 4q-13 4 -29 11q-8 3 -14 7t-12 9q-12 10 -17 22q-7 13 -7 32q0 10 2 18t5 16q5 7 9.5 12.5t10.5 10.5q13 10 29 16q13 4 32 4
q13 0 24 -4q6 -2 11.5 -4.5t10.5 -5.5t9.5 -7t9.5 -8q10 -8 15 -16l-10 -8q-7 -5 -14 -8q-5 -2 -8 -2h-7h-3h-4q-6 2 -10 4q-6 2 -8 4q-2 0 -4 1t-4 1q-6 2 -8 2q-4 0 -7 -0.5t-7 -1.5q-5 -1 -11 -5q-6 -3 -9 -8q-2 -3 -2 -11t2 -11t4.5 -5t4.5 -4q6 -4 16 -7q5 -2 11 -4
t13 -4l9 -3q18 -6 29 -14q14 -9 22 -18zM2726 -233q5 -5 6 -10q3 -5 3 -12q0 -8 -3 -12q-1 -5 -6 -10q-4 -4 -10 -6q-6 -3 -13 -3t-11 3q-7 2 -11 6t-7 10q-2 6 -2 12t2 12q3 6 7 10t11 6q4 3 11 3t13 -3q6 -2 10 -6zM2833 -76q-13 -13 -20 -30q-8 -18 -8 -36q0 -17 8 -36
q4 -8 8.5 -15.5t11.5 -13.5t14 -11t16 -9q15 -7 35 -7q8 0 15 1t13 3q14 5 25 13q6 2 9 4q3 1 10 1q10 0 16 -3q8 -4 12 -8l11 -11q-12 -14 -23 -22q-7 -5 -13.5 -8.5t-13.5 -7.5q-13 -7 -30 -10q-12 -4 -31 -4q-28 0 -56 11q-27 12 -46 31q-19 20 -31 46q-11 28 -11 56
q0 20 5 38q2 10 5.5 18.5t8.5 16.5q10 15 23 30q7 6 14 11.5t16 10.5q16 9 34 15q17 4 38 4q8 0 16 -0.5t15 -2.5q8 -2 15 -4.5t15 -5.5q7 -4 13.5 -8t13.5 -9q13 -10 23 -21l-11 -12q-4 -4 -12 -8q-8 -3 -16 -3q-10 0 -19 6q-13 8 -25 12q-13 5 -28 5q-17 0 -35 -8
q-9 -3 -16 -8t-14 -11zM3298 -69q5 -8 8.5 -16.5t5.5 -18.5q3 -8 4 -18t1 -20t-1 -19.5t-4 -18.5q-4 -17 -14 -35q-9 -15 -23 -29q-7 -6 -14 -11.5t-16 -10.5q-8 -5 -16 -8.5t-18 -6.5q-20 -5 -38 -5q-29 0 -57 11q-13 6 -24.5 13.5t-20.5 17.5q-10 11 -18 22t-13 24
q-12 27 -12 56q0 20 5 38q5 17 15 35q5 8 10.5 15t12.5 15q6 6 13.5 11.5t15.5 10.5q17 9 34 15q17 4 39 4t38 -4q18 -6 34 -15q9 -5 16 -10.5t14 -11.5q7 -8 12.5 -15t10.5 -15zM3259 -178q3 9 5 18t2 18q0 17 -7 36q-9 17 -20 30q-15 14 -30 19q-18 8 -36 8t-36 -8
q-15 -5 -30 -19q-6 -7 -11 -14t-9 -16q-7 -15 -7 -36q0 -19 7 -36t20 -29q15 -13 30 -20t36 -7t36 7t30 20q6 6 10.5 13.5t9.5 15.5zM3609 -2q6 2 10 2h52v-283h-52v207q-3 -5 -4 -14q-2 -4 -2.5 -7.5t-2.5 -6.5q-9 -23 -18 -45t-19 -44q-9 -23 -18 -45t-19 -45h-47l-74 179
q-2 3 -3 6t-2 8q-1 3 -2 6.5t-2 5.5v-205h-52v283h51q4 0 12 -2q6 -2 9 -4q5 -3 8 -8q2 -2 6 -8q8 -22 16.5 -43.5t17.5 -42.5q8 -22 17 -43t17 -43q2 -2 2 -5q0 -2 0.5 -3t0.5 -3q1 -2 1 -6v-3q0 2 1 3q0 4 1 6q0 4 1 6q0 2 0.5 3t0.5 2l10 20l59 152q1 4 6 9q2 3 8 7
q4 2 10 4z" />
    <glyph glyph-name="three" unicode="3" horiz-adv-x="4097" 
d="M2952 600q9 -8 16 -23q6 -14 6 -30q0 -14 -6 -29q-7 -14 -16 -23q-10 -10 -24 -16t-29 -6q-16 0 -29 6q-14 6 -24 16q-5 5 -9 11t-7 12q-6 15 -6 29q0 16 6 30q6 13 16 23q9 10 24 17q13 6 29 6q15 0 29 -6q15 -7 24 -17zM1109 577q-4 -6 -7 -10q-6 -4 -10 -6t-12 -2h-44
v61h44q6 0 12 -3q5 -1 10 -6q3 -3 7 -9q2 -8 2 -13q0 -4 -2 -12zM1479 600q10 -10 16 -23q6 -14 6 -30q0 -14 -6 -29q-3 -6 -7 -12t-9 -11q-10 -10 -24 -16t-29 -6q-16 0 -29 6q-14 6 -24 16q-9 9 -16 23q-6 15 -6 29q0 16 6 30q7 15 16 23q9 10 24 17q13 6 29 6q15 0 29 -6
q15 -7 24 -17zM1855 616q0 -6 2 -12l37 -84h-78l36 84q1 2 1 2.5t1 2.5q0 2 0.5 3.5t0.5 3.5zM784 610q3 -3 7 -11q3 -8 3 -14q0 -8 -3 -14q-4 -8 -7 -11q-6 -6 -11 -7q-4 -2 -7 -3t-7 -1h-44v71h44q6 0 14 -3q5 -1 11 -7zM3671 1084v-766h-3147v766h1193q0 80 30 151
q16 35 36.5 65t46.5 56q54 52 121 80q70 30 146 30q85 0 152 -32q70 -31 121 -84q26 -26 45.5 -56.5t34.5 -65.5q29 -70 29 -144h1192zM1774 1216q-26 -64 -26 -133q0 -71 27 -134q26 -62 74 -113q46 -47 111 -76q61 -29 137 -29q74 0 136 28q32 14 60 33t52 42t43 51t33 60
q27 64 27 138q0 67 -20 120q-19 53 -56 99q-35 42 -82 74q-24 14 -49.5 25.5t-51.5 19.5q-39 13 -92 13q-73 0 -139 -29q-64 -29 -111 -76q-45 -47 -73 -113zM817 561q5 12 5 24t-5 25q-4 9 -14 19q-8 9 -20 14q-10 5 -24 5h-71v-200h27v74h44q11 0 24 5q11 4 20 13
q10 10 14 21zM966 648h-124v-200h124v27h-96v60h78v28h-78v57h96v28zM1161 448l-63 86q10 3 16 8q9 6 13 13q5 5 9 16q2 5 2 9v9q0 14 -4 23q-2 5 -5.5 9.5t-7.5 9.5q-8 7 -18 12q-9 5 -23 5h-72v-200h28v83h30l52 -71q3 -5 10 -9q4 -3 15 -3h18zM1296 482q5 13 5 25
q0 27 -21 44q-6 4 -9 5q-2 2 -4.5 2.5t-4.5 2.5q-2 1 -5 1.5t-5 2.5q-2 0 -5 1t-5 2q-5 2 -9 3.5t-8 3.5q-9 3 -11 5q-5 5 -6 8q-2 3 -2 10t2 10q4 6 7 8q3 1 11 5q3 1 5.5 1.5t6.5 0.5q2 0 5 -1t5 -2q3 -1 6 -2.5t5 -3.5q6 -3 12 -3q9 0 14 5l7 5l-4.5 4.5l-5.5 5.5
q-3 2 -6 4.5t-7 4.5q-5 4 -15 7q-8 3 -16 3q-12 0 -22 -3q-6 -2 -10.5 -4.5t-9.5 -5.5q-8 -8 -13 -17q-5 -10 -5 -22q0 -15 5 -22q4 -9 12 -15q9 -7 18 -11q5 -2 10 -4.5t10 -4.5q3 -2 6.5 -2.5t7.5 -2.5q10 -4 13 -6q6 -4 10 -10q3 -5 3 -13q0 -9 -4 -14q-2 -6 -9 -11
q-3 -2 -6.5 -3.5t-6.5 -3.5q-5 -1 -8 -1.5t-7 -0.5q-6 0 -14 2q-9 3 -12 8l-3 1q-6 7 -15 7q-6 0 -11 -4l-7 -3q1 -1 1 -2t2 -2q0 -2 1 -3t2 -3t5 -6q3 -5 6 -6q17 -16 45 -16q15 0 27 4q13 5 21 13q10 8 16 19zM1525 520q3 15 3 27q0 14 -3 28q-2 7 -4.5 13t-6.5 12
q-3 5 -7 10l-8 10q-10 8 -22 16q-5 4 -11 6.5t-13 4.5q-14 3 -27 3q-15 0 -27 -3q-7 -2 -13 -4.5t-12 -6.5q-5 -4 -10 -7.5t-10 -8.5q-9 -8 -16 -20q-4 -6 -6.5 -12t-4.5 -13t-3 -13.5t-1 -14.5q0 -21 9 -39q4 -10 9.5 -17.5t12.5 -15.5q13 -13 32 -21q17 -8 40 -8
q8 0 14 0.5t13 2.5t13 4.5t11 6.5q11 5 22 15q4 5 8 10.5t7 10.5q4 6 6.5 12t4.5 12zM1735 648h-28v-156q0 5 -1 8t-3 6l-97 134q-3 4 -8 6q-8 2 -12 2h-20v-200h28v168v-4l2 -4q0 -2 2 -4l114 -156h23v200zM1956 448l-87 200h-27l-88 -200h16q6 0 12 3l4 4t4 5l14 32h102
l14 -32q3 -7 8 -9q3 -3 12 -3h16zM2090 475h-87v173h-27v-200h114v27zM2365 648h-28v-122q0 -12 -4 -21q-2 -5 -4.5 -9t-7.5 -7q-3 -5 -7 -7.5t-9 -4.5q-9 -4 -21 -4t-20 4q-5 2 -9.5 4.5t-7.5 7.5q-7 5 -12 16q-2 5 -3 10t-1 11v122h-27v-122v-11.5t2 -10.5t4 -9.5t4 -9.5
q3 -5 6 -9t8 -7q5 -6 15 -13q11 -5 20 -8q10 -3 21 -3t22 3q5 2 9.5 4t9.5 4q9 6 16 13q4 3 7 7t6 9q2 5 4 9.5t4 9.5q3 10 3 22v122zM2519 482q5 10 5 25q0 29 -21 44q-2 2 -4 3l-4 2l-10 5q-6 2 -10 4q-2 0 -4.5 1t-5.5 2q-5 2 -8.5 3.5t-7.5 3.5t-6.5 2.5t-4.5 2.5
q-6 4 -7 8q-2 6 -2 10q0 5 3 10q4 6 7 8q2 1 4.5 2t5.5 3q8 2 13 2q2 0 4.5 -1t5.5 -2l5 -2.5t6 -3.5q6 -3 12 -3q8 0 13 5l8 5l-10 10q-3 2 -6 4.5t-7 4.5q-3 2 -7 3.5t-8 3.5q-9 3 -16 3q-13 0 -23 -3q-5 -2 -9.5 -4.5t-9.5 -5.5q-4 -4 -7.5 -8t-5.5 -9q-6 -9 -6 -22
q0 -12 5 -22t13 -15q8 -7 17 -11l21 -9q4 -2 7 -2.5t7 -2.5q3 -2 6.5 -3t6.5 -3q6 -5 9 -10q4 -4 4 -13t-4 -14q-2 -5 -10 -11q-5 -4 -13 -7q-10 -2 -14 -2q-7 0 -15 2q-9 3 -12 8l-2 1q-6 7 -16 7q-6 0 -10 -4l-8 -3q1 -1 1.5 -2t1.5 -2l3 -6q4 -4 5 -6q3 -5 7 -6
q17 -16 45 -16q14 0 26 4q12 5 22 13q8 7 15 19zM2683 648h-124v-200h124v27h-97v60h78v28h-78v57h97v28zM2998 520q3 15 3 27q0 14 -3 28q-2 7 -4.5 13t-6.5 12q-7 12 -16 20q-5 5 -10 8.5t-10 7.5q-6 4 -12 6.5t-13 4.5q-12 3 -27 3q-14 0 -27 -3q-7 -2 -13 -4.5t-12 -6.5
q-5 -4 -10.5 -7.5t-10.5 -8.5t-8.5 -10t-7.5 -10q-5 -10 -10 -25q-3 -14 -3 -28q0 -10 1.5 -20t6.5 -19q4 -10 9 -17.5t12 -15.5q15 -14 33 -21q16 -8 40 -8q7 0 14 0.5t13 2.5q7 2 13 4.5t12 6.5q12 7 20 15q5 5 9 10.5t7 10.5q4 6 6.5 12t4.5 12zM3208 648h-28v-156
q-2 9 -5 14l-97 134q-3 5 -8 6q-6 2 -12 2h-20v-200h28v168l2 -4q0 -3 1 -4q0 -2 2 -4l114 -156h23v200zM3371 475h-87v173h-27v-200h114v27zM3530 648h-19q-10 0 -14 -3q-7 -3 -10 -10l-48 -64q1 0 -2 -3q0 -1 -1 -2v-1v3q0 3 -2 3l-47 64q-6 8 -10 10q-8 3 -15 3h-19
l72 -97q1 -1 1.5 -2t1.5 -2q2 -4 3 -5q0 -1 0.5 -2t0.5 -2v-6v-84h28v84q0 2 0.5 3t0.5 3q1 1 1 2t1 2t1 2t2 3q0 1 3 4zM1983 789q-53 21 -97 58h423q-43 -37 -97 -58q-51 -22 -115 -22q-63 0 -114 22zM1922 881l411 415q79 -103 79 -213q0 -57 -18 -108q-17 -49 -53 -94
h-419zM1861 871q-19 22 -33.5 46t-24.5 51q-11 26 -15.5 55t-4.5 60q0 57 18 108q8 26 21.5 48.5t30.5 44.5h419zM2212 1378q55 -23 95 -60h-422q22 20 46.5 34.5t50.5 25.5q27 11 55.5 16t59.5 5q62 0 115 -21zM530 116q-6 8 -10 22q-2 6 -3 12t-1 13q0 6 1 12t3 12
q3 14 10 23q7 12 14 19t19 14q5 3 10.5 5.5t11.5 4.5q12 3 25 3q10 0 19 -2t18 -5q8 -5 15.5 -9.5t13.5 -11.5l-4 -4q0 -1 -1 -1q-1 -1 -2 -1q-2 -2 -4 -2h-5q-6 0 -9 2q-5 3 -9.5 5.5t-9.5 4.5q-11 3 -22 3q-15 0 -28 -5q-15 -7 -23 -16q-9 -8 -16 -23q-6 -14 -6 -28
q0 -10 3 -19t7 -18q3 -5 6 -8t6 -7q4 -3 7.5 -6t7.5 -5q5 -2 9 -3.5t9 -3.5q9 -3 19 -3q12 0 24 3q6 2 11.5 4.5t10.5 5.5v38h-14q-2 0 -3.5 0.5t-3.5 0.5q-2 2 -6 4q-1 2 -2 3t-1 3q-2 4 -2 7v2h51v-71q-5 -7 -14 -11q-8 -4 -15 -5q-5 -2 -9 -2.5t-9 -1.5h-19q-13 0 -25 3
q-11 3 -22 9q-12 7 -19 15q-7 7 -14 19zM742 233v-59h72v-20h-72v-62h90v-20h-111v182h111v-21h-90zM912 72v161h-58v21h137v-21h-58v-161h-21zM1126 233v-63h76v-20h-76v-78h-21v182h111v-21h-90zM1271 254v-112q0 -12 4 -20q2 -5 5 -9l6 -8l8 -6t9 -5q9 -4 20 -4
q12 0 20 4q5 2 9 5l8 6q6 6 11 17q5 10 5 20v112h20v-112q0 -16 -6 -28q-3 -7 -6.5 -12.5t-8.5 -10.5q-9 -9 -23 -16q-15 -5 -29 -5q-13 0 -28 5q-15 7 -23 16q-9 8 -16 23q-3 6 -4 13t-1 15v112h20zM1455 254v-162h81v-20h-102v182h21zM1579 254v-162h81v-20h-101v182h20z
M1826 72l-79 182h11q4 0 10 -3l3.5 -3.5t2.5 -4.5l60 -136q0 -2 0.5 -3t0.5 -3q1 -3 1 -6v6q2 4 2 6q8 17 15 34t15 34t15 34t15 34q2 4 6 8q6 3 10 3h11q-10 -23 -20 -45.5t-20 -45.5t-19.5 -45.5t-19.5 -45.5h-20zM1961 233v-59h73v-20h-73v-62h90v-20h-111v182h111v-21
h-90zM2187 157q-8 -5 -16 -6l59 -79h-12q-9 0 -12 2q-6 3 -9 8l-51 68h-31v-78h-21v182h65q12 0 20 -4q9 -4 17 -11q7 -8 11 -17q4 -8 4 -20q0 -9 -3 -18q-4 -9 -8 -15q-3 -4 -6 -6.5t-7 -5.5zM2159 170q6 0 12 3q3 1 5.5 2.5t4.5 3.5q4 4 7 10l2 6t1 7q0 3 -1 6l-2 6
q-3 6 -7 10t-10 7q-8 2 -12 2h-44v-63h44zM2326 98q6 4 9 11q4 5 4 14t-3 15t-9 9q-4 4 -12 7q-4 1 -14 5q-5 2 -9.5 4t-9.5 4q-11 3 -16 9q-6 4 -11 13q-3 7 -3 20q0 11 5 19q3 9 12 15q4 3 8 5.5t9 4.5q9 3 19 3q5 0 15 -2q5 -2 13 -6q3 -2 5.5 -4t4.5 -4q3 -2 5 -4l4 -4
l-5 -4q-4 -4 -10 -4q-4 0 -10 2q-2 2 -3 2.5t-2 1.5q-2 1 -2.5 1.5t-2.5 1.5q-2 0 -3 0.5t-3 0.5q-2 1 -6 1q-5 0 -13 -2q-4 -1 -10 -5q-6 -6 -7 -9q-3 -5 -3 -10q0 -8 2 -11q1 -4 6 -7q6 -4 11 -6q4 -2 8 -3t9 -3q3 -2 9 -4t9 -4q6 -2 9 -4q2 -1 3.5 -2t3.5 -2q8 -8 14 -17
q2 -5 3 -10.5t1 -12.5q0 -10 -5 -22q-4 -8 -13 -17q-8 -7 -20 -10q-9 -4 -23 -4q-26 0 -40 14q-3 2 -5.5 5t-4.5 5q-4 6 -4 8l4 2q2 2 4 2q1 1 4 1q8 0 13 -5q6 -7 14 -9q7 -3 15 -3q4 0 7 0.5t7 1.5q7 1 13 6zM2421 254v-182h-21v182h21zM2491 97q-13 12 -20 29
q-8 19 -8 37q0 6 1 12t3 12q3 13 9 23q4 5 7 9.5t8 9.5q5 4 9.5 7.5t9.5 6.5q11 7 22 10q12 3 25 3t25 -3q6 -2 11.5 -4.5t10.5 -5.5t9.5 -6.5t9.5 -7.5q5 -5 8 -9.5t6 -9.5t5.5 -11t4.5 -12q3 -12 3 -24q0 -20 -7 -37q-8 -17 -20 -29q-14 -14 -30 -20q-15 -7 -36 -7
q-20 0 -37 7q-17 6 -29 20zM2490 191q-6 -14 -6 -28q0 -10 3 -19t7 -18q2 -5 5 -8t6 -7q4 -3 7.5 -6t7.5 -5q5 -2 9 -3.5t9 -3.5q7 -3 19 -3q10 0 19 3q5 2 9 3.5t9 3.5q7 4 14 11t11 15q5 7 8 18q2 5 2 9.5v9.5q0 14 -6 28q-5 14 -15 23q-8 9 -23 16q-13 5 -28 5
q-8 0 -14.5 -1.5t-14.5 -3.5q-14 -7 -23 -16t-15 -23zM2704 72h-20v182h14q12 0 16 -7l94 -132q2 -2 2 -3t1 -3t1 -5v150h21v-182h-19l-107 150l-1 2q-1 1 -1 3t-1 3v-158zM2986 233v-63h76v-20h-76v-78h-20v182h111v-21h-91zM3204 169q-2 -4 -5 -6.5t-7 -5.5q-8 -5 -16 -6
l59 -79h-12q-9 0 -13 2q-5 3 -8 8l-50 68h-33v-78h-20v182h64q12 0 21 -4t16 -11t12 -17q2 -5 3 -10t1 -10q0 -9 -3 -18q-4 -10 -9 -15zM3176 173q3 1 5.5 2.5t4.5 3.5q5 5 6 10q3 6 3 13q0 6 -3 12q-1 5 -6 10q-4 4 -10 7q-8 2 -13 2h-44v-63h44q7 0 13 3zM3413 97
q-14 -14 -30 -20q-15 -7 -37 -7q-9 0 -18.5 1.5t-17.5 5.5q-17 6 -29 20q-7 6 -11.5 13.5t-8.5 15.5q-8 19 -8 37q0 6 1 12t3 12q3 14 10 23q4 9 14 19q7 7 19 14q5 3 10.5 5.5t11.5 4.5q12 3 24 3q14 0 26 -3q6 -2 11 -4.5t10 -5.5q6 -3 10.5 -6.5t9.5 -7.5q5 -5 8 -9.5
t6 -9.5q6 -10 9 -23q4 -11 4 -24q0 -21 -8 -37q-6 -16 -19 -29zM3346 90q11 0 20 3q5 2 9 3.5t8 3.5q5 2 8 5t7 6q7 7 11 15q5 7 8 18q2 5 2 9.5v9.5q0 13 -5 28q-7 15 -16 23q-9 9 -23 16q-15 5 -29 5q-13 0 -28 -5q-13 -6 -22 -16q-9 -8 -16 -23q-6 -14 -6 -28
q0 -5 0.5 -9.5t1.5 -9.5q2 -5 4 -9t4 -9t5 -8l7 -7q6 -7 14 -11q4 -2 8 -3.5t9 -3.5q9 -3 19 -3zM3645 251q4 3 9 3h17v-182h-20v151q0 -1 -1 -1q0 -2 -1 -3v-3q0 -1 -1 -2q-5 -11 -9 -20.5t-8 -19.5q-5 -10 -9 -18.5t-7 -17.5q-4 -9 -8 -17.5t-7 -16.5q-4 -8 -7.5 -16
t-7.5 -16h-21q-8 17 -15.5 35t-15.5 35l-16 36l-16 36q-1 1 -1 4q-1 2 -1 4v-150h-20v182h16q4 0 9 -3q6 -3 6 -8l63 -141q0 -3 1 -4t1 -4q0 3 2 11q2 2 2.5 4.5t2.5 5.5l57 128q1 5 6 8zM524 0h210v-23q0 -10 -1 -14q-3 -8 -6 -12l-141 -189l4 2l4 2q1 0 1.5 0.5t2.5 0.5
h135v-50h-217v16q0 5 2 13t4 13q2 3 3 5.5t3 5.5q5 5 8 11l125 169h-137v50zM769 0h182v-50h-130v-65h105v-50h-105v-68h130v-50h-182v283zM1179 -50h-83v-233h-52v233h-83v50h218v-50zM1307 0l123 -283h-32q-11 0 -20 6q-7 5 -14 15l-16 39h-129l-17 -39q-2 -5 -5 -8
q-2 -3 -8 -7t-10 -4q-3 -2 -10 -2h-33l124 283h47zM1325 -172l-37 86q-2 3 -2.5 6t-1.5 5q0 6 -1 8q0 -5 -1 -8q0 -2 -1 -5l-2 -6l-37 -86h83zM1442 0h181v-50h-130v-71h109v-50h-109v-112h-51v283zM1910 -69q5 -8 8.5 -16.5t5.5 -18.5q3 -8 4 -18t1 -20t-1 -19.5t-4 -18.5
q-4 -17 -14 -35q-9 -15 -23 -29q-6 -6 -13.5 -11.5t-15.5 -10.5t-16.5 -8.5t-17.5 -6.5q-10 -2 -19 -3.5t-20 -1.5q-29 0 -56 11q-27 12 -46 31q-10 11 -18 22t-13 24q-11 25 -11 56q0 10 1 20t3 18q5 17 15 35q5 8 10.5 15t12.5 15q14 12 29 22q17 9 34 15q17 4 39 4t39 -4
q17 -6 34 -15q8 -5 15.5 -10.5t13.5 -11.5q7 -8 12.5 -15t10.5 -15zM1871 -178q3 9 5 18t2 18q0 17 -7 36q-4 9 -9 16t-11 14q-15 14 -30 19q-18 8 -36 8t-36 -8q-16 -6 -29 -19q-12 -12 -21 -30q-7 -19 -7 -36q0 -9 2 -18t5 -18q5 -8 9.5 -15.5t11.5 -13.5q12 -13 29 -20
q15 -7 36 -7t36 7t30 20q12 12 20 29zM2166 0h52v-283h-48l-135 189q-3 2 -4 7q-2 2 -3 3.5t-2 3.5t-2 3.5t-2 3.5l-3 6v-216h-52v283h46q10 0 16 -3q8 -3 11 -9q15 -20 30 -41t29 -42l30 -42t29 -41q4 -6 6 -12q2 -8 2 -9v199zM2242 0h218v-50h-83v-233h-52v233h-83v50z
M2639 -145q8 -8 13 -23q5 -13 5 -28q0 -18 -8 -36q-9 -17 -22 -29q-15 -12 -33 -18q-9 -3 -18.5 -5t-18.5 -2q-11 0 -20.5 2t-19.5 5q-9 5 -16.5 9.5t-15.5 11.5q-5 5 -8 9t-6 9t-4.5 8.5t-3.5 7.5q2 1 3.5 2t3.5 2t3.5 2t3.5 2q6 2 8 3q2 0 4.5 0.5t4.5 0.5q6 0 12 -3
q8 -2 13 -4q9 -7 17 -10q8 -5 21 -5q3 0 7 0.5t9 1.5q4 2 8 3.5t7 3.5q9 6 12 13q6 7 6 17q0 7 -5 14q-4 5 -12 10q-6 4 -16 7q-5 2 -9 4t-9 4q-13 4 -29 11q-8 3 -14 7t-12 9q-12 10 -17 22q-7 13 -7 32q0 10 2 18t5 16q5 7 9.5 12.5t10.5 10.5q13 10 29 16q13 4 32 4
q13 0 24 -4q6 -2 11.5 -4.5t10.5 -5.5t9.5 -7t9.5 -8q10 -8 15 -16l-10 -8q-7 -5 -14 -8q-5 -2 -8 -2h-7h-3h-4q-6 2 -10 4q-6 2 -8 4q-2 0 -4 1t-4 1q-6 2 -8 2q-4 0 -7 -0.5t-7 -1.5q-5 -1 -11 -5q-6 -3 -9 -8q-2 -3 -2 -11t2 -11t4.5 -5t4.5 -4q6 -4 16 -7q5 -2 11 -4
t13 -4l9 -3q18 -6 29 -14q14 -9 22 -18zM2726 -233q5 -5 6 -10q3 -5 3 -12q0 -8 -3 -12q-1 -5 -6 -10q-4 -4 -10 -6q-6 -3 -13 -3t-11 3q-7 2 -11 6t-7 10q-2 6 -2 12t2 12q3 6 7 10t11 6q4 3 11 3t13 -3q6 -2 10 -6zM2833 -76q-13 -13 -20 -30q-8 -18 -8 -36q0 -17 8 -36
q4 -8 8.5 -15.5t11.5 -13.5t14 -11t16 -9q15 -7 35 -7q8 0 15 1t13 3q14 5 25 13q6 2 9 4q3 1 10 1q10 0 16 -3q8 -4 12 -8l11 -11q-12 -14 -23 -22q-7 -5 -13.5 -8.5t-13.5 -7.5q-13 -7 -30 -10q-12 -4 -31 -4q-28 0 -56 11q-27 12 -46 31q-19 20 -31 46q-11 28 -11 56
q0 20 5 38q2 10 5.5 18.5t8.5 16.5q10 15 23 30q7 6 14 11.5t16 10.5q16 9 34 15q17 4 38 4q8 0 16 -0.5t15 -2.5q8 -2 15 -4.5t15 -5.5q7 -4 13.5 -8t13.5 -9q13 -10 23 -21l-11 -12q-4 -4 -12 -8q-8 -3 -16 -3q-10 0 -19 6q-13 8 -25 12q-13 5 -28 5q-17 0 -35 -8
q-9 -3 -16 -8t-14 -11zM3298 -69q5 -8 8.5 -16.5t5.5 -18.5q3 -8 4 -18t1 -20t-1 -19.5t-4 -18.5q-4 -17 -14 -35q-9 -15 -23 -29q-7 -6 -14 -11.5t-16 -10.5q-8 -5 -16 -8.5t-18 -6.5q-20 -5 -38 -5q-29 0 -57 11q-13 6 -24.5 13.5t-20.5 17.5q-10 11 -18 22t-13 24
q-12 27 -12 56q0 20 5 38q5 17 15 35q5 8 10.5 15t12.5 15q6 6 13.5 11.5t15.5 10.5q17 9 34 15q17 4 39 4t38 -4q18 -6 34 -15q9 -5 16 -10.5t14 -11.5q7 -8 12.5 -15t10.5 -15zM3259 -178q3 9 5 18t2 18q0 17 -7 36q-9 17 -20 30q-15 14 -30 19q-18 8 -36 8t-36 -8
q-15 -5 -30 -19q-6 -7 -11 -14t-9 -16q-7 -15 -7 -36q0 -19 7 -36t20 -29q15 -13 30 -20t36 -7t36 7t30 20q6 6 10.5 13.5t9.5 15.5zM3609 -2q6 2 10 2h52v-283h-52v207q-3 -5 -4 -14q-2 -4 -2.5 -7.5t-2.5 -6.5q-9 -23 -18 -45t-19 -44q-9 -23 -18 -45t-19 -45h-47l-74 179
q-2 3 -3 6t-2 8q-1 3 -2 6.5t-2 5.5v-205h-52v283h51q4 0 12 -2q6 -2 9 -4q5 -3 8 -8q2 -2 6 -8q8 -22 16.5 -43.5t17.5 -42.5q8 -22 17 -43t17 -43q2 -2 2 -5q0 -2 0.5 -3t0.5 -3q1 -2 1 -6v-3q0 2 1 3q0 4 1 6q0 4 1 6q0 2 0.5 3t0.5 2l10 20l59 152q1 4 6 9q2 3 8 7
q4 2 10 4z" />
    <glyph glyph-name="four" unicode="4" horiz-adv-x="4097" 
d="M2952 600q9 -8 16 -23q6 -14 6 -30q0 -14 -6 -29q-7 -14 -16 -23q-10 -10 -24 -16t-29 -6q-16 0 -29 6q-14 6 -24 16q-5 5 -9 11t-7 12q-6 15 -6 29q0 16 6 30q6 13 16 23q9 10 24 17q13 6 29 6q15 0 29 -6q15 -7 24 -17zM1109 577q-4 -6 -7 -10q-6 -4 -10 -6t-12 -2h-44
v61h44q6 0 12 -3q5 -1 10 -6q3 -3 7 -9q2 -8 2 -13q0 -4 -2 -12zM1479 600q10 -10 16 -23q6 -14 6 -30q0 -14 -6 -29q-3 -6 -7 -12t-9 -11q-10 -10 -24 -16t-29 -6q-16 0 -29 6q-14 6 -24 16q-9 9 -16 23q-6 15 -6 29q0 16 6 30q7 15 16 23q9 10 24 17q13 6 29 6q15 0 29 -6
q15 -7 24 -17zM1855 616q0 -6 2 -12l37 -84h-78l36 84q1 2 1 2.5t1 2.5q0 2 0.5 3.5t0.5 3.5zM784 610q3 -3 7 -11q3 -8 3 -14q0 -8 -3 -14q-4 -8 -7 -11q-6 -6 -11 -7q-4 -2 -7 -3t-7 -1h-44v71h44q6 0 14 -3q5 -1 11 -7zM3671 1084v-766h-3147v766h1193q0 80 30 151
q16 35 36.5 65t46.5 56q54 52 121 80q70 30 146 30q85 0 152 -32q70 -31 121 -84q26 -26 45.5 -56.5t34.5 -65.5q29 -70 29 -144h1192zM1774 1216q-26 -64 -26 -133q0 -71 27 -134q26 -62 74 -113q46 -47 111 -76q61 -29 137 -29q74 0 136 28q32 14 60 33t52 42t43 51t33 60
q27 64 27 138q0 67 -20 120q-19 53 -56 99q-35 42 -82 74q-24 14 -49.5 25.5t-51.5 19.5q-39 13 -92 13q-73 0 -139 -29q-64 -29 -111 -76q-45 -47 -73 -113zM817 561q5 12 5 24t-5 25q-4 9 -14 19q-8 9 -20 14q-10 5 -24 5h-71v-200h27v74h44q11 0 24 5q11 4 20 13
q10 10 14 21zM966 648h-124v-200h124v27h-96v60h78v28h-78v57h96v28zM1161 448l-63 86q10 3 16 8q9 6 13 13q5 5 9 16q2 5 2 9v9q0 14 -4 23q-2 5 -5.5 9.5t-7.5 9.5q-8 7 -18 12q-9 5 -23 5h-72v-200h28v83h30l52 -71q3 -5 10 -9q4 -3 15 -3h18zM1296 482q5 13 5 25
q0 27 -21 44q-6 4 -9 5q-2 2 -4.5 2.5t-4.5 2.5q-2 1 -5 1.5t-5 2.5q-2 0 -5 1t-5 2q-5 2 -9 3.5t-8 3.5q-9 3 -11 5q-5 5 -6 8q-2 3 -2 10t2 10q4 6 7 8q3 1 11 5q3 1 5.5 1.5t6.5 0.5q2 0 5 -1t5 -2q3 -1 6 -2.5t5 -3.5q6 -3 12 -3q9 0 14 5l7 5l-4.5 4.5l-5.5 5.5
q-3 2 -6 4.5t-7 4.5q-5 4 -15 7q-8 3 -16 3q-12 0 -22 -3q-6 -2 -10.5 -4.5t-9.5 -5.5q-8 -8 -13 -17q-5 -10 -5 -22q0 -15 5 -22q4 -9 12 -15q9 -7 18 -11q5 -2 10 -4.5t10 -4.5q3 -2 6.5 -2.5t7.5 -2.5q10 -4 13 -6q6 -4 10 -10q3 -5 3 -13q0 -9 -4 -14q-2 -6 -9 -11
q-3 -2 -6.5 -3.5t-6.5 -3.5q-5 -1 -8 -1.5t-7 -0.5q-6 0 -14 2q-9 3 -12 8l-3 1q-6 7 -15 7q-6 0 -11 -4l-7 -3q1 -1 1 -2t2 -2q0 -2 1 -3t2 -3t5 -6q3 -5 6 -6q17 -16 45 -16q15 0 27 4q13 5 21 13q10 8 16 19zM1525 520q3 15 3 27q0 14 -3 28q-2 7 -4.5 13t-6.5 12
q-3 5 -7 10l-8 10q-10 8 -22 16q-5 4 -11 6.5t-13 4.5q-14 3 -27 3q-15 0 -27 -3q-7 -2 -13 -4.5t-12 -6.5q-5 -4 -10 -7.5t-10 -8.5q-9 -8 -16 -20q-4 -6 -6.5 -12t-4.5 -13t-3 -13.5t-1 -14.5q0 -21 9 -39q4 -10 9.5 -17.5t12.5 -15.5q13 -13 32 -21q17 -8 40 -8
q8 0 14 0.5t13 2.5t13 4.5t11 6.5q11 5 22 15q4 5 8 10.5t7 10.5q4 6 6.5 12t4.5 12zM1735 648h-28v-156q0 5 -1 8t-3 6l-97 134q-3 4 -8 6q-8 2 -12 2h-20v-200h28v168v-4l2 -4q0 -2 2 -4l114 -156h23v200zM1956 448l-87 200h-27l-88 -200h16q6 0 12 3l4 4t4 5l14 32h102
l14 -32q3 -7 8 -9q3 -3 12 -3h16zM2090 475h-87v173h-27v-200h114v27zM2365 648h-28v-122q0 -12 -4 -21q-2 -5 -4.5 -9t-7.5 -7q-3 -5 -7 -7.5t-9 -4.5q-9 -4 -21 -4t-20 4q-5 2 -9.5 4.5t-7.5 7.5q-7 5 -12 16q-2 5 -3 10t-1 11v122h-27v-122v-11.5t2 -10.5t4 -9.5t4 -9.5
q3 -5 6 -9t8 -7q5 -6 15 -13q11 -5 20 -8q10 -3 21 -3t22 3q5 2 9.5 4t9.5 4q9 6 16 13q4 3 7 7t6 9q2 5 4 9.5t4 9.5q3 10 3 22v122zM2519 482q5 10 5 25q0 29 -21 44q-2 2 -4 3l-4 2l-10 5q-6 2 -10 4q-2 0 -4.5 1t-5.5 2q-5 2 -8.5 3.5t-7.5 3.5t-6.5 2.5t-4.5 2.5
q-6 4 -7 8q-2 6 -2 10q0 5 3 10q4 6 7 8q2 1 4.5 2t5.5 3q8 2 13 2q2 0 4.5 -1t5.5 -2l5 -2.5t6 -3.5q6 -3 12 -3q8 0 13 5l8 5l-10 10q-3 2 -6 4.5t-7 4.5q-3 2 -7 3.5t-8 3.5q-9 3 -16 3q-13 0 -23 -3q-5 -2 -9.5 -4.5t-9.5 -5.5q-4 -4 -7.5 -8t-5.5 -9q-6 -9 -6 -22
q0 -12 5 -22t13 -15q8 -7 17 -11l21 -9q4 -2 7 -2.5t7 -2.5q3 -2 6.5 -3t6.5 -3q6 -5 9 -10q4 -4 4 -13t-4 -14q-2 -5 -10 -11q-5 -4 -13 -7q-10 -2 -14 -2q-7 0 -15 2q-9 3 -12 8l-2 1q-6 7 -16 7q-6 0 -10 -4l-8 -3q1 -1 1.5 -2t1.5 -2l3 -6q4 -4 5 -6q3 -5 7 -6
q17 -16 45 -16q14 0 26 4q12 5 22 13q8 7 15 19zM2683 648h-124v-200h124v27h-97v60h78v28h-78v57h97v28zM2998 520q3 15 3 27q0 14 -3 28q-2 7 -4.5 13t-6.5 12q-7 12 -16 20q-5 5 -10 8.5t-10 7.5q-6 4 -12 6.5t-13 4.5q-12 3 -27 3q-14 0 -27 -3q-7 -2 -13 -4.5t-12 -6.5
q-5 -4 -10.5 -7.5t-10.5 -8.5t-8.5 -10t-7.5 -10q-5 -10 -10 -25q-3 -14 -3 -28q0 -10 1.5 -20t6.5 -19q4 -10 9 -17.5t12 -15.5q15 -14 33 -21q16 -8 40 -8q7 0 14 0.5t13 2.5q7 2 13 4.5t12 6.5q12 7 20 15q5 5 9 10.5t7 10.5q4 6 6.5 12t4.5 12zM3208 648h-28v-156
q-2 9 -5 14l-97 134q-3 5 -8 6q-6 2 -12 2h-20v-200h28v168l2 -4q0 -3 1 -4q0 -2 2 -4l114 -156h23v200zM3371 475h-87v173h-27v-200h114v27zM3530 648h-19q-10 0 -14 -3q-7 -3 -10 -10l-48 -64q1 0 -2 -3q0 -1 -1 -2v-1v3q0 3 -2 3l-47 64q-6 8 -10 10q-8 3 -15 3h-19
l72 -97q1 -1 1.5 -2t1.5 -2q2 -4 3 -5q0 -1 0.5 -2t0.5 -2v-6v-84h28v84q0 2 0.5 3t0.5 3q1 1 1 2t1 2t1 2t2 3q0 1 3 4zM1983 789q-53 21 -97 58h423q-43 -37 -97 -58q-51 -22 -115 -22q-63 0 -114 22zM1922 881l411 415q79 -103 79 -213q0 -57 -18 -108q-17 -49 -53 -94
h-419zM1861 871q-19 22 -33.5 46t-24.5 51q-11 26 -15.5 55t-4.5 60q0 57 18 108q8 26 21.5 48.5t30.5 44.5h419zM2212 1378q55 -23 95 -60h-422q22 20 46.5 34.5t50.5 25.5q27 11 55.5 16t59.5 5q62 0 115 -21zM530 116q-6 8 -10 22q-2 6 -3 12t-1 13q0 6 1 12t3 12
q3 14 10 23q7 12 14 19t19 14q5 3 10.5 5.5t11.5 4.5q12 3 25 3q10 0 19 -2t18 -5q8 -5 15.5 -9.5t13.5 -11.5l-4 -4q0 -1 -1 -1q-1 -1 -2 -1q-2 -2 -4 -2h-5q-6 0 -9 2q-5 3 -9.5 5.5t-9.5 4.5q-11 3 -22 3q-15 0 -28 -5q-15 -7 -23 -16q-9 -8 -16 -23q-6 -14 -6 -28
q0 -10 3 -19t7 -18q3 -5 6 -8t6 -7q4 -3 7.5 -6t7.5 -5q5 -2 9 -3.5t9 -3.5q9 -3 19 -3q12 0 24 3q6 2 11.5 4.5t10.5 5.5v38h-14q-2 0 -3.5 0.5t-3.5 0.5q-2 2 -6 4q-1 2 -2 3t-1 3q-2 4 -2 7v2h51v-71q-5 -7 -14 -11q-8 -4 -15 -5q-5 -2 -9 -2.5t-9 -1.5h-19q-13 0 -25 3
q-11 3 -22 9q-12 7 -19 15q-7 7 -14 19zM742 233v-59h72v-20h-72v-62h90v-20h-111v182h111v-21h-90zM912 72v161h-58v21h137v-21h-58v-161h-21zM1126 233v-63h76v-20h-76v-78h-21v182h111v-21h-90zM1271 254v-112q0 -12 4 -20q2 -5 5 -9l6 -8l8 -6t9 -5q9 -4 20 -4
q12 0 20 4q5 2 9 5l8 6q6 6 11 17q5 10 5 20v112h20v-112q0 -16 -6 -28q-3 -7 -6.5 -12.5t-8.5 -10.5q-9 -9 -23 -16q-15 -5 -29 -5q-13 0 -28 5q-15 7 -23 16q-9 8 -16 23q-3 6 -4 13t-1 15v112h20zM1455 254v-162h81v-20h-102v182h21zM1579 254v-162h81v-20h-101v182h20z
M1826 72l-79 182h11q4 0 10 -3l3.5 -3.5t2.5 -4.5l60 -136q0 -2 0.5 -3t0.5 -3q1 -3 1 -6v6q2 4 2 6q8 17 15 34t15 34t15 34t15 34q2 4 6 8q6 3 10 3h11q-10 -23 -20 -45.5t-20 -45.5t-19.5 -45.5t-19.5 -45.5h-20zM1961 233v-59h73v-20h-73v-62h90v-20h-111v182h111v-21
h-90zM2187 157q-8 -5 -16 -6l59 -79h-12q-9 0 -12 2q-6 3 -9 8l-51 68h-31v-78h-21v182h65q12 0 20 -4q9 -4 17 -11q7 -8 11 -17q4 -8 4 -20q0 -9 -3 -18q-4 -9 -8 -15q-3 -4 -6 -6.5t-7 -5.5zM2159 170q6 0 12 3q3 1 5.5 2.5t4.5 3.5q4 4 7 10l2 6t1 7q0 3 -1 6l-2 6
q-3 6 -7 10t-10 7q-8 2 -12 2h-44v-63h44zM2326 98q6 4 9 11q4 5 4 14t-3 15t-9 9q-4 4 -12 7q-4 1 -14 5q-5 2 -9.5 4t-9.5 4q-11 3 -16 9q-6 4 -11 13q-3 7 -3 20q0 11 5 19q3 9 12 15q4 3 8 5.5t9 4.5q9 3 19 3q5 0 15 -2q5 -2 13 -6q3 -2 5.5 -4t4.5 -4q3 -2 5 -4l4 -4
l-5 -4q-4 -4 -10 -4q-4 0 -10 2q-2 2 -3 2.5t-2 1.5q-2 1 -2.5 1.5t-2.5 1.5q-2 0 -3 0.5t-3 0.5q-2 1 -6 1q-5 0 -13 -2q-4 -1 -10 -5q-6 -6 -7 -9q-3 -5 -3 -10q0 -8 2 -11q1 -4 6 -7q6 -4 11 -6q4 -2 8 -3t9 -3q3 -2 9 -4t9 -4q6 -2 9 -4q2 -1 3.5 -2t3.5 -2q8 -8 14 -17
q2 -5 3 -10.5t1 -12.5q0 -10 -5 -22q-4 -8 -13 -17q-8 -7 -20 -10q-9 -4 -23 -4q-26 0 -40 14q-3 2 -5.5 5t-4.5 5q-4 6 -4 8l4 2q2 2 4 2q1 1 4 1q8 0 13 -5q6 -7 14 -9q7 -3 15 -3q4 0 7 0.5t7 1.5q7 1 13 6zM2421 254v-182h-21v182h21zM2491 97q-13 12 -20 29
q-8 19 -8 37q0 6 1 12t3 12q3 13 9 23q4 5 7 9.5t8 9.5q5 4 9.5 7.5t9.5 6.5q11 7 22 10q12 3 25 3t25 -3q6 -2 11.5 -4.5t10.5 -5.5t9.5 -6.5t9.5 -7.5q5 -5 8 -9.5t6 -9.5t5.5 -11t4.5 -12q3 -12 3 -24q0 -20 -7 -37q-8 -17 -20 -29q-14 -14 -30 -20q-15 -7 -36 -7
q-20 0 -37 7q-17 6 -29 20zM2490 191q-6 -14 -6 -28q0 -10 3 -19t7 -18q2 -5 5 -8t6 -7q4 -3 7.5 -6t7.5 -5q5 -2 9 -3.5t9 -3.5q7 -3 19 -3q10 0 19 3q5 2 9 3.5t9 3.5q7 4 14 11t11 15q5 7 8 18q2 5 2 9.5v9.5q0 14 -6 28q-5 14 -15 23q-8 9 -23 16q-13 5 -28 5
q-8 0 -14.5 -1.5t-14.5 -3.5q-14 -7 -23 -16t-15 -23zM2704 72h-20v182h14q12 0 16 -7l94 -132q2 -2 2 -3t1 -3t1 -5v150h21v-182h-19l-107 150l-1 2q-1 1 -1 3t-1 3v-158zM2986 233v-63h76v-20h-76v-78h-20v182h111v-21h-91zM3204 169q-2 -4 -5 -6.5t-7 -5.5q-8 -5 -16 -6
l59 -79h-12q-9 0 -13 2q-5 3 -8 8l-50 68h-33v-78h-20v182h64q12 0 21 -4t16 -11t12 -17q2 -5 3 -10t1 -10q0 -9 -3 -18q-4 -10 -9 -15zM3176 173q3 1 5.5 2.5t4.5 3.5q5 5 6 10q3 6 3 13q0 6 -3 12q-1 5 -6 10q-4 4 -10 7q-8 2 -13 2h-44v-63h44q7 0 13 3zM3413 97
q-14 -14 -30 -20q-15 -7 -37 -7q-9 0 -18.5 1.5t-17.5 5.5q-17 6 -29 20q-7 6 -11.5 13.5t-8.5 15.5q-8 19 -8 37q0 6 1 12t3 12q3 14 10 23q4 9 14 19q7 7 19 14q5 3 10.5 5.5t11.5 4.5q12 3 24 3q14 0 26 -3q6 -2 11 -4.5t10 -5.5q6 -3 10.5 -6.5t9.5 -7.5q5 -5 8 -9.5
t6 -9.5q6 -10 9 -23q4 -11 4 -24q0 -21 -8 -37q-6 -16 -19 -29zM3346 90q11 0 20 3q5 2 9 3.5t8 3.5q5 2 8 5t7 6q7 7 11 15q5 7 8 18q2 5 2 9.5v9.5q0 13 -5 28q-7 15 -16 23q-9 9 -23 16q-15 5 -29 5q-13 0 -28 -5q-13 -6 -22 -16q-9 -8 -16 -23q-6 -14 -6 -28
q0 -5 0.5 -9.5t1.5 -9.5q2 -5 4 -9t4 -9t5 -8l7 -7q6 -7 14 -11q4 -2 8 -3.5t9 -3.5q9 -3 19 -3zM3645 251q4 3 9 3h17v-182h-20v151q0 -1 -1 -1q0 -2 -1 -3v-3q0 -1 -1 -2q-5 -11 -9 -20.5t-8 -19.5q-5 -10 -9 -18.5t-7 -17.5q-4 -9 -8 -17.5t-7 -16.5q-4 -8 -7.5 -16
t-7.5 -16h-21q-8 17 -15.5 35t-15.5 35l-16 36l-16 36q-1 1 -1 4q-1 2 -1 4v-150h-20v182h16q4 0 9 -3q6 -3 6 -8l63 -141q0 -3 1 -4t1 -4q0 3 2 11q2 2 2.5 4.5t2.5 5.5l57 128q1 5 6 8zM524 0h210v-23q0 -10 -1 -14q-3 -8 -6 -12l-141 -189l4 2l4 2q1 0 1.5 0.5t2.5 0.5
h135v-50h-217v16q0 5 2 13t4 13q2 3 3 5.5t3 5.5q5 5 8 11l125 169h-137v50zM769 0h182v-50h-130v-65h105v-50h-105v-68h130v-50h-182v283zM1179 -50h-83v-233h-52v233h-83v50h218v-50zM1307 0l123 -283h-32q-11 0 -20 6q-7 5 -14 15l-16 39h-129l-17 -39q-2 -5 -5 -8
q-2 -3 -8 -7t-10 -4q-3 -2 -10 -2h-33l124 283h47zM1325 -172l-37 86q-2 3 -2.5 6t-1.5 5q0 6 -1 8q0 -5 -1 -8q0 -2 -1 -5l-2 -6l-37 -86h83zM1442 0h181v-50h-130v-71h109v-50h-109v-112h-51v283zM1910 -69q5 -8 8.5 -16.5t5.5 -18.5q3 -8 4 -18t1 -20t-1 -19.5t-4 -18.5
q-4 -17 -14 -35q-9 -15 -23 -29q-6 -6 -13.5 -11.5t-15.5 -10.5t-16.5 -8.5t-17.5 -6.5q-10 -2 -19 -3.5t-20 -1.5q-29 0 -56 11q-27 12 -46 31q-10 11 -18 22t-13 24q-11 25 -11 56q0 10 1 20t3 18q5 17 15 35q5 8 10.5 15t12.5 15q14 12 29 22q17 9 34 15q17 4 39 4t39 -4
q17 -6 34 -15q8 -5 15.5 -10.5t13.5 -11.5q7 -8 12.5 -15t10.5 -15zM1871 -178q3 9 5 18t2 18q0 17 -7 36q-4 9 -9 16t-11 14q-15 14 -30 19q-18 8 -36 8t-36 -8q-16 -6 -29 -19q-12 -12 -21 -30q-7 -19 -7 -36q0 -9 2 -18t5 -18q5 -8 9.5 -15.5t11.5 -13.5q12 -13 29 -20
q15 -7 36 -7t36 7t30 20q12 12 20 29zM2166 0h52v-283h-48l-135 189q-3 2 -4 7q-2 2 -3 3.5t-2 3.5t-2 3.5t-2 3.5l-3 6v-216h-52v283h46q10 0 16 -3q8 -3 11 -9q15 -20 30 -41t29 -42l30 -42t29 -41q4 -6 6 -12q2 -8 2 -9v199zM2242 0h218v-50h-83v-233h-52v233h-83v50z
M2639 -145q8 -8 13 -23q5 -13 5 -28q0 -18 -8 -36q-9 -17 -22 -29q-15 -12 -33 -18q-9 -3 -18.5 -5t-18.5 -2q-11 0 -20.5 2t-19.5 5q-9 5 -16.5 9.5t-15.5 11.5q-5 5 -8 9t-6 9t-4.5 8.5t-3.5 7.5q2 1 3.5 2t3.5 2t3.5 2t3.5 2q6 2 8 3q2 0 4.5 0.5t4.5 0.5q6 0 12 -3
q8 -2 13 -4q9 -7 17 -10q8 -5 21 -5q3 0 7 0.5t9 1.5q4 2 8 3.5t7 3.5q9 6 12 13q6 7 6 17q0 7 -5 14q-4 5 -12 10q-6 4 -16 7q-5 2 -9 4t-9 4q-13 4 -29 11q-8 3 -14 7t-12 9q-12 10 -17 22q-7 13 -7 32q0 10 2 18t5 16q5 7 9.5 12.5t10.5 10.5q13 10 29 16q13 4 32 4
q13 0 24 -4q6 -2 11.5 -4.5t10.5 -5.5t9.5 -7t9.5 -8q10 -8 15 -16l-10 -8q-7 -5 -14 -8q-5 -2 -8 -2h-7h-3h-4q-6 2 -10 4q-6 2 -8 4q-2 0 -4 1t-4 1q-6 2 -8 2q-4 0 -7 -0.5t-7 -1.5q-5 -1 -11 -5q-6 -3 -9 -8q-2 -3 -2 -11t2 -11t4.5 -5t4.5 -4q6 -4 16 -7q5 -2 11 -4
t13 -4l9 -3q18 -6 29 -14q14 -9 22 -18zM2726 -233q5 -5 6 -10q3 -5 3 -12q0 -8 -3 -12q-1 -5 -6 -10q-4 -4 -10 -6q-6 -3 -13 -3t-11 3q-7 2 -11 6t-7 10q-2 6 -2 12t2 12q3 6 7 10t11 6q4 3 11 3t13 -3q6 -2 10 -6zM2833 -76q-13 -13 -20 -30q-8 -18 -8 -36q0 -17 8 -36
q4 -8 8.5 -15.5t11.5 -13.5t14 -11t16 -9q15 -7 35 -7q8 0 15 1t13 3q14 5 25 13q6 2 9 4q3 1 10 1q10 0 16 -3q8 -4 12 -8l11 -11q-12 -14 -23 -22q-7 -5 -13.5 -8.5t-13.5 -7.5q-13 -7 -30 -10q-12 -4 -31 -4q-28 0 -56 11q-27 12 -46 31q-19 20 -31 46q-11 28 -11 56
q0 20 5 38q2 10 5.5 18.5t8.5 16.5q10 15 23 30q7 6 14 11.5t16 10.5q16 9 34 15q17 4 38 4q8 0 16 -0.5t15 -2.5q8 -2 15 -4.5t15 -5.5q7 -4 13.5 -8t13.5 -9q13 -10 23 -21l-11 -12q-4 -4 -12 -8q-8 -3 -16 -3q-10 0 -19 6q-13 8 -25 12q-13 5 -28 5q-17 0 -35 -8
q-9 -3 -16 -8t-14 -11zM3298 -69q5 -8 8.5 -16.5t5.5 -18.5q3 -8 4 -18t1 -20t-1 -19.5t-4 -18.5q-4 -17 -14 -35q-9 -15 -23 -29q-7 -6 -14 -11.5t-16 -10.5q-8 -5 -16 -8.5t-18 -6.5q-20 -5 -38 -5q-29 0 -57 11q-13 6 -24.5 13.5t-20.5 17.5q-10 11 -18 22t-13 24
q-12 27 -12 56q0 20 5 38q5 17 15 35q5 8 10.5 15t12.5 15q6 6 13.5 11.5t15.5 10.5q17 9 34 15q17 4 39 4t38 -4q18 -6 34 -15q9 -5 16 -10.5t14 -11.5q7 -8 12.5 -15t10.5 -15zM3259 -178q3 9 5 18t2 18q0 17 -7 36q-9 17 -20 30q-15 14 -30 19q-18 8 -36 8t-36 -8
q-15 -5 -30 -19q-6 -7 -11 -14t-9 -16q-7 -15 -7 -36q0 -19 7 -36t20 -29q15 -13 30 -20t36 -7t36 7t30 20q6 6 10.5 13.5t9.5 15.5zM3609 -2q6 2 10 2h52v-283h-52v207q-3 -5 -4 -14q-2 -4 -2.5 -7.5t-2.5 -6.5q-9 -23 -18 -45t-19 -44q-9 -23 -18 -45t-19 -45h-47l-74 179
q-2 3 -3 6t-2 8q-1 3 -2 6.5t-2 5.5v-205h-52v283h51q4 0 12 -2q6 -2 9 -4q5 -3 8 -8q2 -2 6 -8q8 -22 16.5 -43.5t17.5 -42.5q8 -22 17 -43t17 -43q2 -2 2 -5q0 -2 0.5 -3t0.5 -3q1 -2 1 -6v-3q0 2 1 3q0 4 1 6q0 4 1 6q0 2 0.5 3t0.5 2l10 20l59 152q1 4 6 9q2 3 8 7
q4 2 10 4z" />
    <glyph glyph-name="five" unicode="5" horiz-adv-x="4097" 
d="M2952 600q9 -8 16 -23q6 -14 6 -30q0 -14 -6 -29q-7 -14 -16 -23q-10 -10 -24 -16t-29 -6q-16 0 -29 6q-14 6 -24 16q-5 5 -9 11t-7 12q-6 15 -6 29q0 16 6 30q6 13 16 23q9 10 24 17q13 6 29 6q15 0 29 -6q15 -7 24 -17zM1109 577q-4 -6 -7 -10q-6 -4 -10 -6t-12 -2h-44
v61h44q6 0 12 -3q5 -1 10 -6q3 -3 7 -9q2 -8 2 -13q0 -4 -2 -12zM1479 600q10 -10 16 -23q6 -14 6 -30q0 -14 -6 -29q-3 -6 -7 -12t-9 -11q-10 -10 -24 -16t-29 -6q-16 0 -29 6q-14 6 -24 16q-9 9 -16 23q-6 15 -6 29q0 16 6 30q7 15 16 23q9 10 24 17q13 6 29 6q15 0 29 -6
q15 -7 24 -17zM1855 616q0 -6 2 -12l37 -84h-78l36 84q1 2 1 2.5t1 2.5q0 2 0.5 3.5t0.5 3.5zM784 610q3 -3 7 -11q3 -8 3 -14q0 -8 -3 -14q-4 -8 -7 -11q-6 -6 -11 -7q-4 -2 -7 -3t-7 -1h-44v71h44q6 0 14 -3q5 -1 11 -7zM3671 1084v-766h-3147v766h1193q0 80 30 151
q16 35 36.5 65t46.5 56q54 52 121 80q70 30 146 30q85 0 152 -32q70 -31 121 -84q26 -26 45.5 -56.5t34.5 -65.5q29 -70 29 -144h1192zM1774 1216q-26 -64 -26 -133q0 -71 27 -134q26 -62 74 -113q46 -47 111 -76q61 -29 137 -29q74 0 136 28q32 14 60 33t52 42t43 51t33 60
q27 64 27 138q0 67 -20 120q-19 53 -56 99q-35 42 -82 74q-24 14 -49.5 25.5t-51.5 19.5q-39 13 -92 13q-73 0 -139 -29q-64 -29 -111 -76q-45 -47 -73 -113zM817 561q5 12 5 24t-5 25q-4 9 -14 19q-8 9 -20 14q-10 5 -24 5h-71v-200h27v74h44q11 0 24 5q11 4 20 13
q10 10 14 21zM966 648h-124v-200h124v27h-96v60h78v28h-78v57h96v28zM1161 448l-63 86q10 3 16 8q9 6 13 13q5 5 9 16q2 5 2 9v9q0 14 -4 23q-2 5 -5.5 9.5t-7.5 9.5q-8 7 -18 12q-9 5 -23 5h-72v-200h28v83h30l52 -71q3 -5 10 -9q4 -3 15 -3h18zM1296 482q5 13 5 25
q0 27 -21 44q-6 4 -9 5q-2 2 -4.5 2.5t-4.5 2.5q-2 1 -5 1.5t-5 2.5q-2 0 -5 1t-5 2q-5 2 -9 3.5t-8 3.5q-9 3 -11 5q-5 5 -6 8q-2 3 -2 10t2 10q4 6 7 8q3 1 11 5q3 1 5.5 1.5t6.5 0.5q2 0 5 -1t5 -2q3 -1 6 -2.5t5 -3.5q6 -3 12 -3q9 0 14 5l7 5l-4.5 4.5l-5.5 5.5
q-3 2 -6 4.5t-7 4.5q-5 4 -15 7q-8 3 -16 3q-12 0 -22 -3q-6 -2 -10.5 -4.5t-9.5 -5.5q-8 -8 -13 -17q-5 -10 -5 -22q0 -15 5 -22q4 -9 12 -15q9 -7 18 -11q5 -2 10 -4.5t10 -4.5q3 -2 6.5 -2.5t7.5 -2.5q10 -4 13 -6q6 -4 10 -10q3 -5 3 -13q0 -9 -4 -14q-2 -6 -9 -11
q-3 -2 -6.5 -3.5t-6.5 -3.5q-5 -1 -8 -1.5t-7 -0.5q-6 0 -14 2q-9 3 -12 8l-3 1q-6 7 -15 7q-6 0 -11 -4l-7 -3q1 -1 1 -2t2 -2q0 -2 1 -3t2 -3t5 -6q3 -5 6 -6q17 -16 45 -16q15 0 27 4q13 5 21 13q10 8 16 19zM1525 520q3 15 3 27q0 14 -3 28q-2 7 -4.5 13t-6.5 12
q-3 5 -7 10l-8 10q-10 8 -22 16q-5 4 -11 6.5t-13 4.5q-14 3 -27 3q-15 0 -27 -3q-7 -2 -13 -4.5t-12 -6.5q-5 -4 -10 -7.5t-10 -8.5q-9 -8 -16 -20q-4 -6 -6.5 -12t-4.5 -13t-3 -13.5t-1 -14.5q0 -21 9 -39q4 -10 9.5 -17.5t12.5 -15.5q13 -13 32 -21q17 -8 40 -8
q8 0 14 0.5t13 2.5t13 4.5t11 6.5q11 5 22 15q4 5 8 10.5t7 10.5q4 6 6.5 12t4.5 12zM1735 648h-28v-156q0 5 -1 8t-3 6l-97 134q-3 4 -8 6q-8 2 -12 2h-20v-200h28v168v-4l2 -4q0 -2 2 -4l114 -156h23v200zM1956 448l-87 200h-27l-88 -200h16q6 0 12 3l4 4t4 5l14 32h102
l14 -32q3 -7 8 -9q3 -3 12 -3h16zM2090 475h-87v173h-27v-200h114v27zM2365 648h-28v-122q0 -12 -4 -21q-2 -5 -4.5 -9t-7.5 -7q-3 -5 -7 -7.5t-9 -4.5q-9 -4 -21 -4t-20 4q-5 2 -9.5 4.5t-7.5 7.5q-7 5 -12 16q-2 5 -3 10t-1 11v122h-27v-122v-11.5t2 -10.5t4 -9.5t4 -9.5
q3 -5 6 -9t8 -7q5 -6 15 -13q11 -5 20 -8q10 -3 21 -3t22 3q5 2 9.5 4t9.5 4q9 6 16 13q4 3 7 7t6 9q2 5 4 9.5t4 9.5q3 10 3 22v122zM2519 482q5 10 5 25q0 29 -21 44q-2 2 -4 3l-4 2l-10 5q-6 2 -10 4q-2 0 -4.5 1t-5.5 2q-5 2 -8.5 3.5t-7.5 3.5t-6.5 2.5t-4.5 2.5
q-6 4 -7 8q-2 6 -2 10q0 5 3 10q4 6 7 8q2 1 4.5 2t5.5 3q8 2 13 2q2 0 4.5 -1t5.5 -2l5 -2.5t6 -3.5q6 -3 12 -3q8 0 13 5l8 5l-10 10q-3 2 -6 4.5t-7 4.5q-3 2 -7 3.5t-8 3.5q-9 3 -16 3q-13 0 -23 -3q-5 -2 -9.5 -4.5t-9.5 -5.5q-4 -4 -7.5 -8t-5.5 -9q-6 -9 -6 -22
q0 -12 5 -22t13 -15q8 -7 17 -11l21 -9q4 -2 7 -2.5t7 -2.5q3 -2 6.5 -3t6.5 -3q6 -5 9 -10q4 -4 4 -13t-4 -14q-2 -5 -10 -11q-5 -4 -13 -7q-10 -2 -14 -2q-7 0 -15 2q-9 3 -12 8l-2 1q-6 7 -16 7q-6 0 -10 -4l-8 -3q1 -1 1.5 -2t1.5 -2l3 -6q4 -4 5 -6q3 -5 7 -6
q17 -16 45 -16q14 0 26 4q12 5 22 13q8 7 15 19zM2683 648h-124v-200h124v27h-97v60h78v28h-78v57h97v28zM2998 520q3 15 3 27q0 14 -3 28q-2 7 -4.5 13t-6.5 12q-7 12 -16 20q-5 5 -10 8.5t-10 7.5q-6 4 -12 6.5t-13 4.5q-12 3 -27 3q-14 0 -27 -3q-7 -2 -13 -4.5t-12 -6.5
q-5 -4 -10.5 -7.5t-10.5 -8.5t-8.5 -10t-7.5 -10q-5 -10 -10 -25q-3 -14 -3 -28q0 -10 1.5 -20t6.5 -19q4 -10 9 -17.5t12 -15.5q15 -14 33 -21q16 -8 40 -8q7 0 14 0.5t13 2.5q7 2 13 4.5t12 6.5q12 7 20 15q5 5 9 10.5t7 10.5q4 6 6.5 12t4.5 12zM3208 648h-28v-156
q-2 9 -5 14l-97 134q-3 5 -8 6q-6 2 -12 2h-20v-200h28v168l2 -4q0 -3 1 -4q0 -2 2 -4l114 -156h23v200zM3371 475h-87v173h-27v-200h114v27zM3530 648h-19q-10 0 -14 -3q-7 -3 -10 -10l-48 -64q1 0 -2 -3q0 -1 -1 -2v-1v3q0 3 -2 3l-47 64q-6 8 -10 10q-8 3 -15 3h-19
l72 -97q1 -1 1.5 -2t1.5 -2q2 -4 3 -5q0 -1 0.5 -2t0.5 -2v-6v-84h28v84q0 2 0.5 3t0.5 3q1 1 1 2t1 2t1 2t2 3q0 1 3 4zM1983 789q-53 21 -97 58h423q-43 -37 -97 -58q-51 -22 -115 -22q-63 0 -114 22zM1922 881l411 415q79 -103 79 -213q0 -57 -18 -108q-17 -49 -53 -94
h-419zM1861 871q-19 22 -33.5 46t-24.5 51q-11 26 -15.5 55t-4.5 60q0 57 18 108q8 26 21.5 48.5t30.5 44.5h419zM2212 1378q55 -23 95 -60h-422q22 20 46.5 34.5t50.5 25.5q27 11 55.5 16t59.5 5q62 0 115 -21zM530 116q-6 8 -10 22q-2 6 -3 12t-1 13q0 6 1 12t3 12
q3 14 10 23q7 12 14 19t19 14q5 3 10.5 5.5t11.5 4.5q12 3 25 3q10 0 19 -2t18 -5q8 -5 15.5 -9.5t13.5 -11.5l-4 -4q0 -1 -1 -1q-1 -1 -2 -1q-2 -2 -4 -2h-5q-6 0 -9 2q-5 3 -9.5 5.5t-9.5 4.5q-11 3 -22 3q-15 0 -28 -5q-15 -7 -23 -16q-9 -8 -16 -23q-6 -14 -6 -28
q0 -10 3 -19t7 -18q3 -5 6 -8t6 -7q4 -3 7.5 -6t7.5 -5q5 -2 9 -3.5t9 -3.5q9 -3 19 -3q12 0 24 3q6 2 11.5 4.5t10.5 5.5v38h-14q-2 0 -3.5 0.5t-3.5 0.5q-2 2 -6 4q-1 2 -2 3t-1 3q-2 4 -2 7v2h51v-71q-5 -7 -14 -11q-8 -4 -15 -5q-5 -2 -9 -2.5t-9 -1.5h-19q-13 0 -25 3
q-11 3 -22 9q-12 7 -19 15q-7 7 -14 19zM742 233v-59h72v-20h-72v-62h90v-20h-111v182h111v-21h-90zM912 72v161h-58v21h137v-21h-58v-161h-21zM1126 233v-63h76v-20h-76v-78h-21v182h111v-21h-90zM1271 254v-112q0 -12 4 -20q2 -5 5 -9l6 -8l8 -6t9 -5q9 -4 20 -4
q12 0 20 4q5 2 9 5l8 6q6 6 11 17q5 10 5 20v112h20v-112q0 -16 -6 -28q-3 -7 -6.5 -12.5t-8.5 -10.5q-9 -9 -23 -16q-15 -5 -29 -5q-13 0 -28 5q-15 7 -23 16q-9 8 -16 23q-3 6 -4 13t-1 15v112h20zM1455 254v-162h81v-20h-102v182h21zM1579 254v-162h81v-20h-101v182h20z
M1826 72l-79 182h11q4 0 10 -3l3.5 -3.5t2.5 -4.5l60 -136q0 -2 0.5 -3t0.5 -3q1 -3 1 -6v6q2 4 2 6q8 17 15 34t15 34t15 34t15 34q2 4 6 8q6 3 10 3h11q-10 -23 -20 -45.5t-20 -45.5t-19.5 -45.5t-19.5 -45.5h-20zM1961 233v-59h73v-20h-73v-62h90v-20h-111v182h111v-21
h-90zM2187 157q-8 -5 -16 -6l59 -79h-12q-9 0 -12 2q-6 3 -9 8l-51 68h-31v-78h-21v182h65q12 0 20 -4q9 -4 17 -11q7 -8 11 -17q4 -8 4 -20q0 -9 -3 -18q-4 -9 -8 -15q-3 -4 -6 -6.5t-7 -5.5zM2159 170q6 0 12 3q3 1 5.5 2.5t4.5 3.5q4 4 7 10l2 6t1 7q0 3 -1 6l-2 6
q-3 6 -7 10t-10 7q-8 2 -12 2h-44v-63h44zM2326 98q6 4 9 11q4 5 4 14t-3 15t-9 9q-4 4 -12 7q-4 1 -14 5q-5 2 -9.5 4t-9.5 4q-11 3 -16 9q-6 4 -11 13q-3 7 -3 20q0 11 5 19q3 9 12 15q4 3 8 5.5t9 4.5q9 3 19 3q5 0 15 -2q5 -2 13 -6q3 -2 5.5 -4t4.5 -4q3 -2 5 -4l4 -4
l-5 -4q-4 -4 -10 -4q-4 0 -10 2q-2 2 -3 2.5t-2 1.5q-2 1 -2.5 1.5t-2.5 1.5q-2 0 -3 0.5t-3 0.5q-2 1 -6 1q-5 0 -13 -2q-4 -1 -10 -5q-6 -6 -7 -9q-3 -5 -3 -10q0 -8 2 -11q1 -4 6 -7q6 -4 11 -6q4 -2 8 -3t9 -3q3 -2 9 -4t9 -4q6 -2 9 -4q2 -1 3.5 -2t3.5 -2q8 -8 14 -17
q2 -5 3 -10.5t1 -12.5q0 -10 -5 -22q-4 -8 -13 -17q-8 -7 -20 -10q-9 -4 -23 -4q-26 0 -40 14q-3 2 -5.5 5t-4.5 5q-4 6 -4 8l4 2q2 2 4 2q1 1 4 1q8 0 13 -5q6 -7 14 -9q7 -3 15 -3q4 0 7 0.5t7 1.5q7 1 13 6zM2421 254v-182h-21v182h21zM2491 97q-13 12 -20 29
q-8 19 -8 37q0 6 1 12t3 12q3 13 9 23q4 5 7 9.5t8 9.5q5 4 9.5 7.5t9.5 6.5q11 7 22 10q12 3 25 3t25 -3q6 -2 11.5 -4.5t10.5 -5.5t9.5 -6.5t9.5 -7.5q5 -5 8 -9.5t6 -9.5t5.5 -11t4.5 -12q3 -12 3 -24q0 -20 -7 -37q-8 -17 -20 -29q-14 -14 -30 -20q-15 -7 -36 -7
q-20 0 -37 7q-17 6 -29 20zM2490 191q-6 -14 -6 -28q0 -10 3 -19t7 -18q2 -5 5 -8t6 -7q4 -3 7.5 -6t7.5 -5q5 -2 9 -3.5t9 -3.5q7 -3 19 -3q10 0 19 3q5 2 9 3.5t9 3.5q7 4 14 11t11 15q5 7 8 18q2 5 2 9.5v9.5q0 14 -6 28q-5 14 -15 23q-8 9 -23 16q-13 5 -28 5
q-8 0 -14.5 -1.5t-14.5 -3.5q-14 -7 -23 -16t-15 -23zM2704 72h-20v182h14q12 0 16 -7l94 -132q2 -2 2 -3t1 -3t1 -5v150h21v-182h-19l-107 150l-1 2q-1 1 -1 3t-1 3v-158zM2986 233v-63h76v-20h-76v-78h-20v182h111v-21h-91zM3204 169q-2 -4 -5 -6.5t-7 -5.5q-8 -5 -16 -6
l59 -79h-12q-9 0 -13 2q-5 3 -8 8l-50 68h-33v-78h-20v182h64q12 0 21 -4t16 -11t12 -17q2 -5 3 -10t1 -10q0 -9 -3 -18q-4 -10 -9 -15zM3176 173q3 1 5.5 2.5t4.5 3.5q5 5 6 10q3 6 3 13q0 6 -3 12q-1 5 -6 10q-4 4 -10 7q-8 2 -13 2h-44v-63h44q7 0 13 3zM3413 97
q-14 -14 -30 -20q-15 -7 -37 -7q-9 0 -18.5 1.5t-17.5 5.5q-17 6 -29 20q-7 6 -11.5 13.5t-8.5 15.5q-8 19 -8 37q0 6 1 12t3 12q3 14 10 23q4 9 14 19q7 7 19 14q5 3 10.5 5.5t11.5 4.5q12 3 24 3q14 0 26 -3q6 -2 11 -4.5t10 -5.5q6 -3 10.5 -6.5t9.5 -7.5q5 -5 8 -9.5
t6 -9.5q6 -10 9 -23q4 -11 4 -24q0 -21 -8 -37q-6 -16 -19 -29zM3346 90q11 0 20 3q5 2 9 3.5t8 3.5q5 2 8 5t7 6q7 7 11 15q5 7 8 18q2 5 2 9.5v9.5q0 13 -5 28q-7 15 -16 23q-9 9 -23 16q-15 5 -29 5q-13 0 -28 -5q-13 -6 -22 -16q-9 -8 -16 -23q-6 -14 -6 -28
q0 -5 0.5 -9.5t1.5 -9.5q2 -5 4 -9t4 -9t5 -8l7 -7q6 -7 14 -11q4 -2 8 -3.5t9 -3.5q9 -3 19 -3zM3645 251q4 3 9 3h17v-182h-20v151q0 -1 -1 -1q0 -2 -1 -3v-3q0 -1 -1 -2q-5 -11 -9 -20.5t-8 -19.5q-5 -10 -9 -18.5t-7 -17.5q-4 -9 -8 -17.5t-7 -16.5q-4 -8 -7.5 -16
t-7.5 -16h-21q-8 17 -15.5 35t-15.5 35l-16 36l-16 36q-1 1 -1 4q-1 2 -1 4v-150h-20v182h16q4 0 9 -3q6 -3 6 -8l63 -141q0 -3 1 -4t1 -4q0 3 2 11q2 2 2.5 4.5t2.5 5.5l57 128q1 5 6 8zM524 0h210v-23q0 -10 -1 -14q-3 -8 -6 -12l-141 -189l4 2l4 2q1 0 1.5 0.5t2.5 0.5
h135v-50h-217v16q0 5 2 13t4 13q2 3 3 5.5t3 5.5q5 5 8 11l125 169h-137v50zM769 0h182v-50h-130v-65h105v-50h-105v-68h130v-50h-182v283zM1179 -50h-83v-233h-52v233h-83v50h218v-50zM1307 0l123 -283h-32q-11 0 -20 6q-7 5 -14 15l-16 39h-129l-17 -39q-2 -5 -5 -8
q-2 -3 -8 -7t-10 -4q-3 -2 -10 -2h-33l124 283h47zM1325 -172l-37 86q-2 3 -2.5 6t-1.5 5q0 6 -1 8q0 -5 -1 -8q0 -2 -1 -5l-2 -6l-37 -86h83zM1442 0h181v-50h-130v-71h109v-50h-109v-112h-51v283zM1910 -69q5 -8 8.5 -16.5t5.5 -18.5q3 -8 4 -18t1 -20t-1 -19.5t-4 -18.5
q-4 -17 -14 -35q-9 -15 -23 -29q-6 -6 -13.5 -11.5t-15.5 -10.5t-16.5 -8.5t-17.5 -6.5q-10 -2 -19 -3.5t-20 -1.5q-29 0 -56 11q-27 12 -46 31q-10 11 -18 22t-13 24q-11 25 -11 56q0 10 1 20t3 18q5 17 15 35q5 8 10.5 15t12.5 15q14 12 29 22q17 9 34 15q17 4 39 4t39 -4
q17 -6 34 -15q8 -5 15.5 -10.5t13.5 -11.5q7 -8 12.5 -15t10.5 -15zM1871 -178q3 9 5 18t2 18q0 17 -7 36q-4 9 -9 16t-11 14q-15 14 -30 19q-18 8 -36 8t-36 -8q-16 -6 -29 -19q-12 -12 -21 -30q-7 -19 -7 -36q0 -9 2 -18t5 -18q5 -8 9.5 -15.5t11.5 -13.5q12 -13 29 -20
q15 -7 36 -7t36 7t30 20q12 12 20 29zM2166 0h52v-283h-48l-135 189q-3 2 -4 7q-2 2 -3 3.5t-2 3.5t-2 3.5t-2 3.5l-3 6v-216h-52v283h46q10 0 16 -3q8 -3 11 -9q15 -20 30 -41t29 -42l30 -42t29 -41q4 -6 6 -12q2 -8 2 -9v199zM2242 0h218v-50h-83v-233h-52v233h-83v50z
M2639 -145q8 -8 13 -23q5 -13 5 -28q0 -18 -8 -36q-9 -17 -22 -29q-15 -12 -33 -18q-9 -3 -18.5 -5t-18.5 -2q-11 0 -20.5 2t-19.5 5q-9 5 -16.5 9.5t-15.5 11.5q-5 5 -8 9t-6 9t-4.5 8.5t-3.5 7.5q2 1 3.5 2t3.5 2t3.5 2t3.5 2q6 2 8 3q2 0 4.5 0.5t4.5 0.5q6 0 12 -3
q8 -2 13 -4q9 -7 17 -10q8 -5 21 -5q3 0 7 0.5t9 1.5q4 2 8 3.5t7 3.5q9 6 12 13q6 7 6 17q0 7 -5 14q-4 5 -12 10q-6 4 -16 7q-5 2 -9 4t-9 4q-13 4 -29 11q-8 3 -14 7t-12 9q-12 10 -17 22q-7 13 -7 32q0 10 2 18t5 16q5 7 9.5 12.5t10.5 10.5q13 10 29 16q13 4 32 4
q13 0 24 -4q6 -2 11.5 -4.5t10.5 -5.5t9.5 -7t9.5 -8q10 -8 15 -16l-10 -8q-7 -5 -14 -8q-5 -2 -8 -2h-7h-3h-4q-6 2 -10 4q-6 2 -8 4q-2 0 -4 1t-4 1q-6 2 -8 2q-4 0 -7 -0.5t-7 -1.5q-5 -1 -11 -5q-6 -3 -9 -8q-2 -3 -2 -11t2 -11t4.5 -5t4.5 -4q6 -4 16 -7q5 -2 11 -4
t13 -4l9 -3q18 -6 29 -14q14 -9 22 -18zM2726 -233q5 -5 6 -10q3 -5 3 -12q0 -8 -3 -12q-1 -5 -6 -10q-4 -4 -10 -6q-6 -3 -13 -3t-11 3q-7 2 -11 6t-7 10q-2 6 -2 12t2 12q3 6 7 10t11 6q4 3 11 3t13 -3q6 -2 10 -6zM2833 -76q-13 -13 -20 -30q-8 -18 -8 -36q0 -17 8 -36
q4 -8 8.5 -15.5t11.5 -13.5t14 -11t16 -9q15 -7 35 -7q8 0 15 1t13 3q14 5 25 13q6 2 9 4q3 1 10 1q10 0 16 -3q8 -4 12 -8l11 -11q-12 -14 -23 -22q-7 -5 -13.5 -8.5t-13.5 -7.5q-13 -7 -30 -10q-12 -4 -31 -4q-28 0 -56 11q-27 12 -46 31q-19 20 -31 46q-11 28 -11 56
q0 20 5 38q2 10 5.5 18.5t8.5 16.5q10 15 23 30q7 6 14 11.5t16 10.5q16 9 34 15q17 4 38 4q8 0 16 -0.5t15 -2.5q8 -2 15 -4.5t15 -5.5q7 -4 13.5 -8t13.5 -9q13 -10 23 -21l-11 -12q-4 -4 -12 -8q-8 -3 -16 -3q-10 0 -19 6q-13 8 -25 12q-13 5 -28 5q-17 0 -35 -8
q-9 -3 -16 -8t-14 -11zM3298 -69q5 -8 8.5 -16.5t5.5 -18.5q3 -8 4 -18t1 -20t-1 -19.5t-4 -18.5q-4 -17 -14 -35q-9 -15 -23 -29q-7 -6 -14 -11.5t-16 -10.5q-8 -5 -16 -8.5t-18 -6.5q-20 -5 -38 -5q-29 0 -57 11q-13 6 -24.5 13.5t-20.5 17.5q-10 11 -18 22t-13 24
q-12 27 -12 56q0 20 5 38q5 17 15 35q5 8 10.5 15t12.5 15q6 6 13.5 11.5t15.5 10.5q17 9 34 15q17 4 39 4t38 -4q18 -6 34 -15q9 -5 16 -10.5t14 -11.5q7 -8 12.5 -15t10.5 -15zM3259 -178q3 9 5 18t2 18q0 17 -7 36q-9 17 -20 30q-15 14 -30 19q-18 8 -36 8t-36 -8
q-15 -5 -30 -19q-6 -7 -11 -14t-9 -16q-7 -15 -7 -36q0 -19 7 -36t20 -29q15 -13 30 -20t36 -7t36 7t30 20q6 6 10.5 13.5t9.5 15.5zM3609 -2q6 2 10 2h52v-283h-52v207q-3 -5 -4 -14q-2 -4 -2.5 -7.5t-2.5 -6.5q-9 -23 -18 -45t-19 -44q-9 -23 -18 -45t-19 -45h-47l-74 179
q-2 3 -3 6t-2 8q-1 3 -2 6.5t-2 5.5v-205h-52v283h51q4 0 12 -2q6 -2 9 -4q5 -3 8 -8q2 -2 6 -8q8 -22 16.5 -43.5t17.5 -42.5q8 -22 17 -43t17 -43q2 -2 2 -5q0 -2 0.5 -3t0.5 -3q1 -2 1 -6v-3q0 2 1 3q0 4 1 6q0 4 1 6q0 2 0.5 3t0.5 2l10 20l59 152q1 4 6 9q2 3 8 7
q4 2 10 4z" />
    <glyph glyph-name="six" unicode="6" horiz-adv-x="4097" 
d="M2952 600q9 -8 16 -23q6 -14 6 -30q0 -14 -6 -29q-7 -14 -16 -23q-10 -10 -24 -16t-29 -6q-16 0 -29 6q-14 6 -24 16q-5 5 -9 11t-7 12q-6 15 -6 29q0 16 6 30q6 13 16 23q9 10 24 17q13 6 29 6q15 0 29 -6q15 -7 24 -17zM1109 577q-4 -6 -7 -10q-6 -4 -10 -6t-12 -2h-44
v61h44q6 0 12 -3q5 -1 10 -6q3 -3 7 -9q2 -8 2 -13q0 -4 -2 -12zM1479 600q10 -10 16 -23q6 -14 6 -30q0 -14 -6 -29q-3 -6 -7 -12t-9 -11q-10 -10 -24 -16t-29 -6q-16 0 -29 6q-14 6 -24 16q-9 9 -16 23q-6 15 -6 29q0 16 6 30q7 15 16 23q9 10 24 17q13 6 29 6q15 0 29 -6
q15 -7 24 -17zM1855 616q0 -6 2 -12l37 -84h-78l36 84q1 2 1 2.5t1 2.5q0 2 0.5 3.5t0.5 3.5zM784 610q3 -3 7 -11q3 -8 3 -14q0 -8 -3 -14q-4 -8 -7 -11q-6 -6 -11 -7q-4 -2 -7 -3t-7 -1h-44v71h44q6 0 14 -3q5 -1 11 -7zM3671 1084v-766h-3147v766h1193q0 80 30 151
q16 35 36.5 65t46.5 56q54 52 121 80q70 30 146 30q85 0 152 -32q70 -31 121 -84q26 -26 45.5 -56.5t34.5 -65.5q29 -70 29 -144h1192zM1774 1216q-26 -64 -26 -133q0 -71 27 -134q26 -62 74 -113q46 -47 111 -76q61 -29 137 -29q74 0 136 28q32 14 60 33t52 42t43 51t33 60
q27 64 27 138q0 67 -20 120q-19 53 -56 99q-35 42 -82 74q-24 14 -49.5 25.5t-51.5 19.5q-39 13 -92 13q-73 0 -139 -29q-64 -29 -111 -76q-45 -47 -73 -113zM817 561q5 12 5 24t-5 25q-4 9 -14 19q-8 9 -20 14q-10 5 -24 5h-71v-200h27v74h44q11 0 24 5q11 4 20 13
q10 10 14 21zM966 648h-124v-200h124v27h-96v60h78v28h-78v57h96v28zM1161 448l-63 86q10 3 16 8q9 6 13 13q5 5 9 16q2 5 2 9v9q0 14 -4 23q-2 5 -5.5 9.5t-7.5 9.5q-8 7 -18 12q-9 5 -23 5h-72v-200h28v83h30l52 -71q3 -5 10 -9q4 -3 15 -3h18zM1296 482q5 13 5 25
q0 27 -21 44q-6 4 -9 5q-2 2 -4.5 2.5t-4.5 2.5q-2 1 -5 1.5t-5 2.5q-2 0 -5 1t-5 2q-5 2 -9 3.5t-8 3.5q-9 3 -11 5q-5 5 -6 8q-2 3 -2 10t2 10q4 6 7 8q3 1 11 5q3 1 5.5 1.5t6.5 0.5q2 0 5 -1t5 -2q3 -1 6 -2.5t5 -3.5q6 -3 12 -3q9 0 14 5l7 5l-4.5 4.5l-5.5 5.5
q-3 2 -6 4.5t-7 4.5q-5 4 -15 7q-8 3 -16 3q-12 0 -22 -3q-6 -2 -10.5 -4.5t-9.5 -5.5q-8 -8 -13 -17q-5 -10 -5 -22q0 -15 5 -22q4 -9 12 -15q9 -7 18 -11q5 -2 10 -4.5t10 -4.5q3 -2 6.5 -2.5t7.5 -2.5q10 -4 13 -6q6 -4 10 -10q3 -5 3 -13q0 -9 -4 -14q-2 -6 -9 -11
q-3 -2 -6.5 -3.5t-6.5 -3.5q-5 -1 -8 -1.5t-7 -0.5q-6 0 -14 2q-9 3 -12 8l-3 1q-6 7 -15 7q-6 0 -11 -4l-7 -3q1 -1 1 -2t2 -2q0 -2 1 -3t2 -3t5 -6q3 -5 6 -6q17 -16 45 -16q15 0 27 4q13 5 21 13q10 8 16 19zM1525 520q3 15 3 27q0 14 -3 28q-2 7 -4.5 13t-6.5 12
q-3 5 -7 10l-8 10q-10 8 -22 16q-5 4 -11 6.5t-13 4.5q-14 3 -27 3q-15 0 -27 -3q-7 -2 -13 -4.5t-12 -6.5q-5 -4 -10 -7.5t-10 -8.5q-9 -8 -16 -20q-4 -6 -6.5 -12t-4.5 -13t-3 -13.5t-1 -14.5q0 -21 9 -39q4 -10 9.5 -17.5t12.5 -15.5q13 -13 32 -21q17 -8 40 -8
q8 0 14 0.5t13 2.5t13 4.5t11 6.5q11 5 22 15q4 5 8 10.5t7 10.5q4 6 6.5 12t4.5 12zM1735 648h-28v-156q0 5 -1 8t-3 6l-97 134q-3 4 -8 6q-8 2 -12 2h-20v-200h28v168v-4l2 -4q0 -2 2 -4l114 -156h23v200zM1956 448l-87 200h-27l-88 -200h16q6 0 12 3l4 4t4 5l14 32h102
l14 -32q3 -7 8 -9q3 -3 12 -3h16zM2090 475h-87v173h-27v-200h114v27zM2365 648h-28v-122q0 -12 -4 -21q-2 -5 -4.5 -9t-7.5 -7q-3 -5 -7 -7.5t-9 -4.5q-9 -4 -21 -4t-20 4q-5 2 -9.5 4.5t-7.5 7.5q-7 5 -12 16q-2 5 -3 10t-1 11v122h-27v-122v-11.5t2 -10.5t4 -9.5t4 -9.5
q3 -5 6 -9t8 -7q5 -6 15 -13q11 -5 20 -8q10 -3 21 -3t22 3q5 2 9.5 4t9.5 4q9 6 16 13q4 3 7 7t6 9q2 5 4 9.5t4 9.5q3 10 3 22v122zM2519 482q5 10 5 25q0 29 -21 44q-2 2 -4 3l-4 2l-10 5q-6 2 -10 4q-2 0 -4.5 1t-5.5 2q-5 2 -8.5 3.5t-7.5 3.5t-6.5 2.5t-4.5 2.5
q-6 4 -7 8q-2 6 -2 10q0 5 3 10q4 6 7 8q2 1 4.5 2t5.5 3q8 2 13 2q2 0 4.5 -1t5.5 -2l5 -2.5t6 -3.5q6 -3 12 -3q8 0 13 5l8 5l-10 10q-3 2 -6 4.5t-7 4.5q-3 2 -7 3.5t-8 3.5q-9 3 -16 3q-13 0 -23 -3q-5 -2 -9.5 -4.5t-9.5 -5.5q-4 -4 -7.5 -8t-5.5 -9q-6 -9 -6 -22
q0 -12 5 -22t13 -15q8 -7 17 -11l21 -9q4 -2 7 -2.5t7 -2.5q3 -2 6.5 -3t6.5 -3q6 -5 9 -10q4 -4 4 -13t-4 -14q-2 -5 -10 -11q-5 -4 -13 -7q-10 -2 -14 -2q-7 0 -15 2q-9 3 -12 8l-2 1q-6 7 -16 7q-6 0 -10 -4l-8 -3q1 -1 1.5 -2t1.5 -2l3 -6q4 -4 5 -6q3 -5 7 -6
q17 -16 45 -16q14 0 26 4q12 5 22 13q8 7 15 19zM2683 648h-124v-200h124v27h-97v60h78v28h-78v57h97v28zM2998 520q3 15 3 27q0 14 -3 28q-2 7 -4.5 13t-6.5 12q-7 12 -16 20q-5 5 -10 8.5t-10 7.5q-6 4 -12 6.5t-13 4.5q-12 3 -27 3q-14 0 -27 -3q-7 -2 -13 -4.5t-12 -6.5
q-5 -4 -10.5 -7.5t-10.5 -8.5t-8.5 -10t-7.5 -10q-5 -10 -10 -25q-3 -14 -3 -28q0 -10 1.5 -20t6.5 -19q4 -10 9 -17.5t12 -15.5q15 -14 33 -21q16 -8 40 -8q7 0 14 0.5t13 2.5q7 2 13 4.5t12 6.5q12 7 20 15q5 5 9 10.5t7 10.5q4 6 6.5 12t4.5 12zM3208 648h-28v-156
q-2 9 -5 14l-97 134q-3 5 -8 6q-6 2 -12 2h-20v-200h28v168l2 -4q0 -3 1 -4q0 -2 2 -4l114 -156h23v200zM3371 475h-87v173h-27v-200h114v27zM3530 648h-19q-10 0 -14 -3q-7 -3 -10 -10l-48 -64q1 0 -2 -3q0 -1 -1 -2v-1v3q0 3 -2 3l-47 64q-6 8 -10 10q-8 3 -15 3h-19
l72 -97q1 -1 1.5 -2t1.5 -2q2 -4 3 -5q0 -1 0.5 -2t0.5 -2v-6v-84h28v84q0 2 0.5 3t0.5 3q1 1 1 2t1 2t1 2t2 3q0 1 3 4zM1983 789q-53 21 -97 58h423q-43 -37 -97 -58q-51 -22 -115 -22q-63 0 -114 22zM1922 881l411 415q79 -103 79 -213q0 -57 -18 -108q-17 -49 -53 -94
h-419zM1861 871q-19 22 -33.5 46t-24.5 51q-11 26 -15.5 55t-4.5 60q0 57 18 108q8 26 21.5 48.5t30.5 44.5h419zM2212 1378q55 -23 95 -60h-422q22 20 46.5 34.5t50.5 25.5q27 11 55.5 16t59.5 5q62 0 115 -21zM530 116q-6 8 -10 22q-2 6 -3 12t-1 13q0 6 1 12t3 12
q3 14 10 23q7 12 14 19t19 14q5 3 10.5 5.5t11.5 4.5q12 3 25 3q10 0 19 -2t18 -5q8 -5 15.5 -9.5t13.5 -11.5l-4 -4q0 -1 -1 -1q-1 -1 -2 -1q-2 -2 -4 -2h-5q-6 0 -9 2q-5 3 -9.5 5.5t-9.5 4.5q-11 3 -22 3q-15 0 -28 -5q-15 -7 -23 -16q-9 -8 -16 -23q-6 -14 -6 -28
q0 -10 3 -19t7 -18q3 -5 6 -8t6 -7q4 -3 7.5 -6t7.5 -5q5 -2 9 -3.5t9 -3.5q9 -3 19 -3q12 0 24 3q6 2 11.5 4.5t10.5 5.5v38h-14q-2 0 -3.5 0.5t-3.5 0.5q-2 2 -6 4q-1 2 -2 3t-1 3q-2 4 -2 7v2h51v-71q-5 -7 -14 -11q-8 -4 -15 -5q-5 -2 -9 -2.5t-9 -1.5h-19q-13 0 -25 3
q-11 3 -22 9q-12 7 -19 15q-7 7 -14 19zM742 233v-59h72v-20h-72v-62h90v-20h-111v182h111v-21h-90zM912 72v161h-58v21h137v-21h-58v-161h-21zM1126 233v-63h76v-20h-76v-78h-21v182h111v-21h-90zM1271 254v-112q0 -12 4 -20q2 -5 5 -9l6 -8l8 -6t9 -5q9 -4 20 -4
q12 0 20 4q5 2 9 5l8 6q6 6 11 17q5 10 5 20v112h20v-112q0 -16 -6 -28q-3 -7 -6.5 -12.5t-8.5 -10.5q-9 -9 -23 -16q-15 -5 -29 -5q-13 0 -28 5q-15 7 -23 16q-9 8 -16 23q-3 6 -4 13t-1 15v112h20zM1455 254v-162h81v-20h-102v182h21zM1579 254v-162h81v-20h-101v182h20z
M1826 72l-79 182h11q4 0 10 -3l3.5 -3.5t2.5 -4.5l60 -136q0 -2 0.5 -3t0.5 -3q1 -3 1 -6v6q2 4 2 6q8 17 15 34t15 34t15 34t15 34q2 4 6 8q6 3 10 3h11q-10 -23 -20 -45.5t-20 -45.5t-19.5 -45.5t-19.5 -45.5h-20zM1961 233v-59h73v-20h-73v-62h90v-20h-111v182h111v-21
h-90zM2187 157q-8 -5 -16 -6l59 -79h-12q-9 0 -12 2q-6 3 -9 8l-51 68h-31v-78h-21v182h65q12 0 20 -4q9 -4 17 -11q7 -8 11 -17q4 -8 4 -20q0 -9 -3 -18q-4 -9 -8 -15q-3 -4 -6 -6.5t-7 -5.5zM2159 170q6 0 12 3q3 1 5.5 2.5t4.5 3.5q4 4 7 10l2 6t1 7q0 3 -1 6l-2 6
q-3 6 -7 10t-10 7q-8 2 -12 2h-44v-63h44zM2326 98q6 4 9 11q4 5 4 14t-3 15t-9 9q-4 4 -12 7q-4 1 -14 5q-5 2 -9.5 4t-9.5 4q-11 3 -16 9q-6 4 -11 13q-3 7 -3 20q0 11 5 19q3 9 12 15q4 3 8 5.5t9 4.5q9 3 19 3q5 0 15 -2q5 -2 13 -6q3 -2 5.5 -4t4.5 -4q3 -2 5 -4l4 -4
l-5 -4q-4 -4 -10 -4q-4 0 -10 2q-2 2 -3 2.5t-2 1.5q-2 1 -2.5 1.5t-2.5 1.5q-2 0 -3 0.5t-3 0.5q-2 1 -6 1q-5 0 -13 -2q-4 -1 -10 -5q-6 -6 -7 -9q-3 -5 -3 -10q0 -8 2 -11q1 -4 6 -7q6 -4 11 -6q4 -2 8 -3t9 -3q3 -2 9 -4t9 -4q6 -2 9 -4q2 -1 3.5 -2t3.5 -2q8 -8 14 -17
q2 -5 3 -10.5t1 -12.5q0 -10 -5 -22q-4 -8 -13 -17q-8 -7 -20 -10q-9 -4 -23 -4q-26 0 -40 14q-3 2 -5.5 5t-4.5 5q-4 6 -4 8l4 2q2 2 4 2q1 1 4 1q8 0 13 -5q6 -7 14 -9q7 -3 15 -3q4 0 7 0.5t7 1.5q7 1 13 6zM2421 254v-182h-21v182h21zM2491 97q-13 12 -20 29
q-8 19 -8 37q0 6 1 12t3 12q3 13 9 23q4 5 7 9.5t8 9.5q5 4 9.5 7.5t9.5 6.5q11 7 22 10q12 3 25 3t25 -3q6 -2 11.5 -4.5t10.5 -5.5t9.5 -6.5t9.5 -7.5q5 -5 8 -9.5t6 -9.5t5.5 -11t4.5 -12q3 -12 3 -24q0 -20 -7 -37q-8 -17 -20 -29q-14 -14 -30 -20q-15 -7 -36 -7
q-20 0 -37 7q-17 6 -29 20zM2490 191q-6 -14 -6 -28q0 -10 3 -19t7 -18q2 -5 5 -8t6 -7q4 -3 7.5 -6t7.5 -5q5 -2 9 -3.5t9 -3.5q7 -3 19 -3q10 0 19 3q5 2 9 3.5t9 3.5q7 4 14 11t11 15q5 7 8 18q2 5 2 9.5v9.5q0 14 -6 28q-5 14 -15 23q-8 9 -23 16q-13 5 -28 5
q-8 0 -14.5 -1.5t-14.5 -3.5q-14 -7 -23 -16t-15 -23zM2704 72h-20v182h14q12 0 16 -7l94 -132q2 -2 2 -3t1 -3t1 -5v150h21v-182h-19l-107 150l-1 2q-1 1 -1 3t-1 3v-158zM2986 233v-63h76v-20h-76v-78h-20v182h111v-21h-91zM3204 169q-2 -4 -5 -6.5t-7 -5.5q-8 -5 -16 -6
l59 -79h-12q-9 0 -13 2q-5 3 -8 8l-50 68h-33v-78h-20v182h64q12 0 21 -4t16 -11t12 -17q2 -5 3 -10t1 -10q0 -9 -3 -18q-4 -10 -9 -15zM3176 173q3 1 5.5 2.5t4.5 3.5q5 5 6 10q3 6 3 13q0 6 -3 12q-1 5 -6 10q-4 4 -10 7q-8 2 -13 2h-44v-63h44q7 0 13 3zM3413 97
q-14 -14 -30 -20q-15 -7 -37 -7q-9 0 -18.5 1.5t-17.5 5.5q-17 6 -29 20q-7 6 -11.5 13.5t-8.5 15.5q-8 19 -8 37q0 6 1 12t3 12q3 14 10 23q4 9 14 19q7 7 19 14q5 3 10.5 5.5t11.5 4.5q12 3 24 3q14 0 26 -3q6 -2 11 -4.5t10 -5.5q6 -3 10.5 -6.5t9.5 -7.5q5 -5 8 -9.5
t6 -9.5q6 -10 9 -23q4 -11 4 -24q0 -21 -8 -37q-6 -16 -19 -29zM3346 90q11 0 20 3q5 2 9 3.5t8 3.5q5 2 8 5t7 6q7 7 11 15q5 7 8 18q2 5 2 9.5v9.5q0 13 -5 28q-7 15 -16 23q-9 9 -23 16q-15 5 -29 5q-13 0 -28 -5q-13 -6 -22 -16q-9 -8 -16 -23q-6 -14 -6 -28
q0 -5 0.5 -9.5t1.5 -9.5q2 -5 4 -9t4 -9t5 -8l7 -7q6 -7 14 -11q4 -2 8 -3.5t9 -3.5q9 -3 19 -3zM3645 251q4 3 9 3h17v-182h-20v151q0 -1 -1 -1q0 -2 -1 -3v-3q0 -1 -1 -2q-5 -11 -9 -20.5t-8 -19.5q-5 -10 -9 -18.5t-7 -17.5q-4 -9 -8 -17.5t-7 -16.5q-4 -8 -7.5 -16
t-7.5 -16h-21q-8 17 -15.5 35t-15.5 35l-16 36l-16 36q-1 1 -1 4q-1 2 -1 4v-150h-20v182h16q4 0 9 -3q6 -3 6 -8l63 -141q0 -3 1 -4t1 -4q0 3 2 11q2 2 2.5 4.5t2.5 5.5l57 128q1 5 6 8zM524 0h210v-23q0 -10 -1 -14q-3 -8 -6 -12l-141 -189l4 2l4 2q1 0 1.5 0.5t2.5 0.5
h135v-50h-217v16q0 5 2 13t4 13q2 3 3 5.5t3 5.5q5 5 8 11l125 169h-137v50zM769 0h182v-50h-130v-65h105v-50h-105v-68h130v-50h-182v283zM1179 -50h-83v-233h-52v233h-83v50h218v-50zM1307 0l123 -283h-32q-11 0 -20 6q-7 5 -14 15l-16 39h-129l-17 -39q-2 -5 -5 -8
q-2 -3 -8 -7t-10 -4q-3 -2 -10 -2h-33l124 283h47zM1325 -172l-37 86q-2 3 -2.5 6t-1.5 5q0 6 -1 8q0 -5 -1 -8q0 -2 -1 -5l-2 -6l-37 -86h83zM1442 0h181v-50h-130v-71h109v-50h-109v-112h-51v283zM1910 -69q5 -8 8.5 -16.5t5.5 -18.5q3 -8 4 -18t1 -20t-1 -19.5t-4 -18.5
q-4 -17 -14 -35q-9 -15 -23 -29q-6 -6 -13.5 -11.5t-15.5 -10.5t-16.5 -8.5t-17.5 -6.5q-10 -2 -19 -3.5t-20 -1.5q-29 0 -56 11q-27 12 -46 31q-10 11 -18 22t-13 24q-11 25 -11 56q0 10 1 20t3 18q5 17 15 35q5 8 10.5 15t12.5 15q14 12 29 22q17 9 34 15q17 4 39 4t39 -4
q17 -6 34 -15q8 -5 15.5 -10.5t13.5 -11.5q7 -8 12.5 -15t10.5 -15zM1871 -178q3 9 5 18t2 18q0 17 -7 36q-4 9 -9 16t-11 14q-15 14 -30 19q-18 8 -36 8t-36 -8q-16 -6 -29 -19q-12 -12 -21 -30q-7 -19 -7 -36q0 -9 2 -18t5 -18q5 -8 9.5 -15.5t11.5 -13.5q12 -13 29 -20
q15 -7 36 -7t36 7t30 20q12 12 20 29zM2166 0h52v-283h-48l-135 189q-3 2 -4 7q-2 2 -3 3.5t-2 3.5t-2 3.5t-2 3.5l-3 6v-216h-52v283h46q10 0 16 -3q8 -3 11 -9q15 -20 30 -41t29 -42l30 -42t29 -41q4 -6 6 -12q2 -8 2 -9v199zM2242 0h218v-50h-83v-233h-52v233h-83v50z
M2639 -145q8 -8 13 -23q5 -13 5 -28q0 -18 -8 -36q-9 -17 -22 -29q-15 -12 -33 -18q-9 -3 -18.5 -5t-18.5 -2q-11 0 -20.5 2t-19.5 5q-9 5 -16.5 9.5t-15.5 11.5q-5 5 -8 9t-6 9t-4.5 8.5t-3.5 7.5q2 1 3.5 2t3.5 2t3.5 2t3.5 2q6 2 8 3q2 0 4.5 0.5t4.5 0.5q6 0 12 -3
q8 -2 13 -4q9 -7 17 -10q8 -5 21 -5q3 0 7 0.5t9 1.5q4 2 8 3.5t7 3.5q9 6 12 13q6 7 6 17q0 7 -5 14q-4 5 -12 10q-6 4 -16 7q-5 2 -9 4t-9 4q-13 4 -29 11q-8 3 -14 7t-12 9q-12 10 -17 22q-7 13 -7 32q0 10 2 18t5 16q5 7 9.5 12.5t10.5 10.5q13 10 29 16q13 4 32 4
q13 0 24 -4q6 -2 11.5 -4.5t10.5 -5.5t9.5 -7t9.5 -8q10 -8 15 -16l-10 -8q-7 -5 -14 -8q-5 -2 -8 -2h-7h-3h-4q-6 2 -10 4q-6 2 -8 4q-2 0 -4 1t-4 1q-6 2 -8 2q-4 0 -7 -0.5t-7 -1.5q-5 -1 -11 -5q-6 -3 -9 -8q-2 -3 -2 -11t2 -11t4.5 -5t4.5 -4q6 -4 16 -7q5 -2 11 -4
t13 -4l9 -3q18 -6 29 -14q14 -9 22 -18zM2726 -233q5 -5 6 -10q3 -5 3 -12q0 -8 -3 -12q-1 -5 -6 -10q-4 -4 -10 -6q-6 -3 -13 -3t-11 3q-7 2 -11 6t-7 10q-2 6 -2 12t2 12q3 6 7 10t11 6q4 3 11 3t13 -3q6 -2 10 -6zM2833 -76q-13 -13 -20 -30q-8 -18 -8 -36q0 -17 8 -36
q4 -8 8.5 -15.5t11.5 -13.5t14 -11t16 -9q15 -7 35 -7q8 0 15 1t13 3q14 5 25 13q6 2 9 4q3 1 10 1q10 0 16 -3q8 -4 12 -8l11 -11q-12 -14 -23 -22q-7 -5 -13.5 -8.5t-13.5 -7.5q-13 -7 -30 -10q-12 -4 -31 -4q-28 0 -56 11q-27 12 -46 31q-19 20 -31 46q-11 28 -11 56
q0 20 5 38q2 10 5.5 18.5t8.5 16.5q10 15 23 30q7 6 14 11.5t16 10.5q16 9 34 15q17 4 38 4q8 0 16 -0.5t15 -2.5q8 -2 15 -4.5t15 -5.5q7 -4 13.5 -8t13.5 -9q13 -10 23 -21l-11 -12q-4 -4 -12 -8q-8 -3 -16 -3q-10 0 -19 6q-13 8 -25 12q-13 5 -28 5q-17 0 -35 -8
q-9 -3 -16 -8t-14 -11zM3298 -69q5 -8 8.5 -16.5t5.5 -18.5q3 -8 4 -18t1 -20t-1 -19.5t-4 -18.5q-4 -17 -14 -35q-9 -15 -23 -29q-7 -6 -14 -11.5t-16 -10.5q-8 -5 -16 -8.5t-18 -6.5q-20 -5 -38 -5q-29 0 -57 11q-13 6 -24.5 13.5t-20.5 17.5q-10 11 -18 22t-13 24
q-12 27 -12 56q0 20 5 38q5 17 15 35q5 8 10.5 15t12.5 15q6 6 13.5 11.5t15.5 10.5q17 9 34 15q17 4 39 4t38 -4q18 -6 34 -15q9 -5 16 -10.5t14 -11.5q7 -8 12.5 -15t10.5 -15zM3259 -178q3 9 5 18t2 18q0 17 -7 36q-9 17 -20 30q-15 14 -30 19q-18 8 -36 8t-36 -8
q-15 -5 -30 -19q-6 -7 -11 -14t-9 -16q-7 -15 -7 -36q0 -19 7 -36t20 -29q15 -13 30 -20t36 -7t36 7t30 20q6 6 10.5 13.5t9.5 15.5zM3609 -2q6 2 10 2h52v-283h-52v207q-3 -5 -4 -14q-2 -4 -2.5 -7.5t-2.5 -6.5q-9 -23 -18 -45t-19 -44q-9 -23 -18 -45t-19 -45h-47l-74 179
q-2 3 -3 6t-2 8q-1 3 -2 6.5t-2 5.5v-205h-52v283h51q4 0 12 -2q6 -2 9 -4q5 -3 8 -8q2 -2 6 -8q8 -22 16.5 -43.5t17.5 -42.5q8 -22 17 -43t17 -43q2 -2 2 -5q0 -2 0.5 -3t0.5 -3q1 -2 1 -6v-3q0 2 1 3q0 4 1 6q0 4 1 6q0 2 0.5 3t0.5 2l10 20l59 152q1 4 6 9q2 3 8 7
q4 2 10 4z" />
    <glyph glyph-name="seven" unicode="7" horiz-adv-x="4097" 
d="M2952 600q9 -8 16 -23q6 -14 6 -30q0 -14 -6 -29q-7 -14 -16 -23q-10 -10 -24 -16t-29 -6q-16 0 -29 6q-14 6 -24 16q-5 5 -9 11t-7 12q-6 15 -6 29q0 16 6 30q6 13 16 23q9 10 24 17q13 6 29 6q15 0 29 -6q15 -7 24 -17zM1109 577q-4 -6 -7 -10q-6 -4 -10 -6t-12 -2h-44
v61h44q6 0 12 -3q5 -1 10 -6q3 -3 7 -9q2 -8 2 -13q0 -4 -2 -12zM1479 600q10 -10 16 -23q6 -14 6 -30q0 -14 -6 -29q-3 -6 -7 -12t-9 -11q-10 -10 -24 -16t-29 -6q-16 0 -29 6q-14 6 -24 16q-9 9 -16 23q-6 15 -6 29q0 16 6 30q7 15 16 23q9 10 24 17q13 6 29 6q15 0 29 -6
q15 -7 24 -17zM1855 616q0 -6 2 -12l37 -84h-78l36 84q1 2 1 2.5t1 2.5q0 2 0.5 3.5t0.5 3.5zM784 610q3 -3 7 -11q3 -8 3 -14q0 -8 -3 -14q-4 -8 -7 -11q-6 -6 -11 -7q-4 -2 -7 -3t-7 -1h-44v71h44q6 0 14 -3q5 -1 11 -7zM3671 1084v-766h-3147v766h1193q0 80 30 151
q16 35 36.5 65t46.5 56q54 52 121 80q70 30 146 30q85 0 152 -32q70 -31 121 -84q26 -26 45.5 -56.5t34.5 -65.5q29 -70 29 -144h1192zM1774 1216q-26 -64 -26 -133q0 -71 27 -134q26 -62 74 -113q46 -47 111 -76q61 -29 137 -29q74 0 136 28q32 14 60 33t52 42t43 51t33 60
q27 64 27 138q0 67 -20 120q-19 53 -56 99q-35 42 -82 74q-24 14 -49.5 25.5t-51.5 19.5q-39 13 -92 13q-73 0 -139 -29q-64 -29 -111 -76q-45 -47 -73 -113zM817 561q5 12 5 24t-5 25q-4 9 -14 19q-8 9 -20 14q-10 5 -24 5h-71v-200h27v74h44q11 0 24 5q11 4 20 13
q10 10 14 21zM966 648h-124v-200h124v27h-96v60h78v28h-78v57h96v28zM1161 448l-63 86q10 3 16 8q9 6 13 13q5 5 9 16q2 5 2 9v9q0 14 -4 23q-2 5 -5.5 9.5t-7.5 9.5q-8 7 -18 12q-9 5 -23 5h-72v-200h28v83h30l52 -71q3 -5 10 -9q4 -3 15 -3h18zM1296 482q5 13 5 25
q0 27 -21 44q-6 4 -9 5q-2 2 -4.5 2.5t-4.5 2.5q-2 1 -5 1.5t-5 2.5q-2 0 -5 1t-5 2q-5 2 -9 3.5t-8 3.5q-9 3 -11 5q-5 5 -6 8q-2 3 -2 10t2 10q4 6 7 8q3 1 11 5q3 1 5.5 1.5t6.5 0.5q2 0 5 -1t5 -2q3 -1 6 -2.5t5 -3.5q6 -3 12 -3q9 0 14 5l7 5l-4.5 4.5l-5.5 5.5
q-3 2 -6 4.5t-7 4.5q-5 4 -15 7q-8 3 -16 3q-12 0 -22 -3q-6 -2 -10.5 -4.5t-9.5 -5.5q-8 -8 -13 -17q-5 -10 -5 -22q0 -15 5 -22q4 -9 12 -15q9 -7 18 -11q5 -2 10 -4.5t10 -4.5q3 -2 6.5 -2.5t7.5 -2.5q10 -4 13 -6q6 -4 10 -10q3 -5 3 -13q0 -9 -4 -14q-2 -6 -9 -11
q-3 -2 -6.5 -3.5t-6.5 -3.5q-5 -1 -8 -1.5t-7 -0.5q-6 0 -14 2q-9 3 -12 8l-3 1q-6 7 -15 7q-6 0 -11 -4l-7 -3q1 -1 1 -2t2 -2q0 -2 1 -3t2 -3t5 -6q3 -5 6 -6q17 -16 45 -16q15 0 27 4q13 5 21 13q10 8 16 19zM1525 520q3 15 3 27q0 14 -3 28q-2 7 -4.5 13t-6.5 12
q-3 5 -7 10l-8 10q-10 8 -22 16q-5 4 -11 6.5t-13 4.5q-14 3 -27 3q-15 0 -27 -3q-7 -2 -13 -4.5t-12 -6.5q-5 -4 -10 -7.5t-10 -8.5q-9 -8 -16 -20q-4 -6 -6.5 -12t-4.5 -13t-3 -13.5t-1 -14.5q0 -21 9 -39q4 -10 9.5 -17.5t12.5 -15.5q13 -13 32 -21q17 -8 40 -8
q8 0 14 0.5t13 2.5t13 4.5t11 6.5q11 5 22 15q4 5 8 10.5t7 10.5q4 6 6.5 12t4.5 12zM1735 648h-28v-156q0 5 -1 8t-3 6l-97 134q-3 4 -8 6q-8 2 -12 2h-20v-200h28v168v-4l2 -4q0 -2 2 -4l114 -156h23v200zM1956 448l-87 200h-27l-88 -200h16q6 0 12 3l4 4t4 5l14 32h102
l14 -32q3 -7 8 -9q3 -3 12 -3h16zM2090 475h-87v173h-27v-200h114v27zM2365 648h-28v-122q0 -12 -4 -21q-2 -5 -4.5 -9t-7.5 -7q-3 -5 -7 -7.5t-9 -4.5q-9 -4 -21 -4t-20 4q-5 2 -9.5 4.5t-7.5 7.5q-7 5 -12 16q-2 5 -3 10t-1 11v122h-27v-122v-11.5t2 -10.5t4 -9.5t4 -9.5
q3 -5 6 -9t8 -7q5 -6 15 -13q11 -5 20 -8q10 -3 21 -3t22 3q5 2 9.5 4t9.5 4q9 6 16 13q4 3 7 7t6 9q2 5 4 9.5t4 9.5q3 10 3 22v122zM2519 482q5 10 5 25q0 29 -21 44q-2 2 -4 3l-4 2l-10 5q-6 2 -10 4q-2 0 -4.5 1t-5.5 2q-5 2 -8.5 3.5t-7.5 3.5t-6.5 2.5t-4.5 2.5
q-6 4 -7 8q-2 6 -2 10q0 5 3 10q4 6 7 8q2 1 4.5 2t5.5 3q8 2 13 2q2 0 4.5 -1t5.5 -2l5 -2.5t6 -3.5q6 -3 12 -3q8 0 13 5l8 5l-10 10q-3 2 -6 4.5t-7 4.5q-3 2 -7 3.5t-8 3.5q-9 3 -16 3q-13 0 -23 -3q-5 -2 -9.5 -4.5t-9.5 -5.5q-4 -4 -7.5 -8t-5.5 -9q-6 -9 -6 -22
q0 -12 5 -22t13 -15q8 -7 17 -11l21 -9q4 -2 7 -2.5t7 -2.5q3 -2 6.5 -3t6.5 -3q6 -5 9 -10q4 -4 4 -13t-4 -14q-2 -5 -10 -11q-5 -4 -13 -7q-10 -2 -14 -2q-7 0 -15 2q-9 3 -12 8l-2 1q-6 7 -16 7q-6 0 -10 -4l-8 -3q1 -1 1.5 -2t1.5 -2l3 -6q4 -4 5 -6q3 -5 7 -6
q17 -16 45 -16q14 0 26 4q12 5 22 13q8 7 15 19zM2683 648h-124v-200h124v27h-97v60h78v28h-78v57h97v28zM2998 520q3 15 3 27q0 14 -3 28q-2 7 -4.5 13t-6.5 12q-7 12 -16 20q-5 5 -10 8.5t-10 7.5q-6 4 -12 6.5t-13 4.5q-12 3 -27 3q-14 0 -27 -3q-7 -2 -13 -4.5t-12 -6.5
q-5 -4 -10.5 -7.5t-10.5 -8.5t-8.5 -10t-7.5 -10q-5 -10 -10 -25q-3 -14 -3 -28q0 -10 1.5 -20t6.5 -19q4 -10 9 -17.5t12 -15.5q15 -14 33 -21q16 -8 40 -8q7 0 14 0.5t13 2.5q7 2 13 4.5t12 6.5q12 7 20 15q5 5 9 10.5t7 10.5q4 6 6.5 12t4.5 12zM3208 648h-28v-156
q-2 9 -5 14l-97 134q-3 5 -8 6q-6 2 -12 2h-20v-200h28v168l2 -4q0 -3 1 -4q0 -2 2 -4l114 -156h23v200zM3371 475h-87v173h-27v-200h114v27zM3530 648h-19q-10 0 -14 -3q-7 -3 -10 -10l-48 -64q1 0 -2 -3q0 -1 -1 -2v-1v3q0 3 -2 3l-47 64q-6 8 -10 10q-8 3 -15 3h-19
l72 -97q1 -1 1.5 -2t1.5 -2q2 -4 3 -5q0 -1 0.5 -2t0.5 -2v-6v-84h28v84q0 2 0.5 3t0.5 3q1 1 1 2t1 2t1 2t2 3q0 1 3 4zM1983 789q-53 21 -97 58h423q-43 -37 -97 -58q-51 -22 -115 -22q-63 0 -114 22zM1922 881l411 415q79 -103 79 -213q0 -57 -18 -108q-17 -49 -53 -94
h-419zM1861 871q-19 22 -33.5 46t-24.5 51q-11 26 -15.5 55t-4.5 60q0 57 18 108q8 26 21.5 48.5t30.5 44.5h419zM2212 1378q55 -23 95 -60h-422q22 20 46.5 34.5t50.5 25.5q27 11 55.5 16t59.5 5q62 0 115 -21zM530 116q-6 8 -10 22q-2 6 -3 12t-1 13q0 6 1 12t3 12
q3 14 10 23q7 12 14 19t19 14q5 3 10.5 5.5t11.5 4.5q12 3 25 3q10 0 19 -2t18 -5q8 -5 15.5 -9.5t13.5 -11.5l-4 -4q0 -1 -1 -1q-1 -1 -2 -1q-2 -2 -4 -2h-5q-6 0 -9 2q-5 3 -9.5 5.5t-9.5 4.5q-11 3 -22 3q-15 0 -28 -5q-15 -7 -23 -16q-9 -8 -16 -23q-6 -14 -6 -28
q0 -10 3 -19t7 -18q3 -5 6 -8t6 -7q4 -3 7.5 -6t7.5 -5q5 -2 9 -3.5t9 -3.5q9 -3 19 -3q12 0 24 3q6 2 11.5 4.5t10.5 5.5v38h-14q-2 0 -3.5 0.5t-3.5 0.5q-2 2 -6 4q-1 2 -2 3t-1 3q-2 4 -2 7v2h51v-71q-5 -7 -14 -11q-8 -4 -15 -5q-5 -2 -9 -2.5t-9 -1.5h-19q-13 0 -25 3
q-11 3 -22 9q-12 7 -19 15q-7 7 -14 19zM742 233v-59h72v-20h-72v-62h90v-20h-111v182h111v-21h-90zM912 72v161h-58v21h137v-21h-58v-161h-21zM1126 233v-63h76v-20h-76v-78h-21v182h111v-21h-90zM1271 254v-112q0 -12 4 -20q2 -5 5 -9l6 -8l8 -6t9 -5q9 -4 20 -4
q12 0 20 4q5 2 9 5l8 6q6 6 11 17q5 10 5 20v112h20v-112q0 -16 -6 -28q-3 -7 -6.5 -12.5t-8.5 -10.5q-9 -9 -23 -16q-15 -5 -29 -5q-13 0 -28 5q-15 7 -23 16q-9 8 -16 23q-3 6 -4 13t-1 15v112h20zM1455 254v-162h81v-20h-102v182h21zM1579 254v-162h81v-20h-101v182h20z
M1826 72l-79 182h11q4 0 10 -3l3.5 -3.5t2.5 -4.5l60 -136q0 -2 0.5 -3t0.5 -3q1 -3 1 -6v6q2 4 2 6q8 17 15 34t15 34t15 34t15 34q2 4 6 8q6 3 10 3h11q-10 -23 -20 -45.5t-20 -45.5t-19.5 -45.5t-19.5 -45.5h-20zM1961 233v-59h73v-20h-73v-62h90v-20h-111v182h111v-21
h-90zM2187 157q-8 -5 -16 -6l59 -79h-12q-9 0 -12 2q-6 3 -9 8l-51 68h-31v-78h-21v182h65q12 0 20 -4q9 -4 17 -11q7 -8 11 -17q4 -8 4 -20q0 -9 -3 -18q-4 -9 -8 -15q-3 -4 -6 -6.5t-7 -5.5zM2159 170q6 0 12 3q3 1 5.5 2.5t4.5 3.5q4 4 7 10l2 6t1 7q0 3 -1 6l-2 6
q-3 6 -7 10t-10 7q-8 2 -12 2h-44v-63h44zM2326 98q6 4 9 11q4 5 4 14t-3 15t-9 9q-4 4 -12 7q-4 1 -14 5q-5 2 -9.5 4t-9.5 4q-11 3 -16 9q-6 4 -11 13q-3 7 -3 20q0 11 5 19q3 9 12 15q4 3 8 5.5t9 4.5q9 3 19 3q5 0 15 -2q5 -2 13 -6q3 -2 5.5 -4t4.5 -4q3 -2 5 -4l4 -4
l-5 -4q-4 -4 -10 -4q-4 0 -10 2q-2 2 -3 2.5t-2 1.5q-2 1 -2.5 1.5t-2.5 1.5q-2 0 -3 0.5t-3 0.5q-2 1 -6 1q-5 0 -13 -2q-4 -1 -10 -5q-6 -6 -7 -9q-3 -5 -3 -10q0 -8 2 -11q1 -4 6 -7q6 -4 11 -6q4 -2 8 -3t9 -3q3 -2 9 -4t9 -4q6 -2 9 -4q2 -1 3.5 -2t3.5 -2q8 -8 14 -17
q2 -5 3 -10.5t1 -12.5q0 -10 -5 -22q-4 -8 -13 -17q-8 -7 -20 -10q-9 -4 -23 -4q-26 0 -40 14q-3 2 -5.5 5t-4.5 5q-4 6 -4 8l4 2q2 2 4 2q1 1 4 1q8 0 13 -5q6 -7 14 -9q7 -3 15 -3q4 0 7 0.5t7 1.5q7 1 13 6zM2421 254v-182h-21v182h21zM2491 97q-13 12 -20 29
q-8 19 -8 37q0 6 1 12t3 12q3 13 9 23q4 5 7 9.5t8 9.5q5 4 9.5 7.5t9.5 6.5q11 7 22 10q12 3 25 3t25 -3q6 -2 11.5 -4.5t10.5 -5.5t9.5 -6.5t9.5 -7.5q5 -5 8 -9.5t6 -9.5t5.5 -11t4.5 -12q3 -12 3 -24q0 -20 -7 -37q-8 -17 -20 -29q-14 -14 -30 -20q-15 -7 -36 -7
q-20 0 -37 7q-17 6 -29 20zM2490 191q-6 -14 -6 -28q0 -10 3 -19t7 -18q2 -5 5 -8t6 -7q4 -3 7.5 -6t7.5 -5q5 -2 9 -3.5t9 -3.5q7 -3 19 -3q10 0 19 3q5 2 9 3.5t9 3.5q7 4 14 11t11 15q5 7 8 18q2 5 2 9.5v9.5q0 14 -6 28q-5 14 -15 23q-8 9 -23 16q-13 5 -28 5
q-8 0 -14.5 -1.5t-14.5 -3.5q-14 -7 -23 -16t-15 -23zM2704 72h-20v182h14q12 0 16 -7l94 -132q2 -2 2 -3t1 -3t1 -5v150h21v-182h-19l-107 150l-1 2q-1 1 -1 3t-1 3v-158zM2986 233v-63h76v-20h-76v-78h-20v182h111v-21h-91zM3204 169q-2 -4 -5 -6.5t-7 -5.5q-8 -5 -16 -6
l59 -79h-12q-9 0 -13 2q-5 3 -8 8l-50 68h-33v-78h-20v182h64q12 0 21 -4t16 -11t12 -17q2 -5 3 -10t1 -10q0 -9 -3 -18q-4 -10 -9 -15zM3176 173q3 1 5.5 2.5t4.5 3.5q5 5 6 10q3 6 3 13q0 6 -3 12q-1 5 -6 10q-4 4 -10 7q-8 2 -13 2h-44v-63h44q7 0 13 3zM3413 97
q-14 -14 -30 -20q-15 -7 -37 -7q-9 0 -18.5 1.5t-17.5 5.5q-17 6 -29 20q-7 6 -11.5 13.5t-8.5 15.5q-8 19 -8 37q0 6 1 12t3 12q3 14 10 23q4 9 14 19q7 7 19 14q5 3 10.5 5.5t11.5 4.5q12 3 24 3q14 0 26 -3q6 -2 11 -4.5t10 -5.5q6 -3 10.5 -6.5t9.5 -7.5q5 -5 8 -9.5
t6 -9.5q6 -10 9 -23q4 -11 4 -24q0 -21 -8 -37q-6 -16 -19 -29zM3346 90q11 0 20 3q5 2 9 3.5t8 3.5q5 2 8 5t7 6q7 7 11 15q5 7 8 18q2 5 2 9.5v9.5q0 13 -5 28q-7 15 -16 23q-9 9 -23 16q-15 5 -29 5q-13 0 -28 -5q-13 -6 -22 -16q-9 -8 -16 -23q-6 -14 -6 -28
q0 -5 0.5 -9.5t1.5 -9.5q2 -5 4 -9t4 -9t5 -8l7 -7q6 -7 14 -11q4 -2 8 -3.5t9 -3.5q9 -3 19 -3zM3645 251q4 3 9 3h17v-182h-20v151q0 -1 -1 -1q0 -2 -1 -3v-3q0 -1 -1 -2q-5 -11 -9 -20.5t-8 -19.5q-5 -10 -9 -18.5t-7 -17.5q-4 -9 -8 -17.5t-7 -16.5q-4 -8 -7.5 -16
t-7.5 -16h-21q-8 17 -15.5 35t-15.5 35l-16 36l-16 36q-1 1 -1 4q-1 2 -1 4v-150h-20v182h16q4 0 9 -3q6 -3 6 -8l63 -141q0 -3 1 -4t1 -4q0 3 2 11q2 2 2.5 4.5t2.5 5.5l57 128q1 5 6 8zM524 0h210v-23q0 -10 -1 -14q-3 -8 -6 -12l-141 -189l4 2l4 2q1 0 1.5 0.5t2.5 0.5
h135v-50h-217v16q0 5 2 13t4 13q2 3 3 5.5t3 5.5q5 5 8 11l125 169h-137v50zM769 0h182v-50h-130v-65h105v-50h-105v-68h130v-50h-182v283zM1179 -50h-83v-233h-52v233h-83v50h218v-50zM1307 0l123 -283h-32q-11 0 -20 6q-7 5 -14 15l-16 39h-129l-17 -39q-2 -5 -5 -8
q-2 -3 -8 -7t-10 -4q-3 -2 -10 -2h-33l124 283h47zM1325 -172l-37 86q-2 3 -2.5 6t-1.5 5q0 6 -1 8q0 -5 -1 -8q0 -2 -1 -5l-2 -6l-37 -86h83zM1442 0h181v-50h-130v-71h109v-50h-109v-112h-51v283zM1910 -69q5 -8 8.5 -16.5t5.5 -18.5q3 -8 4 -18t1 -20t-1 -19.5t-4 -18.5
q-4 -17 -14 -35q-9 -15 -23 -29q-6 -6 -13.5 -11.5t-15.5 -10.5t-16.5 -8.5t-17.5 -6.5q-10 -2 -19 -3.5t-20 -1.5q-29 0 -56 11q-27 12 -46 31q-10 11 -18 22t-13 24q-11 25 -11 56q0 10 1 20t3 18q5 17 15 35q5 8 10.5 15t12.5 15q14 12 29 22q17 9 34 15q17 4 39 4t39 -4
q17 -6 34 -15q8 -5 15.5 -10.5t13.5 -11.5q7 -8 12.5 -15t10.5 -15zM1871 -178q3 9 5 18t2 18q0 17 -7 36q-4 9 -9 16t-11 14q-15 14 -30 19q-18 8 -36 8t-36 -8q-16 -6 -29 -19q-12 -12 -21 -30q-7 -19 -7 -36q0 -9 2 -18t5 -18q5 -8 9.5 -15.5t11.5 -13.5q12 -13 29 -20
q15 -7 36 -7t36 7t30 20q12 12 20 29zM2166 0h52v-283h-48l-135 189q-3 2 -4 7q-2 2 -3 3.5t-2 3.5t-2 3.5t-2 3.5l-3 6v-216h-52v283h46q10 0 16 -3q8 -3 11 -9q15 -20 30 -41t29 -42l30 -42t29 -41q4 -6 6 -12q2 -8 2 -9v199zM2242 0h218v-50h-83v-233h-52v233h-83v50z
M2639 -145q8 -8 13 -23q5 -13 5 -28q0 -18 -8 -36q-9 -17 -22 -29q-15 -12 -33 -18q-9 -3 -18.5 -5t-18.5 -2q-11 0 -20.5 2t-19.5 5q-9 5 -16.5 9.5t-15.5 11.5q-5 5 -8 9t-6 9t-4.5 8.5t-3.5 7.5q2 1 3.5 2t3.5 2t3.5 2t3.5 2q6 2 8 3q2 0 4.5 0.5t4.5 0.5q6 0 12 -3
q8 -2 13 -4q9 -7 17 -10q8 -5 21 -5q3 0 7 0.5t9 1.5q4 2 8 3.5t7 3.5q9 6 12 13q6 7 6 17q0 7 -5 14q-4 5 -12 10q-6 4 -16 7q-5 2 -9 4t-9 4q-13 4 -29 11q-8 3 -14 7t-12 9q-12 10 -17 22q-7 13 -7 32q0 10 2 18t5 16q5 7 9.5 12.5t10.5 10.5q13 10 29 16q13 4 32 4
q13 0 24 -4q6 -2 11.5 -4.5t10.5 -5.5t9.5 -7t9.5 -8q10 -8 15 -16l-10 -8q-7 -5 -14 -8q-5 -2 -8 -2h-7h-3h-4q-6 2 -10 4q-6 2 -8 4q-2 0 -4 1t-4 1q-6 2 -8 2q-4 0 -7 -0.5t-7 -1.5q-5 -1 -11 -5q-6 -3 -9 -8q-2 -3 -2 -11t2 -11t4.5 -5t4.5 -4q6 -4 16 -7q5 -2 11 -4
t13 -4l9 -3q18 -6 29 -14q14 -9 22 -18zM2726 -233q5 -5 6 -10q3 -5 3 -12q0 -8 -3 -12q-1 -5 -6 -10q-4 -4 -10 -6q-6 -3 -13 -3t-11 3q-7 2 -11 6t-7 10q-2 6 -2 12t2 12q3 6 7 10t11 6q4 3 11 3t13 -3q6 -2 10 -6zM2833 -76q-13 -13 -20 -30q-8 -18 -8 -36q0 -17 8 -36
q4 -8 8.5 -15.5t11.5 -13.5t14 -11t16 -9q15 -7 35 -7q8 0 15 1t13 3q14 5 25 13q6 2 9 4q3 1 10 1q10 0 16 -3q8 -4 12 -8l11 -11q-12 -14 -23 -22q-7 -5 -13.5 -8.5t-13.5 -7.5q-13 -7 -30 -10q-12 -4 -31 -4q-28 0 -56 11q-27 12 -46 31q-19 20 -31 46q-11 28 -11 56
q0 20 5 38q2 10 5.5 18.5t8.5 16.5q10 15 23 30q7 6 14 11.5t16 10.5q16 9 34 15q17 4 38 4q8 0 16 -0.5t15 -2.5q8 -2 15 -4.5t15 -5.5q7 -4 13.5 -8t13.5 -9q13 -10 23 -21l-11 -12q-4 -4 -12 -8q-8 -3 -16 -3q-10 0 -19 6q-13 8 -25 12q-13 5 -28 5q-17 0 -35 -8
q-9 -3 -16 -8t-14 -11zM3298 -69q5 -8 8.5 -16.5t5.5 -18.5q3 -8 4 -18t1 -20t-1 -19.5t-4 -18.5q-4 -17 -14 -35q-9 -15 -23 -29q-7 -6 -14 -11.5t-16 -10.5q-8 -5 -16 -8.5t-18 -6.5q-20 -5 -38 -5q-29 0 -57 11q-13 6 -24.5 13.5t-20.5 17.5q-10 11 -18 22t-13 24
q-12 27 -12 56q0 20 5 38q5 17 15 35q5 8 10.5 15t12.5 15q6 6 13.5 11.5t15.5 10.5q17 9 34 15q17 4 39 4t38 -4q18 -6 34 -15q9 -5 16 -10.5t14 -11.5q7 -8 12.5 -15t10.5 -15zM3259 -178q3 9 5 18t2 18q0 17 -7 36q-9 17 -20 30q-15 14 -30 19q-18 8 -36 8t-36 -8
q-15 -5 -30 -19q-6 -7 -11 -14t-9 -16q-7 -15 -7 -36q0 -19 7 -36t20 -29q15 -13 30 -20t36 -7t36 7t30 20q6 6 10.5 13.5t9.5 15.5zM3609 -2q6 2 10 2h52v-283h-52v207q-3 -5 -4 -14q-2 -4 -2.5 -7.5t-2.5 -6.5q-9 -23 -18 -45t-19 -44q-9 -23 -18 -45t-19 -45h-47l-74 179
q-2 3 -3 6t-2 8q-1 3 -2 6.5t-2 5.5v-205h-52v283h51q4 0 12 -2q6 -2 9 -4q5 -3 8 -8q2 -2 6 -8q8 -22 16.5 -43.5t17.5 -42.5q8 -22 17 -43t17 -43q2 -2 2 -5q0 -2 0.5 -3t0.5 -3q1 -2 1 -6v-3q0 2 1 3q0 4 1 6q0 4 1 6q0 2 0.5 3t0.5 2l10 20l59 152q1 4 6 9q2 3 8 7
q4 2 10 4z" />
    <glyph glyph-name="eight" unicode="8" horiz-adv-x="4097" 
d="M2952 600q9 -8 16 -23q6 -14 6 -30q0 -14 -6 -29q-7 -14 -16 -23q-10 -10 -24 -16t-29 -6q-16 0 -29 6q-14 6 -24 16q-5 5 -9 11t-7 12q-6 15 -6 29q0 16 6 30q6 13 16 23q9 10 24 17q13 6 29 6q15 0 29 -6q15 -7 24 -17zM1109 577q-4 -6 -7 -10q-6 -4 -10 -6t-12 -2h-44
v61h44q6 0 12 -3q5 -1 10 -6q3 -3 7 -9q2 -8 2 -13q0 -4 -2 -12zM1479 600q10 -10 16 -23q6 -14 6 -30q0 -14 -6 -29q-3 -6 -7 -12t-9 -11q-10 -10 -24 -16t-29 -6q-16 0 -29 6q-14 6 -24 16q-9 9 -16 23q-6 15 -6 29q0 16 6 30q7 15 16 23q9 10 24 17q13 6 29 6q15 0 29 -6
q15 -7 24 -17zM1855 616q0 -6 2 -12l37 -84h-78l36 84q1 2 1 2.5t1 2.5q0 2 0.5 3.5t0.5 3.5zM784 610q3 -3 7 -11q3 -8 3 -14q0 -8 -3 -14q-4 -8 -7 -11q-6 -6 -11 -7q-4 -2 -7 -3t-7 -1h-44v71h44q6 0 14 -3q5 -1 11 -7zM3671 1084v-766h-3147v766h1193q0 80 30 151
q16 35 36.5 65t46.5 56q54 52 121 80q70 30 146 30q85 0 152 -32q70 -31 121 -84q26 -26 45.5 -56.5t34.5 -65.5q29 -70 29 -144h1192zM1774 1216q-26 -64 -26 -133q0 -71 27 -134q26 -62 74 -113q46 -47 111 -76q61 -29 137 -29q74 0 136 28q32 14 60 33t52 42t43 51t33 60
q27 64 27 138q0 67 -20 120q-19 53 -56 99q-35 42 -82 74q-24 14 -49.5 25.5t-51.5 19.5q-39 13 -92 13q-73 0 -139 -29q-64 -29 -111 -76q-45 -47 -73 -113zM817 561q5 12 5 24t-5 25q-4 9 -14 19q-8 9 -20 14q-10 5 -24 5h-71v-200h27v74h44q11 0 24 5q11 4 20 13
q10 10 14 21zM966 648h-124v-200h124v27h-96v60h78v28h-78v57h96v28zM1161 448l-63 86q10 3 16 8q9 6 13 13q5 5 9 16q2 5 2 9v9q0 14 -4 23q-2 5 -5.5 9.5t-7.5 9.5q-8 7 -18 12q-9 5 -23 5h-72v-200h28v83h30l52 -71q3 -5 10 -9q4 -3 15 -3h18zM1296 482q5 13 5 25
q0 27 -21 44q-6 4 -9 5q-2 2 -4.5 2.5t-4.5 2.5q-2 1 -5 1.5t-5 2.5q-2 0 -5 1t-5 2q-5 2 -9 3.5t-8 3.5q-9 3 -11 5q-5 5 -6 8q-2 3 -2 10t2 10q4 6 7 8q3 1 11 5q3 1 5.5 1.5t6.5 0.5q2 0 5 -1t5 -2q3 -1 6 -2.5t5 -3.5q6 -3 12 -3q9 0 14 5l7 5l-4.5 4.5l-5.5 5.5
q-3 2 -6 4.5t-7 4.5q-5 4 -15 7q-8 3 -16 3q-12 0 -22 -3q-6 -2 -10.5 -4.5t-9.5 -5.5q-8 -8 -13 -17q-5 -10 -5 -22q0 -15 5 -22q4 -9 12 -15q9 -7 18 -11q5 -2 10 -4.5t10 -4.5q3 -2 6.5 -2.5t7.5 -2.5q10 -4 13 -6q6 -4 10 -10q3 -5 3 -13q0 -9 -4 -14q-2 -6 -9 -11
q-3 -2 -6.5 -3.5t-6.5 -3.5q-5 -1 -8 -1.5t-7 -0.5q-6 0 -14 2q-9 3 -12 8l-3 1q-6 7 -15 7q-6 0 -11 -4l-7 -3q1 -1 1 -2t2 -2q0 -2 1 -3t2 -3t5 -6q3 -5 6 -6q17 -16 45 -16q15 0 27 4q13 5 21 13q10 8 16 19zM1525 520q3 15 3 27q0 14 -3 28q-2 7 -4.5 13t-6.5 12
q-3 5 -7 10l-8 10q-10 8 -22 16q-5 4 -11 6.5t-13 4.5q-14 3 -27 3q-15 0 -27 -3q-7 -2 -13 -4.5t-12 -6.5q-5 -4 -10 -7.5t-10 -8.5q-9 -8 -16 -20q-4 -6 -6.5 -12t-4.5 -13t-3 -13.5t-1 -14.5q0 -21 9 -39q4 -10 9.5 -17.5t12.5 -15.5q13 -13 32 -21q17 -8 40 -8
q8 0 14 0.5t13 2.5t13 4.5t11 6.5q11 5 22 15q4 5 8 10.5t7 10.5q4 6 6.5 12t4.5 12zM1735 648h-28v-156q0 5 -1 8t-3 6l-97 134q-3 4 -8 6q-8 2 -12 2h-20v-200h28v168v-4l2 -4q0 -2 2 -4l114 -156h23v200zM1956 448l-87 200h-27l-88 -200h16q6 0 12 3l4 4t4 5l14 32h102
l14 -32q3 -7 8 -9q3 -3 12 -3h16zM2090 475h-87v173h-27v-200h114v27zM2365 648h-28v-122q0 -12 -4 -21q-2 -5 -4.5 -9t-7.5 -7q-3 -5 -7 -7.5t-9 -4.5q-9 -4 -21 -4t-20 4q-5 2 -9.5 4.5t-7.5 7.5q-7 5 -12 16q-2 5 -3 10t-1 11v122h-27v-122v-11.5t2 -10.5t4 -9.5t4 -9.5
q3 -5 6 -9t8 -7q5 -6 15 -13q11 -5 20 -8q10 -3 21 -3t22 3q5 2 9.5 4t9.5 4q9 6 16 13q4 3 7 7t6 9q2 5 4 9.5t4 9.5q3 10 3 22v122zM2519 482q5 10 5 25q0 29 -21 44q-2 2 -4 3l-4 2l-10 5q-6 2 -10 4q-2 0 -4.5 1t-5.5 2q-5 2 -8.5 3.5t-7.5 3.5t-6.5 2.5t-4.5 2.5
q-6 4 -7 8q-2 6 -2 10q0 5 3 10q4 6 7 8q2 1 4.5 2t5.5 3q8 2 13 2q2 0 4.5 -1t5.5 -2l5 -2.5t6 -3.5q6 -3 12 -3q8 0 13 5l8 5l-10 10q-3 2 -6 4.5t-7 4.5q-3 2 -7 3.5t-8 3.5q-9 3 -16 3q-13 0 -23 -3q-5 -2 -9.5 -4.5t-9.5 -5.5q-4 -4 -7.5 -8t-5.5 -9q-6 -9 -6 -22
q0 -12 5 -22t13 -15q8 -7 17 -11l21 -9q4 -2 7 -2.5t7 -2.5q3 -2 6.5 -3t6.5 -3q6 -5 9 -10q4 -4 4 -13t-4 -14q-2 -5 -10 -11q-5 -4 -13 -7q-10 -2 -14 -2q-7 0 -15 2q-9 3 -12 8l-2 1q-6 7 -16 7q-6 0 -10 -4l-8 -3q1 -1 1.5 -2t1.5 -2l3 -6q4 -4 5 -6q3 -5 7 -6
q17 -16 45 -16q14 0 26 4q12 5 22 13q8 7 15 19zM2683 648h-124v-200h124v27h-97v60h78v28h-78v57h97v28zM2998 520q3 15 3 27q0 14 -3 28q-2 7 -4.5 13t-6.5 12q-7 12 -16 20q-5 5 -10 8.5t-10 7.5q-6 4 -12 6.5t-13 4.5q-12 3 -27 3q-14 0 -27 -3q-7 -2 -13 -4.5t-12 -6.5
q-5 -4 -10.5 -7.5t-10.5 -8.5t-8.5 -10t-7.5 -10q-5 -10 -10 -25q-3 -14 -3 -28q0 -10 1.5 -20t6.5 -19q4 -10 9 -17.5t12 -15.5q15 -14 33 -21q16 -8 40 -8q7 0 14 0.5t13 2.5q7 2 13 4.5t12 6.5q12 7 20 15q5 5 9 10.5t7 10.5q4 6 6.5 12t4.5 12zM3208 648h-28v-156
q-2 9 -5 14l-97 134q-3 5 -8 6q-6 2 -12 2h-20v-200h28v168l2 -4q0 -3 1 -4q0 -2 2 -4l114 -156h23v200zM3371 475h-87v173h-27v-200h114v27zM3530 648h-19q-10 0 -14 -3q-7 -3 -10 -10l-48 -64q1 0 -2 -3q0 -1 -1 -2v-1v3q0 3 -2 3l-47 64q-6 8 -10 10q-8 3 -15 3h-19
l72 -97q1 -1 1.5 -2t1.5 -2q2 -4 3 -5q0 -1 0.5 -2t0.5 -2v-6v-84h28v84q0 2 0.5 3t0.5 3q1 1 1 2t1 2t1 2t2 3q0 1 3 4zM1983 789q-53 21 -97 58h423q-43 -37 -97 -58q-51 -22 -115 -22q-63 0 -114 22zM1922 881l411 415q79 -103 79 -213q0 -57 -18 -108q-17 -49 -53 -94
h-419zM1861 871q-19 22 -33.5 46t-24.5 51q-11 26 -15.5 55t-4.5 60q0 57 18 108q8 26 21.5 48.5t30.5 44.5h419zM2212 1378q55 -23 95 -60h-422q22 20 46.5 34.5t50.5 25.5q27 11 55.5 16t59.5 5q62 0 115 -21zM530 116q-6 8 -10 22q-2 6 -3 12t-1 13q0 6 1 12t3 12
q3 14 10 23q7 12 14 19t19 14q5 3 10.5 5.5t11.5 4.5q12 3 25 3q10 0 19 -2t18 -5q8 -5 15.5 -9.5t13.5 -11.5l-4 -4q0 -1 -1 -1q-1 -1 -2 -1q-2 -2 -4 -2h-5q-6 0 -9 2q-5 3 -9.5 5.5t-9.5 4.5q-11 3 -22 3q-15 0 -28 -5q-15 -7 -23 -16q-9 -8 -16 -23q-6 -14 -6 -28
q0 -10 3 -19t7 -18q3 -5 6 -8t6 -7q4 -3 7.5 -6t7.5 -5q5 -2 9 -3.5t9 -3.5q9 -3 19 -3q12 0 24 3q6 2 11.5 4.5t10.5 5.5v38h-14q-2 0 -3.5 0.5t-3.5 0.5q-2 2 -6 4q-1 2 -2 3t-1 3q-2 4 -2 7v2h51v-71q-5 -7 -14 -11q-8 -4 -15 -5q-5 -2 -9 -2.5t-9 -1.5h-19q-13 0 -25 3
q-11 3 -22 9q-12 7 -19 15q-7 7 -14 19zM742 233v-59h72v-20h-72v-62h90v-20h-111v182h111v-21h-90zM912 72v161h-58v21h137v-21h-58v-161h-21zM1126 233v-63h76v-20h-76v-78h-21v182h111v-21h-90zM1271 254v-112q0 -12 4 -20q2 -5 5 -9l6 -8l8 -6t9 -5q9 -4 20 -4
q12 0 20 4q5 2 9 5l8 6q6 6 11 17q5 10 5 20v112h20v-112q0 -16 -6 -28q-3 -7 -6.5 -12.5t-8.5 -10.5q-9 -9 -23 -16q-15 -5 -29 -5q-13 0 -28 5q-15 7 -23 16q-9 8 -16 23q-3 6 -4 13t-1 15v112h20zM1455 254v-162h81v-20h-102v182h21zM1579 254v-162h81v-20h-101v182h20z
M1826 72l-79 182h11q4 0 10 -3l3.5 -3.5t2.5 -4.5l60 -136q0 -2 0.5 -3t0.5 -3q1 -3 1 -6v6q2 4 2 6q8 17 15 34t15 34t15 34t15 34q2 4 6 8q6 3 10 3h11q-10 -23 -20 -45.5t-20 -45.5t-19.5 -45.5t-19.5 -45.5h-20zM1961 233v-59h73v-20h-73v-62h90v-20h-111v182h111v-21
h-90zM2187 157q-8 -5 -16 -6l59 -79h-12q-9 0 -12 2q-6 3 -9 8l-51 68h-31v-78h-21v182h65q12 0 20 -4q9 -4 17 -11q7 -8 11 -17q4 -8 4 -20q0 -9 -3 -18q-4 -9 -8 -15q-3 -4 -6 -6.5t-7 -5.5zM2159 170q6 0 12 3q3 1 5.5 2.5t4.5 3.5q4 4 7 10l2 6t1 7q0 3 -1 6l-2 6
q-3 6 -7 10t-10 7q-8 2 -12 2h-44v-63h44zM2326 98q6 4 9 11q4 5 4 14t-3 15t-9 9q-4 4 -12 7q-4 1 -14 5q-5 2 -9.5 4t-9.5 4q-11 3 -16 9q-6 4 -11 13q-3 7 -3 20q0 11 5 19q3 9 12 15q4 3 8 5.5t9 4.5q9 3 19 3q5 0 15 -2q5 -2 13 -6q3 -2 5.5 -4t4.5 -4q3 -2 5 -4l4 -4
l-5 -4q-4 -4 -10 -4q-4 0 -10 2q-2 2 -3 2.5t-2 1.5q-2 1 -2.5 1.5t-2.5 1.5q-2 0 -3 0.5t-3 0.5q-2 1 -6 1q-5 0 -13 -2q-4 -1 -10 -5q-6 -6 -7 -9q-3 -5 -3 -10q0 -8 2 -11q1 -4 6 -7q6 -4 11 -6q4 -2 8 -3t9 -3q3 -2 9 -4t9 -4q6 -2 9 -4q2 -1 3.5 -2t3.5 -2q8 -8 14 -17
q2 -5 3 -10.5t1 -12.5q0 -10 -5 -22q-4 -8 -13 -17q-8 -7 -20 -10q-9 -4 -23 -4q-26 0 -40 14q-3 2 -5.5 5t-4.5 5q-4 6 -4 8l4 2q2 2 4 2q1 1 4 1q8 0 13 -5q6 -7 14 -9q7 -3 15 -3q4 0 7 0.5t7 1.5q7 1 13 6zM2421 254v-182h-21v182h21zM2491 97q-13 12 -20 29
q-8 19 -8 37q0 6 1 12t3 12q3 13 9 23q4 5 7 9.5t8 9.5q5 4 9.5 7.5t9.5 6.5q11 7 22 10q12 3 25 3t25 -3q6 -2 11.5 -4.5t10.5 -5.5t9.5 -6.5t9.5 -7.5q5 -5 8 -9.5t6 -9.5t5.5 -11t4.5 -12q3 -12 3 -24q0 -20 -7 -37q-8 -17 -20 -29q-14 -14 -30 -20q-15 -7 -36 -7
q-20 0 -37 7q-17 6 -29 20zM2490 191q-6 -14 -6 -28q0 -10 3 -19t7 -18q2 -5 5 -8t6 -7q4 -3 7.5 -6t7.5 -5q5 -2 9 -3.5t9 -3.5q7 -3 19 -3q10 0 19 3q5 2 9 3.5t9 3.5q7 4 14 11t11 15q5 7 8 18q2 5 2 9.5v9.5q0 14 -6 28q-5 14 -15 23q-8 9 -23 16q-13 5 -28 5
q-8 0 -14.5 -1.5t-14.5 -3.5q-14 -7 -23 -16t-15 -23zM2704 72h-20v182h14q12 0 16 -7l94 -132q2 -2 2 -3t1 -3t1 -5v150h21v-182h-19l-107 150l-1 2q-1 1 -1 3t-1 3v-158zM2986 233v-63h76v-20h-76v-78h-20v182h111v-21h-91zM3204 169q-2 -4 -5 -6.5t-7 -5.5q-8 -5 -16 -6
l59 -79h-12q-9 0 -13 2q-5 3 -8 8l-50 68h-33v-78h-20v182h64q12 0 21 -4t16 -11t12 -17q2 -5 3 -10t1 -10q0 -9 -3 -18q-4 -10 -9 -15zM3176 173q3 1 5.5 2.5t4.5 3.5q5 5 6 10q3 6 3 13q0 6 -3 12q-1 5 -6 10q-4 4 -10 7q-8 2 -13 2h-44v-63h44q7 0 13 3zM3413 97
q-14 -14 -30 -20q-15 -7 -37 -7q-9 0 -18.5 1.5t-17.5 5.5q-17 6 -29 20q-7 6 -11.5 13.5t-8.5 15.5q-8 19 -8 37q0 6 1 12t3 12q3 14 10 23q4 9 14 19q7 7 19 14q5 3 10.5 5.5t11.5 4.5q12 3 24 3q14 0 26 -3q6 -2 11 -4.5t10 -5.5q6 -3 10.5 -6.5t9.5 -7.5q5 -5 8 -9.5
t6 -9.5q6 -10 9 -23q4 -11 4 -24q0 -21 -8 -37q-6 -16 -19 -29zM3346 90q11 0 20 3q5 2 9 3.5t8 3.5q5 2 8 5t7 6q7 7 11 15q5 7 8 18q2 5 2 9.5v9.5q0 13 -5 28q-7 15 -16 23q-9 9 -23 16q-15 5 -29 5q-13 0 -28 -5q-13 -6 -22 -16q-9 -8 -16 -23q-6 -14 -6 -28
q0 -5 0.5 -9.5t1.5 -9.5q2 -5 4 -9t4 -9t5 -8l7 -7q6 -7 14 -11q4 -2 8 -3.5t9 -3.5q9 -3 19 -3zM3645 251q4 3 9 3h17v-182h-20v151q0 -1 -1 -1q0 -2 -1 -3v-3q0 -1 -1 -2q-5 -11 -9 -20.5t-8 -19.5q-5 -10 -9 -18.5t-7 -17.5q-4 -9 -8 -17.5t-7 -16.5q-4 -8 -7.5 -16
t-7.5 -16h-21q-8 17 -15.5 35t-15.5 35l-16 36l-16 36q-1 1 -1 4q-1 2 -1 4v-150h-20v182h16q4 0 9 -3q6 -3 6 -8l63 -141q0 -3 1 -4t1 -4q0 3 2 11q2 2 2.5 4.5t2.5 5.5l57 128q1 5 6 8zM524 0h210v-23q0 -10 -1 -14q-3 -8 -6 -12l-141 -189l4 2l4 2q1 0 1.5 0.5t2.5 0.5
h135v-50h-217v16q0 5 2 13t4 13q2 3 3 5.5t3 5.5q5 5 8 11l125 169h-137v50zM769 0h182v-50h-130v-65h105v-50h-105v-68h130v-50h-182v283zM1179 -50h-83v-233h-52v233h-83v50h218v-50zM1307 0l123 -283h-32q-11 0 -20 6q-7 5 -14 15l-16 39h-129l-17 -39q-2 -5 -5 -8
q-2 -3 -8 -7t-10 -4q-3 -2 -10 -2h-33l124 283h47zM1325 -172l-37 86q-2 3 -2.5 6t-1.5 5q0 6 -1 8q0 -5 -1 -8q0 -2 -1 -5l-2 -6l-37 -86h83zM1442 0h181v-50h-130v-71h109v-50h-109v-112h-51v283zM1910 -69q5 -8 8.5 -16.5t5.5 -18.5q3 -8 4 -18t1 -20t-1 -19.5t-4 -18.5
q-4 -17 -14 -35q-9 -15 -23 -29q-6 -6 -13.5 -11.5t-15.5 -10.5t-16.5 -8.5t-17.5 -6.5q-10 -2 -19 -3.5t-20 -1.5q-29 0 -56 11q-27 12 -46 31q-10 11 -18 22t-13 24q-11 25 -11 56q0 10 1 20t3 18q5 17 15 35q5 8 10.5 15t12.5 15q14 12 29 22q17 9 34 15q17 4 39 4t39 -4
q17 -6 34 -15q8 -5 15.5 -10.5t13.5 -11.5q7 -8 12.5 -15t10.5 -15zM1871 -178q3 9 5 18t2 18q0 17 -7 36q-4 9 -9 16t-11 14q-15 14 -30 19q-18 8 -36 8t-36 -8q-16 -6 -29 -19q-12 -12 -21 -30q-7 -19 -7 -36q0 -9 2 -18t5 -18q5 -8 9.5 -15.5t11.5 -13.5q12 -13 29 -20
q15 -7 36 -7t36 7t30 20q12 12 20 29zM2166 0h52v-283h-48l-135 189q-3 2 -4 7q-2 2 -3 3.5t-2 3.5t-2 3.5t-2 3.5l-3 6v-216h-52v283h46q10 0 16 -3q8 -3 11 -9q15 -20 30 -41t29 -42l30 -42t29 -41q4 -6 6 -12q2 -8 2 -9v199zM2242 0h218v-50h-83v-233h-52v233h-83v50z
M2639 -145q8 -8 13 -23q5 -13 5 -28q0 -18 -8 -36q-9 -17 -22 -29q-15 -12 -33 -18q-9 -3 -18.5 -5t-18.5 -2q-11 0 -20.5 2t-19.5 5q-9 5 -16.5 9.5t-15.5 11.5q-5 5 -8 9t-6 9t-4.5 8.5t-3.5 7.5q2 1 3.5 2t3.5 2t3.5 2t3.5 2q6 2 8 3q2 0 4.5 0.5t4.5 0.5q6 0 12 -3
q8 -2 13 -4q9 -7 17 -10q8 -5 21 -5q3 0 7 0.5t9 1.5q4 2 8 3.5t7 3.5q9 6 12 13q6 7 6 17q0 7 -5 14q-4 5 -12 10q-6 4 -16 7q-5 2 -9 4t-9 4q-13 4 -29 11q-8 3 -14 7t-12 9q-12 10 -17 22q-7 13 -7 32q0 10 2 18t5 16q5 7 9.5 12.5t10.5 10.5q13 10 29 16q13 4 32 4
q13 0 24 -4q6 -2 11.5 -4.5t10.5 -5.5t9.5 -7t9.5 -8q10 -8 15 -16l-10 -8q-7 -5 -14 -8q-5 -2 -8 -2h-7h-3h-4q-6 2 -10 4q-6 2 -8 4q-2 0 -4 1t-4 1q-6 2 -8 2q-4 0 -7 -0.5t-7 -1.5q-5 -1 -11 -5q-6 -3 -9 -8q-2 -3 -2 -11t2 -11t4.5 -5t4.5 -4q6 -4 16 -7q5 -2 11 -4
t13 -4l9 -3q18 -6 29 -14q14 -9 22 -18zM2726 -233q5 -5 6 -10q3 -5 3 -12q0 -8 -3 -12q-1 -5 -6 -10q-4 -4 -10 -6q-6 -3 -13 -3t-11 3q-7 2 -11 6t-7 10q-2 6 -2 12t2 12q3 6 7 10t11 6q4 3 11 3t13 -3q6 -2 10 -6zM2833 -76q-13 -13 -20 -30q-8 -18 -8 -36q0 -17 8 -36
q4 -8 8.5 -15.5t11.5 -13.5t14 -11t16 -9q15 -7 35 -7q8 0 15 1t13 3q14 5 25 13q6 2 9 4q3 1 10 1q10 0 16 -3q8 -4 12 -8l11 -11q-12 -14 -23 -22q-7 -5 -13.5 -8.5t-13.5 -7.5q-13 -7 -30 -10q-12 -4 -31 -4q-28 0 -56 11q-27 12 -46 31q-19 20 -31 46q-11 28 -11 56
q0 20 5 38q2 10 5.5 18.5t8.5 16.5q10 15 23 30q7 6 14 11.5t16 10.5q16 9 34 15q17 4 38 4q8 0 16 -0.5t15 -2.5q8 -2 15 -4.5t15 -5.5q7 -4 13.5 -8t13.5 -9q13 -10 23 -21l-11 -12q-4 -4 -12 -8q-8 -3 -16 -3q-10 0 -19 6q-13 8 -25 12q-13 5 -28 5q-17 0 -35 -8
q-9 -3 -16 -8t-14 -11zM3298 -69q5 -8 8.5 -16.5t5.5 -18.5q3 -8 4 -18t1 -20t-1 -19.5t-4 -18.5q-4 -17 -14 -35q-9 -15 -23 -29q-7 -6 -14 -11.5t-16 -10.5q-8 -5 -16 -8.5t-18 -6.5q-20 -5 -38 -5q-29 0 -57 11q-13 6 -24.5 13.5t-20.5 17.5q-10 11 -18 22t-13 24
q-12 27 -12 56q0 20 5 38q5 17 15 35q5 8 10.5 15t12.5 15q6 6 13.5 11.5t15.5 10.5q17 9 34 15q17 4 39 4t38 -4q18 -6 34 -15q9 -5 16 -10.5t14 -11.5q7 -8 12.5 -15t10.5 -15zM3259 -178q3 9 5 18t2 18q0 17 -7 36q-9 17 -20 30q-15 14 -30 19q-18 8 -36 8t-36 -8
q-15 -5 -30 -19q-6 -7 -11 -14t-9 -16q-7 -15 -7 -36q0 -19 7 -36t20 -29q15 -13 30 -20t36 -7t36 7t30 20q6 6 10.5 13.5t9.5 15.5zM3609 -2q6 2 10 2h52v-283h-52v207q-3 -5 -4 -14q-2 -4 -2.5 -7.5t-2.5 -6.5q-9 -23 -18 -45t-19 -44q-9 -23 -18 -45t-19 -45h-47l-74 179
q-2 3 -3 6t-2 8q-1 3 -2 6.5t-2 5.5v-205h-52v283h51q4 0 12 -2q6 -2 9 -4q5 -3 8 -8q2 -2 6 -8q8 -22 16.5 -43.5t17.5 -42.5q8 -22 17 -43t17 -43q2 -2 2 -5q0 -2 0.5 -3t0.5 -3q1 -2 1 -6v-3q0 2 1 3q0 4 1 6q0 4 1 6q0 2 0.5 3t0.5 2l10 20l59 152q1 4 6 9q2 3 8 7
q4 2 10 4z" />
    <glyph glyph-name="nine" unicode="9" horiz-adv-x="4097" 
d="M2952 600q9 -8 16 -23q6 -14 6 -30q0 -14 -6 -29q-7 -14 -16 -23q-10 -10 -24 -16t-29 -6q-16 0 -29 6q-14 6 -24 16q-5 5 -9 11t-7 12q-6 15 -6 29q0 16 6 30q6 13 16 23q9 10 24 17q13 6 29 6q15 0 29 -6q15 -7 24 -17zM1109 577q-4 -6 -7 -10q-6 -4 -10 -6t-12 -2h-44
v61h44q6 0 12 -3q5 -1 10 -6q3 -3 7 -9q2 -8 2 -13q0 -4 -2 -12zM1479 600q10 -10 16 -23q6 -14 6 -30q0 -14 -6 -29q-3 -6 -7 -12t-9 -11q-10 -10 -24 -16t-29 -6q-16 0 -29 6q-14 6 -24 16q-9 9 -16 23q-6 15 -6 29q0 16 6 30q7 15 16 23q9 10 24 17q13 6 29 6q15 0 29 -6
q15 -7 24 -17zM1855 616q0 -6 2 -12l37 -84h-78l36 84q1 2 1 2.5t1 2.5q0 2 0.5 3.5t0.5 3.5zM784 610q3 -3 7 -11q3 -8 3 -14q0 -8 -3 -14q-4 -8 -7 -11q-6 -6 -11 -7q-4 -2 -7 -3t-7 -1h-44v71h44q6 0 14 -3q5 -1 11 -7zM3671 1084v-766h-3147v766h1193q0 80 30 151
q16 35 36.5 65t46.5 56q54 52 121 80q70 30 146 30q85 0 152 -32q70 -31 121 -84q26 -26 45.5 -56.5t34.5 -65.5q29 -70 29 -144h1192zM1774 1216q-26 -64 -26 -133q0 -71 27 -134q26 -62 74 -113q46 -47 111 -76q61 -29 137 -29q74 0 136 28q32 14 60 33t52 42t43 51t33 60
q27 64 27 138q0 67 -20 120q-19 53 -56 99q-35 42 -82 74q-24 14 -49.5 25.5t-51.5 19.5q-39 13 -92 13q-73 0 -139 -29q-64 -29 -111 -76q-45 -47 -73 -113zM817 561q5 12 5 24t-5 25q-4 9 -14 19q-8 9 -20 14q-10 5 -24 5h-71v-200h27v74h44q11 0 24 5q11 4 20 13
q10 10 14 21zM966 648h-124v-200h124v27h-96v60h78v28h-78v57h96v28zM1161 448l-63 86q10 3 16 8q9 6 13 13q5 5 9 16q2 5 2 9v9q0 14 -4 23q-2 5 -5.5 9.5t-7.5 9.5q-8 7 -18 12q-9 5 -23 5h-72v-200h28v83h30l52 -71q3 -5 10 -9q4 -3 15 -3h18zM1296 482q5 13 5 25
q0 27 -21 44q-6 4 -9 5q-2 2 -4.5 2.5t-4.5 2.5q-2 1 -5 1.5t-5 2.5q-2 0 -5 1t-5 2q-5 2 -9 3.5t-8 3.5q-9 3 -11 5q-5 5 -6 8q-2 3 -2 10t2 10q4 6 7 8q3 1 11 5q3 1 5.5 1.5t6.5 0.5q2 0 5 -1t5 -2q3 -1 6 -2.5t5 -3.5q6 -3 12 -3q9 0 14 5l7 5l-4.5 4.5l-5.5 5.5
q-3 2 -6 4.5t-7 4.5q-5 4 -15 7q-8 3 -16 3q-12 0 -22 -3q-6 -2 -10.5 -4.5t-9.5 -5.5q-8 -8 -13 -17q-5 -10 -5 -22q0 -15 5 -22q4 -9 12 -15q9 -7 18 -11q5 -2 10 -4.5t10 -4.5q3 -2 6.5 -2.5t7.5 -2.5q10 -4 13 -6q6 -4 10 -10q3 -5 3 -13q0 -9 -4 -14q-2 -6 -9 -11
q-3 -2 -6.5 -3.5t-6.5 -3.5q-5 -1 -8 -1.5t-7 -0.5q-6 0 -14 2q-9 3 -12 8l-3 1q-6 7 -15 7q-6 0 -11 -4l-7 -3q1 -1 1 -2t2 -2q0 -2 1 -3t2 -3t5 -6q3 -5 6 -6q17 -16 45 -16q15 0 27 4q13 5 21 13q10 8 16 19zM1525 520q3 15 3 27q0 14 -3 28q-2 7 -4.5 13t-6.5 12
q-3 5 -7 10l-8 10q-10 8 -22 16q-5 4 -11 6.5t-13 4.5q-14 3 -27 3q-15 0 -27 -3q-7 -2 -13 -4.5t-12 -6.5q-5 -4 -10 -7.5t-10 -8.5q-9 -8 -16 -20q-4 -6 -6.5 -12t-4.5 -13t-3 -13.5t-1 -14.5q0 -21 9 -39q4 -10 9.5 -17.5t12.5 -15.5q13 -13 32 -21q17 -8 40 -8
q8 0 14 0.5t13 2.5t13 4.5t11 6.5q11 5 22 15q4 5 8 10.5t7 10.5q4 6 6.5 12t4.5 12zM1735 648h-28v-156q0 5 -1 8t-3 6l-97 134q-3 4 -8 6q-8 2 -12 2h-20v-200h28v168v-4l2 -4q0 -2 2 -4l114 -156h23v200zM1956 448l-87 200h-27l-88 -200h16q6 0 12 3l4 4t4 5l14 32h102
l14 -32q3 -7 8 -9q3 -3 12 -3h16zM2090 475h-87v173h-27v-200h114v27zM2365 648h-28v-122q0 -12 -4 -21q-2 -5 -4.5 -9t-7.5 -7q-3 -5 -7 -7.5t-9 -4.5q-9 -4 -21 -4t-20 4q-5 2 -9.5 4.5t-7.5 7.5q-7 5 -12 16q-2 5 -3 10t-1 11v122h-27v-122v-11.5t2 -10.5t4 -9.5t4 -9.5
q3 -5 6 -9t8 -7q5 -6 15 -13q11 -5 20 -8q10 -3 21 -3t22 3q5 2 9.5 4t9.5 4q9 6 16 13q4 3 7 7t6 9q2 5 4 9.5t4 9.5q3 10 3 22v122zM2519 482q5 10 5 25q0 29 -21 44q-2 2 -4 3l-4 2l-10 5q-6 2 -10 4q-2 0 -4.5 1t-5.5 2q-5 2 -8.5 3.5t-7.5 3.5t-6.5 2.5t-4.5 2.5
q-6 4 -7 8q-2 6 -2 10q0 5 3 10q4 6 7 8q2 1 4.5 2t5.5 3q8 2 13 2q2 0 4.5 -1t5.5 -2l5 -2.5t6 -3.5q6 -3 12 -3q8 0 13 5l8 5l-10 10q-3 2 -6 4.5t-7 4.5q-3 2 -7 3.5t-8 3.5q-9 3 -16 3q-13 0 -23 -3q-5 -2 -9.5 -4.5t-9.5 -5.5q-4 -4 -7.5 -8t-5.5 -9q-6 -9 -6 -22
q0 -12 5 -22t13 -15q8 -7 17 -11l21 -9q4 -2 7 -2.5t7 -2.5q3 -2 6.5 -3t6.5 -3q6 -5 9 -10q4 -4 4 -13t-4 -14q-2 -5 -10 -11q-5 -4 -13 -7q-10 -2 -14 -2q-7 0 -15 2q-9 3 -12 8l-2 1q-6 7 -16 7q-6 0 -10 -4l-8 -3q1 -1 1.5 -2t1.5 -2l3 -6q4 -4 5 -6q3 -5 7 -6
q17 -16 45 -16q14 0 26 4q12 5 22 13q8 7 15 19zM2683 648h-124v-200h124v27h-97v60h78v28h-78v57h97v28zM2998 520q3 15 3 27q0 14 -3 28q-2 7 -4.5 13t-6.5 12q-7 12 -16 20q-5 5 -10 8.5t-10 7.5q-6 4 -12 6.5t-13 4.5q-12 3 -27 3q-14 0 -27 -3q-7 -2 -13 -4.5t-12 -6.5
q-5 -4 -10.5 -7.5t-10.5 -8.5t-8.5 -10t-7.5 -10q-5 -10 -10 -25q-3 -14 -3 -28q0 -10 1.5 -20t6.5 -19q4 -10 9 -17.5t12 -15.5q15 -14 33 -21q16 -8 40 -8q7 0 14 0.5t13 2.5q7 2 13 4.5t12 6.5q12 7 20 15q5 5 9 10.5t7 10.5q4 6 6.5 12t4.5 12zM3208 648h-28v-156
q-2 9 -5 14l-97 134q-3 5 -8 6q-6 2 -12 2h-20v-200h28v168l2 -4q0 -3 1 -4q0 -2 2 -4l114 -156h23v200zM3371 475h-87v173h-27v-200h114v27zM3530 648h-19q-10 0 -14 -3q-7 -3 -10 -10l-48 -64q1 0 -2 -3q0 -1 -1 -2v-1v3q0 3 -2 3l-47 64q-6 8 -10 10q-8 3 -15 3h-19
l72 -97q1 -1 1.5 -2t1.5 -2q2 -4 3 -5q0 -1 0.5 -2t0.5 -2v-6v-84h28v84q0 2 0.5 3t0.5 3q1 1 1 2t1 2t1 2t2 3q0 1 3 4zM1983 789q-53 21 -97 58h423q-43 -37 -97 -58q-51 -22 -115 -22q-63 0 -114 22zM1922 881l411 415q79 -103 79 -213q0 -57 -18 -108q-17 -49 -53 -94
h-419zM1861 871q-19 22 -33.5 46t-24.5 51q-11 26 -15.5 55t-4.5 60q0 57 18 108q8 26 21.5 48.5t30.5 44.5h419zM2212 1378q55 -23 95 -60h-422q22 20 46.5 34.5t50.5 25.5q27 11 55.5 16t59.5 5q62 0 115 -21zM530 116q-6 8 -10 22q-2 6 -3 12t-1 13q0 6 1 12t3 12
q3 14 10 23q7 12 14 19t19 14q5 3 10.5 5.5t11.5 4.5q12 3 25 3q10 0 19 -2t18 -5q8 -5 15.5 -9.5t13.5 -11.5l-4 -4q0 -1 -1 -1q-1 -1 -2 -1q-2 -2 -4 -2h-5q-6 0 -9 2q-5 3 -9.5 5.5t-9.5 4.5q-11 3 -22 3q-15 0 -28 -5q-15 -7 -23 -16q-9 -8 -16 -23q-6 -14 -6 -28
q0 -10 3 -19t7 -18q3 -5 6 -8t6 -7q4 -3 7.5 -6t7.5 -5q5 -2 9 -3.5t9 -3.5q9 -3 19 -3q12 0 24 3q6 2 11.5 4.5t10.5 5.5v38h-14q-2 0 -3.5 0.5t-3.5 0.5q-2 2 -6 4q-1 2 -2 3t-1 3q-2 4 -2 7v2h51v-71q-5 -7 -14 -11q-8 -4 -15 -5q-5 -2 -9 -2.5t-9 -1.5h-19q-13 0 -25 3
q-11 3 -22 9q-12 7 -19 15q-7 7 -14 19zM742 233v-59h72v-20h-72v-62h90v-20h-111v182h111v-21h-90zM912 72v161h-58v21h137v-21h-58v-161h-21zM1126 233v-63h76v-20h-76v-78h-21v182h111v-21h-90zM1271 254v-112q0 -12 4 -20q2 -5 5 -9l6 -8l8 -6t9 -5q9 -4 20 -4
q12 0 20 4q5 2 9 5l8 6q6 6 11 17q5 10 5 20v112h20v-112q0 -16 -6 -28q-3 -7 -6.5 -12.5t-8.5 -10.5q-9 -9 -23 -16q-15 -5 -29 -5q-13 0 -28 5q-15 7 -23 16q-9 8 -16 23q-3 6 -4 13t-1 15v112h20zM1455 254v-162h81v-20h-102v182h21zM1579 254v-162h81v-20h-101v182h20z
M1826 72l-79 182h11q4 0 10 -3l3.5 -3.5t2.5 -4.5l60 -136q0 -2 0.5 -3t0.5 -3q1 -3 1 -6v6q2 4 2 6q8 17 15 34t15 34t15 34t15 34q2 4 6 8q6 3 10 3h11q-10 -23 -20 -45.5t-20 -45.5t-19.5 -45.5t-19.5 -45.5h-20zM1961 233v-59h73v-20h-73v-62h90v-20h-111v182h111v-21
h-90zM2187 157q-8 -5 -16 -6l59 -79h-12q-9 0 -12 2q-6 3 -9 8l-51 68h-31v-78h-21v182h65q12 0 20 -4q9 -4 17 -11q7 -8 11 -17q4 -8 4 -20q0 -9 -3 -18q-4 -9 -8 -15q-3 -4 -6 -6.5t-7 -5.5zM2159 170q6 0 12 3q3 1 5.5 2.5t4.5 3.5q4 4 7 10l2 6t1 7q0 3 -1 6l-2 6
q-3 6 -7 10t-10 7q-8 2 -12 2h-44v-63h44zM2326 98q6 4 9 11q4 5 4 14t-3 15t-9 9q-4 4 -12 7q-4 1 -14 5q-5 2 -9.5 4t-9.5 4q-11 3 -16 9q-6 4 -11 13q-3 7 -3 20q0 11 5 19q3 9 12 15q4 3 8 5.5t9 4.5q9 3 19 3q5 0 15 -2q5 -2 13 -6q3 -2 5.5 -4t4.5 -4q3 -2 5 -4l4 -4
l-5 -4q-4 -4 -10 -4q-4 0 -10 2q-2 2 -3 2.5t-2 1.5q-2 1 -2.5 1.5t-2.5 1.5q-2 0 -3 0.5t-3 0.5q-2 1 -6 1q-5 0 -13 -2q-4 -1 -10 -5q-6 -6 -7 -9q-3 -5 -3 -10q0 -8 2 -11q1 -4 6 -7q6 -4 11 -6q4 -2 8 -3t9 -3q3 -2 9 -4t9 -4q6 -2 9 -4q2 -1 3.5 -2t3.5 -2q8 -8 14 -17
q2 -5 3 -10.5t1 -12.5q0 -10 -5 -22q-4 -8 -13 -17q-8 -7 -20 -10q-9 -4 -23 -4q-26 0 -40 14q-3 2 -5.5 5t-4.5 5q-4 6 -4 8l4 2q2 2 4 2q1 1 4 1q8 0 13 -5q6 -7 14 -9q7 -3 15 -3q4 0 7 0.5t7 1.5q7 1 13 6zM2421 254v-182h-21v182h21zM2491 97q-13 12 -20 29
q-8 19 -8 37q0 6 1 12t3 12q3 13 9 23q4 5 7 9.5t8 9.5q5 4 9.5 7.5t9.5 6.5q11 7 22 10q12 3 25 3t25 -3q6 -2 11.5 -4.5t10.5 -5.5t9.5 -6.5t9.5 -7.5q5 -5 8 -9.5t6 -9.5t5.5 -11t4.5 -12q3 -12 3 -24q0 -20 -7 -37q-8 -17 -20 -29q-14 -14 -30 -20q-15 -7 -36 -7
q-20 0 -37 7q-17 6 -29 20zM2490 191q-6 -14 -6 -28q0 -10 3 -19t7 -18q2 -5 5 -8t6 -7q4 -3 7.5 -6t7.5 -5q5 -2 9 -3.5t9 -3.5q7 -3 19 -3q10 0 19 3q5 2 9 3.5t9 3.5q7 4 14 11t11 15q5 7 8 18q2 5 2 9.5v9.5q0 14 -6 28q-5 14 -15 23q-8 9 -23 16q-13 5 -28 5
q-8 0 -14.5 -1.5t-14.5 -3.5q-14 -7 -23 -16t-15 -23zM2704 72h-20v182h14q12 0 16 -7l94 -132q2 -2 2 -3t1 -3t1 -5v150h21v-182h-19l-107 150l-1 2q-1 1 -1 3t-1 3v-158zM2986 233v-63h76v-20h-76v-78h-20v182h111v-21h-91zM3204 169q-2 -4 -5 -6.5t-7 -5.5q-8 -5 -16 -6
l59 -79h-12q-9 0 -13 2q-5 3 -8 8l-50 68h-33v-78h-20v182h64q12 0 21 -4t16 -11t12 -17q2 -5 3 -10t1 -10q0 -9 -3 -18q-4 -10 -9 -15zM3176 173q3 1 5.5 2.5t4.5 3.5q5 5 6 10q3 6 3 13q0 6 -3 12q-1 5 -6 10q-4 4 -10 7q-8 2 -13 2h-44v-63h44q7 0 13 3zM3413 97
q-14 -14 -30 -20q-15 -7 -37 -7q-9 0 -18.5 1.5t-17.5 5.5q-17 6 -29 20q-7 6 -11.5 13.5t-8.5 15.5q-8 19 -8 37q0 6 1 12t3 12q3 14 10 23q4 9 14 19q7 7 19 14q5 3 10.5 5.5t11.5 4.5q12 3 24 3q14 0 26 -3q6 -2 11 -4.5t10 -5.5q6 -3 10.5 -6.5t9.5 -7.5q5 -5 8 -9.5
t6 -9.5q6 -10 9 -23q4 -11 4 -24q0 -21 -8 -37q-6 -16 -19 -29zM3346 90q11 0 20 3q5 2 9 3.5t8 3.5q5 2 8 5t7 6q7 7 11 15q5 7 8 18q2 5 2 9.5v9.5q0 13 -5 28q-7 15 -16 23q-9 9 -23 16q-15 5 -29 5q-13 0 -28 -5q-13 -6 -22 -16q-9 -8 -16 -23q-6 -14 -6 -28
q0 -5 0.5 -9.5t1.5 -9.5q2 -5 4 -9t4 -9t5 -8l7 -7q6 -7 14 -11q4 -2 8 -3.5t9 -3.5q9 -3 19 -3zM3645 251q4 3 9 3h17v-182h-20v151q0 -1 -1 -1q0 -2 -1 -3v-3q0 -1 -1 -2q-5 -11 -9 -20.5t-8 -19.5q-5 -10 -9 -18.5t-7 -17.5q-4 -9 -8 -17.5t-7 -16.5q-4 -8 -7.5 -16
t-7.5 -16h-21q-8 17 -15.5 35t-15.5 35l-16 36l-16 36q-1 1 -1 4q-1 2 -1 4v-150h-20v182h16q4 0 9 -3q6 -3 6 -8l63 -141q0 -3 1 -4t1 -4q0 3 2 11q2 2 2.5 4.5t2.5 5.5l57 128q1 5 6 8zM524 0h210v-23q0 -10 -1 -14q-3 -8 -6 -12l-141 -189l4 2l4 2q1 0 1.5 0.5t2.5 0.5
h135v-50h-217v16q0 5 2 13t4 13q2 3 3 5.5t3 5.5q5 5 8 11l125 169h-137v50zM769 0h182v-50h-130v-65h105v-50h-105v-68h130v-50h-182v283zM1179 -50h-83v-233h-52v233h-83v50h218v-50zM1307 0l123 -283h-32q-11 0 -20 6q-7 5 -14 15l-16 39h-129l-17 -39q-2 -5 -5 -8
q-2 -3 -8 -7t-10 -4q-3 -2 -10 -2h-33l124 283h47zM1325 -172l-37 86q-2 3 -2.5 6t-1.5 5q0 6 -1 8q0 -5 -1 -8q0 -2 -1 -5l-2 -6l-37 -86h83zM1442 0h181v-50h-130v-71h109v-50h-109v-112h-51v283zM1910 -69q5 -8 8.5 -16.5t5.5 -18.5q3 -8 4 -18t1 -20t-1 -19.5t-4 -18.5
q-4 -17 -14 -35q-9 -15 -23 -29q-6 -6 -13.5 -11.5t-15.5 -10.5t-16.5 -8.5t-17.5 -6.5q-10 -2 -19 -3.5t-20 -1.5q-29 0 -56 11q-27 12 -46 31q-10 11 -18 22t-13 24q-11 25 -11 56q0 10 1 20t3 18q5 17 15 35q5 8 10.5 15t12.5 15q14 12 29 22q17 9 34 15q17 4 39 4t39 -4
q17 -6 34 -15q8 -5 15.5 -10.5t13.5 -11.5q7 -8 12.5 -15t10.5 -15zM1871 -178q3 9 5 18t2 18q0 17 -7 36q-4 9 -9 16t-11 14q-15 14 -30 19q-18 8 -36 8t-36 -8q-16 -6 -29 -19q-12 -12 -21 -30q-7 -19 -7 -36q0 -9 2 -18t5 -18q5 -8 9.5 -15.5t11.5 -13.5q12 -13 29 -20
q15 -7 36 -7t36 7t30 20q12 12 20 29zM2166 0h52v-283h-48l-135 189q-3 2 -4 7q-2 2 -3 3.5t-2 3.5t-2 3.5t-2 3.5l-3 6v-216h-52v283h46q10 0 16 -3q8 -3 11 -9q15 -20 30 -41t29 -42l30 -42t29 -41q4 -6 6 -12q2 -8 2 -9v199zM2242 0h218v-50h-83v-233h-52v233h-83v50z
M2639 -145q8 -8 13 -23q5 -13 5 -28q0 -18 -8 -36q-9 -17 -22 -29q-15 -12 -33 -18q-9 -3 -18.5 -5t-18.5 -2q-11 0 -20.5 2t-19.5 5q-9 5 -16.5 9.5t-15.5 11.5q-5 5 -8 9t-6 9t-4.5 8.5t-3.5 7.5q2 1 3.5 2t3.5 2t3.5 2t3.5 2q6 2 8 3q2 0 4.5 0.5t4.5 0.5q6 0 12 -3
q8 -2 13 -4q9 -7 17 -10q8 -5 21 -5q3 0 7 0.5t9 1.5q4 2 8 3.5t7 3.5q9 6 12 13q6 7 6 17q0 7 -5 14q-4 5 -12 10q-6 4 -16 7q-5 2 -9 4t-9 4q-13 4 -29 11q-8 3 -14 7t-12 9q-12 10 -17 22q-7 13 -7 32q0 10 2 18t5 16q5 7 9.5 12.5t10.5 10.5q13 10 29 16q13 4 32 4
q13 0 24 -4q6 -2 11.5 -4.5t10.5 -5.5t9.5 -7t9.5 -8q10 -8 15 -16l-10 -8q-7 -5 -14 -8q-5 -2 -8 -2h-7h-3h-4q-6 2 -10 4q-6 2 -8 4q-2 0 -4 1t-4 1q-6 2 -8 2q-4 0 -7 -0.5t-7 -1.5q-5 -1 -11 -5q-6 -3 -9 -8q-2 -3 -2 -11t2 -11t4.5 -5t4.5 -4q6 -4 16 -7q5 -2 11 -4
t13 -4l9 -3q18 -6 29 -14q14 -9 22 -18zM2726 -233q5 -5 6 -10q3 -5 3 -12q0 -8 -3 -12q-1 -5 -6 -10q-4 -4 -10 -6q-6 -3 -13 -3t-11 3q-7 2 -11 6t-7 10q-2 6 -2 12t2 12q3 6 7 10t11 6q4 3 11 3t13 -3q6 -2 10 -6zM2833 -76q-13 -13 -20 -30q-8 -18 -8 -36q0 -17 8 -36
q4 -8 8.5 -15.5t11.5 -13.5t14 -11t16 -9q15 -7 35 -7q8 0 15 1t13 3q14 5 25 13q6 2 9 4q3 1 10 1q10 0 16 -3q8 -4 12 -8l11 -11q-12 -14 -23 -22q-7 -5 -13.5 -8.5t-13.5 -7.5q-13 -7 -30 -10q-12 -4 -31 -4q-28 0 -56 11q-27 12 -46 31q-19 20 -31 46q-11 28 -11 56
q0 20 5 38q2 10 5.5 18.5t8.5 16.5q10 15 23 30q7 6 14 11.5t16 10.5q16 9 34 15q17 4 38 4q8 0 16 -0.5t15 -2.5q8 -2 15 -4.5t15 -5.5q7 -4 13.5 -8t13.5 -9q13 -10 23 -21l-11 -12q-4 -4 -12 -8q-8 -3 -16 -3q-10 0 -19 6q-13 8 -25 12q-13 5 -28 5q-17 0 -35 -8
q-9 -3 -16 -8t-14 -11zM3298 -69q5 -8 8.5 -16.5t5.5 -18.5q3 -8 4 -18t1 -20t-1 -19.5t-4 -18.5q-4 -17 -14 -35q-9 -15 -23 -29q-7 -6 -14 -11.5t-16 -10.5q-8 -5 -16 -8.5t-18 -6.5q-20 -5 -38 -5q-29 0 -57 11q-13 6 -24.5 13.5t-20.5 17.5q-10 11 -18 22t-13 24
q-12 27 -12 56q0 20 5 38q5 17 15 35q5 8 10.5 15t12.5 15q6 6 13.5 11.5t15.5 10.5q17 9 34 15q17 4 39 4t38 -4q18 -6 34 -15q9 -5 16 -10.5t14 -11.5q7 -8 12.5 -15t10.5 -15zM3259 -178q3 9 5 18t2 18q0 17 -7 36q-9 17 -20 30q-15 14 -30 19q-18 8 -36 8t-36 -8
q-15 -5 -30 -19q-6 -7 -11 -14t-9 -16q-7 -15 -7 -36q0 -19 7 -36t20 -29q15 -13 30 -20t36 -7t36 7t30 20q6 6 10.5 13.5t9.5 15.5zM3609 -2q6 2 10 2h52v-283h-52v207q-3 -5 -4 -14q-2 -4 -2.5 -7.5t-2.5 -6.5q-9 -23 -18 -45t-19 -44q-9 -23 -18 -45t-19 -45h-47l-74 179
q-2 3 -3 6t-2 8q-1 3 -2 6.5t-2 5.5v-205h-52v283h51q4 0 12 -2q6 -2 9 -4q5 -3 8 -8q2 -2 6 -8q8 -22 16.5 -43.5t17.5 -42.5q8 -22 17 -43t17 -43q2 -2 2 -5q0 -2 0.5 -3t0.5 -3q1 -2 1 -6v-3q0 2 1 3q0 4 1 6q0 4 1 6q0 2 0.5 3t0.5 2l10 20l59 152q1 4 6 9q2 3 8 7
q4 2 10 4z" />
    <glyph glyph-name="colon" unicode=":" horiz-adv-x="504" 
d="M299 870q6 28 22 52.5t38 43t49 29t55 10.5t50.5 -10.5t36.5 -29t19.5 -43t-0.5 -52.5t-21.5 -52.5t-37.5 -43t-49 -29t-55 -10.5t-50.5 10.5t-37 29t-20 43t0.5 52.5zM140 120q6 28 22 52.5t38 43t49 29t55 10.5t50.5 -10.5t36.5 -29t19.5 -43t-0.5 -52.5t-22 -52.5
t-38 -43t-49 -29t-55 -10.5t-50.5 10.5t-36.5 29t-19.5 43t0.5 52.5z" />
    <glyph glyph-name="semicolon" unicode=";" horiz-adv-x="504" 
d="M140 120q6 28 22 52.5t38 43t49 29t55 10.5t50.5 -10.5t36.5 -29t19.5 -43t-0.5 -52.5q-23 -107 -81 -194t-165 -164l-12 16q-10 13 -5 36q6 28 19.5 46t29 34.5t29.5 37t21 53.5h-12q-51 5 -78 43t-16 92zM299 870q6 28 22 52.5t38 43t49 29t55 10.5t50.5 -10.5
t36.5 -29t19.5 -43t-0.5 -52.5t-21.5 -52.5t-37.5 -43t-49 -29t-55 -10.5t-50.5 10.5t-37 29t-20 43t0.5 52.5z" />
    <glyph glyph-name="less" unicode="&#x3c;" horiz-adv-x="1160" 
d="M248 607l25 120q10 46 41.5 75t76.5 47l787 311l-21 -101q-10 -46 -43.5 -85t-79.5 -57l-603 -240l-35 -10l31 -10l501 -240q38 -18 55 -57t7 -85l-22 -101l-654 311q-38 18 -57 47t-9 75z" />
    <glyph glyph-name="equal" unicode="=" horiz-adv-x="1160" 
d="M1085 373h-854l40 188h854zM1170 773h-854l40 188h854z" />
    <glyph glyph-name="greater" unicode="&#x3e;" horiz-adv-x="1160" 
d="M1164 607q-10 -46 -41.5 -75t-76.5 -47l-788 -311l22 101q10 46 43.5 85t78.5 57l603 240l35 10l-31 10l-501 240q-37 18 -54 57t-7 85l21 101l655 -311q38 -18 57 -47t9 -75z" />
    <glyph glyph-name="question" unicode="?" horiz-adv-x="873" 
d="M311 1185l-45 22q28 41 69 83.5t96.5 77t126.5 56.5t160 22q99 0 171.5 -26.5t117 -77t58.5 -122t-5 -161.5q-22 -104 -116 -204q-22 -24 -54 -51t-67.5 -55.5t-71.5 -58.5t-66 -59t-51 -56t-26 -51l-17 -78h-189l17 78q14 64 50.5 118t83.5 100t99.5 86.5t98 78t78 75
t41.5 77.5q7 35 5 70.5t-22.5 63.5t-62 45.5t-113.5 17.5q-104 0 -175 -46q-16 -11 -46.5 -25.5t-71.5 -14.5q-17 0 -35 3.5t-38 11.5zM565 120q-6 -28 -22 -52.5t-38 -43t-49 -29t-55 -10.5t-50.5 10.5t-36.5 29t-19.5 43t0.5 52.5t22 52.5t38 43t49 29t55 10.5t50.5 -10.5
t36.5 -29t19.5 -43t-0.5 -52.5z" />
    <glyph glyph-name="at" unicode="@" horiz-adv-x="4097" 
d="M2952 600q9 -8 16 -23q6 -14 6 -30q0 -14 -6 -29q-7 -14 -16 -23q-10 -10 -24 -16t-29 -6q-16 0 -29 6q-14 6 -24 16q-5 5 -9 11t-7 12q-6 15 -6 29q0 16 6 30q6 13 16 23q9 10 24 17q13 6 29 6q15 0 29 -6q15 -7 24 -17zM1109 577q-4 -6 -7 -10q-6 -4 -10 -6t-12 -2h-44
v61h44q6 0 12 -3q5 -1 10 -6q3 -3 7 -9q2 -8 2 -13q0 -4 -2 -12zM1479 600q10 -10 16 -23q6 -14 6 -30q0 -14 -6 -29q-3 -6 -7 -12t-9 -11q-10 -10 -24 -16t-29 -6q-16 0 -29 6q-14 6 -24 16q-9 9 -16 23q-6 15 -6 29q0 16 6 30q7 15 16 23q9 10 24 17q13 6 29 6q15 0 29 -6
q15 -7 24 -17zM1855 616q0 -6 2 -12l37 -84h-78l36 84q1 2 1 2.5t1 2.5q0 2 0.5 3.5t0.5 3.5zM784 610q3 -3 7 -11q3 -8 3 -14q0 -8 -3 -14q-4 -8 -7 -11q-6 -6 -11 -7q-4 -2 -7 -3t-7 -1h-44v71h44q6 0 14 -3q5 -1 11 -7zM3671 1084v-766h-3147v766h1193q0 80 30 151
q16 35 36.5 65t46.5 56q54 52 121 80q70 30 146 30q85 0 152 -32q70 -31 121 -84q26 -26 45.5 -56.5t34.5 -65.5q29 -70 29 -144h1192zM1774 1216q-26 -64 -26 -133q0 -71 27 -134q26 -62 74 -113q46 -47 111 -76q61 -29 137 -29q74 0 136 28q32 14 60 33t52 42t43 51t33 60
q27 64 27 138q0 67 -20 120q-19 53 -56 99q-35 42 -82 74q-24 14 -49.5 25.5t-51.5 19.5q-39 13 -92 13q-73 0 -139 -29q-64 -29 -111 -76q-45 -47 -73 -113zM817 561q5 12 5 24t-5 25q-4 9 -14 19q-8 9 -20 14q-10 5 -24 5h-71v-200h27v74h44q11 0 24 5q11 4 20 13
q10 10 14 21zM966 648h-124v-200h124v27h-96v60h78v28h-78v57h96v28zM1161 448l-63 86q10 3 16 8q9 6 13 13q5 5 9 16q2 5 2 9v9q0 14 -4 23q-2 5 -5.5 9.5t-7.5 9.5q-8 7 -18 12q-9 5 -23 5h-72v-200h28v83h30l52 -71q3 -5 10 -9q4 -3 15 -3h18zM1296 482q5 13 5 25
q0 27 -21 44q-6 4 -9 5q-2 2 -4.5 2.5t-4.5 2.5q-2 1 -5 1.5t-5 2.5q-2 0 -5 1t-5 2q-5 2 -9 3.5t-8 3.5q-9 3 -11 5q-5 5 -6 8q-2 3 -2 10t2 10q4 6 7 8q3 1 11 5q3 1 5.5 1.5t6.5 0.5q2 0 5 -1t5 -2q3 -1 6 -2.5t5 -3.5q6 -3 12 -3q9 0 14 5l7 5l-4.5 4.5l-5.5 5.5
q-3 2 -6 4.5t-7 4.5q-5 4 -15 7q-8 3 -16 3q-12 0 -22 -3q-6 -2 -10.5 -4.5t-9.5 -5.5q-8 -8 -13 -17q-5 -10 -5 -22q0 -15 5 -22q4 -9 12 -15q9 -7 18 -11q5 -2 10 -4.5t10 -4.5q3 -2 6.5 -2.5t7.5 -2.5q10 -4 13 -6q6 -4 10 -10q3 -5 3 -13q0 -9 -4 -14q-2 -6 -9 -11
q-3 -2 -6.5 -3.5t-6.5 -3.5q-5 -1 -8 -1.5t-7 -0.5q-6 0 -14 2q-9 3 -12 8l-3 1q-6 7 -15 7q-6 0 -11 -4l-7 -3q1 -1 1 -2t2 -2q0 -2 1 -3t2 -3t5 -6q3 -5 6 -6q17 -16 45 -16q15 0 27 4q13 5 21 13q10 8 16 19zM1525 520q3 15 3 27q0 14 -3 28q-2 7 -4.5 13t-6.5 12
q-3 5 -7 10l-8 10q-10 8 -22 16q-5 4 -11 6.5t-13 4.5q-14 3 -27 3q-15 0 -27 -3q-7 -2 -13 -4.5t-12 -6.5q-5 -4 -10 -7.5t-10 -8.5q-9 -8 -16 -20q-4 -6 -6.5 -12t-4.5 -13t-3 -13.5t-1 -14.5q0 -21 9 -39q4 -10 9.5 -17.5t12.5 -15.5q13 -13 32 -21q17 -8 40 -8
q8 0 14 0.5t13 2.5t13 4.5t11 6.5q11 5 22 15q4 5 8 10.5t7 10.5q4 6 6.5 12t4.5 12zM1735 648h-28v-156q0 5 -1 8t-3 6l-97 134q-3 4 -8 6q-8 2 -12 2h-20v-200h28v168v-4l2 -4q0 -2 2 -4l114 -156h23v200zM1956 448l-87 200h-27l-88 -200h16q6 0 12 3l4 4t4 5l14 32h102
l14 -32q3 -7 8 -9q3 -3 12 -3h16zM2090 475h-87v173h-27v-200h114v27zM2365 648h-28v-122q0 -12 -4 -21q-2 -5 -4.5 -9t-7.5 -7q-3 -5 -7 -7.5t-9 -4.5q-9 -4 -21 -4t-20 4q-5 2 -9.5 4.5t-7.5 7.5q-7 5 -12 16q-2 5 -3 10t-1 11v122h-27v-122v-11.5t2 -10.5t4 -9.5t4 -9.5
q3 -5 6 -9t8 -7q5 -6 15 -13q11 -5 20 -8q10 -3 21 -3t22 3q5 2 9.5 4t9.5 4q9 6 16 13q4 3 7 7t6 9q2 5 4 9.5t4 9.5q3 10 3 22v122zM2519 482q5 10 5 25q0 29 -21 44q-2 2 -4 3l-4 2l-10 5q-6 2 -10 4q-2 0 -4.5 1t-5.5 2q-5 2 -8.5 3.5t-7.5 3.5t-6.5 2.5t-4.5 2.5
q-6 4 -7 8q-2 6 -2 10q0 5 3 10q4 6 7 8q2 1 4.5 2t5.5 3q8 2 13 2q2 0 4.5 -1t5.5 -2l5 -2.5t6 -3.5q6 -3 12 -3q8 0 13 5l8 5l-10 10q-3 2 -6 4.5t-7 4.5q-3 2 -7 3.5t-8 3.5q-9 3 -16 3q-13 0 -23 -3q-5 -2 -9.5 -4.5t-9.5 -5.5q-4 -4 -7.5 -8t-5.5 -9q-6 -9 -6 -22
q0 -12 5 -22t13 -15q8 -7 17 -11l21 -9q4 -2 7 -2.5t7 -2.5q3 -2 6.5 -3t6.5 -3q6 -5 9 -10q4 -4 4 -13t-4 -14q-2 -5 -10 -11q-5 -4 -13 -7q-10 -2 -14 -2q-7 0 -15 2q-9 3 -12 8l-2 1q-6 7 -16 7q-6 0 -10 -4l-8 -3q1 -1 1.5 -2t1.5 -2l3 -6q4 -4 5 -6q3 -5 7 -6
q17 -16 45 -16q14 0 26 4q12 5 22 13q8 7 15 19zM2683 648h-124v-200h124v27h-97v60h78v28h-78v57h97v28zM2998 520q3 15 3 27q0 14 -3 28q-2 7 -4.5 13t-6.5 12q-7 12 -16 20q-5 5 -10 8.5t-10 7.5q-6 4 -12 6.5t-13 4.5q-12 3 -27 3q-14 0 -27 -3q-7 -2 -13 -4.5t-12 -6.5
q-5 -4 -10.5 -7.5t-10.5 -8.5t-8.5 -10t-7.5 -10q-5 -10 -10 -25q-3 -14 -3 -28q0 -10 1.5 -20t6.5 -19q4 -10 9 -17.5t12 -15.5q15 -14 33 -21q16 -8 40 -8q7 0 14 0.5t13 2.5q7 2 13 4.5t12 6.5q12 7 20 15q5 5 9 10.5t7 10.5q4 6 6.5 12t4.5 12zM3208 648h-28v-156
q-2 9 -5 14l-97 134q-3 5 -8 6q-6 2 -12 2h-20v-200h28v168l2 -4q0 -3 1 -4q0 -2 2 -4l114 -156h23v200zM3371 475h-87v173h-27v-200h114v27zM3530 648h-19q-10 0 -14 -3q-7 -3 -10 -10l-48 -64q1 0 -2 -3q0 -1 -1 -2v-1v3q0 3 -2 3l-47 64q-6 8 -10 10q-8 3 -15 3h-19
l72 -97q1 -1 1.5 -2t1.5 -2q2 -4 3 -5q0 -1 0.5 -2t0.5 -2v-6v-84h28v84q0 2 0.5 3t0.5 3q1 1 1 2t1 2t1 2t2 3q0 1 3 4zM1983 789q-53 21 -97 58h423q-43 -37 -97 -58q-51 -22 -115 -22q-63 0 -114 22zM1922 881l411 415q79 -103 79 -213q0 -57 -18 -108q-17 -49 -53 -94
h-419zM1861 871q-19 22 -33.5 46t-24.5 51q-11 26 -15.5 55t-4.5 60q0 57 18 108q8 26 21.5 48.5t30.5 44.5h419zM2212 1378q55 -23 95 -60h-422q22 20 46.5 34.5t50.5 25.5q27 11 55.5 16t59.5 5q62 0 115 -21zM530 116q-6 8 -10 22q-2 6 -3 12t-1 13q0 6 1 12t3 12
q3 14 10 23q7 12 14 19t19 14q5 3 10.5 5.5t11.5 4.5q12 3 25 3q10 0 19 -2t18 -5q8 -5 15.5 -9.5t13.5 -11.5l-4 -4q0 -1 -1 -1q-1 -1 -2 -1q-2 -2 -4 -2h-5q-6 0 -9 2q-5 3 -9.5 5.5t-9.5 4.5q-11 3 -22 3q-15 0 -28 -5q-15 -7 -23 -16q-9 -8 -16 -23q-6 -14 -6 -28
q0 -10 3 -19t7 -18q3 -5 6 -8t6 -7q4 -3 7.5 -6t7.5 -5q5 -2 9 -3.5t9 -3.5q9 -3 19 -3q12 0 24 3q6 2 11.5 4.5t10.5 5.5v38h-14q-2 0 -3.5 0.5t-3.5 0.5q-2 2 -6 4q-1 2 -2 3t-1 3q-2 4 -2 7v2h51v-71q-5 -7 -14 -11q-8 -4 -15 -5q-5 -2 -9 -2.5t-9 -1.5h-19q-13 0 -25 3
q-11 3 -22 9q-12 7 -19 15q-7 7 -14 19zM742 233v-59h72v-20h-72v-62h90v-20h-111v182h111v-21h-90zM912 72v161h-58v21h137v-21h-58v-161h-21zM1126 233v-63h76v-20h-76v-78h-21v182h111v-21h-90zM1271 254v-112q0 -12 4 -20q2 -5 5 -9l6 -8l8 -6t9 -5q9 -4 20 -4
q12 0 20 4q5 2 9 5l8 6q6 6 11 17q5 10 5 20v112h20v-112q0 -16 -6 -28q-3 -7 -6.5 -12.5t-8.5 -10.5q-9 -9 -23 -16q-15 -5 -29 -5q-13 0 -28 5q-15 7 -23 16q-9 8 -16 23q-3 6 -4 13t-1 15v112h20zM1455 254v-162h81v-20h-102v182h21zM1579 254v-162h81v-20h-101v182h20z
M1826 72l-79 182h11q4 0 10 -3l3.5 -3.5t2.5 -4.5l60 -136q0 -2 0.5 -3t0.5 -3q1 -3 1 -6v6q2 4 2 6q8 17 15 34t15 34t15 34t15 34q2 4 6 8q6 3 10 3h11q-10 -23 -20 -45.5t-20 -45.5t-19.5 -45.5t-19.5 -45.5h-20zM1961 233v-59h73v-20h-73v-62h90v-20h-111v182h111v-21
h-90zM2187 157q-8 -5 -16 -6l59 -79h-12q-9 0 -12 2q-6 3 -9 8l-51 68h-31v-78h-21v182h65q12 0 20 -4q9 -4 17 -11q7 -8 11 -17q4 -8 4 -20q0 -9 -3 -18q-4 -9 -8 -15q-3 -4 -6 -6.5t-7 -5.5zM2159 170q6 0 12 3q3 1 5.5 2.5t4.5 3.5q4 4 7 10l2 6t1 7q0 3 -1 6l-2 6
q-3 6 -7 10t-10 7q-8 2 -12 2h-44v-63h44zM2326 98q6 4 9 11q4 5 4 14t-3 15t-9 9q-4 4 -12 7q-4 1 -14 5q-5 2 -9.5 4t-9.5 4q-11 3 -16 9q-6 4 -11 13q-3 7 -3 20q0 11 5 19q3 9 12 15q4 3 8 5.5t9 4.5q9 3 19 3q5 0 15 -2q5 -2 13 -6q3 -2 5.5 -4t4.5 -4q3 -2 5 -4l4 -4
l-5 -4q-4 -4 -10 -4q-4 0 -10 2q-2 2 -3 2.5t-2 1.5q-2 1 -2.5 1.5t-2.5 1.5q-2 0 -3 0.5t-3 0.5q-2 1 -6 1q-5 0 -13 -2q-4 -1 -10 -5q-6 -6 -7 -9q-3 -5 -3 -10q0 -8 2 -11q1 -4 6 -7q6 -4 11 -6q4 -2 8 -3t9 -3q3 -2 9 -4t9 -4q6 -2 9 -4q2 -1 3.5 -2t3.5 -2q8 -8 14 -17
q2 -5 3 -10.5t1 -12.5q0 -10 -5 -22q-4 -8 -13 -17q-8 -7 -20 -10q-9 -4 -23 -4q-26 0 -40 14q-3 2 -5.5 5t-4.5 5q-4 6 -4 8l4 2q2 2 4 2q1 1 4 1q8 0 13 -5q6 -7 14 -9q7 -3 15 -3q4 0 7 0.5t7 1.5q7 1 13 6zM2421 254v-182h-21v182h21zM2491 97q-13 12 -20 29
q-8 19 -8 37q0 6 1 12t3 12q3 13 9 23q4 5 7 9.5t8 9.5q5 4 9.5 7.5t9.5 6.5q11 7 22 10q12 3 25 3t25 -3q6 -2 11.5 -4.5t10.5 -5.5t9.5 -6.5t9.5 -7.5q5 -5 8 -9.5t6 -9.5t5.5 -11t4.5 -12q3 -12 3 -24q0 -20 -7 -37q-8 -17 -20 -29q-14 -14 -30 -20q-15 -7 -36 -7
q-20 0 -37 7q-17 6 -29 20zM2490 191q-6 -14 -6 -28q0 -10 3 -19t7 -18q2 -5 5 -8t6 -7q4 -3 7.5 -6t7.5 -5q5 -2 9 -3.5t9 -3.5q7 -3 19 -3q10 0 19 3q5 2 9 3.5t9 3.5q7 4 14 11t11 15q5 7 8 18q2 5 2 9.5v9.5q0 14 -6 28q-5 14 -15 23q-8 9 -23 16q-13 5 -28 5
q-8 0 -14.5 -1.5t-14.5 -3.5q-14 -7 -23 -16t-15 -23zM2704 72h-20v182h14q12 0 16 -7l94 -132q2 -2 2 -3t1 -3t1 -5v150h21v-182h-19l-107 150l-1 2q-1 1 -1 3t-1 3v-158zM2986 233v-63h76v-20h-76v-78h-20v182h111v-21h-91zM3204 169q-2 -4 -5 -6.5t-7 -5.5q-8 -5 -16 -6
l59 -79h-12q-9 0 -13 2q-5 3 -8 8l-50 68h-33v-78h-20v182h64q12 0 21 -4t16 -11t12 -17q2 -5 3 -10t1 -10q0 -9 -3 -18q-4 -10 -9 -15zM3176 173q3 1 5.5 2.5t4.5 3.5q5 5 6 10q3 6 3 13q0 6 -3 12q-1 5 -6 10q-4 4 -10 7q-8 2 -13 2h-44v-63h44q7 0 13 3zM3413 97
q-14 -14 -30 -20q-15 -7 -37 -7q-9 0 -18.5 1.5t-17.5 5.5q-17 6 -29 20q-7 6 -11.5 13.5t-8.5 15.5q-8 19 -8 37q0 6 1 12t3 12q3 14 10 23q4 9 14 19q7 7 19 14q5 3 10.5 5.5t11.5 4.5q12 3 24 3q14 0 26 -3q6 -2 11 -4.5t10 -5.5q6 -3 10.5 -6.5t9.5 -7.5q5 -5 8 -9.5
t6 -9.5q6 -10 9 -23q4 -11 4 -24q0 -21 -8 -37q-6 -16 -19 -29zM3346 90q11 0 20 3q5 2 9 3.5t8 3.5q5 2 8 5t7 6q7 7 11 15q5 7 8 18q2 5 2 9.5v9.5q0 13 -5 28q-7 15 -16 23q-9 9 -23 16q-15 5 -29 5q-13 0 -28 -5q-13 -6 -22 -16q-9 -8 -16 -23q-6 -14 -6 -28
q0 -5 0.5 -9.5t1.5 -9.5q2 -5 4 -9t4 -9t5 -8l7 -7q6 -7 14 -11q4 -2 8 -3.5t9 -3.5q9 -3 19 -3zM3645 251q4 3 9 3h17v-182h-20v151q0 -1 -1 -1q0 -2 -1 -3v-3q0 -1 -1 -2q-5 -11 -9 -20.5t-8 -19.5q-5 -10 -9 -18.5t-7 -17.5q-4 -9 -8 -17.5t-7 -16.5q-4 -8 -7.5 -16
t-7.5 -16h-21q-8 17 -15.5 35t-15.5 35l-16 36l-16 36q-1 1 -1 4q-1 2 -1 4v-150h-20v182h16q4 0 9 -3q6 -3 6 -8l63 -141q0 -3 1 -4t1 -4q0 3 2 11q2 2 2.5 4.5t2.5 5.5l57 128q1 5 6 8zM524 0h210v-23q0 -10 -1 -14q-3 -8 -6 -12l-141 -189l4 2l4 2q1 0 1.5 0.5t2.5 0.5
h135v-50h-217v16q0 5 2 13t4 13q2 3 3 5.5t3 5.5q5 5 8 11l125 169h-137v50zM769 0h182v-50h-130v-65h105v-50h-105v-68h130v-50h-182v283zM1179 -50h-83v-233h-52v233h-83v50h218v-50zM1307 0l123 -283h-32q-11 0 -20 6q-7 5 -14 15l-16 39h-129l-17 -39q-2 -5 -5 -8
q-2 -3 -8 -7t-10 -4q-3 -2 -10 -2h-33l124 283h47zM1325 -172l-37 86q-2 3 -2.5 6t-1.5 5q0 6 -1 8q0 -5 -1 -8q0 -2 -1 -5l-2 -6l-37 -86h83zM1442 0h181v-50h-130v-71h109v-50h-109v-112h-51v283zM1910 -69q5 -8 8.5 -16.5t5.5 -18.5q3 -8 4 -18t1 -20t-1 -19.5t-4 -18.5
q-4 -17 -14 -35q-9 -15 -23 -29q-6 -6 -13.5 -11.5t-15.5 -10.5t-16.5 -8.5t-17.5 -6.5q-10 -2 -19 -3.5t-20 -1.5q-29 0 -56 11q-27 12 -46 31q-10 11 -18 22t-13 24q-11 25 -11 56q0 10 1 20t3 18q5 17 15 35q5 8 10.5 15t12.5 15q14 12 29 22q17 9 34 15q17 4 39 4t39 -4
q17 -6 34 -15q8 -5 15.5 -10.5t13.5 -11.5q7 -8 12.5 -15t10.5 -15zM1871 -178q3 9 5 18t2 18q0 17 -7 36q-4 9 -9 16t-11 14q-15 14 -30 19q-18 8 -36 8t-36 -8q-16 -6 -29 -19q-12 -12 -21 -30q-7 -19 -7 -36q0 -9 2 -18t5 -18q5 -8 9.5 -15.5t11.5 -13.5q12 -13 29 -20
q15 -7 36 -7t36 7t30 20q12 12 20 29zM2166 0h52v-283h-48l-135 189q-3 2 -4 7q-2 2 -3 3.5t-2 3.5t-2 3.5t-2 3.5l-3 6v-216h-52v283h46q10 0 16 -3q8 -3 11 -9q15 -20 30 -41t29 -42l30 -42t29 -41q4 -6 6 -12q2 -8 2 -9v199zM2242 0h218v-50h-83v-233h-52v233h-83v50z
M2639 -145q8 -8 13 -23q5 -13 5 -28q0 -18 -8 -36q-9 -17 -22 -29q-15 -12 -33 -18q-9 -3 -18.5 -5t-18.5 -2q-11 0 -20.5 2t-19.5 5q-9 5 -16.5 9.5t-15.5 11.5q-5 5 -8 9t-6 9t-4.5 8.5t-3.5 7.5q2 1 3.5 2t3.5 2t3.5 2t3.5 2q6 2 8 3q2 0 4.5 0.5t4.5 0.5q6 0 12 -3
q8 -2 13 -4q9 -7 17 -10q8 -5 21 -5q3 0 7 0.5t9 1.5q4 2 8 3.5t7 3.5q9 6 12 13q6 7 6 17q0 7 -5 14q-4 5 -12 10q-6 4 -16 7q-5 2 -9 4t-9 4q-13 4 -29 11q-8 3 -14 7t-12 9q-12 10 -17 22q-7 13 -7 32q0 10 2 18t5 16q5 7 9.5 12.5t10.5 10.5q13 10 29 16q13 4 32 4
q13 0 24 -4q6 -2 11.5 -4.5t10.5 -5.5t9.5 -7t9.5 -8q10 -8 15 -16l-10 -8q-7 -5 -14 -8q-5 -2 -8 -2h-7h-3h-4q-6 2 -10 4q-6 2 -8 4q-2 0 -4 1t-4 1q-6 2 -8 2q-4 0 -7 -0.5t-7 -1.5q-5 -1 -11 -5q-6 -3 -9 -8q-2 -3 -2 -11t2 -11t4.5 -5t4.5 -4q6 -4 16 -7q5 -2 11 -4
t13 -4l9 -3q18 -6 29 -14q14 -9 22 -18zM2726 -233q5 -5 6 -10q3 -5 3 -12q0 -8 -3 -12q-1 -5 -6 -10q-4 -4 -10 -6q-6 -3 -13 -3t-11 3q-7 2 -11 6t-7 10q-2 6 -2 12t2 12q3 6 7 10t11 6q4 3 11 3t13 -3q6 -2 10 -6zM2833 -76q-13 -13 -20 -30q-8 -18 -8 -36q0 -17 8 -36
q4 -8 8.5 -15.5t11.5 -13.5t14 -11t16 -9q15 -7 35 -7q8 0 15 1t13 3q14 5 25 13q6 2 9 4q3 1 10 1q10 0 16 -3q8 -4 12 -8l11 -11q-12 -14 -23 -22q-7 -5 -13.5 -8.5t-13.5 -7.5q-13 -7 -30 -10q-12 -4 -31 -4q-28 0 -56 11q-27 12 -46 31q-19 20 -31 46q-11 28 -11 56
q0 20 5 38q2 10 5.5 18.5t8.5 16.5q10 15 23 30q7 6 14 11.5t16 10.5q16 9 34 15q17 4 38 4q8 0 16 -0.5t15 -2.5q8 -2 15 -4.5t15 -5.5q7 -4 13.5 -8t13.5 -9q13 -10 23 -21l-11 -12q-4 -4 -12 -8q-8 -3 -16 -3q-10 0 -19 6q-13 8 -25 12q-13 5 -28 5q-17 0 -35 -8
q-9 -3 -16 -8t-14 -11zM3298 -69q5 -8 8.5 -16.5t5.5 -18.5q3 -8 4 -18t1 -20t-1 -19.5t-4 -18.5q-4 -17 -14 -35q-9 -15 -23 -29q-7 -6 -14 -11.5t-16 -10.5q-8 -5 -16 -8.5t-18 -6.5q-20 -5 -38 -5q-29 0 -57 11q-13 6 -24.5 13.5t-20.5 17.5q-10 11 -18 22t-13 24
q-12 27 -12 56q0 20 5 38q5 17 15 35q5 8 10.5 15t12.5 15q6 6 13.5 11.5t15.5 10.5q17 9 34 15q17 4 39 4t38 -4q18 -6 34 -15q9 -5 16 -10.5t14 -11.5q7 -8 12.5 -15t10.5 -15zM3259 -178q3 9 5 18t2 18q0 17 -7 36q-9 17 -20 30q-15 14 -30 19q-18 8 -36 8t-36 -8
q-15 -5 -30 -19q-6 -7 -11 -14t-9 -16q-7 -15 -7 -36q0 -19 7 -36t20 -29q15 -13 30 -20t36 -7t36 7t30 20q6 6 10.5 13.5t9.5 15.5zM3609 -2q6 2 10 2h52v-283h-52v207q-3 -5 -4 -14q-2 -4 -2.5 -7.5t-2.5 -6.5q-9 -23 -18 -45t-19 -44q-9 -23 -18 -45t-19 -45h-47l-74 179
q-2 3 -3 6t-2 8q-1 3 -2 6.5t-2 5.5v-205h-52v283h51q4 0 12 -2q6 -2 9 -4q5 -3 8 -8q2 -2 6 -8q8 -22 16.5 -43.5t17.5 -42.5q8 -22 17 -43t17 -43q2 -2 2 -5q0 -2 0.5 -3t0.5 -3q1 -2 1 -6v-3q0 2 1 3q0 4 1 6q0 4 1 6q0 2 0.5 3t0.5 2l10 20l59 152q1 4 6 9q2 3 8 7
q4 2 10 4z" />
    <glyph glyph-name="A" unicode="A" horiz-adv-x="1373" 
d="M861 1433h223l321 -1433h-114q-47 0 -80 24.5t-43 67.5l-51 228h-732l-148 -228q-14 -21 -33.5 -38t-42.5 -29t-47.5 -18.5t-47.5 -6.5h-134zM902 1117l-388 -599h559l-134 599q-9 35 -1 85q-7 -25 -16 -46t-20 -39z" />
    <glyph glyph-name="B" unicode="B" horiz-adv-x="1316" 
d="M371 0h-198l304 1433h563q83 0 149.5 -31.5t109.5 -86t59.5 -128t-1.5 -156.5q-10 -46 -34.5 -95.5t-56 -91t-67.5 -69t-68 -29.5q7 0 18.5 -1.5t24.5 -5.5t25.5 -10t20.5 -16q48 -57 70.5 -134t3.5 -166q-18 -86 -66 -161t-116 -130.5t-150 -88t-168 -32.5zM836 199
q45 0 87.5 17t77.5 46.5t60.5 68.5t34.5 83q10 44 1.5 83t-31.5 68t-58.5 46t-79.5 17h-424l-91 -429h423zM633 1235l-87 -409h365q42 0 83 16t74.5 44t57.5 65t33 79t1 79.5t-30 65.5t-56 44t-76 16h-365z" />
    <glyph glyph-name="C" unicode="C" horiz-adv-x="1442" 
d="M440 717q-24 -111 -2.5 -208t78.5 -169.5t145 -114.5t199 -42q86 0 168 25t157 70q42 25 88 25q36 0 60 -12t42 -35l29 -37q-62 -54 -131.5 -97.5t-144 -73.5t-153 -46.5t-157.5 -16.5q-101 0 -189 26t-159 74t-123.5 114.5t-83 148t-37 175t15.5 194.5
q21 101 67.5 194.5t111 175t145.5 148t172.5 114.5t190.5 74t200 26q160 0 284.5 -62.5t202.5 -171.5l-45 -37q-27 -23 -57 -35.5t-65 -12.5q-44 0 -78 26q-56 45 -127.5 70t-156.5 25q-111 0 -217 -42t-193.5 -114.5t-150 -169.5t-86.5 -208z" />
    <glyph glyph-name="D" unicode="D" horiz-adv-x="1519" 
d="M174 0l304 1433h538q148 0 266.5 -56.5t195.5 -154t105.5 -228t-2.5 -278.5q-21 -99 -66 -190.5t-108.5 -171t-143 -145t-169 -112t-186.5 -72t-196 -25.5h-538zM754 198q107 0 210 40.5t188.5 111t146.5 165t84 201.5q22 107 1.5 201.5t-76 165t-141.5 111.5t-193 41
h-340l-220 -1037h340z" />
    <glyph glyph-name="E" unicode="E" horiz-adv-x="1165" 
d="M1060 0h-886l304 1433h886l-42 -198h-688l-88 -413h557l-42 -198h-557l-90 -426h688z" />
    <glyph glyph-name="F" unicode="F" horiz-adv-x="1135" 
d="M1120 794l-42 -198h-580l-126 -596h-198l304 1433h886l-42 -198h-688l-94 -441h580z" />
    <glyph glyph-name="G" unicode="G" horiz-adv-x="1492" 
d="M1509 730l-123 -578q-61 -50 -128.5 -82.5t-139.5 -51.5t-147 -26t-151 -7q-101 0 -189 26t-159 74t-123.5 114.5t-83 148t-37 175t15.5 194.5q21 101 67.5 194.5t111 175t145.5 148t172.5 114.5t190.5 74t200 26q160 0 284.5 -62.5t202.5 -171.5l-45 -37
q-29 -24 -58 -36t-64 -12q-44 0 -78 26q-56 45 -127.5 70t-156.5 25q-111 0 -217 -42t-193.5 -114.5t-150 -169.5t-86.5 -208t-1 -208t82 -169.5t148.5 -114.5t200.5 -42q92 0 179 21.5t164 64.5l56 263h-80q-35 0 -61 12.5t-41.5 33.5t-20.5 49t1 59l10 44h430z" />
    <glyph glyph-name="H" unicode="H" horiz-adv-x="1518" 
d="M1342 0h-198l132 622h-772l-132 -622h-198l304 1433h198l-130 -613h772l130 613h198z" />
    <glyph glyph-name="I" unicode="I" horiz-adv-x="617" 
d="M408 0h-198l304 1433h198z" />
    <glyph glyph-name="J" unicode="J" horiz-adv-x="827" 
d="M753 1433h198l-260 -1223q-20 -95 -74 -179t-129.5 -146t-167 -98t-186.5 -36q-94 0 -168.5 34.5t-124.5 95.5l68 56q55 45 118 45q19 -1 36.5 -6.5t35 -11.5t36 -10.5t41.5 -4.5q54 0 106 20.5t95 56t74 83t42 101.5z" />
    <glyph glyph-name="K" unicode="K" horiz-adv-x="1320" 
d="M715 799l517 544q38 45 87.5 67.5t107.5 22.5h146l-634 -668q-7 -7 -16 -12t-18 -8.5t-15.5 -5.5t-7.5 -2q2 -2 9.5 -8t15.5 -20l375 -709h-116q-58 0 -98 22.5t-59 67.5l-310 585q-9 17 -20.5 28.5t-22.5 18.5t-19 10.5t-9 4.5q3 1 28.5 13.5t58.5 48.5zM390 0h-198
l304 1433h198z" />
    <glyph glyph-name="L" unicode="L" horiz-adv-x="1032" 
d="M174 0l304 1433h198l-262 -1235h619l-42 -198h-817z" />
    <glyph glyph-name="M" unicode="M" horiz-adv-x="1894" 
d="M1720 0h-198l242 1141q-2 -3 -6 -13.5t-9.5 -24t-11.5 -27t-12 -22.5l-684 -1054h-193l-236 1053q-2 7 -3 18t-1 22.5t1 21t1 14.5l-239 -1129h-198l304 1433h164q47 0 80 -25.5t43 -66.5l209 -1025q3 -20 3.5 -41.5t-4.5 -46.5q14 51 38 88l685 1025q28 43 72 67.5
t89 24.5h168z" />
    <glyph glyph-name="N" unicode="N" horiz-adv-x="1559" 
d="M1384 0h-161l-582 1139q-6 11 -8.5 24.5t-3.5 27.5q-1 15 0 32l-255 -1223h-198l304 1433h141q48 0 81 -14t48 -43l492 -977q18 -39 12 -99l236 1133h198z" />
    <glyph glyph-name="O" unicode="O" horiz-adv-x="1648" 
d="M241 717q21 101 65.5 194.5t107.5 175t142 148t171 114.5t194 74t210 26q132 0 241 -44t187.5 -122t121.5 -184t43 -230q0 -118 -33 -229t-93 -209t-143.5 -180t-184 -141t-215 -92t-235.5 -33q-118 0 -225.5 44t-189 121.5t-130 183.5t-48.5 230q0 37 3 75t11 78z
M443 717q-12 -59 -12 -112q0 -90 31 -167.5t88 -134t136.5 -88.5t175.5 -32q74 0 152 24t151.5 67t138.5 103t113.5 131.5t76.5 153t28 167.5q0 103 -31.5 182t-88.5 132t-137 80.5t-176 27.5q-111 0 -216.5 -42t-193.5 -114.5t-150 -169.5t-86 -208z" />
    <glyph glyph-name="P" unicode="P" horiz-adv-x="1233" 
d="M398 0h-198l304 1433h512q93 0 167.5 -35.5t122.5 -96.5t66 -143t-2 -175t-72.5 -175t-126.5 -143t-163.5 -96.5t-182.5 -35.5h-314zM867 731q52 0 102.5 19.5t91.5 54t70.5 80t40.5 98.5q11 52 1.5 98t-36.5 80.5t-69 54t-94 19.5h-314l-107 -504h314z" />
    <glyph glyph-name="Q" unicode="Q" horiz-adv-x="1648" 
d="M442 717q-24 -111 -2.5 -208t78.5 -169.5t145 -114.5t199 -42q42 0 84 6.5t84 18.5l87 -166q-71 -28 -146 -42.5t-151 -14.5q-101 0 -189 26t-159 74t-123.5 114.5t-83 148t-37 175t15.5 194.5q21 101 67.5 194.5t111 175t145.5 148t172.5 114.5t190.5 74t200 26t189 -26
t159.5 -74t124 -114.5t83 -148t36.5 -175t-15 -194.5q-32 -149 -114 -278.5t-199 -229.5l272 -514h-136q-58 0 -98 22.5t-59 67.5l-244 462q70 34 132 83t111.5 110t85 131t51.5 146q24 111 2.5 208t-78.5 169.5t-145.5 114.5t-199.5 42t-217 -42t-193.5 -114.5t-150 -169.5
t-86.5 -208z" />
    <glyph glyph-name="R" unicode="R" horiz-adv-x="1292" 
d="M391 0h-198l304 1433h514q87 0 156.5 -33t114 -89.5t61 -133t-1.5 -163.5q-15 -70 -50 -133.5t-85 -115.5t-111.5 -90.5t-129.5 -58.5l326 -616h-116q-58 0 -98 22.5t-59 67.5l-268 506h-233zM653 1235l-94 -441h316q46 0 90 17t80 47t62 70t36 86t1 86t-32.5 70
t-60 47.5t-82.5 17.5h-316z" />
    <glyph glyph-name="S" unicode="S" horiz-adv-x="1065" 
d="M950 1189q-33 28 -69.5 44.5t-71.5 16.5q-47 0 -91 -13t-80.5 -36t-61.5 -54.5t-33 -68.5q-9 -43 -1.5 -73t33.5 -53.5t71 -44.5t111 -45q32 -14 64.5 -26.5t63.5 -27t60 -31.5t55 -40q127 -115 85 -310q-21 -98 -78 -179t-137.5 -139.5t-176.5 -91t-193 -32.5
q-192 0 -298 115q-21 23 -36 46.5t-25.5 45.5t-16.5 40t-9 30l54 25q43 23 83 23q32 0 57.5 -12t42.5 -35l14 -13q32 -32 74 -49.5t102 -17.5q42 0 97 17.5t106 49t90.5 76.5t51.5 101q12 58 -6 96t-53.5 65t-82.5 46t-93 39q-45 19 -89.5 39t-83 43.5t-69.5 53t-50 68
t-24 88t9 113.5q19 88 70 157t121 116.5t152 72.5t163 25q59 0 112.5 -20t98 -51t78 -68t53.5 -70l-59 -38q-49 -36 -105 -36q-46 0 -79 23z" />
    <glyph glyph-name="T" unicode="T" horiz-adv-x="1145" 
d="M290 1235l42 199h1089l-42 -199h-445l-262 -1235h-198l262 1235h-446z" />
    <glyph glyph-name="U" unicode="U" horiz-adv-x="1454" 
d="M472 560q-17 -78 -2 -147t55.5 -120.5t103 -81t140.5 -29.5t153.5 29.5t137.5 81t106.5 120.5t61.5 147l185 873h199l-185 -873q-17 -80 -53.5 -153.5t-87.5 -137.5t-115 -116.5t-136 -90t-150 -58t-158 -20.5q-119 0 -214 45.5t-156.5 123.5t-85 183t2.5 224l185 873
h198z" />
    <glyph glyph-name="V" unicode="V" horiz-adv-x="1327" 
d="M246 1433h104q46 0 80.5 -25t42.5 -67l219 -1025q3 -20 3.5 -41.5t-4.5 -46.5q14 51 38 88l685 1025q26 42 70.5 67t90.5 25h114l-929 -1433h-193z" />
    <glyph glyph-name="W" unicode="W" horiz-adv-x="1993" 
d="M1158 612q-2 -1 -397 -612h-193l-321 1433h114q46 0 80.5 -25t42.5 -67l209 -1025q8 -40 -1 -88q14 51 38 88l665 1025q26 42 70.5 67t90.5 25h134l-418 -645l86 -472q4 -19 3 -41.5t-4 -48.5q7 26 16 48.5t22 41.5l665 1025q26 42 70.5 67t90.5 25h134l-929 -1433h-193
l-95 425q-16 71 -4 127q7 33 24 60z" />
    <glyph glyph-name="X" unicode="X" horiz-adv-x="1331" 
d="M944 717q-4 -19 2 -32l367 -685h-126q-58 0 -93 22.5t-54 67.5l-242 458q-5 11 -6 26.5t0 21.5l-2 -5.5t-6 -13t-8.5 -16t-9.5 -13.5l-436 -458q-77 -90 -195 -90h-136l655 689q1 2 10 13t12 25q3 16 -3 30l-355 676h116q58 0 98 -22.5t59 -67.5l231 -447q3 -7 4 -15.5
t1 -16.5v-20q3 13 10.5 27t16.5 25l436 447q38 45 87.5 67.5t107.5 22.5h136l-659 -682q-7 -6 -11.5 -16t-6.5 -18z" />
    <glyph glyph-name="Y" unicode="Y" horiz-adv-x="1336" 
d="M769 0h-198l128 606q5 22 4.5 39t-4.5 32.5t-11.5 31.5t-17.5 35l-363 689h126q58 0 98 -22.5t59 -67.5l232 -458q5 -11 5.5 -25.5t-0.5 -23.5q2 8 9 23t18 26l456 458q38 45 87.5 67.5t107.5 22.5h136l-655 -689q-18 -19 -32.5 -35t-25.5 -31.5t-18.5 -32.5t-12.5 -39z
" />
    <glyph glyph-name="Z" unicode="Z" horiz-adv-x="1248" 
d="M1201 199l-42 -199h-1073l17 82q17 76 73 129l945 1024h-735l42 199h1048l-17 -82q-16 -70 -62 -118l-972 -1052q6 4 13 8q6 3 13.5 6t16.5 3h733z" />
    <glyph glyph-name="bracketleft" unicode="[" horiz-adv-x="600" 
d="M467 1533h362l-57 -178h-164l-312 -1466h164l-18 -178h-362z" />
    <glyph glyph-name="backslash" unicode="\" horiz-adv-x="855" 
d="M829 -90h-84q-46 0 -79.5 25t-42.5 67l-329 1470h84q46 0 80 -25t43 -67z" />
    <glyph glyph-name="bracketright" unicode="]" horiz-adv-x="600" 
d="M396 -289h-362l58 178h164l312 1466h-164l17 178h362z" />
    <glyph glyph-name="asciicircum" unicode="^" horiz-adv-x="1035" 
d="M803 1449h20q46 0 80 -25t43 -67l102 -470h-71q-46 0 -79.5 25t-42.5 67l-67 301l-3 33l-17 -33l-195 -301q-27 -42 -71.5 -67t-90.5 -25h-71l302 470q27 42 71 67t90 25z" />
    <glyph glyph-name="underscore" unicode="_" horiz-adv-x="788" 
d="M716 -345h-789l40 188h789z" />
    <glyph glyph-name="grave" unicode="`" 
d="M394 1449h114q83 0 106 -44q8 -10 90 -244h-74q-84 0 -105 44z" />
    <glyph glyph-name="a" unicode="a" horiz-adv-x="1218" 
d="M1281 1049l-222 -1049h-168q-6 11 -10 24q-3 11 -5 26.5t2 33.5l2 7q-75 -62 -151.5 -84.5t-145.5 -22.5q-111 0 -197.5 42.5t-140.5 116t-72.5 172t5.5 209.5t84 209.5t145.5 172t190 116t215.5 42.5q34 0 69 -5t67 -17t61.5 -32.5t53.5 -51.5l1 7q6 20 14 35.5t16 26.5
q9 12 18 22h168zM772 871q-72 0 -138 -27.5t-119.5 -74.5t-91 -110t-52.5 -135t-4.5 -135t44 -110t87.5 -74.5t126 -27.5q77 0 156 30.5t142 83.5l99 466q-41 53 -106.5 83.5t-142.5 30.5z" />
    <glyph glyph-name="b" unicode="b" horiz-adv-x="1216" 
d="M152 0l304 1433h198l-101 -475q74 61 151 83.5t146 22.5q111 0 197 -42.5t140 -116t73 -172t-5 -209.5t-84 -209.5t-145.5 -172t-190 -116t-215.5 -42.5q-35 0 -69.5 5t-67 17.5t-61.5 33t-53 51.5l-2 -7q-5 -18 -12.5 -33.5t-15.5 -26.5q-9 -13 -19 -24h-168zM661 177
q72 0 137.5 27.5t119 74.5t91.5 110t53 135t4 135t-44 110t-87 74.5t-126 27.5q-77 0 -156.5 -30.5t-142.5 -83.5l-99 -466q41 -53 107 -83.5t143 -30.5z" />
    <glyph glyph-name="c" unicode="c" horiz-adv-x="1027" 
d="M799 872q-72 0 -141 -27.5t-126 -74.5t-98 -110t-56 -135t-1.5 -135t51 -110t94.5 -74.5t129 -27.5q45 0 91 11t89 33q21 11 41 16t43 5q32 0 56 -12t41 -35l30 -38q-91 -80 -202.5 -126.5t-229.5 -46.5q-111 0 -200.5 42.5t-147 116t-79.5 172t2 209.5q16 74 50 143
t82 129t108 109.5t127.5 84.5t140.5 54.5t147 19.5q118 0 209.5 -46.5t148.5 -126.5l-46 -38q-29 -24 -58.5 -35.5t-64.5 -11.5q-21 0 -37.5 5t-32.5 16q-33 22 -74 32t-86 12z" />
    <glyph glyph-name="d" unicode="d" horiz-adv-x="1218" 
d="M896 0q-6 11 -10 24q-3 11 -5 26.5t2 33.5l2 7q-75 -62 -151.5 -84.5t-145.5 -22.5q-111 0 -197.5 42.5t-140.5 116t-72.5 172t5.5 209.5t84 209.5t145.5 172t190 116t215.5 42.5q34 0 69 -5t67 -17t61.5 -32.5t53.5 -51.5l101 475h198l-304 -1433h-168zM777 871
q-72 0 -138 -27.5t-119.5 -74.5t-91 -110t-52.5 -135t-4.5 -135t44 -110t87.5 -74.5t126 -27.5q77 0 156 30.5t142 83.5l99 466q-41 53 -106.5 83.5t-142.5 30.5z" />
    <glyph glyph-name="e" unicode="e" horiz-adv-x="1211" 
d="M1268 614q-8 -35 -27 -62.5t-43.5 -47t-51 -30t-48.5 -10.5h-730q-3 -61 16.5 -113t57.5 -90.5t91 -60.5t116 -22q46 0 91.5 11.5t87.5 32.5q22 11 42 16t43 5q32 0 56 -12t41 -35l30 -38q-91 -80 -202.5 -126.5t-229.5 -46.5q-111 0 -200.5 42.5t-147 116t-79.5 172
t2 209.5q16 74 50 143t82 129t108 109.5t127.5 84.5t140.5 54.5t147 19.5q93 0 171.5 -31t136 -85t91 -128t37.5 -161q1 -11 -1.5 -23t-4.5 -23zM484 657h588q-9 47 -33 86.5t-59.5 68t-82 44.5t-100.5 16q-59 0 -116.5 -18.5t-107.5 -51.5t-91.5 -78.5t-69.5 -99.5
q11 11 29 22t43 11z" />
    <glyph glyph-name="f" unicode="f" horiz-adv-x="686" 
d="M383 0q-14 -63 -48 -121.5t-82 -108.5t-108 -89.5t-124 -63.5l-15 71q-2 12 -1 31.5t3 30.5q6 30 23 52.5t38 43t43.5 42t40.5 48.5q15 24 25.5 50.5t15.5 51.5l175 823h-175l22 108q18 83 171 83h22l23 107q13 61 42.5 112.5t72.5 88.5t97.5 58t117.5 21q28 0 61.5 -8
t65.5 -21t58.5 -30t40.5 -35l-30 -36q-27 -32 -64 -52.5t-76 -20.5q-32 0 -72 12q-3 0 -7 1q-8 2 -17 2q-18 0 -33 -8.5t-27 -22t-20.5 -29.5t-11.5 -32l-23 -109h271l-40 -189h-272z" />
    <glyph glyph-name="g" unicode="g" horiz-adv-x="1218" 
d="M1287 1049l-220 -959q-32 -137 -85 -233.5t-119.5 -159t-141.5 -93.5t-150 -36q-78 -5 -141 5t-115.5 25.5t-95.5 33t-82 26.5q-1 3 9.5 24t29 45t42.5 43.5t51 19.5q24 0 54.5 -9t67.5 -19t79.5 -16.5t90.5 -0.5q46 5 100 36.5t102 79.5t82.5 107.5t40.5 122.5
q-38 -31 -76 -51.5t-75.5 -32.5t-74.5 -17t-71 -5q-96 0 -173.5 32t-131.5 88t-83.5 133t-29.5 167q0 87 25 169.5t69 156t105 135t133 106t152 69t164 24.5q34 0 69 -5t67 -17.5t61.5 -33t53.5 -51.5l2 7q4 18 12 33.5t16 26.5q9 13 19 24h168zM630 178q77 0 156.5 30.5
t142.5 83.5l99 466q-42 53 -107.5 83.5t-142.5 30.5q-81 0 -155 -35t-130.5 -94.5t-90.5 -137t-34 -161.5q0 -57 18 -105.5t52 -84.5t82.5 -56t109.5 -20z" />
    <glyph glyph-name="h" unicode="h" horiz-adv-x="1164" 
d="M618 1433q6 -11 10 -24q3 -11 4.5 -26.5t-2.5 -33.5l-90 -426q26 35 63 61.5t81 44.5t92.5 27t96.5 9q88 0 154 -33t104.5 -94t48.5 -147.5t-13 -193.5l-126 -597h-198l126 597q14 65 13 117t-17.5 88t-49 55.5t-82.5 19.5q-60 0 -117 -14.5t-103.5 -39.5t-79 -58
t-42.5 -69l-147 -696h-198l304 1433h168z" />
    <glyph glyph-name="i" unicode="i" horiz-adv-x="532" 
d="M587 1050l-223 -1050h-198l223 1050h198zM410 1314q6 28 21.5 52.5t37.5 43t49 29t55 10.5t50.5 -10.5t37 -29t20 -43t-0.5 -52.5t-22 -52.5t-38 -43t-49 -29t-55 -10.5t-50.5 10.5t-36.5 29t-19.5 43t0.5 52.5z" />
    <glyph glyph-name="j" unicode="j" horiz-adv-x="530" 
d="M371 37q-17 -73 -52.5 -138.5t-84.5 -120t-109 -96t-124 -65.5l-15 71q-2 12 -1 31.5t3 30.5q6 30 22.5 53t37.5 44t43.5 43t40.5 49q15 24 26 49t16 50l215 1012h198zM410 1314q6 28 21.5 52.5t37.5 43t49 29t55 10.5t50.5 -10.5t37 -29t20 -43t-0.5 -52.5t-22 -52.5
t-38 -43t-49 -29t-55 -10.5t-50.5 10.5t-36.5 29t-19.5 43t0.5 52.5z" />
    <glyph glyph-name="k" unicode="k" horiz-adv-x="1087" 
d="M350 0h-198l304 1433h198zM598 604l339 356q38 45 87.5 67.5t107.5 22.5h151l-476 -480q-14 -14 -24.5 -20.5t-12.5 -7.5q2 -2 9.5 -8t15.5 -20l272 -514h-126q-58 0 -93 22.5t-54 67.5l-207 390q-9 17 -22 28.5t-24.5 18.5t-20 10.5t-9.5 4.5q3 1 28.5 13.5t58.5 48.5z
" />
    <glyph glyph-name="l" unicode="l" horiz-adv-x="532" 
d="M668 1433l-304 -1433h-198l304 1433h198z" />
    <glyph glyph-name="m" unicode="m" horiz-adv-x="1719" 
d="M1082 860q31 54 75.5 93t96.5 64t107 36.5t107 11.5q96 0 154.5 -40t87 -106t30 -150.5t-17.5 -173.5l-126 -595h-202l126 594q9 43 13 92.5t-5.5 90.5t-36.5 68.5t-79 27.5q-51 0 -99.5 -14.5t-89 -39.5t-68.5 -57.5t-38 -68.5l-147 -693h-202l126 594q9 43 13 92.5
t-5.5 90.5t-36.5 68.5t-79 27.5q-51 0 -99.5 -14.5t-89 -39.5t-68.5 -57.5t-38 -68.5l-147 -693h-198l223 1050h168l3 -6.5t6.5 -17.5t5 -26.5t-2.5 -33.5l-9 -42q25 36 60 62.5t74.5 44t82.5 26t85 8.5q62 0 105.5 -14t72 -40.5t43.5 -64.5t19 -86z" />
    <glyph glyph-name="n" unicode="n" horiz-adv-x="1164" 
d="M537 1050l3 -6.5t6.5 -17.5t5 -26.5t-2.5 -33.5l-9 -43q26 35 63 61.5t81 44.5t92.5 27t96.5 9q88 0 154 -31.5t105 -91.5t49 -147t-14 -198l-126 -597h-198l126 597q14 65 13 117t-17.5 88t-49 55.5t-82.5 19.5q-60 0 -116.5 -13.5t-102.5 -36.5t-78.5 -55t-42.5 -68
l-149 -704h-198l223 1050h168z" />
    <glyph glyph-name="o" unicode="o" horiz-adv-x="1226" 
d="M183 525q24 111 84 209.5t147 172t195.5 116t228.5 42.5q97 0 177.5 -32.5t138 -90t89.5 -136t32 -169.5q0 -96 -26.5 -182t-73 -158.5t-109.5 -130t-137.5 -98t-156 -62t-164.5 -21.5q-97 0 -177.5 32.5t-138 90t-89.5 135.5t-32 170q0 55 12 112zM376 525
q-4 -19 -6 -37t-2 -36q0 -59 15 -109t48.5 -86.5t87 -57.5t130.5 -21q80 0 157 34t137.5 92t97.5 134t37 159q0 59 -15 109.5t-49 87t-87.5 57.5t-129.5 21q-72 0 -141 -27.5t-126 -74.5t-98 -110t-56 -135z" />
    <glyph glyph-name="p" unicode="p" horiz-adv-x="1203" 
d="M537 1050l3 -6.5t6.5 -17.5t5 -26.5t-2.5 -33.5l-9 -41q8 27 28.5 48t48 36.5t59.5 26t62.5 17t58.5 9.5t47 3q111 0 197 -42.5t140 -116t73 -172t-5 -209.5t-84 -209.5t-145.5 -172t-190 -116t-215.5 -42.5q-35 0 -69.5 5t-67 17t-61.5 32.5t-53 51.5l-92 -430h-198
l296 1389h168zM655 178q72 0 137.5 27.5t119 74.5t91.5 110t53 135t4.5 135t-44 110t-87.5 74.5t-126 27.5q-77 0 -156 -30.5t-142 -83.5l-99 -466q41 -53 106.5 -83.5t142.5 -30.5z" />
    <glyph glyph-name="q" unicode="q" horiz-adv-x="1218" 
d="M1286 1049l-295 -1389h-198l92 431q-38 -31 -76 -51.5t-75.5 -32.5t-74.5 -17t-71 -5q-111 0 -197.5 42.5t-140.5 116t-72.5 172t5.5 209.5t84 209.5t145.5 172t190 116t215.5 42.5q34 0 69 -5t67 -17.5t61.5 -33t53.5 -51.5l2 7q4 18 12 33.5t16 26.5q9 13 19 24h168z
M629 178q77 0 156.5 30.5t142.5 83.5l99 466q-42 53 -107.5 83.5t-142.5 30.5q-72 0 -137.5 -27.5t-119 -74.5t-91.5 -110t-53 -135t-4.5 -135t44 -110t87.5 -74.5t126 -27.5z" />
    <glyph glyph-name="r" unicode="r" horiz-adv-x="780" 
d="M537 1050l3 -6.5t6.5 -17.5t5 -26.5t-2.5 -33.5l-16 -73q26 36 64.5 67t83.5 54.5t94.5 37t97.5 13.5q81 0 147 -29l-33 -85q-17 -42 -50 -65.5t-74 -23.5q-5 0 -6 0.5t-3.5 0.5t-7.5 0.5t-18 0.5q-60 0 -117 -17.5t-103.5 -45.5t-79.5 -63.5t-43 -71.5l-141 -666h-198
l223 1050h168z" />
    <glyph glyph-name="s" unicode="s" horiz-adv-x="852" 
d="M163 225q22 10 43 16.5t41 6.5q26 0 47.5 -10t49.5 -33q20 -16 45.5 -23t54.5 -7q31 0 63.5 9.5t60.5 28t48.5 45.5t28.5 63q6 28 1.5 48t-22 36.5t-49.5 32t-81 33.5q-51 19 -99.5 43.5t-83 59.5t-50 85t-0.5 120q13 61 52 113.5t92.5 90.5t116.5 60t123 22
q61 0 106.5 -22t76.5 -50t47.5 -53t19.5 -31l-56 -40q-49 -36 -105 -36q-20 0 -41 8.5t-48 23.5q-9 5 -19.5 7.5t-21.5 2.5q-39 0 -67 -11t-46.5 -26.5t-28 -32t-11.5 -26.5q-6 -29 4.5 -48.5t31.5 -34t49.5 -25.5t57.5 -21q37 -13 72 -28.5t65.5 -35.5t54.5 -45.5
t38.5 -57.5t18 -72.5t-7.5 -89.5q-15 -68 -54.5 -128.5t-97 -107t-129.5 -73.5t-151 -27q-54 0 -102 14.5t-87 42.5t-67.5 67t-42.5 89z" />
    <glyph glyph-name="t" unicode="t" horiz-adv-x="759" 
d="M457 265q-3 -16 -2 -32t7.5 -29.5t18 -22t29.5 -8.5l25 3q46 12 77 12q41 0 68 -21t41 -52l17 -35q-23 -18 -57 -35.5t-71.5 -30.5t-74.5 -21t-65 -8q-63 0 -108.5 21t-72.5 58t-35 88.5t5 112.5l127 596h-175l22 108q18 83 171 83h22l46 216q7 32 20 60t27 48
q16 24 33 43h150l-78 -368h291l-40 -190h-291z" />
    <glyph glyph-name="u" unicode="u" horiz-adv-x="1164" 
d="M849 0l-3 6.5t-6.5 17.5t-5.5 26.5t2 33.5l9 43q-26 -36 -63 -62.5t-81 -44t-92.5 -26.5t-96.5 -9q-89 0 -154.5 33t-104 94t-48.5 147.5t13 193.5l127 597h198l-127 -597q-14 -65 -13 -117t17.5 -88t49 -55.5t82.5 -19.5q60 0 117 14.5t103.5 39.5t78.5 58t43 69
l148 696h198l-223 -1050h-168z" />
    <glyph glyph-name="v" unicode="v" horiz-adv-x="1047" 
d="M188 1050h104q46 0 80.5 -25t41.5 -67l134 -642q7 -38 -2 -92q14 53 39 92l436 643q27 42 71.5 67t90.5 25h114l-681 -1051h-193z" />
    <glyph glyph-name="w" unicode="w" horiz-adv-x="1721" 
d="M1022 612q-2 -1 -397 -612h-193l-235 1050h114q46 0 80.5 -25t41.5 -67l124 -642q5 -20 3.5 -44.5t-6.5 -52.5q14 58 40 97l416 643q27 42 71.5 67t90.5 25h134l-171 -263l87 -472q2 -19 2.5 -40.5t-3.5 -47.5q7 26 16 47.5t22 40.5l416 643q27 42 71.5 67t90.5 25h134
l-681 -1051h-193l-95 425q-16 71 -4 127q7 33 24 60z" />
    <glyph glyph-name="x" unicode="x" horiz-adv-x="1143" 
d="M1325 1050l-471 -485q-10 -13 -13 -28q-4 -18 3 -32l271 -505h-136q-58 0 -88 22.5t-49 67.5l-166 313q-6 10 -6 26t1 23q-3 -6 -10.5 -22.5t-16.5 -26.5l-298 -313q-77 -90 -195 -90h-136l489 515q12 12 17 32q2 8 1.5 15t-2.5 13l-249 475h116q118 0 157 -90l141 -279
q6 -12 5 -29t1 -22q2 5 8.5 22t17.5 29l277 279q38 45 87.5 67.5t107.5 22.5h136z" />
    <glyph glyph-name="y" unicode="y" horiz-adv-x="1133" 
d="M251 1050h114q46 0 81 -25t41 -67l109 -533q8 -36 8.5 -68t-4.5 -60q-3 -14 -8 -26.5t-11 -24.5q22 35 133.5 198t304.5 461l34 53q27 42 71 67t91 25h114l-871 -1343q-13 -23 -31.5 -40.5t-40.5 -30t-45.5 -19t-46.5 -6.5h-114l291 450z" />
    <glyph glyph-name="z" unicode="z" horiz-adv-x="952" 
d="M904 198l-42 -198h-792l17 81q15 76 73 129l592 642h-469l42 198h772l-18 -81q-14 -68 -62 -118l-618 -668q8 3 18 7q8 3 18.5 5.5t22.5 2.5h446z" />
    <glyph glyph-name="braceleft" unicode="{" horiz-adv-x="600" 
d="M233 695q10 0 31 5.5t44 20t42.5 38t27.5 59.5q13 63 16 103.5t3 76.5t2.5 75t14.5 98q22 102 75 186.5t146 138.5q29 16 55.5 27t47 17t33.5 9t16 3q-1 -23 -2 -37.5t-1.5 -23.5t-1 -14t-1.5 -9q-7 -33 -22 -57t-32.5 -41.5t-33.5 -29t-25 -20.5q-29 -27 -47 -67
t-26 -81q-11 -49 -12 -84.5t-2 -72t-4.5 -82.5t-18.5 -117q-8 -38 -24.5 -71.5t-40 -60.5t-53 -45t-63.5 -24q32 -6 54 -24t34 -44.5t14 -60.5t-6 -71q-15 -71 -31 -117t-31 -83t-29 -72t-24 -84q-8 -41 -7 -81.5t18 -66.5q5 -9 16 -20.5t21 -29t14.5 -41.5t-2.5 -57
q-1 -4 -2.5 -9t-4.5 -14t-8 -23.5t-14 -37.5q-3 0 -15 3t-30 9t-39.5 16.5t-43.5 27.5q-35 27 -56.5 62t-31 76.5t-8 88.5t12.5 98q13 59 27.5 98t29.5 75t29.5 76.5t27.5 103.5q8 36 -2 59.5t-27 37.5t-35.5 20t-28.5 6z" />
    <glyph glyph-name="bar" unicode="|" horiz-adv-x="600" 
d="M545 1578h178l-397 -1866h-178z" />
    <glyph glyph-name="braceright" unicode="}" horiz-adv-x="600" 
d="M632 536q-10 0 -31 -6t-43.5 -20t-42.5 -37.5t-28 -59.5q-9 -42 -12.5 -73.5t-5 -57.5t-1 -49.5t-0.5 -48.5t-4.5 -55t-12.5 -69q-22 -102 -75 -186.5t-146 -138.5q-29 -17 -55 -27.5t-47 -16.5t-34 -9t-16 -3q1 23 2 37.5t2 23.5t1.5 14t1.5 9q7 33 22 57t32.5 41.5
t33.5 29t25 20.5q28 26 46 66t27 82q7 33 9.5 59t3.5 49.5t1 47.5t2 52.5t6.5 64.5t14.5 83q8 37 24 71t39.5 60.5t52.5 44.5t64 24q-32 6 -53.5 24t-33.5 45t-14 60.5t6 71.5q15 71 31 117t31 82.5t28.5 72t24.5 84.5q8 41 7 81t-18 67q-5 9 -16 20.5t-21 29t-14.5 41.5
t2.5 57q1 4 2 9t4 14t8 23.5t14 37.5q3 0 15 -3t30 -9t40 -17t43 -27q70 -54 87.5 -138.5t-4.5 -186.5q-12 -59 -26.5 -98t-29.5 -75t-30 -76.5t-28 -103.5q-8 -36 2 -59.5t27 -38t35.5 -20t28.5 -5.5z" />
    <glyph glyph-name="asciitilde" unicode="~" horiz-adv-x="1160" 
d="M201 503q4 6 17 28t34.5 50.5t51.5 60t68 58t84 43.5t99 17q67 0 114.5 -16t87 -35.5t78 -35.5t87.5 -16q29 0 49 17t39 37.5t41.5 37.5t56.5 17q13 -1 29 -2t36 -6l59 -17q-1 -3 -6 -14t-15 -28.5t-24.5 -39t-33.5 -45.5q-58 -72 -127.5 -109.5t-143.5 -37.5
q-45 0 -80.5 7.5t-65.5 19t-56 25t-52 25t-53.5 19t-59.5 7.5q-29 0 -50.5 -16t-41.5 -34.5t-41 -34.5t-48 -16q-14 0 -33 2.5t-42 10.5z" />
    <glyph glyph-name="exclamdown" unicode="&#xa1;" horiz-adv-x="686" 
d="M577 641l-209 -980h-198l209 980h198zM414 975q6 28 21.5 52.5t37.5 43t49 29t55 10.5t50.5 -10.5t37 -29t20 -43t-0.5 -52.5t-22 -52.5t-38 -43t-49 -29t-55 -10.5t-50.5 10.5t-36.5 29t-19.5 43t0.5 52.5z" />
    <glyph glyph-name="cent" unicode="&#xa2;" horiz-adv-x="1027" 
d="M789 1229h104l-35 -165q112 -4 198.5 -49.5t141.5 -122.5l-46 -38q-29 -24 -58.5 -35.5t-64.5 -11.5q-21 0 -37.5 5t-32.5 16q-30 20 -66 30t-76 13l-148 -693q83 5 162 44q19 10 38.5 15.5t40.5 5.5q36 0 60.5 -12t41.5 -35l30 -38q-88 -77 -194 -122.5t-219 -49.5
l-36 -165h-104l37 171q-93 15 -166 62.5t-119 118.5t-61.5 161t5.5 191q21 100 75 190t130 161t169 118.5t193 63.5zM378 525q-13 -61 -5 -115.5t33.5 -99t67 -76t94.5 -45.5l143 672q-60 -15 -114.5 -46.5t-99 -76t-75.5 -99t-44 -114.5z" />
    <glyph glyph-name="sterling" unicode="&#xa3;" horiz-adv-x="1160" 
d="M954 724l-22 -104h-366l-46 -216q-9 -44 -23 -75t-33.5 -54t-44 -41.5t-54.5 -36.5h772l-21 -197h-1017l23 109q5 24 11 39.5t18 25.5q16 12 41 33t51 50t47.5 64.5t30.5 75.5l47 223h-147l22 104h147l59 278q20 93 72.5 174.5t126.5 142t163 96t182 35.5q65 0 121 -17.5
t100 -49.5t75.5 -76t48.5 -98l-45 -23q-32 -16 -57 -22t-45 -6q-23 0 -41 6t-31.5 15t-24 18.5t-19.5 15.5q-51 39 -124 39q-51 0 -101 -20t-91 -54t-71 -79.5t-41 -96.5l-59 -278h366z" />
    <glyph glyph-name="currency" unicode="&#xa4;" horiz-adv-x="1160" 
d="M332 667q14 65 47 123.5t79 106.5l-64 82l88 73l64 -81q56 37 119 57.5t129 20.5t120 -20.5t96 -58.5l99 82l58 -73l-100 -82q26 -48 34 -106.5t-6 -123.5q-14 -66 -46.5 -124.5t-80.5 -106.5l66 -84l-88 -74l-67 85q-57 -36 -119.5 -56.5t-127.5 -20.5t-119 20t-94 56
l-101 -84l-59 74l101 83q-26 48 -34 107t6 125zM500 667q-9 -44 -0.5 -83t31 -68t58 -45.5t79.5 -16.5t86.5 16.5t77.5 45.5t60 68t34 83t1 83t-30.5 68t-58 45.5t-79.5 16.5t-86.5 -16.5t-78 -45.5t-60.5 -68t-34 -83z" />
    <glyph glyph-name="yen" unicode="&#xa5;" horiz-adv-x="1336" 
d="M1141 604l-22 -104h-244l-19 -87h244l-22 -104h-244l-65 -309h-198l65 309h-246l22 104h246l19 87h-246l22 104h246v2q5 22 4.5 39t-4.5 32.5t-11.5 31.5t-17.5 35l-363 689h136q58 0 98 -22.5t59 -67.5l242 -458q5 -11 5.5 -25.5t-0.5 -23.5q2 8 9 23t18 26l436 458
q38 45 87.5 67.5t107.5 22.5h136l-655 -689q-18 -19 -32.5 -35t-25.5 -31.5t-18.5 -32.5t-12.5 -39v-2h244z" />
    <glyph glyph-name="brokenbar" unicode="&#xa6;" horiz-adv-x="600" 
d="M545 1578h178l-170 -798h-178zM318 510h178l-170 -798h-178z" />
    <glyph glyph-name="section" unicode="&#xa7;" horiz-adv-x="1006" 
d="M754 376q31 -11 52 -31.5t31.5 -49t12 -63t-6.5 -71.5q-15 -69 -55 -123.5t-94.5 -92t-119 -57t-128.5 -19.5q-47 0 -89.5 16.5t-78 41.5t-63 55.5t-43.5 57.5l56 35q20 14 41.5 22t44.5 8q18 0 34.5 -4t27.5 -13q27 -23 53 -35.5t53 -12.5q33 0 65 9t58 25.5t43.5 38.5
t23.5 48q7 34 -0.5 56.5t-32 41t-67 36.5t-103.5 42q-63 25 -108.5 55t-72.5 68.5t-34.5 86.5t5.5 110q10 49 35.5 96t61.5 87.5t79.5 73t91.5 53.5q-34 5 -55.5 24t-32 47.5t-11 63.5t7.5 71q15 69 55 123t95 91.5t119.5 57.5t127.5 20q47 0 89.5 -16.5t78 -42t62.5 -56
t43 -57.5l-55 -35q-21 -14 -42 -21.5t-44 -7.5q-20 0 -35.5 3.5t-27.5 13.5q-27 21 -54 34t-52 13q-33 0 -65 -9t-57.5 -25t-43.5 -38t-23 -48q-8 -34 0 -57t32.5 -41.5t66.5 -36t104 -41.5t107 -54t72 -69t35 -88t-5 -109q-10 -48 -35.5 -96t-61 -89t-79 -71.5t-89.5 -44.5
zM680 833q-36 0 -76 -11.5t-76 -34t-63 -55t-36 -75.5q-8 -36 4 -65.5t36.5 -49.5t58.5 -31t71 -11q36 0 76 11.5t75.5 34t62.5 55.5t36 76q8 36 -4 64.5t-36.5 49t-58.5 31.5t-70 11z" />
    <glyph glyph-name="dieresis" unicode="&#xa8;" 
d="M291 1290q5 25 19 46.5t33.5 38t43 26t48.5 9.5t45 -9.5t32.5 -26t17.5 -38t0 -46.5t-19.5 -46.5t-34 -37.5t-43.5 -25.5t-49 -9.5t-44.5 9.5t-32 25.5t-17 37.5t0.5 46.5zM630 1290q5 25 19 46.5t33.5 38t43 26t48.5 9.5t45 -9.5t32.5 -26t17.5 -38t0 -46.5t-19.5 -46.5
t-34 -37.5t-43.5 -25.5t-49 -9.5t-44.5 9.5t-32 25.5t-17 37.5t0.5 46.5z" />
    <glyph glyph-name="copyright" unicode="&#xa9;" horiz-adv-x="1596" 
d="M221 717q21 101 67.5 194.5t111 175t145.5 148t172.5 114.5t190.5 74t200 26t189 -26t159.5 -74t124 -114.5t83 -148t36.5 -175t-15 -194.5q-22 -101 -68 -194.5t-111 -175t-146 -148t-172.5 -114.5t-190.5 -74t-200 -26t-189 26t-159 74t-123.5 114.5t-83 148t-37 175
t15.5 194.5zM323 717q-19 -87 -13.5 -167.5t32 -150.5t71.5 -127.5t106.5 -98.5t137 -63.5t162.5 -22.5t172 22.5t164 63.5t148.5 98.5t125.5 127.5t95.5 150.5t58.5 167.5q18 87 13 167.5t-31.5 150.5t-71.5 127.5t-106.5 98.5t-137 63.5t-162.5 22.5t-172 -22.5
t-164 -63.5t-148.5 -98.5t-125.5 -127.5t-96 -150.5t-58 -167.5zM603 717q-15 -72 -1.5 -135t50.5 -110t94 -74t129 -27q55 0 107.5 16.5t102.5 45.5q27 16 57 16q23 0 39 -8t27 -22l18 -24q-80 -71 -177.5 -111.5t-200.5 -40.5q-98 0 -176.5 37.5t-129 102t-69.5 150.5
t2 184q14 65 43.5 125.5t72 113.5t95 96t111.5 74t123.5 48t129.5 17q103 0 183 -40.5t130 -111.5l-29 -24q-17 -14 -36 -22.5t-42 -8.5q-29 0 -51 17q-37 29 -82.5 45.5t-100.5 16.5q-72 0 -140.5 -27t-125.5 -74t-97.5 -110t-55.5 -135z" />
    <glyph glyph-name="ordfeminine" unicode="&#xaa;" horiz-adv-x="726" 
d="M412 1486q10 10 22 21q11 9 25.5 20.5t34.5 22.5q48 27 100 42t113 15q92 0 142 -33t69.5 -87t15 -123t-19.5 -142l-79 -372h-115q-7 11 -10 27t1 33l1 5q-24 -20 -55 -34t-63 -23.5t-63.5 -14t-56.5 -4.5q-56 0 -99 16t-69.5 46t-36 71.5t1.5 92.5q12 55 42 99.5t79 76
t117 48.5t155 17q24 0 46 -1t39.5 -2.5t29 -3t13.5 -2.5q11 52 5 86t-23.5 53.5t-43 27t-52.5 7.5q-35 0 -56 -6t-37.5 -13.5t-33 -13.5t-41.5 -6q-36 0 -64 26zM502 975q51 0 114.5 18t123.5 49l25 118q-3 1 -14.5 2.5t-29.5 3.5t-40 3.5t-45 1.5q-44 0 -83 -5.5t-70 -18.5
t-51 -33t-26 -49q-5 -25 0 -42.5t18.5 -28t33.5 -15t44 -4.5z" />
    <glyph glyph-name="guillemotleft" unicode="&#xab;" horiz-adv-x="926" 
d="M475 865q27 42 71.5 67t90.5 25h61l-226 -352q-16 -25 -39 -44.5t-49 -31.5q45 -25 56 -75l76 -352h-61q-46 0 -79.5 25t-42.5 67l-69 319q-2 8 -8 11.5t-7 4.5q2 1 9 5t13 12zM769 865q27 42 71.5 67t90.5 25h61l-226 -352q-16 -25 -39 -44.5t-49 -31.5q45 -25 56 -75
l76 -352h-61q-46 0 -79.5 25t-42.5 67l-69 319q-2 8 -8 11.5t-7 4.5q2 1 9 5t13 12z" />
    <glyph glyph-name="logicalnot" unicode="&#xac;" horiz-adv-x="1160" 
d="M886 316l46 219h-669l40 188h857l-86 -407h-188z" />
    <glyph glyph-name="uni00AD" unicode="&#xad;" horiz-adv-x="694" 
d="M706 505h-506l40 188h506z" />
    <glyph glyph-name="registered" unicode="&#xae;" horiz-adv-x="1596" 
d="M221 717q21 101 67.5 194.5t111 175t145.5 148t172.5 114.5t190.5 74t200 26t189 -26t159.5 -74t124 -114.5t83 -148t36.5 -175t-15 -194.5q-22 -101 -68 -194.5t-111 -175t-146 -148t-172.5 -114.5t-190.5 -74t-200 -26t-189 26t-159 74t-123.5 114.5t-83 148t-37 175
t15.5 194.5zM323 717q-19 -87 -13.5 -167.5t32 -150.5t71.5 -127.5t106.5 -98.5t137 -63.5t162.5 -22.5q90 0 176.5 23.5t167.5 67.5l-244 461h-137l-81 -382h-127l195 918h330q55 0 99.5 -21t73.5 -57t39.5 -85t-1.5 -105q-9 -45 -31.5 -85.5t-54.5 -74t-71.5 -58
t-82.5 -37.5l210 -399q56 43 105 95.5t88 111.5t67 123.5t43 133.5q18 87 13 167.5t-31.5 150.5t-71.5 127.5t-106.5 98.5t-137 63.5t-162.5 22.5t-172 -22.5t-164 -63.5t-148.5 -98.5t-125.5 -127.5t-96 -150.5t-58 -167.5zM859 1049l-60 -283h203q29 0 57 11t51.5 30
t40 45t22.5 55t0.5 55t-20.5 45.5t-38.5 30.5t-52.5 11h-203z" />
    <glyph glyph-name="macron" unicode="&#xaf;" 
d="M316 1348h554l-31 -148h-554z" />
    <glyph glyph-name="degree" unicode="&#xb0;" horiz-adv-x="794" 
d="M315 1128q14 66 52 124.5t90.5 102t116.5 69t130 25.5t119.5 -25.5t88 -69t47 -102t-1.5 -124.5t-51.5 -124.5t-90.5 -102t-117 -69t-130 -25.5t-119 25.5t-87.5 69t-47.5 102t1 124.5zM445 1128q-8 -39 -0.5 -74t28 -61t52.5 -41t71 -15t77 15t69.5 41t54 61t30.5 74
q9 39 1 74t-28 61t-52 41t-71 15t-77 -15t-69.5 -41t-54 -61t-31.5 -74z" />
    <glyph glyph-name="plusminus" unicode="&#xb1;" horiz-adv-x="1160" 
d="M574 420l71 333h-383l40 188h383l81 383h188l-81 -383h383l-40 -188h-383l-71 -333h-188zM1097 193h-954l39 188h954z" />
    <glyph glyph-name="twosuperior" unicode="&#xb2;" horiz-adv-x="664" 
d="M774 882h-496l13 61q3 15 14 38t31 40q92 75 171 143q34 29 68 59t63.5 58t53 52.5t36.5 42.5q6 8 9.5 14t6.5 20q5 23 -2.5 40.5t-22.5 29.5t-34.5 18.5t-39.5 6.5q-27 0 -49.5 -9.5t-42 -20.5t-38.5 -20.5t-39 -9.5q-11 0 -18.5 3.5t-15.5 7.5l-39 21q18 28 44.5 57
t61 52t76 38t89.5 15q50 0 92.5 -17t71 -47t40 -72t0.5 -93q-8 -36 -23 -63.5t-38 -55.5q-27 -32 -70 -73t-87.5 -80.5t-83 -71.5t-55.5 -45h283z" />
    <glyph glyph-name="threesuperior" unicode="&#xb3;" horiz-adv-x="664" 
d="M539 875q-117 0 -175 61q-10 11 -18 25.5t-14 29t-10 27.5t-6 22l45 20q14 7 24 11t27 4q16 0 32 -8t27 -20l8 -7q13 -14 31.5 -22t44.5 -8q21 0 40.5 7.5t36 21t28 31.5t15.5 38q4 21 0.5 39.5t-14 32.5t-26.5 22t-37 8h-66l28 134h66q16 0 31.5 6t28.5 16.5t22.5 25
t13.5 31.5q7 32 -11.5 55.5t-50.5 23.5h-6q-11 0 -25.5 -7t-31 -15.5t-34.5 -15.5t-36 -7h-4q-17 0 -29.5 6.5t-22.5 15.5l-34 31q58 56 120 91.5t125 35.5q44 0 80.5 -16.5t60.5 -45t33.5 -67.5t-0.5 -85q-4 -18 -14 -37.5t-23.5 -39t-29.5 -37t-31 -29.5
q30 -28 45.5 -75.5t5.5 -96.5q-10 -47 -36 -88.5t-62 -73t-80.5 -50.5t-91.5 -21z" />
    <glyph glyph-name="acute" unicode="&#xb4;" 
d="M532 1205q-44 -44 -125 -44h-74q91 117 139.5 178t54.5 66q41 44 124 44h114z" />
    <glyph glyph-name="mu" unicode="&#xb5;" horiz-adv-x="1164" 
d="M345 1050h198l-148 -696q-5 -36 6 -68t37.5 -56.5t68.5 -40t98 -16.5q57 1 105.5 16.5t86 40t62.5 56.5t35 68l148 696h198l-223 -1050h-168l-3 6.5t-6.5 17.5t-5.5 26.5t2 33.5l9 43q-103 -142 -279 -142q-177 0 -220 142l-99 -467h-198z" />
    <glyph glyph-name="paragraph" unicode="&#xb6;" horiz-adv-x="1338" 
d="M247 977q20 94 73.5 177.5t128.5 145t165 97.5t185 36h807l-38 -178h-209l-309 -1453h-178l309 1453h-242l-309 -1453h-178l153 720q-95 0 -170 35.5t-123.5 97.5t-66.5 144.5t2 177.5z" />
    <glyph glyph-name="periodcentered" unicode="&#xb7;" horiz-adv-x="546" 
d="M265 595q6 28 22 52.5t38 43t49 29t55 10.5t50.5 -10.5t36.5 -29t19.5 -43t-0.5 -52.5t-22 -52.5t-38 -43t-49 -29t-55 -10.5t-50.5 10.5t-36.5 29t-19.5 43t0.5 52.5z" />
    <glyph glyph-name="cedilla" unicode="&#xb8;" 
d="M203 10h106l-18 -76q40 -3 73 -16t54.5 -33t31 -45.5t3.5 -53.5q-6 -31 -29.5 -58t-58 -47.5t-77 -32.5t-88.5 -12q-22 0 -42 6t-36 14q-18 9 -35 21l15 73q18 -7 37 -12q17 -5 38 -8t42 -3q18 0 35 4.5t31 13t23 19t12 22.5q5 24 -17 41.5t-58 17.5q-8 0 -17 -0.5
t-17 -0.5q-19 0 -29.5 8.5t-3.5 40.5z" />
    <glyph glyph-name="onesuperior" unicode="&#xb9;" horiz-adv-x="664" 
d="M772 885h-421l29 139h149l86 404q-19 -13 -40.5 -20t-39.5 -7q-11 0 -22.5 3.5t-19.5 13.5l-34 41l219 175h119l-130 -610h134z" />
    <glyph glyph-name="ordmasculine" unicode="&#xba;" horiz-adv-x="876" 
d="M283 1082q16 76 59 143t103 116.5t133 78.5t149 29t137 -29t100 -78.5t53.5 -116.5t-1.5 -143t-59 -143t-103 -116.5t-133 -78t-149 -28.5t-137 28.5t-100 78t-53.5 116.5t1.5 143zM456 1082q-8 -40 -0.5 -75t28 -61.5t52.5 -41.5t72 -15t78.5 15t70.5 41.5t54.5 61.5
t30.5 75q9 40 1.5 75t-28 61.5t-52.5 41.5t-72 15t-78.5 -15t-70.5 -41.5t-54.5 -61.5t-31.5 -75z" />
    </font>
</defs>
</svg>
