<?xml version="1.0" standalone="no"?>
<!DOCTYPE svg PUBLIC "-//W3C//DTD SVG 1.1//EN" "http://www.w3.org/Graphics/SVG/1.1/DTD/svg11.dtd" >
<svg xmlns="http://www.w3.org/2000/svg" xmlns:xlink="http://www.w3.org/1999/xlink" version="1.1">
<metadata>
Created by FontForge 20170731 at Wed May 25 17:53:19 2016
 By Aleksey,,,
Copyright (c) 2015 by Francesco Canovaro. All rights reserved.
</metadata>
<defs>
<font id="AquawaxIcons-Medium" horiz-adv-x="1552" >
  <font-face 
    font-family="Aquawax Icons"
    font-weight="500"
    font-stretch="normal"
    units-per-em="2000"
    panose-1="2 0 5 3 2 0 0 2 0 4"
    ascent="1610"
    descent="-390"
    x-height="1289"
    cap-height="1433"
    bbox="-134 -305 2051 1597"
    underline-thickness="120"
    underline-position="-320"
    unicode-range="U+0020-2212"
  />
<missing-glyph horiz-adv-x="1817" 
d="M1646 132q0 -31 -11.5 -57.5t-31.5 -46.5t-46.5 -31.5t-57.5 -11.5h-1170q-31 0 -57.5 11.5t-46.5 31.5t-31.5 46.5t-11.5 57.5v1170q0 31 11.5 57.5t31.5 46.5t46.5 31.5t57.5 11.5h1170q31 0 57.5 -11.5t46.5 -31.5t31.5 -46.5t11.5 -57.5v-1170z" />
    <glyph glyph-name=".notdef" horiz-adv-x="1817" 
d="M1646 132q0 -31 -11.5 -57.5t-31.5 -46.5t-46.5 -31.5t-57.5 -11.5h-1170q-31 0 -57.5 11.5t-46.5 31.5t-31.5 46.5t-11.5 57.5v1170q0 31 11.5 57.5t31.5 46.5t46.5 31.5t57.5 11.5h1170q31 0 57.5 -11.5t46.5 -31.5t31.5 -46.5t11.5 -57.5v-1170z" />
    <glyph glyph-name=".null" horiz-adv-x="0" 
 />
    <glyph glyph-name="nonmarkingreturn" horiz-adv-x="666" 
 />
    <glyph glyph-name="space" unicode=" " horiz-adv-x="617" 
 />
    <glyph glyph-name="exclam" unicode="!" horiz-adv-x="1990" 
d="M974 1445q27 0 47 -20t37 -48l714 -1239q13 -20 18.5 -35.5t5.5 -31.5q0 -39 -28 -58t-67 -19q-10 0 -14 2l-713 2l-713 -2q-4 -2 -14 -2q-38 0 -66.5 19t-28.5 58q0 16 5.5 31.5t18.5 35.5l714 1239q17 26 35 46t47 22h2zM870 1053v-530h210v530h-210zM974 402
q-32 0 -58 -10.5t-44 -28t-27.5 -41t-9.5 -49.5q0 -27 10 -51t28.5 -41.5t44.5 -27.5t58 -10q64 0 101 37.5t39 92.5q0 27 -10 50.5t-28 41t-44.5 27.5t-59.5 10z" />
    <glyph glyph-name="quotedbl" unicode="&#x22;" horiz-adv-x="1430" 
d="M1066 1442q45 0 85 -17t69 -46.5t46 -68.5t17 -84v-1008q0 -45 -17 -85t-46 -69t-69 -46t-85 -17h-719q-45 0 -85 17t-69 46t-46 69t-17 85v1008q0 45 17 84t46 68.5t69 46.5t85 17h719zM707 74q30 0 51 20.5t21 51.5q0 30 -21 51t-51 21q-31 0 -52 -21t-21 -51
q0 -31 21 -51.5t52 -20.5zM1066 289v937h-719v-937h719zM799 1146v-465h-183v465h183zM707 592q28 0 51 -9.5t39.5 -25t25 -36.5t8.5 -44q0 -24 -9 -45t-25 -36t-38.5 -24t-50.5 -9q-57 0 -90 33t-33 81q0 23 8.5 44t24 36.5t38 25t51.5 9.5z" />
    <glyph glyph-name="numbersign" unicode="#" horiz-adv-x="1904" 
d="M1727 522q0 -36 -13 -67t-36 -54t-54 -36t-67 -13h-406l-301 -314q-14 -15 -33.5 -29t-43.5 -14q-36 0 -60.5 24.5t-24.5 60.5l2 272h-380q-36 0 -67 13t-54 36t-36 54t-13 67v735q0 36 13 67t36 54t54 36t67 13h1247q36 0 67 -13t54 -36t36 -54t13 -67v-735z" />
    <glyph glyph-name="dollar" unicode="$" 
d="M778 1456q40 0 67 -18t44 -40t26.5 -40.5t14.5 -19.5q4 0 15.5 7.5t28.5 17t38.5 17t45.5 7.5q38 0 63 -14t40.5 -35t22.5 -45.5t9.5 -46t2 -36t0.5 -14.5t2 -0.5t3 -0.5q8 0 22.5 2t33.5 2q18 0 43.5 -6.5t49 -21.5t39.5 -40.5t16 -64.5q0 -22 -6 -41.5t-12.5 -34.5
t-12.5 -25.5t-6 -13.5q0 -6 21.5 -13.5t47.5 -23.5t47.5 -44t21.5 -73q0 -35 -15.5 -60.5t-34 -43.5t-34.5 -29t-17 -17q0 -5 10.5 -16t22.5 -28t22.5 -39.5t10.5 -50.5q0 -39 -13 -64t-32.5 -41t-42 -24t-42 -12t-32.5 -6t-13 -5q0 -8 6 -30.5t6 -51.5q0 -24 -10 -48
t-27.5 -43.5t-42 -32t-54.5 -12.5q-18 0 -34 3.5t-29.5 7.5t-23 7.5t-14.5 3.5q-3 -2 -6 -14t-9 -29t-15.5 -36.5t-25.5 -36.5t-39.5 -28t-56.5 -11q-32 0 -56.5 12.5t-42 28t-29 28t-15.5 12.5q-5 0 -16 -13t-29 -28t-43 -28t-56 -13q-49 0 -77 23.5t-43 52.5t-20.5 53.5
t-8.5 26.5q-5 0 -15 -3.5t-23.5 -7.5t-30 -7.5t-34.5 -3.5q-30 0 -54.5 12.5t-42.5 32t-27.5 44t-9.5 48.5q0 29 6 51t6 30q0 7 -20.5 9t-48 9.5t-55 26t-42.5 59.5q-9 25 -9 48q0 28 10.5 50.5t22.5 39.5t22.5 28t10.5 16q-1 6 -16.5 17t-34 28.5t-33.5 42.5t-15 60
q0 46 20 74.5t45 44.5t46.5 23.5t24.5 12.5q0 3 -6 13.5t-12.5 26t-12.5 35t-6 41.5q0 39 16 64.5t39.5 40.5t49 21.5t44.5 6.5q18 0 32 -2t22 -2q7 0 8 9t1.5 24t2 33.5t8.5 38.5t21.5 38.5t41.5 32.5q17 9 32 12.5t30 3.5q24 0 45.5 -7.5t38 -17t27.5 -17t15 -7.5
q6 0 15.5 18.5t26.5 40.5t43.5 40.5t67.5 18.5z" />
    <glyph glyph-name="percent" unicode="%" 
d="M856 1359q5 6 21 18t33.5 24t30.5 21l13 9q0 -2 7.5 -16.5t16.5 -32.5t17 -35.5t10 -24.5q7 5 25 12.5t37 14.5t34 12.5t17 6.5q-1 -1 3 -15.5t8.5 -34t8.5 -38t4 -27.5q7 2 26.5 4t39.5 4.5t36 4t17 2.5v-30v-25.5t-0.5 -26.5t-1 -23t-1.5 -15q2 0 5 0.5t6 0.5
q11 0 28 -1.5t34 -3.5t30 -3.5t17 -1.5q0 -2 -3.5 -17.5t-9 -35t-11 -38.5t-9.5 -27q8 0 26.5 -6t37.5 -13t34 -13t16 -6q-2 -2 -9.5 -16.5t-17 -32.5t-18.5 -34.5t-14 -22.5q7 -2 23.5 -12.5t34 -22.5t30.5 -21t14 -9q-3 -2 -14 -14.5t-24.5 -27.5t-27 -28.5t-19.5 -17.5
q6 -5 19.5 -18.5t27 -28.5t24.5 -27t13 -13q-2 -1 -15.5 -10.5t-30 -21t-32.5 -22t-23 -12.5q5 -6 14.5 -23.5t19 -35.5t17 -32t8.5 -14q-3 -1 -18 -7t-34 -13t-37 -13t-25 -6q4 -8 9.5 -27.5t11 -39.5t9 -35.5t4.5 -14.5q-1 0 -14 -1.5t-31 -4t-36 -4t-30 -1.5
q-3 0 -5.5 0.5t-4.5 0.5q2 -8 2.5 -27.5t0.5 -39.5v-55q-2 1 -18 3.5t-36.5 5t-39 5t-25.5 5.5q0 -9 -4 -27t-8.5 -37t-8 -34t-3.5 -19l-16 6l-36 13.5t-38.5 15t-22.5 11.5q-2 -8 -10 -25t-17 -35t-16.5 -32.5t-7.5 -16.5l-13 9t-30.5 21t-33.5 24t-21 18q-4 -7 -16.5 -22
t-26 -30t-24 -27.5t-10.5 -13.5q1 0 -9.5 12t-24.5 27.5t-27 31t-17 22.5q-5 -6 -21 -18t-33.5 -24t-30.5 -21t-12 -9q0 1 -7.5 15.5t-17 32.5t-17.5 35.5t-9 25.5q-7 -5 -25 -12.5t-37.5 -15t-35 -13t-16.5 -6.5q0 15 -4 29.5t-8.5 29.5t-8 29.5t-3.5 29.5
q-7 -3 -25.5 -5.5t-38.5 -5t-36.5 -5t-18.5 -3.5v20t0.5 37t1 38.5t2.5 26.5q-2 0 -5 -0.5t-6 -0.5q-12 0 -30.5 1.5t-36 4t-30 4t-13.5 1.5q0 -1 4 14.5t9 36t10.5 40t9.5 26.5q-8 0 -26.5 6t-37.5 13.5t-34 13.5t-16 6q1 2 8.5 16.5t17 32.5t19 34.5t14.5 22.5
q-8 3 -25 13.5t-34 22t-30 20.5l-13 9q1 0 12 12t25 27t27.5 29t20.5 19q-7 4 -20.5 18.5t-27.5 29.5t-25 27t-12 13q1 0 14.5 9t30.5 20.5t33 22t24 13.5q-6 6 -15.5 23t-19 35t-16.5 32.5t-8 15.5q2 0 17 6t34 13t37 13t26 6q-4 8 -9.5 27.5t-10.5 39.5t-9 35.5l-4 15.5
q3 0 15.5 1.5t28.5 3.5t33.5 3.5t29.5 1.5q11 0 14 -1q-2 8 -2.5 27.5t-0.5 39.5v36t-1 17q3 -1 19.5 -2.5t36.5 -4t38 -5t25 -5.5q0 11 4 26t8.5 31t8.5 30t4 24q0 2 -0.5 3t-0.5 3q3 -1 19 -6.5t35 -12.5t36.5 -14.5t23.5 -12.5q1 8 9.5 25.5t17.5 35.5t16.5 32t7.5 16
q-1 0 12.5 -9t30.5 -21t33 -24.5t21 -18.5q3 7 15.5 22t26.5 30.5t25 27.5t11 14q1 -3 12 -15.5t24.5 -27.5t25.5 -29t15 -21z" />
    <glyph glyph-name="ampersand" unicode="&#x26;" 
d="M778 -8q-101 0 -194.5 26t-174.5 74t-148 115t-115 148t-74 174.5t-26 194.5t26 194.5t74 174.5t115 148t148 115t174.5 74t194.5 26t194.5 -26t174.5 -74t148 -115t115 -148t74 -174.5t26 -194.5t-26 -194.5t-74 -174.5t-115 -148t-148 -115t-174.5 -74t-194.5 -26z" />
    <glyph glyph-name="quotesingle" unicode="'" 
d="M1384 717q0 -126 -47.5 -236t-130 -192.5t-192.5 -130t-236 -47.5t-236 47.5t-192.5 130t-130 192.5t-47.5 236t47.5 236t130 192.5t192.5 130t236 47.5t236 -47.5t192.5 -130t130 -192.5t47.5 -236zM778 1389q-92 0 -178 -24t-160.5 -67.5t-136 -105t-105.5 -136
t-68 -160.5t-24 -179q0 -92 24 -177.5t68 -160t105.5 -135.5t136 -104.5t160.5 -67.5t178 -24q93 0 179 24t160.5 67.5t136 104.5t105 135.5t67.5 160t24 177.5q0 93 -24 179t-67.5 160.5t-105 136t-136 105t-160.5 67.5t-179 24zM778 -8q-101 0 -194.5 26t-174.5 74
t-148 115t-115 148t-74 174.5t-26 194.5t26 194.5t74 174.5t115 148t148 115t174.5 74t194.5 26t194.5 -26t174.5 -74t148 -115t115 -148t74 -174.5t26 -194.5t-26 -194.5t-74 -174.5t-115 -148t-148 -115t-174.5 -74t-194.5 -26z" />
    <glyph glyph-name="parenleft" unicode="(" horiz-adv-x="1817" 
d="M1646 132q0 -31 -11.5 -57.5t-31.5 -46.5t-46.5 -31.5t-57.5 -11.5h-1170q-31 0 -57.5 11.5t-46.5 31.5t-31.5 46.5t-11.5 57.5v1170q0 31 11.5 57.5t31.5 46.5t46.5 31.5t57.5 11.5h1170q31 0 57.5 -11.5t46.5 -31.5t31.5 -46.5t11.5 -57.5v-1170z" />
    <glyph glyph-name="parenright" unicode=")" horiz-adv-x="1712" 
d="M1703 -6h-1708l849 1480l434 -739z" />
    <glyph glyph-name="asterisk" unicode="*" horiz-adv-x="800" 
d="M168 958l-88 155l118 69q23 14 48.5 19t50.5 7q-24 2 -49.5 7.5t-48.5 19.5l-120 70l90 155l119 -69q26 -15 40.5 -32.5t29.5 -37.5q-11 23 -17.5 45t-6.5 51v138h180v-138q0 -29 -7 -51t-18 -46q15 21 30.5 38.5t40.5 31.5l120 69l88 -156l-119 -69q-26 -14 -50 -19.5
t-48 -6.5q24 -2 49 -8t49 -19l119 -70l-90 -154l-119 69q-25 14 -41.5 32.5t-30.5 38.5q11 -22 18.5 -45.5t7.5 -51.5v-138h-179v138q0 29 7 52t17 44q-14 -20 -30.5 -37.5t-40.5 -31.5z" />
    <glyph glyph-name="plus" unicode="+" 
d="M778 -8q-101 0 -194.5 26t-174.5 74t-148 115t-115 148t-74 174.5t-26 194.5t26 194.5t74 174.5t115 148t148 115t174.5 74t194.5 26t194.5 -26t174.5 -74t148 -115t115 -148t74 -174.5t26 -194.5t-26 -194.5t-74 -174.5t-115 -148t-148 -115t-174.5 -74t-194.5 -26z
M894 1184q-29 7 -58.5 10.5t-59.5 3.5q-61 0 -121 -15v-342h-338q-15 -57 -15 -115q0 -62 17 -124h336v-334q29 -8 59.5 -12t60.5 -4q61 0 118 15l2 334h338q16 60 16 127q0 28 -3 56t-10 56l-342 1v343z" />
    <glyph glyph-name="comma" unicode="," horiz-adv-x="424" 
d="M65 133q0 30 11.5 56.5t31.5 46t47 31t57 11.5q31 0 57.5 -11.5t46.5 -31t31.5 -46t11.5 -56.5q0 -106 -43 -197.5t-140 -173.5q-18 18 -29 31.5t-11 36.5q0 25 9 42t20 33t20.5 35.5t10.5 49.5q-27 7 -51 19t-41.5 29t-28 40.5t-10.5 54.5z" />
    <glyph glyph-name="hyphen" unicode="-" 
d="M778 -8q-101 0 -194.5 26t-174.5 74t-148 115t-115 148t-74 174.5t-26 194.5t26 194.5t74 174.5t115 148t148 115t174.5 74t194.5 26t194.5 -26t174.5 -74t148 -115t115 -148t74 -174.5t26 -194.5t-26 -194.5t-74 -174.5t-115 -148t-148 -115t-174.5 -74t-194.5 -26z
M317 841q-15 -57 -15 -115q0 -62 17 -124l914 -1q16 60 16 127q0 28 -3 56t-10 56z" />
    <glyph glyph-name="period" unicode="." horiz-adv-x="462" 
d="M378 131q0 -31 -11.5 -57.5t-31.5 -46t-47 -31t-58 -11.5q-30 0 -57 11.5t-47 31t-31.5 46t-11.5 57.5q0 30 11.5 57t31.5 46.5t47 31t57 11.5q31 0 58 -11.5t47 -31t31.5 -46.5t11.5 -57z" />
    <glyph glyph-name="slash" unicode="/" horiz-adv-x="1648" 
d="M874 45q-11 -17 -28.5 -27t-37.5 -10q-22 0 -39 10t-27 27l-558 549q-63 67 -98.5 153t-35.5 186q0 102 39 192t106 157t157 106t192 39q50 0 87.5 -10.5t68 -27t57 -36.5t54.5 -38q28 18 53 38t54.5 36.5t67 27t90.5 10.5q103 0 193.5 -39t157.5 -106.5t106 -157.5
t39 -193q0 -109 -42 -202t-117 -162z" />
    <glyph glyph-name="zero" unicode="0" horiz-adv-x="1763" 
d="M158 723q0 55 21 105t58 87t86 59t105 22q52 0 100 -20t84 -54l443 235v20q0 56 21 105.5t58 87t86 59t105 21.5t106 -21.5t87 -59t58.5 -87t21.5 -105.5t-21.5 -105t-58.5 -86t-87 -58t-106 -21q-52 0 -98.5 19t-82.5 52l-445 -239q0 -4 1 -8.5t1 -7.5v-13l445 -239
q36 33 81.5 52t97.5 19q56 0 106 -21.5t87 -59t58.5 -87.5t21.5 -106t-21.5 -105t-58.5 -85.5t-87 -57.5t-106 -21t-105 21t-86 57.5t-58 85.5t-21 105v24l-441 235q-36 -34 -84 -54t-102 -20q-56 0 -105 21t-86 58t-58 86t-21 105z" />
    <glyph glyph-name="one" unicode="1" horiz-adv-x="1817" 
d="M1646 132q0 -31 -11.5 -57.5t-31.5 -46.5t-46.5 -31.5t-57.5 -11.5h-1170q-31 0 -57.5 11.5t-46.5 31.5t-31.5 46.5t-11.5 57.5v1170q0 31 11.5 57.5t31.5 46.5t46.5 31.5t57.5 11.5h1170q31 0 57.5 -11.5t46.5 -31.5t31.5 -46.5t11.5 -57.5v-1170zM1223 1237
q-60 0 -106 -21t-77.5 -53.5t-47.5 -72.5t-16 -78q0 -12 -0.5 -31.5t-0.5 -38.5q-1 -22 -1 -47l-158 3v-196h160v-587h256v584h178v199h-178v52q0 22 6.5 40.5t16.5 31t23 19.5t26 7l106 -2v191h-187z" />
    <glyph glyph-name="two" unicode="2" horiz-adv-x="1931" 
d="M1713 1178q-31 -48 -71 -89.5t-86 -74.5q1 -11 1 -21v-20q0 -104 -26 -210.5t-77.5 -206t-127 -187t-175 -152t-222 -102t-266.5 -37.5q-134 0 -255.5 37.5t-227.5 103.5q20 -1 38 -2t37 -1q112 0 211 35.5t180 99.5q-52 0 -99 16.5t-85 45.5t-66 69t-43 87
q14 -2 29 -4.5t30 -2.5q20 0 41 4t41 9q-54 10 -100 38t-80 68.5t-53.5 92t-19.5 109.5v3q65 -36 144 -38q-65 42 -102.5 110.5t-37.5 150.5q0 43 11.5 82.5t31.5 74.5q58 -71 130 -129.5t154.5 -101t173.5 -67.5t189 -29q-5 17 -6.5 34.5t-1.5 37.5q0 64 24.5 121t67.5 100
t100.5 67.5t122.5 24.5q68 0 127 -26.5t101 -72.5q54 11 104.5 29.5t95.5 47.5q-17 -55 -53 -100.5t-86 -74.5q50 5 95 18t87 33z" />
    <glyph glyph-name="three" unicode="3" horiz-adv-x="1955" 
d="M1785 141q0 -33 -12 -62t-33 -50t-50 -33t-62 -12h-1248q-33 0 -62 12t-50 33t-33 50t-12 62v1248q0 33 12 62t33 50t50 33t62 12h1248q33 0 62 -12t50 -33t33 -50t12 -62v-1248zM1363 1373q-30 0 -51 -21t-21 -50v-168q0 -29 21 -51.5t51 -22.5h175q29 0 49 22.5
t20 51.5v168q0 29 -20 50t-49 21h-175zM1607 885h-135q21 -71 21 -136q0 -96 -39 -181t-105 -148.5t-154.5 -100.5t-187.5 -37q-101 0 -189.5 37t-154.5 100.5t-104 148.5t-38 181q0 37 3.5 70.5t17.5 65.5h-146v-659q0 -27 18.5 -45.5t47.5 -18.5h1084q26 0 43.5 18.5
t17.5 45.5v659zM1007 1070q-67 0 -124.5 -23t-99.5 -63.5t-66 -95.5t-24 -118t24 -119t66 -97t99.5 -65t124.5 -24q64 0 120.5 24t98.5 65t66.5 97t24.5 119t-24.5 118t-66.5 95.5t-98.5 63.5t-120.5 23z" />
    <glyph glyph-name="four" unicode="4" horiz-adv-x="1990" 
d="M1648 129q0 -30 -11.5 -56.5t-31 -46.5t-46 -31.5t-57.5 -11.5h-1175q-31 0 -57.5 11.5t-46.5 31t-31.5 46t-11.5 57.5v1175q0 31 11.5 58t32 47t47 31t56.5 11h1175q30 0 57 -11.5t46.5 -31.5t31 -47t11.5 -57v-1175zM969 273v375q0 20 6.5 44t20.5 44.5t37.5 34
t57.5 13.5q62 0 88 -41.5t26 -110.5v-359h221v385q0 77 -19.5 134t-53.5 94.5t-81 55.5t-102 18q-45 0 -77.5 -11.5t-56 -28.5t-39.5 -36.5t-28 -36.5v96h-223q0 -12 1 -46.5t1 -85.5v-226q0 -71 -0.5 -148.5t-1.5 -163.5h223zM623 273v670h-222v-670h222zM512 1035
q29 0 52.5 9.5t40 25t25.5 36.5t9 45q-2 48 -35.5 82t-90.5 34q-29 0 -52 -9t-39.5 -25t-25.5 -37t-9 -45t9 -45t25 -36.5t39 -25t52 -9.5z" />
    <glyph glyph-name="five" unicode="5" horiz-adv-x="1633" 
d="M1425 647q2 -42 7 -89t5 -110v-88q0 -137 -13.5 -213.5t-45.5 -107.5q-17 -19 -35.5 -29t-35.5 -15.5t-31.5 -6.5t-23.5 -2q-109 -9 -218.5 -12t-210.5 -3q-71 2 -141.5 4t-133.5 4t-115 6t-85 10q-24 4 -44.5 19.5t-36.5 38t-26.5 51t-16.5 58.5l-8 62q-3 28 -3.5 63.5
t-0.5 72.5v88q0 56 2.5 105.5t9 90t19.5 70.5t34 48q14 20 30 31.5t32 17.5t31 8t27 3h3q109 5 217.5 9t205.5 4q101 0 210.5 -4t218.5 -9h5q12 0 35.5 -5t49 -22.5t48.5 -52t35 -95.5zM1062 427q0 69 -18 98.5t-54 29.5q-39 0 -73 -52v181h-75v-550h75v48q35 -50 73 -50
q36 0 54 31t18 97v167zM894 1027q0 -38 -9 -64t-24 -43t-35.5 -24.5t-42.5 -7.5q-23 0 -43.5 7.5t-36.5 24.5t-25 43t-9 64v146q0 41 8.5 68.5t23.5 44.5t36 24t46 7q19 0 38.5 -7.5t35.5 -24.5t26.5 -44.5t10.5 -67.5v-146zM1226 200q-22 0 -27.5 12t-5.5 40v79h141v81
q0 78 -31.5 110.5t-76.5 32.5q-24 0 -45.5 -7.5t-37.5 -24t-25 -44t-9 -67.5v-145q0 -36 9 -62t25 -42t37.5 -23.5t45.5 -7.5q20 0 39.5 5.5t34.5 20.5t24.5 42t9.5 71v13h-76v-41.5t-3 -26t-9.5 -13t-19.5 -3.5zM1162 894h-76v45q-39 -51 -81 -51q-58 0 -58 96v326h83v-304
q0 -18 0.5 -28.5t1 -15t2.5 -5.5t5 -1q16 0 24.5 9.5t22.5 29.5v315h76v-416zM773 550h-75v-309q-20 -41 -38 -41q-9 0 -14 1t-7.5 5.5t-3.5 15t-1 30.5v298h-79v-325q0 -93 61 -93q25 0 43 13.5t39 39.5v-51h75v416zM580 1123v-229h-83v229l-41 144q-8 28 -16 55.5
t-16 53.5l-24 76h87l54 -218l59 218h82zM486 614h86v70h-260v-70h88v-480h86v480zM811 1204q0 19 -8.5 28.5t-19.5 9.5q-40 0 -40 -38v-208q0 -40 40 -40q11 0 19.5 9.5t8.5 30.5v208zM952 485q19 0 24.5 -9.5t5.5 -41.5v-174q0 -30 -5.5 -45t-24.5 -15q-11 0 -21 5.5
t-14 14.5v248q4 6 14 11.5t21 5.5zM1258 396h-65v38q0 32 5.5 41.5t27.5 9.5q14 0 23 -9.5t9 -41.5v-38z" />
    <glyph glyph-name="six" unicode="6" horiz-adv-x="1890" 
d="M206 1003q37 43 75 81.5t77 73.5q33 30 72.5 62.5t81.5 59.5t83 44.5t76 17.5h15q43 0 73 -25t50 -66.5t33.5 -95t23.5 -111t18.5 -114t20.5 -103.5q35 -145 63 -222t59 -77q16 0 39 18.5t50.5 53.5t57.5 84.5t62 111.5q35 68 35 126q0 48 -27.5 80.5t-72.5 32.5
q-53 0 -108 -30q13 82 54 147t98 110t123.5 69t131.5 24q46 0 87.5 -14t73 -42.5t50 -72.5t18.5 -105q0 -19 -1.5 -38t-6.5 -41q-20 -118 -69 -229t-114 -210t-139 -184.5t-143.5 -153t-129 -114.5t-95.5 -69q-23 -15 -50 -24t-48 -9q-35 0 -68 15t-61.5 39t-51 53t-35.5 57
q-10 21 -24 62.5t-31.5 96t-36.5 117t-38.5 126t-38.5 123.5t-35 108t-29 80.5t-21 41.5q-13 13 -32 13q-16 0 -33.5 -5.5t-35.5 -14.5t-35 -19.5t-30 -19.5z" />
    <glyph glyph-name="seven" unicode="7" horiz-adv-x="1532" 
d="M515 -1q-3 -6 -14.5 -10t-25.5 -4q-19 0 -37 11t-23 41q0 47 2 101t15 107q2 13 8 40.5t14.5 64t18 78t19.5 83.5q23 98 51 213q-8 16 -14 38q-5 19 -9.5 45.5t-4.5 59.5q0 48 14 90.5t37 75t54 51t66 18.5q31 0 54.5 -11.5t39 -30.5t23 -43.5t7.5 -50.5q0 -33 -8 -71
t-20 -79.5t-25.5 -85t-25.5 -87.5q-2 -9 -2.5 -17.5t-0.5 -17.5q0 -29 10.5 -53t29.5 -41t44.5 -27t54.5 -10q64 0 116.5 37t90 101t58.5 150.5t21 184.5q0 74 -24 135.5t-70.5 106t-115.5 69t-158 24.5q-103 0 -184.5 -34.5t-138.5 -92.5t-87.5 -133.5t-30.5 -157.5
q0 -60 16 -103t39 -76q12 -8 15.5 -14t3.5 -14q0 -10 -8.5 -36.5t-14.5 -55.5q0 -9 -5.5 -16.5t-16.5 -7.5q-10 0 -18 7q-49 18 -84 51.5t-58 77.5t-34 97t-11 110q0 63 18 129t53.5 128t89 117t124.5 95.5t160.5 64.5t196.5 24q126 0 229 -43t175.5 -115t112 -164.5
t39.5 -191.5q0 -132 -34.5 -243.5t-98 -193.5t-152 -128t-196.5 -46q-33 0 -66 9t-61.5 24.5t-50.5 36t-33 44.5q-14 -45 -29 -105t-34 -121.5t-42.5 -117.5t-53.5 -91z" />
    <glyph glyph-name="eight" unicode="8" horiz-adv-x="1410" 
d="M780 1436v-346h349v-265h-349v-459q0 -31 1 -53t6 -34q12 -26 31 -44t42.5 -29t49.5 -16t51 -5q57 0 112.5 18t109.5 53v-230q-81 -44 -166 -64t-174 -20q-39 0 -80.5 6t-80.5 18.5t-74 31t-62 43.5q-30 26 -49 56t-29.5 63t-14.5 68t-4 71v526h-202v213q44 14 91 33.5
t79 45.5q36 29 62 67t44 80t29.5 86t17.5 86h210z" />
    <glyph glyph-name="nine" unicode="9" horiz-adv-x="1990" 
d="M578 1104q69 0 130 -26t106 -71t71.5 -105.5t26.5 -129.5t-26.5 -129.5t-71.5 -105.5t-106 -71t-130 -26q-68 0 -128.5 26t-105.5 71t-71.5 105.5t-26.5 129.5t26.5 129.5t71.5 105.5t105.5 71t128.5 26zM1412 1104q70 0 131 -26t106.5 -71t72 -105.5t26.5 -129.5
t-26.5 -129.5t-72 -105.5t-106.5 -71t-131 -26q-68 0 -128.5 26t-105.5 71t-71.5 105.5t-26.5 129.5t26.5 129.5t71.5 105.5t105.5 71t128.5 26z" />
    <glyph glyph-name="colon" unicode=":" horiz-adv-x="1432" 
d="M383 1372q13 17 25 28.5t26 19t32 10.5t42 3h752v-1433h-1086v1024q0 70 29 108zM397 1059q-25 -34 -25 -92v-769h690v1037l-465 1q-21 0 -35.5 -2.5t-26.5 -8.5t-22 -16t-21 -24z" />
    <glyph glyph-name="semicolon" unicode=";" horiz-adv-x="1432" 
d="M383 1372q14 16 26.5 27.5t26 19t31 11t41.5 3.5h752v-1433h-1086v1024q0 35 6.5 62t22.5 46z" />
    <glyph glyph-name="less" unicode="&#x3c;" horiz-adv-x="1160" 
d="M119 726q0 51 28 83.5t73 52.5l731 315v-122q0 -38 -14 -66.5t-38 -50t-56 -38t-68 -31.5q-115 -47 -219 -93.5t-214 -94.5q-10 -5 -23.5 -8t-19.5 -5q13 -3 30.5 -10t31.5 -12l351 -152q43 -20 86 -39t77 -43t55 -55.5t21 -75.5v-123l-731 315q-45 20 -73 53t-28 84v116
z" />
    <glyph glyph-name="equal" unicode="=" horiz-adv-x="1622" 
d="M1317 390q20 -20 29.5 -41.5t9.5 -52.5q0 -29 -11.5 -54.5t-30.5 -44.5t-44 -30t-53 -11q-26 0 -52.5 8.5t-46.5 29.5l-72 73q-26 -14 -53.5 -25.5t-56.5 -19.5v-105q0 -27 -11 -51.5t-30 -43t-44 -29.5t-53 -11q-26 0 -51.5 10t-45.5 28t-32.5 43.5t-12.5 55.5v106
q-28 8 -55 19.5t-53 27.5l-76 -78q-40 -40 -94 -40q-27 0 -52.5 11t-45 29.5t-31 44t-11.5 54.5q0 26 9.5 51.5t30.5 47.5l74 75l-24 50q-7 14 -11.5 29t-8.5 29h-108q-30 0 -54.5 11.5t-42.5 31t-28 44t-10 51.5q0 24 9.5 49t27 45.5t43 33t58.5 12.5h101q9 27 20.5 55
t26.5 54l-74 76q-40 40 -40 94q0 27 10.5 52t29 44.5t44 31.5t54.5 12q26 -1 51.5 -10t47.5 -30l71 -71q26 15 54.5 27.5t57.5 21.5v100q0 30 11.5 54.5t30.5 42.5t44.5 28t52.5 10q25 0 50 -10t45 -28t32 -43.5t12 -56.5v-95q31 -10 59.5 -21t54.5 -27l71 71q20 20 41.5 29
t52.5 9q29 0 54.5 -11t44.5 -30t30 -44t11 -53t-9 -53.5t-29 -45.5l-68 -68q14 -24 26 -53t21 -61h98q27 0 51.5 -11t43 -30t29.5 -44t11 -53q0 -27 -10 -52.5t-28.5 -45.5t-43.5 -32t-55 -12h-97q-9 -30 -22 -57.5t-27 -55.5zM1049 717q0 51 -19.5 96t-53.5 79t-79 53.5
t-96 19.5t-96 -19.5t-79 -53.5t-53.5 -79t-19.5 -96t19.5 -96t53.5 -79t79 -53.5t96 -19.5t96 19.5t79 53.5t53.5 79t19.5 96z" />
    <glyph glyph-name="greater" unicode="&#x3e;" horiz-adv-x="1160" 
d="M1035 610q0 -52 -28 -84.5t-74 -52.5l-730 -315v123q0 50 31 92.5t89 68.5l489 213q1 1 7.5 3t13.5 4t13 4t7 2q-1 0 -7 2t-13.5 4t-14 4t-7.5 3q-7 3 -44 19t-88.5 38.5t-111 48.5t-112 48.5t-90.5 38.5t-46 20q-26 10 -47.5 27.5t-36.5 39t-23.5 45.5t-8.5 49v122
l730 -315q45 -20 73.5 -52.5t28.5 -83.5v-116z" />
    <glyph glyph-name="question" unicode="?" horiz-adv-x="1872" 
d="M1656 1019v-871q0 -32 -12 -59.5t-32.5 -48t-48 -32.5t-59.5 -12h-1144q-30 0 -57.5 11.5t-48.5 32t-33.5 48.5t-12.5 60v1143q0 32 12 60t33 48.5t48.5 32.5t58.5 12h876l-464 -463q-18 -18 -30.5 -42t-20.5 -51t-12 -55.5t-4 -55.5q0 -24 3 -45v-247h233q11 -2 23.5 -3
t24.5 -1q58 0 112.5 18.5t95.5 56.5zM1688 1476q44 -49 44 -111q0 -29 -10.5 -56t-33.5 -50l-645 -645v-2h-217v217l647 647q22 22 50 33t57 11t57 -11t51 -33z" />
    <glyph glyph-name="at" unicode="@" horiz-adv-x="1553" 
d="M778 -8q-101 0 -194.5 26t-174.5 74t-148 115t-115 148t-74 174.5t-26 194.5t26 194.5t74 174.5t115 148t148 115t174.5 74t194.5 26t194.5 -26t174.5 -74t148 -115t115 -148t74 -174.5t26 -194.5t-26 -194.5t-74 -174.5t-115 -148t-148 -115t-174.5 -74t-194.5 -26z
M1114 341q-11 5 -11 23q0 23 8.5 43t19 36.5t19 30t8.5 22.5q0 15 -6 30t-6 30q0 11 4.5 20t4.5 17q0 9 -12 15t-19 11q-5 -4 -13.5 -6t-18.5 -3.5t-19.5 -3.5t-15.5 -6q-14 -9 -25 -9q-6 0 -19.5 8t-27.5 21t-25 29.5t-11 33.5q0 8 3.5 13.5t3.5 12.5t-3.5 16t-3.5 17
q0 14 8 30t19 33.5t22.5 35t17.5 33.5q-7 5 -11 8.5t-7 9.5t-6.5 15.5t-8.5 27.5q7 6 14 6q2 0 6 -0.5t9 -0.5q4 0 8.5 0.5t11.5 1.5q-9 12 -17 20l-16 16q2 7 10 9q-15 11 -31 15q-3 -1 -9.5 -3t-18.5 -5q6 14 9.5 29t10.5 30q11 -10 26 -21.5t36 -30.5q0 16 2.5 28t2.5 29
q-4 -1 -11 -1q-17 0 -22 5.5t-5 13.5q0 4 0.5 9t0.5 12t-2.5 16.5t-2.5 17.5q0 11 7.5 16.5t19.5 5.5q3 0 8 -2t10 -2q6 0 17 4q-5 9 -6.5 19.5t-2.5 22.5q4 -3 12 -7q-62 38 -133 59t-149 21q-59 0 -113 -12t-105 -34q-2 -7 -3.5 -13t-4.5 -8q20 2 38 6t41 8q-4 -6 -7 -9.5
t-5 -5.5q2 -2 7 -5t8 -3q1 1 1 2q24 11 43 11q14 0 27.5 -4.5t26.5 -9.5h5q4 0 7 -1.5t7 -1.5q15 -1 30.5 -2t30.5 -1q9 0 18 0.5t18 1.5q-1 -5 -1 -13q0 -12 2.5 -22t2.5 -19t-6 -14t-14 -7t-17.5 -4t-15.5 -5q-17 -10 -30 -20t-27 -21q-32 17 -32 42q0 6 1 10l5 19
q0 2 0.5 4t0.5 4q0 6 -2 9.5t-6 7t-10.5 8.5t-14.5 13q-11 -3 -18.5 -6t-7.5 -9q0 -3 7.5 -18.5t14.5 -30.5q-6 -4 -15.5 -8.5t-18.5 -9t-15.5 -8.5t-6.5 -7q0 -4 5 -4q2 0 6 0.5t10 1.5q8 -25 15 -50.5t18 -57.5q-16 5 -25.5 8t-22.5 11q3 4 7.5 9t11.5 12q-6 -2 -14.5 -3
t-16 -3t-12.5 -4.5t-5 -6.5q0 -3 8 -8.5t12 -9.5q-7 -1 -13 -5t-15 -4q-3 1 -5.5 2.5t-6.5 3.5q-11 -2 -26.5 -12t-31 -21.5t-29 -21t-20.5 -10.5q-13 -6 -20 -13.5t-7 -21.5q0 -1 0.5 -1.5t0.5 -1.5q-2 -9 -5 -16.5t-5 -15.5q-10 1 -10 12q0 5 1 10.5t1 10.5q0 10 -7 18
t-33 8q-23 0 -32 -14.5t-11 -32.5l-3 -22q-1 -1 -1 -4q0 -7 3 -10q14 2 22 7t17 8q2 -1 3 -1t2 -1l2 -2q-5 -11 -9.5 -20.5t-8.5 -20.5q23 -4 23 -22q0 -7 -3 -14.5t-3 -14.5q0 -8 6 -18t23 -10q3 0 4 -1t6 -4q9 10 16 15.5t15 5.5q11 0 23 -11t29 -14q11 -2 18.5 -3.5
t17.5 -2.5q5 -19 15.5 -31.5t30.5 -17.5q12 -5 20.5 -14t16 -19t14.5 -19t18 -13q13 -6 32.5 -13.5t37 -16.5t30 -19t12.5 -19q0 -12 -12 -21q-14 -11 -20.5 -26t-12 -29t-14 -23.5t-25.5 -9.5q-11 0 -20.5 -4.5t-14.5 -18.5q-6 -12 -15.5 -21t-19.5 -16.5t-18 -14.5t-9 -16
q-2 -9 -5.5 -17.5t-3.5 -16.5t3 -17t7 -16.5t6.5 -12.5l2.5 -5q-4 -1 -6.5 -4.5t-5.5 -6.5q44 -16 90 -24.5t95 -8.5q112 0 211 43t173 117t117 173t43 211q0 19 -1.5 37.5t-3.5 37.5q-11 -9 -27 -9v-26.5t-1 -40.5t-2 -44.5t-4 -37.5q-7 -39 -23 -82.5t-38.5 -85t-50 -76.5
t-57.5 -56zM234 724q0 -81 23 -156t64 -139t98.5 -114t126.5 -83q-15 17 -25 42.5t-16 54.5t-9.5 58t-6.5 53q-8 21 -23.5 39t-31 36.5t-27 38.5t-11.5 44q0 22 8 32t18 26q-1 1 -1 4q0 5 2 10.5t2 10.5q0 9 -19 13q-6 1 -17.5 14.5t-22.5 30.5t-19.5 33.5t-9.5 22.5
q-14 2 -18.5 13.5t-4.5 25.5q0 10 1 19t1 16q0 11 -5 18.5t-5 15.5q0 16 12.5 43t31 56t39 55.5t36.5 42.5v2q0 8 -1 19t-2 13q-87 -75 -137.5 -181t-50.5 -229zM1182 880q15 0 27.5 3t20.5 3h4q1 4 1 12q0 13 -6.5 16.5t-14.5 4t-16 2t-11 10.5q-3 -5 -4 -10.5t-3 -10.5
q-11 3 -17.5 9.5t-11.5 10.5q-5 -8 -5 -15t-1 -14q-8 1 -10.5 2t-2.5 4q0 2 0.5 4t0.5 6q0 6 -6 11t-13.5 9.5t-14.5 7t-9 2.5q-14 0 -27.5 -18.5t-18.5 -50.5q11 4 30.5 12.5t33.5 8.5q8 0 15 -6t14.5 -13.5t16 -13.5t19.5 -6q7 0 9 9v11zM641 1135q-2 3 -5 4.5t-6 4.5
q-2 -2 -8.5 -6.5t-14.5 -9t-16 -8t-14 -3.5h-3l-10 4h-6q-12 0 -22.5 -8t-10.5 -19q0 -8 5.5 -25t10.5 -31q4 5 11 15t15 20.5t16 18.5t15 8q4 0 14 -0.5t12 -2.5q-6 5 -8 10q-1 3 -2 5q7 9 13.5 14t13.5 9zM399 831q2 0 5 0.5t5 0.5q18 0 33 -14t15 -29q-15 8 -28 18.5
t-30 23.5zM1171 1098l15 -16z" />
    <glyph glyph-name="A" unicode="A" horiz-adv-x="1373" 
d="M587 1433h193l625 -1433h-114q-47 0 -85 24.5t-57 67.5l-100 228h-732l-99 -228q-18 -42 -56.5 -67t-85.5 -25h-114zM665 1117l-261 -599h559l-261 599q-8 17 -13 37.5t-6 44.5q-2 -24 -6.5 -44.5t-11.5 -37.5z" />
    <glyph glyph-name="B" unicode="B" horiz-adv-x="1316" 
d="M371 0h-198v1433h563q83 0 156.5 -31.5t128 -86t86 -128t31.5 -156.5q0 -46 -14 -95.5t-37 -91t-52.5 -69t-61.5 -29.5q7 0 19 -1.5t25.5 -5.5t27 -10t24.5 -16q60 -57 99 -133.5t39 -166.5q0 -86 -32.5 -161t-88.5 -130.5t-131 -88t-161 -32.5zM794 199q45 0 84 17
t68 46.5t46 68.5t17 83t-17 83t-46 68t-68 46t-83 17h-424v-429h423zM371 1235v-409h365q42 0 79.5 16t65.5 44t44 65t16 79t-16 79.5t-44 65.5t-65.5 44t-79.5 16h-365z" />
    <glyph glyph-name="C" unicode="C" horiz-adv-x="1442" 
d="M288 717q0 -111 42 -208t114.5 -169.5t169.5 -114.5t208 -42q86 0 162 25t142 70q37 25 83 25q36 0 62.5 -12t49.5 -35l37 -37q-50 -54 -110.5 -97.5t-128.5 -73.5t-143 -46.5t-154 -16.5q-152 0 -285 57.5t-232.5 157t-157 232.5t-57.5 285q0 101 26 194.5t74 175
t114.5 148t148 114.5t175 74t194.5 26q79 0 154 -16.5t143 -46.5t128.5 -73.5t110.5 -97.5l-37 -37q-23 -23 -50 -35.5t-62 -12.5q-45 0 -83 26q-66 45 -142.5 70t-161.5 25q-111 0 -208 -42t-169.5 -114.5t-114.5 -169.5t-42 -208z" />
    <glyph glyph-name="D" unicode="D" horiz-adv-x="1519" 
d="M174 0v1433h538q99 0 190.5 -25.5t171 -72.5t145 -112.5t112.5 -145t72.5 -171t25.5 -190.5t-25.5 -190.5t-72.5 -171t-112.5 -145t-145 -112t-171 -72t-190.5 -25.5h-538zM712 198q107 0 201.5 40.5t165 111t111.5 165t41 201.5t-41 201.5t-111.5 165t-165 111.5
t-201.5 41h-340v-1037h340z" />
    <glyph glyph-name="E" unicode="E" horiz-adv-x="1165" 
d="M1060 0h-886v1433h886v-198h-688v-413h557v-198h-557v-426h688v-198z" />
    <glyph glyph-name="F" unicode="F" horiz-adv-x="1135" 
d="M952 794v-198h-580v-596h-198v1433h886v-198h-688v-441h580z" />
    <glyph glyph-name="G" unicode="G" horiz-adv-x="1492" 
d="M1354 730v-578q-50 -50 -110.5 -82.5t-128.5 -51.5t-141.5 -26t-149.5 -7q-152 0 -285 57.5t-232.5 157t-157 232.5t-57.5 285q0 101 26 194.5t74 175t114.5 148t148 114.5t175 74t194.5 26q79 0 154 -16.5t143 -46.5t128.5 -73.5t110.5 -97.5l-37 -37q-24 -24 -50.5 -36
t-61.5 -12q-45 0 -83 26q-66 45 -142.5 70t-161.5 25q-111 0 -208 -42t-169.5 -114.5t-114.5 -169.5t-42 -208t43.5 -208t118 -169.5t173 -114.5t209.5 -42q92 0 174 21.5t150 64.5v263h-80q-35 0 -63.5 12.5t-48.5 33.5t-31 49t-11 59v44h430z" />
    <glyph glyph-name="H" unicode="H" horiz-adv-x="1518" 
d="M1342 0h-198v622h-772v-622h-198v1433h198v-613h772v613h198v-1433z" />
    <glyph glyph-name="I" unicode="I" horiz-adv-x="617" 
d="M408 0h-198v1433h198v-1433z" />
    <glyph glyph-name="J" unicode="J" horiz-adv-x="827" 
d="M449 1433h198v-1223q0 -95 -36 -179t-98.5 -146t-146.5 -98t-179 -36q-94 0 -176 34.5t-145 95.5l56 56q45 45 109 45q20 -1 38.5 -6.5t37 -11.5t38 -10.5t42.5 -4.5q54 0 101.5 20.5t83.5 56t56.5 83t20.5 101.5v1223z" />
    <glyph glyph-name="K" unicode="K" horiz-adv-x="1320" 
d="M556 799l401 544q29 45 73.5 67.5t102.5 22.5h136l-492 -668q-11 -14 -20 -20.5t-11 -7.5q2 -2 11 -8t20 -20l525 -709h-136q-58 0 -102.5 22.5t-73.5 67.5l-434 585q-13 17 -25.5 28.5t-23 18.5t-17.5 10.5t-8 4.5q1 0 8 3t17.5 10t23 19t25.5 30zM390 0h-198v1433h198
v-1433z" />
    <glyph glyph-name="L" unicode="L" horiz-adv-x="1032" 
d="M174 0v1433h198v-1235h619v-198h-817z" />
    <glyph glyph-name="M" unicode="M" horiz-adv-x="1894" 
d="M1720 0h-198v1141q-1 -3 -3 -13.5t-4.5 -24t-6 -27t-7.5 -22.5l-460 -1054h-193l-459 1053q-4 6 -7 16.5t-5.5 21.5t-4 20.5t-1.5 15.5v-1127h-198v1433h164q47 0 85.5 -25.5t56.5 -66.5l447 -1025q7 -20 11.5 -41t6.5 -45q3 48 19 86l447 1025q19 43 58 67.5t84 24.5
h168v-1433z" />
    <glyph glyph-name="N" unicode="N" horiz-adv-x="1559" 
d="M1384 0h-161l-819 1119q-7 10 -12.5 23.5t-9.5 26t-6 22t-2 11.5v-1202h-198v1433h141q48 0 84 -14t57 -43l695 -957q14 -20 21.5 -44.5t11.5 -54.5v1113h198v-1433z" />
    <glyph glyph-name="O" unicode="O" horiz-adv-x="1648" 
d="M92 717q0 101 26 194.5t74 175t114.5 148t148 114.5t175 74t194.5 26t194.5 -26t175 -74t148 -114.5t114.5 -148t74 -175t26 -194.5t-26 -194.5t-74 -175t-114.5 -148t-148 -114.5t-175 -74t-194.5 -26q-152 0 -285 57.5t-232.5 157t-157 232.5t-57.5 285zM290 717
q0 -111 42 -208t114.5 -169.5t169.5 -114.5t208 -42t208 42t169.5 114.5t114.5 169.5t42 208t-42 208t-114.5 169.5t-169.5 114.5t-208 42t-208 -42t-169.5 -114.5t-114.5 -169.5t-42 -208z" />
    <glyph glyph-name="P" unicode="P" horiz-adv-x="1233" 
d="M398 0h-198v1433h512q93 0 175 -35.5t143 -96.5t96.5 -143t35.5 -175t-35.5 -175t-96.5 -143t-143 -96.5t-175 -35.5h-314v-533zM712 731q52 0 98 19.5t80.5 54t54 80t19.5 98.5q0 52 -19.5 98t-54 80.5t-80.5 54t-98 19.5h-314v-504h314z" />
    <glyph glyph-name="Q" unicode="Q" horiz-adv-x="1648" 
d="M290 717q0 -111 42 -208t114.5 -169.5t169.5 -114.5t208 -42q42 0 83 6.5t79 18.5l123 -166q-66 -28 -137.5 -42.5t-147.5 -14.5q-152 0 -285 57.5t-232.5 157t-157 232.5t-57.5 285q0 101 26 194.5t74 175t114.5 148t148 114.5t175 74t194.5 26t194.5 -26t175 -74
t148 -114.5t114.5 -148t74 -175t26 -194.5q0 -149 -54.5 -278.5t-150.5 -229.5l381 -514h-136q-58 0 -102.5 22.5t-73.5 67.5l-342 462q63 34 114.5 83t88 110t57 131t20.5 146q0 111 -42 208t-114.5 169.5t-169.5 114.5t-208 42t-208 -42t-169.5 -114.5t-114.5 -169.5
t-42 -208z" />
    <glyph glyph-name="R" unicode="R" horiz-adv-x="1292" 
d="M391 0h-198v1433h514q87 0 163.5 -33t133 -89.5t89.5 -133t33 -163.5q0 -70 -21.5 -133.5t-60.5 -115.5t-92.5 -90.5t-116.5 -58.5l456 -616h-136q-58 0 -102.5 22.5t-73.5 67.5l-375 506h-213v-596zM391 1235v-441h316q46 0 86 17t70 47t47.5 70t17.5 86t-17.5 86
t-47.5 70t-70 47.5t-86 17.5h-316z" />
    <glyph glyph-name="S" unicode="S" horiz-adv-x="1065" 
d="M698 1189q-39 28 -79 44.5t-75 16.5q-47 0 -88.5 -13t-73 -36t-50 -54.5t-18.5 -68.5q0 -43 14 -73t45 -53.5t80.5 -44.5t120.5 -45q35 -14 70.5 -26.5t69.5 -27t67 -31.5t63 -40q151 -115 151 -310q0 -98 -40 -179t-108 -139.5t-157 -91t-186 -32.5q-193 0 -323 115
q-26 23 -46 46.5t-34.5 45.5t-24.5 40t-16 30l48 25q38 23 79 23q65 0 110 -47l16 -13q38 -32 84.5 -49.5t106.5 -17.5q49 0 101 16t94.5 46.5t70 76t27.5 105.5q0 58 -26 96t-67.5 65t-93 46t-101.5 39q-74 29 -144.5 60t-126 75.5t-89 109t-33.5 160.5q0 88 36.5 157
t96.5 116.5t137 72.5t158 25q59 0 117 -20t109 -51t92 -68t68 -70l-51 -38q-42 -36 -97 -36q-47 0 -84 23z" />
    <glyph glyph-name="T" unicode="T" horiz-adv-x="1145" 
d="M28 1235v199h1089v-199h-445v-1235h-198v1235h-446z" />
    <glyph glyph-name="U" unicode="U" horiz-adv-x="1454" 
d="M353 560q0 -78 29.5 -147t81 -120.5t120.5 -81t147 -29.5t147 29.5t120.5 81t81 120.5t29.5 147v873h199v-873q0 -80 -20.5 -153.5t-58 -137.5t-90.5 -116.5t-117 -90t-137.5 -58t-153.5 -20.5q-79 0 -152.5 20.5t-137.5 58t-117 90t-90.5 116.5t-58 138t-20.5 153v873
h198v-873z" />
    <glyph glyph-name="V" unicode="V" horiz-adv-x="1327" 
d="M-58 1433h114q46 0 86 -25t56 -67l447 -1025q7 -20 11.5 -41t6.5 -45q3 48 19 86l447 1025q18 42 57 67t85 25h114l-625 -1433h-193z" />
    <glyph glyph-name="W" unicode="W" horiz-adv-x="1993" 
d="M1028 612q-2 -2 -267 -612h-193l-625 1433h114q46 0 86 -25t56 -67l447 -1025q8 -20 12.5 -41t5.5 -45q3 48 19 86l447 1025q18 42 57 67t85 25h114l-281 -645l206 -472q8 -19 12 -41.5t6 -48.5q3 54 19 90l447 1025q18 42 57 67t85 25h114l-625 -1433h-193l-185 425
q-31 71 -31 127q0 32 11 60z" />
    <glyph glyph-name="X" unicode="X" horiz-adv-x="1331" 
d="M810 727q0 -20 9 -32l514 -695h-136q-58 0 -102.5 22.5t-73.5 67.5l-339 458q-8 11 -11.5 26.5t-4.5 21.5l-1 -5.5t-3 -13t-5 -16t-7 -13.5l-339 -458q-29 -45 -73.5 -67.5t-102.5 -22.5h-136l509 689q0 2 7 13t7 25q0 16 -9 30l-499 676h136q58 0 102.5 -22.5
t73.5 -67.5l324 -437q8 -12 11 -29t5 -22q0 13 4.5 26.5t11.5 24.5l323 437q29 45 73.5 67.5t102.5 22.5h136l-496 -672q-6 -6 -8.5 -16t-2.5 -18z" />
    <glyph glyph-name="Y" unicode="Y" horiz-adv-x="1336" 
d="M769 0h-198v606q0 22 -4 39t-11.5 32.5t-18.5 31.5t-25 35l-509 689h136q58 0 102.5 -22.5t73.5 -67.5l339 -458q7 -11 10.5 -25t5.5 -23q0 8 4 22.5t12 25.5l339 458q29 45 73.5 67.5t102.5 22.5h136l-509 -689q-14 -19 -25 -35t-18.5 -31.5t-11.5 -32.5t-4 -39v-606z
" />
    <glyph glyph-name="Z" unicode="Z" horiz-adv-x="1248" 
d="M1159 199v-199h-1073v82q0 76 46 129l757 1024h-765v199h1048v-82q0 -67 -37 -118l-778 -1052q5 4 11 8q5 3 12 6t16 3h763z" />
    <glyph glyph-name="a" unicode="a" horiz-adv-x="1334" 
d="M1230 543h-1126v198h1126v-198zM103 152v198h1128v-78q-2 -51 -33 -82t-84 -35zM1231 1120v-198h-1128v78q0 51 32 83t85 34z" />
    <glyph glyph-name="b" unicode="b" horiz-adv-x="1292" 
d="M223 1343l-30 33q-14 16 -19.5 36.5t-5.5 42.5q1 32 13 59t33 48l35 35l878 -880l-879 -879l-35 35q-21 21 -33.5 48t-12.5 59q0 22 5.5 42.5t19.5 36.5l30 33l625 625z" />
    <glyph glyph-name="c" unicode="c" horiz-adv-x="1292" 
d="M407 717l625 -625l30 -33q14 -16 19.5 -36.5t5.5 -42.5q0 -32 -12.5 -59t-33.5 -48l-35 -35l-879 879l878 880l35 -35q20 -21 33 -48t13 -59q0 -22 -5.5 -42.5t-19.5 -36.5l-30 -33z" />
    <glyph glyph-name="d" unicode="d" horiz-adv-x="1292" 
d="M362 1090l-30 33q-14 16 -19.5 36.5t-5.5 42.5q1 32 13 59t33 48l35 35l626 -627l-588 -588q-17 -21 -38 -38l-35 35q-21 21 -33.5 48t-12.5 59q0 22 5.5 42.5t19.5 36.5l30 33l372 372z" />
    <glyph glyph-name="e" unicode="e" horiz-adv-x="1292" 
d="M537 717l372 -372l30 -33q14 -16 19.5 -36.5t5.5 -42.5q0 -32 -12.5 -59t-33.5 -48l-35 -35q-21 17 -38 38l-588 588l626 627l35 -35q20 -21 33 -48t13 -59q0 -22 -5.5 -42.5t-19.5 -36.5l-30 -33z" />
    <glyph glyph-name="f" unicode="f" horiz-adv-x="1292" 
d="M1014 910l33 30q16 14 36.5 19.5t42.5 5.5q32 -1 59 -13t48 -33l35 -35l-627 -626l-588 588q-21 17 -38 38l35 35q21 21 48 33.5t59 12.5q22 0 42.5 -5.5t36.5 -19.5l33 -30l372 -372z" />
    <glyph glyph-name="g" unicode="g" horiz-adv-x="1292" 
d="M641 775l-372 -372l-33 -30q-16 -14 -36.5 -19.5t-42.5 -5.5q-32 0 -59 12.5t-48 33.5l-35 35q17 21 38 38l588 588l627 -626l-35 -35q-21 -21 -48 -33.5t-59 -12.5q-22 0 -42.5 5.5t-36.5 19.5l-33 30z" />
    <glyph glyph-name="h" unicode="h" 
d="M1052 990q16 14 36.5 19.5t42.5 5.5q32 0 59 -13t48 -33l35 -35l-584 -583l-399 399l35 35q21 21 48 33.5t59 12.5q21 0 42.5 -5.5t36.5 -19.5l178 -175z" />
    <glyph glyph-name="i" unicode="i" 
d="M778 -8q-101 0 -194.5 26t-174.5 74t-148 115t-115 148t-74 174.5t-26 194.5t26 194.5t74 174.5t115 148t148 115t174.5 74t194.5 26t194.5 -26t174.5 -74t148 -115t115 -148t74 -174.5t26 -194.5t-26 -194.5t-74 -174.5t-115 -148t-148 -115t-174.5 -74t-194.5 -26z
M611 302q13 -29 43 -39t83 -10q37 0 63.5 6t44.5 14t28 15t16 9l6 104l-8 -2q-10 -2 -17 -2q-8 0 -16 1t-16 3l81 530q-90 0 -140.5 -0.5t-76 -0.5h-34h-14.5l-17 -137h51zM707 1126q0 -29 11 -51.5t29 -38t40.5 -24t44.5 -8.5q24 0 46.5 9.5t40 26t27.5 38.5t10 48
t-10.5 48.5t-28 39t-40 25.5t-45.5 9q-25 0 -47.5 -9.5t-40 -26t-27.5 -38.5t-10 -48z" />
    <glyph glyph-name="j" unicode="j" 
d="M778 -8q-101 0 -194.5 26t-174.5 74t-148 115t-115 148t-74 174.5t-26 194.5t26 194.5t74 174.5t115 148t148 115t174.5 74t194.5 26t194.5 -26t174.5 -74t148 -115t115 -148t74 -174.5t26 -194.5t-26 -194.5t-74 -174.5t-115 -148t-148 -115t-174.5 -74t-194.5 -26z
M534 1133q-52 -32 -94.5 -74.5t-73.5 -95.5l242 -242l-239 -239q31 -52 74 -94.5t96 -72.5l238 237l236 -236q52 30 95 73t74 95l-235 237l239 239q-31 53 -73 96t-94 75l-242 -241z" />
    <glyph glyph-name="k" unicode="k" 
d="M778 -8q-101 0 -194.5 26t-174.5 74t-148 115t-115 148t-74 174.5t-26 194.5t26 194.5t74 174.5t115 148t148 115t174.5 74t194.5 26t194.5 -26t174.5 -74t148 -115t115 -148t74 -174.5t26 -194.5t-26 -194.5t-74 -174.5t-115 -148t-148 -115t-174.5 -74t-194.5 -26z
M894 1184q-29 7 -58.5 10.5t-59.5 3.5q-61 0 -121 -15v-342h-338q-15 -57 -15 -115q0 -62 17 -124h336v-334q29 -8 59.5 -12t60.5 -4q61 0 118 15l2 334h338q16 60 16 127q0 28 -3 56t-10 56l-342 1v343z" />
    <glyph glyph-name="l" unicode="l" 
d="M778 -8q-101 0 -194.5 26t-174.5 74t-148 115t-115 148t-74 174.5t-26 194.5t26 194.5t74 174.5t115 148t148 115t174.5 74t194.5 26t194.5 -26t174.5 -74t148 -115t115 -148t74 -174.5t26 -194.5t-26 -194.5t-74 -174.5t-115 -148t-148 -115t-174.5 -74t-194.5 -26z
M317 841q-15 -57 -15 -115q0 -62 17 -124l914 -1q16 60 16 127q0 28 -3 56t-10 56z" />
    <glyph glyph-name="m" unicode="m" horiz-adv-x="1553" 
d="M778 -8q-101 0 -194.5 26t-174.5 74t-148 115t-115 148t-74 174.5t-26 194.5t26 194.5t74 174.5t115 148t148 115t174.5 74t194.5 26t194.5 -26t174.5 -74t148 -115t115 -148t74 -174.5t26 -194.5t-26 -194.5t-74 -174.5t-115 -148t-148 -115t-174.5 -74t-194.5 -26z
M778 181q87 0 165 25.5t144 71.5l-755 754q-46 -66 -71.5 -144t-25.5 -164q0 -112 43 -211t116.5 -172.5t172.5 -116.5t211 -43zM778 1267q-85 0 -162.5 -25.5t-143.5 -70.5l755 -753q45 66 69.5 143.5t24.5 162.5q0 112 -43 211t-116.5 172.5t-172.5 116.5t-211 43z" />
    <glyph glyph-name="n" unicode="n" horiz-adv-x="1553" 
d="M778 -8q-101 0 -194.5 26t-174.5 74t-148 115t-115 148t-74 174.5t-26 194.5t26 194.5t74 174.5t115 148t148 115t174.5 74t194.5 26t194.5 -26t174.5 -74t148 -115t115 -148t74 -174.5t26 -194.5t-26 -194.5t-74 -174.5t-115 -148t-148 -115t-174.5 -74t-194.5 -26z
M1321 724q0 86 -25.5 164t-71.5 144l-308 -308l308 -308q52 84 74.5 158t22.5 150zM778 181q85 0 162.5 25t143.5 70l-308 309l-307 -307q66 -46 144 -71.5t165 -25.5zM778 1267q-86 0 -163.5 -25t-143.5 -71l305 -307l308 307q-66 45 -143.5 70.5t-162.5 25.5zM235 724
q0 -85 24.5 -162.5t69.5 -143.5l307 307l-305 306q-47 -69 -71.5 -145.5t-24.5 -161.5z" />
    <glyph glyph-name="o" unicode="o" horiz-adv-x="1553" 
d="M778 -8q-101 0 -194.5 26t-174.5 74t-148 115t-115 148t-74 174.5t-26 194.5t26 194.5t74 174.5t115 148t148 115t174.5 74t194.5 26t194.5 -26t174.5 -74t148 -115t115 -148t74 -174.5t26 -194.5t-26 -194.5t-74 -174.5t-115 -148t-148 -115t-174.5 -74t-194.5 -26z
M778 180q112 0 211 43t173 117t117 173t43 211t-43 211t-117 173t-173 117t-211 43t-211 -43t-173 -117t-117 -173t-43 -211t43 -211t117 -173t173 -117t211 -43z" />
    <glyph glyph-name="p" unicode="p" horiz-adv-x="1210" 
d="M85 233l-35 35l407 406q-96 95 -162 161t-110.5 110t-69.5 69l-38.5 38.5t-18 18.5t-7.5 9l35 35q19 19 40 30q5 11 13 21.5t17 19.5l35 35l406 -407q95 95 161 161.5t110 111t69 69.5l38.5 38.5t18.5 18t9 7.5l35 -35q17 -17 30 -40q24 -13 41 -30l35 -35l-407 -406
q95 -95 161.5 -161t111 -110t69.5 -69l38.5 -38.5t18 -18.5t7.5 -9l-35 -35q-9 -9 -19 -17t-21 -13q-13 -24 -30 -41l-35 -35l-406 407q-95 -96 -161 -162t-110 -110.5t-69 -69.5l-38.5 -38.5t-18.5 -18t-9 -7.5l-35 35q-9 9 -17 19t-13 21q-11 5 -21.5 13t-19.5 17z" />
    <glyph glyph-name="q" unicode="q" 
d="M1210 19q-5 -1 -12 -2q-6 -1 -14 -1h-17q-20 0 -44.5 3.5t-48 14t-43.5 30t-31 51.5l-19 54l-350 164l-73 -218q-11 -32 -31 -51.5t-43.5 -30t-48 -14t-44.5 -3.5h-17.5t-13.5 1q-7 1 -12 2l302 876q-25 39 -25 86q0 33 12 61.5t33 50t49 34t60 12.5q33 0 61.5 -12.5
t50 -34t34 -50t12.5 -61.5q0 -25 -7.5 -47.5t-20.5 -41.5zM1265 532q-24 23 -47 46t-47 46q75 75 110.5 167t35.5 187q0 100 -37.5 193.5t-109.5 165.5q23 23 45.5 47.5t46.5 47.5q101 -102 146 -210.5t45 -231.5q0 -136 -48.5 -250t-139.5 -208zM303 532q-91 94 -139.5 208
t-48.5 250q0 123 45 231.5t146 210.5q24 -23 46.5 -47.5t45.5 -47.5q-72 -72 -109.5 -165.5t-37.5 -193.5q0 -95 35.5 -187t110.5 -167q-24 -23 -47 -46t-47 -46zM576 1160q-75 -75 -75 -180q0 -52 19 -96.5t54 -81.5q-24 -25 -47.5 -47.5t-45.5 -45.5q-59 53 -86.5 124
t-27.5 146q0 78 29 150.5t85 122.5q23 -23 47 -46zM992 1160l48 46t47 46q56 -50 85 -122.5t29 -150.5q0 -75 -27.5 -146t-86.5 -124q-22 23 -45.5 45.5t-47.5 47.5q35 37 54 81.5t19 96.5q0 105 -75 180zM688 500l157 73l-66 197zM725 403l211 -98l-58 169z" />
    <glyph glyph-name="r" unicode="r" horiz-adv-x="1601" 
d="M1197 1549q106 0 161.5 -56t55.5 -162v-1098q0 -53 -20 -99.5t-54.5 -81.5t-81 -55t-99.5 -20h-720q-53 0 -99.5 20t-81 55t-54.5 81.5t-20 99.5v1098q0 106 55.5 162t161.5 56h796zM799 81q36 0 60.5 24.5t24.5 61.5q0 36 -24.5 60.5t-60.5 24.5t-60.5 -24.5
t-24.5 -60.5q0 -37 24.5 -61.5t60.5 -24.5zM1244 356v1022h-890v-1022h890z" />
    <glyph glyph-name="s" unicode="s" horiz-adv-x="1589" 
d="M1235 0h-902v21q0 28 10 48t25.5 32.5t34.5 18t37 5.5h247v85h-351q-56 0 -105 15t-86 44t-58 72t-21 99v820q0 112 59 171t171 59h980q112 0 171 -59t59 -171v-820q0 -56 -21 -99t-58 -72t-86 -44t-105 -15h-352v-85h245q18 0 37 -5.5t34 -18t25 -32.5t10 -48v-21z
M1326 500v810h-1080v-810h1080z" />
    <glyph glyph-name="t" unicode="t" horiz-adv-x="1432" 
d="M383 1372q14 16 26.5 27.5t26 19t31 11t41.5 3.5h752v-1433h-1086v1024q0 35 6.5 62t22.5 46zM447 799q-11 10 -25 13.5t-29 3.5q-22 0 -40.5 -9t-32.5 -23l-44 -44l449 -447l450 447l-44 44q-15 14 -33.5 23t-40.5 9q-14 0 -28.5 -3.5t-25.5 -13.5l-193 -192v458h-169
v-458l-171 171z" />
    <glyph glyph-name="u" unicode="u" horiz-adv-x="1564" 
d="M670 472l371 235l-371 237v-472zM1276 1289q112 0 171 -59t59 -171v-699q0 -56 -21 -99t-58 -72t-86 -44t-105 -15h-900q-56 0 -105 15t-86 44t-58 72t-21 99v699q0 112 59 171t171 59h980z" />
    <glyph glyph-name="v" unicode="v" horiz-adv-x="1945" 
d="M1506 1144q82 -33 150.5 -87.5t118 -126t77 -157t27.5 -179.5q0 -123 -46.5 -231t-127 -188.5t-188.5 -127t-231 -46.5q-14 0 -26 0.5t-25 1.5v-3h-902v21q0 28 10 48t25.5 32.5t34.5 18t37 5.5h247v85h-351q-56 0 -105 15t-86 44t-58 72t-21 99v820q0 112 59 171t171 59
h980q112 0 171 -59t59 -171v-116zM1286 1109q-71 0 -136.5 -18.5t-123 -52t-104.5 -80.5t-81 -104t-52.5 -123t-18.5 -137q0 -106 41 -199.5t111 -163t164 -110t200 -40.5q107 0 201 40.5t163.5 110t110 163t40.5 199.5q0 107 -40.5 201t-110 163.5t-163.5 110t-201 40.5z
M693 594q0 123 46.5 231t127 188.5t188.5 127t231 46.5q10 0 20 -0.5t20 -1.5v125h-1080v-810h454q-4 23 -5.5 46.5t-1.5 47.5zM1240 549v-377q-37 25 -68 63.5t-55 87t-38.5 106t-18.5 120.5h180zM1329 549h178q-4 -64 -18 -121.5t-37 -106.5t-54.5 -87t-68.5 -62v377z
M1060 638q4 63 19 120.5t38 105.5t54.5 86t68.5 62v-374h-180zM1329 1010q36 -25 66.5 -63t53.5 -86t38 -104.5t19 -118.5h-177v372zM1470 989q51 -24 94 -59.5t75.5 -81t53 -99t26.5 -111.5h-118q-8 106 -42.5 197t-88.5 154zM1720 549q-6 -58 -26 -110.5t-52 -97
t-74 -80.5t-92 -60q51 63 84.5 153.5t40.5 194.5h119zM967 638h-117q6 58 26 110.5t52 97.5t74.5 81t92.5 60q-54 -63 -87.5 -153.5t-40.5 -195.5zM967 549q7 -102 39 -191.5t84 -153.5q-49 24 -90 60t-72 80.5t-51 96t-26 108.5h116z" />
    <glyph glyph-name="w" unicode="w" horiz-adv-x="1667" 
d="M104 716q0 101 26 194.5t74 175t114.5 148t148 114.5t175 74t194.5 26t194.5 -26t175 -74t148 -114.5t114.5 -148t74 -175t26 -194.5t-26 -194.5t-74 -175t-114.5 -148t-148 -114.5t-175 -74t-194.5 -26q-152 0 -285 57.5t-232.5 157t-157 232.5t-57.5 285zM838 1334
q-127 0 -239.5 -48.5t-196.5 -132t-132.5 -196t-48.5 -240.5q0 -127 48.5 -239t132.5 -195.5t196.5 -132t239.5 -48.5q85 0 164 22t147.5 62t125 96.5t96.5 124.5t62 146.5t22 163.5t-22 164t-62 147.5t-96.5 125t-125 96.5t-147.5 62t-164 22zM890 663h213
q-5 -76 -21.5 -145t-44.5 -127.5t-65 -104t-82 -74.5v451zM782 663v-451q-44 30 -81 76t-65 104.5t-46 127t-22 143.5h214zM568 770q5 76 22.5 144.5t45 126t65 102.5t81.5 74v-447h-214zM890 1215q42 -30 78.5 -75t64.5 -102.5t46 -125.5t23 -142h-212v445zM1058 1190
q61 -28 112.5 -71t90.5 -97t64 -118t32 -134h-142q-10 128 -50.5 236.5t-106.5 183.5zM1358 663q-7 -69 -31 -132t-62.5 -116.5t-89 -96.5t-110.5 -72q62 76 102 184t48 233h143zM456 770h-139q7 69 31 132t62 117t89 97t111 72q-64 -76 -104.5 -184.5t-49.5 -233.5z
M456 663q8 -122 46.5 -229.5t100.5 -183.5q-58 29 -107 72t-86.5 96t-61 115t-30.5 130h138z" />
    <glyph glyph-name="x" unicode="x" horiz-adv-x="1852" 
d="M46 1432h255q24 -1 49.5 -9.5t46.5 -24t35 -36.5t15 -47l2 -45v-733h789q51 -1 79 21l176 132q23 21 34 38.5t11 53.5v489l2 45q1 25 15 46.5t35 37.5t46.5 24.5t49.5 8.5h50v-181l-1 -575q0 -24 -3.5 -41.5t-11 -31t-19 -26t-27.5 -26.5l-240 -180q-19 -16 -46 -22.5
t-62 -6.5h-1074v897h-206v192zM255 158q0 -36 13.5 -67.5t37 -55t55 -37t67.5 -13.5t67.5 13.5t55 37t37 55t13.5 67.5t-13.5 67.5t-37 55t-55 37t-67.5 13.5t-67.5 -13.5t-55 -37t-37 -55t-13.5 -67.5zM1250 158q0 -36 13.5 -67.5t37 -55t55 -37t67.5 -13.5t67.5 13.5
t55 37t37 55t13.5 67.5t-13.5 67.5t-37 55t-55 37t-67.5 13.5t-67.5 -13.5t-55 -37t-37 -55t-13.5 -67.5z" />
    <glyph glyph-name="y" unicode="y" horiz-adv-x="1852" 
d="M46 1432h1689v-755q0 -24 -3.5 -41.5t-11 -31t-19 -26t-27.5 -26.5l-240 -180q-19 -16 -46 -22.5t-62 -6.5h-1074v897h-206v192zM1250 158q0 -36 13.5 -67.5t37 -55t55 -37t67.5 -13.5t67.5 13.5t55 37t37 55t13.5 67.5t-13.5 67.5t-37 55t-55 37t-67.5 13.5t-67.5 -13.5
t-55 -37t-37 -55t-13.5 -67.5zM255 158q0 -36 13.5 -67.5t37 -55t55 -37t67.5 -13.5t67.5 13.5t55 37t37 55t13.5 67.5t-13.5 67.5t-37 55t-55 37t-67.5 13.5t-67.5 -13.5t-55 -37t-37 -55t-13.5 -67.5z" />
    <glyph glyph-name="z" unicode="z" horiz-adv-x="1852" 
d="M46 1432h255q24 -1 49.5 -9.5t46.5 -24t35 -36.5t15 -47l2 -45v-733h789q51 -1 79 21l176 132q23 21 34 38.5t11 53.5v489l2 45q1 25 15 46.5t35 37.5t46.5 24.5t49.5 8.5h50v-181l-1 -575q0 -24 -3.5 -41.5t-11 -31t-19 -26t-27.5 -26.5l-240 -180q-19 -16 -46 -22.5
t-62 -6.5h-1074v897h-206v192zM812 786q-15 -15 -36 -20.5t-43 -4.5q-32 0 -59 12.5t-48 33.5l-35 35l257 256l-256 256l35 35q21 21 48 33.5t59 12.5q22 0 43 -5t36 -20l175 -172l176 172q15 15 36 20t43 5q32 -1 59 -13t48 -33l35 -35l-257 -256l256 -256l-35 -35
q-21 -21 -48 -33.5t-59 -12.5q-21 1 -42.5 5.5t-36.5 19.5l-175 172zM255 158q0 -36 13.5 -67.5t37 -55t55 -37t67.5 -13.5t67.5 13.5t55 37t37 55t13.5 67.5t-13.5 67.5t-37 55t-55 37t-67.5 13.5t-67.5 -13.5t-55 -37t-37 -55t-13.5 -67.5zM1250 158q0 -36 13.5 -67.5
t37 -55t55 -37t67.5 -13.5t67.5 13.5t55 37t37 55t13.5 67.5t-13.5 67.5t-37 55t-55 37t-67.5 13.5t-67.5 -13.5t-55 -37t-37 -55t-13.5 -67.5z" />
    <glyph glyph-name="sterling" unicode="&#xa3;" horiz-adv-x="1436" 
d="M1345 824q0 -123 -44.5 -229.5t-122.5 -190.5l-396 -396q-21 -21 -52 -21q-30 0 -51 21l-406 406q-72 81 -113.5 185.5t-41.5 224.5q0 85 22 163.5t62 147t96 124t124 95.5t146 62t162 22q85 0 163.5 -22t147 -62t124.5 -95.5t96 -124t62 -147t22 -163.5zM946 824
q0 44 -17 83t-46 68.5t-68.5 46.5t-84.5 17q-44 0 -83.5 -17t-68.5 -46.5t-46 -68.5t-17 -83q0 -45 17 -84t46 -68.5t68.5 -46t83.5 -16.5q45 0 84.5 16.5t68.5 46t46 68.5t17 84z" />
    <glyph glyph-name="multiply" unicode="&#xd7;" 
d="M778 -8q-101 0 -194.5 26t-174.5 74t-148 115t-115 148t-74 174.5t-26 194.5t26 194.5t74 174.5t115 148t148 115t174.5 74t194.5 26t194.5 -26t174.5 -74t148 -115t115 -148t74 -174.5t26 -194.5t-26 -194.5t-74 -174.5t-115 -148t-148 -115t-174.5 -74t-194.5 -26z
M534 1133q-52 -32 -94.5 -74.5t-73.5 -95.5l242 -242l-239 -239q31 -52 74 -94.5t96 -72.5l238 237l236 -236q52 30 95 73t74 95l-235 237l239 239q-31 53 -73 96t-94 75l-242 -241z" />
    <glyph glyph-name="minus" unicode="&#x2212;" 
d="M778 -8q-101 0 -194.5 26t-174.5 74t-148 115t-115 148t-74 174.5t-26 194.5t26 194.5t74 174.5t115 148t148 115t174.5 74t194.5 26t194.5 -26t174.5 -74t148 -115t115 -148t74 -174.5t26 -194.5t-26 -194.5t-74 -174.5t-115 -148t-148 -115t-174.5 -74t-194.5 -26z
M317 841q-15 -57 -15 -115q0 -62 17 -124l914 -1q16 60 16 127q0 28 -3 56t-10 56z" />
    </font>
</defs>
</svg>
